<svg xmlns="http://www.w3.org/2000/svg" width="1040" height="420" viewBox="0 0 1040 420">
<rect width="100%" height="100%" fill="#101418"/>
<text x="70" y="24" fill="#f4f7fb" font-family="Segoe UI, Arial" font-size="18">Round 001 Holdout Equity Curve</text>
<line x1="70" y1="365" x2="1010" y2="365" stroke="#53606b"/>
<line x1="70" y1="35" x2="70" y2="365" stroke="#53606b"/>
<polyline fill="none" stroke="#e06c75" stroke-width="3" points="70.0,258.5 75.5,260.1 80.9,261.0 86.4,261.7 91.9,262.4 97.3,262.9 102.8,263.4 108.3,263.9 113.7,264.6 119.2,265.4 124.7,266.4 130.1,267.6 135.6,269.2 141.0,271.0 146.5,273.2 152.0,277.7 157.4,279.3 162.9,282.7 168.4,286.4 173.8,290.4 179.3,296.5 184.8,298.0 190.2,302.3 195.7,306.6 201.2,310.7 206.6,316.6 212.1,318.2 217.6,321.3 223.0,324.0 228.5,326.4 234.0,328.3 239.4,329.8 244.9,331.0 250.3,331.7 255.8,332.1 261.3,334.0 266.7,335.6 272.2,334.9 277.7,334.1 283.1,333.2 288.6,332.4 294.1,331.5 299.5,330.8 305.0,330.3 310.5,329.9 315.9,329.8 321.4,330.0 326.9,330.5 332.3,331.2 337.8,332.3 343.3,333.7 348.7,335.3 354.2,337.2 359.7,339.3 365.1,341.6 370.6,344.1 376.0,346.5 381.5,354.4 387.0,355.9 392.4,358.0 397.9,360.0 403.4,361.6 408.8,363.0 414.3,364.0 419.8,364.7 425.2,365.0 430.7,362.6 436.2,359.8 441.6,356.7 447.1,353.2 452.6,349.5 458.0,345.6 463.5,341.5 469.0,337.4 474.4,333.1 479.9,330.7 485.3,332.3 490.8,328.3 496.3,324.5 501.7,321.1 507.2,317.9 512.7,315.2 518.1,312.7 523.6,310.7 529.1,309.1 534.5,307.8 540.0,308.6 545.5,310.2 550.9,310.1 556.4,310.2 561.9,310.4 567.3,310.7 572.8,311.0 578.3,311.3 583.7,311.5 589.2,311.5 594.7,311.4 600.1,311.0 605.6,310.4 611.0,309.4 616.5,308.2 622.0,306.7 627.4,304.8 632.9,302.7 638.4,300.4 643.8,297.8 649.3,295.1 654.8,292.2 660.2,289.3 665.7,286.4 671.2,285.4 676.6,286.9 682.1,284.5 687.6,282.3 693.0,280.4 698.5,278.9 704.0,277.8 709.4,277.1 714.9,276.7 720.3,276.8 725.8,277.3 731.3,278.1 736.7,279.2 742.2,280.7 747.7,282.3 753.1,284.2 758.6,286.2 764.1,288.3 769.5,290.5 775.0,292.5 780.5,294.5 785.9,296.3 791.4,297.8 796.9,299.1 802.3,300.2 807.8,300.8 813.3,303.1 818.7,304.7 824.2,304.0 829.7,303.0 835.1,301.8 840.6,300.3 846.0,298.7 851.5,296.9 857.0,295.1 862.4,293.2 867.9,291.4 873.4,289.7 878.8,288.2 884.3,281.9 889.8,280.8 895.2,280.0 900.7,281.3 906.2,282.9 911.6,283.4 917.1,284.1 922.6,285.2 928.0,286.5 933.5,288.1 939.0,289.8 944.4,291.6 949.9,293.5 955.3,295.4 960.8,299.1 966.3,300.7 971.7,301.9 977.2,302.8 982.7,303.4 988.1,303.6 993.6,303.4 999.1,302.8 1004.5,301.9 1010.0,303.7"/>
<polyline fill="none" stroke="#56b6c2" stroke-width="3" points="70.0,258.5 75.5,258.5 81.0,258.5 86.5,258.5 92.0,258.5 97.5,260.1 103.0,259.4 108.5,258.6 114.0,257.7 119.5,256.4 125.0,254.9 130.5,253.0 136.0,250.9 141.5,248.3 147.0,245.5 152.5,242.3 158.0,238.8 163.5,236.9 168.9,238.5 174.4,234.2 179.9,229.9 185.4,225.5 190.9,221.2 196.4,217.0 201.9,214.8 207.4,216.4 212.9,213.3 218.4,210.5 223.9,208.1 229.4,206.2 234.9,204.6 240.4,203.4 245.9,204.6 251.4,206.2 256.9,206.0 262.4,205.5 267.9,204.8 273.4,203.9 278.9,203.1 284.4,202.2 289.9,201.3 295.4,200.6 300.9,200.0 306.4,201.6 311.9,203.2 317.4,202.7 322.9,201.9 328.4,200.8 333.9,199.4 339.4,197.7 344.9,195.7 350.4,193.6 355.8,191.2 361.3,188.7 366.8,186.2 372.3,180.1 377.8,179.5 383.3,181.1 388.8,179.1 394.3,177.4 399.8,176.0 405.3,175.0 410.8,174.3 416.3,175.9 421.8,177.5 427.3,174.3 432.8,170.7 438.3,166.9 443.8,162.9 449.3,158.7 454.8,154.4 460.3,152.0 465.8,153.6 471.3,149.3 476.8,145.1 482.3,141.3 487.8,137.8 493.3,134.5 498.8,131.7 504.3,129.2 509.8,129.0 515.3,130.6 520.8,129.6 526.3,128.9 531.8,128.6 537.3,130.4 542.7,132.0 548.2,131.7 553.7,131.3 559.2,133.0 564.7,133.0 570.2,133.0 575.7,133.0 581.2,133.0 586.7,134.6 592.2,133.6 597.7,132.4 603.2,130.8 608.7,128.9 614.2,126.7 619.7,124.3 625.2,121.7 630.7,118.8 636.2,115.9 641.7,112.9 647.2,109.9 652.7,108.8 658.2,110.5 663.7,107.9 669.2,105.7 674.7,103.8 680.2,102.2 685.7,101.0 691.2,100.3 696.7,99.9 702.2,101.9 707.7,103.5 713.2,102.3 718.7,100.8 724.2,99.1 729.6,97.1 735.1,95.0 740.6,92.8 746.1,90.6 751.6,88.5 757.1,86.5 762.6,84.6 768.1,83.0 773.6,81.6 779.1,80.6 784.6,79.8 790.1,81.5 795.6,83.1 801.1,82.4 806.6,81.4 812.1,80.1 817.6,78.6 823.1,76.9 828.6,75.0 834.1,73.1 839.6,71.2 845.1,69.3 850.6,67.6 856.1,66.0 861.6,59.5 867.1,58.3 872.6,57.5 878.1,58.9 883.6,60.5 889.1,60.0 894.6,59.2 900.1,58.1 905.6,56.8 911.1,55.2 916.5,53.4 922.0,51.5 927.5,49.5 933.0,47.6 938.5,45.7 944.0,44.0 949.5,42.4 955.0,41.1 960.5,40.2 966.0,39.5 971.5,39.3 977.0,41.5 982.5,43.1 988.0,41.7 993.5,39.8 999.0,37.6 1004.5,35.0 1010.0,36.9"/>
<rect x="830" y="41" width="16" height="4" fill="#e06c75"/>
<text x="854" y="47" fill="#d7dae0" font-family="Segoe UI, Arial" font-size="13">baseline</text>
<rect x="830" y="65" width="16" height="4" fill="#56b6c2"/>
<text x="854" y="71" fill="#d7dae0" font-family="Segoe UI, Arial" font-size="13">optimized</text>
<text x="70" y="402" fill="#9aa4ae" font-family="Segoe UI, Arial" font-size="12">holdout bars, fees and slippage included</text>
</svg>