<svg xmlns="http://www.w3.org/2000/svg" width="1040" height="540" viewBox="0 0 1040 540">
<rect width="100%" height="100%" fill="#101418"/>
<text x="70" y="28" fill="#f4f7fb" font-family="Segoe UI, Arial" font-size="18">Round 001 Financial Metrics</text>
<line x1="512.5" y1="27" x2="512.5" y2="505" stroke="#53606b"/>
<text x="30" y="63" fill="#d7dae0" font-family="Segoe UI, Arial" font-size="13">Realized PnL</text>
<rect x="488.5" y="49" width="24.0" height="13" fill="#e06c75"/>
<text x="432.5" y="60" fill="#d7dae0" font-family="Segoe UI, Arial" font-size="11">-8.00</text>
<rect x="512.5" y="67" width="218.4" height="13" fill="#56b6c2"/>
<text x="738.9" y="78" fill="#d7dae0" font-family="Segoe UI, Arial" font-size="11">39.21</text>
<text x="30" y="111" fill="#d7dae0" font-family="Segoe UI, Arial" font-size="13">ROI %</text>
<rect x="510.1" y="97" width="2.4" height="13" fill="#e06c75"/>
<text x="454.1" y="108" fill="#d7dae0" font-family="Segoe UI, Arial" font-size="11">-0.80</text>
<rect x="512.5" y="115" width="21.8" height="13" fill="#56b6c2"/>
<text x="542.3" y="126" fill="#d7dae0" font-family="Segoe UI, Arial" font-size="11">3.92</text>
<text x="30" y="159" fill="#d7dae0" font-family="Segoe UI, Arial" font-size="13">Max drawdown %</text>
<rect x="512.5" y="145" width="10.5" height="13" fill="#e06c75"/>
<text x="531.0" y="156" fill="#d7dae0" font-family="Segoe UI, Arial" font-size="11">1.88</text>
<rect x="512.5" y="163" width="0.6" height="13" fill="#56b6c2"/>
<text x="521.1" y="174" fill="#d7dae0" font-family="Segoe UI, Arial" font-size="11">0.10</text>
<text x="30" y="207" fill="#d7dae0" font-family="Segoe UI, Arial" font-size="13">Closed trades</text>
<rect x="512.5" y="193" width="66.9" height="13" fill="#e06c75"/>
<text x="587.4" y="204" fill="#d7dae0" font-family="Segoe UI, Arial" font-size="11">12.00</text>
<rect x="512.5" y="211" width="89.1" height="13" fill="#56b6c2"/>
<text x="609.6" y="222" fill="#d7dae0" font-family="Segoe UI, Arial" font-size="11">16.00</text>
<text x="30" y="255" fill="#d7dae0" font-family="Segoe UI, Arial" font-size="13">Win rate %</text>
<rect x="512.5" y="241" width="185.7" height="13" fill="#e06c75"/>
<text x="706.2" y="252" fill="#d7dae0" font-family="Segoe UI, Arial" font-size="11">33.33</text>
<rect x="512.5" y="259" width="487.5" height="13" fill="#56b6c2"/>
<text x="1008.0" y="270" fill="#d7dae0" font-family="Segoe UI, Arial" font-size="11">87.50</text>
<text x="30" y="303" fill="#d7dae0" font-family="Segoe UI, Arial" font-size="13">Edge vs buy/hold</text>
<rect x="482.4" y="289" width="30.1" height="13" fill="#e06c75"/>
<text x="426.4" y="300" fill="#d7dae0" font-family="Segoe UI, Arial" font-size="11">-10.02</text>
<rect x="512.5" y="307" width="217.0" height="13" fill="#56b6c2"/>
<text x="737.5" y="318" fill="#d7dae0" font-family="Segoe UI, Arial" font-size="11">38.95</text>
<text x="30" y="351" fill="#d7dae0" font-family="Segoe UI, Arial" font-size="13">Profit factor</text>
<rect x="512.5" y="337" width="3.7" height="13" fill="#e06c75"/>
<text x="524.2" y="348" fill="#d7dae0" font-family="Segoe UI, Arial" font-size="11">0.67</text>
<rect x="512.5" y="355" width="222.9" height="13" fill="#56b6c2"/>
<text x="743.4" y="366" fill="#d7dae0" font-family="Segoe UI, Arial" font-size="11">40.00</text>
<text x="30" y="399" fill="#d7dae0" font-family="Segoe UI, Arial" font-size="13">Loss streak</text>
<rect x="512.5" y="385" width="27.9" height="13" fill="#e06c75"/>
<text x="548.4" y="396" fill="#d7dae0" font-family="Segoe UI, Arial" font-size="11">5.00</text>
<rect x="512.5" y="403" width="11.1" height="13" fill="#56b6c2"/>
<text x="531.6" y="414" fill="#d7dae0" font-family="Segoe UI, Arial" font-size="11">2.00</text>
<rect x="70" y="505" width="16" height="4" fill="#e06c75"/>
<text x="94" y="510" fill="#d7dae0" font-family="Segoe UI, Arial" font-size="13">baseline</text>
<rect x="200" y="505" width="16" height="4" fill="#56b6c2"/>
<text x="224" y="510" fill="#d7dae0" font-family="Segoe UI, Arial" font-size="13">optimized</text>
</svg>