<?xml version="1.0" encoding="UTF-8"?>
<svg xmlns="http://www.w3.org/2000/svg" width="1200" height="720" viewBox="0 0 1200 720">
<rect width="100%" height="100%" fill="#ffffff"/>
<style>text{font-family:Segoe UI,Arial,sans-serif;fill:#111827;letter-spacing:0}.axis{font-size:12px}.label{font-size:13px}.panel{font-size:16px;font-weight:600}.title{font-size:24px;font-weight:700}.sub{font-size:13px;fill:#4b5563}</style>
<text class="title" x="92" y="38">Kronos post-cutoff forecast benchmark</text>
<text class="sub" x="92" y="62">Kronos-base; 480x5m lookback; 4x5m horizon | BTCUSDT, ETHUSDT, SOLUSDT | cumulative paired absolute-error improvement in bps | not P&amp;L</text>
<text class="sub" x="92" y="82">Above zero beats a zero-return random-walk forecast; source rows and SHA-256 remain the numerical authority.</text>
<text class="panel" x="92" y="104">Raw forecast vs random walk</text>
<rect x="92" y="118" width="1073" height="220" fill="#f9fafb" stroke="#d1d5db"/>
<line x1="92" y1="118.00" x2="1165" y2="118.00" stroke="#e5e7eb"/>
<text class="axis" x="82" y="122.00" text-anchor="end">17485.48</text>
<line x1="92" y1="173.00" x2="1165" y2="173.00" stroke="#e5e7eb"/>
<text class="axis" x="82" y="177.00" text-anchor="end">8742.74</text>
<line x1="92" y1="228.00" x2="1165" y2="228.00" stroke="#e5e7eb"/>
<text class="axis" x="82" y="232.00" text-anchor="end">0.00</text>
<line x1="92" y1="283.00" x2="1165" y2="283.00" stroke="#e5e7eb"/>
<text class="axis" x="82" y="287.00" text-anchor="end">-8742.74</text>
<line x1="92" y1="338.00" x2="1165" y2="338.00" stroke="#e5e7eb"/>
<text class="axis" x="82" y="342.00" text-anchor="end">-17485.48</text>
<line x1="92" y1="228.00" x2="1165" y2="228.00" stroke="#111827" stroke-width="1.2"/>
<polyline fill="none" stroke="#d97706" stroke-width="2" points="92.00,229.04 94.10,228.99 96.19,229.12 98.30,229.20 100.39,229.51 102.50,229.56 104.60,229.50 106.69,229.52 108.80,229.39 110.89,229.41 113.00,229.35 115.09,229.34 117.19,229.37 119.30,229.64 121.39,229.80 123.50,229.77 125.59,229.80 127.69,229.76 129.79,229.77 131.89,229.82 133.99,229.84 136.09,229.99 138.19,229.94 140.29,229.99 142.39,230.11 144.49,230.02 146.59,230.03 148.69,230.26 150.79,230.32 152.89,230.43 154.99,230.52 157.09,230.59 159.19,230.61 161.29,230.52 163.39,230.60 165.49,230.60 167.59,231.02 169.69,231.00 171.79,230.96 173.89,231.40 175.99,231.30 178.09,231.23 180.19,231.20 182.29,231.21 184.38,231.23 186.49,231.23 188.59,231.46 190.69,231.43 192.79,231.58 194.89,231.49 196.99,231.77 199.08,231.79 201.19,231.78 203.29,232.05 205.39,232.03 207.49,231.93 209.58,231.92 211.69,231.92 213.78,231.89 215.89,232.04 217.98,231.99 220.08,232.12 222.19,232.21 224.28,232.89 226.39,232.88 228.48,232.88 230.58,233.94 232.68,233.85 234.78,233.82 236.88,233.83 238.98,233.83 241.09,233.84 243.18,233.86 245.28,233.92 247.38,233.90 249.48,233.94 251.58,233.97 253.68,233.95 255.78,233.98 257.88,234.00 259.98,234.38 262.08,234.49 264.18,234.38 266.28,234.35 268.38,234.29 270.48,234.35 272.58,234.31 274.68,234.19 276.78,234.26 278.88,234.28 280.98,234.25 283.08,234.33 285.18,234.39 287.28,234.38 289.38,234.50 291.48,234.56 293.58,234.51 295.68,234.47 297.78,234.65 299.88,234.59 301.97,234.85 304.08,234.83 306.18,234.89 308.28,234.90 310.38,234.88 312.47,235.02 314.58,235.01 316.67,235.04 318.78,235.01 320.87,235.07 322.97,235.06 325.08,235.13 327.17,235.08 329.28,235.08 331.37,235.14 333.48,235.13 335.57,235.14 337.67,235.22 339.78,235.45 341.87,235.44 343.98,235.35 346.07,235.38 348.17,235.43 350.27,235.62 352.37,235.59 354.47,235.79 356.57,235.78 358.67,235.93 360.77,235.83 362.87,235.86 364.97,235.91 367.07,235.84 369.17,236.30 371.27,236.47 373.37,236.69 375.47,236.70 377.57,236.73 379.67,236.74 381.77,236.71 383.87,236.66 385.97,236.66 388.07,236.86 390.17,236.88 392.27,236.90 394.37,237.10 396.47,237.15 398.57,237.61 400.67,237.71 402.77,237.57 404.86,237.56 406.97,237.70 409.07,237.97 411.17,237.98 413.27,238.09 415.36,238.01 417.47,237.95 419.56,238.18 421.67,238.48 423.76,238.59 425.87,238.82 427.97,239.10 430.06,239.28 432.17,239.26 434.26,239.45 436.37,239.50 438.46,239.32 440.56,239.62 442.67,239.66 444.76,239.71 446.87,239.69 448.96,240.24 451.06,240.36 453.16,240.43 455.26,240.46 457.36,240.52 459.46,240.58 461.56,240.84 463.66,240.84 465.76,240.84 467.86,240.98 469.96,241.00 472.06,240.99 474.16,240.97 476.26,241.23 478.36,241.23 480.46,241.41 482.56,241.51 484.66,241.48 486.76,241.58 488.86,242.94 490.96,242.95 493.06,243.04 495.16,243.16 497.26,243.32 499.36,243.25 501.46,243.20 503.56,243.28 505.66,243.41 507.75,243.45 509.86,243.54 511.96,244.98 514.06,245.11 516.16,245.14 518.26,245.14 520.36,245.13 522.45,245.17 524.56,245.21 526.65,245.13 528.76,245.09 530.86,245.22 532.95,245.10 535.06,245.11 537.15,245.13 539.26,245.35 541.35,245.37 543.45,245.76 545.56,245.78 547.65,245.77 549.76,245.88 551.85,245.94 553.95,245.90 556.05,245.94 558.15,245.99 560.25,246.30 562.35,246.49 564.46,246.47 566.55,246.65 568.65,246.60 570.75,246.57 572.85,246.54 574.95,246.49 577.05,246.66 579.15,246.97 581.25,247.06 583.35,247.03 585.45,246.79 587.55,246.76 589.65,246.78 591.75,247.27 593.85,247.64 595.95,247.65 598.05,247.69 600.15,247.66 602.25,247.74 604.35,247.78 606.45,247.79 608.55,247.81 610.65,247.85 612.75,247.90 614.85,247.89 616.95,248.05 619.05,248.03 621.15,248.07 623.25,248.35 625.34,248.43 627.45,248.39 629.55,248.35 631.65,248.52 633.75,248.60 635.84,248.63 637.95,248.62 640.04,248.76 642.15,248.84 644.24,248.90 646.34,248.80 648.45,248.97 650.54,248.98 652.65,248.90 654.74,248.86 656.85,249.75 658.94,249.82 661.04,249.83 663.15,249.98 665.24,250.03 667.35,250.01 669.44,250.10 671.54,250.24 673.64,250.21 675.74,250.61 677.84,250.64 679.94,250.64 682.04,250.63 684.14,250.71 686.24,250.66 688.34,250.77 690.44,250.77 692.54,250.85 694.64,250.92 696.74,250.89 698.84,250.97 700.94,251.06 703.04,251.07 705.14,251.06 707.24,251.18 709.34,251.52 711.44,251.66 713.54,251.65 715.64,251.73 717.74,251.77 719.84,251.79 721.94,251.73 724.04,251.79 726.14,251.82 728.23,251.95 730.34,252.17 732.44,252.24 734.54,252.32 736.64,252.30 738.73,252.42 740.84,252.39 742.93,252.87 745.04,253.04 747.13,253.09 749.24,253.11 751.34,253.09 753.43,253.17 755.54,253.16 757.63,253.15 759.74,253.21 761.83,253.39 763.93,253.47 766.04,253.46 768.13,253.98 770.24,255.57 772.33,255.62 774.43,255.60 776.53,256.20 778.63,256.21 780.73,256.17 782.83,256.16 784.93,256.72 787.03,256.65 789.13,258.25 791.23,258.43 793.33,258.42 795.43,258.47 797.53,258.51 799.63,258.52 801.73,258.50 803.83,258.64 805.93,258.65 808.03,258.75 810.13,258.75 812.23,258.86 814.33,258.86 816.43,259.21 818.53,259.23 820.63,259.19 822.73,260.20 824.83,262.25 826.93,262.22 829.03,262.21 831.12,263.09 833.23,263.37 835.33,263.39 837.43,263.40 839.53,263.43 841.63,263.46 843.73,263.61 845.82,263.54 847.93,263.64 850.02,263.65 852.13,263.67 854.23,263.71 856.32,263.76 858.43,263.84 860.52,263.87 862.63,263.92 864.72,264.00 866.82,264.09 868.93,264.10 871.02,264.11 873.13,264.12 875.22,264.88 877.32,265.32 879.42,265.68 881.52,265.69 883.62,265.65 885.72,266.06 887.83,266.09 889.92,266.05 892.02,266.01 894.12,266.01 896.22,266.02 898.32,266.01 900.42,266.07 902.52,266.30 904.62,266.42 906.72,266.62 908.82,266.60 910.92,266.63 913.02,266.83 915.12,267.07 917.22,267.15 919.32,267.35 921.42,268.40 923.52,268.43 925.62,268.42 927.72,268.45 929.82,268.51 931.92,269.08 934.02,269.20 936.12,269.24 938.22,269.24 940.32,269.19 942.42,269.26 944.52,269.25 946.62,269.25 948.71,269.22 950.82,269.22 952.92,269.23 955.02,269.26 957.12,269.29 959.21,269.21 961.32,269.34 963.41,269.52 965.52,269.53 967.61,269.64 969.71,269.66 971.82,269.76 973.91,269.78 976.02,269.81 978.11,269.87 980.22,269.89 982.31,269.91 984.41,269.89 986.52,270.86 988.61,270.90 990.72,271.82 992.81,271.83 994.91,271.91 997.01,271.97 999.11,271.91 1001.21,271.97 1003.31,272.00 1005.41,272.15 1007.51,272.13 1009.61,272.25 1011.71,272.72 1013.81,272.95 1015.91,274.04 1018.01,274.20 1020.11,274.18 1022.21,274.41 1024.31,274.36 1026.41,274.44 1028.51,274.40 1030.61,274.54 1032.71,274.59 1034.81,274.59 1036.91,274.56 1039.01,274.53 1041.11,274.67 1043.21,275.55 1045.31,275.57 1047.41,275.60 1049.51,275.62 1051.60,275.57 1053.71,277.36 1055.81,277.33 1057.91,277.27 1060.01,277.29 1062.10,277.29 1064.21,277.31 1066.30,277.33 1068.41,277.43 1070.50,277.58 1072.61,277.68 1074.71,277.73 1076.80,278.18 1078.91,279.32 1081.00,279.52 1083.11,279.47 1085.20,279.58 1087.30,279.63 1089.41,279.66 1091.50,279.74 1093.61,279.75 1095.70,279.89 1097.80,279.96 1099.90,279.75 1102.00,279.82 1104.10,279.87 1106.20,279.93 1108.30,280.15 1110.40,280.16 1112.50,280.17 1114.60,280.16 1116.70,280.13 1118.80,280.21 1120.90,280.14 1123.00,280.15 1125.10,280.13 1127.20,280.06 1129.30,280.12 1131.40,280.27 1133.50,280.51 1135.60,280.49 1137.70,280.44 1139.80,280.38 1141.90,280.42 1144.00,280.42 1146.10,280.62 1148.20,280.85 1150.30,280.91 1152.40,280.94 1154.49,280.99 1156.60,281.03 1158.70,281.03 1160.80,280.99 1162.90,280.97 1165.00,281.02"/>
<polyline fill="none" stroke="#2563eb" stroke-width="2" points="92.00,227.98 94.10,228.01 96.19,228.32 98.30,228.43 100.39,228.62 102.50,228.74 104.60,228.79 106.69,228.75 108.80,228.55 110.89,228.70 113.00,228.69 115.09,228.59 117.19,228.66 119.30,229.32 121.39,229.30 123.50,229.12 125.59,229.17 127.69,229.22 129.79,229.26 131.89,229.23 133.99,229.23 136.09,229.17 138.19,229.27 140.29,229.40 142.39,229.45 144.49,229.49 146.59,229.57 148.69,229.50 150.79,229.49 152.89,229.91 154.99,229.91 157.09,230.04 159.19,230.06 161.29,230.65 163.39,231.07 165.49,231.49 167.59,231.90 169.69,231.92 171.79,232.04 173.89,232.09 175.99,232.36 178.09,232.23 180.19,232.25 182.29,232.20 184.38,232.22 186.49,232.23 188.59,232.63 190.69,232.63 192.79,232.73 194.89,232.69 196.99,232.67 199.08,232.71 201.19,232.76 203.29,232.98 205.39,233.14 207.49,233.30 209.58,233.31 211.69,233.33 213.78,233.29 215.89,233.28 217.98,233.31 220.08,233.41 222.19,233.59 224.28,234.57 226.39,234.60 228.48,234.69 230.58,234.63 232.68,234.75 234.78,234.77 236.88,234.79 238.98,234.75 241.09,234.74 243.18,234.71 245.28,234.78 247.38,234.88 249.48,235.17 251.58,235.36 253.68,235.37 255.78,235.38 257.88,235.28 259.98,235.25 262.08,235.37 264.18,235.39 266.28,235.44 268.38,235.43 270.48,235.34 272.58,235.33 274.68,235.06 276.78,235.28 278.88,235.19 280.98,235.10 283.08,235.24 285.18,235.26 287.28,235.24 289.38,235.47 291.48,235.44 293.58,235.41 295.68,235.41 297.78,235.43 299.88,235.40 301.97,235.43 304.08,235.44 306.18,235.40 308.28,235.41 310.38,235.32 312.47,235.38 314.58,235.45 316.67,235.48 318.78,235.58 320.87,235.69 322.97,235.70 325.08,235.73 327.17,235.77 329.28,235.89 331.37,235.98 333.48,235.96 335.57,236.06 337.67,236.21 339.78,236.34 341.87,236.48 343.98,236.56 346.07,236.69 348.17,236.80 350.27,236.90 352.37,236.82 354.47,236.82 356.57,237.06 358.67,237.19 360.77,237.10 362.87,237.05 364.97,237.08 367.07,236.85 369.17,236.90 371.27,237.11 373.37,237.06 375.47,236.98 377.57,237.01 379.67,237.11 381.77,237.11 383.87,237.15 385.97,237.26 388.07,237.40 390.17,237.54 392.27,237.52 394.37,237.44 396.47,237.61 398.57,237.83 400.67,238.00 402.77,238.06 404.86,238.05 406.97,238.26 409.07,238.37 411.17,238.50 413.27,238.77 415.36,238.73 417.47,238.81 419.56,238.80 421.67,238.83 423.76,238.88 425.87,239.11 427.97,239.45 430.06,239.57 432.17,239.56 434.26,239.80 436.37,239.93 438.46,239.78 440.56,240.04 442.67,239.95 444.76,239.99 446.87,240.05 448.96,240.43 451.06,240.46 453.16,240.47 455.26,240.39 457.36,240.45 459.46,240.46 461.56,240.48 463.66,240.49 465.76,240.60 467.86,240.67 469.96,240.70 472.06,240.68 474.16,240.69 476.26,240.87 478.36,240.85 480.46,240.88 482.56,240.84 484.66,240.56 486.76,240.54 488.86,241.06 490.96,241.04 493.06,241.10 495.16,241.42 497.26,242.20 499.36,242.19 501.46,242.22 503.56,241.94 505.66,242.00 507.75,241.84 509.86,242.15 511.96,242.20 514.06,242.66 516.16,242.93 518.26,242.93 520.36,243.12 522.45,242.88 524.56,242.84 526.65,242.69 528.76,242.84 530.86,242.80 532.95,242.77 535.06,242.59 537.15,242.55 539.26,242.63 541.35,242.63 543.45,242.87 545.56,242.88 547.65,242.89 549.76,242.88 551.85,242.96 553.95,242.90 556.05,242.93 558.15,243.57 560.25,243.67 562.35,243.88 564.46,243.91 566.55,244.12 568.65,244.02 570.75,244.03 572.85,244.29 574.95,244.38 577.05,244.56 579.15,244.78 581.25,244.91 583.35,245.00 585.45,245.17 587.55,245.29 589.65,245.77 591.75,246.05 593.85,246.91 595.95,246.87 598.05,247.00 600.15,247.08 602.25,247.47 604.35,247.54 606.45,247.70 608.55,247.76 610.65,248.02 612.75,249.86 614.85,249.91 616.95,250.41 619.05,250.73 621.15,250.65 623.25,251.45 625.34,251.61 627.45,251.61 629.55,251.57 631.65,252.72 633.75,252.71 635.84,252.71 637.95,252.70 640.04,252.71 642.15,252.55 644.24,252.84 646.34,252.97 648.45,252.87 650.54,255.80 652.65,255.88 654.74,255.96 656.85,257.12 658.94,257.17 661.04,257.18 663.15,257.27 665.24,257.30 667.35,257.34 669.44,257.42 671.54,257.60 673.64,257.67 675.74,257.66 677.84,257.63 679.94,257.65 682.04,257.68 684.14,257.80 686.24,257.79 688.34,257.87 690.44,257.95 692.54,257.88 694.64,257.98 696.74,258.04 698.84,258.01 700.94,258.00 703.04,257.74 705.14,258.12 707.24,258.37 709.34,258.32 711.44,261.79 713.54,261.80 715.64,261.64 717.74,262.10 719.84,262.06 721.94,261.79 724.04,261.83 726.14,261.81 728.23,262.23 730.34,262.59 732.44,262.57 734.54,262.56 736.64,262.47 738.73,262.85 740.84,263.09 742.93,263.78 745.04,264.45 747.13,264.40 749.24,264.41 751.34,264.40 753.43,264.54 755.54,264.56 757.63,264.33 759.74,264.24 761.83,264.24 763.93,265.31 766.04,265.47 768.13,265.59 770.24,268.36 772.33,268.42 774.43,268.39 776.53,269.66 778.63,269.68 780.73,269.62 782.83,269.53 784.93,269.65 787.03,269.55 789.13,269.59 791.23,269.91 793.33,269.94 795.43,269.89 797.53,270.01 799.63,270.07 801.73,270.08 803.83,270.58 805.93,270.65 808.03,270.63 810.13,270.56 812.23,270.89 814.33,270.92 816.43,271.56 818.53,271.61 820.63,272.75 822.73,274.48 824.83,275.18 826.93,275.27 829.03,275.27 831.12,275.95 833.23,275.97 835.33,276.70 837.43,276.79 839.53,276.76 841.63,276.77 843.73,279.14 845.82,279.04 847.93,279.15 850.02,279.68 852.13,279.84 854.23,279.84 856.32,279.91 858.43,279.79 860.52,279.86 862.63,280.02 864.72,280.20 866.82,280.74 868.93,281.11 871.02,281.16 873.13,281.44 875.22,281.39 877.32,281.60 879.42,281.67 881.52,281.93 883.62,282.02 885.72,282.46 887.83,282.55 889.92,282.61 892.02,282.62 894.12,282.63 896.22,282.74 898.32,283.95 900.42,283.82 902.52,284.75 904.62,284.92 906.72,284.92 908.82,284.85 910.92,284.81 913.02,284.82 915.12,284.78 917.22,284.88 919.32,284.87 921.42,286.48 923.52,286.50 925.62,286.56 927.72,286.49 929.82,286.65 931.92,288.42 934.02,288.70 936.12,288.84 938.22,288.91 940.32,288.77 942.42,288.75 944.52,288.73 946.62,289.31 948.71,289.30 950.82,289.35 952.92,289.46 955.02,289.73 957.12,289.93 959.21,289.91 961.32,289.95 963.41,290.10 965.52,290.10 967.61,290.24 969.71,290.32 971.82,290.53 973.91,291.81 976.02,291.66 978.11,291.61 980.22,291.65 982.31,291.61 984.41,291.64 986.52,292.19 988.61,292.31 990.72,292.24 992.81,292.26 994.91,292.30 997.01,292.46 999.11,292.59 1001.21,292.66 1003.31,292.65 1005.41,293.03 1007.51,293.04 1009.61,293.25 1011.71,294.38 1013.81,294.75 1015.91,295.31 1018.01,295.30 1020.11,295.22 1022.21,295.65 1024.31,295.72 1026.41,295.82 1028.51,295.78 1030.61,296.91 1032.71,296.98 1034.81,297.10 1036.91,297.21 1039.01,297.15 1041.11,297.35 1043.21,298.22 1045.31,298.33 1047.41,298.36 1049.51,298.29 1051.60,298.36 1053.71,299.34 1055.81,299.48 1057.91,299.47 1060.01,299.66 1062.10,299.64 1064.21,299.74 1066.30,299.64 1068.41,299.65 1070.50,299.76 1072.61,299.64 1074.71,299.79 1076.80,300.06 1078.91,304.01 1081.00,304.08 1083.11,303.89 1085.20,303.84 1087.30,303.83 1089.41,303.74 1091.50,303.87 1093.61,303.82 1095.70,303.95 1097.80,303.94 1099.90,303.76 1102.00,304.15 1104.10,304.23 1106.20,304.28 1108.30,304.34 1110.40,304.10 1112.50,304.23 1114.60,304.19 1116.70,304.17 1118.80,304.35 1120.90,304.18 1123.00,304.18 1125.10,304.38 1127.20,304.79 1129.30,304.85 1131.40,304.91 1133.50,305.29 1135.60,305.26 1137.70,305.23 1139.80,305.16 1141.90,305.06 1144.00,305.09 1146.10,305.69 1148.20,305.95 1150.30,305.97 1152.40,306.03 1154.49,305.98 1156.60,305.97 1158.70,305.98 1160.80,305.93 1162.90,305.89 1165.00,305.96"/>
<polyline fill="none" stroke="#15803d" stroke-width="2" points="92.00,227.87 94.10,227.85 96.19,227.98 98.30,228.01 100.39,227.81 102.50,227.92 104.60,227.95 106.69,228.02 108.80,227.82 110.89,227.71 113.00,228.11 115.09,228.17 117.19,228.17 119.30,228.70 121.39,229.18 123.50,229.08 125.59,229.18 127.69,230.22 129.79,230.22 131.89,230.35 133.99,230.66 136.09,231.10 138.19,230.82 140.29,230.71 142.39,231.03 144.49,231.07 146.59,230.95 148.69,231.12 150.79,231.14 152.89,231.54 154.99,231.62 157.09,231.73 159.19,231.72 161.29,232.37 163.39,232.32 165.49,232.07 167.59,232.15 169.69,232.35 171.79,232.35 173.89,232.80 175.99,232.78 178.09,232.75 180.19,232.72 182.29,232.69 184.38,232.70 186.49,232.68 188.59,233.06 190.69,233.09 192.79,233.42 194.89,233.50 196.99,233.57 199.08,233.97 201.19,233.96 203.29,234.00 205.39,234.28 207.49,234.25 209.58,234.26 211.69,234.29 213.78,234.68 215.89,234.68 217.98,234.86 220.08,234.79 222.19,234.85 224.28,234.96 226.39,234.93 228.48,235.02 230.58,236.00 232.68,235.97 234.78,236.03 236.88,236.09 238.98,236.18 241.09,236.19 243.18,236.25 245.28,236.31 247.38,236.55 249.48,236.56 251.58,236.87 253.68,236.95 255.78,237.14 257.88,237.16 259.98,237.86 262.08,237.82 264.18,237.75 266.28,237.69 268.38,237.69 270.48,237.61 272.58,237.62 274.68,237.30 276.78,238.27 278.88,237.99 280.98,238.01 283.08,238.10 285.18,238.10 287.28,238.20 289.38,238.43 291.48,238.56 293.58,238.52 295.68,238.51 297.78,238.74 299.88,238.66 301.97,238.70 304.08,238.83 306.18,238.82 308.28,238.87 310.38,238.80 312.47,238.81 314.58,238.94 316.67,239.29 318.78,239.31 320.87,240.26 322.97,240.28 325.08,240.33 327.17,240.47 329.28,240.43 331.37,240.54 333.48,240.65 335.57,241.05 337.67,241.49 339.78,241.53 341.87,241.47 343.98,241.44 346.07,241.78 348.17,241.72 350.27,241.66 352.37,241.59 354.47,241.85 356.57,242.24 358.67,242.09 360.77,242.15 362.87,242.18 364.97,242.13 367.07,242.14 369.17,242.00 371.27,242.15 373.37,242.41 375.47,242.34 377.57,242.33 379.67,242.33 381.77,242.39 383.87,242.26 385.97,242.33 388.07,242.46 390.17,242.51 392.27,242.43 394.37,242.31 396.47,242.37 398.57,241.94 400.67,241.89 402.77,241.88 404.86,241.96 406.97,242.16 409.07,242.40 411.17,242.42 413.27,242.49 415.36,242.36 417.47,242.48 419.56,242.52 421.67,242.43 423.76,243.15 425.87,243.19 427.97,244.48 430.06,245.03 432.17,245.06 434.26,244.98 436.37,245.09 438.46,244.79 440.56,245.14 442.67,245.01 444.76,245.07 446.87,245.17 448.96,245.72 451.06,245.62 453.16,245.62 455.26,245.55 457.36,245.62 459.46,245.68 461.56,245.91 463.66,245.97 465.76,246.19 467.86,246.65 469.96,246.54 472.06,246.40 474.16,246.37 476.26,246.77 478.36,246.70 480.46,246.85 482.56,247.15 484.66,247.19 486.76,247.46 488.86,247.32 490.96,247.47 493.06,247.49 495.16,247.82 497.26,248.04 499.36,248.08 501.46,248.05 503.56,248.04 505.66,248.23 507.75,248.04 509.86,247.93 511.96,248.74 514.06,248.82 516.16,249.94 518.26,250.49 520.36,250.51 522.45,250.45 524.56,250.63 526.65,250.68 528.76,250.69 530.86,250.65 532.95,250.66 535.06,251.23 537.15,251.15 539.26,251.45 541.35,251.39 543.45,251.83 545.56,252.00 547.65,252.02 549.76,252.18 551.85,252.42 553.95,252.41 556.05,252.53 558.15,252.85 560.25,253.34 562.35,253.54 564.46,253.34 566.55,253.76 568.65,253.95 570.75,254.12 572.85,254.40 574.95,254.44 577.05,254.66 579.15,255.05 581.25,255.18 583.35,255.27 585.45,255.10 587.55,254.91 589.65,255.00 591.75,255.21 593.85,258.89 595.95,258.91 598.05,259.59 600.15,259.65 602.25,259.68 604.35,260.00 606.45,260.12 608.55,260.15 610.65,260.44 612.75,260.67 614.85,260.80 616.95,260.96 619.05,261.09 621.15,261.07 623.25,261.37 625.34,261.44 627.45,261.39 629.55,261.37 631.65,261.55 633.75,261.65 635.84,261.57 637.95,261.58 640.04,261.22 642.15,261.36 644.24,261.60 646.34,261.48 648.45,262.09 650.54,262.79 652.65,262.77 654.74,262.66 656.85,263.90 658.94,264.06 661.04,264.18 663.15,265.84 665.24,265.97 667.35,266.04 669.44,266.18 671.54,266.36 673.64,266.34 675.74,266.40 677.84,266.58 679.94,266.57 682.04,266.53 684.14,266.91 686.24,267.01 688.34,267.05 690.44,267.26 692.54,267.37 694.64,267.31 696.74,267.11 698.84,267.26 700.94,270.31 703.04,270.71 705.14,270.67 707.24,270.55 709.34,270.78 711.44,273.12 713.54,273.18 715.64,273.10 717.74,273.36 719.84,273.36 721.94,274.58 724.04,274.60 726.14,274.60 728.23,275.20 730.34,274.96 732.44,275.06 734.54,275.30 736.64,275.37 738.73,275.28 740.84,275.28 742.93,277.29 745.04,278.10 747.13,278.11 749.24,278.00 751.34,277.91 753.43,278.06 755.54,278.17 757.63,278.25 759.74,278.29 761.83,278.82 763.93,278.90 766.04,280.25 768.13,280.29 770.24,283.84 772.33,283.89 774.43,283.87 776.53,283.83 778.63,283.81 780.73,283.82 782.83,283.83 784.93,283.82 787.03,283.72 789.13,284.16 791.23,285.09 793.33,285.30 795.43,285.51 797.53,286.97 799.63,287.00 801.73,287.05 803.83,287.08 805.93,287.00 808.03,287.01 810.13,286.88 812.23,287.05 814.33,287.11 816.43,288.45 818.53,288.40 820.63,288.38 822.73,289.32 824.83,290.89 826.93,290.94 829.03,290.98 831.12,292.44 833.23,292.49 835.33,292.55 837.43,292.86 839.53,292.91 841.63,292.97 843.73,293.77 845.82,294.49 847.93,294.34 850.02,294.95 852.13,295.15 854.23,295.34 856.32,295.38 858.43,296.63 860.52,296.93 862.63,296.85 864.72,296.87 866.82,297.21 868.93,297.23 871.02,297.20 873.13,297.59 875.22,297.60 877.32,298.09 879.42,298.16 881.52,298.29 883.62,298.62 885.72,299.00 887.83,298.90 889.92,298.96 892.02,298.63 894.12,298.60 896.22,298.59 898.32,298.78 900.42,298.63 902.52,299.13 904.62,299.58 906.72,299.73 908.82,299.62 910.92,299.71 913.02,299.63 915.12,299.63 917.22,301.49 919.32,301.69 921.42,301.82 923.52,301.97 925.62,302.08 927.72,301.94 929.82,302.13 931.92,302.15 934.02,302.68 936.12,302.79 938.22,302.96 940.32,303.47 942.42,303.49 944.52,303.61 946.62,303.50 948.71,304.26 950.82,304.35 952.92,304.23 955.02,304.91 957.12,304.90 959.21,304.89 961.32,305.08 963.41,305.16 965.52,305.15 967.61,305.47 969.71,305.68 971.82,307.50 973.91,308.56 976.02,308.40 978.11,308.32 980.22,308.39 982.31,308.43 984.41,308.59 986.52,310.25 988.61,310.30 990.72,310.16 992.81,310.14 994.91,310.13 997.01,310.06 999.11,310.20 1001.21,310.15 1003.31,310.12 1005.41,310.35 1007.51,310.19 1009.61,310.06 1011.71,310.10 1013.81,310.73 1015.91,310.81 1018.01,310.77 1020.11,310.76 1022.21,310.86 1024.31,310.95 1026.41,310.86 1028.51,310.88 1030.61,311.05 1032.71,311.08 1034.81,311.07 1036.91,311.10 1039.01,310.87 1041.11,310.91 1043.21,311.97 1045.31,311.95 1047.41,311.97 1049.51,311.93 1051.60,311.95 1053.71,315.28 1055.81,315.18 1057.91,315.26 1060.01,315.41 1062.10,315.51 1064.21,315.60 1066.30,315.98 1068.41,315.96 1070.50,316.31 1072.61,316.41 1074.71,316.37 1076.80,316.99 1078.91,322.06 1081.00,322.11 1083.11,322.47 1085.20,322.74 1087.30,323.07 1089.41,323.04 1091.50,323.24 1093.61,323.23 1095.70,323.45 1097.80,323.59 1099.90,323.75 1102.00,323.86 1104.10,324.08 1106.20,324.04 1108.30,324.21 1110.40,324.44 1112.50,324.43 1114.60,324.63 1116.70,324.63 1118.80,324.68 1120.90,324.71 1123.00,324.84 1125.10,324.83 1127.20,325.02 1129.30,325.10 1131.40,325.75 1133.50,327.17 1135.60,327.19 1137.70,327.45 1139.80,327.34 1141.90,327.37 1144.00,327.45 1146.10,327.44 1148.20,327.90 1150.30,327.94 1152.40,328.00 1154.49,327.96 1156.60,327.99 1158.70,327.98 1160.80,327.96 1162.90,327.90 1165.00,327.91"/>
<text class="axis" x="92.00" y="358" text-anchor="middle">2024-07-01</text>
<text class="axis" x="628.50" y="358" text-anchor="middle">2025-04-01</text>
<text class="axis" x="1165.00" y="358" text-anchor="middle">2025-12-31</text>
<text class="panel" x="92" y="394">Causally calibrated selection half (zero scale means abstain)</text>
<rect x="92" y="408" width="1073" height="220" fill="#f9fafb" stroke="#d1d5db"/>
<line x1="92" y1="408.00" x2="1165" y2="408.00" stroke="#e5e7eb"/>
<text class="axis" x="82" y="412.00" text-anchor="end">3.43</text>
<line x1="92" y1="463.00" x2="1165" y2="463.00" stroke="#e5e7eb"/>
<text class="axis" x="82" y="467.00" text-anchor="end">1.72</text>
<line x1="92" y1="518.00" x2="1165" y2="518.00" stroke="#e5e7eb"/>
<text class="axis" x="82" y="522.00" text-anchor="end">0.00</text>
<line x1="92" y1="573.00" x2="1165" y2="573.00" stroke="#e5e7eb"/>
<text class="axis" x="82" y="577.00" text-anchor="end">-1.72</text>
<line x1="92" y1="628.00" x2="1165" y2="628.00" stroke="#e5e7eb"/>
<text class="axis" x="82" y="632.00" text-anchor="end">-3.43</text>
<line x1="92" y1="518.00" x2="1165" y2="518.00" stroke="#111827" stroke-width="1.2"/>
<polyline fill="none" stroke="#d97706" stroke-width="2" points="629.55,516.40 631.65,502.04 633.75,505.56 635.84,504.41 637.95,504.08 640.04,509.72 642.15,512.76 644.24,506.03 646.34,501.95 648.45,489.51 650.54,489.78 652.65,486.88 654.74,484.12 656.85,519.25 658.94,522.01 661.04,520.37 663.15,526.28 665.24,527.99 667.35,527.16 669.44,530.95 671.54,536.30 673.64,535.03 675.74,511.73 677.84,509.80 679.94,509.82 682.04,509.14 684.14,512.33 686.24,509.94 688.34,505.43 690.44,505.69 692.54,508.70 694.64,511.50 696.74,508.85 698.84,511.80 700.94,515.68 703.04,516.01 705.14,515.53 707.24,520.17 709.34,493.79 711.44,499.22 713.54,498.98 715.64,502.13 717.74,503.59 719.84,504.24 721.94,498.90 724.04,501.51 726.14,499.38 728.23,504.43 730.34,492.30 732.44,495.08 734.54,498.03 736.64,497.18 738.73,502.06 740.84,499.38 742.93,460.27 745.04,466.82 747.13,468.73 749.24,469.51 751.34,469.09 753.43,472.09 755.54,470.98 757.63,470.81 759.74,467.89 761.83,460.22 763.93,463.54 766.04,462.97 768.13,440.80 770.24,503.51 772.33,505.16 774.43,504.61 776.53,480.01 778.63,480.28 780.73,478.43 782.83,478.08 784.93,451.33 787.03,448.56 789.13,511.52 791.23,518.40 793.33,517.97 795.43,512.95 797.53,514.50 799.63,514.63 801.73,513.95 803.83,508.20 805.93,504.51 808.03,508.69 810.13,508.71 812.23,502.37 814.33,501.33 816.43,485.35 818.53,481.59 820.63,477.37 822.73,517.17 824.83,598.00 826.93,594.02 829.03,593.67 831.12,551.87 833.23,538.42 835.33,538.93 837.43,539.32 839.53,540.78 841.63,542.03 843.73,530.60 845.82,521.59 847.93,525.65 850.02,524.27 852.13,525.09 854.23,526.86 856.32,528.70 858.43,522.78 860.52,524.14 862.63,525.99 864.72,529.12 866.82,532.80 868.93,531.69 871.02,531.85 873.13,532.44 875.22,502.08 877.32,519.58 879.42,533.71 881.52,534.17 883.62,532.34 885.72,548.49 887.83,549.85 889.92,546.63 892.02,544.92 894.12,541.37 896.22,541.75 898.32,540.10 900.42,542.40 902.52,551.77 904.62,546.56 906.72,534.32 908.82,533.28 910.92,534.53 913.02,542.64 915.12,528.01 917.22,530.96 919.32,538.92 921.42,580.38 923.52,581.19 925.62,580.80 927.72,582.35 929.82,576.11 931.92,598.83 934.02,603.56 936.12,605.05 938.22,604.55 940.32,602.62 942.42,598.05 944.52,597.64 946.62,597.77 948.71,596.30 950.82,596.33 952.92,596.84 955.02,587.68 957.12,588.87 959.21,585.89 961.32,591.00 963.41,582.74 965.52,583.13 967.61,578.80 969.71,579.65 971.82,574.07 973.91,568.18 976.02,569.46 978.11,571.83 980.22,572.43 982.31,569.97 984.41,569.22 986.52,607.35 988.61,609.10 990.72,565.46 992.81,565.59 994.91,568.92 997.01,571.25 999.11,568.82 1001.21,571.22 1003.31,572.32 1005.41,578.30 1007.51,577.50 1009.61,572.10 1011.71,548.44 1013.81,557.46 1015.91,512.46 1018.01,518.89 1020.11,518.00 1022.21,527.07 1024.31,525.27 1026.41,528.21 1028.51,526.79 1030.61,531.99 1032.71,533.97 1034.81,534.05 1036.91,533.11 1039.01,531.94 1041.11,537.40 1043.21,535.36 1045.31,533.78 1047.41,534.77 1049.51,532.74 1051.60,525.00 1053.71,595.66 1055.81,593.54 1057.91,590.03 1060.01,590.99 1062.10,590.60 1064.21,583.81 1066.30,584.73 1068.41,588.53 1070.50,594.45 1072.61,598.29 1074.71,600.29 1076.80,618.00 1078.91,568.45 1081.00,576.26 1083.11,569.99 1085.20,574.28 1087.30,568.17 1089.41,558.61 1091.50,561.96 1093.61,562.14 1095.70,555.24 1097.80,557.68 1099.90,549.44 1102.00,552.20 1104.10,554.43 1106.20,556.63 1108.30,565.19 1110.40,565.76 1112.50,562.71 1114.60,561.96 1116.70,560.85 1118.80,564.14 1120.90,561.29 1123.00,558.44 1125.10,556.66 1127.20,553.99 1129.30,556.52 1131.40,562.49 1133.50,571.63 1135.60,570.82 1137.70,566.61 1139.80,558.24 1141.90,560.11 1144.00,559.57 1146.10,546.54 1148.20,555.23 1150.30,557.98 1152.40,559.02 1154.49,560.97 1156.60,562.58 1158.70,562.55 1160.80,559.28 1162.90,558.64 1165.00,556.28"/>
<polyline fill="none" stroke="#2563eb" stroke-width="2" points="629.55,518.00 631.65,518.00 633.75,518.00 635.84,518.00 637.95,518.00 640.04,518.00 642.15,518.00 644.24,518.00 646.34,518.00 648.45,518.00 650.54,518.00 652.65,518.00 654.74,518.00 656.85,518.00 658.94,518.00 661.04,518.00 663.15,518.00 665.24,518.00 667.35,518.00 669.44,518.00 671.54,518.00 673.64,518.00 675.74,518.00 677.84,518.00 679.94,518.00 682.04,518.00 684.14,518.00 686.24,518.00 688.34,518.00 690.44,518.00 692.54,518.00 694.64,518.00 696.74,518.00 698.84,518.00 700.94,518.00 703.04,518.00 705.14,518.00 707.24,518.00 709.34,518.00 711.44,518.00 713.54,518.00 715.64,518.00 717.74,518.00 719.84,518.00 721.94,518.00 724.04,518.00 726.14,518.00 728.23,518.00 730.34,518.00 732.44,518.00 734.54,518.00 736.64,518.00 738.73,518.00 740.84,518.00 742.93,518.00 745.04,518.00 747.13,518.00 749.24,518.00 751.34,518.00 753.43,518.00 755.54,518.00 757.63,518.00 759.74,518.00 761.83,518.00 763.93,518.00 766.04,518.00 768.13,518.00 770.24,518.00 772.33,518.00 774.43,518.00 776.53,518.00 778.63,518.00 780.73,518.00 782.83,518.00 784.93,518.00 787.03,518.00 789.13,518.00 791.23,518.00 793.33,518.00 795.43,518.00 797.53,518.00 799.63,518.00 801.73,518.00 803.83,518.00 805.93,518.00 808.03,518.00 810.13,518.00 812.23,518.00 814.33,518.00 816.43,518.00 818.53,518.00 820.63,518.00 822.73,518.00 824.83,518.00 826.93,518.00 829.03,518.00 831.12,518.00 833.23,518.00 835.33,518.00 837.43,518.00 839.53,518.00 841.63,518.00 843.73,518.00 845.82,518.00 847.93,518.00 850.02,518.00 852.13,518.00 854.23,518.00 856.32,518.00 858.43,518.00 860.52,518.00 862.63,518.00 864.72,518.00 866.82,518.00 868.93,518.00 871.02,518.00 873.13,518.00 875.22,518.00 877.32,518.00 879.42,518.00 881.52,518.00 883.62,518.00 885.72,518.00 887.83,518.00 889.92,518.00 892.02,518.00 894.12,518.00 896.22,518.00 898.32,518.00 900.42,518.00 902.52,518.00 904.62,518.00 906.72,518.00 908.82,518.00 910.92,518.00 913.02,518.00 915.12,518.00 917.22,518.00 919.32,518.00 921.42,518.00 923.52,518.00 925.62,518.00 927.72,518.00 929.82,518.00 931.92,518.00 934.02,518.00 936.12,518.00 938.22,518.00 940.32,518.00 942.42,518.00 944.52,518.00 946.62,518.00 948.71,518.00 950.82,518.00 952.92,518.00 955.02,518.00 957.12,518.00 959.21,518.00 961.32,518.00 963.41,518.00 965.52,518.00 967.61,518.00 969.71,518.00 971.82,518.00 973.91,518.00 976.02,518.00 978.11,518.00 980.22,518.00 982.31,518.00 984.41,518.00 986.52,518.00 988.61,518.00 990.72,518.00 992.81,518.00 994.91,518.00 997.01,518.00 999.11,518.00 1001.21,518.00 1003.31,518.00 1005.41,518.00 1007.51,518.00 1009.61,518.00 1011.71,518.00 1013.81,518.00 1015.91,518.00 1018.01,518.00 1020.11,518.00 1022.21,518.00 1024.31,518.00 1026.41,518.00 1028.51,518.00 1030.61,518.00 1032.71,518.00 1034.81,518.00 1036.91,518.00 1039.01,518.00 1041.11,518.00 1043.21,518.00 1045.31,518.00 1047.41,518.00 1049.51,518.00 1051.60,518.00 1053.71,518.00 1055.81,518.00 1057.91,518.00 1060.01,518.00 1062.10,518.00 1064.21,518.00 1066.30,518.00 1068.41,518.00 1070.50,518.00 1072.61,518.00 1074.71,518.00 1076.80,518.00 1078.91,518.00 1081.00,518.00 1083.11,518.00 1085.20,518.00 1087.30,518.00 1089.41,518.00 1091.50,518.00 1093.61,518.00 1095.70,518.00 1097.80,518.00 1099.90,518.00 1102.00,518.00 1104.10,518.00 1106.20,518.00 1108.30,518.00 1110.40,518.00 1112.50,518.00 1114.60,518.00 1116.70,518.00 1118.80,518.00 1120.90,518.00 1123.00,518.00 1125.10,518.00 1127.20,518.00 1129.30,518.00 1131.40,518.00 1133.50,518.00 1135.60,518.00 1137.70,518.00 1139.80,518.00 1141.90,518.00 1144.00,518.00 1146.10,518.00 1148.20,518.00 1150.30,518.00 1152.40,518.00 1154.49,518.00 1156.60,518.00 1158.70,518.00 1160.80,518.00 1162.90,518.00 1165.00,518.00"/>
<polyline fill="none" stroke="#15803d" stroke-width="2" points="629.55,518.00 631.65,518.00 633.75,518.00 635.84,518.00 637.95,518.00 640.04,518.00 642.15,518.00 644.24,518.00 646.34,518.00 648.45,518.00 650.54,518.00 652.65,518.00 654.74,518.00 656.85,518.00 658.94,518.00 661.04,518.00 663.15,518.00 665.24,518.00 667.35,518.00 669.44,518.00 671.54,518.00 673.64,518.00 675.74,518.00 677.84,518.00 679.94,518.00 682.04,518.00 684.14,518.00 686.24,518.00 688.34,518.00 690.44,518.00 692.54,518.00 694.64,518.00 696.74,518.00 698.84,518.00 700.94,518.00 703.04,518.00 705.14,518.00 707.24,518.00 709.34,518.00 711.44,518.00 713.54,518.00 715.64,518.00 717.74,518.00 719.84,518.00 721.94,518.00 724.04,518.00 726.14,518.00 728.23,518.00 730.34,518.00 732.44,518.00 734.54,518.00 736.64,518.00 738.73,518.00 740.84,518.00 742.93,518.00 745.04,518.00 747.13,518.00 749.24,518.00 751.34,518.00 753.43,518.00 755.54,518.00 757.63,518.00 759.74,518.00 761.83,518.00 763.93,518.00 766.04,518.00 768.13,518.00 770.24,518.00 772.33,518.00 774.43,518.00 776.53,518.00 778.63,518.00 780.73,518.00 782.83,518.00 784.93,518.00 787.03,518.00 789.13,518.00 791.23,518.00 793.33,518.00 795.43,518.00 797.53,518.00 799.63,518.00 801.73,518.00 803.83,518.00 805.93,518.00 808.03,518.00 810.13,518.00 812.23,518.00 814.33,518.00 816.43,518.00 818.53,518.00 820.63,518.00 822.73,518.00 824.83,518.00 826.93,518.00 829.03,518.00 831.12,518.00 833.23,518.00 835.33,518.00 837.43,518.00 839.53,518.00 841.63,518.00 843.73,518.00 845.82,518.00 847.93,518.00 850.02,518.00 852.13,518.00 854.23,518.00 856.32,518.00 858.43,518.00 860.52,518.00 862.63,518.00 864.72,518.00 866.82,518.00 868.93,518.00 871.02,518.00 873.13,518.00 875.22,518.00 877.32,518.00 879.42,518.00 881.52,518.00 883.62,518.00 885.72,518.00 887.83,518.00 889.92,518.00 892.02,518.00 894.12,518.00 896.22,518.00 898.32,518.00 900.42,518.00 902.52,518.00 904.62,518.00 906.72,518.00 908.82,518.00 910.92,518.00 913.02,518.00 915.12,518.00 917.22,518.00 919.32,518.00 921.42,518.00 923.52,518.00 925.62,518.00 927.72,518.00 929.82,518.00 931.92,518.00 934.02,518.00 936.12,518.00 938.22,518.00 940.32,518.00 942.42,518.00 944.52,518.00 946.62,518.00 948.71,518.00 950.82,518.00 952.92,518.00 955.02,518.00 957.12,518.00 959.21,518.00 961.32,518.00 963.41,518.00 965.52,518.00 967.61,518.00 969.71,518.00 971.82,518.00 973.91,518.00 976.02,518.00 978.11,518.00 980.22,518.00 982.31,518.00 984.41,518.00 986.52,518.00 988.61,518.00 990.72,518.00 992.81,518.00 994.91,518.00 997.01,518.00 999.11,518.00 1001.21,518.00 1003.31,518.00 1005.41,518.00 1007.51,518.00 1009.61,518.00 1011.71,518.00 1013.81,518.00 1015.91,518.00 1018.01,518.00 1020.11,518.00 1022.21,518.00 1024.31,518.00 1026.41,518.00 1028.51,518.00 1030.61,518.00 1032.71,518.00 1034.81,518.00 1036.91,518.00 1039.01,518.00 1041.11,518.00 1043.21,518.00 1045.31,518.00 1047.41,518.00 1049.51,518.00 1051.60,518.00 1053.71,518.00 1055.81,518.00 1057.91,518.00 1060.01,518.00 1062.10,518.00 1064.21,518.00 1066.30,518.00 1068.41,518.00 1070.50,518.00 1072.61,518.00 1074.71,518.00 1076.80,518.00 1078.91,518.00 1081.00,518.00 1083.11,518.00 1085.20,518.00 1087.30,518.00 1089.41,518.00 1091.50,518.00 1093.61,518.00 1095.70,518.00 1097.80,518.00 1099.90,518.00 1102.00,518.00 1104.10,518.00 1106.20,518.00 1108.30,518.00 1110.40,518.00 1112.50,518.00 1114.60,518.00 1116.70,518.00 1118.80,518.00 1120.90,518.00 1123.00,518.00 1125.10,518.00 1127.20,518.00 1129.30,518.00 1131.40,518.00 1133.50,518.00 1135.60,518.00 1137.70,518.00 1139.80,518.00 1141.90,518.00 1144.00,518.00 1146.10,518.00 1148.20,518.00 1150.30,518.00 1152.40,518.00 1154.49,518.00 1156.60,518.00 1158.70,518.00 1160.80,518.00 1162.90,518.00 1165.00,518.00"/>
<text class="axis" x="92.00" y="648" text-anchor="middle">2024-07-01</text>
<text class="axis" x="628.50" y="648" text-anchor="middle">2025-04-01</text>
<text class="axis" x="1165.00" y="648" text-anchor="middle">2025-12-31</text>
<line x1="92" y1="692" x2="116" y2="692" stroke="#d97706" stroke-width="3"/>
<text class="label" x="123" y="697">BTCUSDT</text>
<line x1="242" y1="692" x2="266" y2="692" stroke="#2563eb" stroke-width="3"/>
<text class="label" x="273" y="697">ETHUSDT</text>
<line x1="392" y1="692" x2="416" y2="692" stroke="#15803d" stroke-width="3"/>
<text class="label" x="423" y="697">SOLUSDT</text>
</svg>
