<svg xmlns="http://www.w3.org/2000/svg" width="1120" height="660" viewBox="0 0 1120 660" role="img" aria-label="ETHUSDT Conservative Backtest vs Passive Baseline">
  <rect width="100%" height="100%" fill="#f8fafc"/>
  <text x="72" y="36" font-family="Segoe UI, Arial, sans-serif" font-size="24" fill="#111827">ETHUSDT Conservative Backtest vs Passive Baseline</text>
  <line x1="72" y1="62" x2="72" y2="578" stroke="#94a3b8"/>
  <line x1="72" y1="578" x2="1086" y2="578" stroke="#94a3b8"/>
  <polyline points="72.00,254.45 72.56,260.03 72.66,260.03 72.70,260.03 73.13,273.98 73.36,273.98 73.41,273.98 74.07,279.56 74.11,279.56 74.72,307.45 74.77,307.45 74.82,307.45 74.91,335.34 75.48,329.76 75.52,329.76 75.76,363.23 76.18,346.50 76.23,346.50 76.89,299.08 76.93,301.87 76.98,299.08 77.21,321.39 77.59,321.39 77.64,321.39 78.01,352.08 78.29,313.03 78.34,313.03 78.90,301.87 79.00,301.87 79.05,301.87 79.09,293.50 79.70,299.08 79.75,285.14 80.08,262.82 80.41,273.98 80.46,273.98 81.11,273.98 81.16,273.98 81.58,315.82 81.82,315.82 81.86,315.82 82.10,360.44 82.52,318.61 82.57,318.61 82.99,326.97 83.23,326.97 83.27,326.97 83.70,315.82 83.84,338.13 83.93,338.13 83.98,338.13 84.07,301.87 84.64,315.82 84.68,315.82 85.11,301.87 85.34,301.87 85.39,310.24 86.04,326.97 86.09,326.97 86.56,324.18 86.75,324.18 86.80,324.18 87.41,248.88 87.45,268.40 87.50,268.40 87.74,271.19 88.16,268.40 88.21,268.40 88.44,262.82 88.72,287.92 88.86,287.92 88.91,287.92 89.57,301.87 89.61,301.87 90.08,287.92 90.27,287.92 90.32,287.92 90.65,268.40 90.98,310.24 91.02,310.24 91.68,310.24 91.73,310.24 92.39,296.29 92.43,299.08 93.00,254.45 93.09,257.24 93.14,257.24 93.42,232.14 93.65,251.66 93.80,243.30 93.84,243.30 94.31,223.77 94.50,223.77 94.55,201.46 95.11,237.72 95.20,237.72 95.25,243.30 95.30,246.09 95.91,246.09 95.96,246.09 96.43,212.62 96.61,212.62 96.66,232.14 97.32,248.88 97.37,248.88 98.02,268.40 98.07,268.40 98.30,276.77 98.59,257.24 98.73,257.24 98.77,257.24 99.34,243.30 99.43,243.30 99.48,243.30 99.67,251.66 100.14,251.66 100.18,251.66 100.56,229.35 100.84,229.35 100.89,229.35 101.08,246.09 101.55,246.09 101.59,246.09 101.92,262.82 102.25,248.88 102.30,248.88 102.96,229.35 103.00,229.35 103.47,232.14 103.66,232.14 103.71,232.14 104.27,179.15 104.36,179.15 104.41,190.30 105.07,212.62 105.12,212.62 105.44,232.14 105.77,215.41 105.82,215.41 106.38,226.56 106.48,226.56 106.52,226.56 106.57,232.14 106.81,212.62 107.18,212.62 107.23,212.62 107.51,215.41 107.89,215.41 107.93,215.41 108.22,223.77 108.50,212.62 108.59,212.62 108.64,212.62 108.87,176.36 109.30,209.83 109.34,209.83 109.58,201.46 109.63,215.41 110.00,212.62 110.05,212.62 110.71,212.62 110.75,212.62 110.99,195.88 111.41,195.88 111.46,195.88 112.11,184.72 112.16,184.72 112.49,165.20 112.82,165.20 112.87,165.20 113.52,165.20 113.57,165.20 113.62,145.68 113.71,156.83 114.23,156.83 114.28,145.68 114.46,167.99 114.93,159.62 114.98,159.62 115.17,151.25 115.64,151.25 115.68,151.25 115.87,159.62 116.34,156.83 116.39,156.83 117.05,220.98 117.09,193.09 117.28,167.99 117.75,167.99 117.80,190.30 118.13,170.78 118.46,170.78 118.50,170.78 118.97,201.46 119.16,201.46 119.21,209.83 119.68,254.45 119.87,234.93 119.91,234.93 120.10,251.66 120.52,220.98 120.57,220.98 120.62,220.98 121.27,187.51 121.32,173.57 121.51,179.15 121.98,179.15 122.03,179.15 122.21,198.67 122.68,176.36 122.73,176.36 123.01,179.15 123.11,170.78 123.39,170.78 123.44,173.57 124.05,181.94 124.09,181.94 124.14,181.94 124.66,173.57 124.80,173.57 124.84,173.57 125.50,173.57 125.55,176.36 126.21,176.36 126.25,176.36 126.63,179.15 126.91,179.15 126.96,179.15 127.05,198.67 127.62,190.30 127.66,190.30 127.80,218.19 128.32,218.19 128.37,218.19 129.02,201.46 129.07,201.46 129.68,215.41 129.73,215.41 129.78,215.41 130.43,215.41 130.48,215.41 130.86,204.25 131.14,204.25 131.19,204.25 131.61,207.04 131.84,204.25 131.89,204.25 132.36,201.46 132.55,201.46 132.59,201.46 133.25,201.46 133.30,201.46 133.82,159.62 133.96,159.62 134.00,156.83 134.10,162.41 134.38,154.04 134.66,154.04 134.71,154.04 135.18,162.41 135.37,162.41 135.41,162.41 135.98,176.36 136.07,176.36 136.12,176.36 136.54,173.57 136.78,173.57 136.82,173.57 137.39,176.36 137.48,176.36 137.53,176.36 138.04,218.19 138.18,218.19 138.23,218.19 138.75,181.94 138.89,198.67 138.94,198.67 139.45,215.41 139.59,215.41 139.64,215.41 139.78,193.09 140.30,193.09 140.35,193.09 140.77,190.30 141.00,190.30 141.05,209.83 141.66,204.25 141.71,204.25 141.75,204.25 141.99,207.04 142.37,179.15 142.41,179.15 142.46,179.15 142.83,162.41 143.12,162.41 143.16,162.41 143.68,159.62 143.82,159.62 143.87,159.62 144.53,95.47 144.57,103.84 144.62,98.26 144.90,112.21 145.23,101.05 145.28,101.05 145.70,112.21 145.94,112.21 145.98,112.21 146.55,101.05 146.64,101.05 146.69,103.84 146.97,89.89 147.34,123.36 147.39,98.26 148.00,92.68 148.05,92.68 148.10,92.68 148.57,103.84 148.75,103.84 148.80,103.84 149.46,103.84 149.50,103.84 150.16,126.15 150.21,126.15 150.30,134.52 150.77,114.99 150.87,114.99 150.91,114.99 151.01,117.78 151.57,117.78 151.62,109.42 152.28,109.42 152.32,109.42 152.98,109.42 153.03,109.42 153.22,98.26 153.69,98.26 153.73,98.26 153.92,95.47 154.39,95.47 154.44,95.47 154.58,92.68 155.09,92.68 155.14,75.95 155.28,64.79 155.38,67.58 155.80,67.58 155.85,67.58 156.03,62.00 156.50,73.16 156.55,78.74 156.97,101.05 157.21,101.05 157.26,109.42 157.91,109.42 157.96,109.42 158.15,112.21 158.34,98.26 158.62,98.26 158.66,98.26 159.32,112.21 159.37,112.21 159.89,142.89 160.03,140.10 160.07,140.10 160.36,131.73 160.73,131.73 160.78,131.73 161.34,137.31 161.44,137.31 161.48,137.31 162.14,137.31 162.19,142.89 162.85,142.89 162.89,142.89 163.17,162.41 163.55,162.41 163.60,162.41 163.74,154.04 164.25,154.04 164.30,154.04 164.96,154.04 165.01,165.20 165.66,162.41 165.71,165.20 166.04,179.15 166.37,179.15 166.42,179.15 166.51,167.99 167.07,167.99 167.12,170.78 167.64,137.31 167.78,137.31 167.82,131.73 167.92,128.94 168.01,142.89 168.48,142.89 168.53,142.89 168.67,145.68 169.19,142.89 169.23,142.89 169.89,148.46 169.94,148.46 170.22,142.89 170.60,142.89 170.64,142.89 170.92,148.46 171.30,148.46 171.35,148.46 171.86,140.10 172.00,140.10 172.05,140.10 172.38,137.31 172.71,145.68 172.76,145.68 173.41,145.68 173.46,145.68 173.65,140.10 174.12,140.10 174.17,140.10 174.31,137.31 174.82,140.10 174.87,140.10 175.53,140.10 175.57,140.10 176.19,145.68 176.23,145.68 176.28,145.68 176.84,142.89 176.94,142.89 176.98,142.89 177.17,151.25 177.64,151.25 177.69,154.04 178.25,151.25 178.35,151.25 178.39,151.25 178.49,173.57 179.05,173.57 179.10,173.57 179.33,176.36 179.76,176.36 179.80,176.36 180.04,198.67 180.46,198.67 180.51,198.67 180.84,195.88 181.16,195.88 181.21,195.88 181.54,215.41 181.87,215.41 181.92,215.41 182.24,187.51 182.57,187.51 182.62,187.51 182.95,167.99 183.28,167.99 183.33,167.99 183.98,167.99 184.03,167.99 184.26,170.78 184.69,170.78 184.73,170.78 185.39,170.78 185.44,170.78 185.77,181.94 186.10,181.94 186.14,181.94 186.66,187.51 186.80,187.51 186.85,187.51 187.04,193.09 187.51,190.30 187.55,190.30 188.07,204.25 188.21,204.25 188.26,204.25 188.59,218.19 188.92,212.62 188.96,212.62 189.24,207.04 189.62,207.04 189.67,207.04 189.85,218.19 189.95,201.46 190.32,201.46 190.37,193.09 191.03,193.09 191.08,193.09 191.40,201.46 191.73,201.46 191.78,201.46 192.16,176.36 192.44,176.36 192.49,176.36 192.91,198.67 193.14,198.67 193.19,198.67 193.52,201.46 193.85,201.46 193.89,201.46 194.08,198.67 194.55,198.67 194.60,198.67 194.93,201.46 195.26,201.46 195.30,201.46 195.44,190.30 195.96,193.09 196.01,193.09 196.67,207.04 196.71,207.04 197.23,218.19 197.37,218.19 197.42,218.19 197.56,215.41 198.07,215.41 198.12,215.41 198.22,204.25 198.78,204.25 198.83,204.25 199.48,204.25 199.53,204.25 200.05,207.04 200.19,204.25 200.24,198.67 200.89,198.67 200.94,198.67 201.08,193.09 201.60,193.09 201.64,193.09 201.83,195.88 202.30,193.09 202.35,193.09 202.77,195.88 203.01,195.88 203.05,198.67 203.71,198.67 203.76,212.62 204.42,232.14 204.46,232.14 205.12,232.14 205.17,229.35 205.83,229.35 205.87,229.35 205.92,234.93 206.53,232.14 206.58,232.14 207.23,265.61 207.28,265.61 207.33,276.77 207.75,237.72 207.94,237.72 207.99,237.72 208.46,246.09 208.64,246.09 208.69,246.09 209.16,257.24 209.35,257.24 209.40,257.24 210.05,257.24 210.10,257.24 210.33,276.77 210.76,257.24 210.80,257.24 211.46,257.24 211.51,257.24 212.17,243.30 212.21,212.62 212.35,201.46 212.73,237.72 212.87,237.72 212.92,237.72 213.29,243.30 213.58,240.51 213.62,248.88 213.76,246.09 214.28,246.09 214.33,246.09 214.80,290.71 214.98,287.92 215.03,287.92 215.27,257.24 215.69,262.82 215.74,262.82 216.35,254.45 216.39,254.45 216.44,254.45 217.10,254.45 217.15,257.24 217.33,279.56 217.80,273.98 217.85,273.98 218.51,273.98 218.55,273.98 218.88,257.24 219.21,257.24 219.26,257.24 219.92,257.24 219.96,257.24 220.15,265.61 220.62,260.03 220.67,260.03 220.90,279.56 221.33,279.56 221.37,279.56 221.70,260.03 222.03,260.03 222.08,260.03 222.74,260.03 222.78,260.03 223.44,260.03 223.49,260.03 224.05,243.30 224.14,246.09 224.19,246.09 224.24,229.35 224.85,240.51 224.90,240.51 225.04,237.72 225.55,237.72 225.60,237.72 226.16,276.77 226.26,276.77 226.31,276.77 226.35,279.56 226.87,273.98 226.96,273.98 227.01,273.98 227.06,265.61 227.67,265.61 227.71,265.61 227.81,262.82 227.90,273.98 228.37,273.98 228.42,271.19 229.08,271.19 229.12,271.19 229.41,243.30 229.78,243.30 229.83,243.30 230.16,251.66 230.49,251.66 230.53,251.66 231.05,246.09 231.19,254.45 231.24,257.24 231.90,257.24 231.94,262.82 232.60,262.82 232.65,262.82 233.30,262.82 233.35,262.82 233.77,271.19 234.01,271.19 234.06,271.19 234.67,265.61 234.71,265.61 234.76,265.61 235.42,265.61 235.47,265.61 236.12,265.61 236.17,265.61 236.83,265.61 236.87,265.61 237.25,260.03 237.53,260.03 237.58,260.03 237.95,248.88 238.24,248.88 238.28,248.88 238.94,248.88 238.99,248.88 239.65,248.88 239.69,248.88 240.35,248.88 240.40,248.88 240.87,290.71 241.05,290.71 241.10,290.71 241.29,282.35 241.76,282.35 241.81,282.35 242.04,279.56 242.46,279.56 242.51,279.56 242.60,276.77 243.17,279.56 243.22,279.56 243.87,279.56 243.92,279.56 244.20,276.77 244.53,307.45 244.58,307.45 244.62,307.45 245.00,388.34 245.28,352.08 245.33,352.08 245.66,424.59 245.99,377.18 246.03,379.97 246.17,416.23 246.69,335.34 246.74,335.34 247.40,379.97 247.44,388.34 248.10,360.44 248.15,360.44 248.48,407.86 248.81,366.02 248.85,366.02 248.90,399.49 249.51,379.97 249.56,379.97 249.89,377.18 249.98,407.86 250.21,391.12 250.26,391.12 250.73,382.76 250.92,391.12 250.97,391.12 251.01,382.76 251.62,382.76 251.67,382.76 252.23,368.81 252.33,374.39 252.38,374.39 253.03,374.39 253.08,379.97 253.22,349.29 253.74,349.29 253.78,349.29 253.88,332.55 254.16,371.60 254.44,371.60 254.49,371.60 254.96,354.86 255.15,366.02 255.19,366.02 255.24,368.81 255.85,368.81 255.90,368.81 256.13,371.60 256.18,363.23 256.56,363.23 256.60,363.23 256.70,354.86 257.26,388.34 257.31,388.34 257.45,413.44 257.73,385.55 257.96,385.55 258.01,385.55 258.53,379.97 258.67,379.97 258.72,379.97 258.81,382.76 259.37,382.76 259.42,382.76 259.61,379.97 260.08,379.97 260.13,391.12 260.55,393.91 260.78,391.12 260.83,391.12 261.39,393.91 261.49,393.91 261.53,393.91 262.15,427.38 262.19,427.38 262.24,427.38 262.90,427.38 262.94,407.86 262.99,393.91 263.60,405.07 263.65,405.07 264.17,407.86 264.31,407.86 264.35,407.86 264.92,402.28 265.01,402.28 265.06,399.49 265.67,382.76 265.72,382.76 265.76,382.76 266.23,377.18 266.42,382.76 266.47,382.76 267.12,382.76 267.17,382.76 267.83,382.76 267.88,382.76 268.16,385.55 268.53,385.55 268.58,385.55 269.10,438.54 269.24,438.54 269.29,438.54 269.85,455.28 269.94,455.28 269.99,455.28 270.22,444.12 270.65,449.70 270.69,449.70 271.12,452.49 271.26,441.33 271.35,441.33 271.40,441.33 271.68,446.91 272.06,446.91 272.10,446.91 272.57,435.75 272.76,435.75 272.81,435.75 273.37,444.12 273.47,444.12 273.51,444.12 274.17,458.06 274.22,458.06 274.41,452.49 274.45,472.01 274.88,463.64 274.92,463.64 275.02,452.49 275.49,472.01 275.58,472.01 275.63,472.01 275.96,455.28 276.28,455.28 276.33,455.28 276.75,480.38 276.99,480.38 277.04,480.38 277.69,480.38 277.74,472.01 278.07,463.64 278.40,469.22 278.45,469.22 278.73,466.43 279.10,466.43 279.15,466.43 279.81,466.43 279.85,466.43 280.37,444.12 280.51,444.12 280.56,444.12 281.22,460.85 281.26,460.85 281.92,460.85 281.97,460.85 282.58,458.06 282.63,458.06 282.67,458.06 283.14,463.64 283.33,460.85 283.38,460.85 283.80,474.80 284.03,474.80 284.08,474.80 284.41,452.49 284.74,452.49 284.79,446.91 285.44,416.23 285.49,413.44 285.77,393.91 285.96,432.96 286.15,410.65 286.20,410.65 286.62,396.70 286.81,435.75 286.85,435.75 286.90,435.75 287.56,413.44 287.60,413.44 288.12,430.17 288.26,407.86 288.31,410.65 288.40,382.76 288.97,396.70 289.01,396.70 289.53,402.28 289.67,402.28 289.72,402.28 289.91,413.44 290.38,413.44 290.42,410.65 290.66,405.07 291.03,424.59 291.08,424.59 291.13,424.59 291.46,449.70 291.79,432.96 291.83,432.96 292.11,441.33 292.30,427.38 292.49,427.38 292.54,427.38 292.87,419.02 293.19,421.81 293.24,421.81 293.71,416.23 293.90,419.02 293.95,419.02 294.09,416.23 294.60,419.02 294.65,419.02 295.07,421.81 295.31,421.81 295.36,421.81 295.45,416.23 296.01,421.81 296.06,421.81 296.34,416.23 296.72,427.38 296.76,419.02 296.95,427.38 297.42,427.38 297.47,427.38 298.08,419.02 298.13,419.02 298.17,419.02 298.46,416.23 298.55,435.75 298.83,427.38 298.88,427.38 299.39,438.54 299.54,432.96 299.58,432.96 299.91,430.17 300.24,432.96 300.29,432.96 300.48,427.38 300.95,427.38 300.99,427.38 301.09,432.96 301.60,419.02 301.65,419.02 301.70,419.02 302.35,419.02 302.40,419.02 302.87,421.81 303.06,421.81 303.11,427.38 303.34,419.02 303.76,419.02 303.81,419.02 304.28,416.23 304.42,427.38 304.47,427.38 304.51,432.96 304.98,430.17 305.17,430.17 305.22,430.17 305.88,430.17 305.92,430.17 306.58,430.17 306.63,430.17 307.29,421.81 307.33,421.81 307.76,432.96 307.99,432.96 308.04,432.96 308.70,432.96 308.74,432.96 309.40,432.96 309.45,432.96 309.49,430.17 310.10,432.96 310.15,441.33 310.57,438.54 310.81,438.54 310.86,438.54 311.23,441.33 311.51,441.33 311.56,441.33 311.84,438.54 312.22,438.54 312.27,438.54 312.92,438.54 312.97,438.54 313.11,430.17 313.63,430.17 313.67,427.38 313.96,430.17 314.33,430.17 314.38,430.17 314.71,421.81 315.04,421.81 315.08,421.81 315.27,424.59 315.60,416.23 315.74,424.59 315.79,424.59 316.45,407.86 316.49,407.86 316.77,402.28 317.01,410.65 317.15,410.65 317.20,410.65 317.62,413.44 317.71,407.86 317.86,407.86 317.90,407.86 318.18,405.07 318.56,405.07 318.61,399.49 319.17,402.28 319.26,402.28 319.31,402.28 319.36,405.07 319.97,405.07 320.02,405.07 320.44,396.70 320.67,396.70 320.72,396.70 321.33,399.49 321.38,399.49 321.43,399.49 322.08,346.50 322.13,340.92 322.51,385.55 322.79,385.55 322.83,385.55 323.40,435.75 323.49,435.75 323.54,438.54 323.68,430.17 324.20,432.96 324.24,432.96 324.38,430.17 324.90,499.90 324.95,491.54 325.23,466.43 325.61,474.80 325.65,474.80 326.12,502.69 326.31,497.11 326.36,497.11 326.83,477.59 327.01,497.11 327.06,497.11 327.16,488.75 327.72,502.69 327.77,527.79 327.91,541.74 328.10,513.85 328.42,513.85 328.47,511.06 329.13,474.80 329.18,452.49 329.46,407.86 329.83,458.06 329.88,460.85 329.97,474.80 330.54,469.22 330.58,474.80 330.91,407.86 331.24,430.17 331.29,438.54 331.71,446.91 331.95,444.12 331.99,444.12 332.46,466.43 332.65,460.85 332.70,446.91 333.03,460.85 333.36,455.28 333.40,455.28 333.68,435.75 334.06,435.75 334.11,435.75 334.53,427.38 334.77,427.38 334.81,427.38 335.33,452.49 335.47,427.38 335.52,441.33 335.66,438.54 336.17,438.54 336.22,438.54 336.88,449.70 336.93,449.70 337.44,466.43 337.58,466.43 337.63,446.91 338.05,458.06 338.29,458.06 338.34,458.06 338.99,424.59 339.04,419.02 339.09,432.96 339.46,410.65 339.70,410.65 339.74,410.65 340.21,424.59 340.40,424.59 340.45,424.59 341.11,421.81 341.15,421.81 341.81,421.81 341.86,413.44 342.23,430.17 342.52,430.17 342.56,430.17 342.94,416.23 343.22,416.23 343.27,416.23 343.41,432.96 343.93,432.96 343.97,432.96 344.16,427.38 344.63,427.38 344.68,427.38 345.33,427.38 345.38,427.38 346.04,427.38 346.09,427.38 346.51,424.59 346.74,424.59 346.79,424.59 346.98,435.75 347.45,435.75 347.49,435.75 347.64,424.59 348.06,446.91 348.15,446.91 348.20,458.06 348.86,458.06 348.90,458.06 349.14,446.91 349.56,446.91 349.61,446.91 349.84,435.75 350.27,435.75 350.31,435.75 350.45,430.17 350.97,432.96 351.02,432.96 351.06,435.75 351.53,421.81 351.68,421.81 351.72,421.81 352.38,432.96 352.43,432.96 352.52,441.33 353.08,441.33 353.13,449.70 353.18,458.06 353.79,458.06 353.84,458.06 354.02,449.70 354.49,449.70 354.54,449.70 355.20,449.70 355.25,449.70 355.90,449.70 355.95,449.70 356.51,477.59 356.61,477.59 356.65,477.59 356.84,469.22 357.31,472.01 357.36,472.01 357.69,474.80 358.02,474.80 358.06,474.80 358.72,474.80 358.77,474.80 359.43,474.80 359.47,469.22 359.66,463.64 360.13,463.64 360.18,458.06 360.74,455.28 360.84,455.28 360.88,455.28 361.54,455.28 361.59,455.28 361.82,444.12 362.24,452.49 362.29,452.49 362.57,449.70 362.95,449.70 363.00,455.28 363.65,455.28 363.70,455.28 364.12,460.85 364.36,460.85 364.41,460.85 364.64,463.64 365.06,463.64 365.11,463.64 365.72,469.22 365.77,463.64 365.81,458.06 366.14,452.49 366.47,458.06 366.52,458.06 367.18,458.06 367.22,458.06 367.88,458.06 367.93,458.06 368.44,455.28 368.59,455.28 368.63,455.28 368.87,463.64 369.29,463.64 369.34,463.64 369.62,469.22 369.99,469.22 370.04,469.22 370.37,472.01 370.70,472.01 370.75,472.01 371.26,469.22 371.40,469.22 371.45,469.22 372.11,469.22 372.16,469.22 372.81,430.17 372.86,432.96 372.95,416.23 373.52,430.17 373.56,419.02 374.08,430.17 374.22,430.17 374.27,430.17 374.93,419.02 374.97,419.02 375.35,402.28 375.63,407.86 375.68,407.86 375.91,371.60 376.20,419.02 376.34,419.02 376.38,419.02 376.62,402.28 377.04,419.02 377.09,419.02 377.37,396.70 377.75,396.70 377.79,396.70 378.26,385.55 378.45,396.70 378.50,396.70 378.97,368.81 379.15,374.39 379.20,363.23 379.67,388.34 379.86,388.34 379.91,388.34 380.56,388.34 380.61,388.34 381.27,388.34 381.32,379.97 381.55,360.44 381.97,374.39 382.02,374.39 382.11,385.55 382.68,385.55 382.72,385.55 383.24,382.76 383.38,382.76 383.43,382.76 384.09,393.91 384.13,393.91 384.79,393.91 384.84,391.12 385.50,391.12 385.54,391.12 386.20,391.12 386.25,391.12 386.91,371.60 386.95,371.60 387.52,363.23 387.61,363.23 387.66,363.23 388.31,363.23 388.36,371.60 389.02,385.55 389.07,393.91 389.44,399.49 389.72,399.49 389.77,399.49 390.29,419.02 390.43,419.02 390.48,419.02 390.80,424.59 391.13,424.59 391.18,424.59 391.84,427.38 391.88,427.38 392.49,421.81 392.54,421.81 392.59,421.81 393.06,430.17 393.25,430.17 393.29,430.17 393.39,413.44 393.95,419.02 394.00,419.02 394.04,416.23 394.66,416.23 394.70,416.23 395.31,427.38 395.36,427.38 395.41,427.38 396.02,474.80 396.06,474.80 396.11,477.59 396.25,485.96 396.63,458.06 396.77,458.06 396.82,458.06 396.86,469.22 397.47,469.22 397.52,469.22 397.71,460.85 398.18,460.85 398.23,460.85 398.84,513.85 398.88,513.85 398.93,513.85 399.59,513.85 399.63,513.85 400.15,497.11 400.29,497.11 400.34,497.11 400.57,491.54 400.95,502.69 401.00,497.11 401.04,497.11 401.47,485.96 401.70,485.96 401.75,480.38 402.41,491.54 402.45,491.54 402.64,485.96 403.11,488.75 403.16,488.75 403.67,491.54 403.82,491.54 403.86,491.54 404.10,488.75 404.52,488.75 404.57,488.75 404.61,491.54 404.99,480.38 405.22,480.38 405.27,480.38 405.74,469.22 405.93,469.22 405.98,469.22 406.26,480.38 406.63,480.38 406.68,480.38 407.20,494.32 407.34,494.32 407.39,494.32 408.04,494.32 408.09,494.32 408.70,497.11 408.75,497.11 408.79,497.11 408.98,505.48 409.45,505.48 409.50,494.32 410.11,511.06 410.16,511.06 410.20,511.06 410.44,513.85 410.86,513.85 410.91,513.85 411.28,505.48 411.38,527.79 411.57,522.22 411.61,522.22 411.94,511.06 412.27,511.06 412.32,511.06 412.97,541.74 413.02,541.74 413.07,544.53 413.63,513.85 413.68,513.85 413.73,513.85 414.38,513.85 414.43,513.85 414.71,538.95 415.09,536.16 415.14,536.16 415.75,530.58 415.79,530.58 415.84,530.58 416.12,538.95 416.50,538.95 416.54,538.95 416.59,533.37 417.20,533.37 417.25,533.37 417.39,538.95 417.91,538.95 417.95,538.95 418.09,522.22 418.61,525.01 418.66,525.01 418.99,533.37 419.32,533.37 419.36,533.37 420.02,533.37 420.07,533.37 420.73,533.37 420.77,516.64 421.20,533.37 421.43,533.37 421.48,533.37 421.85,522.22 422.13,525.01 422.18,525.01 422.32,530.58 422.84,530.58 422.89,530.58 423.07,519.43 423.54,519.43 423.59,519.43 423.64,530.58 424.06,513.85 424.25,513.85 424.30,513.85 424.62,458.06 424.95,477.59 425.00,483.17 425.66,441.33 425.70,441.33 426.08,430.17 426.13,452.49 426.36,452.49 426.41,449.70 426.74,444.12 427.07,455.28 427.11,460.85 427.63,472.01 427.77,472.01 427.82,472.01 428.48,474.80 428.52,474.80 428.76,527.79 429.18,508.27 429.23,499.90 429.89,499.90 429.93,499.90 429.98,505.48 430.54,474.80 430.59,474.80 430.64,474.80 431.29,477.59 431.34,477.59 431.48,474.80 432.00,474.80 432.05,474.80 432.19,477.59 432.70,477.59 432.75,480.38 433.27,452.49 433.41,463.64 433.46,463.64 434.11,463.64 434.16,463.64 434.25,460.85 434.68,472.01 434.82,472.01 434.86,472.01 435.52,469.22 435.57,469.22 436.23,469.22 436.27,469.22 436.93,469.22 436.98,469.22 437.64,469.22 437.68,469.22 438.01,474.80 438.34,472.01 438.39,472.01 439.04,472.01 439.09,472.01 439.75,474.80 439.80,474.80 440.36,466.43 440.45,466.43 440.50,466.43 440.55,472.01 441.16,472.01 441.21,472.01 441.86,474.80 441.91,483.17 442.57,491.54 442.61,491.54 443.27,491.54 443.32,491.54 443.79,485.96 443.98,488.75 444.02,488.75 444.31,491.54 444.68,491.54 444.73,491.54 445.29,494.32 445.39,494.32 445.43,494.32 446.00,491.54 446.09,491.54 446.14,491.54 446.80,494.32 446.84,494.32 447.50,494.32 447.55,483.17 447.83,460.85 448.20,460.85 448.25,460.85 448.82,446.91 448.91,449.70 448.96,449.70 449.61,449.70 449.66,449.70 449.75,444.12 450.32,458.06 450.37,472.01 450.74,469.22 451.02,469.22 451.07,469.22 451.54,466.43 451.73,466.43 451.77,466.43 452.43,466.43 452.48,466.43 453.09,472.01 453.14,472.01 453.18,472.01 453.23,466.43 453.84,466.43 453.89,466.43 454.36,446.91 454.55,446.91 454.59,449.70 454.83,463.64 455.25,463.64 455.30,460.85 455.72,474.80 455.95,474.80 456.00,474.80 456.42,452.49 456.66,455.28 456.71,455.28 456.99,441.33 457.36,441.33 457.41,441.33 457.55,430.17 458.07,432.96 458.12,432.96 458.44,416.23 458.77,416.23 458.82,416.23 459.48,413.44 459.52,413.44 460.09,410.65 460.14,430.17 460.18,430.17 460.23,430.17 460.75,427.38 460.89,427.38 460.93,427.38 461.50,413.44 461.59,413.44 461.64,413.44 462.01,435.75 462.30,435.75 462.34,435.75 463.00,435.75 463.05,435.75 463.09,441.33 463.33,430.17 463.71,430.17 463.75,430.17 463.89,421.81 464.41,421.81 464.46,421.81 464.64,424.59 465.11,421.81 465.16,421.81 465.63,497.11 465.82,497.11 465.87,497.11 466.10,463.64 466.52,466.43 466.57,466.43 467.13,477.59 467.23,477.59 467.28,477.59 467.93,477.59 467.98,477.59 468.50,449.70 468.64,449.70 468.68,449.70 469.34,449.70 469.39,449.70 469.48,455.28 470.05,455.28 470.09,455.28 470.42,452.49 470.75,455.28 470.80,455.28 470.85,463.64 471.46,460.85 471.50,460.85 471.78,466.43 472.16,466.43 472.21,466.43 472.82,483.17 472.87,483.17 472.91,483.17 473.29,463.64 473.57,463.64 473.62,463.64 474.27,463.64 474.32,463.64 474.98,463.64 475.03,463.64 475.12,477.59 475.68,477.59 475.73,477.59 476.39,477.59 476.44,477.59 476.67,460.85 477.09,460.85 477.14,460.85 477.37,452.49 477.80,452.49 477.84,452.49 478.03,449.70 478.50,449.70 478.55,449.70 479.16,446.91 479.21,446.91 479.25,446.91 479.91,446.91 479.96,446.91 480.62,449.70 480.66,449.70 481.32,458.06 481.37,458.06 482.02,458.06 482.07,458.06 482.12,469.22 482.73,469.22 482.78,469.22 482.82,474.80 483.43,472.01 483.48,472.01 484.14,474.80 484.19,474.80 484.84,474.80 484.89,474.80 484.94,469.22 485.55,469.22 485.59,469.22 486.25,469.22 486.30,469.22 486.96,474.80 487.00,474.80 487.66,474.80 487.71,474.80 487.80,485.96 488.37,485.96 488.41,485.96 488.69,480.38 489.07,505.48 489.12,505.48 489.31,536.16 489.78,508.27 489.82,508.27 490.15,511.06 490.34,505.48 490.48,505.48 490.53,505.48 490.86,497.11 491.18,499.90 491.23,499.90 491.89,499.90 491.94,499.90 492.26,505.48 492.59,505.48 492.64,505.48 493.16,499.90 493.30,505.48 493.35,505.48 493.77,463.64 494.00,463.64 494.05,463.64 494.43,469.22 494.71,469.22 494.75,469.22 494.90,477.59 495.41,477.59 495.46,477.59 495.98,480.38 496.12,455.28 496.16,455.28 496.45,449.70 496.82,452.49 496.87,452.49 497.24,455.28 497.53,455.28 497.57,455.28 498.23,455.28 498.28,455.28 498.94,455.28 498.98,455.28 499.12,460.85 499.64,460.85 499.69,460.85 499.78,466.43 500.34,466.43 500.39,469.22 500.67,460.85 500.95,480.38 501.05,480.38 501.10,480.38 501.38,474.80 501.75,474.80 501.80,474.80 502.46,474.80 502.50,474.80 503.16,474.80 503.21,474.80 503.87,474.80 503.91,491.54 504.20,483.17 504.57,483.17 504.62,483.17 504.99,485.96 505.28,485.96 505.32,485.96 505.98,485.96 506.03,485.96 506.45,477.59 506.69,477.59 506.73,477.59 507.20,488.75 507.39,488.75 507.44,488.75 508.09,488.75 508.14,488.75 508.24,485.96 508.80,485.96 508.85,485.96 509.18,491.54 509.50,491.54 509.55,491.54 509.74,472.01 510.21,472.01 510.26,466.43 510.77,469.22 510.91,469.22 510.96,469.22 511.62,469.22 511.66,469.22 512.23,472.01 512.32,472.01 512.37,472.01 512.89,474.80 513.03,472.01 513.07,472.01 513.36,469.22 513.73,469.22 513.78,469.22 514.34,485.96 514.44,485.96 514.48,485.96 514.86,483.17 515.14,483.17 515.19,483.17 515.85,483.17 515.89,483.17 516.55,483.17 516.60,483.17 516.83,485.96 517.25,483.17 517.30,483.17 517.96,483.17 518.01,483.17 518.66,483.17 518.71,483.17 519.37,466.43 519.42,469.22 519.60,446.91 520.07,446.91 520.12,446.91 520.45,458.06 520.78,446.91 520.82,446.91 520.92,449.70 521.48,449.70 521.53,449.70 521.95,460.85 522.19,460.85 522.23,449.70 522.56,452.49 522.89,452.49 522.94,452.49 523.45,455.28 523.60,441.33 523.64,441.33 524.30,374.39 524.35,374.39 525.00,402.28 525.05,402.28 525.71,438.54 525.76,438.54 525.85,432.96 526.27,446.91 526.41,446.91 526.46,446.91 527.07,379.97 527.12,379.97 527.17,396.70 527.64,410.65 527.82,410.65 527.87,410.65 528.48,441.33 528.53,441.33 528.57,441.33 528.90,449.70 529.23,449.70 529.28,452.49 529.94,458.06 529.98,458.06 530.50,488.75 530.64,474.80 530.69,474.80 531.35,474.80 531.39,474.80 531.53,491.54 532.05,488.75 532.10,488.75 532.19,485.96 532.76,494.32 532.80,494.32 533.46,466.43 533.51,466.43 534.16,466.43 534.21,469.22 534.87,483.17 534.92,483.17 535.43,511.06 535.57,511.06 535.62,511.06 536.18,497.11 536.28,497.11 536.33,497.11 536.80,483.17 536.98,483.17 537.03,483.17 537.69,483.17 537.73,477.59 538.25,491.54 538.39,483.17 538.44,483.17 539.10,483.17 539.14,483.17 539.33,488.75 539.80,488.75 539.85,488.75 540.22,480.38 540.51,480.38 540.55,480.38 541.07,485.96 541.21,485.96 541.26,485.96 541.92,485.96 541.96,485.96 542.34,483.17 542.62,483.17 542.67,483.17 543.32,516.64 543.37,525.01 543.61,544.53 544.03,533.37 544.08,533.37 544.31,513.85 544.73,513.85 544.78,513.85 544.97,519.43 545.02,508.27 545.44,516.64 545.48,516.64 546.14,516.64 546.19,516.64 546.66,519.43 546.85,519.43 546.89,519.43 547.55,527.79 547.60,527.79 548.02,525.01 548.26,525.01 548.30,525.01 548.63,522.22 548.96,522.22 549.01,522.22 549.67,522.22 549.71,522.22 549.95,525.01 550.37,522.22 550.42,522.22 550.51,525.01 551.07,525.01 551.12,525.01 551.45,522.22 551.78,522.22 551.83,522.22 552.44,569.63 552.48,569.63 552.53,558.48 553.09,533.37 553.19,533.37 553.24,533.37 553.75,527.79 553.89,527.79 553.94,527.79 554.50,530.58 554.60,530.58 554.64,530.58 555.02,533.37 555.30,530.58 555.35,530.58 555.44,525.01 556.01,525.01 556.05,525.01 556.34,530.58 556.71,530.58 556.76,530.58 557.42,530.58 557.46,530.58 558.12,530.58 558.17,530.58 558.83,530.58 558.87,530.58 559.01,527.79 559.53,527.79 559.58,527.79 559.91,530.58 560.23,530.58 560.28,530.58 560.94,547.32 560.99,547.32 561.03,578.00 561.64,566.84 561.69,566.84 561.74,564.05 562.35,564.05 562.40,558.48 562.54,572.42 563.05,572.42 563.10,572.42 563.29,558.48 563.76,561.26 563.80,561.26 564.46,558.48 564.51,558.48 564.84,555.69 565.17,558.48 565.21,558.48 565.87,558.48 565.92,555.69 566.39,561.26 566.58,561.26 566.62,561.26 566.72,564.05 567.28,564.05 567.33,564.05 567.37,572.42 567.98,572.42 568.03,572.42 568.31,566.84 568.69,566.84 568.74,566.84 568.97,555.69 569.39,555.69 569.44,555.69 570.10,555.69 570.15,555.69 570.47,538.95 570.80,538.95 570.85,538.95 571.27,552.90 571.51,552.90 571.55,552.90 572.07,547.32 572.21,547.32 572.26,547.32 572.87,538.95 572.92,538.95 572.96,538.95 573.62,538.95 573.67,538.95 574.33,538.95 574.37,538.95 574.42,541.74 574.66,530.58 575.03,530.58 575.08,530.58 575.17,536.16 575.41,513.85 575.74,516.64 575.78,516.64 576.44,516.64 576.49,516.64 577.14,516.64 577.19,516.64 577.57,513.85 577.85,516.64 577.90,516.64 578.46,513.85 578.55,513.85 578.60,513.85 579.16,541.74 579.26,541.74 579.31,541.74 579.96,541.74 580.01,541.74 580.10,550.11 580.67,544.53 580.71,544.53 581.37,544.53 581.42,547.32 581.84,544.53 582.08,544.53 582.12,544.53 582.41,555.69 582.78,547.32 582.83,547.32 583.49,547.32 583.53,547.32 584.19,547.32 584.24,547.32 584.61,550.11 584.90,550.11 584.94,550.11 585.08,555.69 585.60,552.90 585.65,552.90 586.30,552.90 586.35,552.90 587.01,552.90 587.06,552.90 587.53,555.69 587.71,555.69 587.76,552.90 588.42,552.90 588.47,552.90 588.70,547.32 589.12,547.32 589.17,547.32 589.83,547.32 589.87,552.90 590.53,552.90 590.58,552.90 591.10,497.11 591.24,511.06 591.28,511.06 591.80,499.90 591.94,499.90 591.99,499.90 592.46,497.11 592.65,497.11 592.69,497.11 592.93,485.96 593.35,485.96 593.40,499.90 593.63,530.58 594.05,519.43 594.10,519.43 594.43,538.95 594.76,533.37 594.81,533.37 595.28,552.90 595.46,552.90 595.51,552.90 596.17,552.90 596.22,552.90 596.64,538.95 596.87,538.95 596.92,538.95 597.58,538.95 597.62,538.95 598.28,538.95 598.33,538.95 598.99,538.95 599.03,538.95 599.22,541.74 599.69,538.95 599.74,533.37 600.40,533.37 600.44,533.37 601.10,533.37 601.15,533.37 601.29,536.16 601.81,536.16 601.85,536.16 602.27,538.95 602.51,533.37 602.56,533.37 602.79,536.16 603.21,536.16 603.26,536.16 603.64,538.95 603.92,538.95 603.97,538.95 604.44,536.16 604.62,536.16 604.67,536.16 604.91,525.01 605.33,525.01 605.38,525.01 606.03,516.64 606.08,502.69 606.74,480.38 606.78,480.38 607.21,430.17 607.44,452.49 607.49,458.06 607.58,463.64 608.10,444.12 608.15,444.12 608.19,444.12 608.29,455.28 608.66,441.33 608.85,441.33 608.90,441.33 608.99,449.70 609.41,427.38 609.56,427.38 609.60,427.38 610.21,455.28 610.26,455.28 610.31,455.28 610.87,508.27 610.96,508.27 611.01,508.27 611.62,455.28 611.67,455.28 611.72,455.28 612.05,460.85 612.37,460.85 612.42,460.85 612.75,458.06 613.08,472.01 613.13,480.38 613.78,477.59 613.83,474.80 614.39,449.70 614.49,449.70 614.53,449.70 614.96,458.06 615.19,458.06 615.24,458.06 615.62,469.22 615.90,469.22 615.94,469.22 616.23,488.75 616.60,488.75 616.65,488.75 616.88,477.59 617.31,477.59 617.35,477.59 617.78,472.01 618.01,472.01 618.06,472.01 618.39,424.59 618.72,427.38 618.76,430.17 619.14,441.33 619.42,430.17 619.47,430.17 619.56,441.33 620.12,441.33 620.17,441.33 620.64,432.96 620.83,432.96 620.88,432.96 621.25,446.91 621.53,446.91 621.58,446.91 621.63,435.75 622.24,438.54 622.29,438.54 622.71,435.75 622.94,458.06 622.99,458.06 623.41,505.48 623.65,502.69 623.69,502.69 624.26,480.38 624.35,480.38 624.40,480.38 624.63,449.70 625.06,449.70 625.10,449.70 625.24,444.12 625.48,463.64 625.76,444.12 625.81,444.12 626.18,455.28 626.47,455.28 626.51,455.28 626.75,463.64 627.17,463.64 627.22,463.64 627.55,460.85 627.88,460.85 627.92,438.54 627.97,441.33 628.58,438.54 628.63,438.54 628.77,446.91 629.28,446.91 629.33,444.12 629.66,438.54 629.99,438.54 630.04,438.54 630.18,441.33 630.69,438.54 630.74,466.43 631.35,460.85 631.40,460.85 631.45,460.85 632.10,460.85 632.15,460.85 632.20,458.06 632.81,460.85 632.85,460.85 632.90,458.06 633.51,458.06 633.56,452.49 633.70,441.33 634.22,444.12 634.26,444.12 634.78,446.91 634.92,446.91 634.97,446.91 635.63,446.91 635.67,446.91 636.24,455.28 636.33,455.28 636.38,455.28 636.42,449.70 637.03,449.70 637.08,449.70 637.46,455.28 637.74,455.28 637.79,455.28 638.44,455.28 638.49,455.28 639.15,455.28 639.20,455.28 639.57,463.64 639.81,452.49 639.85,452.49 639.90,452.49 640.56,452.49 640.60,452.49 640.89,455.28 641.26,455.28 641.31,455.28 641.97,455.28 642.01,455.28 642.67,435.75 642.72,424.59 643.38,424.59 643.42,424.59 643.47,427.38 644.08,424.59 644.13,424.59 644.50,432.96 644.79,432.96 644.83,432.96 645.21,460.85 645.49,458.06 645.54,458.06 646.19,458.06 646.24,460.85 646.90,460.85 646.95,460.85 647.60,460.85 647.65,460.85 647.84,441.33 648.31,441.33 648.36,441.33 649.01,427.38 649.06,427.38 649.44,419.02 649.72,419.02 649.76,419.02 650.19,421.81 650.42,421.81 650.47,421.81 650.52,424.59 651.13,410.65 651.17,419.02 651.41,410.65 651.83,416.23 651.88,416.23 652.54,416.23 652.58,416.23 653.24,419.02 653.29,419.02 653.38,421.81 653.94,421.81 653.99,421.81 654.18,407.86 654.65,407.86 654.70,407.86 654.98,379.97 655.35,382.76 655.40,382.76 655.68,374.39 656.06,377.18 656.11,377.18 656.39,385.55 656.76,382.76 656.81,382.76 657.37,391.12 657.47,391.12 657.51,399.49 657.80,424.59 658.17,424.59 658.22,424.59 658.50,427.38 658.88,427.38 658.92,427.38 659.35,430.17 659.58,430.17 659.63,430.17 660.29,430.17 660.33,430.17 660.99,430.17 661.04,430.17 661.37,424.59 661.70,424.59 661.74,424.59 662.40,424.59 662.45,424.59 663.10,424.59 663.15,424.59 663.20,421.81 663.81,424.59 663.86,424.59 664.51,421.81 664.56,421.81 665.17,424.59 665.22,424.59 665.27,424.59 665.64,421.81 665.92,424.59 665.97,424.59 666.20,421.81 666.63,424.59 666.67,424.59 666.77,438.54 667.33,424.59 667.38,424.59 668.04,424.59 668.08,424.59 668.46,419.02 668.74,419.02 668.79,419.02 669.35,413.44 669.45,413.44 669.49,413.44 669.73,424.59 670.15,424.59 670.20,424.59 670.86,424.59 670.90,421.81 671.56,413.44 671.61,413.44 672.08,421.81 672.26,421.81 672.31,421.81 672.97,421.81 673.02,421.81 673.58,419.02 673.67,419.02 673.72,419.02 674.38,419.02 674.43,419.02 675.04,410.65 675.08,410.65 675.13,410.65 675.36,432.96 675.79,432.96 675.83,432.96 676.07,452.49 676.49,444.12 676.54,444.12 677.20,441.33 677.24,435.75 677.90,435.75 677.95,435.75 678.14,438.54 678.18,432.96 678.61,432.96 678.65,432.96 678.84,427.38 679.31,427.38 679.36,427.38 679.50,413.44 680.01,413.44 680.06,413.44 680.72,413.44 680.77,413.44 681.42,413.44 681.47,413.44 682.13,413.44 682.18,413.44 682.74,393.91 682.83,393.91 682.88,393.91 683.35,379.97 683.54,379.97 683.58,379.97 683.73,371.60 684.24,371.60 684.29,371.60 684.85,379.97 684.95,379.97 684.99,379.97 685.65,379.97 685.70,379.97 686.12,385.55 686.36,385.55 686.40,385.55 686.83,374.39 687.06,374.39 687.11,374.39 687.77,374.39 687.81,374.39 687.95,368.81 688.47,368.81 688.52,368.81 689.13,385.55 689.17,385.55 689.22,385.55 689.27,393.91 689.88,393.91 689.93,393.91 690.21,391.12 690.58,405.07 690.63,405.07 691.29,405.07 691.34,405.07 691.99,388.34 692.04,382.76 692.60,371.60 692.70,371.60 692.74,371.60 693.17,374.39 693.40,374.39 693.45,374.39 693.82,371.60 694.11,371.60 694.15,371.60 694.81,371.60 694.86,371.60 695.28,374.39 695.33,363.23 695.52,363.23 695.56,366.02 696.17,360.44 696.22,360.44 696.27,360.44 696.36,363.23 696.93,363.23 696.97,363.23 697.35,360.44 697.49,366.02 697.63,366.02 697.68,366.02 698.33,357.65 698.38,357.65 699.04,357.65 699.09,357.65 699.60,354.86 699.74,354.86 699.79,354.86 700.26,371.60 700.45,371.60 700.49,371.60 700.96,363.23 701.15,363.23 701.20,363.23 701.43,371.60 701.86,371.60 701.90,371.60 702.56,371.60 702.61,371.60 703.27,357.65 703.31,349.29 703.60,332.55 703.97,340.92 704.02,340.92 704.39,332.55 704.68,332.55 704.72,332.55 705.00,338.13 705.38,338.13 705.43,338.13 705.61,332.55 706.08,332.55 706.13,332.55 706.65,349.29 706.79,349.29 706.84,349.29 707.49,349.29 707.54,349.29 707.96,335.34 708.20,335.34 708.25,335.34 708.90,335.34 708.95,335.34 709.56,343.71 709.61,343.71 709.65,343.71 709.80,340.92 710.12,352.08 710.31,352.08 710.36,352.08 710.92,338.13 711.02,338.13 711.06,338.13 711.39,343.71 711.72,343.71 711.77,343.71 712.33,357.65 712.43,357.65 712.47,357.65 713.13,352.08 713.18,352.08 713.41,354.86 713.84,354.86 713.88,354.86 714.16,352.08 714.54,352.08 714.59,352.08 715.24,352.08 715.29,352.08 715.71,332.55 715.95,332.55 716.00,332.55 716.65,332.55 716.70,340.92 717.36,340.92 717.41,340.92 717.87,349.29 718.06,349.29 718.11,346.50 718.39,352.08 718.77,352.08 718.81,352.08 719.47,352.08 719.52,352.08 720.04,363.23 720.18,363.23 720.22,363.23 720.27,360.44 720.88,363.23 720.93,363.23 721.44,360.44 721.59,360.44 721.63,360.44 722.29,377.18 722.34,377.18 722.38,385.55 722.99,377.18 723.04,374.39 723.65,371.60 723.70,371.60 723.75,371.60 724.12,374.39 724.40,374.39 724.45,374.39 724.92,371.60 725.11,371.60 725.16,371.60 725.77,354.86 725.81,354.86 725.86,349.29 726.52,349.29 726.56,349.29 726.75,363.23 727.22,352.08 727.27,352.08 727.93,352.08 727.97,352.08 728.54,357.65 728.63,357.65 728.68,357.65 729.20,360.44 729.34,360.44 729.38,360.44 729.95,357.65 730.04,357.65 730.09,357.65 730.23,349.29 730.75,363.23 730.79,363.23 731.45,363.23 731.50,363.23 732.06,352.08 732.15,352.08 732.20,352.08 732.58,363.23 732.86,363.23 732.91,363.23 733.38,354.86 733.56,354.86 733.61,354.86 734.27,354.86 734.32,354.86 734.97,354.86 735.02,354.86 735.68,354.86 735.72,354.86 736.38,354.86 736.43,354.86 737.09,354.86 737.13,354.86 737.79,354.86 737.84,354.86 738.50,354.86 738.54,354.86 739.20,354.86 739.25,354.86 739.91,354.86 739.95,354.86 740.14,357.65 740.61,354.86 740.66,354.86 741.31,354.86 741.36,354.86 742.02,354.86 742.07,354.86 742.72,354.86 742.77,354.86 743.43,354.86 743.47,357.65 744.13,357.65 744.18,357.65 744.84,357.65 744.88,357.65 745.17,360.44 745.54,360.44 745.59,360.44 745.64,354.86 746.25,354.86 746.29,354.86 746.95,354.86 747.00,354.86 747.66,354.86 747.70,354.86 748.27,424.59 748.36,424.59 748.41,413.44 748.64,421.81 748.92,405.07 749.06,419.02 749.11,419.02 749.39,396.70 749.77,402.28 749.82,402.28 750.43,388.34 750.47,388.34 750.52,388.34 751.18,388.34 751.23,388.34 751.88,388.34 751.93,388.34 752.21,379.97 752.59,379.97 752.63,379.97 753.29,379.97 753.34,379.97 754.00,379.97 754.04,379.97 754.09,382.76 754.70,382.76 754.75,382.76 754.80,391.12 755.41,391.12 755.45,391.12 756.11,391.12 756.16,391.12 756.39,382.76 756.82,382.76 756.86,382.76 757.24,366.02 757.52,366.02 757.57,366.02 758.22,366.02 758.27,366.02 758.60,360.44 758.93,360.44 758.98,360.44 759.63,360.44 759.68,360.44 760.34,360.44 760.39,360.44 760.48,366.02 761.04,366.02 761.09,366.02 761.37,374.39 761.75,374.39 761.79,374.39 762.36,357.65 762.45,357.65 762.50,357.65 762.78,354.86 763.16,354.86 763.20,354.86 763.81,357.65 763.86,357.65 763.91,357.65 764.05,354.86 764.52,419.02 764.57,419.02 764.61,419.02 764.75,410.65 765.27,419.02 765.32,419.02 765.83,410.65 765.97,427.38 766.02,427.38 766.07,430.17 766.68,430.17 766.73,430.17 766.91,427.38 767.38,427.38 767.43,427.38 768.04,405.07 768.09,405.07 768.14,405.07 768.75,402.28 768.79,402.28 768.84,402.28 769.50,393.91 769.54,393.91 770.20,393.91 770.25,393.91 770.91,393.91 770.95,393.91 771.61,393.91 771.66,393.91 772.18,377.18 772.32,377.18 772.36,377.18 773.02,377.18 773.07,374.39 773.73,374.39 773.77,393.91 773.82,391.12 773.87,396.70 774.43,396.70 774.48,396.70 775.04,407.86 775.13,407.86 775.18,407.86 775.37,393.91 775.84,393.91 775.89,393.91 776.26,388.34 776.54,388.34 776.59,388.34 776.83,382.76 777.25,382.76 777.30,382.76 777.34,379.97 777.95,379.97 778.00,379.97 778.66,379.97 778.70,379.97 779.13,371.60 779.36,371.60 779.41,371.60 780.07,371.60 780.11,371.60 780.25,377.18 780.77,371.60 780.82,371.60 781.48,371.60 781.52,371.60 781.57,377.18 782.18,377.18 782.23,377.18 782.27,374.39 782.89,374.39 782.93,374.39 783.21,382.76 783.59,382.76 783.64,382.76 783.97,379.97 784.29,379.97 784.34,379.97 784.48,382.76 785.00,382.76 785.05,382.76 785.28,379.97 785.47,396.70 785.70,396.70 785.75,396.70 786.41,396.70 786.45,396.70 786.64,399.49 787.11,399.49 787.16,399.49 787.54,396.70 787.82,396.70 787.86,396.70 788.33,410.65 788.52,410.65 788.57,410.65 789.09,399.49 789.23,399.49 789.27,399.49 789.60,416.23 789.93,405.07 789.98,405.07 790.07,399.49 790.64,399.49 790.68,399.49 791.15,413.44 791.34,413.44 791.39,405.07 792.04,405.07 792.09,405.07 792.19,413.44 792.75,410.65 792.80,410.65 792.98,405.07 793.45,405.07 793.50,405.07 793.64,413.44 794.16,410.65 794.21,410.65 794.63,405.07 794.86,405.07 794.91,405.07 795.57,405.07 795.61,405.07 796.27,405.07 796.32,405.07 796.98,396.70 797.02,396.70 797.68,396.70 797.73,396.70 798.29,402.28 798.39,402.28 798.43,402.28 798.90,396.70 799.09,396.70 799.14,396.70 799.47,419.02 799.80,419.02 799.84,419.02 800.17,416.23 800.50,416.23 800.55,416.23 801.20,416.23 801.25,416.23 801.91,413.44 801.96,413.44 802.61,413.44 802.66,413.44 803.32,413.44 803.37,413.44 804.02,413.44 804.07,413.44 804.26,419.02 804.73,413.44 804.77,413.44 805.24,416.23 805.43,416.23 805.48,416.23 805.57,413.44 806.14,413.44 806.18,413.44 806.84,413.44 806.89,413.44 807.22,419.02 807.55,419.02 807.59,419.02 807.83,416.23 808.25,416.23 808.30,416.23 808.39,421.81 808.95,421.81 809.00,421.81 809.57,446.91 809.66,446.91 809.71,446.91 810.36,446.91 810.41,446.91 810.74,441.33 811.07,441.33 811.12,441.33 811.30,452.49 811.77,446.91 811.82,446.91 812.48,446.91 812.52,446.91 813.18,446.91 813.23,446.91 813.89,446.91 813.93,446.91 813.98,452.49 814.59,452.49 814.64,452.49 815.16,449.70 815.30,449.70 815.34,449.70 815.58,452.49 816.00,452.49 816.05,452.49 816.47,474.80 816.71,474.80 816.75,474.80 817.41,480.38 817.46,480.38 817.83,469.22 818.11,480.38 818.16,480.38 818.35,472.01 818.82,472.01 818.87,472.01 819.10,469.22 819.52,469.22 819.57,469.22 820.23,469.22 820.28,469.22 820.93,469.22 820.98,469.22 821.03,463.64 821.64,463.64 821.68,463.64 821.73,460.85 822.34,463.64 822.39,463.64 822.67,460.85 823.05,460.85 823.09,460.85 823.75,460.85 823.80,460.85 824.46,460.85 824.50,460.85 825.16,460.85 825.21,460.85 825.40,452.49 825.87,458.06 825.91,458.06 826.57,458.06 826.62,458.06 827.27,458.06 827.32,458.06 827.98,458.06 828.03,458.06 828.45,452.49 828.68,452.49 828.73,452.49 829.39,452.49 829.44,452.49 829.76,469.22 830.09,469.22 830.14,469.22 830.66,463.64 830.80,463.64 830.84,463.64 831.03,472.01 831.50,472.01 831.55,472.01 831.74,474.80 832.21,474.80 832.25,474.80 832.30,472.01 832.91,472.01 832.96,472.01 833.10,469.22 833.62,469.22 833.66,469.22 834.32,469.22 834.37,469.22 834.70,474.80 835.02,469.22 835.07,469.22 835.40,472.01 835.73,469.22 835.78,469.22 836.43,469.22 836.48,469.22 837.14,469.22 837.19,469.22 837.84,469.22 837.89,469.22 838.31,472.01 838.55,472.01 838.59,472.01 838.64,460.85 839.25,460.85 839.30,460.85 839.96,460.85 840.00,460.85 840.05,480.38 840.66,460.85 840.71,460.85 841.37,460.85 841.41,460.85 842.07,432.96 842.12,432.96 842.26,435.75 842.59,424.59 842.78,432.96 842.82,432.96 843.48,424.59 843.53,424.59 843.90,410.65 844.18,410.65 844.23,410.65 844.61,413.44 844.89,413.44 844.94,393.91 845.59,393.91 845.64,393.91 845.92,402.28 846.30,402.28 846.35,402.28 846.63,391.12 847.00,391.12 847.05,391.12 847.71,391.12 847.75,391.12 848.18,379.97 848.41,379.97 848.46,379.97 848.83,374.39 849.12,374.39 849.16,382.76 849.82,382.76 849.87,377.18 850.10,379.97 850.53,379.97 850.57,377.18 850.76,366.02 851.23,366.02 851.28,366.02 851.56,363.23 851.93,363.23 851.98,363.23 852.64,363.23 852.69,363.23 852.83,357.65 853.34,357.65 853.39,357.65 853.49,352.08 854.05,352.08 854.10,352.08 854.28,354.86 854.75,352.08 854.80,352.08 855.46,352.08 855.50,352.08 856.16,352.08 856.21,352.08 856.87,352.08 856.91,352.08 857.29,349.29 857.57,349.29 857.62,349.29 858.04,340.92 858.28,340.92 858.32,340.92 858.61,352.08 858.98,352.08 859.03,352.08 859.26,349.29 859.69,352.08 859.73,357.65 860.39,357.65 860.44,357.65 860.62,366.02 861.09,366.02 861.14,366.02 861.38,371.60 861.80,371.60 861.85,371.60 862.08,368.81 862.50,371.60 862.55,366.02 863.21,366.02 863.26,366.02 863.82,382.76 863.91,382.76 863.96,382.76 864.62,382.76 864.66,388.34 865.32,388.34 865.37,388.34 866.03,388.34 866.07,388.34 866.54,393.91 866.73,393.91 866.78,393.91 867.15,391.12 867.44,391.12 867.48,391.12 867.86,393.91 868.14,393.91 868.19,393.91 868.52,391.12 868.85,391.12 868.89,391.12 869.08,393.91 869.55,391.12 869.60,391.12 869.93,393.91 870.25,393.91 870.30,393.91 870.86,388.34 870.96,388.34 871.01,388.34 871.66,388.34 871.71,388.34 872.09,352.08 872.37,352.08 872.42,352.08 872.56,363.23 873.07,363.23 873.12,363.23 873.21,357.65 873.78,360.44 873.82,360.44 874.15,363.23 874.48,363.23 874.53,363.23 875.05,324.18 875.19,324.18 875.23,324.18 875.89,324.18 875.94,324.18 875.98,338.13 876.60,332.55 876.64,332.55 876.78,318.61 877.30,329.76 877.35,332.55 877.68,349.29 878.00,349.29 878.05,349.29 878.47,346.50 878.71,346.50 878.76,338.13 878.85,349.29 879.41,349.29 879.46,349.29 879.74,321.39 880.12,329.76 880.17,329.76 880.59,349.29 880.82,332.55 880.87,332.55 881.01,321.39 881.53,321.39 881.57,321.39 881.81,338.13 882.23,335.34 882.28,335.34 882.94,335.34 882.98,335.34 883.31,315.82 883.64,315.82 883.69,315.82 883.83,324.18 884.35,318.61 884.39,318.61 884.86,326.97 885.05,326.97 885.10,326.97 885.76,326.97 885.80,326.97 886.46,326.97 886.51,326.97 887.07,324.18 887.16,324.18 887.21,324.18 887.59,315.82 887.87,315.82 887.92,315.82 887.96,313.03 888.57,313.03 888.62,313.03 888.81,310.24 889.00,315.82 889.28,315.82 889.33,315.82 889.89,326.97 889.98,326.97 890.03,315.82 890.41,310.24 890.69,310.24 890.73,304.66 890.88,301.87 891.39,304.66 891.44,304.66 892.00,285.14 892.05,310.24 892.10,310.24 892.14,310.24 892.24,287.92 892.80,290.71 892.85,282.35 893.04,290.71 893.51,290.71 893.55,290.71 893.60,279.56 894.21,279.56 894.26,279.56 894.30,265.61 894.91,265.61 894.96,265.61 895.15,273.98 895.62,271.19 895.67,271.19 895.71,268.40 896.32,268.40 896.37,268.40 896.70,260.03 897.03,260.03 897.08,260.03 897.50,293.50 897.73,293.50 897.78,301.87 898.34,287.92 898.44,287.92 898.48,287.92 898.86,299.08 899.14,299.08 899.19,299.08 899.24,293.50 899.85,293.50 899.89,293.50 900.18,285.14 900.55,285.14 900.60,285.14 901.02,276.77 901.26,276.77 901.30,276.77 901.91,248.88 901.96,248.88 902.01,248.88 902.10,254.45 902.67,248.88 902.71,248.88 903.37,248.88 903.42,248.88 903.46,240.51 904.07,240.51 904.12,257.24 904.17,260.03 904.78,260.03 904.83,262.82 905.48,262.82 905.53,262.82 905.67,271.19 906.19,265.61 906.24,265.61 906.89,265.61 906.94,265.61 906.99,271.19 907.55,260.03 907.60,260.03 907.64,260.03 908.30,260.03 908.35,260.03 909.01,262.82 909.05,262.82 909.71,262.82 909.76,262.82 909.99,260.03 910.28,265.61 910.42,265.61 910.46,265.61 910.70,260.03 910.74,271.19 911.12,271.19 911.17,271.19 911.26,273.98 911.83,273.98 911.87,273.98 912.11,260.03 912.53,271.19 912.58,271.19 913.05,290.71 913.23,273.98 913.28,273.98 913.80,310.24 913.94,310.24 913.99,310.24 914.55,315.82 914.64,315.82 914.69,315.82 915.35,304.66 915.40,304.66 915.68,301.87 916.05,315.82 916.10,315.82 916.66,357.65 916.76,349.29 916.80,335.34 917.27,357.65 917.46,357.65 917.51,357.65 917.70,340.92 918.17,340.92 918.21,340.92 918.59,332.55 918.87,332.55 918.92,332.55 919.29,315.82 919.58,315.82 919.62,315.82 919.72,307.45 920.09,321.39 920.28,313.03 920.33,313.03 920.56,315.82 920.98,315.82 921.03,315.82 921.36,332.55 921.69,332.55 921.74,332.55 922.25,335.34 922.39,335.34 922.44,329.76 922.49,326.97 923.10,326.97 923.15,326.97 923.80,326.97 923.85,326.97 923.94,318.61 924.51,318.61 924.55,318.61 925.21,326.97 925.26,329.76 925.49,326.97 925.92,354.86 925.96,354.86 926.39,368.81 926.62,368.81 926.67,368.81 927.33,382.76 927.37,382.76 927.98,388.34 928.03,388.34 928.08,388.34 928.74,354.86 928.78,354.86 929.21,363.23 929.44,354.86 929.49,354.86 930.00,346.50 930.14,346.50 930.19,346.50 930.52,363.23 930.85,363.23 930.90,363.23 931.37,349.29 931.55,349.29 931.60,349.29 932.16,343.71 932.26,343.71 932.31,343.71 932.82,346.50 932.96,346.50 933.01,346.50 933.62,310.24 933.67,310.24 933.71,310.24 934.09,271.19 934.37,276.77 934.42,273.98 934.65,265.61 934.94,310.24 935.08,310.24 935.12,310.24 935.78,310.24 935.83,310.24 936.25,315.82 936.49,315.82 936.53,315.82 936.72,357.65 937.19,338.13 937.24,338.13 937.61,329.76 937.90,329.76 937.94,329.76 938.41,324.18 938.60,324.18 938.65,324.18 939.21,321.39 939.30,321.39 939.35,321.39 939.73,315.82 940.01,315.82 940.06,315.82 940.24,321.39 940.71,321.39 940.76,321.39 941.42,324.18 941.46,324.18 942.12,324.18 942.17,324.18 942.26,318.61 942.83,318.61 942.87,318.61 943.02,324.18 943.53,324.18 943.58,324.18 943.86,329.76 944.24,326.97 944.28,326.97 944.61,357.65 944.94,357.65 944.99,357.65 945.50,366.02 945.65,366.02 945.69,366.02 945.88,363.23 946.35,363.23 946.40,363.23 946.49,346.50 947.05,346.50 947.10,346.50 947.71,352.08 947.76,352.08 947.81,352.08 948.04,360.44 948.28,335.34 948.46,335.34 948.51,335.34 948.89,329.76 949.17,329.76 949.22,329.76 949.87,329.76 949.92,329.76 950.20,321.39 950.58,321.39 950.62,321.39 951.28,321.39 951.33,321.39 951.99,321.39 952.03,321.39 952.64,324.18 952.69,324.18 952.74,324.18 952.88,321.39 953.40,321.39 953.44,321.39 954.10,321.39 954.15,321.39 954.81,321.39 954.85,321.39 955.42,304.66 955.51,304.66 955.56,304.66 956.03,279.56 956.21,299.08 956.26,299.08 956.92,293.50 956.97,293.50 957.39,313.03 957.62,313.03 957.67,313.03 958.09,324.18 958.33,324.18 958.38,324.18 959.03,324.18 959.08,324.18 959.55,304.66 959.74,304.66 959.78,304.66 959.88,301.87 960.44,301.87 960.49,293.50 960.72,296.29 961.15,296.29 961.19,296.29 961.85,296.29 961.90,296.29 962.56,296.29 962.60,296.29 962.93,310.24 963.26,310.24 963.31,310.24 963.78,315.82 963.96,315.82 964.01,315.82 964.34,307.45 964.67,307.45 964.72,307.45 965.19,315.82 965.37,315.82 965.42,315.82 966.08,326.97 966.13,326.97 966.69,357.65 966.78,357.65 966.83,368.81 967.21,354.86 967.49,354.86 967.53,366.02 967.72,354.86 968.05,393.91 968.19,388.34 968.24,388.34 968.66,377.18 968.90,377.18 968.94,388.34 969.41,385.55 969.60,385.55 969.65,385.55 970.21,396.70 970.31,393.91 970.35,393.91 971.01,393.91 971.06,393.91 971.25,396.70 971.67,382.76 971.72,382.76 971.76,382.76 972.19,321.39 972.42,321.39 972.47,321.39 972.89,329.76 973.12,329.76 973.17,329.76 973.64,313.03 973.83,313.03 973.88,313.03 974.49,332.55 974.53,332.55 974.58,332.55 975.05,329.76 975.24,329.76 975.29,329.76 975.85,366.02 975.94,366.02 975.99,368.81 976.37,388.34 976.65,388.34 976.69,382.76 977.35,382.76 977.40,382.76 977.45,368.81 978.06,374.39 978.10,374.39 978.53,382.76 978.76,382.76 978.81,382.76 979.37,391.12 979.47,391.12 979.51,391.12 979.56,374.39 980.17,374.39 980.22,374.39 980.36,382.76 980.88,382.76 980.92,382.76 981.58,343.71 981.63,340.92 982.19,282.35 982.28,282.35 982.33,282.35 982.80,335.34 982.99,335.34 983.04,335.34 983.51,332.55 983.69,332.55 983.74,332.55 984.40,332.55 984.44,332.55 985.06,354.86 985.10,354.86 985.15,354.86 985.81,363.23 985.85,352.08 986.51,352.08 986.56,352.08 986.79,343.71 986.93,357.65 987.22,357.65 987.26,357.65 987.40,360.44 987.92,360.44 987.97,360.44 988.06,374.39 988.63,374.39 988.67,374.39 989.24,368.81 989.33,368.81 989.38,368.81 990.03,368.81 990.08,368.81 990.74,368.81 990.79,368.81 990.88,357.65 991.44,357.65 991.49,357.65 991.63,349.29 992.15,349.29 992.20,349.29 992.85,349.29 992.90,349.29 993.46,343.71 993.56,343.71 993.60,343.71 994.26,343.71 994.31,343.71 994.69,338.13 994.97,338.13 995.01,338.13 995.58,332.55 995.67,332.55 995.72,332.55 996.14,324.18 996.38,324.18 996.42,324.18 997.08,324.18 997.13,324.18 997.32,321.39 997.74,343.71 997.79,338.13 997.83,338.13 997.88,343.71 998.49,340.92 998.54,340.92 999.19,340.92 999.24,340.92 999.90,340.92 999.95,340.92 1000.04,352.08 1000.60,352.08 1000.65,352.08 1000.74,343.71 1001.31,343.71 1001.36,343.71 1002.01,343.71 1002.06,343.71 1002.48,340.92 1002.72,346.50 1002.76,346.50 1002.91,374.39 1003.42,357.65 1003.47,357.65 1003.52,354.86 1004.08,360.44 1004.13,360.44 1004.17,360.44 1004.83,360.44 1004.88,360.44 1005.54,360.44 1005.58,360.44 1005.86,371.60 1006.24,371.60 1006.29,371.60 1006.80,354.86 1006.94,354.86 1006.99,354.86 1007.65,340.92 1007.70,340.92 1008.35,352.08 1008.40,352.08 1008.68,349.29 1009.06,349.29 1009.11,349.29 1009.76,349.29 1009.81,349.29 1010.00,340.92 1010.47,340.92 1010.51,340.92 1011.17,340.92 1011.22,340.92 1011.88,340.92 1011.92,340.92 1012.58,340.92 1012.63,340.92 1013.24,332.55 1013.29,332.55 1013.33,332.55 1013.99,332.55 1014.04,332.55 1014.51,321.39 1014.70,326.97 1014.74,326.97 1014.84,321.39 1015.40,321.39 1015.45,321.39 1015.54,313.03 1016.10,313.03 1016.15,313.03 1016.76,315.82 1016.81,315.82 1016.86,315.82 1017.47,318.61 1017.51,318.61 1017.56,318.61 1018.22,313.03 1018.27,313.03 1018.92,313.03 1018.97,313.03 1019.44,315.82 1019.63,315.82 1019.67,315.82 1020.33,315.82 1020.38,315.82 1020.90,313.03 1021.04,313.03 1021.08,313.03 1021.74,313.03 1021.79,313.03 1022.45,313.03 1022.49,313.03 1023.15,313.03 1023.20,313.03 1023.86,313.03 1023.90,313.03 1024.56,313.03 1024.61,313.03 1025.26,313.03 1025.31,313.03 1025.41,318.61 1025.97,315.82 1026.02,315.82 1026.67,307.45 1026.72,304.66 1026.77,296.29 1027.38,296.29 1027.43,296.29 1027.99,299.08 1028.08,299.08 1028.13,299.08 1028.79,299.08 1028.83,299.08 1029.49,299.08 1029.54,299.08 1030.15,310.24 1030.20,310.24 1030.24,310.24 1030.90,310.24 1030.95,310.24 1030.99,299.08 1031.61,299.08 1031.65,299.08 1032.31,299.08 1032.36,299.08 1032.87,315.82 1033.01,315.82 1033.06,315.82 1033.48,307.45 1033.72,307.45 1033.77,307.45 1034.42,307.45 1034.47,307.45 1035.13,307.45 1035.18,307.45 1035.83,307.45 1035.88,307.45 1036.54,307.45 1036.58,307.45 1036.77,279.56 1037.24,279.56 1037.29,279.56 1037.62,282.35 1037.95,282.35 1037.99,282.35 1038.04,290.71 1038.13,279.56 1038.65,282.35 1038.70,282.35 1039.22,279.56 1039.36,279.56 1039.40,279.56 1040.06,279.56 1040.11,279.56 1040.77,279.56 1040.81,279.56 1041.14,273.98 1041.47,273.98 1041.52,273.98 1042.17,273.98 1042.22,273.98 1042.83,279.56 1042.88,279.56 1042.93,279.56 1043.25,276.77 1043.58,276.77 1043.63,276.77 1044.29,276.77 1044.34,276.77 1044.52,273.98 1044.76,279.56 1044.99,279.56 1045.04,279.56 1045.27,271.19 1045.70,271.19 1045.74,271.19 1046.40,265.61 1046.45,265.61 1047.11,268.40 1047.15,268.40 1047.34,265.61 1047.81,265.61 1047.86,265.61 1048.09,268.40 1048.52,265.61 1048.56,265.61 1049.22,265.61 1049.27,265.61 1049.92,265.61 1049.97,265.61 1050.02,273.98 1050.63,268.40 1050.68,268.40 1051.33,268.40 1051.38,268.40 1051.48,265.61 1051.52,273.98 1052.04,265.61 1052.09,265.61 1052.41,262.82 1052.74,265.61 1052.79,265.61 1053.40,248.88 1053.45,248.88 1053.49,248.88 1054.11,237.72 1054.15,237.72 1054.20,237.72 1054.86,237.72 1054.90,237.72 1055.19,243.30 1055.56,243.30 1055.61,243.30 1055.84,240.51 1056.27,240.51 1056.31,240.51 1056.74,265.61 1056.97,265.61 1057.02,265.61 1057.35,262.82 1057.68,262.82 1057.72,262.82 1057.77,265.61 1058.38,265.61 1058.43,265.61 1059.08,304.66 1059.13,304.66 1059.32,307.45 1059.55,287.92 1059.79,287.92 1059.84,287.92 1060.49,287.92 1060.54,287.92 1060.59,282.35 1061.20,282.35 1061.25,282.35 1061.34,268.40 1061.90,268.40 1061.95,268.40 1062.28,262.82 1062.61,262.82 1062.65,262.82 1063.31,262.82 1063.36,273.98 1064.02,273.98 1064.06,273.98 1064.30,254.45 1064.72,254.45 1064.77,254.45 1064.96,260.03 1065.43,260.03 1065.47,260.03 1066.13,260.03 1066.18,260.03 1066.41,262.82 1066.84,260.03 1066.88,260.03 1067.54,282.35 1067.59,282.35 1067.87,296.29 1068.24,296.29 1068.29,296.29 1068.76,287.92 1068.95,287.92 1069.00,287.92 1069.65,282.35 1069.70,282.35 1069.94,285.14 1070.36,285.14 1070.41,285.14 1070.55,287.92 1071.06,287.92 1071.11,287.92 1071.39,282.35 1071.77,282.35 1071.81,282.35 1072.10,265.61 1072.47,265.61 1072.52,265.61 1072.85,262.82 1073.18,262.82 1073.22,262.82 1073.88,262.82 1073.93,262.82 1074.30,260.03 1074.59,260.03 1074.63,260.03 1075.29,260.03 1075.34,260.03 1075.57,265.61 1075.99,265.61 1076.04,265.61 1076.23,273.98 1076.70,273.98 1076.75,273.98 1076.93,260.03 1077.22,285.14 1077.40,282.35 1077.45,296.29 1077.50,293.50 1077.78,329.76 1078.11,307.45 1078.16,307.45 1078.81,307.45 1078.86,307.45 1079.05,304.66 1079.52,304.66 1079.56,304.66 1080.22,304.66 1080.27,304.66 1080.69,321.39 1080.93,313.03 1080.97,313.03 1081.58,321.39 1081.63,321.39 1081.68,321.39 1081.96,324.18 1082.29,301.87 1082.34,301.87 1082.38,301.87 1083.04,301.87 1083.09,301.87 1083.32,307.45 1083.75,307.45 1083.79,307.45 1084.45,307.45 1084.50,307.45 1084.97,304.66 1085.15,304.66 1085.20,304.66 1085.58,301.87 1085.86,321.39 1085.91,321.39 1086.00,321.39" fill="none" stroke="#64748b" stroke-width="2" stroke-dasharray="7 5"/>
  <polyline points="72.00,578.00 72.05,567.77 72.09,563.82 72.14,563.82 72.19,563.82 72.23,563.82 72.28,563.82 72.33,563.82 72.38,563.82 72.42,563.82 72.47,563.82 72.52,563.82 72.56,563.82 72.61,563.82 72.66,563.82 72.70,563.82 72.75,563.82" fill="none" stroke="#dc2626" stroke-width="2" opacity="0.80"/>
  <polyline points="72.00,250.85 72.05,362.53 72.09,405.73 72.14,405.73 72.19,405.73 72.23,405.73 72.28,405.73 72.33,405.73 72.38,405.73 72.42,405.73 72.47,405.73 72.52,405.73 72.56,405.73 72.61,405.73 72.66,405.73 72.70,405.73 72.75,405.73" fill="none" stroke="#0f766e" stroke-width="3"/>
  <rect x="72" y="596" width="16" height="4" fill="#0f766e"/>
  <text x="96" y="602" font-family="Segoe UI, Arial, sans-serif" font-size="14" fill="#111827">strategy equity</text>
  <line x1="242" y1="598" x2="262" y2="598" stroke="#64748b" stroke-width="2" stroke-dasharray="7 5"/>
  <text x="270" y="602" font-family="Segoe UI, Arial, sans-serif" font-size="14" fill="#111827">passive baseline</text>
  <line x1="432" y1="598" x2="454" y2="598" stroke="#dc2626" stroke-width="2"/>
  <text x="462" y="602" font-family="Segoe UI, Arial, sans-serif" font-size="14" fill="#111827">drawdown</text>
  <text x="72" y="632" font-family="Segoe UI, Arial, sans-serif" font-size="13" fill="#334155">UTC span: 2019-12-31 to 2019-12-31. Rendered 17/17 strategy points; full-resolution graph data is in CSV.</text>
  <text x="72" y="596" font-family="Segoe UI, Arial, sans-serif" font-size="12" fill="#475569">2019-12-31</text>
  <text x="1002" y="596" font-family="Segoe UI, Arial, sans-serif" font-size="12" fill="#475569">2019-12-31</text>
</svg>
