<svg xmlns="http://www.w3.org/2000/svg" width="1280" height="635" viewBox="0 0 1280 635">
<rect width="1280" height="635" fill="#F8FAFC"/>
<text x="48" y="55" font-family="Segoe UI,Arial,sans-serif" font-size="28" font-weight="700" fill="#0F172A">Optimization evidence progression</text>
<text x="48" y="88" font-family="Segoe UI,Arial,sans-serif" font-size="15" fill="#475569">Exact status; unavailable simulated-fill counts are not zero, and counts are not ROI</text>
<text x="48" y="162" font-family="Segoe UI,Arial,sans-serif" font-size="17" font-weight="700" fill="#0F172A">Round 9</text>
<text x="155" y="162" font-family="Segoe UI,Arial,sans-serif" font-size="15" fill="#475569">1 s taker scalp admission</text>
<rect x="455" y="135" width="700" height="38" rx="4" fill="#E2E8F0"/>
<rect x="455" y="135" width="0.0" height="38" rx="4" fill="#B42318"/>
<text x="470" y="161" font-family="Segoe UI,Arial,sans-serif" font-size="14" font-weight="700" fill="#0F172A">0 simulated fills | failed before fit</text>
<text x="48" y="244" font-family="Segoe UI,Arial,sans-serif" font-size="17" font-weight="700" fill="#0F172A">Round 10</text>
<text x="155" y="244" font-family="Segoe UI,Arial,sans-serif" font-size="15" fill="#475569">1 s taker scalp hurdle</text>
<rect x="455" y="217" width="700" height="38" rx="4" fill="#E2E8F0"/>
<rect x="455" y="217" width="0.0" height="38" rx="4" fill="#B42318"/>
<text x="470" y="243" font-family="Segoe UI,Arial,sans-serif" font-size="14" font-weight="700" fill="#0F172A">0 simulated fills | no positive score</text>
<text x="48" y="326" font-family="Segoe UI,Arial,sans-serif" font-size="17" font-weight="700" fill="#0F172A">Round 11</text>
<text x="155" y="326" font-family="Segoe UI,Arial,sans-serif" font-size="15" fill="#475569">single-leg settlement hold</text>
<rect x="455" y="299" width="700" height="38" rx="4" fill="#E2E8F0"/>
<rect x="455" y="299" width="700.0" height="38" rx="4" fill="#B42318"/>
<text x="470" y="325" font-family="Segoe UI,Arial,sans-serif" font-size="14" font-weight="700" fill="#0F172A">42 simulated fills | failed uncertainty gate</text>
<text x="48" y="408" font-family="Segoe UI,Arial,sans-serif" font-size="17" font-weight="700" fill="#0F172A">Round 12</text>
<text x="155" y="408" font-family="Segoe UI,Arial,sans-serif" font-size="15" fill="#475569">sealed calibration confirmation</text>
<rect x="455" y="381" width="700" height="38" rx="4" fill="#E2E8F0"/>
<rect x="455" y="381" width="0.0" height="38" rx="4" fill="#475569"/>
<text x="470" y="407" font-family="Segoe UI,Arial,sans-serif" font-size="14" font-weight="700" fill="#0F172A">N/A simulated fills | invalidated before outcome access</text>
<text x="48" y="490" font-family="Segoe UI,Arial,sans-serif" font-size="17" font-weight="700" fill="#0F172A">Round 13</text>
<text x="155" y="490" font-family="Segoe UI,Arial,sans-serif" font-size="15" fill="#475569">slippage-limited sealed confirmation</text>
<rect x="455" y="463" width="700" height="38" rx="4" fill="#E2E8F0"/>
<rect x="455" y="463" width="0.0" height="38" rx="4" fill="#475569"/>
<text x="470" y="489" font-family="Segoe UI,Arial,sans-serif" font-size="14" font-weight="700" fill="#0F172A">N/A simulated fills | failed: 1,921.322 s of 86,400 s; four stream gaps</text>
<text x="48" y="601" font-family="Segoe UI,Arial,sans-serif" font-size="13" fill="#475569">Rounds 12 and 13 were invalidated before outcomes. Neither has performance metrics.</text>
</svg>
