<svg xmlns="http://www.w3.org/2000/svg" width="1320" height="720" viewBox="0 0 1320 720" role="img" aria-labelledby="title desc">
<title id="title">Noncausal executable repricing ceiling</title>
<desc id="desc">Median best future-timed after-cost basis points by asset, submission latency, and holding period. This is not a strategy return.</desc>
<rect width="1320" height="720" fill="#f8fafc"/>
<style>text{font-family:Segoe UI,Arial,sans-serif;letter-spacing:0}.title{font-size:28px;font-weight:700;fill:#111827}.sub{font-size:15px;fill:#475569}.label{font-size:13px;fill:#334155}.cell{font-size:13px;font-weight:650}.asset{font-size:19px;font-weight:700;fill:#111827}.warning{font-size:14px;font-weight:700;fill:#991b1b}</style>
<text class="title" x="44" y="48">Round 8: noncausal executable repricing ceiling</text>
<text class="sub" x="44" y="76">Median best future-timed after-cost bps per market/outcome | 2026-07-15T00:46:38.779Z to 2026-07-15T00:55:51.787Z</text>
<text class="warning" x="44" y="104">ORACLE MECHANISM SCREEN - NOT ROI, NOT A CAUSAL STRATEGY, NO TRAINING OR TRADING AUTHORITY</text>
<text class="asset" x="52" y="150">BTC</text>
<text class="label" x="52" y="171">local latency / hold</text>
<text class="label" x="142.0" y="181" text-anchor="middle">0.25s</text>
<text class="label" x="206.0" y="181" text-anchor="middle">0.5s</text>
<text class="label" x="270.0" y="181" text-anchor="middle">1s</text>
<text class="label" x="334.0" y="181" text-anchor="middle">2s</text>
<text class="label" x="398.0" y="181" text-anchor="middle">5s</text>
<text class="label" x="100" y="225" text-anchor="end">100ms</text>
<rect x="110" y="190" width="60" height="54" rx="4" fill="#95c6c2" stroke="#cbd5e1"/>
<text class="cell" x="140.0" y="222" text-anchor="middle" fill="#0f172a">1,579</text>
<rect x="174" y="190" width="60" height="54" rx="4" fill="#65a9a4" stroke="#cbd5e1"/>
<text class="cell" x="204.0" y="222" text-anchor="middle" fill="#ffffff">2,602</text>
<rect x="238" y="190" width="60" height="54" rx="4" fill="#68aba6" stroke="#cbd5e1"/>
<text class="cell" x="268.0" y="222" text-anchor="middle" fill="#ffffff">2,536</text>
<rect x="302" y="190" width="60" height="54" rx="4" fill="#27847d" stroke="#cbd5e1"/>
<text class="cell" x="332.0" y="222" text-anchor="middle" fill="#ffffff">3,913</text>
<rect x="366" y="190" width="60" height="54" rx="4" fill="#157972" stroke="#cbd5e1"/>
<text class="cell" x="396.0" y="222" text-anchor="middle" fill="#ffffff">4,291</text>
<text class="label" x="100" y="283" text-anchor="end">250ms</text>
<rect x="110" y="248" width="60" height="54" rx="4" fill="#65a9a4" stroke="#cbd5e1"/>
<text class="cell" x="140.0" y="280" text-anchor="middle" fill="#ffffff">2,602</text>
<rect x="174" y="248" width="60" height="54" rx="4" fill="#65a9a4" stroke="#cbd5e1"/>
<text class="cell" x="204.0" y="280" text-anchor="middle" fill="#ffffff">2,602</text>
<rect x="238" y="248" width="60" height="54" rx="4" fill="#68aba6" stroke="#cbd5e1"/>
<text class="cell" x="268.0" y="280" text-anchor="middle" fill="#ffffff">2,536</text>
<rect x="302" y="248" width="60" height="54" rx="4" fill="#499892" stroke="#cbd5e1"/>
<text class="cell" x="332.0" y="280" text-anchor="middle" fill="#ffffff">3,192</text>
<rect x="366" y="248" width="60" height="54" rx="4" fill="#157972" stroke="#cbd5e1"/>
<text class="cell" x="396.0" y="280" text-anchor="middle" fill="#ffffff">4,291</text>
<text class="label" x="100" y="341" text-anchor="end">500ms</text>
<rect x="110" y="306" width="60" height="54" rx="4" fill="#65a9a4" stroke="#cbd5e1"/>
<text class="cell" x="140.0" y="338" text-anchor="middle" fill="#ffffff">2,602</text>
<rect x="174" y="306" width="60" height="54" rx="4" fill="#68aba6" stroke="#cbd5e1"/>
<text class="cell" x="204.0" y="338" text-anchor="middle" fill="#ffffff">2,536</text>
<rect x="238" y="306" width="60" height="54" rx="4" fill="#459690" stroke="#cbd5e1"/>
<text class="cell" x="268.0" y="338" text-anchor="middle" fill="#ffffff">3,264</text>
<rect x="302" y="306" width="60" height="54" rx="4" fill="#27847d" stroke="#cbd5e1"/>
<text class="cell" x="332.0" y="338" text-anchor="middle" fill="#ffffff">3,913</text>
<rect x="366" y="306" width="60" height="54" rx="4" fill="#157972" stroke="#cbd5e1"/>
<text class="cell" x="396.0" y="338" text-anchor="middle" fill="#ffffff">4,291</text>
<text class="label" x="100" y="399" text-anchor="end">1000ms</text>
<rect x="110" y="364" width="60" height="54" rx="4" fill="#68aba6" stroke="#cbd5e1"/>
<text class="cell" x="140.0" y="396" text-anchor="middle" fill="#ffffff">2,536</text>
<rect x="174" y="364" width="60" height="54" rx="4" fill="#44958f" stroke="#cbd5e1"/>
<text class="cell" x="204.0" y="396" text-anchor="middle" fill="#ffffff">3,301</text>
<rect x="238" y="364" width="60" height="54" rx="4" fill="#27847d" stroke="#cbd5e1"/>
<text class="cell" x="268.0" y="396" text-anchor="middle" fill="#ffffff">3,913</text>
<rect x="302" y="364" width="60" height="54" rx="4" fill="#27847d" stroke="#cbd5e1"/>
<text class="cell" x="332.0" y="396" text-anchor="middle" fill="#ffffff">3,913</text>
<rect x="366" y="364" width="60" height="54" rx="4" fill="#0f766e" stroke="#cbd5e1"/>
<text class="cell" x="396.0" y="396" text-anchor="middle" fill="#ffffff">4,415</text>
<text class="asset" x="474" y="150">ETH</text>
<text class="label" x="474" y="171">local latency / hold</text>
<text class="label" x="564.0" y="181" text-anchor="middle">0.25s</text>
<text class="label" x="628.0" y="181" text-anchor="middle">0.5s</text>
<text class="label" x="692.0" y="181" text-anchor="middle">1s</text>
<text class="label" x="756.0" y="181" text-anchor="middle">2s</text>
<text class="label" x="820.0" y="181" text-anchor="middle">5s</text>
<text class="label" x="522" y="225" text-anchor="end">100ms</text>
<rect x="532" y="190" width="60" height="54" rx="4" fill="#b6d9d6" stroke="#cbd5e1"/>
<text class="cell" x="562.0" y="222" text-anchor="middle" fill="#0f172a">896</text>
<rect x="596" y="190" width="60" height="54" rx="4" fill="#acd3d1" stroke="#cbd5e1"/>
<text class="cell" x="626.0" y="222" text-anchor="middle" fill="#0f172a">1,093</text>
<rect x="660" y="190" width="60" height="54" rx="4" fill="#9ccac6" stroke="#cbd5e1"/>
<text class="cell" x="690.0" y="222" text-anchor="middle" fill="#0f172a">1,440</text>
<rect x="724" y="190" width="60" height="54" rx="4" fill="#95c5c2" stroke="#cbd5e1"/>
<text class="cell" x="754.0" y="222" text-anchor="middle" fill="#0f172a">1,585</text>
<rect x="788" y="190" width="60" height="54" rx="4" fill="#3f928c" stroke="#cbd5e1"/>
<text class="cell" x="818.0" y="222" text-anchor="middle" fill="#ffffff">3,409</text>
<text class="label" x="522" y="283" text-anchor="end">250ms</text>
<rect x="532" y="248" width="60" height="54" rx="4" fill="#acd3d1" stroke="#cbd5e1"/>
<text class="cell" x="562.0" y="280" text-anchor="middle" fill="#0f172a">1,093</text>
<rect x="596" y="248" width="60" height="54" rx="4" fill="#a2cdca" stroke="#cbd5e1"/>
<text class="cell" x="626.0" y="280" text-anchor="middle" fill="#0f172a">1,316</text>
<rect x="660" y="248" width="60" height="54" rx="4" fill="#98c8c4" stroke="#cbd5e1"/>
<text class="cell" x="690.0" y="280" text-anchor="middle" fill="#0f172a">1,511</text>
<rect x="724" y="248" width="60" height="54" rx="4" fill="#92c4c0" stroke="#cbd5e1"/>
<text class="cell" x="754.0" y="280" text-anchor="middle" fill="#0f172a">1,644</text>
<rect x="788" y="248" width="60" height="54" rx="4" fill="#3f928c" stroke="#cbd5e1"/>
<text class="cell" x="818.0" y="280" text-anchor="middle" fill="#ffffff">3,409</text>
<text class="label" x="522" y="341" text-anchor="end">500ms</text>
<rect x="532" y="306" width="60" height="54" rx="4" fill="#98c8c4" stroke="#cbd5e1"/>
<text class="cell" x="562.0" y="338" text-anchor="middle" fill="#0f172a">1,511</text>
<rect x="596" y="306" width="60" height="54" rx="4" fill="#98c8c4" stroke="#cbd5e1"/>
<text class="cell" x="626.0" y="338" text-anchor="middle" fill="#0f172a">1,511</text>
<rect x="660" y="306" width="60" height="54" rx="4" fill="#92c4c0" stroke="#cbd5e1"/>
<text class="cell" x="690.0" y="338" text-anchor="middle" fill="#0f172a">1,644</text>
<rect x="724" y="306" width="60" height="54" rx="4" fill="#8fc2be" stroke="#cbd5e1"/>
<text class="cell" x="754.0" y="338" text-anchor="middle" fill="#0f172a">1,716</text>
<rect x="788" y="306" width="60" height="54" rx="4" fill="#3f928c" stroke="#cbd5e1"/>
<text class="cell" x="818.0" y="338" text-anchor="middle" fill="#ffffff">3,409</text>
<text class="label" x="522" y="399" text-anchor="end">1000ms</text>
<rect x="532" y="364" width="60" height="54" rx="4" fill="#92c4c0" stroke="#cbd5e1"/>
<text class="cell" x="562.0" y="396" text-anchor="middle" fill="#0f172a">1,644</text>
<rect x="596" y="364" width="60" height="54" rx="4" fill="#92c4c0" stroke="#cbd5e1"/>
<text class="cell" x="626.0" y="396" text-anchor="middle" fill="#0f172a">1,644</text>
<rect x="660" y="364" width="60" height="54" rx="4" fill="#95c5c2" stroke="#cbd5e1"/>
<text class="cell" x="690.0" y="396" text-anchor="middle" fill="#0f172a">1,585</text>
<rect x="724" y="364" width="60" height="54" rx="4" fill="#60a6a0" stroke="#cbd5e1"/>
<text class="cell" x="754.0" y="396" text-anchor="middle" fill="#ffffff">2,713</text>
<rect x="788" y="364" width="60" height="54" rx="4" fill="#388e88" stroke="#cbd5e1"/>
<text class="cell" x="818.0" y="396" text-anchor="middle" fill="#ffffff">3,549</text>
<text class="asset" x="896" y="150">SOL</text>
<text class="label" x="896" y="171">local latency / hold</text>
<text class="label" x="986.0" y="181" text-anchor="middle">0.25s</text>
<text class="label" x="1050.0" y="181" text-anchor="middle">0.5s</text>
<text class="label" x="1114.0" y="181" text-anchor="middle">1s</text>
<text class="label" x="1178.0" y="181" text-anchor="middle">2s</text>
<text class="label" x="1242.0" y="181" text-anchor="middle">5s</text>
<text class="label" x="944" y="225" text-anchor="end">100ms</text>
<rect x="954" y="190" width="60" height="54" rx="4" fill="#d4ebea" stroke="#cbd5e1"/>
<text class="cell" x="984.0" y="222" text-anchor="middle" fill="#0f172a">247</text>
<rect x="1018" y="190" width="60" height="54" rx="4" fill="#cce6e4" stroke="#cbd5e1"/>
<text class="cell" x="1048.0" y="222" text-anchor="middle" fill="#0f172a">428</text>
<rect x="1082" y="190" width="60" height="54" rx="4" fill="#b4d8d5" stroke="#cbd5e1"/>
<text class="cell" x="1112.0" y="222" text-anchor="middle" fill="#0f172a">940</text>
<rect x="1146" y="190" width="60" height="54" rx="4" fill="#96c6c3" stroke="#cbd5e1"/>
<text class="cell" x="1176.0" y="222" text-anchor="middle" fill="#0f172a">1,566</text>
<rect x="1210" y="190" width="60" height="54" rx="4" fill="#6daea9" stroke="#cbd5e1"/>
<text class="cell" x="1240.0" y="222" text-anchor="middle" fill="#ffffff">2,427</text>
<text class="label" x="944" y="283" text-anchor="end">250ms</text>
<rect x="954" y="248" width="60" height="54" rx="4" fill="#c5e2e0" stroke="#cbd5e1"/>
<text class="cell" x="984.0" y="280" text-anchor="middle" fill="#0f172a">575</text>
<rect x="1018" y="248" width="60" height="54" rx="4" fill="#c5e2e0" stroke="#cbd5e1"/>
<text class="cell" x="1048.0" y="280" text-anchor="middle" fill="#0f172a">564</text>
<rect x="1082" y="248" width="60" height="54" rx="4" fill="#bddddb" stroke="#cbd5e1"/>
<text class="cell" x="1112.0" y="280" text-anchor="middle" fill="#0f172a">747</text>
<rect x="1146" y="248" width="60" height="54" rx="4" fill="#96c6c3" stroke="#cbd5e1"/>
<text class="cell" x="1176.0" y="280" text-anchor="middle" fill="#0f172a">1,566</text>
<rect x="1210" y="248" width="60" height="54" rx="4" fill="#6daea9" stroke="#cbd5e1"/>
<text class="cell" x="1240.0" y="280" text-anchor="middle" fill="#ffffff">2,427</text>
<text class="label" x="944" y="341" text-anchor="end">500ms</text>
<rect x="954" y="306" width="60" height="54" rx="4" fill="#c5e2e0" stroke="#cbd5e1"/>
<text class="cell" x="984.0" y="338" text-anchor="middle" fill="#0f172a">564</text>
<rect x="1018" y="306" width="60" height="54" rx="4" fill="#c0dfdd" stroke="#cbd5e1"/>
<text class="cell" x="1048.0" y="338" text-anchor="middle" fill="#0f172a">674</text>
<rect x="1082" y="306" width="60" height="54" rx="4" fill="#9bc9c5" stroke="#cbd5e1"/>
<text class="cell" x="1112.0" y="338" text-anchor="middle" fill="#0f172a">1,468</text>
<rect x="1146" y="306" width="60" height="54" rx="4" fill="#87bdb9" stroke="#cbd5e1"/>
<text class="cell" x="1176.0" y="338" text-anchor="middle" fill="#0f172a">1,872</text>
<rect x="1210" y="306" width="60" height="54" rx="4" fill="#6daea9" stroke="#cbd5e1"/>
<text class="cell" x="1240.0" y="338" text-anchor="middle" fill="#ffffff">2,427</text>
<text class="label" x="944" y="399" text-anchor="end">1000ms</text>
<rect x="954" y="364" width="60" height="54" rx="4" fill="#a4cecb" stroke="#cbd5e1"/>
<text class="cell" x="984.0" y="396" text-anchor="middle" fill="#0f172a">1,265</text>
<rect x="1018" y="364" width="60" height="54" rx="4" fill="#96c6c3" stroke="#cbd5e1"/>
<text class="cell" x="1048.0" y="396" text-anchor="middle" fill="#0f172a">1,566</text>
<rect x="1082" y="364" width="60" height="54" rx="4" fill="#96c6c3" stroke="#cbd5e1"/>
<text class="cell" x="1112.0" y="396" text-anchor="middle" fill="#0f172a">1,566</text>
<rect x="1146" y="364" width="60" height="54" rx="4" fill="#82bab6" stroke="#cbd5e1"/>
<text class="cell" x="1176.0" y="396" text-anchor="middle" fill="#0f172a">1,995</text>
<rect x="1210" y="364" width="60" height="54" rx="4" fill="#6daea9" stroke="#cbd5e1"/>
<text class="cell" x="1240.0" y="396" text-anchor="middle" fill="#ffffff">2,427</text>
<rect x="44" y="468" width="1232" height="1" fill="#cbd5e1"/>
<text class="asset" x="44" y="510">What this establishes</text>
<text class="sub" x="44" y="540">Displayed depth and recorded fees still permit some short-horizon round trips after two taker legs in this small capture.</text>
<text class="asset" x="44" y="584">What this does not establish</text>
<text class="sub" x="44" y="614">The best decision is chosen with future books. Twelve markets cannot satisfy the frozen 30-markets-per-asset breadth gate.</text>
<text class="sub" x="44" y="642">A causal predictor, independent holdout, mark-to-market risk, inventory funding, and live order evidence remain required.</text>
<text class="label" x="44" y="688">Color is scaled to the largest displayed median; exact unrounded values are in repricing-cells.csv.</text>
</svg>
