<svg xmlns="http://www.w3.org/2000/svg" width="1280" height="650" viewBox="0 0 1280 650">
<rect width="1280" height="650" fill="#F8FAFC"/>
<text x="48" y="55" font-family="Segoe UI,Arial,sans-serif" font-size="28" font-weight="700" fill="#0F172A">Round 11 directional calibration</text>
<text x="48" y="88" font-family="Segoe UI,Arial,sans-serif" font-size="15" fill="#475569">Condition-weighted validation log loss; lower is better | 42 independent resolved markets</text>
<line x1="110" y1="530.0" x2="1210" y2="530.0" stroke="#CBD5E1" stroke-width="1"/>
<text x="94" y="535.0" text-anchor="end" font-family="Segoe UI,Arial,sans-serif" font-size="13" fill="#475569">0.00</text>
<line x1="110" y1="454.0" x2="1210" y2="454.0" stroke="#CBD5E1" stroke-width="1"/>
<text x="94" y="459.0" text-anchor="end" font-family="Segoe UI,Arial,sans-serif" font-size="13" fill="#475569">0.08</text>
<line x1="110" y1="378.0" x2="1210" y2="378.0" stroke="#CBD5E1" stroke-width="1"/>
<text x="94" y="383.0" text-anchor="end" font-family="Segoe UI,Arial,sans-serif" font-size="13" fill="#475569">0.15</text>
<line x1="110" y1="302.0" x2="1210" y2="302.0" stroke="#CBD5E1" stroke-width="1"/>
<text x="94" y="307.0" text-anchor="end" font-family="Segoe UI,Arial,sans-serif" font-size="13" fill="#475569">0.23</text>
<line x1="110" y1="226.0" x2="1210" y2="226.0" stroke="#CBD5E1" stroke-width="1"/>
<text x="94" y="231.0" text-anchor="end" font-family="Segoe UI,Arial,sans-serif" font-size="13" fill="#475569">0.30</text>
<line x1="110" y1="150.0" x2="1210" y2="150.0" stroke="#CBD5E1" stroke-width="1"/>
<text x="94" y="155.0" text-anchor="end" font-family="Segoe UI,Arial,sans-serif" font-size="13" fill="#475569">0.38</text>
<rect x="193.5" y="276.2" width="54" height="253.8" rx="3" fill="#0F766E"/>
<text x="220.5" y="267.2" text-anchor="middle" font-family="Segoe UI,Arial,sans-serif" font-size="13" fill="#0F172A">0.251</text>
<rect x="247.5" y="217.1" width="54" height="312.9" rx="3" fill="#64748B"/>
<text x="274.5" y="208.1" text-anchor="middle" font-family="Segoe UI,Arial,sans-serif" font-size="13" fill="#0F172A">0.309</text>
<text x="247.5" y="562" text-anchor="middle" font-family="Segoe UI,Arial,sans-serif" font-size="15" font-weight="600" fill="#0F172A">Pooled</text>
<rect x="468.5" y="237.6" width="54" height="292.4" rx="3" fill="#0F766E"/>
<text x="495.5" y="228.6" text-anchor="middle" font-family="Segoe UI,Arial,sans-serif" font-size="13" fill="#0F172A">0.289</text>
<rect x="522.5" y="199.6" width="54" height="330.4" rx="3" fill="#64748B"/>
<text x="549.5" y="190.6" text-anchor="middle" font-family="Segoe UI,Arial,sans-serif" font-size="13" fill="#0F172A">0.327</text>
<text x="522.5" y="562" text-anchor="middle" font-family="Segoe UI,Arial,sans-serif" font-size="15" font-weight="600" fill="#0F172A">BTC</text>
<rect x="743.5" y="309.0" width="54" height="221.0" rx="3" fill="#0F766E"/>
<text x="770.5" y="300.0" text-anchor="middle" font-family="Segoe UI,Arial,sans-serif" font-size="13" fill="#0F172A">0.218</text>
<rect x="797.5" y="240.5" width="54" height="289.5" rx="3" fill="#64748B"/>
<text x="824.5" y="231.5" text-anchor="middle" font-family="Segoe UI,Arial,sans-serif" font-size="13" fill="#0F172A">0.286</text>
<text x="797.5" y="562" text-anchor="middle" font-family="Segoe UI,Arial,sans-serif" font-size="15" font-weight="600" fill="#0F172A">ETH</text>
<rect x="1018.5" y="282.1" width="54" height="247.9" rx="3" fill="#0F766E"/>
<text x="1045.5" y="273.1" text-anchor="middle" font-family="Segoe UI,Arial,sans-serif" font-size="13" fill="#0F172A">0.245</text>
<rect x="1072.5" y="211.3" width="54" height="318.7" rx="3" fill="#64748B"/>
<text x="1099.5" y="202.3" text-anchor="middle" font-family="Segoe UI,Arial,sans-serif" font-size="13" fill="#0F172A">0.315</text>
<text x="1072.5" y="562" text-anchor="middle" font-family="Segoe UI,Arial,sans-serif" font-size="15" font-weight="600" fill="#0F172A">SOL</text>
<rect x="430" y="588" width="18" height="18" rx="2" fill="#0F766E"/><text x="458" y="602" font-family="Segoe UI,Arial,sans-serif" font-size="14" fill="#475569">Calibrated residual model</text>
<rect x="700" y="588" width="18" height="18" rx="2" fill="#64748B"/><text x="728" y="602" font-family="Segoe UI,Arial,sans-serif" font-size="14" fill="#475569">Raw market midpoint prior</text>
<text x="48" y="632" font-family="Segoe UI,Arial,sans-serif" font-size="13" fill="#B42318">Development only. The learned residual norm is near zero; most uplift is probability sharpening, not an established external-data edge.</text>
</svg>
