<svg xmlns="http://www.w3.org/2000/svg" width="1200" height="700" viewBox="0 0 1200 700" role="img">
<title>The bounded controller remained too selective</title>
<desc>Frozen minimums were 30/20 trades/days in Jul-Aug and 12/8 in September</desc>
<rect width="1200" height="700" fill="#0b1220"/>
<text x="64" y="58" fill="#f8fafc" font-family="Segoe UI,Arial,sans-serif" font-size="28" font-weight="700">The bounded controller remained too selective</text>
<text x="64" y="88" fill="#cbd5e1" font-family="Segoe UI,Arial,sans-serif" font-size="15">Frozen minimums were 30/20 trades/days in Jul-Aug and 12/8 in September</text>
<line x1="100" y1="575.0" x2="1150" y2="575.0" stroke="#334155" stroke-width="1"/>
<text x="86" y="580.0" text-anchor="end" fill="#cbd5e1" font-family="Segoe UI,Arial,sans-serif" font-size="13">0.00</text>
<line x1="100" y1="487.0" x2="1150" y2="487.0" stroke="#334155" stroke-width="1"/>
<text x="86" y="492.0" text-anchor="end" fill="#cbd5e1" font-family="Segoe UI,Arial,sans-serif" font-size="13">6.40</text>
<line x1="100" y1="399.0" x2="1150" y2="399.0" stroke="#334155" stroke-width="1"/>
<text x="86" y="404.0" text-anchor="end" fill="#cbd5e1" font-family="Segoe UI,Arial,sans-serif" font-size="13">12.80</text>
<line x1="100" y1="311.0" x2="1150" y2="311.0" stroke="#334155" stroke-width="1"/>
<text x="86" y="316.0" text-anchor="end" fill="#cbd5e1" font-family="Segoe UI,Arial,sans-serif" font-size="13">19.20</text>
<line x1="100" y1="223.0" x2="1150" y2="223.0" stroke="#334155" stroke-width="1"/>
<text x="86" y="228.0" text-anchor="end" fill="#cbd5e1" font-family="Segoe UI,Arial,sans-serif" font-size="13">25.60</text>
<line x1="100" y1="135.0" x2="1150" y2="135.0" stroke="#334155" stroke-width="1"/>
<text x="86" y="140.0" text-anchor="end" fill="#cbd5e1" font-family="Segoe UI,Arial,sans-serif" font-size="13">32.00</text>
<rect x="157.8" y="203.8" width="59.5" height="371.2" rx="3" fill="#60a5fa"/>
<text x="187.5" y="195.8" text-anchor="middle" fill="#f8fafc" font-family="Segoe UI,Arial,sans-serif" font-size="12">27.000</text>
<rect x="245.2" y="368.8" width="59.5" height="206.2" rx="3" fill="#14b8a6"/>
<text x="275.0" y="360.8" text-anchor="middle" fill="#f8fafc" font-family="Segoe UI,Arial,sans-serif" font-size="12">15.000</text>
<text x="231.2" y="609" text-anchor="middle" fill="#f8fafc" font-family="Segoe UI,Arial,sans-serif" font-size="14">Baseline Jul-Aug 2024</text>
<rect x="420.2" y="478.8" width="59.5" height="96.2" rx="3" fill="#60a5fa"/>
<text x="450.0" y="470.8" text-anchor="middle" fill="#f8fafc" font-family="Segoe UI,Arial,sans-serif" font-size="12">7.000</text>
<rect x="507.8" y="506.2" width="59.5" height="68.8" rx="3" fill="#14b8a6"/>
<text x="537.5" y="498.2" text-anchor="middle" fill="#f8fafc" font-family="Segoe UI,Arial,sans-serif" font-size="12">5.000</text>
<text x="493.8" y="609" text-anchor="middle" fill="#f8fafc" font-family="Segoe UI,Arial,sans-serif" font-size="14">Baseline Sep 2024</text>
<rect x="682.8" y="382.5" width="59.5" height="192.5" rx="3" fill="#60a5fa"/>
<text x="712.5" y="374.5" text-anchor="middle" fill="#f8fafc" font-family="Segoe UI,Arial,sans-serif" font-size="12">14.000</text>
<rect x="770.2" y="478.8" width="59.5" height="96.2" rx="3" fill="#14b8a6"/>
<text x="800.0" y="470.8" text-anchor="middle" fill="#f8fafc" font-family="Segoe UI,Arial,sans-serif" font-size="12">7.000</text>
<text x="756.2" y="609" text-anchor="middle" fill="#f8fafc" font-family="Segoe UI,Arial,sans-serif" font-size="14">8B AI factors Jul-Aug 2024</text>
<rect x="945.2" y="506.2" width="59.5" height="68.8" rx="3" fill="#60a5fa"/>
<text x="975.0" y="498.2" text-anchor="middle" fill="#f8fafc" font-family="Segoe UI,Arial,sans-serif" font-size="12">5.000</text>
<rect x="1032.8" y="533.8" width="59.5" height="41.2" rx="3" fill="#14b8a6"/>
<text x="1062.5" y="525.8" text-anchor="middle" fill="#f8fafc" font-family="Segoe UI,Arial,sans-serif" font-size="12">3.000</text>
<text x="1018.8" y="609" text-anchor="middle" fill="#f8fafc" font-family="Segoe UI,Arial,sans-serif" font-size="14">8B AI factors Sep 2024</text>
<text transform="translate(24 355.0) rotate(-90)" text-anchor="middle" fill="#cbd5e1" font-family="Segoe UI,Arial,sans-serif" font-size="14">Count</text>
<rect x="100.0" y="655" width="14" height="14" rx="2" fill="#60a5fa"/>
<text x="122.0" y="667" fill="#cbd5e1" font-family="Segoe UI,Arial,sans-serif" font-size="13">Closed trades</text>
<rect x="625.0" y="655" width="14" height="14" rx="2" fill="#14b8a6"/>
<text x="647.0" y="667" fill="#cbd5e1" font-family="Segoe UI,Arial,sans-serif" font-size="13">Active days</text>
</svg>
