<svg xmlns="http://www.w3.org/2000/svg" width="1500" height="420" viewBox="0 0 1500 420" role="img" aria-labelledby="title desc">
<title id="title">The execution-cost gate stopped promotion</title>
<desc id="desc">Three neural architectures were screened. Two advanced and were compared with LightGBM. All final models passed forecast-quality gates and none passed the after-cost gate.</desc>
<rect width="100%" height="100%" fill="#ffffff"/>
<text x="56" y="54" font-family="Segoe UI, Arial, sans-serif" font-size="28" font-weight="700" fill="#17212b">The execution-cost gate stopped promotion</text>
<text x="56" y="84" font-family="Segoe UI, Arial, sans-serif" font-size="15" fill="#52606d">A positive forecast was never allowed to become trading authority without positive exact after-cost evidence.</text>
<rect x="56" y="146" width="240" height="148" rx="6" fill="#f4f7f9" stroke="#60717f" stroke-width="2"/>
<text x="176.0" y="213" text-anchor="middle" font-family="Segoe UI, Arial, sans-serif" font-size="38" font-weight="700" fill="#60717f">3</text>
<text x="176.0" y="254" text-anchor="middle" font-family="Segoe UI, Arial, sans-serif" font-size="13" fill="#263746"><tspan x="176.0" dy="0">Neural</tspan><tspan x="176.0" dy="19">architectures screened</tspan></text>
<line x1="304" y1="220" x2="333" y2="220" stroke="#7b8994" stroke-width="2"/>
<path d="M 333 214 L 342 220 L 333 226 Z" fill="#7b8994"/>
<rect x="342" y="146" width="240" height="148" rx="6" fill="#f4f7f9" stroke="#60717f" stroke-width="2"/>
<text x="462.0" y="213" text-anchor="middle" font-family="Segoe UI, Arial, sans-serif" font-size="38" font-weight="700" fill="#60717f">3</text>
<text x="462.0" y="254" text-anchor="middle" font-family="Segoe UI, Arial, sans-serif" font-size="13" fill="#263746"><tspan x="462.0" dy="0">Final models</tspan><tspan x="462.0" dy="19">with baseline</tspan></text>
<line x1="590" y1="220" x2="619" y2="220" stroke="#7b8994" stroke-width="2"/>
<path d="M 619 214 L 628 220 L 619 226 Z" fill="#7b8994"/>
<rect x="628" y="146" width="240" height="148" rx="6" fill="#f4f7f9" stroke="#60717f" stroke-width="2"/>
<text x="748.0" y="213" text-anchor="middle" font-family="Segoe UI, Arial, sans-serif" font-size="38" font-weight="700" fill="#60717f">3</text>
<text x="748.0" y="254" text-anchor="middle" font-family="Segoe UI, Arial, sans-serif" font-size="13" fill="#263746"><tspan x="748.0" dy="0">Passed</tspan><tspan x="748.0" dy="19">forecast gates</tspan></text>
<line x1="876" y1="220" x2="905" y2="220" stroke="#7b8994" stroke-width="2"/>
<path d="M 905 214 L 914 220 L 905 226 Z" fill="#7b8994"/>
<rect x="914" y="146" width="240" height="148" rx="6" fill="#fff1f0" stroke="#b42318" stroke-width="2"/>
<text x="1034.0" y="213" text-anchor="middle" font-family="Segoe UI, Arial, sans-serif" font-size="38" font-weight="700" fill="#b42318">0</text>
<text x="1034.0" y="254" text-anchor="middle" font-family="Segoe UI, Arial, sans-serif" font-size="13" fill="#263746"><tspan x="1034.0" dy="0">Passed top-500</tspan><tspan x="1034.0" dy="19">cost gate</tspan></text>
<line x1="1162" y1="220" x2="1191" y2="220" stroke="#7b8994" stroke-width="2"/>
<path d="M 1191 214 L 1200 220 L 1191 226 Z" fill="#7b8994"/>
<rect x="1200" y="146" width="240" height="148" rx="6" fill="#fff1f0" stroke="#b42318" stroke-width="2"/>
<text x="1320.0" y="213" text-anchor="middle" font-family="Segoe UI, Arial, sans-serif" font-size="38" font-weight="700" fill="#b42318">0</text>
<text x="1320.0" y="254" text-anchor="middle" font-family="Segoe UI, Arial, sans-serif" font-size="13" fill="#263746"><tspan x="1320.0" dy="0">Trading</tspan><tspan x="1320.0" dy="19">candidates</tspan></text>
<text x="56" y="366" font-family="Segoe UI, Arial, sans-serif" font-size="13" fill="#65727d">No trade, leverage, portfolio return, or profitability claim was produced.</text>
</svg>
