<svg xmlns="http://www.w3.org/2000/svg" width="1500" height="760" viewBox="0 0 1500 760" role="img" aria-labelledby="title desc">
<title id="title">Expected-net prediction failed the action-quality gate</title>
<desc id="desc">Both architectures preserved probability AUC but failed to rank or improve 15-minute net utility.</desc>
<rect width="100%" height="100%" fill="#ffffff"/>
<style>text{font-family:"Segoe UI",Arial,sans-serif;letter-spacing:0}.title{font-size:27px;font-weight:700;fill:#17212b}.subtitle{font-size:14px;fill:#52606d}.label{font-size:13px;fill:#263746}.axis{font-size:12px;fill:#60717f}.value{font-size:12px;font-weight:650;fill:#263746}.note{font-size:12px;fill:#65727d}.grid{stroke:#e1e8ed;stroke-width:1}.zero{stroke:#526674;stroke-width:2;stroke-dasharray:6 5}</style>
<text x="56" y="52" class="title">Expected-net prediction failed the action-quality gate</text>
<text x="56" y="80" class="subtitle">Both architectures preserved probability AUC but failed to rank or improve 15-minute net utility.</text>
<rect x="930" y="42" width="18" height="18" fill="#2563a6"/><text x="958" y="56" class="note">Direct mean control</text>
<rect x="1170" y="42" width="18" height="18" fill="#0f766e"/><text x="1198" y="56" class="note">Conditional gain/loss hurdle</text>
<text x="130" y="127" class="label">Expected-net Spearman (frozen minimum 0.03)</text>
<line x1="130" y1="350.0" x2="1430" y2="350.0" class="grid"/>
<text x="116" y="354.0" text-anchor="end" class="axis">-0.0052</text>
<line x1="130" y1="247.5" x2="1430" y2="247.5" class="grid"/>
<text x="116" y="251.5" text-anchor="end" class="axis">0.0147</text>
<line x1="130" y1="145.0" x2="1430" y2="145.0" class="grid"/>
<text x="116" y="149.0" text-anchor="end" class="axis">0.0346</text>
<line x1="130" y1="168.7" x2="1430" y2="168.7" class="zero"/>
<rect x="188.5" y="168.7" width="208.0" height="149.3" fill="#2563a6"/>
<text x="292.5" y="335.9" text-anchor="middle" class="value">0.0010</text>
<text x="292.5" y="372.0" text-anchor="middle" class="axis">Short / control</text>
<rect x="513.5" y="168.7" width="208.0" height="157.7" fill="#0f766e"/>
<text x="617.5" y="344.3" text-anchor="middle" class="value">-0.0006</text>
<text x="617.5" y="372.0" text-anchor="middle" class="axis">Short / hurdle</text>
<rect x="838.5" y="168.7" width="208.0" height="109.3" fill="#2563a6"/>
<text x="942.5" y="296.0" text-anchor="middle" class="value">0.0088</text>
<text x="942.5" y="372.0" text-anchor="middle" class="axis">Long / control</text>
<rect x="1163.5" y="168.7" width="208.0" height="131.2" fill="#0f766e"/>
<text x="1267.5" y="317.8" text-anchor="middle" class="value">0.0045</text>
<text x="1267.5" y="372.0" text-anchor="middle" class="axis">Long / hurdle</text>
<text x="130" y="452" class="label">Expected-net MSE skill versus training side mean</text>
<line x1="130" y1="650.0" x2="1430" y2="650.0" class="grid"/>
<text x="116" y="654.0" text-anchor="end" class="axis">-0.0043</text>
<line x1="130" y1="560.0" x2="1430" y2="560.0" class="grid"/>
<text x="116" y="564.0" text-anchor="end" class="axis">-0.0014</text>
<line x1="130" y1="470.0" x2="1430" y2="470.0" class="grid"/>
<text x="116" y="474.0" text-anchor="end" class="axis">0.0015</text>
<line x1="130" y1="516.4" x2="1430" y2="516.4" class="zero"/>
<rect x="188.5" y="516.4" width="208.0" height="23.4" fill="#2563a6"/>
<text x="292.5" y="557.8" text-anchor="middle" class="value">-0.0008</text>
<text x="292.5" y="672.0" text-anchor="middle" class="axis">Short / control</text>
<rect x="513.5" y="516.4" width="208.0" height="87.2" fill="#0f766e"/>
<text x="617.5" y="621.6" text-anchor="middle" class="value">-0.0028</text>
<text x="617.5" y="672.0" text-anchor="middle" class="axis">Short / hurdle</text>
<rect x="838.5" y="516.4" width="208.0" height="37.3" fill="#2563a6"/>
<text x="942.5" y="571.7" text-anchor="middle" class="value">-0.0012</text>
<text x="942.5" y="672.0" text-anchor="middle" class="axis">Long / control</text>
<rect x="1163.5" y="516.4" width="208.0" height="69.7" fill="#0f766e"/>
<text x="1267.5" y="604.1" text-anchor="middle" class="value">-0.0023</text>
<text x="1267.5" y="672.0" text-anchor="middle" class="axis">Long / hurdle</text>
</svg>
