<svg xmlns="http://www.w3.org/2000/svg" width="1500" height="760" viewBox="0 0 1500 760" role="img" aria-labelledby="title desc">
<title id="title">Cost-covering action probability quality</title>
<desc id="desc">Calibrated probability discrimination and log-loss skill for exact long and short profitability labels.</desc>
<rect width="100%" height="100%" fill="#ffffff"/>
<style>text{font-family:"Segoe UI",Arial,sans-serif;letter-spacing:0}.title{font-size:27px;font-weight:700;fill:#17212b}.subtitle{font-size:14px;fill:#52606d}.label{font-size:13px;fill:#263746}.axis{font-size:12px;fill:#60717f}.value{font-size:12px;font-weight:650;fill:#263746}.note{font-size:12px;fill:#65727d}.grid{stroke:#e1e8ed;stroke-width:1}.zero{stroke:#526674;stroke-width:2;stroke-dasharray:6 5}</style>
<text x="56" y="52" class="title">Cost-covering action probability quality</text>
<text x="56" y="80" class="subtitle">Calibrated probability discrimination and log-loss skill for exact long and short profitability labels.</text>
<text x="130" y="135" class="label">ROC AUC</text>
<line x1="130" y1="360.0" x2="1435" y2="360.0" class="grid"/><text x="116" y="364.0" text-anchor="end" class="axis">0.493</text>
<line x1="130" y1="340.2" x2="1435" y2="340.2" class="zero"/><text x="116" y="344.2" text-anchor="end" class="axis">0.500</text>
<line x1="130" y1="155.0" x2="1435" y2="155.0" class="grid"/><text x="116" y="159.0" text-anchor="end" class="axis">0.563</text>
<polyline points="130.0,197.0 502.9,244.8 875.7,250.1 1248.6,253.3" fill="none" stroke="#2563a6" stroke-width="3" stroke-dasharray="7 5"/>
<rect x="125.0" y="192.0" width="10" height="10" fill="#2563a6"/>
<rect x="497.9" y="239.8" width="10" height="10" fill="#2563a6"/>
<rect x="870.7" y="245.1" width="10" height="10" fill="#2563a6"/>
<rect x="1243.6" y="248.3" width="10" height="10" fill="#2563a6"/>
<polyline points="316.4,180.8 689.3,252.0 1062.1,257.3 1435.0,269.9" fill="none" stroke="#2563a6" stroke-width="3"/>
<circle cx="316.4" cy="180.8" r="5" fill="#2563a6"/>
<circle cx="689.3" cy="252.0" r="5" fill="#2563a6"/>
<circle cx="1062.1" cy="257.3" r="5" fill="#2563a6"/>
<circle cx="1435.0" cy="269.9" r="5" fill="#2563a6"/>
<polyline points="130.0,177.6 502.9,243.0 875.7,254.0 1248.6,247.1" fill="none" stroke="#0f766e" stroke-width="3" stroke-dasharray="7 5"/>
<rect x="125.0" y="172.6" width="10" height="10" fill="#0f766e"/>
<rect x="497.9" y="238.0" width="10" height="10" fill="#0f766e"/>
<rect x="870.7" y="249.0" width="10" height="10" fill="#0f766e"/>
<rect x="1243.6" y="242.1" width="10" height="10" fill="#0f766e"/>
<polyline points="316.4,174.8 689.3,243.0 1062.1,254.3 1435.0,265.2" fill="none" stroke="#0f766e" stroke-width="3"/>
<circle cx="316.4" cy="174.8" r="5" fill="#0f766e"/>
<circle cx="689.3" cy="243.0" r="5" fill="#0f766e"/>
<circle cx="1062.1" cy="254.3" r="5" fill="#0f766e"/>
<circle cx="1435.0" cy="265.2" r="5" fill="#0f766e"/>
<text x="130.0" y="388" text-anchor="middle" class="axis">1h S</text>
<text x="316.4" y="388" text-anchor="middle" class="axis">1h L</text>
<text x="502.9" y="388" text-anchor="middle" class="axis">4h S</text>
<text x="689.3" y="388" text-anchor="middle" class="axis">4h L</text>
<text x="875.7" y="388" text-anchor="middle" class="axis">12h S</text>
<text x="1062.1" y="388" text-anchor="middle" class="axis">12h L</text>
<text x="1248.6" y="388" text-anchor="middle" class="axis">24h S</text>
<text x="1435.0" y="388" text-anchor="middle" class="axis">24h L</text>
<text x="130" y="445" class="label">Log-loss skill</text>
<line x1="130" y1="670.0" x2="1435" y2="670.0" class="grid"/><text x="116" y="674.0" text-anchor="end" class="axis">-0.003</text>
<line x1="130" y1="624.5" x2="1435" y2="624.5" class="zero"/><text x="116" y="628.5" text-anchor="end" class="axis">0.000</text>
<line x1="130" y1="465.0" x2="1435" y2="465.0" class="grid"/><text x="116" y="469.0" text-anchor="end" class="axis">0.010</text>
<polyline points="130.0,580.5 502.9,609.1 875.7,631.1 1248.6,608.1" fill="none" stroke="#2563a6" stroke-width="3" stroke-dasharray="7 5"/>
<rect x="125.0" y="575.5" width="10" height="10" fill="#2563a6"/>
<rect x="497.9" y="604.1" width="10" height="10" fill="#2563a6"/>
<rect x="870.7" y="626.1" width="10" height="10" fill="#2563a6"/>
<rect x="1243.6" y="603.1" width="10" height="10" fill="#2563a6"/>
<polyline points="316.4,503.9 689.3,578.7 1062.1,579.7 1435.0,582.4" fill="none" stroke="#2563a6" stroke-width="3"/>
<circle cx="316.4" cy="503.9" r="5" fill="#2563a6"/>
<circle cx="689.3" cy="578.7" r="5" fill="#2563a6"/>
<circle cx="1062.1" cy="579.7" r="5" fill="#2563a6"/>
<circle cx="1435.0" cy="582.4" r="5" fill="#2563a6"/>
<polyline points="130.0,611.1 502.9,627.0 875.7,625.7 1248.6,603.1" fill="none" stroke="#0f766e" stroke-width="3" stroke-dasharray="7 5"/>
<rect x="125.0" y="606.1" width="10" height="10" fill="#0f766e"/>
<rect x="497.9" y="622.0" width="10" height="10" fill="#0f766e"/>
<rect x="870.7" y="620.7" width="10" height="10" fill="#0f766e"/>
<rect x="1243.6" y="598.1" width="10" height="10" fill="#0f766e"/>
<polyline points="316.4,517.6 689.3,579.8 1062.1,564.4 1435.0,566.7" fill="none" stroke="#0f766e" stroke-width="3"/>
<circle cx="316.4" cy="517.6" r="5" fill="#0f766e"/>
<circle cx="689.3" cy="579.8" r="5" fill="#0f766e"/>
<circle cx="1062.1" cy="564.4" r="5" fill="#0f766e"/>
<circle cx="1435.0" cy="566.7" r="5" fill="#0f766e"/>
<text x="130.0" y="698" text-anchor="middle" class="axis">1h S</text>
<text x="316.4" y="698" text-anchor="middle" class="axis">1h L</text>
<text x="502.9" y="698" text-anchor="middle" class="axis">4h S</text>
<text x="689.3" y="698" text-anchor="middle" class="axis">4h L</text>
<text x="875.7" y="698" text-anchor="middle" class="axis">12h S</text>
<text x="1062.1" y="698" text-anchor="middle" class="axis">12h L</text>
<text x="1248.6" y="698" text-anchor="middle" class="axis">24h S</text>
<text x="1435.0" y="698" text-anchor="middle" class="axis">24h L</text>
<line x1="900" y1="52" x2="934" y2="52" stroke="#2563a6" stroke-width="4"/><text x="944" y="57" class="note">Proper utility multitask</text>
<line x1="1170" y1="52" x2="1204" y2="52" stroke="#0f766e" stroke-width="4"/><text x="1214" y="57" class="note">Utility + pairwise rank</text>
<rect x="955" y="73" width="11" height="11" fill="#52606d"/><text x="974" y="84" class="note">short</text>
<circle cx="1045" cy="79" r="6" fill="#52606d"/><text x="1060" y="84" class="note">long</text>
<text x="56" y="730" class="note">AUC above 0.5 and log-loss skill above zero are necessary action-quality checks, not evidence of positive after-cost expectancy.</text>
</svg>
