<svg xmlns="http://www.w3.org/2000/svg" width="1500" height="760" viewBox="0 0 1500 760" role="img" aria-labelledby="title desc">
<title id="title">Cost-covering action probability quality</title>
<desc id="desc">Long uses solid markers; short uses dashed lines and square markers.</desc>
<rect width="100%" height="100%" fill="#ffffff"/>
<style>text{font-family:"Segoe UI",Arial,sans-serif;letter-spacing:0}.title{font-size:27px;font-weight:700;fill:#17212b}.subtitle{font-size:14px;fill:#52606d}.label{font-size:13px;fill:#263746}.axis{font-size:12px;fill:#60717f}.value{font-size:12px;font-weight:650;fill:#263746}.note{font-size:12px;fill:#65727d}.grid{stroke:#e1e8ed;stroke-width:1}.zero{stroke:#526674;stroke-width:2;stroke-dasharray:6 5}</style>
<text x="56" y="52" class="title">Cost-covering action probability quality</text>
<text x="56" y="80" class="subtitle">Long uses solid markers; short uses dashed lines and square markers.</text>
<line x1="900" y1="53" x2="934" y2="53" stroke="#2563a6" stroke-width="4"/><text x="944" y="58" class="note">Single logistic control</text>
<line x1="1170" y1="53" x2="1204" y2="53" stroke="#0f766e" stroke-width="4"/><text x="1214" y="58" class="note">State-conditioned mixture</text>
<text x="135" y="135" class="label">ROC AUC</text>
<line x1="135" y1="360.0" x2="1430" y2="360.0" class="grid"/><text x="121" y="364.0" text-anchor="end" class="axis">0.486</text>
<line x1="135" y1="340.2" x2="1430" y2="340.2" class="zero"/><text x="121" y="344.2" text-anchor="end" class="axis">0.500</text>
<line x1="135" y1="155.0" x2="1430" y2="155.0" class="grid"/><text x="121" y="159.0" text-anchor="end" class="axis">0.632</text>
<polyline points="135.0,175.1 566.7,217.4 998.3,246.9 1430.0,271.5" fill="none" stroke="#2563a6" stroke-width="3"/>
<circle cx="135.0" cy="175.1" r="5" fill="#2563a6"/>
<circle cx="566.7" cy="217.4" r="5" fill="#2563a6"/>
<circle cx="998.3" cy="246.9" r="5" fill="#2563a6"/>
<circle cx="1430.0" cy="271.5" r="5" fill="#2563a6"/>
<polyline points="135.0,174.8 566.7,221.9 998.3,264.1 1430.0,291.7" fill="none" stroke="#2563a6" stroke-width="3" stroke-dasharray="7 5"/>
<rect x="130.0" y="169.8" width="10" height="10" fill="#2563a6"/>
<rect x="561.7" y="216.9" width="10" height="10" fill="#2563a6"/>
<rect x="993.3" y="259.1" width="10" height="10" fill="#2563a6"/>
<rect x="1425.0" y="286.7" width="10" height="10" fill="#2563a6"/>
<polyline points="135.0,176.3 566.7,222.0 998.3,257.0 1430.0,288.0" fill="none" stroke="#0f766e" stroke-width="3"/>
<circle cx="135.0" cy="176.3" r="5" fill="#0f766e"/>
<circle cx="566.7" cy="222.0" r="5" fill="#0f766e"/>
<circle cx="998.3" cy="257.0" r="5" fill="#0f766e"/>
<circle cx="1430.0" cy="288.0" r="5" fill="#0f766e"/>
<polyline points="135.0,175.3 566.7,224.4 998.3,266.7 1430.0,291.0" fill="none" stroke="#0f766e" stroke-width="3" stroke-dasharray="7 5"/>
<rect x="130.0" y="170.3" width="10" height="10" fill="#0f766e"/>
<rect x="561.7" y="219.4" width="10" height="10" fill="#0f766e"/>
<rect x="993.3" y="261.7" width="10" height="10" fill="#0f766e"/>
<rect x="1425.0" y="286.0" width="10" height="10" fill="#0f766e"/>
<text x="135.0" y="388" text-anchor="middle" class="axis">15m</text>
<text x="566.7" y="388" text-anchor="middle" class="axis">30m</text>
<text x="998.3" y="388" text-anchor="middle" class="axis">60m</text>
<text x="1430.0" y="388" text-anchor="middle" class="axis">120m</text>
<text x="135" y="445" class="label">Log-loss skill</text>
<line x1="135" y1="670.0" x2="1430" y2="670.0" class="grid"/><text x="121" y="674.0" text-anchor="end" class="axis">-0.008</text>
<line x1="135" y1="635.0" x2="1430" y2="635.0" class="zero"/><text x="121" y="639.0" text-anchor="end" class="axis">0.000</text>
<line x1="135" y1="465.0" x2="1430" y2="465.0" class="grid"/><text x="121" y="469.0" text-anchor="end" class="axis">0.040</text>
<polyline points="135.0,487.3 566.7,547.8 998.3,584.1 1430.0,612.8" fill="none" stroke="#2563a6" stroke-width="3"/>
<circle cx="135.0" cy="487.3" r="5" fill="#2563a6"/>
<circle cx="566.7" cy="547.8" r="5" fill="#2563a6"/>
<circle cx="998.3" cy="584.1" r="5" fill="#2563a6"/>
<circle cx="1430.0" cy="612.8" r="5" fill="#2563a6"/>
<polyline points="135.0,486.7 566.7,559.1 998.3,616.8 1430.0,641.2" fill="none" stroke="#2563a6" stroke-width="3" stroke-dasharray="7 5"/>
<rect x="130.0" y="481.7" width="10" height="10" fill="#2563a6"/>
<rect x="561.7" y="554.1" width="10" height="10" fill="#2563a6"/>
<rect x="993.3" y="611.8" width="10" height="10" fill="#2563a6"/>
<rect x="1425.0" y="636.2" width="10" height="10" fill="#2563a6"/>
<polyline points="135.0,488.0 566.7,553.8 998.3,597.8 1430.0,634.3" fill="none" stroke="#0f766e" stroke-width="3"/>
<circle cx="135.0" cy="488.0" r="5" fill="#0f766e"/>
<circle cx="566.7" cy="553.8" r="5" fill="#0f766e"/>
<circle cx="998.3" cy="597.8" r="5" fill="#0f766e"/>
<circle cx="1430.0" cy="634.3" r="5" fill="#0f766e"/>
<polyline points="135.0,484.8 566.7,560.8 998.3,619.4 1430.0,650.2" fill="none" stroke="#0f766e" stroke-width="3" stroke-dasharray="7 5"/>
<rect x="130.0" y="479.8" width="10" height="10" fill="#0f766e"/>
<rect x="561.7" y="555.8" width="10" height="10" fill="#0f766e"/>
<rect x="993.3" y="614.4" width="10" height="10" fill="#0f766e"/>
<rect x="1425.0" y="645.2" width="10" height="10" fill="#0f766e"/>
<text x="135.0" y="698" text-anchor="middle" class="axis">15m</text>
<text x="566.7" y="698" text-anchor="middle" class="axis">30m</text>
<text x="998.3" y="698" text-anchor="middle" class="axis">60m</text>
<text x="1430.0" y="698" text-anchor="middle" class="axis">120m</text>
<text x="56" y="730" class="note">The 15-minute action signal discriminated direction, but the frozen expected-value rule admitted no 15-minute trades.</text>
</svg>
