<svg xmlns="http://www.w3.org/2000/svg" width="1120" height="620" viewBox="0 0 1120 620">
<rect width="100%" height="100%" fill="#f7f9fb"/>
<text x="52" y="54" font-family="Segoe UI, Arial, sans-serif" font-size="26" font-weight="700" fill="#18242f">Round 10 after-cost economics</text>
<text x="52" y="82" font-family="Segoe UI, Arial, sans-serif" font-size="14" fill="#51606d">Mean executable labels are negative; selected-trade mean is undefined because every policy abstained.</text>
<rect x="90" y="120" width="960" height="380" fill="#ffffff" stroke="#d8e0e7"/>
<line x1="90" y1="166.5" x2="1050" y2="166.5" stroke="#526674" stroke-width="2"/>
<rect x="215.0" y="166.5" width="22" height="287.6" fill="#218c8c"/>
<text x="226.0" y="471.1" text-anchor="middle" font-family="Segoe UI, Arial, sans-serif" font-size="10" fill="#263744">-12.37</text>
<rect x="263.0" y="166.5" width="22" height="287.3" fill="#d59b2d"/>
<text x="274.0" y="470.8" text-anchor="middle" font-family="Segoe UI, Arial, sans-serif" font-size="10" fill="#263744">-12.36</text>
<text x="250.0" y="528" text-anchor="middle" font-family="Segoe UI, Arial, sans-serif" font-size="12" fill="#334653">conservative-h1800</text>
<rect x="535.0" y="166.5" width="22" height="290.0" fill="#218c8c"/>
<text x="546.0" y="473.5" text-anchor="middle" font-family="Segoe UI, Arial, sans-serif" font-size="10" fill="#263744">-12.48</text>
<rect x="583.0" y="166.5" width="22" height="287.9" fill="#d59b2d"/>
<text x="594.0" y="471.3" text-anchor="middle" font-family="Segoe UI, Arial, sans-serif" font-size="10" fill="#263744">-12.39</text>
<text x="570.0" y="528" text-anchor="middle" font-family="Segoe UI, Arial, sans-serif" font-size="12" fill="#334653">regular-h1800</text>
<rect x="855.0" y="166.5" width="22" height="289.4" fill="#218c8c"/>
<text x="866.0" y="472.9" text-anchor="middle" font-family="Segoe UI, Arial, sans-serif" font-size="10" fill="#263744">-12.45</text>
<rect x="903.0" y="166.5" width="22" height="285.4" fill="#d59b2d"/>
<text x="914.0" y="468.9" text-anchor="middle" font-family="Segoe UI, Arial, sans-serif" font-size="10" fill="#263744">-12.28</text>
<text x="890.0" y="528" text-anchor="middle" font-family="Segoe UI, Arial, sans-serif" font-size="12" fill="#334653">aggressive-h1800</text>
<text x="52" y="330" transform="rotate(-90 52 330)" text-anchor="middle" font-family="Segoe UI, Arial, sans-serif" font-size="13" fill="#51606d">Basis points per trade</text>
<rect x="390" y="560" width="16" height="16" fill="#218c8c"/><text x="414" y="573" font-family="Segoe UI, Arial, sans-serif" font-size="13" fill="#334653">Long executable label</text>
<rect x="610" y="560" width="16" height="16" fill="#d59b2d"/><text x="634" y="573" font-family="Segoe UI, Arial, sans-serif" font-size="13" fill="#334653">Short executable label</text>
</svg>
