<svg xmlns="http://www.w3.org/2000/svg" width="1400" height="660" viewBox="0 0 1400 660" role="img">
<title>Every absolute-signal ranked tail remained negative</title>
<desc>Least-negative mean delayed taker outcome across signals at each frozen horizon.</desc>
<rect width="100%" height="100%" fill="#ffffff"/>
<style>text{font-family:"Segoe UI",Arial,sans-serif;letter-spacing:0}.title{font-size:24px;font-weight:700;fill:#17202a}.subtitle{font-size:14px;fill:#4b5563}.label{font-size:13px;fill:#263238}.value{font-size:13px;font-weight:650;fill:#17202a}.axis{font-size:12px;fill:#64748b}.note{font-size:12px;fill:#6b7280}.grid{stroke:#d8dee7;stroke-width:1}.zero{stroke:#9f1239;stroke-width:2}.chance{stroke:#334155;stroke-width:2;stroke-dasharray:7 5}</style>
<text x="48" y="42" class="title">Every absolute-signal ranked tail remained negative</text>
<text x="48" y="66" class="subtitle">Least-negative mean delayed taker outcome across signals at each frozen horizon.</text>
<line x1="105" y1="508.9" x2="1330" y2="508.9" class="grid"/>
<text x="91" y="513.9" text-anchor="end" class="axis">-12 bps</text>
<line x1="105" y1="417.3" x2="1330" y2="417.3" class="grid"/>
<text x="91" y="422.3" text-anchor="end" class="axis">-9 bps</text>
<line x1="105" y1="325.7" x2="1330" y2="325.7" class="grid"/>
<text x="91" y="330.7" text-anchor="end" class="axis">-6 bps</text>
<line x1="105" y1="234.1" x2="1330" y2="234.1" class="grid"/>
<text x="91" y="239.1" text-anchor="end" class="axis">-3 bps</text>
<line x1="105" y1="142.5" x2="1330" y2="142.5" class="zero"/>
<text x="91" y="147.5" text-anchor="end" class="axis">+0 bps</text>
<polyline points="105.0,472.7 309.2,448.8 513.3,453.0 717.5,449.7 921.7,403.1 1125.8,395.8 1330.0,249.5" fill="none" stroke="#b45309" stroke-width="4"/>
<circle cx="105.0" cy="472.7" r="5" fill="#b45309"/>
<circle cx="309.2" cy="448.8" r="5" fill="#b45309"/>
<circle cx="513.3" cy="453.0" r="5" fill="#b45309"/>
<circle cx="717.5" cy="449.7" r="5" fill="#b45309"/>
<circle cx="921.7" cy="403.1" r="5" fill="#b45309"/>
<circle cx="1125.8" cy="395.8" r="5" fill="#b45309"/>
<circle cx="1330.0" cy="249.5" r="5" fill="#b45309"/>
<polyline points="105.0,491.3 309.2,492.8 513.3,476.7 717.5,492.1 921.7,490.4 1125.8,475.8 1330.0,448.1" fill="none" stroke="#2563eb" stroke-width="4"/>
<circle cx="105.0" cy="491.3" r="5" fill="#2563eb"/>
<circle cx="309.2" cy="492.8" r="5" fill="#2563eb"/>
<circle cx="513.3" cy="476.7" r="5" fill="#2563eb"/>
<circle cx="717.5" cy="492.1" r="5" fill="#2563eb"/>
<circle cx="921.7" cy="490.4" r="5" fill="#2563eb"/>
<circle cx="1125.8" cy="475.8" r="5" fill="#2563eb"/>
<circle cx="1330.0" cy="448.1" r="5" fill="#2563eb"/>
<polyline points="105.0,496.8 309.2,495.4 513.3,476.9 717.5,479.4 921.7,493.4 1125.8,484.5 1330.0,468.2" fill="none" stroke="#7c3aed" stroke-width="4"/>
<circle cx="105.0" cy="496.8" r="5" fill="#7c3aed"/>
<circle cx="309.2" cy="495.4" r="5" fill="#7c3aed"/>
<circle cx="513.3" cy="476.9" r="5" fill="#7c3aed"/>
<circle cx="717.5" cy="479.4" r="5" fill="#7c3aed"/>
<circle cx="921.7" cy="493.4" r="5" fill="#7c3aed"/>
<circle cx="1125.8" cy="484.5" r="5" fill="#7c3aed"/>
<circle cx="1330.0" cy="468.2" r="5" fill="#7c3aed"/>
<text x="105.0" y="598" text-anchor="middle" class="axis">5s</text>
<text x="309.2" y="598" text-anchor="middle" class="axis">15s</text>
<text x="513.3" y="598" text-anchor="middle" class="axis">30s</text>
<text x="717.5" y="598" text-anchor="middle" class="axis">60s</text>
<text x="921.7" y="598" text-anchor="middle" class="axis">120s</text>
<text x="1125.8" y="598" text-anchor="middle" class="axis">300s</text>
<text x="1330.0" y="598" text-anchor="middle" class="axis">900s</text>
<line x1="105" y1="630" x2="133" y2="630" stroke="#b45309" stroke-width="4"/><text x="143" y="635" class="note">top 100</text>
<line x1="295" y1="630" x2="323" y2="630" stroke="#2563eb" stroke-width="4"/><text x="333" y="635" class="note">top 500</text>
<line x1="485" y1="630" x2="513" y2="630" stroke="#7c3aed" stroke-width="4"/><text x="523" y="635" class="note">top 1000</text>
<text x="1330" y="635" text-anchor="end" class="note">Event outcomes are not executable trades or portfolio returns.</text>
</svg>
