<svg xmlns="http://www.w3.org/2000/svg" width="1120" height="620" viewBox="0 0 1120 620">
<rect width="100%" height="100%" fill="#f7f9fb"/>
<text x="52" y="54" font-family="Segoe UI, Arial, sans-serif" font-size="26" font-weight="700" fill="#18242f">Round 9 after-cost economics</text>
<text x="52" y="82" font-family="Segoe UI, Arial, sans-serif" font-size="14" fill="#51606d">Mean executable labels are negative; selected-trade mean is undefined because every policy abstained.</text>
<rect x="90" y="120" width="960" height="380" fill="#ffffff" stroke="#d8e0e7"/>
<line x1="90" y1="163.9" x2="1050" y2="163.9" stroke="#526674" stroke-width="2"/>
<rect x="163.0" y="163.9" width="20" height="274.7" fill="#218c8c"/>
<text x="173.0" y="455.7" text-anchor="middle" font-family="Segoe UI, Arial, sans-serif" font-size="10" fill="#263744">-12.51</text>
<rect x="189.0" y="163.9" width="20" height="254.4" fill="#d59b2d"/>
<text x="199.0" y="435.3" text-anchor="middle" font-family="Segoe UI, Arial, sans-serif" font-size="10" fill="#263744">-11.58</text>
<text x="186.0" y="528" text-anchor="middle" font-family="Segoe UI, Arial, sans-serif" font-size="12" fill="#334653">regular-h300</text>
<rect x="355.0" y="163.9" width="20" height="275.3" fill="#218c8c"/>
<text x="365.0" y="456.2" text-anchor="middle" font-family="Segoe UI, Arial, sans-serif" font-size="10" fill="#263744">-12.53</text>
<rect x="381.0" y="163.9" width="20" height="255.2" fill="#d59b2d"/>
<text x="391.0" y="436.1" text-anchor="middle" font-family="Segoe UI, Arial, sans-serif" font-size="10" fill="#263744">-11.62</text>
<text x="378.0" y="528" text-anchor="middle" font-family="Segoe UI, Arial, sans-serif" font-size="12" fill="#334653">aggressive-h300</text>
<rect x="547.0" y="163.9" width="20" height="291.6" fill="#218c8c"/>
<text x="557.0" y="472.6" text-anchor="middle" font-family="Segoe UI, Arial, sans-serif" font-size="10" fill="#263744">-13.28</text>
<rect x="573.0" y="163.9" width="20" height="243.5" fill="#d59b2d"/>
<text x="583.0" y="424.4" text-anchor="middle" font-family="Segoe UI, Arial, sans-serif" font-size="10" fill="#263744">-11.09</text>
<text x="570.0" y="528" text-anchor="middle" font-family="Segoe UI, Arial, sans-serif" font-size="12" fill="#334653">conservative-h900</text>
<rect x="739.0" y="163.9" width="20" height="290.6" fill="#218c8c"/>
<text x="749.0" y="471.5" text-anchor="middle" font-family="Segoe UI, Arial, sans-serif" font-size="10" fill="#263744">-13.23</text>
<rect x="765.0" y="163.9" width="20" height="239.7" fill="#d59b2d"/>
<text x="775.0" y="420.6" text-anchor="middle" font-family="Segoe UI, Arial, sans-serif" font-size="10" fill="#263744">-10.91</text>
<text x="762.0" y="528" text-anchor="middle" font-family="Segoe UI, Arial, sans-serif" font-size="12" fill="#334653">regular-h900</text>
<rect x="931.0" y="163.9" width="20" height="292.2" fill="#218c8c"/>
<text x="941.0" y="473.2" text-anchor="middle" font-family="Segoe UI, Arial, sans-serif" font-size="10" fill="#263744">-13.30</text>
<rect x="957.0" y="163.9" width="20" height="236.8" fill="#d59b2d"/>
<text x="967.0" y="417.7" text-anchor="middle" font-family="Segoe UI, Arial, sans-serif" font-size="10" fill="#263744">-10.78</text>
<text x="954.0" y="528" text-anchor="middle" font-family="Segoe UI, Arial, sans-serif" font-size="12" fill="#334653">aggressive-h900</text>
<text x="52" y="330" transform="rotate(-90 52 330)" text-anchor="middle" font-family="Segoe UI, Arial, sans-serif" font-size="13" fill="#51606d">Basis points per trade</text>
<rect x="390" y="560" width="16" height="16" fill="#218c8c"/><text x="414" y="573" font-family="Segoe UI, Arial, sans-serif" font-size="13" fill="#334653">Long executable label</text>
<rect x="610" y="560" width="16" height="16" fill="#d59b2d"/><text x="634" y="573" font-family="Segoe UI, Arial, sans-serif" font-size="13" fill="#334653">Short executable label</text>
</svg>
