<svg xmlns="http://www.w3.org/2000/svg" width="1420" height="690" viewBox="0 0 1420 690" role="img" aria-labelledby="title desc">
<title id="title">Unconditional five-minute action payoffs were deeply negative</title>
<desc id="desc">Exact after-cost barrier targets over 2023-05-16 through 2023-06-14; no model prediction is involved.</desc>
<rect width="100%" height="100%" fill="#ffffff"/>
<style>text{font-family:"Segoe UI",Arial,sans-serif;letter-spacing:0}.title{font-size:28px;font-weight:700;fill:#17212b}.subtitle{font-size:14px;fill:#52606d}.label{font-size:13px;fill:#263746}.axis{font-size:12px;fill:#60717f}.value{font-size:12px;font-weight:650;fill:#263746}.note{font-size:12px;fill:#65727d}.grid{stroke:#e1e8ed;stroke-width:1}.zero{stroke:#526674;stroke-width:2;stroke-dasharray:6 5}.gate{stroke:#b42318;stroke-width:2;stroke-dasharray:5 4}</style>
<text x="56" y="52" class="title">Unconditional five-minute action payoffs were deeply negative</text>
<text x="56" y="80" class="subtitle">Exact after-cost barrier targets over 2023-05-16 through 2023-06-14; no model prediction is involved.</text>
<line x1="270.0" y1="125" x2="270.0" y2="577" class="grid"/>
<text x="270.0" y="114" text-anchor="middle" class="axis">-14 bps</text>
<line x1="535.0" y1="125" x2="535.0" y2="577" class="grid"/>
<text x="535.0" y="114" text-anchor="middle" class="axis">-10 bps</text>
<line x1="800.0" y1="125" x2="800.0" y2="577" class="grid"/>
<text x="800.0" y="114" text-anchor="middle" class="axis">-6 bps</text>
<line x1="1065.0" y1="125" x2="1065.0" y2="577" class="grid"/>
<text x="1065.0" y="114" text-anchor="middle" class="axis">-2 bps</text>
<line x1="1197.5" y1="125" x2="1197.5" y2="577" class="zero"/>
<text x="1197.5" y="114" text-anchor="middle" class="axis">+0 bps</text>
<line x1="1330.0" y1="125" x2="1330.0" y2="577" class="grid"/>
<text x="1330.0" y="114" text-anchor="middle" class="axis">+2 bps</text>
<text x="252" y="161" text-anchor="end" class="label">BTCUSDT long</text>
<rect x="387.3" y="145" width="810.2" height="25" fill="#b42318"/>
<text x="396.3" y="163" class="value" style="fill:#ffffff">-12.23</text>
<text x="1209.5" y="163" class="note">positive 7.3%</text>
<text x="252" y="233" text-anchor="end" class="label">BTCUSDT short</text>
<rect x="396.1" y="217" width="801.4" height="25" fill="#b42318"/>
<text x="405.1" y="235" class="value" style="fill:#ffffff">-12.10</text>
<text x="1209.5" y="235" class="note">positive 7.5%</text>
<text x="252" y="305" text-anchor="end" class="label">ETHUSDT long</text>
<rect x="383.8" y="289" width="813.7" height="25" fill="#b42318"/>
<text x="392.8" y="307" class="value" style="fill:#ffffff">-12.28</text>
<text x="1209.5" y="307" class="note">positive 7.0%</text>
<text x="252" y="377" text-anchor="end" class="label">ETHUSDT short</text>
<rect x="398.3" y="361" width="799.2" height="25" fill="#b42318"/>
<text x="407.3" y="379" class="value" style="fill:#ffffff">-12.06</text>
<text x="1209.5" y="379" class="note">positive 7.4%</text>
<text x="252" y="449" text-anchor="end" class="label">SOLUSDT long</text>
<rect x="296.9" y="433" width="900.6" height="25" fill="#b42318"/>
<text x="305.9" y="451" class="value" style="fill:#ffffff">-13.59</text>
<text x="1209.5" y="451" class="note">positive 22.7%</text>
<text x="252" y="521" text-anchor="end" class="label">SOLUSDT short</text>
<rect x="386.6" y="505" width="810.9" height="25" fill="#b42318"/>
<text x="395.6" y="523" class="value" style="fill:#ffffff">-12.24</text>
<text x="1209.5" y="523" class="note">positive 24.0%</text>
<text x="56" y="650" class="note">Costs include contemporaneous BBO crossing, 5 bps taker fee per side, latency, and trigger slippage under the frozen replay contract.</text>
</svg>
