<svg xmlns="http://www.w3.org/2000/svg" width="1200" height="560" viewBox="0 0 1200 560" role="img" aria-labelledby="title desc">
<title id="title">Round 18 adaptive barrier outcome composition</title>
<desc id="desc">Stacked percentages of horizon, stop, take, ambiguous stop and protection-gap stop outcomes for base and adverse-stress long and short paths from May 16 to July 6, 2023.</desc>
<rect width="100%" height="100%" fill="#ffffff"/>
<text x="48" y="48" font-family="Segoe UI, Arial, sans-serif" font-size="27" font-weight="700" fill="#17212b">Path outcomes were predominantly horizon exits</text>
<text x="48" y="78" font-family="Segoe UI, Arial, sans-serif" font-size="14" fill="#53616d">Real Binance Futures 100 ms BBO paths; each stack totals the valid event rows.</text>
<rect x="100" y="130" width="1020" height="280" fill="#ffffff" stroke="#d8e0e7"/>
<line x1="100" y1="410.0" x2="1120" y2="410.0" stroke="#e6ebef"/>
<text x="88" y="415.0" text-anchor="end" font-family="Segoe UI, Arial, sans-serif" font-size="12" fill="#60717f">0%</text>
<line x1="100" y1="340.0" x2="1120" y2="340.0" stroke="#e6ebef"/>
<text x="88" y="345.0" text-anchor="end" font-family="Segoe UI, Arial, sans-serif" font-size="12" fill="#60717f">25%</text>
<line x1="100" y1="270.0" x2="1120" y2="270.0" stroke="#e6ebef"/>
<text x="88" y="275.0" text-anchor="end" font-family="Segoe UI, Arial, sans-serif" font-size="12" fill="#60717f">50%</text>
<line x1="100" y1="200.0" x2="1120" y2="200.0" stroke="#e6ebef"/>
<text x="88" y="205.0" text-anchor="end" font-family="Segoe UI, Arial, sans-serif" font-size="12" fill="#60717f">75%</text>
<line x1="100" y1="130.0" x2="1120" y2="130.0" stroke="#e6ebef"/>
<text x="88" y="135.0" text-anchor="end" font-family="Segoe UI, Arial, sans-serif" font-size="12" fill="#60717f">100%</text>
<rect x="170.0" y="219.5" width="110" height="190.5" fill="#59788e"/>
<rect x="170.0" y="157.1" width="110" height="62.4" fill="#c64c3f"/>
<rect x="170.0" y="130.0" width="110" height="27.1" fill="#16827a"/>
<rect x="170.0" y="130.0" width="110" height="0.0" fill="#e3a229"/>
<rect x="170.0" y="130.0" width="110" height="0.0" fill="#8d5aa7"/>
<text x="225.0" y="438" text-anchor="middle" font-family="Segoe UI, Arial, sans-serif" font-size="14" font-weight="700" fill="#334653">Base long</text>
<text x="225.0" y="459" text-anchor="middle" font-family="Segoe UI, Arial, sans-serif" font-size="11" fill="#6b7882">positive 21.4%</text>
<rect x="420.0" y="219.2" width="110" height="190.8" fill="#59788e"/>
<rect x="420.0" y="158.4" width="110" height="60.7" fill="#c64c3f"/>
<rect x="420.0" y="130.0" width="110" height="28.4" fill="#16827a"/>
<rect x="420.0" y="130.0" width="110" height="0.0" fill="#e3a229"/>
<rect x="420.0" y="130.0" width="110" height="0.0" fill="#8d5aa7"/>
<text x="475.0" y="438" text-anchor="middle" font-family="Segoe UI, Arial, sans-serif" font-size="14" font-weight="700" fill="#334653">Base short</text>
<text x="475.0" y="459" text-anchor="middle" font-family="Segoe UI, Arial, sans-serif" font-size="11" fill="#6b7882">positive 21.2%</text>
<rect x="670.0" y="219.5" width="110" height="190.5" fill="#59788e"/>
<rect x="670.0" y="157.1" width="110" height="62.4" fill="#c64c3f"/>
<rect x="670.0" y="130.0" width="110" height="27.1" fill="#16827a"/>
<rect x="670.0" y="130.0" width="110" height="0.0" fill="#e3a229"/>
<rect x="670.0" y="130.0" width="110" height="0.0" fill="#8d5aa7"/>
<text x="725.0" y="438" text-anchor="middle" font-family="Segoe UI, Arial, sans-serif" font-size="14" font-weight="700" fill="#334653">Stress long</text>
<text x="725.0" y="459" text-anchor="middle" font-family="Segoe UI, Arial, sans-serif" font-size="11" fill="#6b7882">positive 21.3%</text>
<rect x="920.0" y="219.2" width="110" height="190.8" fill="#59788e"/>
<rect x="920.0" y="158.5" width="110" height="60.7" fill="#c64c3f"/>
<rect x="920.0" y="130.0" width="110" height="28.4" fill="#16827a"/>
<rect x="920.0" y="130.0" width="110" height="0.0" fill="#e3a229"/>
<rect x="920.0" y="130.0" width="110" height="0.0" fill="#8d5aa7"/>
<text x="975.0" y="438" text-anchor="middle" font-family="Segoe UI, Arial, sans-serif" font-size="14" font-weight="700" fill="#334653">Stress short</text>
<text x="975.0" y="459" text-anchor="middle" font-family="Segoe UI, Arial, sans-serif" font-size="11" fill="#6b7882">positive 21.2%</text>
<rect x="115" y="493" width="14" height="14" fill="#59788e"/>
<text x="136" y="505" font-family="Segoe UI, Arial, sans-serif" font-size="11" fill="#53616d">horizon</text>
<rect x="305" y="493" width="14" height="14" fill="#c64c3f"/>
<text x="326" y="505" font-family="Segoe UI, Arial, sans-serif" font-size="11" fill="#53616d">stop</text>
<rect x="495" y="493" width="14" height="14" fill="#16827a"/>
<text x="516" y="505" font-family="Segoe UI, Arial, sans-serif" font-size="11" fill="#53616d">take</text>
<rect x="685" y="493" width="14" height="14" fill="#e3a229"/>
<text x="706" y="505" font-family="Segoe UI, Arial, sans-serif" font-size="11" fill="#53616d">ambiguous stop</text>
<rect x="875" y="493" width="14" height="14" fill="#8d5aa7"/>
<text x="896" y="505" font-family="Segoe UI, Arial, sans-serif" font-size="11" fill="#53616d">protection gap stop</text>
</svg>
