<svg xmlns="http://www.w3.org/2000/svg" width="1480" height="800" viewBox="0 0 1480 800" role="img" aria-labelledby="title desc">
<title id="title">Rare profitable calibration tails were not diversified</title>
<desc id="desc">Top day-block intervals among cells with at least 30 trades; all cells failed frozen support and remained ineligible.</desc>
<rect width="100%" height="100%" fill="#ffffff"/>
<style>text{font-family:"Segoe UI",Arial,sans-serif;letter-spacing:0}.title{font-size:27px;font-weight:700;fill:#17212b}.subtitle{font-size:14px;fill:#52606d}.label{font-size:13px;fill:#263746}.axis{font-size:12px;fill:#60717f}.value{font-size:12px;font-weight:650;fill:#263746}.note{font-size:12px;fill:#65727d}.grid{stroke:#e1e8ed;stroke-width:1}.zero{stroke:#526674;stroke-width:2;stroke-dasharray:6 5}</style>
<text x="56" y="52" class="title">Rare profitable calibration tails were not diversified</text>
<text x="56" y="80" class="subtitle">Top day-block intervals among cells with at least 30 trades; all cells failed frozen support and remained ineligible.</text>
<line x1="551.3" y1="116" x2="551.3" y2="680" class="zero"/>
<text x="402" y="134" text-anchor="end" class="label">per symbol lightgbm / 30m / 12bps</text>
<line x1="582.1" y1="128" x2="812.3" y2="128" stroke="#94a3b8" stroke-width="7" stroke-linecap="round"/>
<circle cx="698.7" cy="128" r="6" fill="#0f766e"/>
<text x="1410" y="134" text-anchor="end" class="value">n=116; 0/0/116</text>
<text x="402" y="180" text-anchor="end" class="label">per symbol lightgbm / 120m / 18bps</text>
<line x1="578.0" y1="174" x2="835.3" y2="174" stroke="#94a3b8" stroke-width="7" stroke-linecap="round"/>
<circle cx="703.2" cy="174" r="6" fill="#0f766e"/>
<text x="1410" y="180" text-anchor="end" class="value">n=104; 0/0/104</text>
<text x="402" y="226" text-anchor="end" class="label">linear ridge / 60m / 18bps</text>
<line x1="557.2" y1="220" x2="963.1" y2="220" stroke="#94a3b8" stroke-width="7" stroke-linecap="round"/>
<circle cx="726.6" cy="220" r="6" fill="#0f766e"/>
<text x="1410" y="226" text-anchor="end" class="value">n=61; 0/27/34</text>
<text x="402" y="272" text-anchor="end" class="label">shared cross asset lightgbm / 60m / 12bps</text>
<line x1="556.2" y1="266" x2="745.4" y2="266" stroke="#94a3b8" stroke-width="7" stroke-linecap="round"/>
<circle cx="636.6" cy="266" r="6" fill="#0f766e"/>
<text x="1410" y="272" text-anchor="end" class="value">n=103; 0/4/99</text>
<text x="402" y="318" text-anchor="end" class="label">per symbol lightgbm / 120m / 15bps</text>
<line x1="552.5" y1="312" x2="755.4" y2="312" stroke="#94a3b8" stroke-width="7" stroke-linecap="round"/>
<circle cx="658.0" cy="312" r="6" fill="#0f766e"/>
<text x="1410" y="318" text-anchor="end" class="value">n=191; 0/0/191</text>
<text x="402" y="364" text-anchor="end" class="label">linear ridge / 60m / 15bps</text>
<line x1="534.6" y1="358" x2="785.3" y2="358" stroke="#94a3b8" stroke-width="7" stroke-linecap="round"/>
<circle cx="652.8" cy="358" r="6" fill="#0f766e"/>
<text x="1410" y="364" text-anchor="end" class="value">n=115; 0/45/70</text>
<text x="402" y="410" text-anchor="end" class="label">per symbol lightgbm / 60m / 15bps</text>
<line x1="513.0" y1="404" x2="872.5" y2="404" stroke="#94a3b8" stroke-width="7" stroke-linecap="round"/>
<circle cx="652.9" cy="404" r="6" fill="#0f766e"/>
<text x="1410" y="410" text-anchor="end" class="value">n=68; 0/0/68</text>
<text x="402" y="456" text-anchor="end" class="label">shared cross asset lightgbm / 120m / 12bps</text>
<line x1="509.7" y1="450" x2="763.3" y2="450" stroke="#94a3b8" stroke-width="7" stroke-linecap="round"/>
<circle cx="638.5" cy="450" r="6" fill="#0f766e"/>
<text x="1410" y="456" text-anchor="end" class="value">n=130; 1/3/126</text>
<text x="402" y="502" text-anchor="end" class="label">per symbol lightgbm / 60m / 12bps</text>
<line x1="509.2" y1="496" x2="670.6" y2="496" stroke="#94a3b8" stroke-width="7" stroke-linecap="round"/>
<circle cx="593.5" cy="496" r="6" fill="#0f766e"/>
<text x="1410" y="502" text-anchor="end" class="value">n=177; 0/0/177</text>
<text x="402" y="548" text-anchor="end" class="label">linear ridge / 120m / 24bps</text>
<line x1="509.1" y1="542" x2="919.9" y2="542" stroke="#94a3b8" stroke-width="7" stroke-linecap="round"/>
<circle cx="700.3" cy="542" r="6" fill="#0f766e"/>
<text x="1410" y="548" text-anchor="end" class="value">n=94; 0/45/49</text>
<text x="402" y="594" text-anchor="end" class="label">per symbol lightgbm / 60m / 18bps</text>
<line x1="508.8" y1="588" x2="1200.0" y2="588" stroke="#94a3b8" stroke-width="7" stroke-linecap="round"/>
<circle cx="772.9" cy="588" r="6" fill="#0f766e"/>
<text x="1410" y="594" text-anchor="end" class="value">n=34; 0/0/34</text>
<text x="402" y="640" text-anchor="end" class="label">linear ridge / 120m / 12bps</text>
<line x1="500.1" y1="634" x2="619.6" y2="634" stroke="#94a3b8" stroke-width="7" stroke-linecap="round"/>
<circle cx="560.0" cy="634" r="6" fill="#0f766e"/>
<text x="1410" y="640" text-anchor="end" class="value">n=663; 0/284/379</text>
<text x="420" y="766" class="note">Line: 95% day-block bootstrap interval; dot: median bootstrap mean net bps. Counts: total and BTC/ETH/SOL.</text>
</svg>
