<svg xmlns="http://www.w3.org/2000/svg" width="1480" height="800" viewBox="0 0 1480 800" role="img" aria-labelledby="title desc">
<title id="title">No calibration threshold had cross-symbol support</title>
<desc id="desc">Largest-support threshold per family and horizon; every row failed the frozen minimum of 15 trades per symbol.</desc>
<rect width="100%" height="100%" fill="#ffffff"/>
<style>text{font-family:"Segoe UI",Arial,sans-serif;letter-spacing:0}.title{font-size:27px;font-weight:700;fill:#17212b}.subtitle{font-size:14px;fill:#52606d}.label{font-size:13px;fill:#263746}.axis{font-size:12px;fill:#60717f}.value{font-size:12px;font-weight:650;fill:#263746}.note{font-size:12px;fill:#65727d}.grid{stroke:#e1e8ed;stroke-width:1}.zero{stroke:#526674;stroke-width:2;stroke-dasharray:6 5}</style>
<text x="56" y="52" class="title">No calibration threshold had cross-symbol support</text>
<text x="56" y="80" class="subtitle">Largest-support threshold per family and horizon; every row failed the frozen minimum of 15 trades per symbol.</text>
<text x="372" y="144" text-anchor="end" class="label">linear ridge / 15m / 12bps</text>
<rect x="390.0" y="126" width="0.0" height="26" fill="#2563eb"/>
<rect x="390.0" y="126" width="0.0" height="26" fill="#0f766e"/>
<rect x="390.0" y="126" width="1.5" height="26" fill="#b45309"/>
<text x="400.5" y="144" class="value">0/0/1</text>
<text x="372" y="192" text-anchor="end" class="label">linear ridge / 30m / 12bps</text>
<rect x="390.0" y="174" width="0.0" height="26" fill="#2563eb"/>
<rect x="390.0" y="174" width="1.5" height="26" fill="#0f766e"/>
<rect x="391.5" y="174" width="17.6" height="26" fill="#b45309"/>
<text x="418.0" y="192" class="value">0/1/12</text>
<text x="372" y="240" text-anchor="end" class="label">linear ridge / 60m / 12bps</text>
<rect x="390.0" y="222" width="0.0" height="26" fill="#2563eb"/>
<rect x="390.0" y="222" width="136.1" height="26" fill="#0f766e"/>
<rect x="526.1" y="222" width="228.2" height="26" fill="#b45309"/>
<text x="763.3" y="240" class="value">0/93/156</text>
<text x="372" y="288" text-anchor="end" class="label">linear ridge / 120m / 12bps</text>
<rect x="390.0" y="270" width="0.0" height="26" fill="#2563eb"/>
<rect x="390.0" y="270" width="415.5" height="26" fill="#0f766e"/>
<rect x="805.5" y="270" width="554.5" height="26" fill="#b45309"/>
<text x="1368.0" y="288" class="value">0/284/379</text>
<text x="372" y="336" text-anchor="end" class="label">per symbol lightgbm / 15m / 12bps</text>
<rect x="390.0" y="318" width="0.0" height="26" fill="#2563eb"/>
<rect x="390.0" y="318" width="0.0" height="26" fill="#0f766e"/>
<rect x="390.0" y="318" width="0.0" height="26" fill="#b45309"/>
<text x="399.0" y="336" class="value">0/0/0</text>
<text x="372" y="384" text-anchor="end" class="label">per symbol lightgbm / 30m / 12bps</text>
<rect x="390.0" y="366" width="0.0" height="26" fill="#2563eb"/>
<rect x="390.0" y="366" width="0.0" height="26" fill="#0f766e"/>
<rect x="390.0" y="366" width="169.7" height="26" fill="#b45309"/>
<text x="568.7" y="384" class="value">0/0/116</text>
<text x="372" y="432" text-anchor="end" class="label">per symbol lightgbm / 60m / 12bps</text>
<rect x="390.0" y="414" width="0.0" height="26" fill="#2563eb"/>
<rect x="390.0" y="414" width="0.0" height="26" fill="#0f766e"/>
<rect x="390.0" y="414" width="259.0" height="26" fill="#b45309"/>
<text x="658.0" y="432" class="value">0/0/177</text>
<text x="372" y="480" text-anchor="end" class="label">per symbol lightgbm / 120m / 12bps</text>
<rect x="390.0" y="462" width="0.0" height="26" fill="#2563eb"/>
<rect x="390.0" y="462" width="1.5" height="26" fill="#0f766e"/>
<rect x="391.5" y="462" width="526.7" height="26" fill="#b45309"/>
<text x="927.2" y="480" class="value">0/1/360</text>
<text x="372" y="528" text-anchor="end" class="label">shared cross asset lightgbm / 15m / 12bps</text>
<rect x="390.0" y="510" width="0.0" height="26" fill="#2563eb"/>
<rect x="390.0" y="510" width="0.0" height="26" fill="#0f766e"/>
<rect x="390.0" y="510" width="7.3" height="26" fill="#b45309"/>
<text x="406.3" y="528" class="value">0/0/5</text>
<text x="372" y="576" text-anchor="end" class="label">shared cross asset lightgbm / 30m / 12bps</text>
<rect x="390.0" y="558" width="0.0" height="26" fill="#2563eb"/>
<rect x="390.0" y="558" width="0.0" height="26" fill="#0f766e"/>
<rect x="390.0" y="558" width="17.6" height="26" fill="#b45309"/>
<text x="416.6" y="576" class="value">0/0/12</text>
<text x="372" y="624" text-anchor="end" class="label">shared cross asset lightgbm / 60m / 12bps</text>
<rect x="390.0" y="606" width="0.0" height="26" fill="#2563eb"/>
<rect x="390.0" y="606" width="5.9" height="26" fill="#0f766e"/>
<rect x="395.9" y="606" width="144.8" height="26" fill="#b45309"/>
<text x="549.7" y="624" class="value">0/4/99</text>
<text x="372" y="672" text-anchor="end" class="label">shared cross asset lightgbm / 120m / 12bps</text>
<rect x="390.0" y="654" width="1.5" height="26" fill="#2563eb"/>
<rect x="391.5" y="654" width="4.4" height="26" fill="#0f766e"/>
<rect x="395.9" y="654" width="184.3" height="26" fill="#b45309"/>
<text x="589.2" y="672" class="value">1/3/126</text>
<rect x="390" y="762" width="16" height="16" fill="#2563eb"/><text x="414" y="775" class="note">BTC trades</text>
<rect x="550" y="762" width="16" height="16" fill="#0f766e"/><text x="574" y="775" class="note">ETH trades</text>
<rect x="710" y="762" width="16" height="16" fill="#b45309"/><text x="734" y="775" class="note">SOL trades</text>
<text x="1360" y="775" text-anchor="end" class="note">Values are descriptive calibration counts, not selected or viability trades.</text>
</svg>
