<svg xmlns="http://www.w3.org/2000/svg" width="1450" height="850" viewBox="0 0 1450 850" role="img" aria-labelledby="title desc">
<title id="title">Profitable-action probability calibration failed</title>
<desc id="desc">Maximum ten-bin calibration error across seeds; the frozen per-model limit was 0.05.</desc>
<rect width="100%" height="100%" fill="#ffffff"/>
<style>text{font-family:"Segoe UI",Arial,sans-serif;letter-spacing:0}.title{font-size:28px;font-weight:700;fill:#17212b}.subtitle{font-size:14px;fill:#52606d}.label{font-size:13px;fill:#263746}.axis{font-size:12px;fill:#60717f}.value{font-size:12px;font-weight:650;fill:#263746}.note{font-size:12px;fill:#65727d}.grid{stroke:#e1e8ed;stroke-width:1}.zero{stroke:#526674;stroke-width:2;stroke-dasharray:6 5}.gate{stroke:#b42318;stroke-width:2;stroke-dasharray:5 4}</style>
<text x="56" y="52" class="title">Profitable-action probability calibration failed</text>
<text x="56" y="80" class="subtitle">Maximum ten-bin calibration error across seeds; the frozen per-model limit was 0.05.</text>
<line x1="390.0" y1="120" x2="390.0" y2="764" class="grid"/>
<text x="390.0" y="109" text-anchor="middle" class="axis">0.00</text>
<line x1="710.0" y1="120" x2="710.0" y2="764" class="gate"/>
<text x="710.0" y="109" text-anchor="middle" class="axis">0.05</text>
<line x1="1030.0" y1="120" x2="1030.0" y2="764" class="grid"/>
<text x="1030.0" y="109" text-anchor="middle" class="axis">0.10</text>
<line x1="1350.0" y1="120" x2="1350.0" y2="764" class="grid"/>
<text x="1350.0" y="109" text-anchor="middle" class="axis">0.15</text>
<text x="372" y="156" text-anchor="end" class="label">BTCUSDT long | Categorical</text>
<rect x="390" y="140" width="284.1" height="25" fill="#0f766e"/>
<text x="683.1" y="158" class="value">0.0444</text>
<text x="372" y="208" text-anchor="end" class="label">BTCUSDT long | FinCast</text>
<rect x="390" y="192" width="223.1" height="25" fill="#b54708"/>
<text x="622.1" y="210" class="value">0.0349</text>
<text x="372" y="260" text-anchor="end" class="label">BTCUSDT short | Categorical</text>
<rect x="390" y="244" width="584.0" height="25" fill="#0f766e"/>
<text x="983.0" y="262" class="value">0.0913</text>
<text x="372" y="312" text-anchor="end" class="label">BTCUSDT short | FinCast</text>
<rect x="390" y="296" width="568.2" height="25" fill="#b54708"/>
<text x="967.2" y="314" class="value">0.0888</text>
<text x="372" y="364" text-anchor="end" class="label">ETHUSDT long | Categorical</text>
<rect x="390" y="348" width="207.6" height="25" fill="#0f766e"/>
<text x="606.6" y="366" class="value">0.0324</text>
<text x="372" y="416" text-anchor="end" class="label">ETHUSDT long | FinCast</text>
<rect x="390" y="400" width="312.2" height="25" fill="#b54708"/>
<text x="711.2" y="418" class="value">0.0488</text>
<text x="372" y="468" text-anchor="end" class="label">ETHUSDT short | Categorical</text>
<rect x="390" y="452" width="757.0" height="25" fill="#0f766e"/>
<text x="1156.0" y="470" class="value">0.1183</text>
<text x="372" y="520" text-anchor="end" class="label">ETHUSDT short | FinCast</text>
<rect x="390" y="504" width="733.6" height="25" fill="#b54708"/>
<text x="1132.6" y="522" class="value">0.1146</text>
<text x="372" y="572" text-anchor="end" class="label">SOLUSDT long | Categorical</text>
<rect x="390" y="556" width="342.1" height="25" fill="#0f766e"/>
<text x="741.1" y="574" class="value">0.0535</text>
<text x="372" y="624" text-anchor="end" class="label">SOLUSDT long | FinCast</text>
<rect x="390" y="608" width="337.8" height="25" fill="#b54708"/>
<text x="736.8" y="626" class="value">0.0528</text>
<text x="372" y="676" text-anchor="end" class="label">SOLUSDT short | Categorical</text>
<rect x="390" y="660" width="895.1" height="25" fill="#0f766e"/>
<text x="1294.1" y="678" class="value">0.1399</text>
<text x="372" y="728" text-anchor="end" class="label">SOLUSDT short | FinCast</text>
<rect x="390" y="712" width="860.2" height="25" fill="#b54708"/>
<text x="1259.2" y="730" class="value">0.1344</text>
<text x="56" y="812" class="note">Short-side calibration exceeded the limit for every symbol and seed; FinCast did not repair it.</text>
</svg>
