<svg xmlns="http://www.w3.org/2000/svg" width="1280" height="560" viewBox="0 0 1280 560" role="img" aria-labelledby="title desc">
<title id="title">Confidence-ranked capacity was not diversified economically</title>
<desc id="desc">The outcome-blind offline sample had 60 cases per symbol, but SOL supplied most net gains.</desc>
<rect width="100%" height="100%" fill="#ffffff"/>
<style>text{font-family:"Segoe UI",Arial,sans-serif;letter-spacing:0}.title{font-size:27px;font-weight:700;fill:#17212b}.subtitle{font-size:14px;fill:#52606d}.label{font-size:13px;fill:#263746}.axis{font-size:12px;fill:#60717f}.value{font-size:12px;font-weight:650;fill:#263746}.note{font-size:12px;fill:#65727d}.grid{stroke:#e1e8ed;stroke-width:1}.zero{stroke:#526674;stroke-width:2;stroke-dasharray:6 5}</style>
<text x="56" y="52" class="title">Confidence-ranked capacity was not diversified economically</text>
<text x="56" y="80" class="subtitle">The outcome-blind offline sample had 60 cases per symbol, but SOL supplied most net gains.</text>
<line x1="260.0" y1="120" x2="260.0" y2="379" class="grid"/>
<text x="260.0" y="403" text-anchor="middle" class="axis">-10</text>
<line x1="387.7" y1="120" x2="387.7" y2="379" class="grid"/>
<text x="387.7" y="403" text-anchor="middle" class="axis">+0</text>
<line x1="515.4" y1="120" x2="515.4" y2="379" class="grid"/>
<text x="515.4" y="403" text-anchor="middle" class="axis">+10</text>
<line x1="643.1" y1="120" x2="643.1" y2="379" class="grid"/>
<text x="643.1" y="403" text-anchor="middle" class="axis">+20</text>
<line x1="770.8" y1="120" x2="770.8" y2="379" class="grid"/>
<text x="770.8" y="403" text-anchor="middle" class="axis">+30</text>
<line x1="898.5" y1="120" x2="898.5" y2="379" class="grid"/>
<text x="898.5" y="403" text-anchor="middle" class="axis">+40</text>
<line x1="1026.2" y1="120" x2="1026.2" y2="379" class="grid"/>
<text x="1026.2" y="403" text-anchor="middle" class="axis">+50</text>
<line x1="387.7" y1="120" x2="387.7" y2="379" class="zero"/>
<text x="240" y="165" text-anchor="end" class="label">BTCUSDT</text>
<rect x="387.7" y="145" width="103.1" height="32" fill="#2563eb"/>
<text x="1226" y="166" text-anchor="end" class="value">+8.07 mean; +484.3 total bps</text>
<text x="240" y="243" text-anchor="end" class="label">ETHUSDT</text>
<rect x="373.1" y="223" width="14.6" height="32" fill="#0f766e"/>
<text x="1226" y="244" text-anchor="end" class="value">-1.15 mean; -68.7 total bps</text>
<text x="240" y="321" text-anchor="end" class="label">SOLUSDT</text>
<rect x="387.7" y="301" width="626.6" height="32" fill="#b45309"/>
<text x="1226" y="322" text-anchor="end" class="value">+49.07 mean; +2944.5 total bps</text>
<text x="260" y="482" class="note">Overall: +18.67 mean bps, PF 1.582; 50,000-sample day-block lower 95% = -0.179 bps.</text>
<text x="260" y="513" class="note">Completed-month confidence ranks make this an offline AI sample, not a deployable ML policy.</text>
</svg>
