<svg xmlns="http://www.w3.org/2000/svg" width="1200" height="700" viewBox="0 0 1200 700" role="img">
<title>Relaxing consensus added trades but did not establish an edge</title>
<desc>Post-hoc consumed-data diagnostics at 16 bps round trip; none is promotable evidence</desc>
<rect width="1200" height="700" fill="#0b1220"/>
<text x="64" y="58" fill="#f8fafc" font-family="Segoe UI,Arial,sans-serif" font-size="28" font-weight="700">Relaxing consensus added trades but did not establish an edge</text>
<text x="64" y="88" fill="#cbd5e1" font-family="Segoe UI,Arial,sans-serif" font-size="15">Post-hoc consumed-data diagnostics at 16 bps round trip; none is promotable evidence</text>
<line x1="100" y1="575.0" x2="1150" y2="575.0" stroke="#334155" stroke-width="1"/>
<text x="86" y="580.0" text-anchor="end" fill="#cbd5e1" font-family="Segoe UI,Arial,sans-serif" font-size="13">-0.30</text>
<line x1="100" y1="487.0" x2="1150" y2="487.0" stroke="#334155" stroke-width="1"/>
<text x="86" y="492.0" text-anchor="end" fill="#cbd5e1" font-family="Segoe UI,Arial,sans-serif" font-size="13">-0.15</text>
<line x1="100" y1="399.0" x2="1150" y2="399.0" stroke="#334155" stroke-width="1"/>
<text x="86" y="404.0" text-anchor="end" fill="#cbd5e1" font-family="Segoe UI,Arial,sans-serif" font-size="13">0.00</text>
<line x1="100" y1="311.0" x2="1150" y2="311.0" stroke="#334155" stroke-width="1"/>
<text x="86" y="316.0" text-anchor="end" fill="#cbd5e1" font-family="Segoe UI,Arial,sans-serif" font-size="13">0.15</text>
<line x1="100" y1="223.0" x2="1150" y2="223.0" stroke="#334155" stroke-width="1"/>
<text x="86" y="228.0" text-anchor="end" fill="#cbd5e1" font-family="Segoe UI,Arial,sans-serif" font-size="13">0.30</text>
<line x1="100" y1="135.0" x2="1150" y2="135.0" stroke="#334155" stroke-width="1"/>
<text x="86" y="140.0" text-anchor="end" fill="#cbd5e1" font-family="Segoe UI,Arial,sans-serif" font-size="13">0.45</text>
<line x1="100" y1="399.0" x2="1150" y2="399.0" stroke="#94a3b8" stroke-width="2"/>
<rect x="143.3" y="255.4" width="44.6" height="143.6" rx="3" fill="#60a5fa"/>
<text x="165.6" y="247.4" text-anchor="middle" fill="#f8fafc" font-family="Segoe UI,Arial,sans-serif" font-size="12">0.245</text>
<rect x="208.9" y="399.0" width="44.6" height="31.3" rx="3" fill="#14b8a6"/>
<text x="231.2" y="448.3" text-anchor="middle" fill="#f8fafc" font-family="Segoe UI,Arial,sans-serif" font-size="12">-0.053</text>
<rect x="274.6" y="399.0" width="44.6" height="122.9" rx="3" fill="#f59e0b"/>
<text x="296.9" y="539.9" text-anchor="middle" fill="#f8fafc" font-family="Segoe UI,Arial,sans-serif" font-size="12">-0.209</text>
<text x="231.2" y="609" text-anchor="middle" fill="#f8fafc" font-family="Segoe UI,Arial,sans-serif" font-size="14">Baseline Jul-Aug 2024</text>
<rect x="405.8" y="346.2" width="44.6" height="52.8" rx="3" fill="#60a5fa"/>
<text x="428.1" y="338.2" text-anchor="middle" fill="#f8fafc" font-family="Segoe UI,Arial,sans-serif" font-size="12">0.090</text>
<rect x="471.4" y="399.0" width="44.6" height="81.1" rx="3" fill="#14b8a6"/>
<text x="493.8" y="498.1" text-anchor="middle" fill="#f8fafc" font-family="Segoe UI,Arial,sans-serif" font-size="12">-0.138</text>
<rect x="537.1" y="399.0" width="44.6" height="66.5" rx="3" fill="#f59e0b"/>
<text x="559.4" y="483.5" text-anchor="middle" fill="#f8fafc" font-family="Segoe UI,Arial,sans-serif" font-size="12">-0.113</text>
<text x="493.8" y="609" text-anchor="middle" fill="#f8fafc" font-family="Segoe UI,Arial,sans-serif" font-size="14">Baseline Sep 2024</text>
<rect x="668.3" y="184.4" width="44.6" height="214.6" rx="3" fill="#60a5fa"/>
<text x="690.6" y="176.4" text-anchor="middle" fill="#f8fafc" font-family="Segoe UI,Arial,sans-serif" font-size="12">0.366</text>
<rect x="733.9" y="399.0" width="44.6" height="22.2" rx="3" fill="#14b8a6"/>
<text x="756.2" y="439.2" text-anchor="middle" fill="#f8fafc" font-family="Segoe UI,Arial,sans-serif" font-size="12">-0.038</text>
<rect x="799.6" y="278.4" width="44.6" height="120.6" rx="3" fill="#f59e0b"/>
<text x="821.9" y="270.4" text-anchor="middle" fill="#f8fafc" font-family="Segoe UI,Arial,sans-serif" font-size="12">0.206</text>
<text x="756.2" y="609" text-anchor="middle" fill="#f8fafc" font-family="Segoe UI,Arial,sans-serif" font-size="14">8B AI factors Jul-Aug 2024</text>
<rect x="930.8" y="366.2" width="44.6" height="32.8" rx="3" fill="#60a5fa"/>
<text x="953.1" y="358.2" text-anchor="middle" fill="#f8fafc" font-family="Segoe UI,Arial,sans-serif" font-size="12">0.056</text>
<rect x="996.4" y="340.8" width="44.6" height="58.2" rx="3" fill="#14b8a6"/>
<text x="1018.8" y="332.8" text-anchor="middle" fill="#f8fafc" font-family="Segoe UI,Arial,sans-serif" font-size="12">0.099</text>
<rect x="1062.1" y="334.5" width="44.6" height="64.5" rx="3" fill="#f59e0b"/>
<text x="1084.4" y="326.5" text-anchor="middle" fill="#f8fafc" font-family="Segoe UI,Arial,sans-serif" font-size="12">0.110</text>
<text x="1018.8" y="609" text-anchor="middle" fill="#f8fafc" font-family="Segoe UI,Arial,sans-serif" font-size="14">8B AI factors Sep 2024</text>
<text transform="translate(24 355.0) rotate(-90)" text-anchor="middle" fill="#cbd5e1" font-family="Segoe UI,Arial,sans-serif" font-size="14">Fixed initial-capital return (%)</text>
<rect x="100.0" y="655" width="14" height="14" rx="2" fill="#60a5fa"/>
<text x="122.0" y="667" fill="#cbd5e1" font-family="Segoe UI,Arial,sans-serif" font-size="13">All 3 views</text>
<rect x="450.0" y="655" width="14" height="14" rx="2" fill="#14b8a6"/>
<text x="472.0" y="667" fill="#cbd5e1" font-family="Segoe UI,Arial,sans-serif" font-size="13">2 of 3 views</text>
<rect x="800.0" y="655" width="14" height="14" rx="2" fill="#f59e0b"/>
<text x="822.0" y="667" fill="#cbd5e1" font-family="Segoe UI,Arial,sans-serif" font-size="13">Pooled 9 models</text>
</svg>
