<svg xmlns="http://www.w3.org/2000/svg" width="1200" height="700" viewBox="0 0 1200 700" role="img">
<title>Cross-view consensus, not market-state gates, caused sparsity</title>
<desc>Consumed July-September evidence; counts are pre-risk model votes across BTC, ETH, and SOL</desc>
<rect width="1200" height="700" fill="#0b1220"/>
<text x="64" y="58" fill="#f8fafc" font-family="Segoe UI,Arial,sans-serif" font-size="28" font-weight="700">Cross-view consensus, not market-state gates, caused sparsity</text>
<text x="64" y="88" fill="#cbd5e1" font-family="Segoe UI,Arial,sans-serif" font-size="15">Consumed July-September evidence; counts are pre-risk model votes across BTC, ETH, and SOL</text>
<line x1="100" y1="575.0" x2="1150" y2="575.0" stroke="#334155" stroke-width="1"/>
<text x="86" y="580.0" text-anchor="end" fill="#cbd5e1" font-family="Segoe UI,Arial,sans-serif" font-size="13">0</text>
<line x1="100" y1="487.0" x2="1150" y2="487.0" stroke="#334155" stroke-width="1"/>
<text x="86" y="492.0" text-anchor="end" fill="#cbd5e1" font-family="Segoe UI,Arial,sans-serif" font-size="13">44</text>
<line x1="100" y1="399.0" x2="1150" y2="399.0" stroke="#334155" stroke-width="1"/>
<text x="86" y="404.0" text-anchor="end" fill="#cbd5e1" font-family="Segoe UI,Arial,sans-serif" font-size="13">88</text>
<line x1="100" y1="311.0" x2="1150" y2="311.0" stroke="#334155" stroke-width="1"/>
<text x="86" y="316.0" text-anchor="end" fill="#cbd5e1" font-family="Segoe UI,Arial,sans-serif" font-size="13">132</text>
<line x1="100" y1="223.0" x2="1150" y2="223.0" stroke="#334155" stroke-width="1"/>
<text x="86" y="228.0" text-anchor="end" fill="#cbd5e1" font-family="Segoe UI,Arial,sans-serif" font-size="13">176</text>
<line x1="100" y1="135.0" x2="1150" y2="135.0" stroke="#334155" stroke-width="1"/>
<text x="86" y="140.0" text-anchor="end" fill="#cbd5e1" font-family="Segoe UI,Arial,sans-serif" font-size="13">220</text>
<rect x="143.3" y="173.0" width="44.6" height="402.0" rx="3" fill="#60a5fa"/>
<text x="165.6" y="165.0" text-anchor="middle" fill="#f8fafc" font-family="Segoe UI,Arial,sans-serif" font-size="12">201</text>
<rect x="208.9" y="435.0" width="44.6" height="140.0" rx="3" fill="#14b8a6"/>
<text x="231.2" y="427.0" text-anchor="middle" fill="#f8fafc" font-family="Segoe UI,Arial,sans-serif" font-size="12">70</text>
<rect x="274.6" y="513.0" width="44.6" height="62.0" rx="3" fill="#f59e0b"/>
<text x="296.9" y="505.0" text-anchor="middle" fill="#f8fafc" font-family="Segoe UI,Arial,sans-serif" font-size="12">31</text>
<text x="231.2" y="609" text-anchor="middle" fill="#f8fafc" font-family="Segoe UI,Arial,sans-serif" font-size="14">Baseline Jul-Aug 2024</text>
<rect x="405.8" y="449.0" width="44.6" height="126.0" rx="3" fill="#60a5fa"/>
<text x="428.1" y="441.0" text-anchor="middle" fill="#f8fafc" font-family="Segoe UI,Arial,sans-serif" font-size="12">63</text>
<rect x="471.4" y="533.0" width="44.6" height="42.0" rx="3" fill="#14b8a6"/>
<text x="493.8" y="525.0" text-anchor="middle" fill="#f8fafc" font-family="Segoe UI,Arial,sans-serif" font-size="12">21</text>
<rect x="537.1" y="561.0" width="44.6" height="14.0" rx="3" fill="#f59e0b"/>
<text x="559.4" y="553.0" text-anchor="middle" fill="#f8fafc" font-family="Segoe UI,Arial,sans-serif" font-size="12">7</text>
<text x="493.8" y="609" text-anchor="middle" fill="#f8fafc" font-family="Segoe UI,Arial,sans-serif" font-size="14">Baseline Sep 2024</text>
<rect x="668.3" y="313.0" width="44.6" height="262.0" rx="3" fill="#60a5fa"/>
<text x="690.6" y="305.0" text-anchor="middle" fill="#f8fafc" font-family="Segoe UI,Arial,sans-serif" font-size="12">131</text>
<rect x="733.9" y="493.0" width="44.6" height="82.0" rx="3" fill="#14b8a6"/>
<text x="756.2" y="485.0" text-anchor="middle" fill="#f8fafc" font-family="Segoe UI,Arial,sans-serif" font-size="12">41</text>
<rect x="799.6" y="543.0" width="44.6" height="32.0" rx="3" fill="#f59e0b"/>
<text x="821.9" y="535.0" text-anchor="middle" fill="#f8fafc" font-family="Segoe UI,Arial,sans-serif" font-size="12">16</text>
<text x="756.2" y="609" text-anchor="middle" fill="#f8fafc" font-family="Segoe UI,Arial,sans-serif" font-size="14">8B AI factors Jul-Aug 2024</text>
<rect x="930.8" y="483.0" width="44.6" height="92.0" rx="3" fill="#60a5fa"/>
<text x="953.1" y="475.0" text-anchor="middle" fill="#f8fafc" font-family="Segoe UI,Arial,sans-serif" font-size="12">46</text>
<rect x="996.4" y="549.0" width="44.6" height="26.0" rx="3" fill="#14b8a6"/>
<text x="1018.8" y="541.0" text-anchor="middle" fill="#f8fafc" font-family="Segoe UI,Arial,sans-serif" font-size="12">13</text>
<rect x="1062.1" y="565.0" width="44.6" height="10.0" rx="3" fill="#f59e0b"/>
<text x="1084.4" y="557.0" text-anchor="middle" fill="#f8fafc" font-family="Segoe UI,Arial,sans-serif" font-size="12">5</text>
<text x="1018.8" y="609" text-anchor="middle" fill="#f8fafc" font-family="Segoe UI,Arial,sans-serif" font-size="14">8B AI factors Sep 2024</text>
<text transform="translate(24 355.0) rotate(-90)" text-anchor="middle" fill="#cbd5e1" font-family="Segoe UI,Arial,sans-serif" font-size="14">Eligible symbol-hours</text>
<rect x="100.0" y="655" width="14" height="14" rx="2" fill="#60a5fa"/>
<text x="122.0" y="667" fill="#cbd5e1" font-family="Segoe UI,Arial,sans-serif" font-size="13">At least 1 view</text>
<rect x="450.0" y="655" width="14" height="14" rx="2" fill="#14b8a6"/>
<text x="472.0" y="667" fill="#cbd5e1" font-family="Segoe UI,Arial,sans-serif" font-size="13">At least 2 views</text>
<rect x="800.0" y="655" width="14" height="14" rx="2" fill="#f59e0b"/>
<text x="822.0" y="667" fill="#cbd5e1" font-family="Segoe UI,Arial,sans-serif" font-size="13">All 3 views</text>
</svg>
