<svg xmlns="http://www.w3.org/2000/svg" width="1200" height="700" viewBox="0 0 1200 700" role="img">
<title>Pooled AI score magnitude was not reliably calibrated</title>
<desc>Consumed-data mean realized payoff by equal-count predicted-score quintile</desc>
<rect width="1200" height="700" fill="#0b1220"/>
<text x="64" y="58" fill="#f8fafc" font-family="Segoe UI,Arial,sans-serif" font-size="28" font-weight="700">Pooled AI score magnitude was not reliably calibrated</text>
<text x="64" y="88" fill="#cbd5e1" font-family="Segoe UI,Arial,sans-serif" font-size="15">Consumed-data mean realized payoff by equal-count predicted-score quintile</text>
<line x1="100" y1="575.0" x2="1150" y2="575.0" stroke="#334155" stroke-width="1"/>
<text x="86" y="580.0" text-anchor="end" fill="#cbd5e1" font-family="Segoe UI,Arial,sans-serif" font-size="13">-240</text>
<line x1="100" y1="487.0" x2="1150" y2="487.0" stroke="#334155" stroke-width="1"/>
<text x="86" y="492.0" text-anchor="end" fill="#cbd5e1" font-family="Segoe UI,Arial,sans-serif" font-size="13">-160</text>
<line x1="100" y1="399.0" x2="1150" y2="399.0" stroke="#334155" stroke-width="1"/>
<text x="86" y="404.0" text-anchor="end" fill="#cbd5e1" font-family="Segoe UI,Arial,sans-serif" font-size="13">-80</text>
<line x1="100" y1="311.0" x2="1150" y2="311.0" stroke="#334155" stroke-width="1"/>
<text x="86" y="316.0" text-anchor="end" fill="#cbd5e1" font-family="Segoe UI,Arial,sans-serif" font-size="13">0</text>
<line x1="100" y1="223.0" x2="1150" y2="223.0" stroke="#334155" stroke-width="1"/>
<text x="86" y="228.0" text-anchor="end" fill="#cbd5e1" font-family="Segoe UI,Arial,sans-serif" font-size="13">80</text>
<line x1="100" y1="135.0" x2="1150" y2="135.0" stroke="#334155" stroke-width="1"/>
<text x="86" y="140.0" text-anchor="end" fill="#cbd5e1" font-family="Segoe UI,Arial,sans-serif" font-size="13">160</text>
<line x1="100" y1="311.0" x2="1150" y2="311.0" stroke="#94a3b8" stroke-width="2"/>
<rect x="157.8" y="311.0" width="59.5" height="39.7" rx="3" fill="#60a5fa"/>
<text x="187.5" y="368.7" text-anchor="middle" fill="#f8fafc" font-family="Segoe UI,Arial,sans-serif" font-size="12">-36.1</text>
<rect x="245.2" y="252.6" width="59.5" height="58.4" rx="3" fill="#14b8a6"/>
<text x="275.0" y="244.6" text-anchor="middle" fill="#f8fafc" font-family="Segoe UI,Arial,sans-serif" font-size="12">53.1</text>
<rect x="332.8" y="291.4" width="59.5" height="19.6" rx="3" fill="#f59e0b"/>
<text x="362.5" y="283.4" text-anchor="middle" fill="#f8fafc" font-family="Segoe UI,Arial,sans-serif" font-size="12">17.9</text>
<rect x="420.2" y="253.5" width="59.5" height="57.5" rx="3" fill="#ef4444"/>
<text x="450.0" y="245.5" text-anchor="middle" fill="#f8fafc" font-family="Segoe UI,Arial,sans-serif" font-size="12">52.2</text>
<rect x="507.8" y="196.5" width="59.5" height="114.5" rx="3" fill="#22d3ee"/>
<text x="537.5" y="188.5" text-anchor="middle" fill="#f8fafc" font-family="Segoe UI,Arial,sans-serif" font-size="12">104.1</text>
<text x="362.5" y="609" text-anchor="middle" fill="#f8fafc" font-family="Segoe UI,Arial,sans-serif" font-size="14">Jul-Aug 2024</text>
<rect x="682.8" y="233.9" width="59.5" height="77.1" rx="3" fill="#60a5fa"/>
<text x="712.5" y="225.9" text-anchor="middle" fill="#f8fafc" font-family="Segoe UI,Arial,sans-serif" font-size="12">70.1</text>
<rect x="770.2" y="261.0" width="59.5" height="50.0" rx="3" fill="#14b8a6"/>
<text x="800.0" y="253.0" text-anchor="middle" fill="#f8fafc" font-family="Segoe UI,Arial,sans-serif" font-size="12">45.5</text>
<rect x="857.8" y="299.1" width="59.5" height="11.9" rx="3" fill="#f59e0b"/>
<text x="887.5" y="291.1" text-anchor="middle" fill="#f8fafc" font-family="Segoe UI,Arial,sans-serif" font-size="12">10.8</text>
<rect x="945.2" y="311.0" width="59.5" height="182.3" rx="3" fill="#ef4444"/>
<text x="975.0" y="511.3" text-anchor="middle" fill="#f8fafc" font-family="Segoe UI,Arial,sans-serif" font-size="12">-165.7</text>
<rect x="1032.8" y="311.0" width="59.5" height="205.5" rx="3" fill="#22d3ee"/>
<text x="1062.5" y="534.5" text-anchor="middle" fill="#f8fafc" font-family="Segoe UI,Arial,sans-serif" font-size="12">-186.9</text>
<text x="887.5" y="609" text-anchor="middle" fill="#f8fafc" font-family="Segoe UI,Arial,sans-serif" font-size="14">Sep 2024</text>
<text transform="translate(24 355.0) rotate(-90)" text-anchor="middle" fill="#cbd5e1" font-family="Segoe UI,Arial,sans-serif" font-size="14">Mean realized stress payoff (bps)</text>
<rect x="100.0" y="655" width="14" height="14" rx="2" fill="#60a5fa"/>
<text x="122.0" y="667" fill="#cbd5e1" font-family="Segoe UI,Arial,sans-serif" font-size="13">Score Q1</text>
<rect x="310.0" y="655" width="14" height="14" rx="2" fill="#14b8a6"/>
<text x="332.0" y="667" fill="#cbd5e1" font-family="Segoe UI,Arial,sans-serif" font-size="13">Score Q2</text>
<rect x="520.0" y="655" width="14" height="14" rx="2" fill="#f59e0b"/>
<text x="542.0" y="667" fill="#cbd5e1" font-family="Segoe UI,Arial,sans-serif" font-size="13">Score Q3</text>
<rect x="730.0" y="655" width="14" height="14" rx="2" fill="#ef4444"/>
<text x="752.0" y="667" fill="#cbd5e1" font-family="Segoe UI,Arial,sans-serif" font-size="13">Score Q4</text>
<rect x="940.0" y="655" width="14" height="14" rx="2" fill="#22d3ee"/>
<text x="962.0" y="667" fill="#cbd5e1" font-family="Segoe UI,Arial,sans-serif" font-size="13">Score Q5</text>
</svg>
