<svg xmlns="http://www.w3.org/2000/svg" width="1400" height="650" viewBox="0 0 1400 650" role="img">
<title>Predictive direction did not cover taker costs</title>
<desc>Best descriptive gross and delayed net means at each horizon; no horizon selection is permitted.</desc>
<rect width="100%" height="100%" fill="#ffffff"/>
<style>text{font-family:"Segoe UI",Arial,sans-serif;letter-spacing:0}.title{font-size:24px;font-weight:700;fill:#17202a}.subtitle{font-size:14px;fill:#4b5563}.label{font-size:13px;fill:#263238}.value{font-size:13px;font-weight:650;fill:#17202a}.axis{font-size:12px;fill:#64748b}.note{font-size:12px;fill:#6b7280}.grid{stroke:#d8dee7;stroke-width:1}.zero{stroke:#9f1239;stroke-width:2}.chance{stroke:#334155;stroke-width:2;stroke-dasharray:7 5}</style>
<text x="48" y="42" class="title">Predictive direction did not cover taker costs</text>
<text x="48" y="66" class="subtitle">Best descriptive gross and delayed net means at each horizon; no horizon selection is permitted.</text>
<line x1="105" y1="532.0" x2="1330" y2="532.0" class="grid"/>
<text x="91" y="537.0" text-anchor="end" class="axis">-12 bps</text>
<line x1="105" y1="442.0" x2="1330" y2="442.0" class="grid"/>
<text x="91" y="447.0" text-anchor="end" class="axis">-9 bps</text>
<line x1="105" y1="352.0" x2="1330" y2="352.0" class="grid"/>
<text x="91" y="357.0" text-anchor="end" class="axis">-6 bps</text>
<line x1="105" y1="262.0" x2="1330" y2="262.0" class="grid"/>
<text x="91" y="267.0" text-anchor="end" class="axis">-3 bps</text>
<line x1="105" y1="172.0" x2="1330" y2="172.0" class="zero"/>
<text x="91" y="177.0" text-anchor="end" class="axis">+0 bps</text>
<rect x="162.5" y="167.0" width="24" height="5.0" fill="#0f766e"/>
<rect x="198.5" y="172.0" width="24" height="356.1" fill="#b91c1c"/>
<text x="192.5" y="588" text-anchor="middle" class="axis">5s</text>
<text x="174.5" y="159.0" text-anchor="middle" class="value">+0.17</text>
<text x="210.5" y="546.1" text-anchor="middle" class="value">-11.87</text>
<rect x="337.5" y="166.8" width="24" height="5.2" fill="#0f766e"/>
<rect x="373.5" y="172.0" width="24" height="355.9" fill="#b91c1c"/>
<text x="367.5" y="588" text-anchor="middle" class="axis">15s</text>
<text x="349.5" y="158.8" text-anchor="middle" class="value">+0.17</text>
<text x="385.5" y="545.9" text-anchor="middle" class="value">-11.86</text>
<rect x="512.5" y="167.3" width="24" height="4.7" fill="#0f766e"/>
<rect x="548.5" y="172.0" width="24" height="356.4" fill="#b91c1c"/>
<text x="542.5" y="588" text-anchor="middle" class="axis">30s</text>
<text x="524.5" y="159.3" text-anchor="middle" class="value">+0.16</text>
<text x="560.5" y="546.4" text-anchor="middle" class="value">-11.88</text>
<rect x="687.5" y="167.9" width="24" height="4.1" fill="#0f766e"/>
<rect x="723.5" y="172.0" width="24" height="356.9" fill="#b91c1c"/>
<text x="717.5" y="588" text-anchor="middle" class="axis">60s</text>
<text x="699.5" y="159.9" text-anchor="middle" class="value">+0.14</text>
<text x="735.5" y="546.9" text-anchor="middle" class="value">-11.90</text>
<rect x="862.5" y="168.7" width="24" height="3.3" fill="#0f766e"/>
<rect x="898.5" y="172.0" width="24" height="357.8" fill="#b91c1c"/>
<text x="892.5" y="588" text-anchor="middle" class="axis">120s</text>
<text x="874.5" y="160.7" text-anchor="middle" class="value">+0.11</text>
<text x="910.5" y="547.8" text-anchor="middle" class="value">-11.93</text>
<rect x="1037.5" y="168.1" width="24" height="3.9" fill="#0f766e"/>
<rect x="1073.5" y="172.0" width="24" height="357.2" fill="#b91c1c"/>
<text x="1067.5" y="588" text-anchor="middle" class="axis">300s</text>
<text x="1049.5" y="160.1" text-anchor="middle" class="value">+0.13</text>
<text x="1085.5" y="547.2" text-anchor="middle" class="value">-11.91</text>
<rect x="1212.5" y="158.2" width="24" height="13.8" fill="#0f766e"/>
<rect x="1248.5" y="172.0" width="24" height="347.4" fill="#b91c1c"/>
<text x="1242.5" y="588" text-anchor="middle" class="axis">900s</text>
<text x="1224.5" y="150.2" text-anchor="middle" class="value">+0.46</text>
<text x="1260.5" y="537.4" text-anchor="middle" class="value">-11.58</text>
<rect x="105" y="614" width="16" height="16" fill="#0f766e"/><text x="129" y="627" class="note">best signal-aligned gross midquote mean</text>
<rect x="455" y="614" width="16" height="16" fill="#b91c1c"/><text x="479" y="627" class="note">best delayed taker net mean</text>
<text x="1330" y="627" text-anchor="end" class="note">Fee + slippage cost was approximately 12 bps round trip.</text>
</svg>
