<svg xmlns="http://www.w3.org/2000/svg" width="1200" height="700" viewBox="0 0 1200 700" role="img">
<title>Sequential stress-net path on capacity-admitted episodes</title>
<desc>Consumed event subset only; gaps are inactive periods, not zero-return holdings; SOL has no admitted path</desc>
<rect width="1200" height="700" fill="#0b1220"/>
<text x="64" y="58" fill="#f8fafc" font-family="Segoe UI,Arial,sans-serif" font-size="28" font-weight="700">Sequential stress-net path on capacity-admitted episodes</text>
<text x="64" y="88" fill="#cbd5e1" font-family="Segoe UI,Arial,sans-serif" font-size="15">Consumed event subset only; gaps are inactive periods, not zero-return holdings; SOL has no admitted path</text>
<line x1="105" y1="580.0" x2="1145" y2="580.0" stroke="#334155"/>
<text x="91" y="585.0" text-anchor="end" fill="#cbd5e1" font-family="Segoe UI,Arial,sans-serif" font-size="13">-41.2</text>
<line x1="105" y1="491.0" x2="1145" y2="491.0" stroke="#334155"/>
<text x="91" y="496.0" text-anchor="end" fill="#cbd5e1" font-family="Segoe UI,Arial,sans-serif" font-size="13">13.3</text>
<line x1="105" y1="402.0" x2="1145" y2="402.0" stroke="#334155"/>
<text x="91" y="407.0" text-anchor="end" fill="#cbd5e1" font-family="Segoe UI,Arial,sans-serif" font-size="13">67.8</text>
<line x1="105" y1="313.0" x2="1145" y2="313.0" stroke="#334155"/>
<text x="91" y="318.0" text-anchor="end" fill="#cbd5e1" font-family="Segoe UI,Arial,sans-serif" font-size="13">122.3</text>
<line x1="105" y1="224.0" x2="1145" y2="224.0" stroke="#334155"/>
<text x="91" y="229.0" text-anchor="end" fill="#cbd5e1" font-family="Segoe UI,Arial,sans-serif" font-size="13">176.7</text>
<line x1="105" y1="135.0" x2="1145" y2="135.0" stroke="#334155"/>
<text x="91" y="140.0" text-anchor="end" fill="#cbd5e1" font-family="Segoe UI,Arial,sans-serif" font-size="13">231.2</text>
<text x="116.1" y="614" text-anchor="middle" fill="#cbd5e1" font-family="Segoe UI,Arial,sans-serif" font-size="12">2021</text>
<text x="379.7" y="614" text-anchor="middle" fill="#cbd5e1" font-family="Segoe UI,Arial,sans-serif" font-size="12">2022</text>
<text x="643.3" y="614" text-anchor="middle" fill="#cbd5e1" font-family="Segoe UI,Arial,sans-serif" font-size="12">2023</text>
<text x="906.9" y="614" text-anchor="middle" fill="#cbd5e1" font-family="Segoe UI,Arial,sans-serif" font-size="12">2024</text>
<path d="M 105.0 536.9 L 115.8 440.3 L 121.1 387.1 L 126.2 385.7 L 133.2 405.7 L 144.0 314.7 L 149.1 225.2 L 154.1 307.3 L 160.6 398.3 L 165.7 391.6 L 170.7 402.6 L 179.6 346.3 L 184.9 291.9 L 190.0 224.5 L 203.2 222.7 L 208.3 238.3 L 213.3 264.8 L 295.2 284.7 L 317.8 312.8 L 322.9 315.1 L 339.0 294.9 L 359.2 335.5 L 652.9 346.5 L 677.0 376.0 L 695.8 399.8 L 869.1 424.7 L 898.7 416.9 L 952.4 375.5 L 978.2 397.9 L 1145.0 417.5" fill="none" stroke="#14b8a6" stroke-width="3" stroke-linejoin="round"/>
<circle cx="105.0" cy="536.9" r="4" fill="#14b8a6"/>
<circle cx="115.8" cy="440.3" r="4" fill="#14b8a6"/>
<circle cx="121.1" cy="387.1" r="4" fill="#14b8a6"/>
<circle cx="126.2" cy="385.7" r="4" fill="#14b8a6"/>
<circle cx="133.2" cy="405.7" r="4" fill="#14b8a6"/>
<circle cx="144.0" cy="314.7" r="4" fill="#14b8a6"/>
<circle cx="149.1" cy="225.2" r="4" fill="#14b8a6"/>
<circle cx="154.1" cy="307.3" r="4" fill="#14b8a6"/>
<circle cx="160.6" cy="398.3" r="4" fill="#14b8a6"/>
<circle cx="165.7" cy="391.6" r="4" fill="#14b8a6"/>
<circle cx="170.7" cy="402.6" r="4" fill="#14b8a6"/>
<circle cx="179.6" cy="346.3" r="4" fill="#14b8a6"/>
<circle cx="184.9" cy="291.9" r="4" fill="#14b8a6"/>
<circle cx="190.0" cy="224.5" r="4" fill="#14b8a6"/>
<circle cx="203.2" cy="222.7" r="4" fill="#14b8a6"/>
<circle cx="208.3" cy="238.3" r="4" fill="#14b8a6"/>
<circle cx="213.3" cy="264.8" r="4" fill="#14b8a6"/>
<circle cx="295.2" cy="284.7" r="4" fill="#14b8a6"/>
<circle cx="317.8" cy="312.8" r="4" fill="#14b8a6"/>
<circle cx="322.9" cy="315.1" r="4" fill="#14b8a6"/>
<circle cx="339.0" cy="294.9" r="4" fill="#14b8a6"/>
<circle cx="359.2" cy="335.5" r="4" fill="#14b8a6"/>
<circle cx="652.9" cy="346.5" r="4" fill="#14b8a6"/>
<circle cx="677.0" cy="376.0" r="4" fill="#14b8a6"/>
<circle cx="695.8" cy="399.8" r="4" fill="#14b8a6"/>
<circle cx="869.1" cy="424.7" r="4" fill="#14b8a6"/>
<circle cx="898.7" cy="416.9" r="4" fill="#14b8a6"/>
<circle cx="952.4" cy="375.5" r="4" fill="#14b8a6"/>
<circle cx="978.2" cy="397.9" r="4" fill="#14b8a6"/>
<circle cx="1145.0" cy="417.5" r="4" fill="#14b8a6"/>
<rect x="105" y="657" width="16" height="4" fill="#14b8a6"/>
<text x="129" y="665" fill="#cbd5e1" font-family="Segoe UI,Arial,sans-serif" font-size="13">BTC</text>
<path d="M 117.5 337.8 L 122.8 308.2 L 128.1 279.3 L 149.1 178.1 L 154.1 288.0 L 159.2 317.3 L 164.2 302.7 L 190.5 260.8 L 196.2 306.2 L 202.5 293.8 L 207.8 281.9 L 212.9 316.2 L 282.9 354.5 L 291.3 302.6 L 317.6 332.2 L 345.7 366.4 L 353.4 410.2 L 869.1 444.2 L 903.8 441.9 L 1144.8 462.4" fill="none" stroke="#60a5fa" stroke-width="3" stroke-linejoin="round"/>
<circle cx="117.5" cy="337.8" r="4" fill="#60a5fa"/>
<circle cx="122.8" cy="308.2" r="4" fill="#60a5fa"/>
<circle cx="128.1" cy="279.3" r="4" fill="#60a5fa"/>
<circle cx="149.1" cy="178.1" r="4" fill="#60a5fa"/>
<circle cx="154.1" cy="288.0" r="4" fill="#60a5fa"/>
<circle cx="159.2" cy="317.3" r="4" fill="#60a5fa"/>
<circle cx="164.2" cy="302.7" r="4" fill="#60a5fa"/>
<circle cx="190.5" cy="260.8" r="4" fill="#60a5fa"/>
<circle cx="196.2" cy="306.2" r="4" fill="#60a5fa"/>
<circle cx="202.5" cy="293.8" r="4" fill="#60a5fa"/>
<circle cx="207.8" cy="281.9" r="4" fill="#60a5fa"/>
<circle cx="212.9" cy="316.2" r="4" fill="#60a5fa"/>
<circle cx="282.9" cy="354.5" r="4" fill="#60a5fa"/>
<circle cx="291.3" cy="302.6" r="4" fill="#60a5fa"/>
<circle cx="317.6" cy="332.2" r="4" fill="#60a5fa"/>
<circle cx="345.7" cy="366.4" r="4" fill="#60a5fa"/>
<circle cx="353.4" cy="410.2" r="4" fill="#60a5fa"/>
<circle cx="869.1" cy="444.2" r="4" fill="#60a5fa"/>
<circle cx="903.8" cy="441.9" r="4" fill="#60a5fa"/>
<circle cx="1144.8" cy="462.4" r="4" fill="#60a5fa"/>
<rect x="355" y="657" width="16" height="4" fill="#60a5fa"/>
<text x="379" y="665" fill="#cbd5e1" font-family="Segoe UI,Arial,sans-serif" font-size="13">ETH</text>
<text transform="translate(25 357.5) rotate(-90)" text-anchor="middle" fill="#cbd5e1" font-family="Segoe UI,Arial,sans-serif" font-size="14">Cumulative committed-capital bps</text>
</svg>
