<svg xmlns="http://www.w3.org/2000/svg" width="1500" height="700" viewBox="0 0 1500 700" role="img" aria-labelledby="title desc">
<title id="title">Dated portfolio equity</title>
<desc id="desc">One-third symbol sleeves, no leverage, no overlapping position within a symbol.</desc>
<rect width="100%" height="100%" fill="#ffffff"/>
<style>text{font-family:"Segoe UI",Arial,sans-serif;letter-spacing:0}.title{font-size:27px;font-weight:700;fill:#17212b}.subtitle{font-size:14px;fill:#52606d}.label{font-size:13px;fill:#263746}.axis{font-size:12px;fill:#60717f}.value{font-size:12px;font-weight:650;fill:#263746}.note{font-size:12px;fill:#65727d}.grid{stroke:#e1e8ed;stroke-width:1}.zero{stroke:#526674;stroke-width:2;stroke-dasharray:6 5}</style>
<text x="56" y="52" class="title">Dated portfolio equity</text>
<text x="56" y="80" class="subtitle">One-third symbol sleeves, no leverage, no overlapping position within a symbol.</text>
<line x1="900" y1="53" x2="934" y2="53" stroke="#2563a6" stroke-width="4"/><text x="944" y="58" class="note">Single logistic control</text>
<line x1="1170" y1="53" x2="1204" y2="53" stroke="#0f766e" stroke-width="4"/><text x="1214" y="58" class="note">State-conditioned mixture</text>
<line x1="145" y1="535.0" x2="1430" y2="535.0" class="grid"/><text x="131" y="539.0" text-anchor="end" class="axis">0.28</text>
<line x1="145" y1="183.0" x2="1430" y2="183.0" class="zero"/><text x="131" y="187.0" text-anchor="end" class="axis">1.00</text>
<line x1="145" y1="145.0" x2="1430" y2="145.0" class="grid"/><text x="131" y="149.0" text-anchor="end" class="axis">1.08</text>
<polyline points="145.0,185.2 152.1,193.6 159.3,201.9 166.4,203.4 173.6,203.6 180.7,215.9 187.8,214.7 195.0,212.0 202.1,212.6 209.2,211.5 216.4,213.4 223.5,212.9 230.7,189.1 237.8,199.8 244.9,214.1 252.1,212.3 259.2,218.1 266.4,227.4 273.5,215.1 280.6,221.5 287.8,237.3 294.9,232.3 302.1,236.5 309.2,240.1 316.3,250.4 323.5,246.9 330.6,250.6 337.8,251.5 344.9,255.2 352.0,258.5 359.2,261.6 366.3,259.2 373.4,278.2 380.6,298.2 387.7,291.6 394.9,281.3 402.0,280.2 409.1,280.4 416.3,276.5 423.4,274.8 430.6,275.2 437.7,274.7 444.8,272.0 452.0,267.5 459.1,269.5 466.2,270.0 473.4,270.0 480.5,262.8 487.7,252.2 494.8,252.6 501.9,255.7 509.1,252.4 516.2,256.5 523.4,256.5 530.5,258.0 537.6,250.6 544.8,248.1 551.9,241.4 559.1,269.0 566.2,273.0 573.3,321.1 580.5,324.7 587.6,318.6 594.8,321.9 601.9,320.6 609.0,319.6 616.2,319.2 623.3,330.6 630.4,341.6 637.6,328.9 644.7,313.2 651.9,306.7 659.0,321.3 666.1,317.5 673.3,314.3 680.4,311.8 687.6,311.0 694.7,324.1 701.8,310.1 709.0,308.8 716.1,308.8 723.2,308.8 730.4,317.9 737.5,322.4 744.7,320.6 751.8,320.5 758.9,323.9 766.1,328.2 773.2,328.5 780.4,325.7 787.5,337.4 794.6,347.7 801.8,347.9 808.9,347.1 816.1,344.4 823.2,360.4 830.3,377.7 837.5,367.9 844.6,380.0 851.8,374.6 858.9,373.9 866.0,384.1 873.2,375.4 880.3,368.1 887.4,367.2 894.6,370.2 901.7,371.0 908.9,370.8 916.0,372.5 923.1,373.6 930.3,377.3 937.4,393.0 944.6,387.9 951.7,387.9 958.8,388.4 966.0,388.5 973.1,385.3 980.2,381.1 987.4,380.3 994.5,377.0 1001.7,380.5 1008.8,381.6 1015.9,381.9 1023.1,381.1 1030.2,377.9 1037.4,378.2 1044.5,381.7 1051.6,397.2 1058.8,397.8 1065.9,403.3 1073.1,401.0 1080.2,398.7 1087.3,401.3 1094.5,397.5 1101.6,402.1 1108.8,403.2 1115.9,402.8 1123.0,404.9 1130.2,404.7 1137.3,407.7 1144.4,409.6 1151.6,411.7 1158.7,413.1 1165.9,415.3 1173.0,417.3 1180.1,419.2 1187.3,415.2 1194.4,415.3 1201.6,416.0 1208.7,414.2 1215.8,413.3 1223.0,411.6 1230.1,409.0 1237.2,417.0 1244.4,413.9 1251.5,416.9 1258.7,422.3 1265.8,422.1 1272.9,421.9 1280.1,426.6 1287.2,426.9 1294.4,430.6 1301.5,429.6 1308.6,437.8 1315.8,435.5 1322.9,437.8 1330.1,440.9 1337.2,440.9 1344.3,439.1 1351.5,438.9 1358.6,435.1 1365.8,445.7 1372.9,442.6 1380.0,445.2 1387.2,444.5 1394.3,441.5 1401.4,441.2 1408.6,441.6 1415.7,444.1 1422.9,444.1 1430.0,448.8" fill="none" stroke="#2563a6" stroke-width="3"/>
<polyline points="145.0,185.6 152.1,195.0 159.3,203.6 166.4,205.4 173.6,206.0 180.7,218.9 187.8,218.2 195.0,216.1 202.1,217.3 209.2,217.0 216.4,219.6 223.5,219.5 230.7,196.5 237.8,207.6 244.9,222.6 252.1,221.3 259.2,227.9 266.4,238.0 273.5,227.3 280.6,234.5 287.8,251.0 294.9,246.4 302.1,251.3 309.2,255.4 316.3,266.1 323.5,262.8 330.6,267.0 337.8,268.5 344.9,272.8 352.0,276.5 359.2,280.0 366.3,278.1 373.4,296.9 380.6,317.2 387.7,311.9 394.9,302.7 402.0,302.5 409.1,303.2 416.3,299.9 423.4,299.0 430.6,300.0 437.7,299.8 444.8,297.8 452.0,294.1 459.1,296.6 466.2,297.1 473.4,297.1 480.5,290.6 487.7,281.2 494.8,281.9 501.9,285.2 509.1,282.6 516.2,286.9 523.4,286.9 530.5,288.7 537.6,283.1 544.8,281.4 551.9,276.0 559.1,302.6 566.2,306.8 573.3,351.5 580.5,355.5 587.6,350.6 594.8,354.0 601.9,353.4 609.0,353.4 616.2,353.4 623.3,364.0 630.4,374.8 637.6,363.9 644.7,350.2 651.9,344.9 659.0,358.6 666.1,355.5 673.3,353.0 680.4,351.2 687.6,350.8 694.7,363.1 701.8,351.1 709.0,350.1 716.1,350.2 723.2,350.4 730.4,359.1 737.5,363.4 744.7,362.1 751.8,362.2 758.9,365.5 766.1,370.2 773.2,370.6 780.4,368.5 787.5,379.2 794.6,388.7 801.8,389.3 808.9,389.1 816.1,387.1 823.2,401.4 830.3,417.1 837.5,409.1 844.6,420.3 851.8,416.0 858.9,415.9 866.0,425.0 873.2,417.9 880.3,412.1 887.4,411.8 894.6,414.7 901.7,415.7 908.9,415.6 916.0,417.1 923.1,418.4 930.3,422.1 937.4,435.8 944.6,431.8 951.7,432.1 958.8,432.9 966.0,433.1 973.1,430.7 980.2,427.4 987.4,427.0 994.5,424.6 1001.7,427.8 1008.8,428.9 1015.9,429.3 1023.1,428.7 1030.2,426.1 1037.4,426.4 1044.5,429.7 1051.6,443.1 1058.8,443.8 1065.9,448.6 1073.1,446.9 1080.2,445.3 1087.3,447.8 1094.5,444.7 1101.6,448.7 1108.8,449.9 1115.9,449.9 1123.0,452.0 1130.2,452.2 1137.3,454.8 1144.4,456.7 1151.6,458.8 1158.7,460.3 1165.9,462.3 1173.0,464.2 1180.1,466.0 1187.3,463.0 1194.4,463.3 1201.6,464.2 1208.7,463.0 1215.8,462.6 1223.0,461.6 1230.1,459.9 1237.2,466.6 1244.4,464.3 1251.5,466.9 1258.7,471.6 1265.8,471.7 1272.9,471.7 1280.1,475.7 1287.2,476.0 1294.4,479.1 1301.5,478.5 1308.6,485.4 1315.8,483.7 1322.9,485.7 1330.1,488.5 1337.2,488.6 1344.3,487.2 1351.5,487.2 1358.6,484.4 1365.8,493.1 1372.9,491.0 1380.0,493.5 1387.2,493.2 1394.3,491.0 1401.4,490.9 1408.6,491.3 1415.7,493.4 1422.9,493.4 1430.0,497.3" fill="none" stroke="#2563a6" stroke-width="3" stroke-dasharray="8 6"/>
<polyline points="145.0,182.7 152.1,185.8 159.3,186.6 166.4,185.6 173.6,185.6 180.7,188.3 187.8,189.1 195.0,193.4 202.1,191.8 209.2,193.3 216.4,195.9 223.5,195.9 230.7,196.2 237.8,195.7 244.9,204.4 252.1,205.9 259.2,207.6 266.4,213.0 273.5,224.2 280.6,233.3 287.8,241.9 294.9,237.8 302.1,248.1 309.2,251.7 316.3,257.3 323.5,255.3 330.6,253.5 337.8,258.4 344.9,250.8 352.0,252.5 359.2,254.3 366.3,255.5 373.4,253.5 380.6,271.8 387.7,275.9 394.9,270.9 402.0,257.9 409.1,268.8 416.3,265.2 423.4,267.6 430.6,267.6 437.7,268.1 444.8,264.4 452.0,266.6 459.1,267.4 466.2,267.8 473.4,267.8 480.5,264.1 487.7,262.6 494.8,262.6 501.9,262.6 509.1,256.3 516.2,259.4 523.4,258.1 530.5,258.1 537.6,264.7 544.8,268.8 551.9,268.0 559.1,292.3 566.2,293.6 573.3,294.6 580.5,294.6 587.6,293.7 594.8,289.1 601.9,283.3 609.0,285.0 616.2,286.3 623.3,289.3 630.4,289.3 637.6,288.0 644.7,289.4 651.9,283.9 659.0,283.9 666.1,284.4 673.3,284.2 680.4,281.5 687.6,282.3 694.7,281.5 701.8,282.1 709.0,282.0 716.1,282.0 723.2,282.0 730.4,282.6 737.5,285.6 744.7,281.8 751.8,280.9 758.9,286.3 766.1,292.2 773.2,293.4 780.4,292.2 787.5,298.4 794.6,322.1 801.8,320.4 808.9,325.2 816.1,325.0 823.2,330.1 830.3,336.6 837.5,327.5 844.6,322.2 851.8,320.6 858.9,321.7 866.0,332.0 873.2,329.0 880.3,327.5 887.4,328.4 894.6,331.6 901.7,334.4 908.9,334.9 916.0,334.9 923.1,335.1 930.3,334.3 937.4,331.9 944.6,329.5 951.7,334.7 958.8,336.9 966.0,335.8 973.1,333.3 980.2,331.3 987.4,331.5 994.5,330.1 1001.7,330.9 1008.8,331.5 1015.9,331.6 1023.1,331.6 1030.2,331.3 1037.4,331.3 1044.5,331.3 1051.6,330.7 1058.8,335.8 1065.9,339.6 1073.1,340.7 1080.2,337.3 1087.3,332.6 1094.5,335.1 1101.6,338.2 1108.8,339.9 1115.9,340.3 1123.0,350.2 1130.2,353.0 1137.3,356.1 1144.4,353.1 1151.6,353.2 1158.7,355.8 1165.9,356.7 1173.0,356.9 1180.1,359.6 1187.3,360.3 1194.4,363.3 1201.6,360.3 1208.7,361.9 1215.8,359.7 1223.0,359.4 1230.1,358.5 1237.2,358.5 1244.4,358.6 1251.5,368.3 1258.7,369.1 1265.8,368.5 1272.9,368.2 1280.1,368.2 1287.2,368.2 1294.4,369.6 1301.5,370.0 1308.6,369.6 1315.8,367.6 1322.9,367.6 1330.1,369.8 1337.2,372.4 1344.3,372.1 1351.5,371.7 1358.6,372.3 1365.8,382.0 1372.9,386.1 1380.0,387.0 1387.2,386.9 1394.3,386.0 1401.4,386.1 1408.6,386.3 1415.7,386.4 1422.9,386.4 1430.0,386.4" fill="none" stroke="#0f766e" stroke-width="3"/>
<polyline points="145.0,182.9 152.1,186.0 159.3,187.1 166.4,186.2 173.6,186.3 180.7,189.2 187.8,190.1 195.0,194.9 202.1,193.5 209.2,195.3 216.4,198.6 223.5,198.6 230.7,199.0 237.8,198.7 244.9,207.4 252.1,209.0 259.2,211.0 266.4,217.5 273.5,229.3 280.6,238.4 287.8,247.7 294.9,244.1 302.1,254.9 309.2,258.9 316.3,265.1 323.5,263.2 330.6,261.6 337.8,266.6 344.9,259.3 352.0,261.1 359.2,263.2 366.3,264.8 373.4,263.2 380.6,281.6 387.7,286.2 394.9,281.9 402.0,269.7 409.1,280.5 416.3,277.4 423.4,279.9 430.6,279.9 437.7,280.7 444.8,277.2 452.0,279.5 459.1,280.4 466.2,281.0 473.4,281.0 480.5,277.5 487.7,276.2 494.8,276.2 501.9,276.2 509.1,270.5 516.2,273.9 523.4,272.6 530.5,272.8 537.6,279.8 544.8,284.1 551.9,283.7 559.1,307.5 566.2,308.9 573.3,310.1 580.5,310.5 587.6,309.7 594.8,305.5 601.9,300.1 609.0,302.3 616.2,303.9 623.3,307.3 630.4,307.3 637.6,306.1 644.7,307.9 651.9,302.8 659.0,302.8 666.1,303.5 673.3,303.4 680.4,301.0 687.6,301.9 694.7,301.1 701.8,302.0 709.0,301.9 716.1,301.9 723.2,301.9 730.4,302.6 737.5,305.6 744.7,302.4 751.8,301.7 758.9,307.0 766.1,313.3 773.2,314.5 780.4,313.7 787.5,319.8 794.6,342.5 801.8,341.0 808.9,345.6 816.1,345.8 823.2,350.7 830.3,357.1 837.5,348.8 844.6,344.0 851.8,343.0 858.9,344.1 866.0,354.1 873.2,351.6 880.3,350.4 887.4,351.6 894.6,354.9 901.7,357.7 908.9,358.3 916.0,358.3 923.1,358.8 930.3,358.1 937.4,356.0 944.6,353.9 951.7,359.0 958.8,361.3 966.0,360.4 973.1,358.1 980.2,356.5 987.4,356.8 994.5,355.7 1001.7,356.5 1008.8,357.2 1015.9,357.6 1023.1,357.6 1030.2,357.3 1037.4,357.3 1044.5,357.3 1051.6,356.8 1058.8,361.6 1065.9,365.3 1073.1,366.6 1080.2,363.7 1087.3,359.6 1094.5,362.0 1101.6,365.0 1108.8,366.8 1115.9,367.7 1123.0,376.8 1130.2,379.6 1137.3,382.7 1144.4,380.2 1151.6,380.4 1158.7,383.0 1165.9,384.1 1173.0,384.6 1180.1,387.2 1187.3,388.0 1194.4,390.9 1201.6,388.3 1208.7,389.9 1215.8,388.2 1223.0,388.3 1230.1,387.6 1237.2,387.6 1244.4,387.7 1251.5,396.8 1258.7,397.7 1265.8,397.3 1272.9,397.0 1280.1,397.1 1287.2,397.1 1294.4,398.4 1301.5,399.0 1308.6,398.6 1315.8,397.0 1322.9,397.0 1330.1,399.1 1337.2,401.6 1344.3,401.5 1351.5,401.2 1358.6,401.8 1365.8,410.8 1372.9,414.7 1380.0,415.7 1387.2,415.7 1394.3,414.9 1401.4,415.0 1408.6,415.3 1415.7,415.4 1422.9,415.4 1430.0,415.4" fill="none" stroke="#0f766e" stroke-width="3" stroke-dasharray="8 6"/>
<text x="145.0" y="565" text-anchor="middle" class="axis">2025-01-01</text>
<text x="787.5" y="565" text-anchor="middle" class="axis">2025-04-01</text>
<text x="1430.0" y="565" text-anchor="middle" class="axis">2025-06-30</text>
<text x="56" y="640" class="note">Solid: 12 bps roundtrip. Dashed: identical trades repriced at 16 bps roundtrip.</text>
</svg>
