<svg xmlns="http://www.w3.org/2000/svg" width="1200" height="700" viewBox="0 0 1200 700" role="img">
<title>Frozen-policy daily diagnostic</title>
<desc>Executable CSM at 0.10% coverage; roles reset to zero and no line was selected</desc>
<rect width="1200" height="700" fill="#0b1220"/>
<text x="64" y="58" fill="#f8fafc" font-family="Segoe UI,Arial,sans-serif" font-size="28" font-weight="700">Frozen-policy daily diagnostic</text>
<text x="64" y="88" fill="#cbd5e1" font-family="Segoe UI,Arial,sans-serif" font-size="15">Executable CSM at 0.10% coverage; roles reset to zero and no line was selected</text>
<line x1="105" y1="580.0" x2="1145" y2="580.0" stroke="#334155"/>
<text x="91" y="585.0" text-anchor="end" fill="#cbd5e1" font-family="Segoe UI,Arial,sans-serif" font-size="13">-14.3</text>
<line x1="105" y1="491.0" x2="1145" y2="491.0" stroke="#334155"/>
<text x="91" y="496.0" text-anchor="end" fill="#cbd5e1" font-family="Segoe UI,Arial,sans-serif" font-size="13">-3.1</text>
<line x1="105" y1="402.0" x2="1145" y2="402.0" stroke="#334155"/>
<text x="91" y="407.0" text-anchor="end" fill="#cbd5e1" font-family="Segoe UI,Arial,sans-serif" font-size="13">8.0</text>
<line x1="105" y1="313.0" x2="1145" y2="313.0" stroke="#334155"/>
<text x="91" y="318.0" text-anchor="end" fill="#cbd5e1" font-family="Segoe UI,Arial,sans-serif" font-size="13">19.1</text>
<line x1="105" y1="224.0" x2="1145" y2="224.0" stroke="#334155"/>
<text x="91" y="229.0" text-anchor="end" fill="#cbd5e1" font-family="Segoe UI,Arial,sans-serif" font-size="13">30.2</text>
<line x1="105" y1="135.0" x2="1145" y2="135.0" stroke="#334155"/>
<text x="91" y="140.0" text-anchor="end" fill="#cbd5e1" font-family="Segoe UI,Arial,sans-serif" font-size="13">41.4</text>
<text x="105.0" y="614" text-anchor="middle" fill="#cbd5e1" font-family="Segoe UI,Arial,sans-serif" font-size="12">06-07</text>
<text x="402.1" y="614" text-anchor="middle" fill="#cbd5e1" font-family="Segoe UI,Arial,sans-serif" font-size="12">06-09</text>
<text x="699.3" y="614" text-anchor="middle" fill="#cbd5e1" font-family="Segoe UI,Arial,sans-serif" font-size="12">06-11</text>
<text x="996.4" y="614" text-anchor="middle" fill="#cbd5e1" font-family="Segoe UI,Arial,sans-serif" font-size="12">06-13</text>
<text x="1145.0" y="614" text-anchor="middle" fill="#cbd5e1" font-family="Segoe UI,Arial,sans-serif" font-size="12">06-14</text>
<path d="M 105.0 526.3 L 253.6 526.3" fill="none" stroke="#22d3ee" stroke-width="3" stroke-linejoin="round"/>
<circle cx="105.0" cy="526.3" r="4" fill="#22d3ee"/>
<circle cx="253.6" cy="526.3" r="4" fill="#22d3ee"/>
<rect x="105" y="657" width="16" height="4" fill="#22d3ee"/>
<text x="129" y="665" fill="#cbd5e1" font-family="Segoe UI,Arial,sans-serif" font-size="13">Calibration base</text>
<path d="M 105.0 536.9 L 253.6 536.9" fill="none" stroke="#f59e0b" stroke-width="3" stroke-linejoin="round"/>
<circle cx="105.0" cy="536.9" r="4" fill="#f59e0b"/>
<circle cx="253.6" cy="536.9" r="4" fill="#f59e0b"/>
<rect x="355" y="657" width="16" height="4" fill="#f59e0b"/>
<text x="379" y="665" fill="#cbd5e1" font-family="Segoe UI,Arial,sans-serif" font-size="13">Calibration stress</text>
<path d="M 402.1 465.9 L 550.7 465.9 L 699.3 465.9 L 847.9 465.9 L 996.4 328.2 L 1145.0 178.1" fill="none" stroke="#60a5fa" stroke-width="3" stroke-linejoin="round"/>
<circle cx="402.1" cy="465.9" r="4" fill="#60a5fa"/>
<circle cx="550.7" cy="465.9" r="4" fill="#60a5fa"/>
<circle cx="699.3" cy="465.9" r="4" fill="#60a5fa"/>
<circle cx="847.9" cy="465.9" r="4" fill="#60a5fa"/>
<circle cx="996.4" cy="328.2" r="4" fill="#60a5fa"/>
<circle cx="1145.0" cy="178.1" r="4" fill="#60a5fa"/>
<rect x="605" y="657" width="16" height="4" fill="#60a5fa"/>
<text x="629" y="665" fill="#cbd5e1" font-family="Segoe UI,Arial,sans-serif" font-size="13">Consumed eval base</text>
<path d="M 402.1 465.9 L 550.7 465.9 L 699.3 465.9 L 847.9 465.9 L 996.4 338.8 L 1145.0 199.4" fill="none" stroke="#ef4444" stroke-width="3" stroke-linejoin="round"/>
<circle cx="402.1" cy="465.9" r="4" fill="#ef4444"/>
<circle cx="550.7" cy="465.9" r="4" fill="#ef4444"/>
<circle cx="699.3" cy="465.9" r="4" fill="#ef4444"/>
<circle cx="847.9" cy="465.9" r="4" fill="#ef4444"/>
<circle cx="996.4" cy="338.8" r="4" fill="#ef4444"/>
<circle cx="1145.0" cy="199.4" r="4" fill="#ef4444"/>
<rect x="855" y="657" width="16" height="4" fill="#ef4444"/>
<text x="879" y="665" fill="#cbd5e1" font-family="Segoe UI,Arial,sans-serif" font-size="13">Consumed eval stress</text>
<text transform="translate(25 357.5) rotate(-90)" text-anchor="middle" fill="#cbd5e1" font-family="Segoe UI,Arial,sans-serif" font-size="14">Cumulative weighted net bps</text>
</svg>
