<svg xmlns="http://www.w3.org/2000/svg" width="1500" height="800" viewBox="0 0 1500 800" role="img" aria-labelledby="title desc">
<title id="title">Dated competing-risk equity and drawdown</title>
<desc id="desc">Consumed 2025-H1 additive fixed-sleeve replay; cash is the 1.0 baseline and leverage is absent.</desc>
<rect width="100%" height="100%" fill="#ffffff"/>
<style>text{font-family:"Segoe UI",Arial,sans-serif;letter-spacing:0}.title{font-size:27px;font-weight:700;fill:#17212b}.subtitle{font-size:14px;fill:#52606d}.label{font-size:13px;fill:#263746}.axis{font-size:12px;fill:#60717f}.value{font-size:12px;font-weight:650;fill:#263746}.note{font-size:12px;fill:#65727d}.grid{stroke:#e1e8ed;stroke-width:1}.zero{stroke:#526674;stroke-width:2;stroke-dasharray:6 5}</style>
<text x="56" y="52" class="title">Dated competing-risk equity and drawdown</text>
<text x="56" y="80" class="subtitle">Consumed 2025-H1 additive fixed-sleeve replay; cash is the 1.0 baseline and leverage is absent.</text>
<rect x="830" y="43" width="18" height="18" fill="#0f766e"/><text x="858" y="57" class="note">12 bps base</text>
<rect x="1120" y="43" width="18" height="18" fill="#b45309"/><text x="1148" y="57" class="note">16 bps stress</text>
<text x="130" y="127" class="label">Equity fraction versus cash</text>
<line x1="130" y1="365.0" x2="1430" y2="365.0" class="grid"/><text x="116" y="369.0" text-anchor="end" class="axis">0.52</text>
<line x1="130" y1="162.6" x2="1430" y2="162.6" class="zero"/><text x="116" y="166.6" text-anchor="end" class="axis">1.00</text>
<line x1="130" y1="145.0" x2="1430" y2="145.0" class="grid"/><text x="116" y="149.0" text-anchor="end" class="axis">1.04</text>
<polyline points="130.0,162.6 137.2,163.0 144.4,163.0 151.7,163.0 158.9,163.0 166.1,164.3 173.3,160.2 180.6,160.2 187.8,160.8 195.0,161.6 202.2,161.6 209.4,161.6 216.7,166.3 223.9,166.3 231.1,166.3 238.3,167.6 245.6,165.5 252.8,173.3 260.0,188.0 267.2,220.5 274.4,230.2 281.7,231.2 288.9,231.2 296.1,230.8 303.3,230.8 310.6,228.5 317.8,226.7 325.0,226.7 332.2,226.7 339.4,226.7 346.7,226.7 353.9,228.7 361.1,231.6 368.3,255.8 375.6,257.9 382.8,257.9 390.0,257.4 397.2,257.5 404.4,257.5 411.7,259.6 418.9,259.6 426.1,259.6 433.3,263.4 440.6,263.2 447.8,264.1 455.0,264.1 462.2,264.1 469.4,266.4 476.7,267.0 483.9,267.0 491.1,267.0 498.3,267.6 505.6,267.7 512.8,267.7 520.0,268.3 527.2,272.2 534.4,272.7 541.7,274.0 548.9,273.7 556.1,276.3 563.3,277.6 570.6,277.3 577.8,285.0 585.0,285.0 592.2,290.2 599.4,290.7 606.7,290.2 613.9,284.0 621.1,294.5 628.3,294.2 635.6,292.2 642.8,291.4 650.0,291.4 657.2,291.4 664.4,292.3 671.7,290.0 678.9,290.8 686.1,288.7 693.3,288.7 700.6,288.7 707.8,288.7 715.0,288.7 722.2,288.6 729.4,288.3 736.7,287.2 743.9,288.4 751.1,285.2 758.3,285.2 765.6,285.2 772.8,285.2 780.0,284.9 787.2,288.2 794.4,286.3 801.7,288.4 808.9,288.4 816.1,276.4 823.3,287.5 830.6,284.7 837.8,282.6 845.0,284.1 852.2,284.2 859.4,284.2 866.7,286.8 873.9,286.4 881.1,286.4 888.3,287.7 895.6,289.5 902.8,289.5 910.0,289.5 917.2,289.5 924.4,289.5 931.7,290.4 938.9,293.0 946.1,294.6 953.3,294.6 960.6,294.6 967.8,295.9 975.0,295.7 982.2,295.7 989.4,296.7 996.7,296.7 1003.9,296.7 1011.1,296.7 1018.3,296.7 1025.6,296.7 1032.8,296.7 1040.0,296.7 1047.2,296.6 1054.4,297.5 1061.7,296.7 1068.9,296.8 1076.1,296.8 1083.3,296.8 1090.6,296.8 1097.8,299.4 1105.0,301.0 1112.2,301.0 1119.4,305.9 1126.7,305.9 1133.9,305.9 1141.1,305.9 1148.3,305.9 1155.6,310.8 1162.8,312.1 1170.0,313.4 1177.2,313.4 1184.4,314.3 1191.7,314.9 1198.9,311.5 1206.1,313.7 1213.3,313.6 1220.6,313.6 1227.8,313.6 1235.0,313.6 1242.2,313.6 1249.4,316.9 1256.7,318.2 1263.9,318.2 1271.1,318.2 1278.3,316.1 1285.6,314.0 1292.8,315.3 1300.0,316.4 1307.2,311.2 1314.4,311.2 1321.7,311.2 1328.9,312.5 1336.1,311.7 1343.3,311.7 1350.6,311.3 1357.8,311.3 1365.0,309.8 1372.2,311.1 1379.4,309.1 1386.7,309.1 1393.9,309.2 1401.1,309.0 1408.3,312.6 1415.6,312.6 1422.8,312.6 1430.0,312.6" fill="none" stroke="#0f766e" stroke-width="3"/>
<polyline points="130.0,162.6 137.2,163.1 144.4,163.1 151.7,163.1 158.9,163.1 166.1,164.5 173.3,160.7 180.6,160.7 187.8,161.5 195.0,162.8 202.2,162.8 209.4,162.8 216.7,168.0 223.9,168.0 231.1,168.0 238.3,169.6 245.6,167.6 252.8,175.7 260.0,192.6 267.2,227.9 274.4,238.7 281.7,239.9 288.9,239.9 296.1,239.7 303.3,239.7 310.6,237.4 317.8,236.4 325.0,236.4 332.2,236.4 339.4,236.4 346.7,236.4 353.9,238.5 361.1,242.3 368.3,268.8 375.6,271.3 382.8,271.3 390.0,270.9 397.2,271.1 404.4,271.1 411.7,273.2 418.9,273.2 426.1,273.2 433.3,277.3 440.6,277.1 447.8,278.1 455.0,278.1 462.2,278.1 469.4,280.5 476.7,281.5 483.9,281.5 491.1,281.5 498.3,282.4 505.6,282.5 512.8,282.5 520.0,283.8 527.2,289.6 534.4,290.2 541.7,291.6 548.9,291.6 556.1,294.3 563.3,295.6 570.6,296.7 577.8,306.2 585.0,306.2 592.2,311.6 599.4,312.2 606.7,311.8 613.9,305.9 621.1,317.4 628.3,317.4 635.6,315.3 642.8,314.7 650.0,314.7 657.2,314.7 664.4,315.7 671.7,313.5 678.9,314.3 686.1,312.3 693.3,312.3 700.6,312.3 707.8,312.3 715.0,312.3 722.2,312.3 729.4,312.0 736.7,311.1 743.9,312.3 751.1,309.6 758.3,309.6 765.6,309.6 772.8,309.6 780.0,309.3 787.2,312.9 794.4,311.5 801.7,313.7 808.9,313.7 816.1,302.3 823.3,315.6 830.6,312.9 837.8,310.9 845.0,312.5 852.2,312.7 859.4,312.7 866.7,315.4 873.9,315.0 881.1,315.0 888.3,316.4 895.6,318.4 902.8,318.4 910.0,318.4 917.2,318.4 924.4,318.4 931.7,319.3 938.9,322.0 946.1,323.8 953.3,323.8 960.6,323.8 967.8,325.0 975.0,324.9 982.2,324.9 989.4,326.2 996.7,326.2 1003.9,326.2 1011.1,326.2 1018.3,326.2 1025.6,326.2 1032.8,326.2 1040.0,326.2 1047.2,326.2 1054.4,327.3 1061.7,326.6 1068.9,326.7 1076.1,326.7 1083.3,326.7 1090.6,326.7 1097.8,329.4 1105.0,331.1 1112.2,331.1 1119.4,336.2 1126.7,336.2 1133.9,336.2 1141.1,336.2 1148.3,336.2 1155.6,341.4 1162.8,342.8 1170.0,344.1 1177.2,344.1 1184.4,345.1 1191.7,345.8 1198.9,342.5 1206.1,344.9 1213.3,344.9 1220.6,344.9 1227.8,344.9 1235.0,344.9 1242.2,344.9 1249.4,348.5 1256.7,349.8 1263.9,349.8 1271.1,349.8 1278.3,348.0 1285.6,346.0 1292.8,347.4 1300.0,348.5 1307.2,343.9 1314.4,343.9 1321.7,343.9 1328.9,345.2 1336.1,344.6 1343.3,344.6 1350.6,344.4 1357.8,344.7 1365.0,343.5 1372.2,344.8 1379.4,343.0 1386.7,343.0 1393.9,343.1 1401.1,343.0 1408.3,346.8 1415.6,346.8 1422.8,346.8 1430.0,346.8" fill="none" stroke="#b45309" stroke-width="3"/>
<text x="130" y="482" class="label">Drawdown fraction</text>
<line x1="130" y1="670.0" x2="1430" y2="670.0" class="grid"/><text x="116" y="674.0" text-anchor="end" class="axis">0.0%</text>
<line x1="130" y1="585.0" x2="1430" y2="585.0" class="grid"/><text x="116" y="589.0" text-anchor="end" class="axis">25.1%</text>
<line x1="130" y1="500.0" x2="1430" y2="500.0" class="grid"/><text x="116" y="504.0" text-anchor="end" class="axis">50.2%</text>
<polyline points="130.0,670.0 137.2,669.7 144.4,669.7 151.7,669.7 158.9,669.7 166.1,668.6 173.3,670.0 180.6,670.0 187.8,669.5 195.0,668.9 202.2,668.9 209.4,668.9 216.7,665.1 223.9,665.1 231.1,665.1 238.3,664.0 245.6,665.7 252.8,659.5 260.0,647.7 267.2,621.7 274.4,613.8 281.7,613.0 288.9,613.0 296.1,613.4 303.3,613.4 310.6,615.3 317.8,616.7 325.0,616.7 332.2,616.7 339.4,616.7 346.7,616.7 353.9,615.1 361.1,612.8 368.3,593.4 375.6,591.7 382.8,591.7 390.0,592.1 397.2,592.0 404.4,592.0 411.7,590.3 418.9,590.3 426.1,590.3 433.3,587.2 440.6,587.4 447.8,586.7 455.0,586.7 462.2,586.7 469.4,584.8 476.7,584.4 483.9,584.4 491.1,584.4 498.3,583.9 505.6,583.8 512.8,583.8 520.0,583.3 527.2,580.2 534.4,579.8 541.7,578.8 548.9,579.0 556.1,576.9 563.3,575.9 570.6,576.1 577.8,569.9 585.0,569.9 592.2,565.8 599.4,565.4 606.7,565.8 613.9,570.8 621.1,562.3 628.3,562.6 635.6,564.2 642.8,564.8 650.0,564.8 657.2,564.8 664.4,564.1 671.7,566.0 678.9,565.3 686.1,567.0 693.3,567.0 700.6,567.0 707.8,567.0 715.0,567.0 722.2,567.0 729.4,567.3 736.7,568.2 743.9,567.3 751.1,569.8 758.3,569.8 765.6,569.8 772.8,569.8 780.0,570.1 787.2,567.4 794.4,568.9 801.7,567.2 808.9,567.2 816.1,576.9 823.3,567.9 830.6,570.2 837.8,571.9 845.0,570.7 852.2,570.6 859.4,570.6 866.7,568.5 873.9,568.9 881.1,568.9 888.3,567.8 895.6,566.3 902.8,566.3 910.0,566.3 917.2,566.3 924.4,566.3 931.7,565.6 938.9,563.5 946.1,562.2 953.3,562.2 960.6,562.2 967.8,561.2 975.0,561.4 982.2,561.4 989.4,560.6 996.7,560.6 1003.9,560.6 1011.1,560.6 1018.3,560.6 1025.6,560.6 1032.8,560.6 1040.0,560.6 1047.2,560.6 1054.4,559.9 1061.7,560.5 1068.9,560.5 1076.1,560.5 1083.3,560.5 1090.6,560.5 1097.8,558.4 1105.0,557.1 1112.2,557.1 1119.4,553.2 1126.7,553.2 1133.9,553.2 1141.1,553.2 1148.3,553.2 1155.6,549.3 1162.8,548.2 1170.0,547.2 1177.2,547.2 1184.4,546.4 1191.7,546.0 1198.9,548.7 1206.1,547.0 1213.3,547.1 1220.6,547.1 1227.8,547.1 1235.0,547.1 1242.2,547.1 1249.4,544.4 1256.7,543.3 1263.9,543.3 1271.1,543.3 1278.3,545.0 1285.6,546.7 1292.8,545.6 1300.0,544.8 1307.2,549.0 1314.4,549.0 1321.7,549.0 1328.9,547.9 1336.1,548.6 1343.3,548.6 1350.6,548.8 1357.8,548.8 1365.0,550.1 1372.2,549.1 1379.4,550.6 1386.7,550.6 1393.9,550.5 1401.1,550.7 1408.3,547.8 1415.6,547.8 1422.8,547.8 1430.0,547.8" fill="none" stroke="#0f766e" stroke-width="3"/>
<polyline points="130.0,670.0 137.2,669.6 144.4,669.6 151.7,669.6 158.9,669.6 166.1,668.5 173.3,670.0 180.6,670.0 187.8,669.3 195.0,668.3 202.2,668.3 209.4,668.3 216.7,664.2 223.9,664.2 231.1,664.2 238.3,662.9 245.6,664.5 252.8,657.9 260.0,644.4 267.2,616.0 274.4,607.4 281.7,606.4 288.9,606.4 296.1,606.6 303.3,606.6 310.6,608.4 317.8,609.3 325.0,609.3 332.2,609.3 339.4,609.3 346.7,609.3 353.9,607.5 361.1,604.5 368.3,583.2 375.6,581.2 382.8,581.2 390.0,581.6 397.2,581.4 404.4,581.4 411.7,579.7 418.9,579.7 426.1,579.7 433.3,576.4 440.6,576.6 447.8,575.8 455.0,575.8 462.2,575.8 469.4,573.8 476.7,573.0 483.9,573.0 491.1,573.0 498.3,572.3 505.6,572.2 512.8,572.2 520.0,571.2 527.2,566.6 534.4,566.0 541.7,565.0 548.9,565.0 556.1,562.8 563.3,561.7 570.6,560.8 577.8,553.2 585.0,553.2 592.2,548.9 599.4,548.4 606.7,548.7 613.9,553.4 621.1,544.3 628.3,544.3 635.6,545.9 642.8,546.4 650.0,546.4 657.2,546.4 664.4,545.6 671.7,547.4 678.9,546.7 686.1,548.3 693.3,548.3 700.6,548.3 707.8,548.3 715.0,548.3 722.2,548.3 729.4,548.6 736.7,549.3 743.9,548.3 751.1,550.5 758.3,550.5 765.6,550.5 772.8,550.5 780.0,550.7 787.2,547.8 794.4,549.0 801.7,547.2 808.9,547.2 816.1,556.4 823.3,545.7 830.6,547.8 837.8,549.4 845.0,548.2 852.2,548.0 859.4,548.0 866.7,545.9 873.9,546.1 881.1,546.1 888.3,545.1 895.6,543.5 902.8,543.5 910.0,543.5 917.2,543.5 924.4,543.5 931.7,542.7 938.9,540.5 946.1,539.1 953.3,539.1 960.6,539.1 967.8,538.1 975.0,538.2 982.2,538.2 989.4,537.1 996.7,537.1 1003.9,537.1 1011.1,537.1 1018.3,537.1 1025.6,537.1 1032.8,537.1 1040.0,537.1 1047.2,537.2 1054.4,536.3 1061.7,536.9 1068.9,536.7 1076.1,536.7 1083.3,536.7 1090.6,536.7 1097.8,534.6 1105.0,533.2 1112.2,533.2 1119.4,529.1 1126.7,529.1 1133.9,529.1 1141.1,529.1 1148.3,529.1 1155.6,524.9 1162.8,523.9 1170.0,522.8 1177.2,522.8 1184.4,522.0 1191.7,521.5 1198.9,524.1 1206.1,522.2 1213.3,522.2 1220.6,522.2 1227.8,522.2 1235.0,522.2 1242.2,522.2 1249.4,519.3 1256.7,518.2 1263.9,518.2 1271.1,518.2 1278.3,519.7 1285.6,521.3 1292.8,520.1 1300.0,519.2 1307.2,523.0 1314.4,523.0 1321.7,523.0 1328.9,521.9 1336.1,522.4 1343.3,522.4 1350.6,522.6 1357.8,522.3 1365.0,523.3 1372.2,522.2 1379.4,523.7 1386.7,523.7 1393.9,523.6 1401.1,523.7 1408.3,520.7 1415.6,520.7 1422.8,520.7 1430.0,520.7" fill="none" stroke="#b45309" stroke-width="3"/>
<text x="130.0" y="752" text-anchor="middle" class="axis">2025-01-01</text>
<text x="780.0" y="752" text-anchor="middle" class="axis">2025-04-01</text>
<text x="1430.0" y="752" text-anchor="middle" class="axis">2025-06-30</text>
</svg>
