<svg xmlns="http://www.w3.org/2000/svg" width="1500" height="720" viewBox="0 0 1500 720" role="img" aria-labelledby="title desc">
<title id="title">Dated equity confirms positive drift with excessive drawdown</title>
<desc id="desc">Daily close of every hourly portfolio ledger, 2024-10-01 through 2025-06-29 UTC; no interpolation or synthetic observations.</desc>
<rect width="100%" height="100%" fill="#ffffff"/>
<style>text{font-family:"Segoe UI",Arial,sans-serif;letter-spacing:0}.title{font-size:27px;font-weight:700;fill:#17212b}.subtitle{font-size:14px;fill:#52606d}.label{font-size:13px;fill:#263746}.axis{font-size:12px;fill:#60717f}.value{font-size:12px;font-weight:650;fill:#263746}.note{font-size:12px;fill:#65727d}.grid{stroke:#e1e8ed;stroke-width:1}.zero{stroke:#526674;stroke-width:2;stroke-dasharray:6 5}</style>
<text x="56" y="52" class="title">Dated equity confirms positive drift with excessive drawdown</text>
<text x="56" y="80" class="subtitle">Daily close of every hourly portfolio ledger, 2024-10-01 through 2025-06-29 UTC; no interpolation or synthetic observations.</text>
<rect x="120" y="145" width="1310" height="390" fill="#ffffff" stroke="#d8e0e7"/>
<line x1="120" y1="515.5" x2="1430" y2="515.5" class="grid"/><text x="106" y="519.5" text-anchor="end" class="axis">-40%</text>
<line x1="120" y1="437.5" x2="1430" y2="437.5" class="grid"/><text x="106" y="441.5" text-anchor="end" class="axis">-20%</text>
<line x1="120" y1="359.5" x2="1430" y2="359.5" class="grid"/><text x="106" y="363.5" text-anchor="end" class="axis">+0%</text>
<line x1="120" y1="281.5" x2="1430" y2="281.5" class="grid"/><text x="106" y="285.5" text-anchor="end" class="axis">+20%</text>
<line x1="120" y1="203.5" x2="1430" y2="203.5" class="grid"/><text x="106" y="207.5" text-anchor="end" class="axis">+40%</text>
<polyline points="120.0,367.7 124.8,375.9 129.7,378.9 134.5,382.6 139.3,382.5 144.2,384.7 149.0,386.2 153.8,387.5 158.7,390.1 163.5,389.0 168.3,387.9 173.2,388.1 178.0,385.0 182.8,367.6 187.7,363.7 192.5,362.5 197.3,357.0 202.2,359.8 207.0,356.6 211.8,362.5 216.7,368.5 221.5,369.8 226.3,373.1 231.2,371.7 236.0,364.3 240.8,360.7 245.7,364.2 250.5,365.8 255.4,365.6 260.2,369.3 265.0,370.2 269.9,372.9 274.7,374.5 279.5,378.3 284.4,374.5 289.2,361.2 294.0,346.6 298.9,356.4 303.7,356.7 308.5,351.5 313.4,363.2 318.2,332.7 323.0,323.2 327.9,316.7 332.7,318.0 337.5,314.1 342.4,314.6 347.2,320.7 352.0,321.3 356.9,325.3 361.7,326.6 366.5,322.6 371.4,321.6 376.2,322.0 381.0,321.5 385.9,332.0 390.7,339.5 395.5,349.2 400.4,343.8 405.2,343.4 410.0,343.8 414.9,342.9 419.7,337.4 424.5,348.3 429.4,345.8 434.2,342.4 439.0,328.0 443.9,325.9 448.7,324.0 453.5,327.5 458.4,334.0 463.2,314.0 468.0,310.4 472.9,312.1 477.7,303.7 482.5,296.0 487.4,294.0 492.2,292.0 497.0,315.9 501.9,313.2 506.7,316.3 511.5,306.9 516.4,295.7 521.2,284.3 526.1,270.9 530.9,270.4 535.7,259.7 540.6,258.8 545.4,263.2 550.2,257.7 555.1,259.8 559.9,255.8 564.7,251.0 569.6,254.5 574.4,263.9 579.2,263.4 584.1,264.3 588.9,264.5 593.7,271.0 598.6,280.8 603.4,287.6 608.2,282.5 613.1,279.8 617.9,282.3 622.7,292.4 627.6,284.2 632.4,286.4 637.2,293.7 642.1,301.9 646.9,319.9 651.7,297.2 656.6,315.5 661.4,318.6 666.2,326.7 671.1,313.9 675.9,294.3 680.7,303.2 685.6,300.7 690.4,298.7 695.2,297.8 700.1,288.8 704.9,300.3 709.7,312.0 714.6,326.8 719.4,342.6 724.2,329.0 729.1,338.3 733.9,344.1 738.7,331.2 743.6,323.8 748.4,320.8 753.2,314.1 758.1,310.1 762.9,311.4 767.7,300.7 772.6,306.3 777.4,315.1 782.3,313.9 787.1,319.7 791.9,298.7 796.8,287.0 801.6,283.0 806.4,277.8 811.3,269.1 816.1,261.1 820.9,261.7 825.8,274.6 830.6,275.9 835.4,296.4 840.3,296.6 845.1,310.0 849.9,320.1 854.8,351.1 859.6,398.5 864.4,398.7 869.3,396.6 874.1,391.4 878.9,402.7 883.8,402.2 888.6,404.7 893.4,423.8 898.3,414.2 903.1,413.1 907.9,416.2 912.8,418.8 917.6,422.5 922.4,428.1 927.3,419.6 932.1,417.0 936.9,417.6 941.8,416.7 946.6,415.5 951.4,415.5 956.3,415.7 961.1,428.8 965.9,424.1 970.8,416.0 975.6,417.0 980.4,419.2 985.3,424.5 990.1,425.1 994.9,425.9 999.8,409.8 1004.6,425.9 1009.4,426.5 1014.3,428.4 1019.1,433.6 1023.9,440.3 1028.8,441.8 1033.6,435.5 1038.5,444.9 1043.3,458.4 1048.1,456.3 1053.0,465.0 1057.8,469.1 1062.6,467.1 1067.5,466.1 1072.3,461.0 1077.1,458.9 1082.0,458.6 1086.8,459.2 1091.6,456.1 1096.5,448.6 1101.3,461.8 1106.1,462.8 1111.0,458.3 1115.8,456.4 1120.6,457.2 1125.5,457.2 1130.3,450.8 1135.1,448.4 1140.0,450.2 1144.8,448.6 1149.6,447.5 1154.5,448.4 1159.3,446.1 1164.1,448.0 1169.0,445.8 1173.8,445.7 1178.6,466.0 1183.5,477.5 1188.3,486.5 1193.1,478.1 1198.0,475.4 1202.8,470.2 1207.6,474.7 1212.5,480.1 1217.3,472.5 1222.1,472.6 1227.0,472.1 1231.8,458.3 1236.6,457.1 1241.5,455.0 1246.3,461.4 1251.1,451.6 1256.0,450.6 1260.8,448.5 1265.6,445.8 1270.5,436.9 1275.3,437.2 1280.1,431.0 1285.0,436.7 1289.8,434.3 1294.6,432.8 1299.5,427.1 1304.3,425.8 1309.2,426.1 1314.0,431.0 1318.8,426.4 1323.7,427.2 1328.5,425.9 1333.3,431.2 1338.2,429.4 1343.0,434.6 1347.8,447.5 1352.7,458.3 1357.5,456.5 1362.3,457.7 1367.2,462.4 1372.0,468.3 1376.8,466.8 1381.7,467.6 1386.5,465.2 1391.3,471.4 1396.2,481.6 1401.0,471.8 1405.8,469.4 1410.7,465.9 1415.5,458.7 1420.3,461.1 1425.2,463.2 1430.0,463.8" fill="none" stroke="#a33a32" stroke-width="3"/>
<polyline points="120.0,367.8 124.8,376.2 129.7,379.4 134.5,383.1 139.3,383.1 144.2,385.4 149.0,387.0 153.8,388.5 158.7,391.2 163.5,390.2 168.3,389.2 173.2,389.4 178.0,386.4 182.8,369.3 187.7,365.6 192.5,364.5 197.3,359.2 202.2,362.1 207.0,358.9 211.8,364.9 216.7,371.0 221.5,372.5 226.3,375.8 231.2,374.6 236.0,367.5 240.8,363.9 245.7,367.5 250.5,369.3 255.4,369.2 260.2,373.0 265.0,374.1 269.9,376.9 274.7,378.6 279.5,382.4 284.4,378.9 289.2,365.8 294.0,351.8 298.9,361.6 303.7,361.9 308.5,356.9 313.4,368.7 318.2,338.8 323.0,329.8 327.9,323.6 332.7,325.0 337.5,321.3 342.4,321.9 347.2,328.2 352.0,329.0 356.9,333.2 361.7,334.6 366.5,330.7 371.4,329.8 376.2,330.3 381.0,330.0 385.9,340.5 390.7,348.0 395.5,357.8 400.4,352.6 405.2,352.2 410.0,352.7 414.9,352.0 419.7,346.8 424.5,357.6 429.4,355.4 434.2,352.3 439.0,338.3 443.9,336.4 448.7,334.7 453.5,338.2 458.4,344.7 463.2,325.4 468.0,322.0 472.9,323.8 477.7,315.7 482.5,308.3 487.4,306.6 492.2,304.8 497.0,328.3 501.9,325.9 506.7,329.1 511.5,320.2 516.4,309.5 521.2,298.6 526.1,285.8 530.9,285.4 535.7,275.1 540.6,274.3 545.4,278.7 550.2,273.5 555.1,275.7 559.9,272.0 564.7,267.5 569.6,271.0 574.4,280.3 579.2,279.9 584.1,280.8 588.9,281.1 593.7,287.7 598.6,297.4 603.4,304.1 608.2,299.3 613.1,296.8 617.9,299.3 622.7,309.1 627.6,301.4 632.4,303.7 637.2,310.9 642.1,319.0 646.9,336.5 651.7,315.0 656.6,332.7 661.4,335.9 666.2,344.0 671.1,331.8 675.9,313.2 680.7,321.9 685.6,319.7 690.4,318.1 695.2,317.4 700.1,309.0 704.9,320.2 709.7,331.5 714.6,345.7 719.4,361.0 724.2,348.1 729.1,357.2 733.9,362.9 738.7,350.8 743.6,344.0 748.4,341.2 753.2,334.9 758.1,331.2 762.9,332.7 767.7,322.6 772.6,328.1 777.4,336.5 782.3,335.4 787.1,341.1 791.9,321.4 796.8,310.5 801.6,306.8 806.4,302.0 811.3,293.8 816.1,286.4 820.9,287.0 825.8,299.4 830.6,301.0 835.4,320.7 840.3,321.0 845.1,334.0 849.9,343.7 854.8,373.2 859.6,418.1 864.4,418.5 869.3,416.6 874.1,411.9 878.9,422.7 883.8,422.3 888.6,424.8 893.4,442.8 898.3,434.0 903.1,433.1 907.9,436.1 912.8,438.8 917.6,442.3 922.4,447.7 927.3,439.9 932.1,437.4 936.9,438.2 941.8,437.4 946.6,436.3 951.4,436.4 956.3,436.6 961.1,449.1 965.9,444.7 970.8,437.4 975.6,438.3 980.4,440.5 985.3,445.6 990.1,446.2 994.9,447.1 999.8,432.2 1004.6,447.3 1009.4,448.1 1014.3,450.0 1019.1,454.9 1023.9,461.2 1028.8,462.8 1033.6,457.1 1038.5,466.1 1043.3,478.8 1048.1,476.9 1053.0,485.1 1057.8,489.0 1062.6,487.3 1067.5,486.4 1072.3,481.8 1077.1,479.9 1082.0,479.7 1086.8,480.3 1091.6,477.5 1096.5,470.7 1101.3,483.0 1106.1,484.1 1111.0,480.0 1115.8,478.3 1120.6,479.1 1125.5,479.2 1130.3,473.4 1135.1,471.4 1140.0,473.1 1144.8,471.7 1149.6,470.7 1154.5,471.6 1159.3,469.6 1164.1,471.4 1169.0,469.4 1173.8,469.4 1178.6,488.2 1183.5,499.0 1188.3,507.3 1193.1,499.6 1198.0,497.3 1202.8,492.7 1207.6,496.9 1212.5,501.9 1217.3,495.1 1222.1,495.3 1227.0,495.0 1231.8,482.5 1236.6,481.5 1241.5,479.7 1246.3,485.7 1251.1,476.8 1256.0,476.1 1260.8,474.2 1265.6,471.9 1270.5,463.9 1275.3,464.2 1280.1,458.6 1285.0,463.9 1289.8,461.9 1294.6,460.6 1299.5,455.4 1304.3,454.4 1309.2,454.8 1314.0,459.3 1318.8,455.2 1323.7,456.0 1328.5,454.9 1333.3,459.7 1338.2,458.2 1343.0,463.1 1347.8,474.9 1352.7,484.8 1357.5,483.3 1362.3,484.4 1367.2,488.8 1372.0,494.2 1376.8,493.0 1381.7,493.8 1386.5,491.6 1391.3,497.4 1396.2,506.7 1401.0,497.9 1405.8,496.0 1410.7,492.9 1415.5,486.5 1420.3,488.7 1425.2,490.6 1430.0,491.2" fill="none" stroke="#a33a32" stroke-width="3" stroke-dasharray="8 6"/>
<polyline points="120.0,353.6 124.8,351.2 129.7,347.0 134.5,358.1 139.3,356.0 144.2,358.6 149.0,355.8 153.8,354.4 158.7,352.5 163.5,346.3 168.3,342.9 173.2,345.9 178.0,345.9 182.8,333.7 187.7,331.1 192.5,334.5 197.3,330.5 202.2,338.2 207.0,342.7 211.8,353.5 216.7,353.4 221.5,355.3 226.3,366.1 231.2,375.1 236.0,362.0 240.8,357.8 245.7,364.0 250.5,357.0 255.4,353.0 260.2,348.4 265.0,345.4 269.9,336.1 274.7,334.5 279.5,333.0 284.4,333.3 289.2,333.5 294.0,329.3 298.9,347.0 303.7,351.1 308.5,349.5 313.4,352.3 318.2,329.1 323.0,331.0 327.9,341.3 332.7,325.0 337.5,338.5 342.4,339.4 347.2,350.1 352.0,350.5 356.9,358.4 361.7,356.1 366.5,383.4 371.4,383.3 376.2,384.9 381.0,381.9 385.9,382.9 390.7,386.4 395.5,384.2 400.4,380.7 405.2,386.5 410.0,388.5 414.9,388.8 419.7,380.4 424.5,374.7 429.4,371.1 434.2,369.4 439.0,363.8 443.9,364.9 448.7,362.4 453.5,358.0 458.4,361.0 463.2,364.7 468.0,365.5 472.9,367.6 477.7,363.7 482.5,371.9 487.4,361.7 492.2,361.2 497.0,364.5 501.9,340.8 506.7,327.3 511.5,312.4 516.4,311.2 521.2,319.8 526.1,314.3 530.9,317.2 535.7,298.5 540.6,295.4 545.4,307.3 550.2,301.0 555.1,305.5 559.9,303.0 564.7,305.7 569.6,322.1 574.4,337.5 579.2,339.7 584.1,338.7 588.9,334.4 593.7,361.4 598.6,367.0 603.4,355.0 608.2,358.8 613.1,360.2 617.9,360.1 622.7,365.7 627.6,361.0 632.4,385.9 637.2,383.9 642.1,396.5 646.9,391.7 651.7,376.9 656.6,387.2 661.4,392.8 666.2,391.2 671.1,394.6 675.9,394.5 680.7,398.7 685.6,386.1 690.4,363.3 695.2,354.1 700.1,355.7 704.9,354.8 709.7,349.9 714.6,332.0 719.4,347.2 724.2,354.7 729.1,351.9 733.9,347.9 738.7,338.7 743.6,336.2 748.4,342.4 753.2,344.2 758.1,339.6 762.9,337.1 767.7,340.1 772.6,334.8 777.4,341.2 782.3,335.4 787.1,331.1 791.9,336.2 796.8,348.2 801.6,341.1 806.4,347.4 811.3,338.7 816.1,334.9 820.9,334.6 825.8,322.8 830.6,319.8 835.4,298.5 840.3,300.2 845.1,307.5 849.9,305.9 854.8,367.6 859.6,333.7 864.4,345.2 869.3,356.3 874.1,351.2 878.9,345.0 883.8,348.0 888.6,319.4 893.4,312.7 898.3,312.8 903.1,315.1 907.9,304.2 912.8,326.1 917.6,331.8 922.4,320.2 927.3,313.1 932.1,309.5 936.9,332.6 941.8,314.6 946.6,313.6 951.4,314.8 956.3,316.5 961.1,316.6 965.9,318.2 970.8,316.4 975.6,315.0 980.4,293.3 985.3,283.4 990.1,280.5 994.9,280.6 999.8,269.4 1004.6,260.6 1009.4,245.2 1014.3,260.3 1019.1,256.3 1023.9,203.2 1028.8,200.6 1033.6,181.7 1038.5,228.9 1043.3,197.4 1048.1,226.4 1053.0,254.1 1057.8,249.4 1062.6,230.8 1067.5,229.7 1072.3,238.4 1077.1,247.9 1082.0,247.3 1086.8,256.7 1091.6,256.8 1096.5,250.0 1101.3,261.1 1106.1,264.6 1111.0,265.8 1115.8,265.7 1120.6,265.3 1125.5,263.1 1130.3,260.9 1135.1,258.6 1140.0,258.9 1144.8,268.3 1149.6,267.4 1154.5,266.1 1159.3,261.9 1164.1,261.0 1169.0,257.8 1173.8,257.8 1178.6,300.7 1183.5,299.0 1188.3,319.4 1193.1,309.3 1198.0,314.6 1202.8,310.0 1207.6,298.0 1212.5,288.6 1217.3,276.4 1222.1,271.8 1227.0,278.2 1231.8,264.9 1236.6,257.9 1241.5,263.7 1246.3,278.3 1251.1,265.9 1256.0,266.9 1260.8,268.0 1265.6,265.0 1270.5,257.6 1275.3,251.4 1280.1,239.0 1285.0,213.0 1289.8,212.5 1294.6,214.4 1299.5,218.8 1304.3,216.5 1309.2,215.6 1314.0,217.4 1318.8,207.9 1323.7,214.0 1328.5,217.5 1333.3,210.2 1338.2,206.8 1343.0,205.9 1347.8,214.4 1352.7,235.7 1357.5,228.3 1362.3,229.0 1367.2,237.3 1372.0,247.8 1376.8,246.2 1381.7,247.0 1386.5,231.7 1391.3,215.4 1396.2,220.3 1401.0,209.8 1405.8,215.3 1410.7,213.1 1415.5,208.5 1420.3,215.3 1425.2,226.2 1430.0,227.4" fill="none" stroke="#0f766e" stroke-width="3"/>
<polyline points="120.0,353.8 124.8,351.5 129.7,347.6 134.5,358.8 139.3,356.9 144.2,359.7 149.0,357.2 153.8,355.9 158.7,354.2 163.5,348.3 168.3,345.1 173.2,348.1 178.0,348.3 182.8,336.4 187.7,334.0 192.5,337.7 197.3,333.9 202.2,341.7 207.0,346.4 211.8,357.2 216.7,357.3 221.5,359.4 226.3,370.3 231.2,379.3 236.0,366.6 240.8,362.6 245.7,368.9 250.5,362.1 255.4,358.3 260.2,353.9 265.0,351.3 269.9,342.3 274.7,340.7 279.5,339.4 284.4,339.8 289.2,340.3 294.0,336.4 298.9,353.9 303.7,358.1 308.5,356.7 313.4,359.7 318.2,337.0 323.0,339.1 327.9,349.4 332.7,333.8 337.5,347.1 342.4,348.1 347.2,358.7 352.0,359.3 356.9,367.3 361.7,365.1 366.5,391.9 371.4,392.0 376.2,393.8 381.0,391.0 385.9,392.2 390.7,395.8 395.5,393.8 400.4,390.6 405.2,396.4 410.0,398.5 414.9,398.8 419.7,390.8 424.5,385.4 429.4,382.1 434.2,380.7 439.0,375.4 443.9,376.7 448.7,374.4 453.5,370.4 458.4,373.5 463.2,377.2 468.0,378.2 472.9,380.4 477.7,376.8 482.5,385.0 487.4,375.3 492.2,375.0 497.0,378.3 501.9,355.8 506.7,342.9 511.5,328.7 516.4,327.8 521.2,336.3 526.1,331.2 530.9,334.1 535.7,316.4 540.6,313.7 545.4,325.3 550.2,319.4 555.1,323.9 559.9,321.6 564.7,324.5 569.6,340.4 574.4,355.3 579.2,357.6 584.1,356.8 588.9,352.8 593.7,378.9 598.6,384.4 603.4,373.2 608.2,376.9 613.1,378.4 617.9,378.5 622.7,383.9 627.6,379.6 632.4,403.5 637.2,401.7 642.1,413.8 646.9,409.4 651.7,395.5 656.6,405.5 661.4,411.0 666.2,409.6 671.1,413.0 675.9,413.1 680.7,417.2 685.6,405.5 690.4,384.0 695.2,375.5 700.1,377.4 704.9,376.7 709.7,372.2 714.6,355.4 719.4,370.0 724.2,377.2 729.1,374.8 733.9,371.3 738.7,362.8 743.6,360.6 748.4,366.5 753.2,368.4 758.1,364.3 762.9,362.1 767.7,365.2 772.6,360.3 777.4,366.5 782.3,361.1 787.1,357.4 791.9,362.3 796.8,373.6 801.6,367.2 806.4,373.3 811.3,365.4 816.1,362.0 820.9,361.9 825.8,351.0 830.6,348.5 835.4,328.8 840.3,330.6 845.1,337.5 849.9,336.4 854.8,393.9 859.6,362.6 864.4,373.5 869.3,383.9 874.1,379.4 878.9,373.8 883.8,376.7 888.6,350.3 893.4,344.2 898.3,344.6 903.1,346.9 907.9,337.0 912.8,357.5 917.6,362.8 922.4,352.3 927.3,345.9 932.1,342.9 936.9,364.5 941.8,347.9 946.6,347.1 951.4,348.3 956.3,350.1 961.1,350.3 965.9,351.9 970.8,350.6 975.6,349.5 980.4,329.7 985.3,320.7 990.1,318.2 994.9,318.5 999.8,308.4 1004.6,300.5 1009.4,286.6 1014.3,300.6 1019.1,297.2 1023.9,248.8 1028.8,246.6 1033.6,229.5 1038.5,272.9 1043.3,244.3 1048.1,271.1 1053.0,296.6 1057.8,292.6 1062.6,275.7 1067.5,275.0 1072.3,283.2 1077.1,292.0 1082.0,291.7 1086.8,300.4 1091.6,300.7 1096.5,294.7 1101.3,305.0 1106.1,308.4 1111.0,309.7 1115.8,309.7 1120.6,309.5 1125.5,307.7 1130.3,305.8 1135.1,304.0 1140.0,304.6 1144.8,313.2 1149.6,312.6 1154.5,311.5 1159.3,307.8 1164.1,307.2 1169.0,304.5 1173.8,304.7 1178.6,343.7 1183.5,342.3 1188.3,360.9 1193.1,351.9 1198.0,356.8 1202.8,352.9 1207.6,342.2 1212.5,333.9 1217.3,323.0 1222.1,319.0 1227.0,325.1 1231.8,313.3 1236.6,307.0 1241.5,312.6 1246.3,325.9 1251.1,314.9 1256.0,316.0 1260.8,317.2 1265.6,314.7 1270.5,308.4 1275.3,303.0 1280.1,292.1 1285.0,269.1 1289.8,268.9 1294.6,270.9 1299.5,275.1 1304.3,273.2 1309.2,272.6 1314.0,274.5 1318.8,266.2 1323.7,271.9 1328.5,275.3 1333.3,268.9 1338.2,266.1 1343.0,265.6 1347.8,273.4 1352.7,292.7 1357.5,286.2 1362.3,287.0 1367.2,294.6 1372.0,304.1 1376.8,302.9 1381.7,303.8 1386.5,290.5 1391.3,276.2 1396.2,280.8 1401.0,271.7 1405.8,276.8 1410.7,275.1 1415.5,271.3 1420.3,277.5 1425.2,287.4 1430.0,288.6" fill="none" stroke="#2563a6" stroke-width="3" stroke-dasharray="8 6"/>
<text x="120.0" y="563" text-anchor="middle" class="axis">2024-10-01</text>
<text x="414.9" y="563" text-anchor="middle" class="axis">2024-12-01</text>
<text x="714.6" y="563" text-anchor="middle" class="axis">2025-02-01</text>
<text x="999.8" y="563" text-anchor="middle" class="axis">2025-04-01</text>
<text x="1294.6" y="563" text-anchor="middle" class="axis">2025-06-01</text>
<line x1="120" y1="642" x2="150" y2="642" stroke="#a33a32" stroke-width="4"/><text x="160" y="647" class="note">Wave base</text>
<line x1="365" y1="642" x2="395" y2="642" stroke="#a33a32" stroke-width="4" stroke-dasharray="8 6"/><text x="405" y="647" class="note">Wave stress</text>
<line x1="610" y1="642" x2="640" y2="642" stroke="#0f766e" stroke-width="4"/><text x="650" y="647" class="note">Mutual base</text>
<line x1="855" y1="642" x2="885" y2="642" stroke="#2563a6" stroke-width="4" stroke-dasharray="8 6"/><text x="895" y="647" class="note">Mutual stress</text>
<text x="120" y="693" class="note">Mutual base ended +33.87%, but its 26.31% maximum drawdown and confidence interval crossing zero reject the policy.</text>
</svg>
