<svg xmlns="http://www.w3.org/2000/svg" width="1500" height="700" viewBox="0 0 1500 700" role="img" aria-labelledby="title desc">
<title id="title">Round 43 daily equity paths show concentration, not a durable edge</title>
<desc id="desc">Base cost-aware stateful policies, 2025-01-01 through 2025-06-30 UTC; daily points are derived from the full hourly ledger.</desc>
<rect width="100%" height="100%" fill="#ffffff"/>
<style>text{font-family:"Segoe UI",Arial,sans-serif;letter-spacing:0}.title{font-size:27px;font-weight:700;fill:#17212b}.subtitle{font-size:14px;fill:#52606d}.label{font-size:13px;fill:#263746}.axis{font-size:12px;fill:#60717f}.value{font-size:12px;font-weight:650;fill:#263746}.note{font-size:12px;fill:#65727d}.grid{stroke:#e1e8ed;stroke-width:1}.zero{stroke:#526674;stroke-width:2;stroke-dasharray:6 5}</style>
<text x="56" y="52" class="title">Round 43 daily equity paths show concentration, not a durable edge</text>
<text x="56" y="80" class="subtitle">Base cost-aware stateful policies, 2025-01-01 through 2025-06-30 UTC; daily points are derived from the full hourly ledger.</text>
<rect x="115" y="145" width="1320" height="410" fill="#ffffff" stroke="#d8e0e7"/>
<line x1="115" y1="555.0" x2="1435" y2="555.0" class="grid"/>
<text x="102" y="559.0" text-anchor="end" class="axis">-12%</text>
<line x1="115" y1="479.4" x2="1435" y2="479.4" class="grid"/>
<text x="102" y="483.4" text-anchor="end" class="axis">-8%</text>
<line x1="115" y1="403.9" x2="1435" y2="403.9" class="grid"/>
<text x="102" y="407.9" text-anchor="end" class="axis">-4%</text>
<line x1="115" y1="328.3" x2="1435" y2="328.3" class="zero"/>
<text x="102" y="332.3" text-anchor="end" class="axis">+0%</text>
<line x1="115" y1="252.8" x2="1435" y2="252.8" class="grid"/>
<text x="102" y="256.8" text-anchor="end" class="axis">+4%</text>
<line x1="115" y1="177.2" x2="1435" y2="177.2" class="grid"/>
<text x="102" y="181.2" text-anchor="end" class="axis">+8%</text>
<line x1="115" y1="101.7" x2="1435" y2="101.7" class="grid"/>
<text x="102" y="105.7" text-anchor="end" class="axis">+12%</text>
<polyline points="115.0,328.3 122.3,328.3 129.7,328.3 137.0,328.3 144.3,328.3 151.7,328.3 159.0,407.5 166.3,424.5 173.7,460.2 181.0,411.5 188.3,413.7 195.7,413.7 203.0,427.8 210.3,410.0 217.7,305.4 225.0,296.3 232.3,286.6 239.7,289.2 247.0,288.1 254.3,336.4 261.7,278.5 269.0,276.8 276.3,274.0 283.7,291.3 291.0,278.9 298.3,327.3 305.7,351.7 313.0,388.1 320.3,381.7 327.7,382.7 335.0,410.0 342.3,410.0 349.7,410.0 357.0,410.0 364.3,410.0 371.7,410.0 379.0,410.0 386.3,410.0 393.7,410.0 401.0,410.0 408.3,410.0 415.7,410.0 423.0,410.0 430.3,410.0 437.7,410.0 445.0,410.0 452.3,410.0 459.7,410.0 467.0,410.0 474.3,410.0 481.7,410.0 489.0,410.0 496.3,410.0 503.7,410.0 511.0,410.0 518.3,410.0 525.7,410.0 533.0,410.0 540.3,410.0 547.7,410.0 555.0,410.0 562.3,410.0 569.7,410.0 577.0,410.0 584.3,410.0 591.7,410.0 599.0,410.0 606.3,410.0 613.7,410.0 621.0,410.0 628.3,410.0 635.7,410.0 643.0,410.0 650.3,410.0 657.7,410.0 665.0,410.0 672.3,410.0 679.7,410.0 687.0,410.0 694.3,410.0 701.7,410.0 709.0,410.0 716.3,410.0 723.7,410.0 731.0,410.0 738.3,410.0 745.7,410.0 753.0,410.0 760.3,410.0 767.7,410.0 775.0,410.0 782.3,410.0 789.7,410.0 797.0,410.0 804.3,410.0 811.7,410.0 819.0,410.0 826.3,410.0 833.7,410.0 841.0,410.0 848.3,410.0 855.7,410.0 863.0,410.0 870.3,410.0 877.7,410.0 885.0,410.0 892.3,410.0 899.7,410.0 907.0,410.0 914.3,410.0 921.7,410.0 929.0,410.0 936.3,410.0 943.7,410.0 951.0,410.0 958.3,410.0 965.7,410.0 973.0,410.0 980.3,410.0 987.7,410.0 995.0,410.0 1002.3,410.0 1009.7,410.0 1017.0,410.0 1024.3,410.0 1031.7,410.0 1039.0,410.0 1046.3,410.0 1053.7,410.0 1061.0,410.0 1068.3,410.0 1075.7,410.0 1083.0,410.0 1090.3,410.0 1097.7,410.0 1105.0,410.0 1112.3,410.0 1119.7,410.0 1127.0,410.0 1134.3,410.0 1141.7,410.0 1149.0,410.0 1156.3,410.0 1163.7,410.0 1171.0,410.0 1178.3,410.0 1185.7,410.0 1193.0,410.0 1200.3,410.0 1207.7,410.0 1215.0,410.0 1222.3,410.0 1229.7,410.0 1237.0,410.0 1244.3,410.0 1251.7,410.0 1259.0,410.0 1266.3,410.0 1273.7,410.0 1281.0,410.0 1288.3,410.0 1295.7,410.0 1303.0,410.0 1310.3,410.0 1317.7,410.0 1325.0,410.0 1332.3,410.0 1339.7,410.0 1347.0,410.0 1354.3,410.0 1361.7,410.0 1369.0,410.0 1376.3,410.0 1383.7,410.0 1391.0,410.0 1398.3,410.0 1405.7,410.0 1413.0,410.0 1420.3,410.0 1427.7,410.0 1435.0,410.0" fill="none" stroke="#2563a6" stroke-width="3"/>
<polyline points="115.0,331.7 122.3,370.3 129.7,391.0 137.0,385.1 144.3,385.1 151.7,385.1 159.0,461.8 166.3,478.4 173.7,513.0 181.0,465.8 188.3,467.9 195.7,456.8 203.0,285.6 210.3,224.4 217.7,251.4 225.0,261.4 232.3,291.4 239.7,370.2 247.0,356.3 254.3,382.1 261.7,351.5 269.0,355.8 276.3,346.6 283.7,373.7 291.0,373.8 298.3,420.3 305.7,448.8 313.0,455.3 320.3,451.0 327.7,453.9 335.0,475.7 342.3,496.9 349.7,496.9 357.0,496.9 364.3,496.9 371.7,496.9 379.0,496.9 386.3,496.9 393.7,496.9 401.0,496.9 408.3,496.9 415.7,496.9 423.0,496.9 430.3,496.9 437.7,496.9 445.0,496.9 452.3,496.9 459.7,496.9 467.0,496.9 474.3,496.9 481.7,496.9 489.0,496.9 496.3,496.9 503.7,496.9 511.0,496.9 518.3,496.9 525.7,496.9 533.0,496.9 540.3,496.9 547.7,496.9 555.0,496.9 562.3,496.9 569.7,496.9 577.0,496.9 584.3,496.9 591.7,496.9 599.0,496.9 606.3,496.9 613.7,496.9 621.0,496.9 628.3,496.9 635.7,496.9 643.0,496.9 650.3,496.9 657.7,496.9 665.0,496.9 672.3,496.9 679.7,496.9 687.0,496.9 694.3,496.9 701.7,496.9 709.0,496.9 716.3,496.9 723.7,496.9 731.0,496.9 738.3,496.9 745.7,496.9 753.0,496.9 760.3,496.9 767.7,496.9 775.0,496.9 782.3,496.9 789.7,496.9 797.0,496.9 804.3,496.9 811.7,496.9 819.0,496.9 826.3,496.9 833.7,496.9 841.0,496.9 848.3,496.9 855.7,496.9 863.0,496.9 870.3,496.9 877.7,496.9 885.0,496.9 892.3,496.9 899.7,496.9 907.0,496.9 914.3,496.9 921.7,496.9 929.0,496.9 936.3,496.9 943.7,496.9 951.0,496.9 958.3,496.9 965.7,496.9 973.0,496.9 980.3,496.9 987.7,496.9 995.0,496.9 1002.3,496.9 1009.7,496.9 1017.0,496.9 1024.3,496.9 1031.7,496.9 1039.0,496.9 1046.3,496.9 1053.7,496.9 1061.0,496.9 1068.3,496.9 1075.7,496.9 1083.0,496.9 1090.3,496.9 1097.7,496.9 1105.0,496.9 1112.3,496.9 1119.7,496.9 1127.0,496.9 1134.3,496.9 1141.7,496.9 1149.0,496.9 1156.3,496.9 1163.7,496.9 1171.0,496.9 1178.3,496.9 1185.7,496.9 1193.0,496.9 1200.3,496.9 1207.7,496.9 1215.0,496.9 1222.3,496.9 1229.7,496.9 1237.0,496.9 1244.3,496.9 1251.7,496.9 1259.0,496.9 1266.3,496.9 1273.7,496.9 1281.0,496.9 1288.3,496.9 1295.7,496.9 1303.0,496.9 1310.3,496.9 1317.7,496.9 1325.0,496.9 1332.3,496.9 1339.7,496.9 1347.0,496.9 1354.3,496.9 1361.7,496.9 1369.0,496.9 1376.3,496.9 1383.7,496.9 1391.0,496.9 1398.3,496.9 1405.7,496.9 1413.0,496.9 1420.3,496.9 1427.7,496.9 1435.0,496.9" fill="none" stroke="#0f766e" stroke-width="3"/>
<polyline points="115.0,316.5 122.3,306.2 129.7,306.2 137.0,306.2 144.3,306.2 151.7,306.2 159.0,386.2 166.3,403.6 173.7,451.9 181.0,409.3 188.3,415.3 195.7,415.3 203.0,449.3 210.3,435.7 217.7,376.1 225.0,362.3 232.3,351.9 239.7,295.9 247.0,318.3 254.3,332.9 261.7,270.2 269.0,268.2 276.3,245.4 283.7,264.5 291.0,257.7 298.3,313.0 305.7,335.8 313.0,375.3 320.3,368.9 327.7,368.4 335.0,380.3 342.3,392.8 349.7,392.8 357.0,392.8 364.3,392.8 371.7,392.8 379.0,392.8 386.3,392.8 393.7,392.8 401.0,392.8 408.3,392.8 415.7,392.8 423.0,392.8 430.3,392.8 437.7,392.8 445.0,392.8 452.3,392.8 459.7,392.8 467.0,392.8 474.3,392.8 481.7,392.8 489.0,392.8 496.3,392.8 503.7,392.8 511.0,392.8 518.3,392.8 525.7,392.8 533.0,392.8 540.3,392.8 547.7,392.8 555.0,392.8 562.3,392.8 569.7,392.8 577.0,392.8 584.3,392.8 591.7,392.8 599.0,392.8 606.3,392.8 613.7,392.8 621.0,392.8 628.3,392.8 635.7,392.8 643.0,392.8 650.3,392.8 657.7,392.8 665.0,392.8 672.3,392.8 679.7,392.8 687.0,392.8 694.3,392.8 701.7,392.8 709.0,392.8 716.3,392.8 723.7,392.8 731.0,392.8 738.3,392.8 745.7,392.8 753.0,392.8 760.3,392.8 767.7,392.8 775.0,392.8 782.3,392.8 789.7,392.8 797.0,392.8 804.3,392.8 811.7,392.8 819.0,392.8 826.3,392.8 833.7,392.8 841.0,392.8 848.3,392.8 855.7,392.8 863.0,392.8 870.3,392.8 877.7,392.8 885.0,392.8 892.3,392.8 899.7,392.8 907.0,392.8 914.3,392.8 921.7,392.8 929.0,392.8 936.3,392.8 943.7,392.8 951.0,392.8 958.3,392.8 965.7,392.8 973.0,392.8 980.3,392.8 987.7,392.8 995.0,392.8 1002.3,392.8 1009.7,392.8 1017.0,392.8 1024.3,392.8 1031.7,392.8 1039.0,392.8 1046.3,392.8 1053.7,392.8 1061.0,392.8 1068.3,392.8 1075.7,392.8 1083.0,392.8 1090.3,392.8 1097.7,392.8 1105.0,392.8 1112.3,392.8 1119.7,392.8 1127.0,392.8 1134.3,392.8 1141.7,392.8 1149.0,392.8 1156.3,392.8 1163.7,392.8 1171.0,392.8 1178.3,392.8 1185.7,392.8 1193.0,392.8 1200.3,392.8 1207.7,392.8 1215.0,392.8 1222.3,392.8 1229.7,392.8 1237.0,392.8 1244.3,392.8 1251.7,392.8 1259.0,392.8 1266.3,392.8 1273.7,392.8 1281.0,392.8 1288.3,392.8 1295.7,392.8 1303.0,392.8 1310.3,366.7 1317.7,373.7 1325.0,373.7 1332.3,373.7 1339.7,373.7 1347.0,373.7 1354.3,373.7 1361.7,373.7 1369.0,373.7 1376.3,373.7 1383.7,373.7 1391.0,373.7 1398.3,373.7 1405.7,373.7 1413.0,373.7 1420.3,373.7 1427.7,373.7 1435.0,373.7" fill="none" stroke="#b7791f" stroke-width="3"/>
<polyline points="115.0,319.9 122.3,331.1 129.7,356.8 137.0,350.8 144.3,350.8 151.7,350.8 159.0,429.0 166.3,445.9 173.7,493.1 181.0,451.6 188.3,457.4 195.7,446.2 203.0,291.5 210.3,234.2 217.7,202.7 225.0,203.6 232.3,219.7 239.7,260.2 247.0,316.6 254.3,290.9 261.7,226.8 269.0,224.8 276.3,201.4 283.7,180.6 291.0,163.9 298.3,221.8 305.7,245.7 313.0,287.2 320.3,280.5 327.7,271.2 335.0,265.2 342.3,280.3 349.7,280.3 357.0,280.3 364.3,280.3 371.7,280.3 379.0,280.3 386.3,280.3 393.7,280.3 401.0,280.3 408.3,280.3 415.7,280.3 423.0,280.3 430.3,280.3 437.7,280.3 445.0,280.3 452.3,280.3 459.7,280.3 467.0,280.3 474.3,280.3 481.7,280.3 489.0,280.3 496.3,280.3 503.7,280.3 511.0,280.3 518.3,280.3 525.7,280.3 533.0,280.3 540.3,280.3 547.7,280.3 555.0,280.3 562.3,280.3 569.7,280.3 577.0,280.3 584.3,280.3 591.7,280.3 599.0,280.3 606.3,280.3 613.7,280.3 621.0,280.3 628.3,280.3 635.7,280.3 643.0,280.3 650.3,280.3 657.7,280.3 665.0,280.3 672.3,280.3 679.7,280.3 687.0,280.3 694.3,280.3 701.7,280.3 709.0,280.3 716.3,280.3 723.7,280.3 731.0,280.3 738.3,280.3 745.7,280.3 753.0,280.3 760.3,280.3 767.7,280.3 775.0,280.3 782.3,280.3 789.7,280.3 797.0,280.3 804.3,280.3 811.7,280.3 819.0,280.3 826.3,280.3 833.7,280.3 841.0,280.3 848.3,280.3 855.7,280.3 863.0,280.3 870.3,280.3 877.7,280.3 885.0,280.3 892.3,280.3 899.7,280.3 907.0,280.3 914.3,280.3 921.7,280.3 929.0,280.3 936.3,280.3 943.7,280.3 951.0,280.3 958.3,280.3 965.7,280.3 973.0,280.3 980.3,280.3 987.7,280.3 995.0,280.3 1002.3,280.3 1009.7,280.3 1017.0,280.3 1024.3,280.3 1031.7,280.3 1039.0,280.3 1046.3,280.3 1053.7,280.3 1061.0,280.3 1068.3,280.3 1075.7,280.3 1083.0,280.3 1090.3,280.3 1097.7,280.3 1105.0,280.3 1112.3,280.3 1119.7,280.3 1127.0,280.3 1134.3,280.3 1141.7,280.3 1149.0,280.3 1156.3,280.3 1163.7,280.3 1171.0,280.3 1178.3,280.3 1185.7,280.3 1193.0,280.3 1200.3,280.3 1207.7,280.3 1215.0,280.3 1222.3,280.3 1229.7,280.3 1237.0,280.3 1244.3,280.3 1251.7,280.3 1259.0,280.3 1266.3,280.3 1273.7,280.3 1281.0,280.3 1288.3,280.3 1295.7,280.3 1303.0,280.3 1310.3,252.5 1317.7,260.0 1325.0,260.0 1332.3,260.0 1339.7,260.0 1347.0,260.0 1354.3,260.0 1361.7,260.0 1369.0,260.0 1376.3,260.0 1383.7,260.0 1391.0,260.0 1398.3,260.0 1405.7,260.0 1413.0,260.0 1420.3,260.0 1427.7,260.0 1435.0,260.0" fill="none" stroke="#7b559c" stroke-width="3"/>
<line x1="115.0" y1="555" x2="115.0" y2="562" stroke="#60717f"/>
<text x="115.0" y="583" text-anchor="middle" class="axis">01-01</text>
<line x1="342.3" y1="555" x2="342.3" y2="562" stroke="#60717f"/>
<text x="342.3" y="583" text-anchor="middle" class="axis">02-01</text>
<line x1="547.7" y1="555" x2="547.7" y2="562" stroke="#60717f"/>
<text x="547.7" y="583" text-anchor="middle" class="axis">03-01</text>
<line x1="775.0" y1="555" x2="775.0" y2="562" stroke="#60717f"/>
<text x="775.0" y="583" text-anchor="middle" class="axis">04-01</text>
<line x1="995.0" y1="555" x2="995.0" y2="562" stroke="#60717f"/>
<text x="995.0" y="583" text-anchor="middle" class="axis">05-01</text>
<line x1="1222.3" y1="555" x2="1222.3" y2="562" stroke="#60717f"/>
<text x="1222.3" y="583" text-anchor="middle" class="axis">06-01</text>
<line x1="1435.0" y1="555" x2="1435.0" y2="562" stroke="#60717f"/>
<text x="1435.0" y="583" text-anchor="middle" class="axis">06-30</text>
<line x1="115" y1="626" x2="143" y2="626" stroke="#2563a6" stroke-width="4"/><text x="153" y="631" class="note">ML long-only</text>
<line x1="445" y1="626" x2="473" y2="626" stroke="#0f766e" stroke-width="4"/><text x="483" y="631" class="note">ML long-short</text>
<line x1="775" y1="626" x2="803" y2="626" stroke="#b7791f" stroke-width="4"/><text x="813" y="631" class="note">AI-factor long-only</text>
<line x1="1105" y1="626" x2="1133" y2="626" stroke="#7b559c" stroke-width="4"/><text x="1143" y="631" class="note">AI-factor long-short</text>
<text x="115" y="672" class="note">Flat sections are genuine abstention after zero calibration slopes; they are not missing data.</text>
</svg>
