<svg xmlns="http://www.w3.org/2000/svg" width="1500" height="680" viewBox="0 0 1500 680" role="img" aria-labelledby="title desc">
<title id="title">Dated fixed-ledger equity</title>
<desc id="desc">Daily close of hourly compounded one-third sleeves; dashed lines reprice the identical base ledger at stress costs.</desc>
<rect width="100%" height="100%" fill="#ffffff"/>
<style>text{font-family:"Segoe UI",Arial,sans-serif;letter-spacing:0}.title{font-size:27px;font-weight:700;fill:#17212b}.subtitle{font-size:14px;fill:#52606d}.label{font-size:13px;fill:#263746}.axis{font-size:12px;fill:#60717f}.value{font-size:12px;font-weight:650;fill:#263746}.note{font-size:12px;fill:#65727d}.grid{stroke:#e1e8ed;stroke-width:1}.zero{stroke:#526674;stroke-width:2;stroke-dasharray:6 5}</style>
<text x="56" y="52" class="title">Dated fixed-ledger equity</text>
<text x="56" y="80" class="subtitle">Daily close of hourly compounded one-third sleeves; dashed lines reprice the identical base ledger at stress costs.</text>
<line x1="115" y1="535.0" x2="1430" y2="535.0" class="grid"/><text x="101" y="539.0" text-anchor="end" class="axis">0.95</text>
<line x1="115" y1="497.3" x2="1430" y2="497.3" class="zero"/><text x="101" y="501.3" text-anchor="end" class="axis">1.00</text>
<line x1="115" y1="145.0" x2="1430" y2="145.0" class="grid"/><text x="101" y="149.0" text-anchor="end" class="axis">1.42</text>
<polyline points="115.0,497.3 119.9,497.3 124.7,497.3 129.6,497.3 134.4,497.3 139.3,497.3 144.1,494.9 149.0,494.9 153.8,494.9 158.7,494.9 163.5,494.9 168.4,494.9 173.2,494.9 178.1,494.9 182.9,483.3 187.8,483.5 192.6,483.5 197.5,483.5 202.3,483.5 207.2,483.5 212.0,483.5 216.9,483.5 221.8,483.5 226.6,483.5 231.5,483.5 236.3,483.5 241.2,483.5 246.0,483.6 250.9,483.6 255.7,483.6 260.6,483.6 265.4,483.6 270.3,483.6 275.1,483.6 280.0,483.6 284.8,483.6 289.7,483.6 294.5,483.6 299.4,483.6 304.2,483.6 309.1,474.2 313.9,473.3 318.8,473.3 323.7,471.3 328.5,469.7 333.4,469.7 338.2,469.7 343.1,469.7 347.9,469.7 352.8,469.7 357.6,469.7 362.5,468.0 367.3,468.5 372.2,468.5 377.0,468.5 381.9,468.5 386.7,468.5 391.6,468.5 396.4,468.5 401.3,468.5 406.1,468.5 411.0,468.5 415.8,468.5 420.7,468.5 425.6,468.5 430.4,468.5 435.3,468.5 440.1,468.5 445.0,468.5 449.8,470.8 454.7,466.6 459.5,466.6 464.4,466.6 469.2,466.6 474.1,466.6 478.9,466.6 483.8,466.6 488.6,466.6 493.5,466.6 498.3,473.2 503.2,431.9 508.0,434.6 512.9,434.6 517.7,434.6 522.6,434.6 527.5,434.6 532.3,434.6 537.2,434.6 542.0,434.6 546.9,434.6 551.7,434.6 556.6,434.6 561.4,434.6 566.3,434.6 571.1,434.6 576.0,434.6 580.8,434.6 585.7,434.6 590.5,434.6 595.4,434.6 600.2,434.6 605.1,434.6 609.9,434.6 614.8,434.6 619.6,413.3 624.5,400.8 629.4,400.8 634.2,405.2 639.1,402.3 643.9,399.9 648.8,338.9 653.6,339.7 658.5,318.6 663.3,318.6 668.2,318.6 673.0,318.6 677.9,318.6 682.7,318.6 687.6,307.8 692.4,302.4 697.3,302.4 702.1,302.4 707.0,302.4 711.8,302.4 716.7,299.4 721.5,373.8 726.4,353.8 731.3,349.3 736.1,349.3 741.0,349.3 745.8,349.3 750.7,335.4 755.5,335.4 760.4,335.4 765.2,335.4 770.1,335.4 774.9,335.4 779.8,335.4 784.6,336.2 789.5,318.2 794.3,319.8 799.2,317.9 804.0,317.9 808.9,317.9 813.7,317.9 818.6,317.9 823.5,314.4 828.3,285.7 833.2,304.9 838.0,304.9 842.9,250.3 847.7,255.3 852.6,267.4 857.4,337.9 862.3,345.7 867.1,349.6 872.0,348.2 876.8,286.2 881.7,286.2 886.5,286.2 891.4,329.0 896.2,294.0 901.1,307.1 905.9,307.1 910.8,296.2 915.6,296.2 920.5,296.2 925.4,296.2 930.2,296.2 935.1,296.2 939.9,296.2 944.8,296.2 949.6,296.2 954.5,296.2 959.3,296.2 964.2,296.2 969.0,296.2 973.9,296.2 978.7,296.2 983.6,296.2 988.4,296.2 993.3,296.2 998.1,296.2 1003.0,296.7 1007.8,301.4 1012.7,301.4 1017.5,301.4 1022.4,318.5 1027.3,324.0 1032.1,322.8 1037.0,335.8 1041.8,335.8 1046.7,335.8 1051.5,335.8 1056.4,333.3 1061.2,325.3 1066.1,325.3 1070.9,325.3 1075.8,325.3 1080.6,325.3 1085.5,325.3 1090.3,325.3 1095.2,325.3 1100.0,328.5 1104.9,328.5 1109.7,328.5 1114.6,328.5 1119.4,328.5 1124.3,328.5 1129.2,328.5 1134.0,328.5 1138.9,328.5 1143.7,328.5 1148.6,328.5 1153.4,328.5 1158.3,328.5 1163.1,328.5 1168.0,328.5 1172.8,328.5 1177.7,328.5 1182.5,325.8 1187.4,325.8 1192.2,325.8 1197.1,325.8 1201.9,325.8 1206.8,325.8 1211.6,325.8 1216.5,325.8 1221.3,325.8 1226.2,312.6 1231.1,295.4 1235.9,297.9 1240.8,274.9 1245.6,263.1 1250.5,262.2 1255.3,262.2 1260.2,262.2 1265.0,262.2 1269.9,262.2 1274.7,262.2 1279.6,262.2 1284.4,262.2 1289.3,262.2 1294.1,262.2 1299.0,262.2 1303.8,262.2 1308.7,262.2 1313.5,262.2 1318.4,262.2 1323.2,262.2 1328.1,262.2 1333.0,262.2 1337.8,262.2 1342.7,262.2 1347.5,262.2 1352.4,262.2 1357.2,262.2 1362.1,262.2 1366.9,262.2 1371.8,262.2 1376.6,262.2 1381.5,262.2 1386.3,262.2 1391.2,259.0 1396.0,269.1 1400.9,269.1 1405.7,269.1 1410.6,269.1 1415.4,269.1 1420.3,269.1 1425.1,269.1 1430.0,269.1" fill="none" stroke="#2563a6" stroke-width="3"/>
<polyline points="115.0,497.3 119.9,497.3 124.7,497.3 129.6,497.3 134.4,497.3 139.3,497.3 144.1,495.3 149.0,495.3 153.8,495.3 158.7,495.3 163.5,495.3 168.4,495.3 173.2,495.3 178.1,495.3 182.9,483.8 187.8,484.1 192.6,484.1 197.5,484.1 202.3,484.1 207.2,484.1 212.0,484.1 216.9,484.1 221.8,484.1 226.6,484.1 231.5,484.1 236.3,484.1 241.2,484.1 246.0,484.3 250.9,484.3 255.7,484.3 260.6,484.3 265.4,484.3 270.3,484.3 275.1,484.3 280.0,484.3 284.8,484.3 289.7,484.3 294.5,484.3 299.4,484.3 304.2,484.3 309.1,474.9 313.9,474.1 318.8,474.1 323.7,472.3 328.5,470.8 333.4,470.8 338.2,470.8 343.1,470.8 347.9,470.8 352.8,470.8 357.6,470.8 362.5,469.2 367.3,469.8 372.2,469.8 377.0,469.8 381.9,469.8 386.7,469.8 391.6,469.8 396.4,469.8 401.3,469.8 406.1,469.8 411.0,469.8 415.8,469.8 420.7,469.8 425.6,469.8 430.4,469.8 435.3,469.8 440.1,469.8 445.0,469.8 449.8,472.2 454.7,468.1 459.5,468.1 464.4,468.1 469.2,468.1 474.1,468.1 478.9,468.1 483.8,468.1 488.6,468.1 493.5,468.2 498.3,474.9 503.2,434.0 508.0,436.8 512.9,436.8 517.7,436.8 522.6,436.8 527.5,436.8 532.3,436.8 537.2,436.8 542.0,436.8 546.9,436.8 551.7,436.8 556.6,436.8 561.4,436.8 566.3,436.8 571.1,436.8 576.0,436.8 580.8,436.8 585.7,436.8 590.5,436.8 595.4,436.8 600.2,436.8 605.1,436.8 609.9,436.8 614.8,436.8 619.6,415.6 624.5,403.3 629.4,403.3 634.2,407.7 639.1,404.9 643.9,402.6 648.8,342.2 653.6,343.3 658.5,322.6 663.3,322.6 668.2,322.6 673.0,322.6 677.9,322.6 682.7,322.6 687.6,312.0 692.4,306.7 697.3,306.7 702.1,306.7 707.0,306.7 711.8,306.7 716.7,303.7 721.5,378.1 726.4,358.7 731.3,354.3 736.1,354.3 741.0,354.3 745.8,354.3 750.7,340.6 755.5,340.6 760.4,340.6 765.2,340.6 770.1,340.6 774.9,340.6 779.8,340.6 784.6,341.7 789.5,323.9 794.3,325.5 799.2,323.6 804.0,323.6 808.9,323.6 813.7,323.6 818.6,323.6 823.5,320.7 828.3,292.5 833.2,311.7 838.0,311.7 842.9,257.9 847.7,263.1 852.6,275.5 857.4,345.8 862.3,353.9 867.1,358.2 872.0,356.9 876.8,296.1 881.7,296.1 886.5,296.1 891.4,338.7 896.2,304.3 901.1,317.5 905.9,317.5 910.8,306.9 915.6,306.9 920.5,306.9 925.4,306.9 930.2,306.9 935.1,306.9 939.9,306.9 944.8,306.9 949.6,306.9 954.5,306.9 959.3,306.9 964.2,306.9 969.0,306.9 973.9,306.9 978.7,306.9 983.6,306.9 988.4,306.9 993.3,306.9 998.1,306.9 1003.0,307.6 1007.8,312.3 1012.7,312.3 1017.5,312.3 1022.4,329.4 1027.3,335.4 1032.1,334.4 1037.0,347.5 1041.8,347.5 1046.7,347.5 1051.5,347.5 1056.4,345.2 1061.2,337.3 1066.1,337.3 1070.9,337.3 1075.8,337.3 1080.6,337.3 1085.5,337.3 1090.3,337.3 1095.2,337.3 1100.0,340.5 1104.9,340.5 1109.7,340.5 1114.6,340.5 1119.4,340.5 1124.3,340.5 1129.2,340.5 1134.0,340.5 1138.9,340.5 1143.7,340.5 1148.6,340.5 1153.4,340.5 1158.3,340.5 1163.1,340.5 1168.0,340.5 1172.8,340.5 1177.7,340.5 1182.5,338.1 1187.4,338.1 1192.2,338.1 1197.1,338.1 1201.9,338.1 1206.8,338.1 1211.6,338.1 1216.5,338.1 1221.3,338.1 1226.2,325.5 1231.1,308.5 1235.9,311.1 1240.8,288.5 1245.6,276.9 1250.5,276.5 1255.3,276.5 1260.2,276.5 1265.0,276.5 1269.9,276.5 1274.7,276.5 1279.6,276.5 1284.4,276.5 1289.3,276.5 1294.1,276.5 1299.0,276.5 1303.8,276.5 1308.7,276.5 1313.5,276.5 1318.4,276.5 1323.2,276.5 1328.1,276.5 1333.0,276.5 1337.8,276.5 1342.7,276.5 1347.5,276.5 1352.4,276.5 1357.2,276.5 1362.1,276.5 1366.9,276.5 1371.8,276.5 1376.6,276.5 1381.5,276.5 1386.3,276.5 1391.2,273.4 1396.0,283.5 1400.9,283.5 1405.7,283.5 1410.6,283.5 1415.4,283.5 1420.3,283.5 1425.1,283.5 1430.0,283.5" fill="none" stroke="#2563a6" stroke-width="3" stroke-dasharray="8 6"/>
<polyline points="115.0,497.3 119.9,497.3 124.7,497.3 129.6,497.3 134.4,497.3 139.3,497.3 144.1,494.9 149.0,494.9 153.8,494.9 158.7,494.9 163.5,494.9 168.4,494.9 173.2,494.9 178.1,494.9 182.9,485.4 187.8,483.4 192.6,483.4 197.5,483.4 202.3,483.4 207.2,483.4 212.0,483.4 216.9,483.4 221.8,485.1 226.6,483.8 231.5,483.8 236.3,483.8 241.2,483.8 246.0,483.8 250.9,483.8 255.7,483.8 260.6,483.8 265.4,483.8 270.3,483.8 275.1,483.8 280.0,483.8 284.8,483.8 289.7,477.4 294.5,477.4 299.4,477.4 304.2,477.4 309.1,477.4 313.9,477.4 318.8,477.0 323.7,450.6 328.5,442.4 333.4,442.4 338.2,442.4 343.1,442.4 347.9,440.9 352.8,443.0 357.6,443.0 362.5,433.2 367.3,434.1 372.2,434.1 377.0,434.1 381.9,431.3 386.7,428.5 391.6,398.7 396.4,398.7 401.3,398.7 406.1,398.7 411.0,398.7 415.8,398.7 420.7,398.7 425.6,398.7 430.4,394.8 435.3,392.0 440.1,392.0 445.0,392.0 449.8,394.5 454.7,399.0 459.5,373.2 464.4,373.2 469.2,373.2 474.1,373.2 478.9,373.2 483.8,373.2 488.6,373.2 493.5,378.7 498.3,398.1 503.2,353.0 508.0,353.0 512.9,353.0 517.7,353.0 522.6,353.0 527.5,353.0 532.3,353.0 537.2,353.0 542.0,353.0 546.9,353.0 551.7,353.0 556.6,353.0 561.4,353.0 566.3,353.0 571.1,353.0 576.0,353.0 580.8,353.0 585.7,353.0 590.5,353.0 595.4,357.7 600.2,356.8 605.1,356.8 609.9,356.8 614.8,356.8 619.6,334.3 624.5,319.0 629.4,319.0 634.2,315.4 639.1,304.4 643.9,301.8 648.8,267.4 653.6,273.7 658.5,228.7 663.3,236.0 668.2,238.7 673.0,238.7 677.9,238.7 682.7,238.7 687.6,213.8 692.4,205.9 697.3,205.9 702.1,205.9 707.0,205.9 711.8,205.9 716.7,216.0 721.5,297.8 726.4,291.8 731.3,288.0 736.1,292.2 741.0,283.7 745.8,283.7 750.7,268.8 755.5,273.6 760.4,265.2 765.2,258.3 770.1,258.3 774.9,258.3 779.8,258.3 784.6,259.3 789.5,232.7 794.3,236.8 799.2,237.7 804.0,237.7 808.9,237.7 813.7,237.7 818.6,237.7 823.5,261.9 828.3,258.2 833.2,250.7 838.0,250.7 842.9,182.7 847.7,198.4 852.6,245.9 857.4,289.3 862.3,277.3 867.1,285.7 872.0,300.5 876.8,271.1 881.7,275.4 886.5,281.7 891.4,319.0 896.2,305.9 901.1,313.9 905.9,313.9 910.8,316.6 915.6,316.6 920.5,316.6 925.4,316.6 930.2,316.6 935.1,316.6 939.9,316.6 944.8,316.6 949.6,316.6 954.5,316.6 959.3,316.6 964.2,316.6 969.0,316.6 973.9,316.6 978.7,316.6 983.6,316.6 988.4,316.6 993.3,320.9 998.1,317.9 1003.0,318.4 1007.8,299.5 1012.7,304.0 1017.5,304.0 1022.4,330.5 1027.3,338.0 1032.1,314.3 1037.0,299.4 1041.8,309.9 1046.7,297.5 1051.5,297.5 1056.4,292.8 1061.2,273.5 1066.1,273.5 1070.9,266.5 1075.8,258.8 1080.6,258.8 1085.5,258.8 1090.3,258.8 1095.2,258.8 1100.0,262.2 1104.9,262.2 1109.7,262.2 1114.6,262.2 1119.4,262.2 1124.3,262.2 1129.2,262.2 1134.0,262.2 1138.9,262.2 1143.7,262.2 1148.6,262.2 1153.4,262.2 1158.3,262.2 1163.1,262.2 1168.0,262.2 1172.8,262.2 1177.7,262.2 1182.5,262.2 1187.4,262.2 1192.2,262.2 1197.1,262.2 1201.9,253.3 1206.8,254.1 1211.6,255.0 1216.5,255.0 1221.3,255.0 1226.2,279.0 1231.1,282.3 1235.9,282.3 1240.8,265.5 1245.6,245.0 1250.5,239.5 1255.3,238.7 1260.2,238.7 1265.0,238.7 1269.9,238.7 1274.7,238.7 1279.6,238.7 1284.4,238.7 1289.3,238.7 1294.1,238.7 1299.0,238.7 1303.8,238.7 1308.7,238.7 1313.5,232.1 1318.4,215.9 1323.2,215.9 1328.1,215.9 1333.0,215.9 1337.8,215.9 1342.7,215.9 1347.5,215.9 1352.4,214.4 1357.2,214.4 1362.1,214.4 1366.9,214.4 1371.8,214.4 1376.6,214.4 1381.5,214.4 1386.3,214.4 1391.2,203.4 1396.0,241.7 1400.9,237.9 1405.7,237.9 1410.6,237.9 1415.4,237.9 1420.3,237.9 1425.1,237.9 1430.0,237.9" fill="none" stroke="#0f766e" stroke-width="3"/>
<polyline points="115.0,497.3 119.9,497.3 124.7,497.3 129.6,497.3 134.4,497.3 139.3,497.3 144.1,495.3 149.0,495.3 153.8,495.3 158.7,495.3 163.5,495.3 168.4,495.3 173.2,495.3 178.1,495.3 182.9,485.9 187.8,484.0 192.6,484.0 197.5,484.0 202.3,484.0 207.2,484.0 212.0,484.0 216.9,484.0 221.8,485.7 226.6,484.4 231.5,484.4 236.3,484.4 241.2,484.4 246.0,484.6 250.9,484.6 255.7,484.6 260.6,484.6 265.4,484.6 270.3,484.6 275.1,484.6 280.0,484.6 284.8,484.6 289.7,478.3 294.5,478.3 299.4,478.3 304.2,478.3 309.1,478.3 313.9,478.3 318.8,478.1 323.7,451.9 328.5,444.3 333.4,444.3 338.2,444.3 343.1,444.3 347.9,442.9 352.8,445.0 357.6,445.0 362.5,435.4 367.3,436.4 372.2,436.4 377.0,436.4 381.9,433.6 386.7,431.0 391.6,401.5 396.4,401.5 401.3,401.5 406.1,401.5 411.0,401.5 415.8,401.5 420.7,401.5 425.6,401.5 430.4,397.7 435.3,395.0 440.1,395.0 445.0,395.0 449.8,397.7 454.7,402.3 459.5,376.8 464.4,376.8 469.2,376.8 474.1,376.8 478.9,376.8 483.8,376.8 488.6,376.8 493.5,382.4 498.3,402.0 503.2,357.3 508.0,357.5 512.9,357.5 517.7,357.5 522.6,357.5 527.5,357.5 532.3,357.5 537.2,357.5 542.0,357.5 546.9,357.5 551.7,357.5 556.6,357.5 561.4,357.5 566.3,357.5 571.1,357.5 576.0,357.5 580.8,357.5 585.7,357.5 590.5,357.5 595.4,362.2 600.2,361.3 605.1,361.3 609.9,361.3 614.8,361.3 619.6,339.2 624.5,324.1 629.4,324.1 634.2,320.6 639.1,309.8 643.9,307.3 648.8,273.4 653.6,280.1 658.5,235.6 663.3,243.2 668.2,246.1 673.0,246.1 677.9,246.1 682.7,246.1 687.6,221.5 692.4,213.8 697.3,213.8 702.1,213.8 707.0,213.8 711.8,213.8 716.7,224.0 721.5,305.8 726.4,300.2 731.3,296.6 736.1,300.9 741.0,292.6 745.8,292.6 750.7,278.1 755.5,282.9 760.4,274.7 765.2,268.0 770.1,268.0 774.9,268.0 779.8,268.0 784.6,269.1 789.5,242.9 794.3,247.1 799.2,248.1 804.0,248.1 808.9,248.1 813.7,248.1 818.6,248.1 823.5,272.5 828.3,269.3 833.2,262.1 838.0,262.1 842.9,195.7 847.7,211.3 852.6,258.5 857.4,301.8 862.3,290.3 867.1,299.0 872.0,313.8 876.8,285.1 881.7,289.5 886.5,295.9 891.4,333.2 896.2,320.5 901.1,328.6 905.9,328.6 910.8,331.5 915.6,331.5 920.5,331.5 925.4,331.5 930.2,331.5 935.1,331.5 939.9,331.5 944.8,331.5 949.6,331.5 954.5,331.5 959.3,331.5 964.2,331.5 969.0,331.5 973.9,331.5 978.7,331.5 983.6,331.5 988.4,331.5 993.3,335.8 998.1,332.9 1003.0,333.6 1007.8,315.2 1012.7,319.7 1017.5,319.7 1022.4,346.2 1027.3,354.1 1032.1,331.0 1037.0,317.0 1041.8,327.5 1046.7,315.4 1051.5,315.4 1056.4,310.9 1061.2,292.1 1066.1,292.1 1070.9,285.3 1075.8,277.8 1080.6,277.8 1085.5,277.8 1090.3,277.8 1095.2,277.8 1100.0,281.3 1104.9,281.3 1109.7,281.3 1114.6,281.3 1119.4,281.3 1124.3,281.3 1129.2,281.3 1134.0,281.3 1138.9,281.3 1143.7,281.3 1148.6,281.3 1153.4,281.3 1158.3,281.3 1163.1,281.3 1168.0,281.3 1172.8,281.3 1177.7,281.3 1182.5,281.3 1187.4,281.3 1192.2,281.3 1197.1,281.3 1201.9,272.6 1206.8,273.5 1211.6,274.5 1216.5,274.5 1221.3,274.5 1226.2,298.6 1231.1,301.8 1235.9,301.8 1240.8,285.5 1245.6,265.5 1250.5,260.5 1255.3,259.7 1260.2,259.7 1265.0,259.7 1269.9,259.7 1274.7,259.7 1279.6,259.7 1284.4,259.7 1289.3,259.7 1294.1,259.7 1299.0,259.7 1303.8,259.7 1308.7,259.7 1313.5,253.5 1318.4,237.7 1323.2,237.7 1328.1,237.7 1333.0,237.7 1337.8,237.7 1342.7,237.7 1347.5,237.7 1352.4,236.6 1357.2,236.6 1362.1,236.6 1366.9,236.6 1371.8,236.6 1376.6,236.6 1381.5,236.6 1386.3,236.6 1391.2,225.9 1396.0,263.6 1400.9,260.0 1405.7,260.0 1410.6,260.0 1415.4,260.0 1420.3,260.0 1425.1,260.0 1430.0,260.0" fill="none" stroke="#0f766e" stroke-width="3" stroke-dasharray="8 6"/>
<text x="115.0" y="567" text-anchor="middle" class="axis">2024-10-01</text>
<text x="774.9" y="567" text-anchor="middle" class="axis">2025-02-14</text>
<text x="1430.0" y="567" text-anchor="middle" class="axis">2025-06-29</text>
<line x1="900" y1="52" x2="934" y2="52" stroke="#2563a6" stroke-width="4"/><text x="944" y="57" class="note">Proper utility multitask</text>
<line x1="1170" y1="52" x2="1204" y2="52" stroke="#0f766e" stroke-width="4"/><text x="1214" y="57" class="note">Utility + pairwise rank</text>
<line x1="955" y1="79" x2="989" y2="79" stroke="#52606d" stroke-width="3"/><text x="999" y="84" class="note">base cost</text>
<line x1="1095" y1="79" x2="1129" y2="79" stroke="#52606d" stroke-width="3" stroke-dasharray="7 5"/><text x="1139" y="84" class="note">stress cost</text>
</svg>
