<svg xmlns="http://www.w3.org/2000/svg" width="1500" height="610" viewBox="0 0 1500 610" role="img" aria-labelledby="title desc">
<title id="title">Dated hurdle equity path</title>
<desc id="desc">One-third unlevered sleeves and exact close-time booking; the path is consumed development evidence, not deployable performance.</desc>
<rect width="100%" height="100%" fill="#ffffff"/>
<style>text{font-family:"Segoe UI",Arial,sans-serif;letter-spacing:0}.title{font-size:27px;font-weight:700;fill:#17212b}.subtitle{font-size:14px;fill:#52606d}.label{font-size:13px;fill:#263746}.axis{font-size:12px;fill:#60717f}.value{font-size:12px;font-weight:650;fill:#263746}.note{font-size:12px;fill:#65727d}.grid{stroke:#e1e8ed;stroke-width:1}.zero{stroke:#526674;stroke-width:2;stroke-dasharray:6 5}</style>
<text x="56" y="52" class="title">Dated hurdle equity path</text>
<text x="56" y="80" class="subtitle">One-third unlevered sleeves and exact close-time booking; the path is consumed development evidence, not deployable performance.</text>
<rect x="930" y="42" width="18" height="18" fill="#0f766e"/><text x="958" y="56" class="note">12 bps base</text>
<rect x="1170" y="42" width="18" height="18" fill="#b45309"/><text x="1198" y="56" class="note">16 bps stress</text>
<line x1="120" y1="475.0" x2="1430" y2="475.0" class="grid"/>
<text x="106" y="479.0" text-anchor="end" class="axis">0.939</text>
<line x1="120" y1="265.5" x2="1430" y2="265.5" class="zero"/>
<text x="106" y="269.5" text-anchor="end" class="axis">1.000</text>
<line x1="120" y1="145.0" x2="1430" y2="145.0" class="grid"/>
<text x="106" y="149.0" text-anchor="end" class="axis">1.035</text>
<polyline points="120.0,265.5 127.3,265.5 134.6,265.5 141.8,265.5 149.1,265.5 156.4,265.5 163.7,267.1 170.9,267.1 178.2,267.1 185.5,267.1 192.8,267.1 200.1,267.1 207.3,225.7 214.6,225.7 221.9,225.7 229.2,225.7 236.4,225.7 243.7,300.1 251.0,398.1 258.3,418.3 265.6,406.5 272.8,399.9 280.1,412.8 287.4,412.8 294.7,412.8 301.9,412.8 309.2,428.7 316.5,428.7 323.8,428.7 331.1,428.7 338.3,428.7 345.6,428.7 352.9,394.2 360.2,340.3 367.4,353.7 374.7,353.7 382.0,353.7 389.3,353.7 396.6,353.7 403.8,353.7 411.1,353.7 418.4,353.7 425.7,353.7 432.9,353.7 440.2,353.7 447.5,353.7 454.8,353.7 462.1,353.7 469.3,361.0 476.6,361.0 483.9,361.0 491.2,361.0 498.4,361.0 505.7,361.0 513.0,377.6 520.3,294.7 527.6,308.1 534.8,308.1 542.1,308.1 549.4,308.1 556.7,202.8 563.9,220.4 571.2,167.8 578.5,167.8 585.8,167.8 593.1,188.2 600.3,188.2 607.6,188.2 614.9,204.9 622.2,169.4 629.4,169.4 636.7,169.4 644.0,169.4 651.3,169.4 658.6,169.4 665.8,169.4 673.1,169.4 680.4,169.4 687.7,169.4 694.9,169.4 702.2,169.4 709.5,169.4 716.8,169.4 724.1,169.4 731.3,169.4 738.6,169.4 745.9,169.4 753.2,169.4 760.4,169.4 767.7,169.4 775.0,169.4 782.3,236.9 789.6,236.9 796.8,236.9 804.1,236.9 811.4,223.1 818.7,282.4 825.9,276.7 833.2,216.8 840.5,218.6 847.8,218.6 855.1,218.6 862.3,218.6 869.6,218.6 876.9,218.6 884.2,218.6 891.4,218.6 898.7,218.6 906.0,218.6 913.3,218.6 920.6,218.6 927.8,218.6 935.1,218.6 942.4,218.6 949.7,218.6 956.9,218.6 964.2,218.6 971.5,218.6 978.8,218.6 986.1,218.6 993.3,218.6 1000.6,218.6 1007.9,218.6 1015.2,218.6 1022.4,218.6 1029.7,218.6 1037.0,218.6 1044.3,218.6 1051.6,213.9 1058.8,213.9 1066.1,213.9 1073.4,213.9 1080.7,213.9 1087.9,213.9 1095.2,213.9 1102.5,213.9 1109.8,213.9 1117.1,199.5 1124.3,199.5 1131.6,199.5 1138.9,199.5 1146.2,199.5 1153.4,199.5 1160.7,199.5 1168.0,199.5 1175.3,199.5 1182.6,199.5 1189.8,199.5 1197.1,199.5 1204.4,199.5 1211.7,199.5 1218.9,199.5 1226.2,199.5 1233.5,199.5 1240.8,199.5 1248.1,199.5 1255.3,199.5 1262.6,199.5 1269.9,199.5 1277.2,199.5 1284.4,202.3 1291.7,202.3 1299.0,202.3 1306.3,196.3 1313.6,196.3 1320.8,196.3 1328.1,196.3 1335.4,196.3 1342.7,196.3 1349.9,196.3 1357.2,195.4 1364.5,190.2 1371.8,178.6 1379.1,178.6 1386.3,178.6 1393.6,178.6 1400.9,178.6 1408.2,178.6 1415.4,178.6 1422.7,178.6 1430.0,178.6" fill="none" stroke="#0f766e" stroke-width="3"/>
<polyline points="120.0,265.5 127.3,265.5 134.6,265.5 141.8,265.5 149.1,265.5 156.4,265.5 163.7,267.5 170.9,267.5 178.2,267.5 185.5,267.5 192.8,267.5 200.1,267.5 207.3,226.6 214.6,226.6 221.9,226.6 229.2,226.6 236.4,226.6 243.7,302.8 251.0,409.5 258.3,439.3 265.6,428.4 272.8,422.8 280.1,436.0 287.4,436.0 294.7,436.0 301.9,436.0 309.2,452.2 316.5,452.2 323.8,452.2 331.1,452.2 338.3,452.2 345.6,452.2 352.9,419.7 360.2,375.6 367.4,389.2 374.7,389.2 382.0,389.2 389.3,389.2 396.6,389.2 403.8,389.2 411.1,389.2 418.4,389.2 425.7,389.2 432.9,389.2 440.2,389.2 447.5,389.2 454.8,389.2 462.1,389.2 469.3,397.3 476.6,397.3 483.9,397.3 491.2,397.3 498.4,397.3 505.7,397.3 513.0,415.6 520.3,338.9 527.6,352.6 534.8,352.6 542.1,353.5 549.4,353.5 556.7,251.4 563.9,271.5 571.2,225.2 578.5,225.2 585.8,225.2 593.1,245.8 600.3,245.8 607.6,245.8 614.9,265.0 622.2,231.9 629.4,231.9 636.7,231.9 644.0,231.9 651.3,231.9 658.6,231.9 665.8,231.9 673.1,231.9 680.4,231.9 687.7,231.9 694.9,231.9 702.2,231.9 709.5,231.9 716.8,231.9 724.1,231.9 731.3,231.9 738.6,231.9 745.9,231.9 753.2,231.9 760.4,231.9 767.7,231.9 775.0,231.9 782.3,299.2 789.6,299.2 796.8,299.2 804.1,299.2 811.4,287.8 818.7,350.5 825.9,345.4 833.2,288.6 840.5,290.8 847.8,290.8 855.1,290.8 862.3,290.8 869.6,290.8 876.9,290.8 884.2,290.8 891.4,290.8 898.7,290.8 906.0,290.8 913.3,290.8 920.6,290.8 927.8,290.8 935.1,290.8 942.4,290.8 949.7,290.8 956.9,290.8 964.2,290.8 971.5,290.8 978.8,290.8 986.1,290.8 993.3,290.8 1000.6,290.8 1007.9,290.8 1015.2,290.8 1022.4,290.8 1029.7,290.8 1037.0,290.8 1044.3,290.8 1051.6,286.6 1058.8,286.6 1066.1,286.6 1073.4,286.6 1080.7,286.6 1087.9,286.6 1095.2,286.6 1102.5,286.6 1109.8,286.6 1117.1,272.9 1124.3,272.9 1131.6,272.9 1138.9,272.9 1146.2,272.9 1153.4,272.9 1160.7,272.9 1168.0,272.9 1175.3,272.9 1182.6,272.9 1189.8,272.9 1197.1,272.9 1204.4,272.9 1211.7,272.9 1218.9,272.9 1226.2,272.9 1233.5,272.9 1240.8,272.9 1248.1,272.9 1255.3,272.9 1262.6,272.9 1269.9,272.9 1277.2,272.9 1284.4,276.1 1291.7,276.1 1299.0,276.1 1306.3,271.2 1313.6,271.2 1320.8,271.2 1328.1,271.2 1335.4,271.2 1342.7,271.2 1349.9,271.2 1357.2,270.8 1364.5,266.2 1371.8,255.3 1379.1,255.3 1386.3,255.3 1393.6,255.3 1400.9,255.3 1408.2,255.3 1415.4,255.3 1422.7,255.3 1430.0,255.3" fill="none" stroke="#b45309" stroke-width="3"/>
<text x="120.0" y="505" text-anchor="middle" class="axis">2025-01-01</text>
<text x="556.7" y="505" text-anchor="middle" class="axis">2025-03-02</text>
<text x="993.3" y="505" text-anchor="middle" class="axis">2025-05-01</text>
<text x="1430.0" y="505" text-anchor="middle" class="axis">2025-06-30</text>
</svg>
