<svg xmlns="http://www.w3.org/2000/svg" width="1500" height="720" viewBox="0 0 1500 720" role="img" aria-labelledby="title desc">
<title id="title">Dated equity confirms unstable, high-drawdown economics</title>
<desc id="desc">Daily close of every hourly portfolio ledger, 2024-10-01 through 2025-06-29 UTC; no missing months or synthetic interpolation.</desc>
<rect width="100%" height="100%" fill="#ffffff"/>
<style>text{font-family:"Segoe UI",Arial,sans-serif;letter-spacing:0}.title{font-size:27px;font-weight:700;fill:#17212b}.subtitle{font-size:14px;fill:#52606d}.label{font-size:13px;fill:#263746}.axis{font-size:12px;fill:#60717f}.value{font-size:12px;font-weight:650;fill:#263746}.note{font-size:12px;fill:#65727d}.grid{stroke:#e1e8ed;stroke-width:1}.zero{stroke:#526674;stroke-width:2;stroke-dasharray:6 5}</style>
<text x="56" y="52" class="title">Dated equity confirms unstable, high-drawdown economics</text>
<text x="56" y="80" class="subtitle">Daily close of every hourly portfolio ledger, 2024-10-01 through 2025-06-29 UTC; no missing months or synthetic interpolation.</text>
<rect x="120" y="145" width="1310" height="390" fill="#ffffff" stroke="#d8e0e7"/>
<line x1="120" y1="486.2" x2="1430" y2="486.2" class="grid"/><text x="106" y="490.2" text-anchor="end" class="axis">-40%</text>
<line x1="120" y1="421.2" x2="1430" y2="421.2" class="grid"/><text x="106" y="425.2" text-anchor="end" class="axis">-20%</text>
<line x1="120" y1="356.2" x2="1430" y2="356.2" class="zero"/><text x="106" y="360.2" text-anchor="end" class="axis">+0%</text>
<line x1="120" y1="291.2" x2="1430" y2="291.2" class="grid"/><text x="106" y="295.2" text-anchor="end" class="axis">+20%</text>
<line x1="120" y1="226.2" x2="1430" y2="226.2" class="grid"/><text x="106" y="230.2" text-anchor="end" class="axis">+40%</text>
<line x1="120" y1="161.2" x2="1430" y2="161.2" class="grid"/><text x="106" y="165.2" text-anchor="end" class="axis">+60%</text>
<polyline points="120.0,363.4 124.8,371.7 129.7,365.1 134.5,372.7 139.3,372.5 144.2,375.9 149.0,381.7 153.8,381.6 158.7,377.3 163.5,375.9 168.3,386.5 173.2,390.7 178.0,390.9 182.8,391.3 187.7,388.7 192.5,387.5 197.3,384.7 202.2,391.9 207.0,394.8 211.8,398.9 216.7,400.5 221.5,405.0 226.3,414.3 231.2,418.9 236.0,407.8 240.8,407.6 245.7,412.8 250.5,413.2 255.4,409.4 260.2,409.0 265.0,398.3 269.9,398.6 274.7,399.6 279.5,397.9 284.4,399.1 289.2,399.7 294.0,411.2 298.9,422.5 303.7,427.0 308.5,429.0 313.4,436.3 318.2,435.3 323.0,437.8 327.9,440.8 332.7,432.9 337.5,439.5 342.4,438.7 347.2,445.7 352.0,448.3 356.9,443.5 361.7,443.0 366.5,454.8 371.4,454.7 376.2,453.3 381.0,452.3 385.9,449.1 390.7,453.3 395.5,457.9 400.4,455.3 405.2,458.9 410.0,460.1 414.9,458.8 419.7,455.4 424.5,458.9 429.4,453.9 434.2,454.7 439.0,458.4 443.9,458.6 448.7,457.5 453.5,461.4 458.4,464.5 463.2,461.4 468.0,461.8 472.9,463.0 477.7,459.6 482.5,462.8 487.4,461.3 492.2,466.0 497.0,466.9 501.9,464.7 506.7,452.9 511.5,448.5 516.4,450.1 521.2,447.9 526.1,453.3 530.9,454.7 535.7,444.9 540.6,442.4 545.4,449.6 550.2,444.6 555.1,446.8 559.9,446.8 564.7,449.1 569.6,452.8 574.4,461.2 579.2,462.4 584.1,460.9 588.9,460.7 593.7,448.0 598.6,450.2 603.4,450.9 608.2,453.2 613.1,452.6 617.9,452.7 622.7,449.2 627.6,448.4 632.4,463.6 637.2,463.3 642.1,473.4 646.9,457.0 651.7,464.1 656.6,476.5 661.4,471.0 666.2,469.2 671.1,472.0 675.9,473.2 680.7,476.6 685.6,473.0 690.4,466.1 695.2,457.7 700.1,461.1 704.9,468.4 709.7,465.8 714.6,457.1 719.4,457.9 724.2,452.4 729.1,457.2 733.9,455.6 738.7,451.5 743.6,449.1 748.4,453.6 753.2,454.0 758.1,453.0 762.9,447.6 767.7,449.9 772.6,448.3 777.4,452.7 782.3,449.7 787.1,449.6 791.9,441.8 796.8,444.3 801.6,440.6 806.4,447.1 811.3,439.4 816.1,439.8 820.9,437.3 825.8,451.9 830.6,454.5 835.4,451.9 840.3,452.8 845.1,463.2 849.9,470.7 854.8,499.6 859.6,490.7 864.4,485.7 869.3,489.9 874.1,486.6 878.9,482.8 883.8,484.8 888.6,476.2 893.4,476.7 898.3,474.0 903.1,473.9 907.9,468.9 912.8,479.1 917.6,481.6 922.4,475.7 927.3,473.8 932.1,474.7 936.9,479.8 941.8,471.0 946.6,471.8 951.4,470.8 956.3,472.6 961.1,479.1 965.9,481.5 970.8,481.0 975.6,479.7 980.4,471.9 985.3,471.8 990.1,472.6 994.9,473.8 999.8,469.0 1004.6,463.6 1009.4,463.0 1014.3,468.8 1019.1,467.3 1023.9,446.8 1028.8,448.6 1033.6,447.1 1038.5,462.6 1043.3,456.6 1048.1,456.6 1053.0,466.0 1057.8,463.2 1062.6,457.8 1067.5,459.0 1072.3,463.3 1077.1,464.6 1082.0,464.0 1086.8,466.6 1091.6,463.8 1096.5,464.4 1101.3,459.4 1106.1,458.8 1111.0,459.1 1115.8,461.2 1120.6,461.1 1125.5,460.8 1130.3,457.6 1135.1,458.0 1140.0,460.2 1144.8,462.0 1149.6,462.0 1154.5,461.2 1159.3,459.0 1164.1,460.9 1169.0,458.8 1173.8,458.3 1178.6,476.4 1183.5,484.2 1188.3,480.6 1193.1,478.3 1198.0,480.0 1202.8,477.7 1207.6,476.4 1212.5,472.7 1217.3,473.4 1222.1,473.8 1227.0,478.8 1231.8,474.2 1236.6,476.7 1241.5,480.9 1246.3,486.9 1251.1,481.3 1256.0,481.8 1260.8,481.0 1265.6,480.4 1270.5,476.7 1275.3,476.8 1280.1,473.5 1285.0,466.3 1289.8,466.5 1294.6,465.5 1299.5,463.3 1304.3,463.2 1309.2,465.2 1314.0,462.1 1318.8,460.4 1323.7,463.6 1328.5,464.7 1333.3,461.3 1338.2,460.5 1343.0,459.0 1347.8,460.2 1352.7,468.0 1357.5,468.9 1362.3,472.4 1367.2,472.6 1372.0,478.1 1376.8,480.4 1381.7,479.8 1386.5,472.2 1391.3,474.0 1396.2,476.5 1401.0,469.9 1405.8,469.6 1410.7,470.4 1415.5,468.1 1420.3,469.3 1425.2,472.6 1430.0,473.2" fill="none" stroke="#2563a6" stroke-width="3"/>
<polyline points="120.0,363.4 124.8,371.9 129.7,365.4 134.5,373.3 139.3,373.2 144.2,376.6 149.0,382.5 153.8,382.5 158.7,378.4 163.5,377.1 168.3,387.7 173.2,392.0 178.0,392.4 182.8,392.9 187.7,390.4 192.5,389.3 197.3,386.7 202.2,394.0 207.0,397.0 211.8,401.1 216.7,402.8 221.5,407.4 226.3,416.7 231.2,421.4 236.0,410.5 240.8,410.3 245.7,415.6 250.5,416.1 255.4,412.5 260.2,412.1 265.0,401.7 269.9,402.0 274.7,403.2 279.5,401.6 284.4,402.9 289.2,403.7 294.0,415.2 298.9,426.3 303.7,430.9 308.5,433.0 313.4,440.3 318.2,439.5 323.0,442.0 327.9,445.2 332.7,437.5 337.5,444.1 342.4,443.4 347.2,450.3 352.0,453.1 356.9,448.5 361.7,448.0 366.5,459.7 371.4,459.7 376.2,458.4 381.0,457.5 385.9,454.6 390.7,458.8 395.5,463.4 400.4,460.9 405.2,464.4 410.0,465.7 414.9,464.5 419.7,461.4 424.5,464.9 429.4,460.1 434.2,460.9 439.0,464.7 443.9,464.9 448.7,464.0 453.5,467.8 458.4,471.1 463.2,468.1 468.0,468.6 472.9,469.8 477.7,466.6 482.5,469.7 487.4,468.5 492.2,473.1 497.0,474.1 501.9,472.2 506.7,460.8 511.5,456.8 516.4,458.3 521.2,456.3 526.1,461.6 530.9,463.1 535.7,453.8 540.6,451.4 545.4,458.5 550.2,453.7 555.1,455.9 559.9,456.0 564.7,458.3 569.6,462.0 574.4,470.1 579.2,471.3 584.1,470.0 588.9,469.8 593.7,457.7 598.6,460.0 603.4,460.7 608.2,463.1 613.1,462.5 617.9,462.7 622.7,459.5 627.6,458.8 632.4,473.5 637.2,473.3 642.1,483.0 646.9,467.4 651.7,474.3 656.6,486.2 661.4,481.1 666.2,479.5 671.1,482.2 675.9,483.5 680.7,486.8 685.6,483.5 690.4,477.0 695.2,469.2 700.1,472.5 704.9,479.5 709.7,477.1 714.6,469.0 719.4,469.9 724.2,464.7 729.1,469.3 733.9,468.0 738.7,464.2 743.6,461.9 748.4,466.2 753.2,466.8 758.1,465.9 762.9,461.0 767.7,463.2 772.6,461.8 777.4,466.0 782.3,463.2 787.1,463.2 791.9,456.0 796.8,458.5 801.6,455.2 806.4,461.4 811.3,454.2 816.1,454.7 820.9,452.4 825.8,466.3 830.6,468.9 835.4,466.6 840.3,467.5 845.1,477.4 849.9,484.5 854.8,511.6 859.6,503.4 864.4,498.8 869.3,502.7 874.1,499.8 878.9,496.4 883.8,498.3 888.6,490.4 893.4,490.9 898.3,488.6 903.1,488.5 907.9,483.9 912.8,493.6 917.6,496.0 922.4,490.6 927.3,488.9 932.1,489.8 936.9,494.6 941.8,486.5 946.6,487.4 951.4,486.5 956.3,488.2 961.1,494.3 965.9,496.6 970.8,496.2 975.6,495.1 980.4,488.0 985.3,488.0 990.1,488.8 994.9,490.0 999.8,485.6 1004.6,480.7 1009.4,480.3 1014.3,485.8 1019.1,484.5 1023.9,465.7 1028.8,467.5 1033.6,466.3 1038.5,480.7 1043.3,475.4 1048.1,475.5 1053.0,484.2 1057.8,481.8 1062.6,476.9 1067.5,478.0 1072.3,482.1 1077.1,483.3 1082.0,482.8 1086.8,485.3 1091.6,482.8 1096.5,483.5 1101.3,479.0 1106.1,478.5 1111.0,478.9 1115.8,480.9 1120.6,480.8 1125.5,480.6 1130.3,477.8 1135.1,478.2 1140.0,480.3 1144.8,482.0 1149.6,482.1 1154.5,481.4 1159.3,479.5 1164.1,481.2 1169.0,479.5 1173.8,479.1 1178.6,495.6 1183.5,502.7 1188.3,499.6 1193.1,497.5 1198.0,499.2 1202.8,497.2 1207.6,496.1 1212.5,492.9 1217.3,493.6 1222.1,494.0 1227.0,498.6 1231.8,494.5 1236.6,496.9 1241.5,500.7 1246.3,506.2 1251.1,501.3 1256.0,501.8 1260.8,501.1 1265.6,500.6 1270.5,497.4 1275.3,497.5 1280.1,494.6 1285.0,488.3 1289.8,488.6 1294.6,487.7 1299.5,485.8 1304.3,485.9 1309.2,487.7 1314.0,485.0 1318.8,483.5 1323.7,486.4 1328.5,487.4 1333.3,484.4 1338.2,483.8 1343.0,482.6 1347.8,483.8 1352.7,490.8 1357.5,491.7 1362.3,494.9 1367.2,495.2 1372.0,500.2 1376.8,502.4 1381.7,502.0 1386.5,495.2 1391.3,496.9 1396.2,499.1 1401.0,493.4 1405.8,493.3 1410.7,494.0 1415.5,492.1 1420.3,493.2 1425.2,496.1 1430.0,496.7" fill="none" stroke="#2563a6" stroke-width="3" stroke-dasharray="8 6"/>
<polyline points="120.0,346.4 124.8,347.8 129.7,339.7 134.5,347.9 139.3,347.7 144.2,352.2 149.0,351.3 153.8,352.6 158.7,348.1 163.5,350.4 168.3,362.2 173.2,365.2 178.0,366.2 182.8,369.7 187.7,365.0 192.5,363.1 197.3,361.1 202.2,368.7 207.0,372.0 211.8,382.0 216.7,378.3 221.5,377.3 226.3,382.4 231.2,387.9 236.0,378.8 240.8,378.1 245.7,383.5 250.5,382.4 255.4,382.3 260.2,378.1 265.0,367.0 269.9,365.8 274.7,366.0 279.5,367.6 284.4,368.9 289.2,372.6 294.0,378.5 298.9,390.0 303.7,393.0 308.5,393.4 313.4,397.7 318.2,387.5 323.0,385.6 327.9,390.6 332.7,377.3 337.5,385.7 342.4,387.0 347.2,398.8 352.0,394.9 356.9,392.7 361.7,390.9 366.5,409.2 371.4,406.3 376.2,403.1 381.0,400.0 385.9,397.3 390.7,398.7 395.5,408.8 400.4,405.5 405.2,409.1 410.0,409.6 414.9,409.7 419.7,408.9 424.5,405.2 429.4,402.1 434.2,403.6 439.0,404.7 443.9,406.0 448.7,408.3 453.5,405.7 458.4,410.8 463.2,406.0 468.0,407.0 472.9,408.4 477.7,405.8 482.5,409.3 487.4,407.0 492.2,413.7 497.0,411.5 501.9,406.1 506.7,396.4 511.5,391.8 516.4,392.8 521.2,395.8 526.1,395.2 530.9,396.3 535.7,384.9 540.6,381.2 545.4,387.9 550.2,383.3 555.1,380.8 559.9,383.1 564.7,387.0 569.6,386.6 574.4,396.4 579.2,399.5 584.1,398.8 588.9,399.4 593.7,393.4 598.6,396.9 603.4,398.7 608.2,395.4 613.1,394.6 617.9,394.6 622.7,402.5 627.6,400.5 632.4,406.7 637.2,406.1 642.1,418.7 646.9,403.8 651.7,397.7 656.6,415.8 661.4,409.4 666.2,406.2 671.1,401.3 675.9,392.4 680.7,394.7 685.6,385.7 690.4,371.5 695.2,357.8 700.1,361.5 704.9,372.5 709.7,366.1 714.6,357.6 719.4,346.7 724.2,318.6 729.1,323.9 733.9,319.3 738.7,319.3 743.6,316.0 748.4,320.1 753.2,320.8 758.1,318.3 762.9,305.5 767.7,315.2 772.6,312.8 777.4,319.9 782.3,315.8 787.1,314.3 791.9,304.8 796.8,289.4 801.6,287.0 806.4,290.3 811.3,285.4 816.1,284.6 820.9,287.0 825.8,275.9 830.6,275.2 835.4,282.3 840.3,284.8 845.1,268.2 849.9,274.4 854.8,322.9 859.6,265.6 864.4,249.3 869.3,248.5 874.1,249.1 878.9,238.5 883.8,242.3 888.6,239.5 893.4,235.5 898.3,235.2 903.1,236.5 907.9,235.7 912.8,249.2 917.6,254.7 922.4,244.2 927.3,238.9 932.1,234.4 936.9,220.2 941.8,203.6 946.6,205.8 951.4,205.1 956.3,208.8 961.1,223.9 965.9,235.9 970.8,233.0 975.6,234.5 980.4,209.3 985.3,218.5 990.1,217.3 994.9,214.7 999.8,213.4 1004.6,235.4 1009.4,226.6 1014.3,238.8 1019.1,232.2 1023.9,186.1 1028.8,188.8 1033.6,184.0 1038.5,195.1 1043.3,173.0 1048.1,197.4 1053.0,220.0 1057.8,214.1 1062.6,210.7 1067.5,215.8 1072.3,220.8 1077.1,224.5 1082.0,223.6 1086.8,231.7 1091.6,227.8 1096.5,232.9 1101.3,242.9 1106.1,238.8 1111.0,237.3 1115.8,241.0 1120.6,244.1 1125.5,244.3 1130.3,240.0 1135.1,243.0 1140.0,237.5 1144.8,235.9 1149.6,236.4 1154.5,236.7 1159.3,231.7 1164.1,231.6 1169.0,225.7 1173.8,223.4 1178.6,271.9 1183.5,288.9 1188.3,304.9 1193.1,301.6 1198.0,299.1 1202.8,294.9 1207.6,298.6 1212.5,290.8 1217.3,281.8 1222.1,277.2 1227.0,286.8 1231.8,285.4 1236.6,289.1 1241.5,289.2 1246.3,298.0 1251.1,294.8 1256.0,293.2 1260.8,294.0 1265.6,292.0 1270.5,284.4 1275.3,282.9 1280.1,278.9 1285.0,272.5 1289.8,278.9 1294.6,289.5 1299.5,278.6 1304.3,273.9 1309.2,273.3 1314.0,262.0 1318.8,260.1 1323.7,264.1 1328.5,266.7 1333.3,258.3 1338.2,263.3 1343.0,269.5 1347.8,278.7 1352.7,292.4 1357.5,298.2 1362.3,307.2 1367.2,302.2 1372.0,310.1 1376.8,306.6 1381.7,306.9 1386.5,295.0 1391.3,288.3 1396.2,293.6 1401.0,287.3 1405.8,283.1 1410.7,283.5 1415.5,280.8 1420.3,280.9 1425.2,283.8 1430.0,283.9" fill="none" stroke="#0f766e" stroke-width="3"/>
<polyline points="120.0,346.5 124.8,348.1 129.7,340.2 134.5,348.5 139.3,348.4 144.2,353.1 149.0,352.3 153.8,353.8 158.7,349.5 163.5,352.0 168.3,363.8 173.2,366.9 178.0,368.1 182.8,371.6 187.7,367.1 192.5,365.4 197.3,363.5 202.2,371.2 207.0,374.5 211.8,384.6 216.7,381.1 221.5,380.2 226.3,385.4 231.2,390.9 236.0,381.9 240.8,381.4 245.7,386.9 250.5,385.9 255.4,386.0 260.2,381.9 265.0,371.1 269.9,370.0 274.7,370.3 279.5,372.1 284.4,373.4 289.2,377.3 294.0,383.3 298.9,394.8 303.7,397.9 308.5,398.4 313.4,402.7 318.2,392.8 323.0,391.0 327.9,396.2 332.7,383.3 337.5,391.6 342.4,393.0 347.2,404.8 352.0,401.1 356.9,399.1 361.7,397.5 366.5,415.4 371.4,412.7 376.2,409.8 381.0,406.9 385.9,404.4 390.7,405.9 395.5,415.9 400.4,412.8 405.2,416.3 410.0,417.0 414.9,417.1 419.7,416.5 424.5,413.1 429.4,410.3 434.2,411.8 439.0,413.0 443.9,414.4 448.7,416.7 453.5,414.3 458.4,419.5 463.2,414.9 468.0,415.9 472.9,417.3 477.7,415.0 482.5,418.5 487.4,416.3 492.2,423.0 497.0,421.1 501.9,416.0 506.7,406.7 511.5,402.5 516.4,403.5 521.2,406.5 526.1,406.1 530.9,407.3 535.7,396.4 540.6,393.0 545.4,399.5 550.2,395.2 555.1,392.9 559.9,395.3 564.7,399.2 569.6,398.9 574.4,408.4 579.2,411.5 584.1,411.0 588.9,411.7 593.7,406.1 598.6,409.6 603.4,411.5 608.2,408.6 613.1,407.9 617.9,407.9 622.7,415.7 627.6,413.9 632.4,419.9 637.2,419.5 642.1,431.6 646.9,417.4 651.7,411.8 656.6,429.2 661.4,423.3 666.2,420.3 671.1,415.9 675.9,407.6 680.7,409.8 685.6,401.5 690.4,388.2 695.2,375.4 700.1,379.1 704.9,389.5 709.7,383.6 714.6,375.7 719.4,365.6 724.2,339.3 729.1,344.7 733.9,340.5 738.7,340.6 743.6,337.6 748.4,341.6 753.2,342.4 758.1,340.2 762.9,328.4 767.7,337.7 772.6,335.6 777.4,342.3 782.3,338.7 787.1,337.4 791.9,328.6 796.8,314.4 801.6,312.3 806.4,315.5 811.3,311.1 816.1,310.5 820.9,312.8 825.8,302.6 830.6,302.2 835.4,309.0 840.3,311.5 845.1,296.2 849.9,302.2 854.8,347.7 859.6,294.6 864.4,279.6 869.3,279.1 874.1,280.0 878.9,270.3 883.8,274.0 888.6,271.7 893.4,268.2 898.3,268.1 903.1,269.6 907.9,269.1 912.8,281.8 917.6,286.9 922.4,277.4 927.3,272.7 932.1,268.7 936.9,255.9 941.8,240.7 946.6,242.9 951.4,242.4 956.3,245.9 961.1,260.0 965.9,271.3 970.8,268.8 975.6,270.4 980.4,247.3 985.3,256.0 990.1,255.0 994.9,252.8 999.8,251.9 1004.6,272.2 1009.4,264.4 1014.3,275.8 1019.1,269.9 1023.9,227.9 1028.8,230.6 1033.6,226.6 1038.5,236.8 1043.3,216.8 1048.1,239.4 1053.0,260.2 1057.8,255.1 1062.6,252.1 1067.5,257.1 1072.3,261.8 1077.1,265.3 1082.0,264.7 1086.8,272.2 1091.6,268.8 1096.5,273.7 1101.3,282.9 1106.1,279.4 1111.0,278.2 1115.8,281.7 1120.6,284.6 1125.5,285.0 1130.3,281.3 1135.1,284.3 1140.0,279.4 1144.8,278.1 1149.6,278.7 1154.5,279.0 1159.3,274.5 1164.1,274.6 1169.0,269.5 1173.8,267.6 1178.6,311.5 1183.5,327.2 1188.3,341.9 1193.1,339.1 1198.0,337.1 1202.8,333.5 1207.6,337.0 1212.5,330.2 1217.3,322.2 1222.1,318.2 1227.0,327.0 1231.8,325.9 1236.6,329.4 1241.5,329.6 1246.3,337.6 1251.1,334.9 1256.0,333.7 1260.8,334.6 1265.6,332.9 1270.5,326.4 1275.3,325.1 1280.1,321.6 1285.0,316.2 1289.8,322.1 1294.6,331.8 1299.5,322.2 1304.3,318.2 1309.2,317.9 1314.0,308.0 1318.8,306.4 1323.7,310.0 1328.5,312.4 1333.3,305.1 1338.2,309.9 1343.0,315.5 1347.8,323.8 1352.7,336.3 1357.5,341.5 1362.3,349.6 1367.2,345.3 1372.0,352.4 1376.8,349.6 1381.7,349.9 1386.5,339.5 1391.3,333.8 1396.2,338.7 1401.0,333.3 1405.8,329.8 1410.7,330.3 1415.5,328.0 1420.3,328.2 1425.2,330.8 1430.0,331.0" fill="none" stroke="#b42318" stroke-width="3" stroke-dasharray="8 6"/>
<text x="120.0" y="563" text-anchor="middle" class="axis">2024-10-01</text>
<text x="414.9" y="563" text-anchor="middle" class="axis">2024-12-01</text>
<text x="714.6" y="563" text-anchor="middle" class="axis">2025-02-01</text>
<text x="999.8" y="563" text-anchor="middle" class="axis">2025-04-01</text>
<text x="1294.6" y="563" text-anchor="middle" class="axis">2025-06-01</text>
<line x1="120" y1="642" x2="150" y2="642" stroke="#2563a6" stroke-width="4"/><text x="160" y="647" class="note">AdamW base</text>
<line x1="365" y1="642" x2="395" y2="642" stroke="#2563a6" stroke-width="4" stroke-dasharray="8 6"/><text x="405" y="647" class="note">AdamW stress</text>
<line x1="610" y1="642" x2="640" y2="642" stroke="#0f766e" stroke-width="4"/><text x="650" y="647" class="note">SAM base</text>
<line x1="855" y1="642" x2="885" y2="642" stroke="#b42318" stroke-width="4" stroke-dasharray="8 6"/><text x="895" y="647" class="note">SAM stress</text>
<text x="120" y="693" class="note">SAM base ended positive, but its 29.48% drawdown and negative familywise bootstrap lower bound reject the policy.</text>
</svg>
