<svg xmlns="http://www.w3.org/2000/svg" width="1500" height="650" viewBox="0 0 1500 650" role="img" aria-labelledby="title desc">
<title id="title">Dated equity confirms near-total abstention and one loss</title>
<desc id="desc">Daily close of the full hourly portfolio ledger, 2024-10-01 through 2025-06-29 UTC; flat sections are genuine zero exposure.</desc>
<rect width="100%" height="100%" fill="#ffffff"/>
<style>text{font-family:"Segoe UI",Arial,sans-serif;letter-spacing:0}.title{font-size:27px;font-weight:700;fill:#17212b}.subtitle{font-size:14px;fill:#52606d}.label{font-size:13px;fill:#263746}.axis{font-size:12px;fill:#60717f}.value{font-size:12px;font-weight:650;fill:#263746}.note{font-size:12px;fill:#65727d}.grid{stroke:#e1e8ed;stroke-width:1}.zero{stroke:#526674;stroke-width:2;stroke-dasharray:6 5}</style>
<text x="56" y="52" class="title">Dated equity confirms near-total abstention and one loss</text>
<text x="56" y="80" class="subtitle">Daily close of the full hourly portfolio ledger, 2024-10-01 through 2025-06-29 UTC; flat sections are genuine zero exposure.</text>
<rect x="120" y="145" width="1310" height="330" fill="#ffffff" stroke="#d8e0e7"/>
<line x1="120" y1="475.0" x2="1430" y2="475.0" class="grid"/><text x="106" y="479.0" text-anchor="end" class="axis">-0.4%</text>
<line x1="120" y1="401.7" x2="1430" y2="401.7" class="grid"/><text x="106" y="405.7" text-anchor="end" class="axis">-0.3%</text>
<line x1="120" y1="328.3" x2="1430" y2="328.3" class="grid"/><text x="106" y="332.3" text-anchor="end" class="axis">-0.2%</text>
<line x1="120" y1="255.0" x2="1430" y2="255.0" class="grid"/><text x="106" y="259.0" text-anchor="end" class="axis">-0.1%</text>
<line x1="120" y1="181.7" x2="1430" y2="181.7" class="zero"/><text x="106" y="185.7" text-anchor="end" class="axis">+0.0%</text>
<polyline points="120.0,181.7 124.8,181.7 129.7,181.7 134.5,181.7 139.3,181.7 144.2,181.7 149.0,181.7 153.8,181.7 158.7,181.7 163.5,181.7 168.3,181.7 173.2,181.7 178.0,181.7 182.8,181.7 187.7,181.7 192.5,181.7 197.3,181.7 202.2,181.7 207.0,181.7 211.8,181.7 216.7,181.7 221.5,181.7 226.3,181.7 231.2,181.7 236.0,181.7 240.8,181.7 245.7,181.7 250.5,181.7 255.4,181.7 260.2,181.7 265.0,181.7 269.9,181.7 274.7,181.7 279.5,181.7 284.4,181.7 289.2,181.7 294.0,181.7 298.9,181.7 303.7,181.7 308.5,181.7 313.4,181.7 318.2,181.7 323.0,181.7 327.9,181.7 332.7,181.7 337.5,181.7 342.4,181.7 347.2,181.7 352.0,181.7 356.9,181.7 361.7,181.7 366.5,181.7 371.4,181.7 376.2,181.7 381.0,181.7 385.9,181.7 390.7,181.7 395.5,181.7 400.4,181.7 405.2,181.7 410.0,181.7 414.9,181.7 419.7,181.7 424.5,181.7 429.4,181.7 434.2,181.7 439.0,181.7 443.9,181.7 448.7,181.7 453.5,181.7 458.4,181.7 463.2,181.7 468.0,181.7 472.9,181.7 477.7,181.7 482.5,181.7 487.4,181.7 492.2,181.7 497.0,181.7 501.9,181.7 506.7,181.7 511.5,181.7 516.4,181.7 521.2,181.7 526.1,181.7 530.9,181.7 535.7,181.7 540.6,181.7 545.4,181.7 550.2,181.7 555.1,181.7 559.9,181.7 564.7,181.7 569.6,181.7 574.4,181.7 579.2,181.7 584.1,181.7 588.9,181.7 593.7,181.7 598.6,181.7 603.4,181.7 608.2,181.7 613.1,181.7 617.9,181.7 622.7,181.7 627.6,181.7 632.4,181.7 637.2,181.7 642.1,181.7 646.9,181.7 651.7,181.7 656.6,181.7 661.4,181.7 666.2,181.7 671.1,181.7 675.9,181.7 680.7,181.7 685.6,181.7 690.4,181.7 695.2,181.7 700.1,181.7 704.9,181.7 709.7,181.7 714.6,181.7 719.4,181.7 724.2,417.4 729.1,417.4 733.9,417.4 738.7,417.4 743.6,417.4 748.4,417.4 753.2,417.4 758.1,417.4 762.9,417.4 767.7,417.4 772.6,417.4 777.4,417.4 782.3,417.4 787.1,417.4 791.9,417.4 796.8,417.4 801.6,417.4 806.4,417.4 811.3,417.4 816.1,417.4 820.9,417.4 825.8,417.4 830.6,417.4 835.4,417.4 840.3,417.4 845.1,417.4 849.9,417.4 854.8,417.4 859.6,417.4 864.4,417.4 869.3,417.4 874.1,417.4 878.9,417.4 883.8,417.4 888.6,417.4 893.4,417.4 898.3,417.4 903.1,417.4 907.9,417.4 912.8,417.4 917.6,417.4 922.4,417.4 927.3,417.4 932.1,417.4 936.9,417.4 941.8,417.4 946.6,417.4 951.4,417.4 956.3,417.4 961.1,417.4 965.9,417.4 970.8,417.4 975.6,417.4 980.4,417.4 985.3,417.4 990.1,417.4 994.9,417.4 999.8,417.4 1004.6,417.4 1009.4,417.4 1014.3,417.4 1019.1,417.4 1023.9,417.4 1028.8,417.4 1033.6,417.4 1038.5,417.4 1043.3,417.4 1048.1,417.4 1053.0,417.4 1057.8,417.4 1062.6,417.4 1067.5,417.4 1072.3,417.4 1077.1,417.4 1082.0,417.4 1086.8,417.4 1091.6,417.4 1096.5,417.4 1101.3,417.4 1106.1,417.4 1111.0,417.4 1115.8,417.4 1120.6,417.4 1125.5,417.4 1130.3,417.4 1135.1,417.4 1140.0,417.4 1144.8,417.4 1149.6,417.4 1154.5,417.4 1159.3,417.4 1164.1,417.4 1169.0,417.4 1173.8,417.4 1178.6,417.4 1183.5,417.4 1188.3,417.4 1193.1,417.4 1198.0,417.4 1202.8,417.4 1207.6,417.4 1212.5,417.4 1217.3,417.4 1222.1,417.4 1227.0,417.4 1231.8,417.4 1236.6,417.4 1241.5,417.4 1246.3,417.4 1251.1,417.4 1256.0,417.4 1260.8,417.4 1265.6,417.4 1270.5,417.4 1275.3,417.4 1280.1,417.4 1285.0,417.4 1289.8,417.4 1294.6,417.4 1299.5,417.4 1304.3,417.4 1309.2,417.4 1314.0,417.4 1318.8,417.4 1323.7,417.4 1328.5,417.4 1333.3,417.4 1338.2,417.4 1343.0,417.4 1347.8,417.4 1352.7,417.4 1357.5,417.4 1362.3,417.4 1367.2,417.4 1372.0,417.4 1376.8,417.4 1381.7,417.4 1386.5,417.4 1391.3,417.4 1396.2,417.4 1401.0,417.4 1405.8,417.4 1410.7,417.4 1415.5,417.4 1420.3,417.4 1425.2,417.4 1430.0,417.4" fill="none" stroke="#2563a6" stroke-width="3"/>
<polyline points="120.0,181.7 124.8,181.7 129.7,181.7 134.5,181.7 139.3,181.7 144.2,181.7 149.0,181.7 153.8,181.7 158.7,181.7 163.5,181.7 168.3,181.7 173.2,181.7 178.0,181.7 182.8,181.7 187.7,181.7 192.5,181.7 197.3,181.7 202.2,181.7 207.0,181.7 211.8,181.7 216.7,181.7 221.5,181.7 226.3,181.7 231.2,181.7 236.0,181.7 240.8,181.7 245.7,181.7 250.5,181.7 255.4,181.7 260.2,181.7 265.0,181.7 269.9,181.7 274.7,181.7 279.5,181.7 284.4,181.7 289.2,181.7 294.0,181.7 298.9,181.7 303.7,181.7 308.5,181.7 313.4,181.7 318.2,181.7 323.0,181.7 327.9,181.7 332.7,181.7 337.5,181.7 342.4,181.7 347.2,181.7 352.0,181.7 356.9,181.7 361.7,181.7 366.5,181.7 371.4,181.7 376.2,181.7 381.0,181.7 385.9,181.7 390.7,181.7 395.5,181.7 400.4,181.7 405.2,181.7 410.0,181.7 414.9,181.7 419.7,181.7 424.5,181.7 429.4,181.7 434.2,181.7 439.0,181.7 443.9,181.7 448.7,181.7 453.5,181.7 458.4,181.7 463.2,181.7 468.0,181.7 472.9,181.7 477.7,181.7 482.5,181.7 487.4,181.7 492.2,181.7 497.0,181.7 501.9,181.7 506.7,181.7 511.5,181.7 516.4,181.7 521.2,181.7 526.1,181.7 530.9,181.7 535.7,181.7 540.6,181.7 545.4,181.7 550.2,181.7 555.1,181.7 559.9,181.7 564.7,181.7 569.6,181.7 574.4,181.7 579.2,181.7 584.1,181.7 588.9,181.7 593.7,181.7 598.6,181.7 603.4,181.7 608.2,181.7 613.1,181.7 617.9,181.7 622.7,181.7 627.6,181.7 632.4,181.7 637.2,181.7 642.1,181.7 646.9,181.7 651.7,181.7 656.6,181.7 661.4,181.7 666.2,181.7 671.1,181.7 675.9,181.7 680.7,181.7 685.6,181.7 690.4,181.7 695.2,181.7 700.1,181.7 704.9,181.7 709.7,181.7 714.6,181.7 719.4,181.7 724.2,427.1 729.1,427.1 733.9,427.1 738.7,427.1 743.6,427.1 748.4,427.1 753.2,427.1 758.1,427.1 762.9,427.1 767.7,427.1 772.6,427.1 777.4,427.1 782.3,427.1 787.1,427.1 791.9,427.1 796.8,427.1 801.6,427.1 806.4,427.1 811.3,427.1 816.1,427.1 820.9,427.1 825.8,427.1 830.6,427.1 835.4,427.1 840.3,427.1 845.1,427.1 849.9,427.1 854.8,427.1 859.6,427.1 864.4,427.1 869.3,427.1 874.1,427.1 878.9,427.1 883.8,427.1 888.6,427.1 893.4,427.1 898.3,427.1 903.1,427.1 907.9,427.1 912.8,427.1 917.6,427.1 922.4,427.1 927.3,427.1 932.1,427.1 936.9,427.1 941.8,427.1 946.6,427.1 951.4,427.1 956.3,427.1 961.1,427.1 965.9,427.1 970.8,427.1 975.6,427.1 980.4,427.1 985.3,427.1 990.1,427.1 994.9,427.1 999.8,427.1 1004.6,427.1 1009.4,427.1 1014.3,427.1 1019.1,427.1 1023.9,427.1 1028.8,427.1 1033.6,427.1 1038.5,427.1 1043.3,427.1 1048.1,427.1 1053.0,427.1 1057.8,427.1 1062.6,427.1 1067.5,427.1 1072.3,427.1 1077.1,427.1 1082.0,427.1 1086.8,427.1 1091.6,427.1 1096.5,427.1 1101.3,427.1 1106.1,427.1 1111.0,427.1 1115.8,427.1 1120.6,427.1 1125.5,427.1 1130.3,427.1 1135.1,427.1 1140.0,427.1 1144.8,427.1 1149.6,427.1 1154.5,427.1 1159.3,427.1 1164.1,427.1 1169.0,427.1 1173.8,427.1 1178.6,427.1 1183.5,427.1 1188.3,427.1 1193.1,427.1 1198.0,427.1 1202.8,427.1 1207.6,427.1 1212.5,427.1 1217.3,427.1 1222.1,427.1 1227.0,427.1 1231.8,427.1 1236.6,427.1 1241.5,427.1 1246.3,427.1 1251.1,427.1 1256.0,427.1 1260.8,427.1 1265.6,427.1 1270.5,427.1 1275.3,427.1 1280.1,427.1 1285.0,427.1 1289.8,427.1 1294.6,427.1 1299.5,427.1 1304.3,427.1 1309.2,427.1 1314.0,427.1 1318.8,427.1 1323.7,427.1 1328.5,427.1 1333.3,427.1 1338.2,427.1 1343.0,427.1 1347.8,427.1 1352.7,427.1 1357.5,427.1 1362.3,427.1 1367.2,427.1 1372.0,427.1 1376.8,427.1 1381.7,427.1 1386.5,427.1 1391.3,427.1 1396.2,427.1 1401.0,427.1 1405.8,427.1 1410.7,427.1 1415.5,427.1 1420.3,427.1 1425.2,427.1 1430.0,427.1" fill="none" stroke="#b42318" stroke-width="3"/>
<text x="120.0" y="502" text-anchor="middle" class="axis">2024-10-01</text>
<text x="414.9" y="502" text-anchor="middle" class="axis">2024-12-01</text>
<text x="714.6" y="502" text-anchor="middle" class="axis">2025-02-01</text>
<text x="999.8" y="502" text-anchor="middle" class="axis">2025-04-01</text>
<text x="1294.6" y="502" text-anchor="middle" class="axis">2025-06-01</text>
<line x1="120" y1="570" x2="150" y2="570" stroke="#2563a6" stroke-width="4"/><text x="160" y="575" class="note">base 6 bps</text>
<line x1="330" y1="570" x2="360" y2="570" stroke="#b42318" stroke-width="4"/><text x="370" y="575" class="note">stress 8 bps, same ledger</text>
</svg>
