<svg xmlns="http://www.w3.org/2000/svg" width="1200" height="700" viewBox="0 0 1200 700" role="img">
<title>Day-block confidence was inconsistent across assets</title>
<desc>Lower 95% bootstrap margins above the null; both must be strictly positive for every symbol and horizon</desc>
<rect width="1200" height="700" fill="#0b1220"/>
<text x="64" y="58" fill="#f8fafc" font-family="Segoe UI,Arial,sans-serif" font-size="28" font-weight="700">Day-block confidence was inconsistent across assets</text>
<text x="64" y="88" fill="#cbd5e1" font-family="Segoe UI,Arial,sans-serif" font-size="15">Lower 95% bootstrap margins above the null; both must be strictly positive for every symbol and horizon</text>
<line x1="100" y1="575.0" x2="1150" y2="575.0" stroke="#334155" stroke-width="1"/>
<text x="86" y="580.0" text-anchor="end" fill="#cbd5e1" font-family="Segoe UI,Arial,sans-serif" font-size="13">-1.0</text>
<line x1="100" y1="487.0" x2="1150" y2="487.0" stroke="#334155" stroke-width="1"/>
<text x="86" y="492.0" text-anchor="end" fill="#cbd5e1" font-family="Segoe UI,Arial,sans-serif" font-size="13">-0.1</text>
<line x1="100" y1="399.0" x2="1150" y2="399.0" stroke="#334155" stroke-width="1"/>
<text x="86" y="404.0" text-anchor="end" fill="#cbd5e1" font-family="Segoe UI,Arial,sans-serif" font-size="13">0.8</text>
<line x1="100" y1="311.0" x2="1150" y2="311.0" stroke="#334155" stroke-width="1"/>
<text x="86" y="316.0" text-anchor="end" fill="#cbd5e1" font-family="Segoe UI,Arial,sans-serif" font-size="13">1.7</text>
<line x1="100" y1="223.0" x2="1150" y2="223.0" stroke="#334155" stroke-width="1"/>
<text x="86" y="228.0" text-anchor="end" fill="#cbd5e1" font-family="Segoe UI,Arial,sans-serif" font-size="13">2.6</text>
<line x1="100" y1="135.0" x2="1150" y2="135.0" stroke="#334155" stroke-width="1"/>
<text x="86" y="140.0" text-anchor="end" fill="#cbd5e1" font-family="Segoe UI,Arial,sans-serif" font-size="13">3.5</text>
<line x1="100" y1="477.2" x2="1150" y2="477.2" stroke="#94a3b8" stroke-width="2"/>
<rect x="119.2" y="402.8" width="19.8" height="74.4" rx="3" fill="#60a5fa"/>
<text x="129.2" y="394.8" text-anchor="middle" fill="#f8fafc" font-family="Segoe UI,Arial,sans-serif" font-size="12">0.76</text>
<rect x="148.4" y="327.1" width="19.8" height="150.1" rx="3" fill="#14b8a6"/>
<text x="158.3" y="319.1" text-anchor="middle" fill="#f8fafc" font-family="Segoe UI,Arial,sans-serif" font-size="12">1.53</text>
<rect x="177.6" y="477.2" width="19.8" height="1.0" rx="3" fill="#f59e0b"/>
<text x="187.5" y="469.2" text-anchor="middle" fill="#f8fafc" font-family="Segoe UI,Arial,sans-serif" font-size="12">0.00</text>
<text x="158.3" y="609" text-anchor="middle" fill="#f8fafc" font-family="Segoe UI,Arial,sans-serif" font-size="14">BTC 30s</text>
<rect x="235.9" y="430.8" width="19.8" height="46.4" rx="3" fill="#60a5fa"/>
<text x="245.8" y="422.8" text-anchor="middle" fill="#f8fafc" font-family="Segoe UI,Arial,sans-serif" font-size="12">0.47</text>
<rect x="265.1" y="360.9" width="19.8" height="116.3" rx="3" fill="#14b8a6"/>
<text x="275.0" y="352.9" text-anchor="middle" fill="#f8fafc" font-family="Segoe UI,Arial,sans-serif" font-size="12">1.19</text>
<rect x="294.2" y="477.2" width="19.8" height="1.0" rx="3" fill="#f59e0b"/>
<text x="304.2" y="469.2" text-anchor="middle" fill="#f8fafc" font-family="Segoe UI,Arial,sans-serif" font-size="12">0.00</text>
<text x="275.0" y="609" text-anchor="middle" fill="#f8fafc" font-family="Segoe UI,Arial,sans-serif" font-size="14">BTC 60s</text>
<rect x="352.6" y="347.3" width="19.8" height="129.9" rx="3" fill="#60a5fa"/>
<text x="362.5" y="339.3" text-anchor="middle" fill="#f8fafc" font-family="Segoe UI,Arial,sans-serif" font-size="12">1.33</text>
<rect x="381.8" y="194.4" width="19.8" height="282.8" rx="3" fill="#14b8a6"/>
<text x="391.7" y="186.4" text-anchor="middle" fill="#f8fafc" font-family="Segoe UI,Arial,sans-serif" font-size="12">2.89</text>
<rect x="410.9" y="477.2" width="19.8" height="1.0" rx="3" fill="#f59e0b"/>
<text x="420.8" y="469.2" text-anchor="middle" fill="#f8fafc" font-family="Segoe UI,Arial,sans-serif" font-size="12">0.00</text>
<text x="391.7" y="609" text-anchor="middle" fill="#f8fafc" font-family="Segoe UI,Arial,sans-serif" font-size="14">BTC 300s</text>
<rect x="469.2" y="377.3" width="19.8" height="99.9" rx="3" fill="#60a5fa"/>
<text x="479.2" y="369.3" text-anchor="middle" fill="#f8fafc" font-family="Segoe UI,Arial,sans-serif" font-size="12">1.02</text>
<rect x="498.4" y="266.4" width="19.8" height="210.9" rx="3" fill="#14b8a6"/>
<text x="508.3" y="258.4" text-anchor="middle" fill="#f8fafc" font-family="Segoe UI,Arial,sans-serif" font-size="12">2.16</text>
<rect x="527.6" y="477.2" width="19.8" height="1.0" rx="3" fill="#f59e0b"/>
<text x="537.5" y="469.2" text-anchor="middle" fill="#f8fafc" font-family="Segoe UI,Arial,sans-serif" font-size="12">0.00</text>
<text x="508.3" y="609" text-anchor="middle" fill="#f8fafc" font-family="Segoe UI,Arial,sans-serif" font-size="14">ETH 30s</text>
<rect x="585.9" y="407.5" width="19.8" height="69.8" rx="3" fill="#60a5fa"/>
<text x="595.8" y="399.5" text-anchor="middle" fill="#f8fafc" font-family="Segoe UI,Arial,sans-serif" font-size="12">0.71</text>
<rect x="615.1" y="329.5" width="19.8" height="147.7" rx="3" fill="#14b8a6"/>
<text x="625.0" y="321.5" text-anchor="middle" fill="#f8fafc" font-family="Segoe UI,Arial,sans-serif" font-size="12">1.51</text>
<rect x="644.3" y="477.2" width="19.8" height="1.0" rx="3" fill="#f59e0b"/>
<text x="654.2" y="469.2" text-anchor="middle" fill="#f8fafc" font-family="Segoe UI,Arial,sans-serif" font-size="12">0.00</text>
<text x="625.0" y="609" text-anchor="middle" fill="#f8fafc" font-family="Segoe UI,Arial,sans-serif" font-size="14">ETH 60s</text>
<rect x="702.6" y="380.1" width="19.8" height="97.2" rx="3" fill="#60a5fa"/>
<text x="712.5" y="372.1" text-anchor="middle" fill="#f8fafc" font-family="Segoe UI,Arial,sans-serif" font-size="12">0.99</text>
<rect x="731.8" y="269.2" width="19.8" height="208.0" rx="3" fill="#14b8a6"/>
<text x="741.7" y="261.2" text-anchor="middle" fill="#f8fafc" font-family="Segoe UI,Arial,sans-serif" font-size="12">2.13</text>
<rect x="760.9" y="477.2" width="19.8" height="1.0" rx="3" fill="#f59e0b"/>
<text x="770.8" y="469.2" text-anchor="middle" fill="#f8fafc" font-family="Segoe UI,Arial,sans-serif" font-size="12">0.00</text>
<text x="741.7" y="609" text-anchor="middle" fill="#f8fafc" font-family="Segoe UI,Arial,sans-serif" font-size="14">ETH 300s</text>
<rect x="819.2" y="470.9" width="19.8" height="6.3" rx="3" fill="#60a5fa"/>
<text x="829.2" y="462.9" text-anchor="middle" fill="#f8fafc" font-family="Segoe UI,Arial,sans-serif" font-size="12">0.06</text>
<rect x="848.4" y="440.0" width="19.8" height="37.3" rx="3" fill="#14b8a6"/>
<text x="858.3" y="432.0" text-anchor="middle" fill="#f8fafc" font-family="Segoe UI,Arial,sans-serif" font-size="12">0.38</text>
<rect x="877.6" y="477.2" width="19.8" height="1.0" rx="3" fill="#f59e0b"/>
<text x="887.5" y="469.2" text-anchor="middle" fill="#f8fafc" font-family="Segoe UI,Arial,sans-serif" font-size="12">0.00</text>
<text x="858.3" y="609" text-anchor="middle" fill="#f8fafc" font-family="Segoe UI,Arial,sans-serif" font-size="14">SOL 30s</text>
<rect x="935.9" y="477.2" width="19.8" height="2.5" rx="3" fill="#60a5fa"/>
<text x="945.8" y="497.7" text-anchor="middle" fill="#f8fafc" font-family="Segoe UI,Arial,sans-serif" font-size="12">-0.03</text>
<rect x="965.1" y="466.0" width="19.8" height="11.2" rx="3" fill="#14b8a6"/>
<text x="975.0" y="458.0" text-anchor="middle" fill="#f8fafc" font-family="Segoe UI,Arial,sans-serif" font-size="12">0.11</text>
<rect x="994.3" y="477.2" width="19.8" height="1.0" rx="3" fill="#f59e0b"/>
<text x="1004.2" y="441.2" text-anchor="middle" fill="#f8fafc" font-family="Segoe UI,Arial,sans-serif" font-size="12">0.00</text>
<text x="975.0" y="609" text-anchor="middle" fill="#f8fafc" font-family="Segoe UI,Arial,sans-serif" font-size="14">SOL 60s</text>
<rect x="1052.6" y="477.2" width="19.8" height="4.8" rx="3" fill="#60a5fa"/>
<text x="1062.5" y="500.0" text-anchor="middle" fill="#f8fafc" font-family="Segoe UI,Arial,sans-serif" font-size="12">-0.05</text>
<rect x="1081.8" y="477.2" width="19.8" height="67.3" rx="3" fill="#14b8a6"/>
<text x="1091.7" y="562.6" text-anchor="middle" fill="#f8fafc" font-family="Segoe UI,Arial,sans-serif" font-size="12">-0.69</text>
<rect x="1110.9" y="477.2" width="19.8" height="1.0" rx="3" fill="#f59e0b"/>
<text x="1120.8" y="469.2" text-anchor="middle" fill="#f8fafc" font-family="Segoe UI,Arial,sans-serif" font-size="12">0.00</text>
<text x="1091.7" y="609" text-anchor="middle" fill="#f8fafc" font-family="Segoe UI,Arial,sans-serif" font-size="14">SOL 300s</text>
<text transform="translate(24 355.0) rotate(-90)" text-anchor="middle" fill="#cbd5e1" font-family="Segoe UI,Arial,sans-serif" font-size="14">Lower-bound margin (percentage points)</text>
<rect x="100.0" y="655" width="14" height="14" rx="2" fill="#60a5fa"/>
<text x="122.0" y="667" fill="#cbd5e1" font-family="Segoe UI,Arial,sans-serif" font-size="13">Balanced accuracy margin</text>
<rect x="450.0" y="655" width="14" height="14" rx="2" fill="#14b8a6"/>
<text x="472.0" y="667" fill="#cbd5e1" font-family="Segoe UI,Arial,sans-serif" font-size="13">MCC lower bound</text>
<rect x="800.0" y="655" width="14" height="14" rx="2" fill="#f59e0b"/>
<text x="822.0" y="667" fill="#cbd5e1" font-family="Segoe UI,Arial,sans-serif" font-size="13">Required margin</text>
</svg>
