<svg xmlns="http://www.w3.org/2000/svg" width="1200" height="700" viewBox="0 0 1200 700" role="img">
<title>Weak directional rank survived the failed controller</title>
<desc>Pooled calibration-only Spearman rank; evaluation remained sealed</desc>
<rect width="1200" height="700" fill="#0b1220"/>
<text x="64" y="58" fill="#f8fafc" font-family="Segoe UI,Arial,sans-serif" font-size="28" font-weight="700">Weak directional rank survived the failed controller</text>
<text x="64" y="88" fill="#cbd5e1" font-family="Segoe UI,Arial,sans-serif" font-size="15">Pooled calibration-only Spearman rank; evaluation remained sealed</text>
<line x1="100" y1="575.0" x2="1150" y2="575.0" stroke="#334155" stroke-width="1"/>
<text x="86" y="580.0" text-anchor="end" fill="#cbd5e1" font-family="Segoe UI,Arial,sans-serif" font-size="13">0.00</text>
<line x1="100" y1="487.0" x2="1150" y2="487.0" stroke="#334155" stroke-width="1"/>
<text x="86" y="492.0" text-anchor="end" fill="#cbd5e1" font-family="Segoe UI,Arial,sans-serif" font-size="13">1.10</text>
<line x1="100" y1="399.0" x2="1150" y2="399.0" stroke="#334155" stroke-width="1"/>
<text x="86" y="404.0" text-anchor="end" fill="#cbd5e1" font-family="Segoe UI,Arial,sans-serif" font-size="13">2.20</text>
<line x1="100" y1="311.0" x2="1150" y2="311.0" stroke="#334155" stroke-width="1"/>
<text x="86" y="316.0" text-anchor="end" fill="#cbd5e1" font-family="Segoe UI,Arial,sans-serif" font-size="13">3.30</text>
<line x1="100" y1="223.0" x2="1150" y2="223.0" stroke="#334155" stroke-width="1"/>
<text x="86" y="228.0" text-anchor="end" fill="#cbd5e1" font-family="Segoe UI,Arial,sans-serif" font-size="13">4.40</text>
<line x1="100" y1="135.0" x2="1150" y2="135.0" stroke="#334155" stroke-width="1"/>
<text x="86" y="140.0" text-anchor="end" fill="#cbd5e1" font-family="Segoe UI,Arial,sans-serif" font-size="13">5.50</text>
<rect x="157.8" y="314.2" width="59.5" height="260.8" rx="3" fill="#60a5fa"/>
<text x="187.5" y="306.2" text-anchor="middle" fill="#f8fafc" font-family="Segoe UI,Arial,sans-serif" font-size="12">3.261</text>
<rect x="245.2" y="309.9" width="59.5" height="265.1" rx="3" fill="#14b8a6"/>
<text x="275.0" y="301.9" text-anchor="middle" fill="#f8fafc" font-family="Segoe UI,Arial,sans-serif" font-size="12">3.313</text>
<text x="231.2" y="609" text-anchor="middle" fill="#f8fafc" font-family="Segoe UI,Arial,sans-serif" font-size="14">1h</text>
<rect x="420.2" y="390.2" width="59.5" height="184.8" rx="3" fill="#60a5fa"/>
<text x="450.0" y="382.2" text-anchor="middle" fill="#f8fafc" font-family="Segoe UI,Arial,sans-serif" font-size="12">2.310</text>
<rect x="507.8" y="358.4" width="59.5" height="216.6" rx="3" fill="#14b8a6"/>
<text x="537.5" y="350.4" text-anchor="middle" fill="#f8fafc" font-family="Segoe UI,Arial,sans-serif" font-size="12">2.708</text>
<text x="493.8" y="609" text-anchor="middle" fill="#f8fafc" font-family="Segoe UI,Arial,sans-serif" font-size="14">4h</text>
<rect x="682.8" y="392.4" width="59.5" height="182.6" rx="3" fill="#60a5fa"/>
<text x="712.5" y="384.4" text-anchor="middle" fill="#f8fafc" font-family="Segoe UI,Arial,sans-serif" font-size="12">2.282</text>
<rect x="770.2" y="221.1" width="59.5" height="353.9" rx="3" fill="#14b8a6"/>
<text x="800.0" y="213.1" text-anchor="middle" fill="#f8fafc" font-family="Segoe UI,Arial,sans-serif" font-size="12">4.424</text>
<text x="756.2" y="609" text-anchor="middle" fill="#f8fafc" font-family="Segoe UI,Arial,sans-serif" font-size="14">12h</text>
<rect x="945.2" y="459.5" width="59.5" height="115.5" rx="3" fill="#60a5fa"/>
<text x="975.0" y="451.5" text-anchor="middle" fill="#f8fafc" font-family="Segoe UI,Arial,sans-serif" font-size="12">1.444</text>
<rect x="1032.8" y="292.7" width="59.5" height="282.3" rx="3" fill="#14b8a6"/>
<text x="1062.5" y="284.7" text-anchor="middle" fill="#f8fafc" font-family="Segoe UI,Arial,sans-serif" font-size="12">3.529</text>
<text x="1018.8" y="609" text-anchor="middle" fill="#f8fafc" font-family="Segoe UI,Arial,sans-serif" font-size="14">24h</text>
<text transform="translate(24 355.0) rotate(-90)" text-anchor="middle" fill="#cbd5e1" font-family="Segoe UI,Arial,sans-serif" font-size="14">Directional Spearman x100</text>
<rect x="100.0" y="655" width="14" height="14" rx="2" fill="#60a5fa"/>
<text x="122.0" y="667" fill="#cbd5e1" font-family="Segoe UI,Arial,sans-serif" font-size="13">Median Q</text>
<rect x="625.0" y="655" width="14" height="14" rx="2" fill="#14b8a6"/>
<text x="647.0" y="667" fill="#cbd5e1" font-family="Segoe UI,Arial,sans-serif" font-size="13">Lower-tail Q</text>
</svg>
