<svg xmlns="http://www.w3.org/2000/svg" width="1320" height="600" viewBox="0 0 1320 600" role="img">
<title>Direct direction improved, but no variant reached the frozen gate</title>
<desc>Pooled ROC AUC with daily minimum and median; consumed BTCUSDT calibration dates only.</desc>
<rect width="100%" height="100%" fill="#ffffff"/>
<style>text{font-family:"Segoe UI",Arial,sans-serif;letter-spacing:0}.title{font-size:24px;font-weight:700;fill:#17202a}.subtitle{font-size:14px;fill:#4b5563}.label{font-size:13px;fill:#263238}.value{font-size:13px;font-weight:650;fill:#17202a}.axis{font-size:12px;fill:#64748b}.note{font-size:12px;fill:#6b7280}.grid{stroke:#d8dee7;stroke-width:1}.zero{stroke:#9f1239;stroke-width:2}.gate{stroke:#b91c1c;stroke-width:2;stroke-dasharray:7 5}</style>
<text x="48" y="42" class="title">Direct direction improved, but no variant reached the frozen gate</text>
<text x="48" y="66" class="subtitle">Pooled ROC AUC with daily minimum and median; consumed BTCUSDT calibration dates only.</text>
<line x1="300.0" y1="112" x2="300.0" y2="530" class="grid"/>
<text x="300.0" y="554" text-anchor="middle" class="axis">0.45</text>
<line x1="616.7" y1="112" x2="616.7" y2="530" class="grid"/>
<text x="616.7" y="554" text-anchor="middle" class="axis">0.50</text>
<line x1="933.3" y1="112" x2="933.3" y2="530" class="grid"/>
<text x="933.3" y="554" text-anchor="middle" class="axis">0.55</text>
<line x1="1250.0" y1="112" x2="1250.0" y2="530" class="grid"/>
<text x="1250.0" y="554" text-anchor="middle" class="axis">0.60</text>
<line x1="933.3" y1="104" x2="933.3" y2="530" class="gate"/>
<text x="941.3" y="98" class="axis" fill="#b91c1c">pooled gate 0.55</text>
<text x="282" y="151" text-anchor="end" class="label">Full / uniqueness</text>
<line x1="544.0" y1="146" x2="936.0" y2="146" stroke="#64748b" stroke-width="5" stroke-linecap="round"/>
<circle cx="544.0" cy="146" r="6" fill="#b45309"/>
<circle cx="936.0" cy="146" r="6" fill="#2563eb"/>
<rect x="880.4" y="140.0" width="12" height="12" fill="#0f766e"/>
<text x="886.4" y="132" text-anchor="middle" class="value">0.5426</text>
<text x="282" y="219" text-anchor="end" class="label">Full / utility margin</text>
<line x1="470.8" y1="214" x2="719.8" y2="214" stroke="#64748b" stroke-width="5" stroke-linecap="round"/>
<circle cx="470.8" cy="214" r="6" fill="#b45309"/>
<circle cx="719.8" cy="214" r="6" fill="#2563eb"/>
<rect x="776.6" y="208.0" width="12" height="12" fill="#334155"/>
<text x="782.6" y="200" text-anchor="middle" class="value">0.5262</text>
<text x="282" y="287" text-anchor="end" class="label">No cycles / uniqueness</text>
<line x1="422.3" y1="282" x2="971.3" y2="282" stroke="#64748b" stroke-width="5" stroke-linecap="round"/>
<circle cx="422.3" cy="282" r="6" fill="#b45309"/>
<circle cx="971.3" cy="282" r="6" fill="#2563eb"/>
<rect x="863.2" y="276.0" width="12" height="12" fill="#334155"/>
<text x="869.2" y="268" text-anchor="middle" class="value">0.5399</text>
<text x="282" y="355" text-anchor="end" class="label">No cycles / utility margin</text>
<line x1="329.2" y1="350" x2="723.0" y2="350" stroke="#64748b" stroke-width="5" stroke-linecap="round"/>
<circle cx="329.2" cy="350" r="6" fill="#b45309"/>
<circle cx="723.0" cy="350" r="6" fill="#2563eb"/>
<rect x="757.4" y="344.0" width="12" height="12" fill="#334155"/>
<text x="763.4" y="336" text-anchor="middle" class="value">0.5232</text>
<text x="282" y="423" text-anchor="end" class="label">Compact / uniqueness</text>
<line x1="448.5" y1="418" x2="695.3" y2="418" stroke="#64748b" stroke-width="5" stroke-linecap="round"/>
<circle cx="448.5" cy="418" r="6" fill="#b45309"/>
<circle cx="695.3" cy="418" r="6" fill="#2563eb"/>
<rect x="705.1" y="412.0" width="12" height="12" fill="#334155"/>
<text x="711.1" y="404" text-anchor="middle" class="value">0.5149</text>
<text x="282" y="491" text-anchor="end" class="label">Compact / utility margin</text>
<line x1="657.4" y1="486" x2="726.0" y2="486" stroke="#64748b" stroke-width="5" stroke-linecap="round"/>
<circle cx="657.4" cy="486" r="6" fill="#b45309"/>
<circle cx="726.0" cy="486" r="6" fill="#2563eb"/>
<rect x="759.5" y="480.0" width="12" height="12" fill="#334155"/>
<text x="765.5" y="472" text-anchor="middle" class="value">0.5235</text>
<circle cx="300" cy="572" r="5" fill="#b45309"/><text x="312" y="576" class="note">daily minimum</text>
<circle cx="450" cy="572" r="5" fill="#2563eb"/><text x="462" y="576" class="note">daily median</text>
<rect x="600" y="566" width="11" height="11" fill="#334155"/><text x="618" y="576" class="note">pooled AUC</text>
<text x="1272" y="576" text-anchor="end" class="note">No result is out-of-sample or executable.</text>
</svg>
