<svg xmlns="http://www.w3.org/2000/svg" width="1200" height="700" viewBox="0 0 1200 700" role="img">
<title>The precommitted elevated-funding cell passed all symbol gates</title>
<desc>Non-overlapping seven-day episodes; values subtract the 32 bps stress reference but exclude basis and execution dynamics</desc>
<rect width="1200" height="700" fill="#0b1220"/>
<text x="64" y="58" fill="#f8fafc" font-family="Segoe UI,Arial,sans-serif" font-size="28" font-weight="700">The precommitted elevated-funding cell passed all symbol gates</text>
<text x="64" y="88" fill="#cbd5e1" font-family="Segoe UI,Arial,sans-serif" font-size="15">Non-overlapping seven-day episodes; values subtract the 32 bps stress reference but exclude basis and execution dynamics</text>
<line x1="100" y1="575.0" x2="1150" y2="575.0" stroke="#334155" stroke-width="1"/>
<text x="86" y="580.0" text-anchor="end" fill="#cbd5e1" font-family="Segoe UI,Arial,sans-serif" font-size="13">0</text>
<line x1="100" y1="487.0" x2="1150" y2="487.0" stroke="#334155" stroke-width="1"/>
<text x="86" y="492.0" text-anchor="end" fill="#cbd5e1" font-family="Segoe UI,Arial,sans-serif" font-size="13">12</text>
<line x1="100" y1="399.0" x2="1150" y2="399.0" stroke="#334155" stroke-width="1"/>
<text x="86" y="404.0" text-anchor="end" fill="#cbd5e1" font-family="Segoe UI,Arial,sans-serif" font-size="13">24</text>
<line x1="100" y1="311.0" x2="1150" y2="311.0" stroke="#334155" stroke-width="1"/>
<text x="86" y="316.0" text-anchor="end" fill="#cbd5e1" font-family="Segoe UI,Arial,sans-serif" font-size="13">36</text>
<line x1="100" y1="223.0" x2="1150" y2="223.0" stroke="#334155" stroke-width="1"/>
<text x="86" y="228.0" text-anchor="end" fill="#cbd5e1" font-family="Segoe UI,Arial,sans-serif" font-size="13">48</text>
<line x1="100" y1="135.0" x2="1150" y2="135.0" stroke="#334155" stroke-width="1"/>
<text x="86" y="140.0" text-anchor="end" fill="#cbd5e1" font-family="Segoe UI,Arial,sans-serif" font-size="13">60</text>
<rect x="157.8" y="310.8" width="59.5" height="264.2" rx="3" fill="#14b8a6"/>
<text x="187.5" y="302.8" text-anchor="middle" fill="#f8fafc" font-family="Segoe UI,Arial,sans-serif" font-size="12">36.02</text>
<rect x="245.2" y="427.4" width="59.5" height="147.6" rx="3" fill="#60a5fa"/>
<text x="275.0" y="419.4" text-anchor="middle" fill="#f8fafc" font-family="Segoe UI,Arial,sans-serif" font-size="12">20.13</text>
<rect x="332.8" y="439.5" width="59.5" height="135.5" rx="3" fill="#22d3ee"/>
<text x="362.5" y="431.5" text-anchor="middle" fill="#f8fafc" font-family="Segoe UI,Arial,sans-serif" font-size="12">18.48</text>
<text x="275.0" y="609" text-anchor="middle" fill="#f8fafc" font-family="Segoe UI,Arial,sans-serif" font-size="14">BTC</text>
<rect x="507.8" y="195.0" width="59.5" height="380.0" rx="3" fill="#14b8a6"/>
<text x="537.5" y="187.0" text-anchor="middle" fill="#f8fafc" font-family="Segoe UI,Arial,sans-serif" font-size="12">51.82</text>
<rect x="595.2" y="322.6" width="59.5" height="252.4" rx="3" fill="#60a5fa"/>
<text x="625.0" y="314.6" text-anchor="middle" fill="#f8fafc" font-family="Segoe UI,Arial,sans-serif" font-size="12">34.42</text>
<rect x="682.8" y="358.1" width="59.5" height="216.9" rx="3" fill="#22d3ee"/>
<text x="712.5" y="350.1" text-anchor="middle" fill="#f8fafc" font-family="Segoe UI,Arial,sans-serif" font-size="12">29.58</text>
<text x="625.0" y="609" text-anchor="middle" fill="#f8fafc" font-family="Segoe UI,Arial,sans-serif" font-size="14">ETH</text>
<rect x="857.8" y="336.8" width="59.5" height="238.2" rx="3" fill="#14b8a6"/>
<text x="887.5" y="328.8" text-anchor="middle" fill="#f8fafc" font-family="Segoe UI,Arial,sans-serif" font-size="12">32.48</text>
<rect x="945.2" y="475.9" width="59.5" height="99.1" rx="3" fill="#60a5fa"/>
<text x="975.0" y="467.9" text-anchor="middle" fill="#f8fafc" font-family="Segoe UI,Arial,sans-serif" font-size="12">13.52</text>
<rect x="1032.8" y="528.8" width="59.5" height="46.2" rx="3" fill="#22d3ee"/>
<text x="1062.5" y="520.8" text-anchor="middle" fill="#f8fafc" font-family="Segoe UI,Arial,sans-serif" font-size="12">6.30</text>
<text x="975.0" y="609" text-anchor="middle" fill="#f8fafc" font-family="Segoe UI,Arial,sans-serif" font-size="14">SOL</text>
<text transform="translate(24 355.0) rotate(-90)" text-anchor="middle" fill="#cbd5e1" font-family="Segoe UI,Arial,sans-serif" font-size="14">Funding carry minus 32 bps reference</text>
<rect x="100.0" y="655" width="14" height="14" rx="2" fill="#14b8a6"/>
<text x="122.0" y="667" fill="#cbd5e1" font-family="Segoe UI,Arial,sans-serif" font-size="13">Mean after reference</text>
<rect x="450.0" y="655" width="14" height="14" rx="2" fill="#60a5fa"/>
<text x="472.0" y="667" fill="#cbd5e1" font-family="Segoe UI,Arial,sans-serif" font-size="13">Median after reference</text>
<rect x="800.0" y="655" width="14" height="14" rx="2" fill="#22d3ee"/>
<text x="822.0" y="667" fill="#cbd5e1" font-family="Segoe UI,Arial,sans-serif" font-size="13">Lower 95% mean</text>
</svg>
