<svg xmlns="http://www.w3.org/2000/svg" width="1200" height="700" viewBox="0 0 1200 700" role="img">
<title>Elevated-funding support remained statistically insufficient</title>
<desc>Seven-day &gt;=2 bps trigger; only 20 BTC, 20 ETH, and 25 SOL non-overlapping episodes versus 40 required per symbol</desc>
<rect width="1200" height="700" fill="#0b1220"/>
<text x="64" y="58" fill="#f8fafc" font-family="Segoe UI,Arial,sans-serif" font-size="28" font-weight="700">Elevated-funding support remained statistically insufficient</text>
<text x="64" y="88" fill="#cbd5e1" font-family="Segoe UI,Arial,sans-serif" font-size="15">Seven-day &gt;=2 bps trigger; only 20 BTC, 20 ETH, and 25 SOL non-overlapping episodes versus 40 required per symbol</text>
<line x1="100" y1="575.0" x2="1150" y2="575.0" stroke="#334155" stroke-width="1"/>
<text x="86" y="580.0" text-anchor="end" fill="#cbd5e1" font-family="Segoe UI,Arial,sans-serif" font-size="13">-5</text>
<line x1="100" y1="487.0" x2="1150" y2="487.0" stroke="#334155" stroke-width="1"/>
<text x="86" y="492.0" text-anchor="end" fill="#cbd5e1" font-family="Segoe UI,Arial,sans-serif" font-size="13">0</text>
<line x1="100" y1="399.0" x2="1150" y2="399.0" stroke="#334155" stroke-width="1"/>
<text x="86" y="404.0" text-anchor="end" fill="#cbd5e1" font-family="Segoe UI,Arial,sans-serif" font-size="13">5</text>
<line x1="100" y1="311.0" x2="1150" y2="311.0" stroke="#334155" stroke-width="1"/>
<text x="86" y="316.0" text-anchor="end" fill="#cbd5e1" font-family="Segoe UI,Arial,sans-serif" font-size="13">10</text>
<line x1="100" y1="223.0" x2="1150" y2="223.0" stroke="#334155" stroke-width="1"/>
<text x="86" y="228.0" text-anchor="end" fill="#cbd5e1" font-family="Segoe UI,Arial,sans-serif" font-size="13">15</text>
<line x1="100" y1="135.0" x2="1150" y2="135.0" stroke="#334155" stroke-width="1"/>
<text x="86" y="140.0" text-anchor="end" fill="#cbd5e1" font-family="Segoe UI,Arial,sans-serif" font-size="13">20</text>
<line x1="100" y1="487.0" x2="1150" y2="487.0" stroke="#94a3b8" stroke-width="2"/>
<rect x="157.8" y="285.7" width="59.5" height="201.3" rx="3" fill="#14b8a6"/>
<text x="187.5" y="277.7" text-anchor="middle" fill="#f8fafc" font-family="Segoe UI,Arial,sans-serif" font-size="12">11.44</text>
<rect x="245.2" y="459.4" width="59.5" height="27.6" rx="3" fill="#60a5fa"/>
<text x="275.0" y="451.4" text-anchor="middle" fill="#f8fafc" font-family="Segoe UI,Arial,sans-serif" font-size="12">1.57</text>
<rect x="332.8" y="487.0" width="59.5" height="31.7" rx="3" fill="#ef4444"/>
<text x="362.5" y="536.7" text-anchor="middle" fill="#f8fafc" font-family="Segoe UI,Arial,sans-serif" font-size="12">-1.80</text>
<text x="275.0" y="609" text-anchor="middle" fill="#f8fafc" font-family="Segoe UI,Arial,sans-serif" font-size="14">BTC</text>
<rect x="507.8" y="226.2" width="59.5" height="260.8" rx="3" fill="#14b8a6"/>
<text x="537.5" y="218.2" text-anchor="middle" fill="#f8fafc" font-family="Segoe UI,Arial,sans-serif" font-size="12">14.82</text>
<rect x="595.2" y="415.0" width="59.5" height="72.0" rx="3" fill="#60a5fa"/>
<text x="625.0" y="407.0" text-anchor="middle" fill="#f8fafc" font-family="Segoe UI,Arial,sans-serif" font-size="12">4.09</text>
<rect x="682.8" y="451.4" width="59.5" height="35.6" rx="3" fill="#ef4444"/>
<text x="712.5" y="443.4" text-anchor="middle" fill="#f8fafc" font-family="Segoe UI,Arial,sans-serif" font-size="12">2.02</text>
<text x="625.0" y="609" text-anchor="middle" fill="#f8fafc" font-family="Segoe UI,Arial,sans-serif" font-size="14">ETH</text>
<rect x="857.8" y="196.9" width="59.5" height="290.1" rx="3" fill="#14b8a6"/>
<text x="887.5" y="188.9" text-anchor="middle" fill="#f8fafc" font-family="Segoe UI,Arial,sans-serif" font-size="12">16.48</text>
<rect x="945.2" y="344.5" width="59.5" height="142.5" rx="3" fill="#60a5fa"/>
<text x="975.0" y="336.5" text-anchor="middle" fill="#f8fafc" font-family="Segoe UI,Arial,sans-serif" font-size="12">8.10</text>
<rect x="1032.8" y="487.0" width="59.5" height="22.1" rx="3" fill="#ef4444"/>
<text x="1062.5" y="527.1" text-anchor="middle" fill="#f8fafc" font-family="Segoe UI,Arial,sans-serif" font-size="12">-1.26</text>
<text x="975.0" y="609" text-anchor="middle" fill="#f8fafc" font-family="Segoe UI,Arial,sans-serif" font-size="14">SOL</text>
<text transform="translate(24 355.0) rotate(-90)" text-anchor="middle" fill="#cbd5e1" font-family="Segoe UI,Arial,sans-serif" font-size="14">Funding carry minus 32 bps reference</text>
<rect x="100.0" y="655" width="14" height="14" rx="2" fill="#14b8a6"/>
<text x="122.0" y="667" fill="#cbd5e1" font-family="Segoe UI,Arial,sans-serif" font-size="13">Mean after stress ref.</text>
<rect x="450.0" y="655" width="14" height="14" rx="2" fill="#60a5fa"/>
<text x="472.0" y="667" fill="#cbd5e1" font-family="Segoe UI,Arial,sans-serif" font-size="13">Median after stress ref.</text>
<rect x="800.0" y="655" width="14" height="14" rx="2" fill="#ef4444"/>
<text x="822.0" y="667" fill="#cbd5e1" font-family="Segoe UI,Arial,sans-serif" font-size="13">Lower 95% mean</text>
</svg>
