<svg xmlns="http://www.w3.org/2000/svg" width="1480" height="560" viewBox="0 0 1480 560" role="img" aria-labelledby="title desc">
<title id="title">Both selected evaluation months lost after the frozen cost charge</title>
<desc id="desc">Evaluation mean net bps after the frozen 12 bps charge; crosses denote no threshold and therefore no trade series.</desc>
<rect width="100%" height="100%" fill="#ffffff"/>
<style>text{font-family:"Segoe UI",Arial,sans-serif;letter-spacing:0}.title{font-size:27px;font-weight:700;fill:#17212b}.subtitle{font-size:14px;fill:#52606d}.label{font-size:13px;fill:#263746}.axis{font-size:12px;fill:#60717f}.value{font-size:12px;font-weight:650;fill:#263746}.note{font-size:12px;fill:#65727d}.grid{stroke:#e1e8ed;stroke-width:1}.zero{stroke:#526674;stroke-width:2;stroke-dasharray:6 5}</style>
<text x="56" y="52" class="title">Both selected evaluation months lost after the frozen cost charge</text>
<text x="56" y="80" class="subtitle">Evaluation mean net bps after the frozen 12 bps charge; crosses denote no threshold and therefore no trade series.</text>
<line x1="110" y1="270.0" x2="1410" y2="270.0" class="zero"/>
<line x1="210.3" y1="262.0" x2="226.3" y2="278.0" stroke="#60717f" stroke-width="3"/><line x1="210.3" y1="278.0" x2="226.3" y2="262.0" stroke="#60717f" stroke-width="3"/>
<text x="218.3" y="427" text-anchor="middle" class="axis">2024-07</text>
<line x1="427.0" y1="262.0" x2="443.0" y2="278.0" stroke="#60717f" stroke-width="3"/><line x1="427.0" y1="278.0" x2="443.0" y2="262.0" stroke="#60717f" stroke-width="3"/>
<text x="435.0" y="427" text-anchor="middle" class="axis">2024-08</text>
<line x1="643.7" y1="262.0" x2="659.7" y2="278.0" stroke="#60717f" stroke-width="3"/><line x1="643.7" y1="278.0" x2="659.7" y2="262.0" stroke="#60717f" stroke-width="3"/>
<text x="651.7" y="427" text-anchor="middle" class="axis">2024-09</text>
<line x1="860.3" y1="262.0" x2="876.3" y2="278.0" stroke="#60717f" stroke-width="3"/><line x1="860.3" y1="278.0" x2="876.3" y2="262.0" stroke="#60717f" stroke-width="3"/>
<text x="868.3" y="427" text-anchor="middle" class="axis">2024-10</text>
<rect x="1043.0" y="270.0" width="84" height="45.7" fill="#b42318"/>
<text x="1085.0" y="343.7" text-anchor="middle" class="value">-0.73 bps; n=235</text>
<text x="1085.0" y="427" text-anchor="middle" class="axis">2024-11</text>
<rect x="1259.7" y="270.0" width="84" height="38.9" fill="#b42318"/>
<text x="1301.7" y="336.9" text-anchor="middle" class="value">-0.62 bps; n=231</text>
<text x="1301.7" y="427" text-anchor="middle" class="axis">2024-12</text>
<text x="110" y="505" class="note">Aggregate: -0.677 mean net bps, PF 0.980, day-block lower 95% -11.019 across 466 actions. No portfolio, ROI, or leverage simulation.</text>
</svg>
