<svg xmlns="http://www.w3.org/2000/svg" width="1480" height="560" viewBox="0 0 1480 560" role="img" aria-labelledby="title desc">
<title id="title">Five months remained flat; December was positive but unsupported</title>
<desc id="desc">Evaluation mean net bps after the frozen 12 bps charge; crosses denote no threshold and therefore no trade series.</desc>
<rect width="100%" height="100%" fill="#ffffff"/>
<style>text{font-family:"Segoe UI",Arial,sans-serif;letter-spacing:0}.title{font-size:27px;font-weight:700;fill:#17212b}.subtitle{font-size:14px;fill:#52606d}.label{font-size:13px;fill:#263746}.axis{font-size:12px;fill:#60717f}.value{font-size:12px;font-weight:650;fill:#263746}.note{font-size:12px;fill:#65727d}.grid{stroke:#e1e8ed;stroke-width:1}.zero{stroke:#526674;stroke-width:2;stroke-dasharray:6 5}</style>
<text x="56" y="52" class="title">Five months remained flat; December was positive but unsupported</text>
<text x="56" y="80" class="subtitle">Evaluation mean net bps after the frozen 12 bps charge; crosses denote no threshold and therefore no trade series.</text>
<line x1="110" y1="353.3" x2="1410" y2="353.3" class="zero"/>
<line x1="210.3" y1="345.3" x2="226.3" y2="361.3" stroke="#60717f" stroke-width="3"/><line x1="210.3" y1="361.3" x2="226.3" y2="345.3" stroke="#60717f" stroke-width="3"/>
<text x="218.3" y="427" text-anchor="middle" class="axis">2024-07</text>
<line x1="427.0" y1="345.3" x2="443.0" y2="361.3" stroke="#60717f" stroke-width="3"/><line x1="427.0" y1="361.3" x2="443.0" y2="345.3" stroke="#60717f" stroke-width="3"/>
<text x="435.0" y="427" text-anchor="middle" class="axis">2024-08</text>
<line x1="643.7" y1="345.3" x2="659.7" y2="361.3" stroke="#60717f" stroke-width="3"/><line x1="643.7" y1="361.3" x2="659.7" y2="345.3" stroke="#60717f" stroke-width="3"/>
<text x="651.7" y="427" text-anchor="middle" class="axis">2024-09</text>
<line x1="860.3" y1="345.3" x2="876.3" y2="361.3" stroke="#60717f" stroke-width="3"/><line x1="860.3" y1="361.3" x2="876.3" y2="345.3" stroke="#60717f" stroke-width="3"/>
<text x="868.3" y="427" text-anchor="middle" class="axis">2024-10</text>
<line x1="1077.0" y1="345.3" x2="1093.0" y2="361.3" stroke="#60717f" stroke-width="3"/><line x1="1077.0" y1="361.3" x2="1093.0" y2="345.3" stroke="#60717f" stroke-width="3"/>
<text x="1085.0" y="427" text-anchor="middle" class="axis">2024-11</text>
<rect x="1259.7" y="203.1" width="84" height="150.3" fill="#0f766e"/>
<text x="1301.7" y="188.1" text-anchor="middle" class="value">+36.06 bps; n=70</text>
<text x="1301.7" y="427" text-anchor="middle" class="axis">2024-12</text>
<text x="110" y="505" class="note">Aggregate across selected actions: +36.061 mean bps, PF 2.008, day-block lower 95% -4.307. No portfolio, ROI, or leverage simulation.</text>
</svg>
