<svg xmlns="http://www.w3.org/2000/svg" width="1500" height="760" viewBox="0 0 1500 760" role="img" aria-labelledby="title desc">
<title id="title">Path-event probabilities improved proper scores</title>
<desc id="desc">Consumed 2025-H1 evaluation; calibration skill is not an after-cost trading edge.</desc>
<rect width="100%" height="100%" fill="#ffffff"/>
<style>text{font-family:"Segoe UI",Arial,sans-serif;letter-spacing:0}.title{font-size:27px;font-weight:700;fill:#17212b}.subtitle{font-size:14px;fill:#52606d}.label{font-size:13px;fill:#263746}.axis{font-size:12px;fill:#60717f}.value{font-size:12px;font-weight:650;fill:#263746}.note{font-size:12px;fill:#65727d}.grid{stroke:#e1e8ed;stroke-width:1}.zero{stroke:#526674;stroke-width:2;stroke-dasharray:6 5}</style>
<text x="56" y="52" class="title">Path-event probabilities improved proper scores</text>
<text x="56" y="80" class="subtitle">Consumed 2025-H1 evaluation; calibration skill is not an after-cost trading edge.</text>
<rect x="830" y="43" width="18" height="18" fill="#2563a6"/><text x="858" y="57" class="note">Direct mean control</text>
<rect x="1120" y="43" width="18" height="18" fill="#0f766e"/><text x="1148" y="57" class="note">Competing-risk model</text>
<text x="130" y="127" class="label">Event log-loss skill versus training prevalence</text>
<line x1="130" y1="350.0" x2="1430" y2="350.0" class="grid"/><text x="116" y="354.0" text-anchor="end" class="axis">0.0000</text>
<line x1="130" y1="247.5" x2="1430" y2="247.5" class="grid"/><text x="116" y="251.5" text-anchor="end" class="axis">0.0200</text>
<line x1="130" y1="145.0" x2="1430" y2="145.0" class="grid"/><text x="116" y="149.0" text-anchor="end" class="axis">0.0400</text>
<line x1="130" y1="350.0" x2="1430" y2="350.0" class="zero"/>
<rect x="195.0" y="197.1" width="195.0" height="152.9" fill="#2563a6"/><text x="292.5" y="188.1" text-anchor="middle" class="value">0.0298</text><text x="292.5" y="374.0" text-anchor="middle" class="axis">Direct Short</text>
<rect x="520.0" y="203.2" width="195.0" height="146.8" fill="#2563a6"/><text x="617.5" y="194.2" text-anchor="middle" class="value">0.0286</text><text x="617.5" y="374.0" text-anchor="middle" class="axis">Direct Long</text>
<rect x="845.0" y="194.9" width="195.0" height="155.1" fill="#0f766e"/><text x="942.5" y="185.9" text-anchor="middle" class="value">0.0303</text><text x="942.5" y="374.0" text-anchor="middle" class="axis">Path Short</text>
<rect x="1170.0" y="195.1" width="195.0" height="154.9" fill="#0f766e"/><text x="1267.5" y="186.1" text-anchor="middle" class="value">0.0302</text><text x="1267.5" y="374.0" text-anchor="middle" class="axis">Path Long</text>
<text x="130" y="452" class="label">Maximum event-group ECE (frozen ceiling 0.05; lower is better)</text>
<line x1="130" y1="650.0" x2="1430" y2="650.0" class="grid"/><text x="116" y="654.0" text-anchor="end" class="axis">0.0000</text>
<line x1="130" y1="560.0" x2="1430" y2="560.0" class="grid"/><text x="116" y="564.0" text-anchor="end" class="axis">0.0250</text>
<line x1="130" y1="470.0" x2="1430" y2="470.0" class="grid"/><text x="116" y="474.0" text-anchor="end" class="axis">0.0500</text>
<line x1="130" y1="470.0" x2="1430" y2="470.0" class="zero"/>
<rect x="195.0" y="470.0" width="195.0" height="139.9" fill="#2563a6"/><text x="292.5" y="628.9" text-anchor="middle" class="value">0.0111</text><text x="292.5" y="674.0" text-anchor="middle" class="axis">Direct Short</text>
<rect x="520.0" y="470.0" width="195.0" height="104.1" fill="#2563a6"/><text x="617.5" y="593.1" text-anchor="middle" class="value">0.0211</text><text x="617.5" y="674.0" text-anchor="middle" class="axis">Direct Long</text>
<rect x="845.0" y="470.0" width="195.0" height="112.2" fill="#0f766e"/><text x="942.5" y="601.2" text-anchor="middle" class="value">0.0188</text><text x="942.5" y="674.0" text-anchor="middle" class="axis">Path Short</text>
<rect x="1170.0" y="470.0" width="195.0" height="118.0" fill="#0f766e"/><text x="1267.5" y="607.0" text-anchor="middle" class="value">0.0172</text><text x="1267.5" y="674.0" text-anchor="middle" class="axis">Path Long</text>
</svg>
