<svg xmlns="http://www.w3.org/2000/svg" width="1480" height="650" viewBox="0 0 1480 650" role="img" aria-labelledby="title desc">
<title id="title">Even the post-outcome best delay remained negative after and before charge</title>
<desc id="desc">Mean proposal-side utility; oracle delay is a prohibited post-outcome upper-bound diagnostic, not a strategy.</desc>
<rect width="100%" height="100%" fill="#ffffff"/>
<style>text{font-family:"Segoe UI",Arial,sans-serif;letter-spacing:0}.title{font-size:27px;font-weight:700;fill:#17212b}.subtitle{font-size:14px;fill:#52606d}.label{font-size:13px;fill:#263746}.axis{font-size:12px;fill:#60717f}.value{font-size:12px;font-weight:650;fill:#263746}.note{font-size:12px;fill:#65727d}.grid{stroke:#e1e8ed;stroke-width:1}.zero{stroke:#526674;stroke-width:2;stroke-dasharray:6 5}</style>
<text x="56" y="52" class="title">Even the post-outcome best delay remained negative after and before charge</text>
<text x="56" y="80" class="subtitle">Mean proposal-side utility; oracle delay is a prohibited post-outcome upper-bound diagnostic, not a strategy.</text>
<line x1="120" y1="480.0" x2="1410" y2="480.0" class="grid"/>
<text x="106" y="484.0" text-anchor="end" class="axis">-30 bps</text>
<line x1="120" y1="385.7" x2="1410" y2="385.7" class="grid"/>
<text x="106" y="389.7" text-anchor="end" class="axis">-20 bps</text>
<line x1="120" y1="291.4" x2="1410" y2="291.4" class="grid"/>
<text x="106" y="295.4" text-anchor="end" class="axis">-10 bps</text>
<line x1="120" y1="197.1" x2="1410" y2="197.1" class="zero"/>
<text x="106" y="201.1" text-anchor="end" class="axis">+0 bps</text>
<rect x="243.0" y="197.1" width="76" height="42.1" fill="#b42318"/>
<text x="281.0" y="261.3" text-anchor="middle" class="value">-4.47; n=18</text>
<text x="281.0" y="528.0" text-anchor="middle" class="note">immediate</text>
<rect x="351.0" y="197.1" width="76" height="14.6" fill="#7b559c"/>
<text x="389.0" y="233.7" text-anchor="middle" class="value">-1.55; n=18</text>
<text x="389.0" y="528.0" text-anchor="middle" class="note">oracle delay</text>
<text x="335.0" y="562.0" text-anchor="middle" class="label">2024-06-06</text>
<rect x="673.0" y="197.1" width="76" height="223.9" fill="#b42318"/>
<text x="711.0" y="443.0" text-anchor="middle" class="value">-23.74; n=23</text>
<text x="711.0" y="528.0" text-anchor="middle" class="note">immediate</text>
<rect x="781.0" y="197.1" width="76" height="232.9" fill="#7b559c"/>
<text x="819.0" y="452.0" text-anchor="middle" class="value">-24.70; n=22</text>
<text x="819.0" y="528.0" text-anchor="middle" class="note">oracle delay</text>
<text x="765.0" y="562.0" text-anchor="middle" class="label">2024-06-07</text>
<rect x="1103.0" y="197.1" width="76" height="144.1" fill="#b42318"/>
<text x="1141.0" y="363.2" text-anchor="middle" class="value">-15.28; n=41</text>
<text x="1141.0" y="528.0" text-anchor="middle" class="note">immediate</text>
<rect x="1211.0" y="197.1" width="76" height="134.6" fill="#7b559c"/>
<text x="1249.0" y="353.8" text-anchor="middle" class="value">-14.28; n=40</text>
<text x="1249.0" y="528.0" text-anchor="middle" class="note">oracle delay</text>
<text x="1195.0" y="562.0" text-anchor="middle" class="label">aggregate</text>
<text x="120" y="610" class="note">Aggregate immediate: -15.282 net bps (-3.282 after adding back the fixed 12 bps charge). Oracle: -14.279 (-2.279 before fixed charge). No threshold executed.</text>
</svg>
