<svg xmlns="http://www.w3.org/2000/svg" width="1500" height="1010" viewBox="0 0 1500 1010" role="img" aria-labelledby="title desc">
<title id="title">Expected-payoff rank and selected tail failed</title>
<desc id="desc">Proper event forecasts did not rank exact after-cost payoff or produce a profitable positive-prediction tail.</desc>
<rect width="100%" height="100%" fill="#ffffff"/>
<style>text{font-family:"Segoe UI",Arial,sans-serif;letter-spacing:0}.title{font-size:27px;font-weight:700;fill:#17212b}.subtitle{font-size:14px;fill:#52606d}.label{font-size:13px;fill:#263746}.axis{font-size:12px;fill:#60717f}.value{font-size:12px;font-weight:650;fill:#263746}.note{font-size:12px;fill:#65727d}.grid{stroke:#e1e8ed;stroke-width:1}.zero{stroke:#526674;stroke-width:2;stroke-dasharray:6 5}</style>
<text x="56" y="52" class="title">Expected-payoff rank and selected tail failed</text>
<text x="56" y="80" class="subtitle">Proper event forecasts did not rank exact after-cost payoff or produce a profitable positive-prediction tail.</text>
<rect x="830" y="43" width="18" height="18" fill="#2563a6"/><text x="858" y="57" class="note">Direct mean control</text>
<rect x="1120" y="43" width="18" height="18" fill="#0f766e"/><text x="1148" y="57" class="note">Competing-risk model</text>
<text x="130" y="127" class="label">Expected-payoff Spearman (frozen minimum 0.03)</text>
<line x1="130" y1="330.0" x2="1430" y2="330.0" class="grid"/><text x="116" y="334.0" text-anchor="end" class="axis">-0.0767</text>
<line x1="130" y1="237.5" x2="1430" y2="237.5" class="grid"/><text x="116" y="241.5" text-anchor="end" class="axis">-0.0062</text>
<line x1="130" y1="145.0" x2="1430" y2="145.0" class="grid"/><text x="116" y="149.0" text-anchor="end" class="axis">0.0644</text>
<line x1="130" y1="190.1" x2="1430" y2="190.1" class="zero"/>
<rect x="195.0" y="190.1" width="195.0" height="47.8" fill="#2563a6"/><text x="292.5" y="256.9" text-anchor="middle" class="value">-0.0065</text><text x="292.5" y="354.0" text-anchor="middle" class="axis">Direct Short</text>
<rect x="520.0" y="190.1" width="195.0" height="2.4" fill="#2563a6"/><text x="617.5" y="211.5" text-anchor="middle" class="value">0.0281</text><text x="617.5" y="354.0" text-anchor="middle" class="axis">Direct Long</text>
<rect x="845.0" y="190.1" width="195.0" height="118.6" fill="#0f766e"/><text x="942.5" y="327.7" text-anchor="middle" class="value">-0.0604</text><text x="942.5" y="354.0" text-anchor="middle" class="axis">Path Short</text>
<rect x="1170.0" y="166.3" width="195.0" height="23.7" fill="#0f766e"/><text x="1267.5" y="157.3" text-anchor="middle" class="value">0.0481</text><text x="1267.5" y="354.0" text-anchor="middle" class="axis">Path Long</text>
<text x="130" y="427" class="label">Expected-payoff MSE skill versus training mean</text>
<line x1="130" y1="620.0" x2="1430" y2="620.0" class="grid"/><text x="116" y="624.0" text-anchor="end" class="axis">-0.0015</text>
<line x1="130" y1="532.5" x2="1430" y2="532.5" class="grid"/><text x="116" y="536.5" text-anchor="end" class="axis">0.0032</text>
<line x1="130" y1="445.0" x2="1430" y2="445.0" class="grid"/><text x="116" y="449.0" text-anchor="end" class="axis">0.0079</text>
<line x1="130" y1="592.1" x2="1430" y2="592.1" class="zero"/>
<rect x="195.0" y="531.9" width="195.0" height="60.2" fill="#2563a6"/><text x="292.5" y="522.9" text-anchor="middle" class="value">0.0032</text><text x="292.5" y="644.0" text-anchor="middle" class="axis">Direct Short</text>
<rect x="520.0" y="472.9" width="195.0" height="119.1" fill="#2563a6"/><text x="617.5" y="463.9" text-anchor="middle" class="value">0.0064</text><text x="617.5" y="644.0" text-anchor="middle" class="axis">Direct Long</text>
<rect x="845.0" y="575.5" width="195.0" height="16.5" fill="#0f766e"/><text x="942.5" y="566.5" text-anchor="middle" class="value">0.0009</text><text x="942.5" y="644.0" text-anchor="middle" class="axis">Path Short</text>
<rect x="1170.0" y="525.9" width="195.0" height="66.1" fill="#0f766e"/><text x="1267.5" y="516.9" text-anchor="middle" class="value">0.0036</text><text x="1267.5" y="644.0" text-anchor="middle" class="axis">Path Long</text>
<text x="130" y="727" class="label">Mean realized payoff of all-seed-positive selected trades (bps, 12 bps charge)</text>
<line x1="130" y1="900.0" x2="1430" y2="900.0" class="grid"/><text x="116" y="904.0" text-anchor="end" class="axis">-20.21</text>
<line x1="130" y1="822.5" x2="1430" y2="822.5" class="grid"/><text x="116" y="826.5" text-anchor="end" class="axis">-8.79</text>
<line x1="130" y1="745.0" x2="1430" y2="745.0" class="grid"/><text x="116" y="749.0" text-anchor="end" class="axis">+2.64</text>
<line x1="130" y1="762.9" x2="1430" y2="762.9" class="zero"/>
<rect x="260.0" y="762.9" width="390.0" height="97.3" fill="#2563a6"/><text x="455.0" y="879.2" text-anchor="middle" class="value">-14.34</text><text x="455.0" y="924.0" text-anchor="middle" class="axis">Direct</text>
<rect x="910.0" y="762.9" width="390.0" height="119.2" fill="#0f766e"/><text x="1105.0" y="901.1" text-anchor="middle" class="value">-17.57</text><text x="1105.0" y="924.0" text-anchor="middle" class="axis">Path</text>
</svg>
