<svg xmlns="http://www.w3.org/2000/svg" width="1200" height="700" viewBox="0 0 1200 700" role="img">
<title>Queue-fill survival generalized across the consumed evaluation</title>
<desc>9-14 June 2023 UTC; exact 15-second fill outcomes; positive values beat causal training-prevalence baselines</desc>
<rect width="1200" height="700" fill="#0b1220"/>
<text x="64" y="58" fill="#f8fafc" font-family="Segoe UI,Arial,sans-serif" font-size="28" font-weight="700">Queue-fill survival generalized across the consumed evaluation</text>
<text x="64" y="88" fill="#cbd5e1" font-family="Segoe UI,Arial,sans-serif" font-size="15">9-14 June 2023 UTC; exact 15-second fill outcomes; positive values beat causal training-prevalence baselines</text>
<line x1="100" y1="575.0" x2="1150" y2="575.0" stroke="#334155" stroke-width="1"/>
<text x="86" y="580.0" text-anchor="end" fill="#cbd5e1" font-family="Segoe UI,Arial,sans-serif" font-size="13">0</text>
<line x1="100" y1="487.0" x2="1150" y2="487.0" stroke="#334155" stroke-width="1"/>
<text x="86" y="492.0" text-anchor="end" fill="#cbd5e1" font-family="Segoe UI,Arial,sans-serif" font-size="13">5</text>
<line x1="100" y1="399.0" x2="1150" y2="399.0" stroke="#334155" stroke-width="1"/>
<text x="86" y="404.0" text-anchor="end" fill="#cbd5e1" font-family="Segoe UI,Arial,sans-serif" font-size="13">10</text>
<line x1="100" y1="311.0" x2="1150" y2="311.0" stroke="#334155" stroke-width="1"/>
<text x="86" y="316.0" text-anchor="end" fill="#cbd5e1" font-family="Segoe UI,Arial,sans-serif" font-size="13">15</text>
<line x1="100" y1="223.0" x2="1150" y2="223.0" stroke="#334155" stroke-width="1"/>
<text x="86" y="228.0" text-anchor="end" fill="#cbd5e1" font-family="Segoe UI,Arial,sans-serif" font-size="13">20</text>
<line x1="100" y1="135.0" x2="1150" y2="135.0" stroke="#334155" stroke-width="1"/>
<text x="86" y="140.0" text-anchor="end" fill="#cbd5e1" font-family="Segoe UI,Arial,sans-serif" font-size="13">25</text>
<rect x="138.5" y="229.5" width="39.7" height="345.5" rx="3" fill="#14b8a6"/>
<text x="158.3" y="221.5" text-anchor="middle" fill="#f8fafc" font-family="Segoe UI,Arial,sans-serif" font-size="12">19.63</text>
<rect x="196.8" y="180.8" width="39.7" height="394.2" rx="3" fill="#60a5fa"/>
<text x="216.7" y="172.8" text-anchor="middle" fill="#f8fafc" font-family="Segoe UI,Arial,sans-serif" font-size="12">22.40</text>
<text x="187.5" y="609" text-anchor="middle" fill="#f8fafc" font-family="Segoe UI,Arial,sans-serif" font-size="14">BTC L</text>
<rect x="313.5" y="234.8" width="39.7" height="340.2" rx="3" fill="#14b8a6"/>
<text x="333.3" y="226.8" text-anchor="middle" fill="#f8fafc" font-family="Segoe UI,Arial,sans-serif" font-size="12">19.33</text>
<rect x="371.8" y="191.4" width="39.7" height="383.6" rx="3" fill="#60a5fa"/>
<text x="391.7" y="183.4" text-anchor="middle" fill="#f8fafc" font-family="Segoe UI,Arial,sans-serif" font-size="12">21.80</text>
<text x="362.5" y="609" text-anchor="middle" fill="#f8fafc" font-family="Segoe UI,Arial,sans-serif" font-size="14">BTC S</text>
<rect x="488.5" y="257.9" width="39.7" height="317.1" rx="3" fill="#14b8a6"/>
<text x="508.3" y="249.9" text-anchor="middle" fill="#f8fafc" font-family="Segoe UI,Arial,sans-serif" font-size="12">18.02</text>
<rect x="546.8" y="238.8" width="39.7" height="336.2" rx="3" fill="#60a5fa"/>
<text x="566.7" y="230.8" text-anchor="middle" fill="#f8fafc" font-family="Segoe UI,Arial,sans-serif" font-size="12">19.10</text>
<text x="537.5" y="609" text-anchor="middle" fill="#f8fafc" font-family="Segoe UI,Arial,sans-serif" font-size="14">ETH L</text>
<rect x="663.5" y="254.0" width="39.7" height="321.0" rx="3" fill="#14b8a6"/>
<text x="683.3" y="246.0" text-anchor="middle" fill="#f8fafc" font-family="Segoe UI,Arial,sans-serif" font-size="12">18.24</text>
<rect x="721.8" y="237.3" width="39.7" height="337.7" rx="3" fill="#60a5fa"/>
<text x="741.7" y="229.3" text-anchor="middle" fill="#f8fafc" font-family="Segoe UI,Arial,sans-serif" font-size="12">19.19</text>
<text x="712.5" y="609" text-anchor="middle" fill="#f8fafc" font-family="Segoe UI,Arial,sans-serif" font-size="14">ETH S</text>
<rect x="838.5" y="468.9" width="39.7" height="106.1" rx="3" fill="#14b8a6"/>
<text x="858.3" y="460.9" text-anchor="middle" fill="#f8fafc" font-family="Segoe UI,Arial,sans-serif" font-size="12">6.03</text>
<rect x="896.8" y="483.2" width="39.7" height="91.8" rx="3" fill="#60a5fa"/>
<text x="916.7" y="475.2" text-anchor="middle" fill="#f8fafc" font-family="Segoe UI,Arial,sans-serif" font-size="12">5.22</text>
<text x="887.5" y="609" text-anchor="middle" fill="#f8fafc" font-family="Segoe UI,Arial,sans-serif" font-size="14">SOL L</text>
<rect x="1013.5" y="459.4" width="39.7" height="115.6" rx="3" fill="#14b8a6"/>
<text x="1033.3" y="451.4" text-anchor="middle" fill="#f8fafc" font-family="Segoe UI,Arial,sans-serif" font-size="12">6.57</text>
<rect x="1071.8" y="486.7" width="39.7" height="88.3" rx="3" fill="#60a5fa"/>
<text x="1091.7" y="478.7" text-anchor="middle" fill="#f8fafc" font-family="Segoe UI,Arial,sans-serif" font-size="12">5.01</text>
<text x="1062.5" y="609" text-anchor="middle" fill="#f8fafc" font-family="Segoe UI,Arial,sans-serif" font-size="14">SOL S</text>
<text transform="translate(24 355.0) rotate(-90)" text-anchor="middle" fill="#cbd5e1" font-family="Segoe UI,Arial,sans-serif" font-size="14">Proper-score skill (%)</text>
<rect x="100.0" y="655" width="14" height="14" rx="2" fill="#14b8a6"/>
<text x="122.0" y="667" fill="#cbd5e1" font-family="Segoe UI,Arial,sans-serif" font-size="13">Log-loss skill</text>
<rect x="625.0" y="655" width="14" height="14" rx="2" fill="#60a5fa"/>
<text x="647.0" y="667" fill="#cbd5e1" font-family="Segoe UI,Arial,sans-serif" font-size="13">Integrated Brier skill</text>
</svg>
