<svg xmlns="http://www.w3.org/2000/svg" width="1200" height="700" viewBox="0 0 1200 700" role="img">
<title>Finite holding fixed persistence, not robustness</title>
<desc>Post-hoc calibration diagnostic; all bootstrap lower bounds remained negative</desc>
<rect width="1200" height="700" fill="#0b1220"/>
<text x="64" y="58" fill="#f8fafc" font-family="Segoe UI,Arial,sans-serif" font-size="28" font-weight="700">Finite holding fixed persistence, not robustness</text>
<text x="64" y="88" fill="#cbd5e1" font-family="Segoe UI,Arial,sans-serif" font-size="15">Post-hoc calibration diagnostic; all bootstrap lower bounds remained negative</text>
<line x1="100" y1="575.0" x2="1150" y2="575.0" stroke="#334155" stroke-width="1"/>
<text x="86" y="580.0" text-anchor="end" fill="#cbd5e1" font-family="Segoe UI,Arial,sans-serif" font-size="13">-10.00</text>
<line x1="100" y1="487.0" x2="1150" y2="487.0" stroke="#334155" stroke-width="1"/>
<text x="86" y="492.0" text-anchor="end" fill="#cbd5e1" font-family="Segoe UI,Arial,sans-serif" font-size="13">-2.60</text>
<line x1="100" y1="399.0" x2="1150" y2="399.0" stroke="#334155" stroke-width="1"/>
<text x="86" y="404.0" text-anchor="end" fill="#cbd5e1" font-family="Segoe UI,Arial,sans-serif" font-size="13">4.80</text>
<line x1="100" y1="311.0" x2="1150" y2="311.0" stroke="#334155" stroke-width="1"/>
<text x="86" y="316.0" text-anchor="end" fill="#cbd5e1" font-family="Segoe UI,Arial,sans-serif" font-size="13">12.20</text>
<line x1="100" y1="223.0" x2="1150" y2="223.0" stroke="#334155" stroke-width="1"/>
<text x="86" y="228.0" text-anchor="end" fill="#cbd5e1" font-family="Segoe UI,Arial,sans-serif" font-size="13">19.60</text>
<line x1="100" y1="135.0" x2="1150" y2="135.0" stroke="#334155" stroke-width="1"/>
<text x="86" y="140.0" text-anchor="end" fill="#cbd5e1" font-family="Segoe UI,Arial,sans-serif" font-size="13">27.00</text>
<line x1="100" y1="456.1" x2="1150" y2="456.1" stroke="#94a3b8" stroke-width="2"/>
<rect x="157.8" y="456.1" width="59.5" height="82.6" rx="3" fill="#60a5fa"/>
<text x="187.5" y="556.7" text-anchor="middle" fill="#f8fafc" font-family="Segoe UI,Arial,sans-serif" font-size="12">-6.945</text>
<rect x="245.2" y="288.7" width="59.5" height="167.4" rx="3" fill="#f59e0b"/>
<text x="275.0" y="280.7" text-anchor="middle" fill="#f8fafc" font-family="Segoe UI,Arial,sans-serif" font-size="12">14.073</text>
<text x="231.2" y="609" text-anchor="middle" fill="#f8fafc" font-family="Segoe UI,Arial,sans-serif" font-size="14">4h cap</text>
<rect x="420.2" y="443.3" width="59.5" height="12.8" rx="3" fill="#60a5fa"/>
<text x="450.0" y="435.3" text-anchor="middle" fill="#f8fafc" font-family="Segoe UI,Arial,sans-serif" font-size="12">1.072</text>
<rect x="507.8" y="308.2" width="59.5" height="147.8" rx="3" fill="#f59e0b"/>
<text x="537.5" y="300.2" text-anchor="middle" fill="#f8fafc" font-family="Segoe UI,Arial,sans-serif" font-size="12">12.432</text>
<text x="493.8" y="609" text-anchor="middle" fill="#f8fafc" font-family="Segoe UI,Arial,sans-serif" font-size="14">8h cap</text>
<rect x="682.8" y="456.1" width="59.5" height="91.7" rx="3" fill="#60a5fa"/>
<text x="712.5" y="565.8" text-anchor="middle" fill="#f8fafc" font-family="Segoe UI,Arial,sans-serif" font-size="12">-7.710</text>
<rect x="770.2" y="189.9" width="59.5" height="266.2" rx="3" fill="#f59e0b"/>
<text x="800.0" y="181.9" text-anchor="middle" fill="#f8fafc" font-family="Segoe UI,Arial,sans-serif" font-size="12">22.382</text>
<text x="756.2" y="609" text-anchor="middle" fill="#f8fafc" font-family="Segoe UI,Arial,sans-serif" font-size="14">12h cap</text>
<rect x="945.2" y="456.1" width="59.5" height="40.9" rx="3" fill="#60a5fa"/>
<text x="975.0" y="515.0" text-anchor="middle" fill="#f8fafc" font-family="Segoe UI,Arial,sans-serif" font-size="12">-3.443</text>
<rect x="1032.8" y="172.0" width="59.5" height="284.1" rx="3" fill="#f59e0b"/>
<text x="1062.5" y="164.0" text-anchor="middle" fill="#f8fafc" font-family="Segoe UI,Arial,sans-serif" font-size="12">23.889</text>
<text x="1018.8" y="609" text-anchor="middle" fill="#f8fafc" font-family="Segoe UI,Arial,sans-serif" font-size="14">24h cap</text>
<text transform="translate(24 355.0) rotate(-90)" text-anchor="middle" fill="#cbd5e1" font-family="Segoe UI,Arial,sans-serif" font-size="14">Percent of unlevered capital</text>
<rect x="100.0" y="655" width="14" height="14" rx="2" fill="#60a5fa"/>
<text x="122.0" y="667" fill="#cbd5e1" font-family="Segoe UI,Arial,sans-serif" font-size="13">Stress return</text>
<rect x="625.0" y="655" width="14" height="14" rx="2" fill="#f59e0b"/>
<text x="647.0" y="667" fill="#cbd5e1" font-family="Segoe UI,Arial,sans-serif" font-size="13">Maximum drawdown</text>
</svg>
