<svg xmlns="http://www.w3.org/2000/svg" width="1500" height="760" viewBox="0 0 1500 760" role="img" aria-labelledby="title desc">
<title id="title">Round 45 preserved weak forecast skill but SAM did not improve it</title>
<desc id="desc">Consumed development evaluation, 2024-10-01 through 2025-06-30 UTC; pinball skill is relative to training-role unconditional quantiles.</desc>
<rect width="100%" height="100%" fill="#ffffff"/>
<style>text{font-family:"Segoe UI",Arial,sans-serif;letter-spacing:0}.title{font-size:27px;font-weight:700;fill:#17212b}.subtitle{font-size:14px;fill:#52606d}.label{font-size:13px;fill:#263746}.axis{font-size:12px;fill:#60717f}.value{font-size:12px;font-weight:650;fill:#263746}.note{font-size:12px;fill:#65727d}.grid{stroke:#e1e8ed;stroke-width:1}.zero{stroke:#526674;stroke-width:2;stroke-dasharray:6 5}</style>
<text x="56" y="52" class="title">Round 45 preserved weak forecast skill but SAM did not improve it</text>
<text x="56" y="80" class="subtitle">Consumed development evaluation, 2024-10-01 through 2025-06-30 UTC; pinball skill is relative to training-role unconditional quantiles.</text>
<text x="120" y="125" class="label">Pinball skill versus unconditional baseline</text>
<rect x="120" y="145" width="1310" height="205" fill="#ffffff" stroke="#d8e0e7"/>
<line x1="120" y1="350.0" x2="1430" y2="350.0" class="grid"/><text x="106" y="354.0" text-anchor="end" class="axis">0.000</text>
<line x1="120" y1="309.0" x2="1430" y2="309.0" class="grid"/><text x="106" y="313.0" text-anchor="end" class="axis">0.009</text>
<line x1="120" y1="268.0" x2="1430" y2="268.0" class="grid"/><text x="106" y="272.0" text-anchor="end" class="axis">0.018</text>
<line x1="120" y1="227.0" x2="1430" y2="227.0" class="grid"/><text x="106" y="231.0" text-anchor="end" class="axis">0.027</text>
<line x1="120" y1="186.0" x2="1430" y2="186.0" class="grid"/><text x="106" y="190.0" text-anchor="end" class="axis">0.036</text>
<line x1="120" y1="145.0" x2="1430" y2="145.0" class="grid"/><text x="106" y="149.0" text-anchor="end" class="axis">0.045</text>
<line x1="120" y1="304.4" x2="1430" y2="304.4" stroke="#b42318" stroke-width="2" stroke-dasharray="8 6"/>
<rect x="225.8" y="179.3" width="54" height="170.7" fill="#2563a6" fill-opacity="0.88"/>
<text x="252.8" y="170.3" text-anchor="middle" class="value">0.037</text>
<rect x="287.8" y="176.9" width="54" height="173.1" fill="#0f766e" fill-opacity="0.88"/>
<text x="314.8" y="167.9" text-anchor="middle" class="value">0.038</text>
<rect x="553.2" y="195.8" width="54" height="154.2" fill="#2563a6" fill-opacity="0.88"/>
<text x="580.2" y="186.8" text-anchor="middle" class="value">0.034</text>
<rect x="615.2" y="197.6" width="54" height="152.4" fill="#0f766e" fill-opacity="0.88"/>
<text x="642.2" y="188.6" text-anchor="middle" class="value">0.033</text>
<rect x="880.8" y="204.0" width="54" height="146.0" fill="#2563a6" fill-opacity="0.88"/>
<text x="907.8" y="195.0" text-anchor="middle" class="value">0.032</text>
<rect x="942.8" y="210.1" width="54" height="139.9" fill="#0f766e" fill-opacity="0.88"/>
<text x="969.8" y="201.1" text-anchor="middle" class="value">0.031</text>
<rect x="1208.2" y="277.9" width="54" height="72.1" fill="#2563a6" fill-opacity="0.88"/>
<text x="1235.2" y="268.9" text-anchor="middle" class="value">0.016</text>
<rect x="1270.2" y="281.6" width="54" height="68.4" fill="#0f766e" fill-opacity="0.88"/>
<text x="1297.2" y="272.6" text-anchor="middle" class="value">0.015</text>
<text x="120" y="430" class="label">Pooled median-return Spearman coefficient</text>
<rect x="120" y="450" width="1310" height="205" fill="#ffffff" stroke="#d8e0e7"/>
<line x1="120" y1="655.0" x2="1430" y2="655.0" class="grid"/><text x="106" y="659.0" text-anchor="end" class="axis">0.000</text>
<line x1="120" y1="614.0" x2="1430" y2="614.0" class="grid"/><text x="106" y="618.0" text-anchor="end" class="axis">0.015</text>
<line x1="120" y1="573.0" x2="1430" y2="573.0" class="grid"/><text x="106" y="577.0" text-anchor="end" class="axis">0.030</text>
<line x1="120" y1="532.0" x2="1430" y2="532.0" class="grid"/><text x="106" y="536.0" text-anchor="end" class="axis">0.045</text>
<line x1="120" y1="491.0" x2="1430" y2="491.0" class="grid"/><text x="106" y="495.0" text-anchor="end" class="axis">0.060</text>
<line x1="120" y1="450.0" x2="1430" y2="450.0" class="grid"/><text x="106" y="454.0" text-anchor="end" class="axis">0.075</text>
<line x1="120" y1="655.0" x2="1430" y2="655.0" stroke="#b42318" stroke-width="2" stroke-dasharray="8 6"/>
<rect x="225.8" y="579.8" width="54" height="75.2" fill="#2563a6" fill-opacity="0.88"/>
<text x="252.8" y="570.8" text-anchor="middle" class="value">0.028</text>
<rect x="287.8" y="568.8" width="54" height="86.2" fill="#0f766e" fill-opacity="0.88"/>
<text x="314.8" y="559.8" text-anchor="middle" class="value">0.032</text>
<text x="283.8" y="682" text-anchor="middle" class="axis">1 h</text>
<rect x="553.2" y="554.5" width="54" height="100.5" fill="#2563a6" fill-opacity="0.88"/>
<text x="580.2" y="545.5" text-anchor="middle" class="value">0.037</text>
<rect x="615.2" y="596.1" width="54" height="58.9" fill="#0f766e" fill-opacity="0.88"/>
<text x="642.2" y="587.1" text-anchor="middle" class="value">0.022</text>
<text x="611.2" y="682" text-anchor="middle" class="axis">4 h</text>
<rect x="880.8" y="473.2" width="54" height="181.8" fill="#2563a6" fill-opacity="0.88"/>
<text x="907.8" y="464.2" text-anchor="middle" class="value">0.067</text>
<rect x="942.8" y="479.6" width="54" height="175.4" fill="#0f766e" fill-opacity="0.88"/>
<text x="969.8" y="470.6" text-anchor="middle" class="value">0.064</text>
<text x="938.8" y="682" text-anchor="middle" class="axis">12 h</text>
<rect x="1208.2" y="533.4" width="54" height="121.6" fill="#2563a6" fill-opacity="0.88"/>
<text x="1235.2" y="524.4" text-anchor="middle" class="value">0.044</text>
<rect x="1270.2" y="548.4" width="54" height="106.6" fill="#0f766e" fill-opacity="0.88"/>
<text x="1297.2" y="539.4" text-anchor="middle" class="value">0.039</text>
<text x="1266.2" y="682" text-anchor="middle" class="axis">24 h</text>
<rect x="120" y="718" width="24" height="12" fill="#2563a6"/><text x="154" y="729" class="note">Joint AdamW</text>
<rect x="350" y="718" width="24" height="12" fill="#0f766e"/><text x="384" y="729" class="note">Joint SAM</text>
<text x="1430" y="729" text-anchor="end" class="note">Both candidates failed the separate seed-stability gate.</text>
</svg>
