<svg xmlns="http://www.w3.org/2000/svg" width="1200" height="700" viewBox="0 0 1200 700" role="img">
<title>Distribution skill did not become expected-value accuracy</title>
<desc>Mean consumed-development score over three assets, both sides, and three seeds</desc>
<rect width="1200" height="700" fill="#0b1220"/>
<text x="64" y="58" fill="#f8fafc" font-family="Segoe UI,Arial,sans-serif" font-size="28" font-weight="700">Distribution skill did not become expected-value accuracy</text>
<text x="64" y="88" fill="#cbd5e1" font-family="Segoe UI,Arial,sans-serif" font-size="15">Mean consumed-development score over three assets, both sides, and three seeds</text>
<line x1="100" y1="575.0" x2="1150" y2="575.0" stroke="#334155" stroke-width="1"/>
<text x="86" y="580.0" text-anchor="end" fill="#cbd5e1" font-family="Segoe UI,Arial,sans-serif" font-size="13">-4.00</text>
<line x1="100" y1="487.0" x2="1150" y2="487.0" stroke="#334155" stroke-width="1"/>
<text x="86" y="492.0" text-anchor="end" fill="#cbd5e1" font-family="Segoe UI,Arial,sans-serif" font-size="13">-1.40</text>
<line x1="100" y1="399.0" x2="1150" y2="399.0" stroke="#334155" stroke-width="1"/>
<text x="86" y="404.0" text-anchor="end" fill="#cbd5e1" font-family="Segoe UI,Arial,sans-serif" font-size="13">1.20</text>
<line x1="100" y1="311.0" x2="1150" y2="311.0" stroke="#334155" stroke-width="1"/>
<text x="86" y="316.0" text-anchor="end" fill="#cbd5e1" font-family="Segoe UI,Arial,sans-serif" font-size="13">3.80</text>
<line x1="100" y1="223.0" x2="1150" y2="223.0" stroke="#334155" stroke-width="1"/>
<text x="86" y="228.0" text-anchor="end" fill="#cbd5e1" font-family="Segoe UI,Arial,sans-serif" font-size="13">6.40</text>
<line x1="100" y1="135.0" x2="1150" y2="135.0" stroke="#334155" stroke-width="1"/>
<text x="86" y="140.0" text-anchor="end" fill="#cbd5e1" font-family="Segoe UI,Arial,sans-serif" font-size="13">9.00</text>
<line x1="100" y1="439.6" x2="1150" y2="439.6" stroke="#94a3b8" stroke-width="2"/>
<rect x="157.8" y="439.6" width="59.5" height="11.6" rx="3" fill="#ef4444"/>
<text x="187.5" y="469.3" text-anchor="middle" fill="#f8fafc" font-family="Segoe UI,Arial,sans-serif" font-size="12">-0.344</text>
<rect x="245.2" y="400.4" width="59.5" height="39.2" rx="3" fill="#60a5fa"/>
<text x="275.0" y="392.4" text-anchor="middle" fill="#f8fafc" font-family="Segoe UI,Arial,sans-serif" font-size="12">1.158</text>
<text x="275.0" y="609" text-anchor="middle" fill="#f8fafc" font-family="Segoe UI,Arial,sans-serif" font-size="14">Direct mean</text>
<rect x="507.8" y="439.6" width="59.5" height="27.9" rx="3" fill="#ef4444"/>
<text x="537.5" y="485.5" text-anchor="middle" fill="#f8fafc" font-family="Segoe UI,Arial,sans-serif" font-size="12">-0.823</text>
<rect x="595.2" y="265.0" width="59.5" height="174.6" rx="3" fill="#60a5fa"/>
<text x="625.0" y="257.0" text-anchor="middle" fill="#f8fafc" font-family="Segoe UI,Arial,sans-serif" font-size="12">5.158</text>
<rect x="682.8" y="372.7" width="59.5" height="67.0" rx="3" fill="#14b8a6"/>
<text x="712.5" y="364.7" text-anchor="middle" fill="#f8fafc" font-family="Segoe UI,Arial,sans-serif" font-size="12">1.979</text>
<text x="625.0" y="609" text-anchor="middle" fill="#f8fafc" font-family="Segoe UI,Arial,sans-serif" font-size="14">Executable CSM</text>
<rect x="857.8" y="439.6" width="59.5" height="32.2" rx="3" fill="#ef4444"/>
<text x="887.5" y="489.8" text-anchor="middle" fill="#f8fafc" font-family="Segoe UI,Arial,sans-serif" font-size="12">-0.950</text>
<rect x="945.2" y="273.8" width="59.5" height="165.8" rx="3" fill="#60a5fa"/>
<text x="975.0" y="265.8" text-anchor="middle" fill="#f8fafc" font-family="Segoe UI,Arial,sans-serif" font-size="12">4.900</text>
<rect x="1032.8" y="374.6" width="59.5" height="65.0" rx="3" fill="#14b8a6"/>
<text x="1062.5" y="366.6" text-anchor="middle" fill="#f8fafc" font-family="Segoe UI,Arial,sans-serif" font-size="12">1.920</text>
<text x="975.0" y="609" text-anchor="middle" fill="#f8fafc" font-family="Segoe UI,Arial,sans-serif" font-size="14">CSM + FinCast</text>
<text transform="translate(24 355.0) rotate(-90)" text-anchor="middle" fill="#cbd5e1" font-family="Segoe UI,Arial,sans-serif" font-size="14">Percent or rank correlation x100</text>
<rect x="100.0" y="655" width="14" height="14" rx="2" fill="#ef4444"/>
<text x="122.0" y="667" fill="#cbd5e1" font-family="Segoe UI,Arial,sans-serif" font-size="13">Expected-payoff MSE skill</text>
<rect x="450.0" y="655" width="14" height="14" rx="2" fill="#60a5fa"/>
<text x="472.0" y="667" fill="#cbd5e1" font-family="Segoe UI,Arial,sans-serif" font-size="13">Expected-payoff Spearman x100</text>
<rect x="800.0" y="655" width="14" height="14" rx="2" fill="#14b8a6"/>
<text x="822.0" y="667" fill="#cbd5e1" font-family="Segoe UI,Arial,sans-serif" font-size="13">Joint log-loss skill</text>
</svg>
