<svg xmlns="http://www.w3.org/2000/svg" width="1500" height="800" viewBox="0 0 1500 800" role="img" aria-labelledby="title desc">
<title id="title">Round 43 forecasts lost association after January</title>
<desc id="desc">Pooled out-of-sample Spearman IC and prior-month nonnegative amplitude calibration, by evaluation month.</desc>
<rect width="100%" height="100%" fill="#ffffff"/>
<style>text{font-family:"Segoe UI",Arial,sans-serif;letter-spacing:0}.title{font-size:27px;font-weight:700;fill:#17212b}.subtitle{font-size:14px;fill:#52606d}.label{font-size:13px;fill:#263746}.axis{font-size:12px;fill:#60717f}.value{font-size:12px;font-weight:650;fill:#263746}.note{font-size:12px;fill:#65727d}.grid{stroke:#e1e8ed;stroke-width:1}.zero{stroke:#526674;stroke-width:2;stroke-dasharray:6 5}</style>
<text x="56" y="52" class="title">Round 43 forecasts lost association after January</text>
<text x="56" y="80" class="subtitle">Pooled out-of-sample Spearman IC and prior-month nonnegative amplitude calibration, by evaluation month.</text>
<line x1="1090" y1="52" x2="1118" y2="52" stroke="#2563a6" stroke-width="4"/><circle cx="1104" cy="52" r="5" fill="#2563a6"/><text x="1128" y="57" class="note">ML 71</text>
<line x1="1270" y1="52" x2="1298" y2="52" stroke="#b7791f" stroke-width="4"/><circle cx="1284" cy="52" r="5" fill="#b7791f"/><text x="1308" y="57" class="note">AI-factor 77</text>
<text x="115" y="128" class="label">Spearman information coefficient</text>
<rect x="115" y="150" width="1320" height="220" fill="#ffffff" stroke="#d8e0e7"/>
<line x1="115" y1="370.0" x2="1435" y2="370.0" class="grid"/>
<text x="102" y="374.0" text-anchor="end" class="axis">-0.02</text>
<line x1="115" y1="315.0" x2="1435" y2="315.0" class="grid"/>
<text x="102" y="319.0" text-anchor="end" class="axis">-0.00</text>
<line x1="115" y1="260.0" x2="1435" y2="260.0" class="grid"/>
<text x="102" y="264.0" text-anchor="end" class="axis">0.02</text>
<line x1="115" y1="205.0" x2="1435" y2="205.0" class="grid"/>
<text x="102" y="209.0" text-anchor="end" class="axis">0.03</text>
<line x1="115" y1="150.0" x2="1435" y2="150.0" class="grid"/>
<text x="102" y="154.0" text-anchor="end" class="axis">0.05</text>
<polyline points="115.0,201.4 379.0,240.2 643.0,307.1 907.0,307.1 1171.0,307.1 1435.0,239.5" fill="none" stroke="#2563a6" stroke-width="3"/>
<circle cx="115.0" cy="201.4" r="5" fill="#2563a6"/>
<circle cx="379.0" cy="240.2" r="5" fill="#2563a6"/>
<circle cx="643.0" cy="307.1" r="5" fill="#2563a6"/>
<circle cx="907.0" cy="307.1" r="5" fill="#2563a6"/>
<circle cx="1171.0" cy="307.1" r="5" fill="#2563a6"/>
<circle cx="1435.0" cy="239.5" r="5" fill="#2563a6"/>
<polyline points="115.0,205.8 379.0,307.1 643.0,307.1 907.0,307.1 1171.0,307.1 1435.0,256.4" fill="none" stroke="#b7791f" stroke-width="3"/>
<circle cx="115.0" cy="205.8" r="5" fill="#b7791f"/>
<circle cx="379.0" cy="307.1" r="5" fill="#b7791f"/>
<circle cx="643.0" cy="307.1" r="5" fill="#b7791f"/>
<circle cx="907.0" cy="307.1" r="5" fill="#b7791f"/>
<circle cx="1171.0" cy="307.1" r="5" fill="#b7791f"/>
<circle cx="1435.0" cy="256.4" r="5" fill="#b7791f"/>
<text x="115" y="448" class="label">Amplitude slope</text>
<rect x="115" y="470" width="1320" height="220" fill="#ffffff" stroke="#d8e0e7"/>
<line x1="115" y1="690.0" x2="1435" y2="690.0" class="zero"/>
<text x="102" y="694.0" text-anchor="end" class="axis">0.00</text>
<line x1="115" y1="635.0" x2="1435" y2="635.0" class="grid"/>
<text x="102" y="639.0" text-anchor="end" class="axis">0.42</text>
<line x1="115" y1="580.0" x2="1435" y2="580.0" class="grid"/>
<text x="102" y="584.0" text-anchor="end" class="axis">0.85</text>
<line x1="115" y1="525.0" x2="1435" y2="525.0" class="grid"/>
<text x="102" y="529.0" text-anchor="end" class="axis">1.27</text>
<line x1="115" y1="470.0" x2="1435" y2="470.0" class="grid"/>
<text x="102" y="474.0" text-anchor="end" class="axis">1.70</text>
<polyline points="115.0,580.1 379.0,683.9 643.0,690.0 907.0,690.0 1171.0,690.0 1435.0,530.8" fill="none" stroke="#2563a6" stroke-width="3"/>
<circle cx="115.0" cy="580.1" r="5" fill="#2563a6"/>
<circle cx="379.0" cy="683.9" r="5" fill="#2563a6"/>
<circle cx="643.0" cy="690.0" r="5" fill="#2563a6"/>
<circle cx="907.0" cy="690.0" r="5" fill="#2563a6"/>
<circle cx="1171.0" cy="690.0" r="5" fill="#2563a6"/>
<circle cx="1435.0" cy="530.8" r="5" fill="#2563a6"/>
<polyline points="115.0,569.3 379.0,690.0 643.0,690.0 907.0,690.0 1171.0,690.0 1435.0,491.1" fill="none" stroke="#b7791f" stroke-width="3"/>
<circle cx="115.0" cy="569.3" r="5" fill="#b7791f"/>
<circle cx="379.0" cy="690.0" r="5" fill="#b7791f"/>
<circle cx="643.0" cy="690.0" r="5" fill="#b7791f"/>
<circle cx="907.0" cy="690.0" r="5" fill="#b7791f"/>
<circle cx="1171.0" cy="690.0" r="5" fill="#b7791f"/>
<circle cx="1435.0" cy="491.1" r="5" fill="#b7791f"/>
<text x="115.0" y="714" text-anchor="middle" class="axis">2025-01</text>
<text x="379.0" y="714" text-anchor="middle" class="axis">2025-02</text>
<text x="643.0" y="714" text-anchor="middle" class="axis">2025-03</text>
<text x="907.0" y="714" text-anchor="middle" class="axis">2025-04</text>
<text x="1171.0" y="714" text-anchor="middle" class="axis">2025-05</text>
<text x="1435.0" y="714" text-anchor="middle" class="axis">2025-06</text>
<text x="115" y="772" class="note">A zero slope is a fail-closed abstention: the immediately prior calibration relation was nonpositive, so the forecast was set to zero.</text>
</svg>
