<svg xmlns="http://www.w3.org/2000/svg" width="1200" height="700" viewBox="0 0 1200 700" role="img">
<title>Executable-row forecast quality</title>
<desc>Mean over BTC, ETH, SOL, both sides, and three seeds; evaluation is consumed development data</desc>
<rect width="1200" height="700" fill="#0b1220"/>
<text x="64" y="58" fill="#f8fafc" font-family="Segoe UI,Arial,sans-serif" font-size="28" font-weight="700">Executable-row forecast quality</text>
<text x="64" y="88" fill="#cbd5e1" font-family="Segoe UI,Arial,sans-serif" font-size="15">Mean over BTC, ETH, SOL, both sides, and three seeds; evaluation is consumed development data</text>
<line x1="100" y1="575.0" x2="1150" y2="575.0" stroke="#334155" stroke-width="1"/>
<text x="86" y="580.0" text-anchor="end" fill="#cbd5e1" font-family="Segoe UI,Arial,sans-serif" font-size="13">-3.00</text>
<line x1="100" y1="487.0" x2="1150" y2="487.0" stroke="#334155" stroke-width="1"/>
<text x="86" y="492.0" text-anchor="end" fill="#cbd5e1" font-family="Segoe UI,Arial,sans-serif" font-size="13">-0.40</text>
<line x1="100" y1="399.0" x2="1150" y2="399.0" stroke="#334155" stroke-width="1"/>
<text x="86" y="404.0" text-anchor="end" fill="#cbd5e1" font-family="Segoe UI,Arial,sans-serif" font-size="13">2.20</text>
<line x1="100" y1="311.0" x2="1150" y2="311.0" stroke="#334155" stroke-width="1"/>
<text x="86" y="316.0" text-anchor="end" fill="#cbd5e1" font-family="Segoe UI,Arial,sans-serif" font-size="13">4.80</text>
<line x1="100" y1="223.0" x2="1150" y2="223.0" stroke="#334155" stroke-width="1"/>
<text x="86" y="228.0" text-anchor="end" fill="#cbd5e1" font-family="Segoe UI,Arial,sans-serif" font-size="13">7.40</text>
<line x1="100" y1="135.0" x2="1150" y2="135.0" stroke="#334155" stroke-width="1"/>
<text x="86" y="140.0" text-anchor="end" fill="#cbd5e1" font-family="Segoe UI,Arial,sans-serif" font-size="13">10.00</text>
<line x1="100" y1="473.5" x2="1150" y2="473.5" stroke="#94a3b8" stroke-width="2"/>
<rect x="157.8" y="473.5" width="59.5" height="11.6" rx="3" fill="#ef4444"/>
<text x="187.5" y="503.1" text-anchor="middle" fill="#f8fafc" font-family="Segoe UI,Arial,sans-serif" font-size="12">-0.344</text>
<rect x="245.2" y="434.3" width="59.5" height="39.2" rx="3" fill="#60a5fa"/>
<text x="275.0" y="426.3" text-anchor="middle" fill="#f8fafc" font-family="Segoe UI,Arial,sans-serif" font-size="12">1.158</text>
<text x="275.0" y="609" text-anchor="middle" fill="#f8fafc" font-family="Segoe UI,Arial,sans-serif" font-size="14">Direct mean</text>
<rect x="507.8" y="473.5" width="59.5" height="26.4" rx="3" fill="#ef4444"/>
<text x="537.5" y="517.9" text-anchor="middle" fill="#f8fafc" font-family="Segoe UI,Arial,sans-serif" font-size="12">-0.780</text>
<rect x="595.2" y="362.5" width="59.5" height="110.9" rx="3" fill="#60a5fa"/>
<text x="625.0" y="354.5" text-anchor="middle" fill="#f8fafc" font-family="Segoe UI,Arial,sans-serif" font-size="12">3.277</text>
<rect x="682.8" y="210.1" width="59.5" height="263.4" rx="3" fill="#14b8a6"/>
<text x="712.5" y="202.1" text-anchor="middle" fill="#f8fafc" font-family="Segoe UI,Arial,sans-serif" font-size="12">7.781</text>
<text x="625.0" y="609" text-anchor="middle" fill="#f8fafc" font-family="Segoe UI,Arial,sans-serif" font-size="14">Executable hurdle</text>
<rect x="857.8" y="473.5" width="59.5" height="29.9" rx="3" fill="#ef4444"/>
<text x="887.5" y="521.4" text-anchor="middle" fill="#f8fafc" font-family="Segoe UI,Arial,sans-serif" font-size="12">-0.884</text>
<rect x="945.2" y="361.3" width="59.5" height="112.2" rx="3" fill="#60a5fa"/>
<text x="975.0" y="353.3" text-anchor="middle" fill="#f8fafc" font-family="Segoe UI,Arial,sans-serif" font-size="12">3.315</text>
<rect x="1032.8" y="198.6" width="59.5" height="274.8" rx="3" fill="#14b8a6"/>
<text x="1062.5" y="190.6" text-anchor="middle" fill="#f8fafc" font-family="Segoe UI,Arial,sans-serif" font-size="12">8.120</text>
<text x="975.0" y="609" text-anchor="middle" fill="#f8fafc" font-family="Segoe UI,Arial,sans-serif" font-size="14">Hurdle + FinCast</text>
<text transform="translate(24 355.0) rotate(-90)" text-anchor="middle" fill="#cbd5e1" font-family="Segoe UI,Arial,sans-serif" font-size="14">Percent or rank correlation x100</text>
<rect x="100.0" y="655" width="14" height="14" rx="2" fill="#ef4444"/>
<text x="122.0" y="667" fill="#cbd5e1" font-family="Segoe UI,Arial,sans-serif" font-size="13">Expected-payoff MSE skill</text>
<rect x="450.0" y="655" width="14" height="14" rx="2" fill="#60a5fa"/>
<text x="472.0" y="667" fill="#cbd5e1" font-family="Segoe UI,Arial,sans-serif" font-size="13">Expected-payoff Spearman x100</text>
<rect x="800.0" y="655" width="14" height="14" rx="2" fill="#14b8a6"/>
<text x="822.0" y="667" fill="#cbd5e1" font-family="Segoe UI,Arial,sans-serif" font-size="13">Probability log-loss skill</text>
</svg>
