<svg xmlns="http://www.w3.org/2000/svg" width="1500" height="760" viewBox="0 0 1500 760" role="img" aria-labelledby="title desc">
<title id="title">Profit-probability quality remained stable</title>
<desc id="desc">Pooled 15-minute evaluation metrics on consumed 2025-H1; classification quality is not an after-cost edge.</desc>
<rect width="100%" height="100%" fill="#ffffff"/>
<style>text{font-family:"Segoe UI",Arial,sans-serif;letter-spacing:0}.title{font-size:27px;font-weight:700;fill:#17212b}.subtitle{font-size:14px;fill:#52606d}.label{font-size:13px;fill:#263746}.axis{font-size:12px;fill:#60717f}.value{font-size:12px;font-weight:650;fill:#263746}.note{font-size:12px;fill:#65727d}.grid{stroke:#e1e8ed;stroke-width:1}.zero{stroke:#526674;stroke-width:2;stroke-dasharray:6 5}</style>
<text x="56" y="52" class="title">Profit-probability quality remained stable</text>
<text x="56" y="80" class="subtitle">Pooled 15-minute evaluation metrics on consumed 2025-H1; classification quality is not an after-cost edge.</text>
<rect x="930" y="42" width="18" height="18" fill="#2563a6"/><text x="958" y="56" class="note">Direct mean control</text>
<rect x="1170" y="42" width="18" height="18" fill="#0f766e"/><text x="1198" y="56" class="note">Conditional gain/loss hurdle</text>
<text x="130" y="127" class="label">ROC AUC (frozen minimum 0.55)</text>
<line x1="130" y1="350.0" x2="1430" y2="350.0" class="grid"/>
<text x="116" y="354.0" text-anchor="end" class="axis">0.550</text>
<line x1="130" y1="247.5" x2="1430" y2="247.5" class="grid"/>
<text x="116" y="251.5" text-anchor="end" class="axis">0.600</text>
<line x1="130" y1="145.0" x2="1430" y2="145.0" class="grid"/>
<text x="116" y="149.0" text-anchor="end" class="axis">0.650</text>
<line x1="130" y1="350.0" x2="1430" y2="350.0" class="zero"/>
<rect x="188.5" y="210.5" width="208.0" height="139.5" fill="#2563a6"/>
<text x="292.5" y="202.5" text-anchor="middle" class="value">0.618</text>
<text x="292.5" y="372.0" text-anchor="middle" class="axis">Short / control</text>
<rect x="513.5" y="210.4" width="208.0" height="139.6" fill="#0f766e"/>
<text x="617.5" y="202.4" text-anchor="middle" class="value">0.618</text>
<text x="617.5" y="372.0" text-anchor="middle" class="axis">Short / hurdle</text>
<rect x="838.5" y="209.3" width="208.0" height="140.7" fill="#2563a6"/>
<text x="942.5" y="201.3" text-anchor="middle" class="value">0.619</text>
<text x="942.5" y="372.0" text-anchor="middle" class="axis">Long / control</text>
<rect x="1163.5" y="210.1" width="208.0" height="139.9" fill="#0f766e"/>
<text x="1267.5" y="202.1" text-anchor="middle" class="value">0.618</text>
<text x="1267.5" y="372.0" text-anchor="middle" class="axis">Long / hurdle</text>
<text x="130" y="452" class="label">Binary log-loss skill versus training prevalence</text>
<line x1="130" y1="650.0" x2="1430" y2="650.0" class="grid"/>
<text x="116" y="654.0" text-anchor="end" class="axis">0.0000</text>
<line x1="130" y1="560.0" x2="1430" y2="560.0" class="grid"/>
<text x="116" y="564.0" text-anchor="end" class="axis">0.0250</text>
<line x1="130" y1="470.0" x2="1430" y2="470.0" class="grid"/>
<text x="116" y="474.0" text-anchor="end" class="axis">0.0500</text>
<line x1="130" y1="650.0" x2="1430" y2="650.0" class="zero"/>
<rect x="188.5" y="523.8" width="208.0" height="126.2" fill="#2563a6"/>
<text x="292.5" y="515.8" text-anchor="middle" class="value">0.0351</text>
<text x="292.5" y="672.0" text-anchor="middle" class="axis">Short / control</text>
<rect x="513.5" y="522.5" width="208.0" height="127.5" fill="#0f766e"/>
<text x="617.5" y="514.5" text-anchor="middle" class="value">0.0354</text>
<text x="617.5" y="672.0" text-anchor="middle" class="axis">Short / hurdle</text>
<rect x="838.5" y="522.0" width="208.0" height="128.0" fill="#2563a6"/>
<text x="942.5" y="514.0" text-anchor="middle" class="value">0.0355</text>
<text x="942.5" y="672.0" text-anchor="middle" class="axis">Long / control</text>
<rect x="1163.5" y="524.0" width="208.0" height="126.0" fill="#0f766e"/>
<text x="1267.5" y="516.0" text-anchor="middle" class="value">0.0350</text>
<text x="1267.5" y="672.0" text-anchor="middle" class="axis">Long / hurdle</text>
</svg>
