<svg xmlns="http://www.w3.org/2000/svg" width="1120" height="620" viewBox="0 0 1120 620">
<rect width="100%" height="100%" fill="#f7f9fb"/>
<text x="52" y="54" font-family="Segoe UI, Arial, sans-serif" font-size="26" font-weight="700" fill="#18242f">Round 10 forecast quality</text>
<text x="52" y="82" font-family="Segoe UI, Arial, sans-serif" font-size="14" fill="#51606d">Selection AUC only; values above 0.5 did not produce positive expected-value actions.</text>
<rect x="90" y="120" width="960" height="380" fill="#ffffff" stroke="#d8e0e7"/>
<line x1="90" y1="500.0" x2="1050" y2="500.0" stroke="#e5ebf0"/>
<text x="76" y="505.0" text-anchor="end" font-family="Segoe UI, Arial, sans-serif" font-size="12" fill="#60717f">0.0</text>
<line x1="90" y1="445.7" x2="1050" y2="445.7" stroke="#e5ebf0"/>
<text x="76" y="450.7" text-anchor="end" font-family="Segoe UI, Arial, sans-serif" font-size="12" fill="#60717f">0.1</text>
<line x1="90" y1="391.4" x2="1050" y2="391.4" stroke="#e5ebf0"/>
<text x="76" y="396.4" text-anchor="end" font-family="Segoe UI, Arial, sans-serif" font-size="12" fill="#60717f">0.2</text>
<line x1="90" y1="337.1" x2="1050" y2="337.1" stroke="#e5ebf0"/>
<text x="76" y="342.1" text-anchor="end" font-family="Segoe UI, Arial, sans-serif" font-size="12" fill="#60717f">0.3</text>
<line x1="90" y1="282.9" x2="1050" y2="282.9" stroke="#e5ebf0"/>
<text x="76" y="287.9" text-anchor="end" font-family="Segoe UI, Arial, sans-serif" font-size="12" fill="#60717f">0.4</text>
<line x1="90" y1="228.6" x2="1050" y2="228.6" stroke="#e5ebf0"/>
<text x="76" y="233.6" text-anchor="end" font-family="Segoe UI, Arial, sans-serif" font-size="12" fill="#60717f">0.5</text>
<line x1="90" y1="174.3" x2="1050" y2="174.3" stroke="#e5ebf0"/>
<text x="76" y="179.3" text-anchor="end" font-family="Segoe UI, Arial, sans-serif" font-size="12" fill="#60717f">0.6</text>
<line x1="90" y1="120.0" x2="1050" y2="120.0" stroke="#e5ebf0"/>
<text x="76" y="125.0" text-anchor="end" font-family="Segoe UI, Arial, sans-serif" font-size="12" fill="#60717f">0.7</text>
<line x1="90" y1="228.6" x2="1050" y2="228.6" stroke="#b44b4b" stroke-width="2" stroke-dasharray="7 5"/>
<rect x="215.0" y="248.0" width="30" height="252.0" fill="#218c8c"/>
<text x="230.0" y="241.0" text-anchor="middle" font-family="Segoe UI, Arial, sans-serif" font-size="11" fill="#263744">0.464</text>
<rect x="255.0" y="195.3" width="30" height="304.7" fill="#d59b2d"/>
<text x="270.0" y="188.3" text-anchor="middle" font-family="Segoe UI, Arial, sans-serif" font-size="11" fill="#263744">0.561</text>
<text x="250.0" y="528" text-anchor="middle" font-family="Segoe UI, Arial, sans-serif" font-size="12" fill="#334653">conservative-h1800</text>
<rect x="535.0" y="170.9" width="30" height="329.1" fill="#218c8c"/>
<text x="550.0" y="163.9" text-anchor="middle" font-family="Segoe UI, Arial, sans-serif" font-size="11" fill="#263744">0.606</text>
<rect x="575.0" y="269.6" width="30" height="230.4" fill="#d59b2d"/>
<text x="590.0" y="262.6" text-anchor="middle" font-family="Segoe UI, Arial, sans-serif" font-size="11" fill="#263744">0.424</text>
<text x="570.0" y="528" text-anchor="middle" font-family="Segoe UI, Arial, sans-serif" font-size="12" fill="#334653">regular-h1800</text>
<rect x="855.0" y="178.1" width="30" height="321.9" fill="#218c8c"/>
<text x="870.0" y="171.1" text-anchor="middle" font-family="Segoe UI, Arial, sans-serif" font-size="11" fill="#263744">0.593</text>
<rect x="895.0" y="342.9" width="30" height="157.1" fill="#d59b2d"/>
<text x="910.0" y="335.9" text-anchor="middle" font-family="Segoe UI, Arial, sans-serif" font-size="11" fill="#263744">0.289</text>
<text x="890.0" y="528" text-anchor="middle" font-family="Segoe UI, Arial, sans-serif" font-size="12" fill="#334653">aggressive-h1800</text>
<rect x="390" y="560" width="16" height="16" fill="#218c8c"/><text x="414" y="573" font-family="Segoe UI, Arial, sans-serif" font-size="13" fill="#334653">Long AUC</text>
<rect x="525" y="560" width="16" height="16" fill="#d59b2d"/><text x="549" y="573" font-family="Segoe UI, Arial, sans-serif" font-size="13" fill="#334653">Short AUC</text>
<line x1="675" y1="568" x2="705" y2="568" stroke="#b44b4b" stroke-width="2" stroke-dasharray="7 5"/><text x="713" y="573" font-family="Segoe UI, Arial, sans-serif" font-size="13" fill="#334653">Random</text>
</svg>
