<svg xmlns="http://www.w3.org/2000/svg" width="1200" height="700" viewBox="0 0 1200 700" role="img">
<title>One-sided inventory persisted for most of the quote lifetime</title>
<desc>Elapsed milliseconds between two fills, or remaining exposure after a singleton fill until the frozen 15-second expiry</desc>
<rect width="1200" height="700" fill="#0b1220"/>
<text x="64" y="58" fill="#f8fafc" font-family="Segoe UI,Arial,sans-serif" font-size="28" font-weight="700">One-sided inventory persisted for most of the quote lifetime</text>
<text x="64" y="88" fill="#cbd5e1" font-family="Segoe UI,Arial,sans-serif" font-size="15">Elapsed milliseconds between two fills, or remaining exposure after a singleton fill until the frozen 15-second expiry</text>
<line x1="100" y1="575.0" x2="1150" y2="575.0" stroke="#334155" stroke-width="1"/>
<text x="86" y="580.0" text-anchor="end" fill="#cbd5e1" font-family="Segoe UI,Arial,sans-serif" font-size="13">0</text>
<line x1="100" y1="487.0" x2="1150" y2="487.0" stroke="#334155" stroke-width="1"/>
<text x="86" y="492.0" text-anchor="end" fill="#cbd5e1" font-family="Segoe UI,Arial,sans-serif" font-size="13">3300</text>
<line x1="100" y1="399.0" x2="1150" y2="399.0" stroke="#334155" stroke-width="1"/>
<text x="86" y="404.0" text-anchor="end" fill="#cbd5e1" font-family="Segoe UI,Arial,sans-serif" font-size="13">6600</text>
<line x1="100" y1="311.0" x2="1150" y2="311.0" stroke="#334155" stroke-width="1"/>
<text x="86" y="316.0" text-anchor="end" fill="#cbd5e1" font-family="Segoe UI,Arial,sans-serif" font-size="13">9900</text>
<line x1="100" y1="223.0" x2="1150" y2="223.0" stroke="#334155" stroke-width="1"/>
<text x="86" y="228.0" text-anchor="end" fill="#cbd5e1" font-family="Segoe UI,Arial,sans-serif" font-size="13">13200</text>
<line x1="100" y1="135.0" x2="1150" y2="135.0" stroke="#334155" stroke-width="1"/>
<text x="86" y="140.0" text-anchor="end" fill="#cbd5e1" font-family="Segoe UI,Arial,sans-serif" font-size="13">16500</text>
<rect x="138.5" y="506.1" width="39.7" height="68.9" rx="3" fill="#14b8a6"/>
<text x="158.3" y="498.1" text-anchor="middle" fill="#f8fafc" font-family="Segoe UI,Arial,sans-serif" font-size="12">2584</text>
<rect x="196.8" y="233.8" width="39.7" height="341.2" rx="3" fill="#60a5fa"/>
<text x="216.7" y="225.8" text-anchor="middle" fill="#f8fafc" font-family="Segoe UI,Arial,sans-serif" font-size="12">12794</text>
<rect x="255.2" y="270.5" width="39.7" height="304.5" rx="3" fill="#f59e0b"/>
<text x="275.0" y="262.5" text-anchor="middle" fill="#f8fafc" font-family="Segoe UI,Arial,sans-serif" font-size="12">11418</text>
<rect x="313.5" y="176.9" width="39.7" height="398.1" rx="3" fill="#ef4444"/>
<text x="333.3" y="168.9" text-anchor="middle" fill="#f8fafc" font-family="Segoe UI,Arial,sans-serif" font-size="12">14928</text>
<rect x="371.8" y="175.0" width="39.7" height="400.0" rx="3" fill="#94a3b8"/>
<text x="391.7" y="167.0" text-anchor="middle" fill="#f8fafc" font-family="Segoe UI,Arial,sans-serif" font-size="12">15000</text>
<text x="275.0" y="609" text-anchor="middle" fill="#f8fafc" font-family="Segoe UI,Arial,sans-serif" font-size="14">BTC</text>
<rect x="488.5" y="504.9" width="39.7" height="70.1" rx="3" fill="#14b8a6"/>
<text x="508.3" y="496.9" text-anchor="middle" fill="#f8fafc" font-family="Segoe UI,Arial,sans-serif" font-size="12">2629</text>
<rect x="546.8" y="248.2" width="39.7" height="326.8" rx="3" fill="#60a5fa"/>
<text x="566.7" y="240.2" text-anchor="middle" fill="#f8fafc" font-family="Segoe UI,Arial,sans-serif" font-size="12">12254</text>
<rect x="605.2" y="278.1" width="39.7" height="296.9" rx="3" fill="#f59e0b"/>
<text x="625.0" y="270.1" text-anchor="middle" fill="#f8fafc" font-family="Segoe UI,Arial,sans-serif" font-size="12">11134</text>
<rect x="663.5" y="177.7" width="39.7" height="397.3" rx="3" fill="#ef4444"/>
<text x="683.3" y="169.7" text-anchor="middle" fill="#f8fafc" font-family="Segoe UI,Arial,sans-serif" font-size="12">14897</text>
<rect x="721.8" y="175.0" width="39.7" height="400.0" rx="3" fill="#94a3b8"/>
<text x="741.7" y="167.0" text-anchor="middle" fill="#f8fafc" font-family="Segoe UI,Arial,sans-serif" font-size="12">15000</text>
<text x="625.0" y="609" text-anchor="middle" fill="#f8fafc" font-family="Segoe UI,Arial,sans-serif" font-size="14">ETH</text>
<rect x="838.5" y="487.4" width="39.7" height="87.6" rx="3" fill="#14b8a6"/>
<text x="858.3" y="479.4" text-anchor="middle" fill="#f8fafc" font-family="Segoe UI,Arial,sans-serif" font-size="12">3285</text>
<rect x="896.8" y="251.4" width="39.7" height="323.6" rx="3" fill="#60a5fa"/>
<text x="916.7" y="243.4" text-anchor="middle" fill="#f8fafc" font-family="Segoe UI,Arial,sans-serif" font-size="12">12136</text>
<rect x="955.2" y="341.5" width="39.7" height="233.5" rx="3" fill="#f59e0b"/>
<text x="975.0" y="333.5" text-anchor="middle" fill="#f8fafc" font-family="Segoe UI,Arial,sans-serif" font-size="12">8755</text>
<rect x="1013.5" y="181.9" width="39.7" height="393.1" rx="3" fill="#ef4444"/>
<text x="1033.3" y="173.9" text-anchor="middle" fill="#f8fafc" font-family="Segoe UI,Arial,sans-serif" font-size="12">14741</text>
<rect x="1071.8" y="175.0" width="39.7" height="400.0" rx="3" fill="#94a3b8"/>
<text x="1091.7" y="167.0" text-anchor="middle" fill="#f8fafc" font-family="Segoe UI,Arial,sans-serif" font-size="12">15000</text>
<text x="975.0" y="609" text-anchor="middle" fill="#f8fafc" font-family="Segoe UI,Arial,sans-serif" font-size="14">SOL</text>
<text transform="translate(24 355.0) rotate(-90)" text-anchor="middle" fill="#cbd5e1" font-family="Segoe UI,Arial,sans-serif" font-size="14">Milliseconds</text>
<rect x="100.0" y="655" width="14" height="14" rx="2" fill="#14b8a6"/>
<text x="122.0" y="667" fill="#cbd5e1" font-family="Segoe UI,Arial,sans-serif" font-size="13">Both p50</text>
<rect x="310.0" y="655" width="14" height="14" rx="2" fill="#60a5fa"/>
<text x="332.0" y="667" fill="#cbd5e1" font-family="Segoe UI,Arial,sans-serif" font-size="13">Both p99</text>
<rect x="520.0" y="655" width="14" height="14" rx="2" fill="#f59e0b"/>
<text x="542.0" y="667" fill="#cbd5e1" font-family="Segoe UI,Arial,sans-serif" font-size="13">Singleton p50</text>
<rect x="730.0" y="655" width="14" height="14" rx="2" fill="#ef4444"/>
<text x="752.0" y="667" fill="#cbd5e1" font-family="Segoe UI,Arial,sans-serif" font-size="13">Singleton p99</text>
<rect x="940.0" y="655" width="14" height="14" rx="2" fill="#94a3b8"/>
<text x="962.0" y="667" fill="#cbd5e1" font-family="Segoe UI,Arial,sans-serif" font-size="13">Quote expiry</text>
</svg>
