<svg xmlns="http://www.w3.org/2000/svg" width="1200" height="700" viewBox="0 0 1200 700" role="img">
<title>Singleton fills dominated two-sided completions</title>
<desc>1 June 2023 UTC; 750 ms placement, full displayed queue ahead, 15-second expiry; value-blind support diagnostic</desc>
<rect width="1200" height="700" fill="#0b1220"/>
<text x="64" y="58" fill="#f8fafc" font-family="Segoe UI,Arial,sans-serif" font-size="28" font-weight="700">Singleton fills dominated two-sided completions</text>
<text x="64" y="88" fill="#cbd5e1" font-family="Segoe UI,Arial,sans-serif" font-size="15">1 June 2023 UTC; 750 ms placement, full displayed queue ahead, 15-second expiry; value-blind support diagnostic</text>
<line x1="100" y1="575.0" x2="1150" y2="575.0" stroke="#334155" stroke-width="1"/>
<text x="86" y="580.0" text-anchor="end" fill="#cbd5e1" font-family="Segoe UI,Arial,sans-serif" font-size="13">0</text>
<line x1="100" y1="487.0" x2="1150" y2="487.0" stroke="#334155" stroke-width="1"/>
<text x="86" y="492.0" text-anchor="end" fill="#cbd5e1" font-family="Segoe UI,Arial,sans-serif" font-size="13">15</text>
<line x1="100" y1="399.0" x2="1150" y2="399.0" stroke="#334155" stroke-width="1"/>
<text x="86" y="404.0" text-anchor="end" fill="#cbd5e1" font-family="Segoe UI,Arial,sans-serif" font-size="13">30</text>
<line x1="100" y1="311.0" x2="1150" y2="311.0" stroke="#334155" stroke-width="1"/>
<text x="86" y="316.0" text-anchor="end" fill="#cbd5e1" font-family="Segoe UI,Arial,sans-serif" font-size="13">45</text>
<line x1="100" y1="223.0" x2="1150" y2="223.0" stroke="#334155" stroke-width="1"/>
<text x="86" y="228.0" text-anchor="end" fill="#cbd5e1" font-family="Segoe UI,Arial,sans-serif" font-size="13">60</text>
<line x1="100" y1="135.0" x2="1150" y2="135.0" stroke="#334155" stroke-width="1"/>
<text x="86" y="140.0" text-anchor="end" fill="#cbd5e1" font-family="Segoe UI,Arial,sans-serif" font-size="13">75</text>
<rect x="157.8" y="283.2" width="59.5" height="291.8" rx="3" fill="#94a3b8"/>
<text x="187.5" y="275.2" text-anchor="middle" fill="#f8fafc" font-family="Segoe UI,Arial,sans-serif" font-size="12">49.74</text>
<rect x="245.2" y="298.1" width="59.5" height="276.9" rx="3" fill="#f59e0b"/>
<text x="275.0" y="290.1" text-anchor="middle" fill="#f8fafc" font-family="Segoe UI,Arial,sans-serif" font-size="12">47.19</text>
<rect x="332.8" y="557.0" width="59.5" height="18.0" rx="3" fill="#14b8a6"/>
<text x="362.5" y="549.0" text-anchor="middle" fill="#f8fafc" font-family="Segoe UI,Arial,sans-serif" font-size="12">3.07</text>
<text x="275.0" y="609" text-anchor="middle" fill="#f8fafc" font-family="Segoe UI,Arial,sans-serif" font-size="14">BTC</text>
<rect x="507.8" y="276.6" width="59.5" height="298.4" rx="3" fill="#94a3b8"/>
<text x="537.5" y="268.6" text-anchor="middle" fill="#f8fafc" font-family="Segoe UI,Arial,sans-serif" font-size="12">50.86</text>
<rect x="595.2" y="300.6" width="59.5" height="274.4" rx="3" fill="#f59e0b"/>
<text x="625.0" y="292.6" text-anchor="middle" fill="#f8fafc" font-family="Segoe UI,Arial,sans-serif" font-size="12">46.78</text>
<rect x="682.8" y="561.1" width="59.5" height="13.9" rx="3" fill="#14b8a6"/>
<text x="712.5" y="553.1" text-anchor="middle" fill="#f8fafc" font-family="Segoe UI,Arial,sans-serif" font-size="12">2.36</text>
<text x="625.0" y="609" text-anchor="middle" fill="#f8fafc" font-family="Segoe UI,Arial,sans-serif" font-size="14">ETH</text>
<rect x="857.8" y="171.4" width="59.5" height="403.6" rx="3" fill="#94a3b8"/>
<text x="887.5" y="163.4" text-anchor="middle" fill="#f8fafc" font-family="Segoe UI,Arial,sans-serif" font-size="12">68.79</text>
<rect x="945.2" y="410.6" width="59.5" height="164.4" rx="3" fill="#f59e0b"/>
<text x="975.0" y="402.6" text-anchor="middle" fill="#f8fafc" font-family="Segoe UI,Arial,sans-serif" font-size="12">28.03</text>
<rect x="1032.8" y="556.4" width="59.5" height="18.6" rx="3" fill="#14b8a6"/>
<text x="1062.5" y="548.4" text-anchor="middle" fill="#f8fafc" font-family="Segoe UI,Arial,sans-serif" font-size="12">3.18</text>
<text x="975.0" y="609" text-anchor="middle" fill="#f8fafc" font-family="Segoe UI,Arial,sans-serif" font-size="14">SOL</text>
<text transform="translate(24 355.0) rotate(-90)" text-anchor="middle" fill="#cbd5e1" font-family="Segoe UI,Arial,sans-serif" font-size="14">Eligible decisions (%)</text>
<rect x="100.0" y="655" width="14" height="14" rx="2" fill="#94a3b8"/>
<text x="122.0" y="667" fill="#cbd5e1" font-family="Segoe UI,Arial,sans-serif" font-size="13">No fill</text>
<rect x="450.0" y="655" width="14" height="14" rx="2" fill="#f59e0b"/>
<text x="472.0" y="667" fill="#cbd5e1" font-family="Segoe UI,Arial,sans-serif" font-size="13">One side only</text>
<rect x="800.0" y="655" width="14" height="14" rx="2" fill="#14b8a6"/>
<text x="822.0" y="667" fill="#cbd5e1" font-family="Segoe UI,Arial,sans-serif" font-size="13">Both sides</text>
</svg>
