<svg xmlns="http://www.w3.org/2000/svg" width="1480" height="650" viewBox="0 0 1480 650" role="img" aria-labelledby="title desc">
<title id="title">Meta-label discrimination persisted, but one-month fitting overfit</title>
<desc id="desc">Binary profitability ROC AUC by causal role; fit is in-sample to the meta model while later roles are unseen.</desc>
<rect width="100%" height="100%" fill="#ffffff"/>
<style>text{font-family:"Segoe UI",Arial,sans-serif;letter-spacing:0}.title{font-size:27px;font-weight:700;fill:#17212b}.subtitle{font-size:14px;fill:#52606d}.label{font-size:13px;fill:#263746}.axis{font-size:12px;fill:#60717f}.value{font-size:12px;font-weight:650;fill:#263746}.note{font-size:12px;fill:#65727d}.grid{stroke:#e1e8ed;stroke-width:1}.zero{stroke:#526674;stroke-width:2;stroke-dasharray:6 5}</style>
<text x="56" y="52" class="title">Meta-label discrimination persisted, but one-month fitting overfit</text>
<text x="56" y="80" class="subtitle">Binary profitability ROC AUC by causal role; fit is in-sample to the meta model while later roles are unseen.</text>
<line x1="110" y1="500.0" x2="1410" y2="500.0" class="zero"/>
<text x="96" y="504.0" text-anchor="end" class="axis">0.50</text>
<line x1="110" y1="380.0" x2="1410" y2="380.0" class="grid"/>
<text x="96" y="384.0" text-anchor="end" class="axis">0.60</text>
<line x1="110" y1="260.0" x2="1410" y2="260.0" class="grid"/>
<text x="96" y="264.0" text-anchor="end" class="axis">0.70</text>
<line x1="110" y1="140.0" x2="1410" y2="140.0" class="grid"/>
<text x="96" y="144.0" text-anchor="end" class="axis">0.80</text>
<polyline points="218.3,229.1 435.0,202.3 651.7,216.7 868.3,176.8 1085.0,211.7 1301.7,210.0" fill="none" stroke="#b45309" stroke-width="4" stroke-dasharray="8 6"/>
<circle cx="218.3" cy="229.1" r="5" fill="#b45309"/>
<circle cx="435.0" cy="202.3" r="5" fill="#b45309"/>
<circle cx="651.7" cy="216.7" r="5" fill="#b45309"/>
<circle cx="868.3" cy="176.8" r="5" fill="#b45309"/>
<circle cx="1085.0" cy="211.7" r="5" fill="#b45309"/>
<circle cx="1301.7" cy="210.0" r="5" fill="#b45309"/>
<polyline points="218.3,392.7 435.0,323.7 651.7,407.2 868.3,381.8 1085.0,380.2 1301.7,402.7" fill="none" stroke="#7b559c" stroke-width="4"/>
<circle cx="218.3" cy="392.7" r="5" fill="#7b559c"/>
<circle cx="435.0" cy="323.7" r="5" fill="#7b559c"/>
<circle cx="651.7" cy="407.2" r="5" fill="#7b559c"/>
<circle cx="868.3" cy="381.8" r="5" fill="#7b559c"/>
<circle cx="1085.0" cy="380.2" r="5" fill="#7b559c"/>
<circle cx="1301.7" cy="402.7" r="5" fill="#7b559c"/>
<polyline points="218.3,347.5 435.0,411.0 651.7,418.5 868.3,413.7 1085.0,398.9 1301.7,406.8" fill="none" stroke="#0f766e" stroke-width="4"/>
<circle cx="218.3" cy="347.5" r="5" fill="#0f766e"/>
<circle cx="435.0" cy="411.0" r="5" fill="#0f766e"/>
<circle cx="651.7" cy="418.5" r="5" fill="#0f766e"/>
<circle cx="868.3" cy="413.7" r="5" fill="#0f766e"/>
<circle cx="1085.0" cy="398.9" r="5" fill="#0f766e"/>
<circle cx="1301.7" cy="406.8" r="5" fill="#0f766e"/>
<polyline points="218.3,407.8 435.0,405.2 651.7,405.3 868.3,396.0 1085.0,423.6 1301.7,417.9" fill="none" stroke="#2563eb" stroke-width="4"/>
<circle cx="218.3" cy="407.8" r="5" fill="#2563eb"/>
<circle cx="435.0" cy="405.2" r="5" fill="#2563eb"/>
<circle cx="651.7" cy="405.3" r="5" fill="#2563eb"/>
<circle cx="868.3" cy="396.0" r="5" fill="#2563eb"/>
<circle cx="1085.0" cy="423.6" r="5" fill="#2563eb"/>
<circle cx="1301.7" cy="417.9" r="5" fill="#2563eb"/>
<text x="218.3" y="530" text-anchor="middle" class="axis">2024-07</text>
<text x="435.0" y="530" text-anchor="middle" class="axis">2024-08</text>
<text x="651.7" y="530" text-anchor="middle" class="axis">2024-09</text>
<text x="868.3" y="530" text-anchor="middle" class="axis">2024-10</text>
<text x="1085.0" y="530" text-anchor="middle" class="axis">2024-11</text>
<text x="1301.7" y="530" text-anchor="middle" class="axis">2024-12</text>
<line x1="120" y1="570" x2="148" y2="570" stroke="#b45309" stroke-width="4" stroke-dasharray="8 6"/><text x="158" y="575" class="note">meta fit (in-sample)</text>
<line x1="430" y1="570" x2="458" y2="570" stroke="#7b559c" stroke-width="4"/><text x="468" y="575" class="note">meta early stop</text>
<line x1="740" y1="570" x2="768" y2="570" stroke="#0f766e" stroke-width="4"/><text x="778" y="575" class="note">threshold calibration</text>
<line x1="1050" y1="570" x2="1078" y2="570" stroke="#2563eb" stroke-width="4"/><text x="1088" y="575" class="note">evaluation</text>
</svg>
