<svg xmlns="http://www.w3.org/2000/svg" width="1480" height="650" viewBox="0 0 1480 650" role="img" aria-labelledby="title desc">
<title id="title">Longer prequential history reduced fit inflation, not regime instability</title>
<desc id="desc">Binary profitability ROC AUC by causal role; fit uses six prior out-of-fold months while every later role remains unseen.</desc>
<rect width="100%" height="100%" fill="#ffffff"/>
<style>text{font-family:"Segoe UI",Arial,sans-serif;letter-spacing:0}.title{font-size:27px;font-weight:700;fill:#17212b}.subtitle{font-size:14px;fill:#52606d}.label{font-size:13px;fill:#263746}.axis{font-size:12px;fill:#60717f}.value{font-size:12px;font-weight:650;fill:#263746}.note{font-size:12px;fill:#65727d}.grid{stroke:#e1e8ed;stroke-width:1}.zero{stroke:#526674;stroke-width:2;stroke-dasharray:6 5}</style>
<text x="56" y="52" class="title">Longer prequential history reduced fit inflation, not regime instability</text>
<text x="56" y="80" class="subtitle">Binary profitability ROC AUC by causal role; fit uses six prior out-of-fold months while every later role remains unseen.</text>
<line x1="110" y1="500.0" x2="1410" y2="500.0" class="zero"/>
<text x="96" y="504.0" text-anchor="end" class="axis">0.50</text>
<line x1="110" y1="380.0" x2="1410" y2="380.0" class="grid"/>
<text x="96" y="384.0" text-anchor="end" class="axis">0.60</text>
<line x1="110" y1="260.0" x2="1410" y2="260.0" class="grid"/>
<text x="96" y="264.0" text-anchor="end" class="axis">0.70</text>
<line x1="110" y1="140.0" x2="1410" y2="140.0" class="grid"/>
<text x="96" y="144.0" text-anchor="end" class="axis">0.80</text>
<polyline points="218.3,327.9 435.0,327.8 651.7,337.8 868.3,344.1 1085.0,339.5 1301.7,343.7" fill="none" stroke="#b45309" stroke-width="4" stroke-dasharray="8 6"/>
<circle cx="218.3" cy="327.9" r="5" fill="#b45309"/>
<circle cx="435.0" cy="327.8" r="5" fill="#b45309"/>
<circle cx="651.7" cy="337.8" r="5" fill="#b45309"/>
<circle cx="868.3" cy="344.1" r="5" fill="#b45309"/>
<circle cx="1085.0" cy="339.5" r="5" fill="#b45309"/>
<circle cx="1301.7" cy="343.7" r="5" fill="#b45309"/>
<polyline points="218.3,384.5 435.0,337.7 651.7,397.3 868.3,402.3 1085.0,391.9 1301.7,383.1" fill="none" stroke="#7b559c" stroke-width="4"/>
<circle cx="218.3" cy="384.5" r="5" fill="#7b559c"/>
<circle cx="435.0" cy="337.7" r="5" fill="#7b559c"/>
<circle cx="651.7" cy="397.3" r="5" fill="#7b559c"/>
<circle cx="868.3" cy="402.3" r="5" fill="#7b559c"/>
<circle cx="1085.0" cy="391.9" r="5" fill="#7b559c"/>
<circle cx="1301.7" cy="383.1" r="5" fill="#7b559c"/>
<polyline points="218.3,337.9 435.0,399.1 651.7,401.9 868.3,392.2 1085.0,383.7 1301.7,397.8" fill="none" stroke="#0f766e" stroke-width="4"/>
<circle cx="218.3" cy="337.9" r="5" fill="#0f766e"/>
<circle cx="435.0" cy="399.1" r="5" fill="#0f766e"/>
<circle cx="651.7" cy="401.9" r="5" fill="#0f766e"/>
<circle cx="868.3" cy="392.2" r="5" fill="#0f766e"/>
<circle cx="1085.0" cy="383.7" r="5" fill="#0f766e"/>
<circle cx="1301.7" cy="397.8" r="5" fill="#0f766e"/>
<polyline points="218.3,401.9 435.0,407.5 651.7,392.0 868.3,382.2 1085.0,395.1 1301.7,413.0" fill="none" stroke="#2563eb" stroke-width="4"/>
<circle cx="218.3" cy="401.9" r="5" fill="#2563eb"/>
<circle cx="435.0" cy="407.5" r="5" fill="#2563eb"/>
<circle cx="651.7" cy="392.0" r="5" fill="#2563eb"/>
<circle cx="868.3" cy="382.2" r="5" fill="#2563eb"/>
<circle cx="1085.0" cy="395.1" r="5" fill="#2563eb"/>
<circle cx="1301.7" cy="413.0" r="5" fill="#2563eb"/>
<text x="218.3" y="530" text-anchor="middle" class="axis">2024-07</text>
<text x="435.0" y="530" text-anchor="middle" class="axis">2024-08</text>
<text x="651.7" y="530" text-anchor="middle" class="axis">2024-09</text>
<text x="868.3" y="530" text-anchor="middle" class="axis">2024-10</text>
<text x="1085.0" y="530" text-anchor="middle" class="axis">2024-11</text>
<text x="1301.7" y="530" text-anchor="middle" class="axis">2024-12</text>
<line x1="120" y1="570" x2="148" y2="570" stroke="#b45309" stroke-width="4" stroke-dasharray="8 6"/><text x="158" y="575" class="note">meta fit (in-sample)</text>
<line x1="430" y1="570" x2="458" y2="570" stroke="#7b559c" stroke-width="4"/><text x="468" y="575" class="note">meta early stop</text>
<line x1="740" y1="570" x2="768" y2="570" stroke="#0f766e" stroke-width="4"/><text x="778" y="575" class="note">threshold calibration</text>
<line x1="1050" y1="570" x2="1078" y2="570" stroke="#2563eb" stroke-width="4"/><text x="1088" y="575" class="note">evaluation</text>
</svg>
