<svg xmlns="http://www.w3.org/2000/svg" width="1500" height="690" viewBox="0 0 1500 690" role="img" aria-labelledby="title desc">
<title id="title">Monthly rank association varied by horizon and regime</title>
<desc id="desc">Pooled BTCUSDT, ETHUSDT, and SOLUSDT median-return Spearman coefficient; every month shown, 2024-10 through 2025-06 UTC.</desc>
<rect width="100%" height="100%" fill="#ffffff"/>
<style>text{font-family:"Segoe UI",Arial,sans-serif;letter-spacing:0}.title{font-size:27px;font-weight:700;fill:#17212b}.subtitle{font-size:14px;fill:#52606d}.label{font-size:13px;fill:#263746}.axis{font-size:12px;fill:#60717f}.value{font-size:12px;font-weight:650;fill:#263746}.note{font-size:12px;fill:#65727d}.grid{stroke:#e1e8ed;stroke-width:1}.zero{stroke:#526674;stroke-width:2;stroke-dasharray:6 5}</style>
<text x="56" y="52" class="title">Monthly rank association varied by horizon and regime</text>
<text x="56" y="80" class="subtitle">Pooled BTCUSDT, ETHUSDT, and SOLUSDT median-return Spearman coefficient; every month shown, 2024-10 through 2025-06 UTC.</text>
<rect x="120" y="145" width="1310" height="360" fill="#ffffff" stroke="#d8e0e7"/>
<line x1="120" y1="481.0" x2="1430" y2="481.0" class="grid"/><text x="106" y="485.0" text-anchor="end" class="axis">-0.05</text>
<line x1="120" y1="421.0" x2="1430" y2="421.0" class="zero"/><text x="106" y="425.0" text-anchor="end" class="axis">+0.00</text>
<line x1="120" y1="361.0" x2="1430" y2="361.0" class="grid"/><text x="106" y="365.0" text-anchor="end" class="axis">+0.05</text>
<line x1="120" y1="301.0" x2="1430" y2="301.0" class="grid"/><text x="106" y="305.0" text-anchor="end" class="axis">+0.10</text>
<line x1="120" y1="241.0" x2="1430" y2="241.0" class="grid"/><text x="106" y="245.0" text-anchor="end" class="axis">+0.15</text>
<line x1="120" y1="181.0" x2="1430" y2="181.0" class="grid"/><text x="106" y="185.0" text-anchor="end" class="axis">+0.20</text>
<polyline points="120.0,319.9 283.8,313.7 447.5,306.9 611.2,396.4 775.0,338.7 938.8,407.8 1102.5,412.3 1266.2,341.7 1430.0,407.2" fill="none" stroke="#2563a6" stroke-width="3"/>
<circle cx="120.0" cy="319.9" r="5" fill="#2563a6"/>
<circle cx="283.8" cy="313.7" r="5" fill="#2563a6"/>
<circle cx="447.5" cy="306.9" r="5" fill="#2563a6"/>
<circle cx="611.2" cy="396.4" r="5" fill="#2563a6"/>
<circle cx="775.0" cy="338.7" r="5" fill="#2563a6"/>
<circle cx="938.8" cy="407.8" r="5" fill="#2563a6"/>
<circle cx="1102.5" cy="412.3" r="5" fill="#2563a6"/>
<circle cx="1266.2" cy="341.7" r="5" fill="#2563a6"/>
<circle cx="1430.0" cy="407.2" r="5" fill="#2563a6"/>
<polyline points="120.0,443.0 283.8,304.0 447.5,304.7 611.2,428.6 775.0,330.5 938.8,423.0 1102.5,414.8 1266.2,402.5 1430.0,430.4" fill="none" stroke="#0f766e" stroke-width="3"/>
<circle cx="120.0" cy="443.0" r="5" fill="#0f766e"/>
<circle cx="283.8" cy="304.0" r="5" fill="#0f766e"/>
<circle cx="447.5" cy="304.7" r="5" fill="#0f766e"/>
<circle cx="611.2" cy="428.6" r="5" fill="#0f766e"/>
<circle cx="775.0" cy="330.5" r="5" fill="#0f766e"/>
<circle cx="938.8" cy="423.0" r="5" fill="#0f766e"/>
<circle cx="1102.5" cy="414.8" r="5" fill="#0f766e"/>
<circle cx="1266.2" cy="402.5" r="5" fill="#0f766e"/>
<circle cx="1430.0" cy="430.4" r="5" fill="#0f766e"/>
<polyline points="120.0,375.9 283.8,293.7 447.5,231.8 611.2,437.6 775.0,295.1 938.8,389.7 1102.5,374.3 1266.2,306.1 1430.0,414.0" fill="none" stroke="#b7791f" stroke-width="3"/>
<circle cx="120.0" cy="375.9" r="5" fill="#b7791f"/>
<circle cx="283.8" cy="293.7" r="5" fill="#b7791f"/>
<circle cx="447.5" cy="231.8" r="5" fill="#b7791f"/>
<circle cx="611.2" cy="437.6" r="5" fill="#b7791f"/>
<circle cx="775.0" cy="295.1" r="5" fill="#b7791f"/>
<circle cx="938.8" cy="389.7" r="5" fill="#b7791f"/>
<circle cx="1102.5" cy="374.3" r="5" fill="#b7791f"/>
<circle cx="1266.2" cy="306.1" r="5" fill="#b7791f"/>
<circle cx="1430.0" cy="414.0" r="5" fill="#b7791f"/>
<polyline points="120.0,475.4 283.8,457.0 447.5,158.8 611.2,488.7 775.0,371.8 938.8,354.4 1102.5,397.4 1266.2,244.3 1430.0,353.3" fill="none" stroke="#7b559c" stroke-width="3"/>
<circle cx="120.0" cy="475.4" r="5" fill="#7b559c"/>
<circle cx="283.8" cy="457.0" r="5" fill="#7b559c"/>
<circle cx="447.5" cy="158.8" r="5" fill="#7b559c"/>
<circle cx="611.2" cy="488.7" r="5" fill="#7b559c"/>
<circle cx="775.0" cy="371.8" r="5" fill="#7b559c"/>
<circle cx="938.8" cy="354.4" r="5" fill="#7b559c"/>
<circle cx="1102.5" cy="397.4" r="5" fill="#7b559c"/>
<circle cx="1266.2" cy="244.3" r="5" fill="#7b559c"/>
<circle cx="1430.0" cy="353.3" r="5" fill="#7b559c"/>
<text x="120.0" y="532" text-anchor="middle" class="axis">2024-10</text>
<text x="283.8" y="532" text-anchor="middle" class="axis">2024-11</text>
<text x="447.5" y="532" text-anchor="middle" class="axis">2024-12</text>
<text x="611.2" y="532" text-anchor="middle" class="axis">2025-01</text>
<text x="775.0" y="532" text-anchor="middle" class="axis">2025-02</text>
<text x="938.8" y="532" text-anchor="middle" class="axis">2025-03</text>
<text x="1102.5" y="532" text-anchor="middle" class="axis">2025-04</text>
<text x="1266.2" y="532" text-anchor="middle" class="axis">2025-05</text>
<text x="1430.0" y="532" text-anchor="middle" class="axis">2025-06</text>
<line x1="120" y1="611" x2="148" y2="611" stroke="#2563a6" stroke-width="4"/><text x="158" y="616" class="note">1 h</text>
<line x1="310" y1="611" x2="338" y2="611" stroke="#0f766e" stroke-width="4"/><text x="348" y="616" class="note">4 h</text>
<line x1="500" y1="611" x2="528" y2="611" stroke="#b7791f" stroke-width="4"/><text x="538" y="616" class="note">12 h</text>
<line x1="690" y1="611" x2="718" y2="611" stroke="#7b559c" stroke-width="4"/><text x="728" y="616" class="note">24 h</text>
<text x="120" y="664" class="note">Positive-month counts were 9/9, 5/9, 8/9, and 6/9 for 1 h, 4 h, 12 h, and 24 h respectively.</text>
</svg>
