<svg xmlns="http://www.w3.org/2000/svg" width="1500" height="650" viewBox="0 0 1500 650" role="img" aria-labelledby="title desc">
<title id="title">Base-cost monthly portfolio returns</title>
<desc id="desc">Dated fixed-ledger returns expose regime dependence hidden by aggregate cumulative performance.</desc>
<rect width="100%" height="100%" fill="#ffffff"/>
<style>text{font-family:"Segoe UI",Arial,sans-serif;letter-spacing:0}.title{font-size:27px;font-weight:700;fill:#17212b}.subtitle{font-size:14px;fill:#52606d}.label{font-size:13px;fill:#263746}.axis{font-size:12px;fill:#60717f}.value{font-size:12px;font-weight:650;fill:#263746}.note{font-size:12px;fill:#65727d}.grid{stroke:#e1e8ed;stroke-width:1}.zero{stroke:#526674;stroke-width:2;stroke-dasharray:6 5}</style>
<text x="56" y="52" class="title">Base-cost monthly portfolio returns</text>
<text x="56" y="80" class="subtitle">Dated fixed-ledger returns expose regime dependence hidden by aggregate cumulative performance.</text>
<line x1="120" y1="475.0" x2="1440" y2="475.0" class="grid"/><text x="106" y="479.0" text-anchor="end" class="axis">-15.3%</text>
<line x1="120" y1="324.8" x2="1440" y2="324.8" class="zero"/><text x="106" y="328.8" text-anchor="end" class="axis">+0.0%</text>
<line x1="120" y1="145.0" x2="1440" y2="145.0" class="grid"/><text x="106" y="149.0" text-anchor="end" class="axis">+18.3%</text>
<polyline points="120.0,308.7 285.0,307.3 450.0,286.1 615.0,179.9 780.0,275.0 945.0,366.5 1110.0,355.4 1275.0,259.8 1440.0,331.2" fill="none" stroke="#2563a6" stroke-width="4"/>
<circle cx="120.0" cy="308.7" r="5" fill="#2563a6"/>
<circle cx="285.0" cy="307.3" r="5" fill="#2563a6"/>
<circle cx="450.0" cy="286.1" r="5" fill="#2563a6"/>
<circle cx="615.0" cy="179.9" r="5" fill="#2563a6"/>
<circle cx="780.0" cy="275.0" r="5" fill="#2563a6"/>
<circle cx="945.0" cy="366.5" r="5" fill="#2563a6"/>
<circle cx="1110.0" cy="355.4" r="5" fill="#2563a6"/>
<circle cx="1275.0" cy="259.8" r="5" fill="#2563a6"/>
<circle cx="1440.0" cy="331.2" r="5" fill="#2563a6"/>
<polyline points="120.0,309.0 285.0,226.1 450.0,276.6 615.0,176.9 780.0,304.6 945.0,443.1 1110.0,267.7 1275.0,303.2 1440.0,324.1" fill="none" stroke="#0f766e" stroke-width="4"/>
<circle cx="120.0" cy="309.0" r="5" fill="#0f766e"/>
<circle cx="285.0" cy="226.1" r="5" fill="#0f766e"/>
<circle cx="450.0" cy="276.6" r="5" fill="#0f766e"/>
<circle cx="615.0" cy="176.9" r="5" fill="#0f766e"/>
<circle cx="780.0" cy="304.6" r="5" fill="#0f766e"/>
<circle cx="945.0" cy="443.1" r="5" fill="#0f766e"/>
<circle cx="1110.0" cy="267.7" r="5" fill="#0f766e"/>
<circle cx="1275.0" cy="303.2" r="5" fill="#0f766e"/>
<circle cx="1440.0" cy="324.1" r="5" fill="#0f766e"/>
<text x="120.0" y="505" text-anchor="middle" class="axis">2024-10</text>
<text x="285.0" y="505" text-anchor="middle" class="axis">2024-11</text>
<text x="450.0" y="505" text-anchor="middle" class="axis">2024-12</text>
<text x="615.0" y="505" text-anchor="middle" class="axis">2025-01</text>
<text x="780.0" y="505" text-anchor="middle" class="axis">2025-02</text>
<text x="945.0" y="505" text-anchor="middle" class="axis">2025-03</text>
<text x="1110.0" y="505" text-anchor="middle" class="axis">2025-04</text>
<text x="1275.0" y="505" text-anchor="middle" class="axis">2025-05</text>
<text x="1440.0" y="505" text-anchor="middle" class="axis">2025-06</text>
<line x1="900" y1="52" x2="934" y2="52" stroke="#2563a6" stroke-width="4"/><text x="944" y="57" class="note">Proper utility multitask</text>
<line x1="1170" y1="52" x2="1204" y2="52" stroke="#0f766e" stroke-width="4"/><text x="1214" y="57" class="note">Utility + pairwise rank</text>
</svg>
