<svg xmlns="http://www.w3.org/2000/svg" width="1500" height="790" viewBox="0 0 1500 790" role="img" aria-labelledby="title desc">
<title id="title">Monthly economics remain regime-sensitive</title>
<desc id="desc">All nine consumed development months; base and stress use identical decisions for each candidate.</desc>
<rect width="100%" height="100%" fill="#ffffff"/>
<style>text{font-family:"Segoe UI",Arial,sans-serif;letter-spacing:0}.title{font-size:27px;font-weight:700;fill:#17212b}.subtitle{font-size:14px;fill:#52606d}.label{font-size:13px;fill:#263746}.axis{font-size:12px;fill:#60717f}.value{font-size:12px;font-weight:650;fill:#263746}.note{font-size:12px;fill:#65727d}.grid{stroke:#e1e8ed;stroke-width:1}.zero{stroke:#526674;stroke-width:2;stroke-dasharray:6 5}</style>
<text x="56" y="52" class="title">Monthly economics remain regime-sensitive</text>
<text x="56" y="80" class="subtitle">All nine consumed development months; base and stress use identical decisions for each candidate.</text>
<text x="120" y="125" class="label">WaveBound EMA</text><rect x="120" y="145" width="1310" height="225" fill="#ffffff" stroke="#d8e0e7"/>
<line x1="120" y1="329.1" x2="1430" y2="329.1" class="grid"/><text x="106" y="333.1" text-anchor="end" class="axis">-20%</text>
<line x1="120" y1="247.3" x2="1430" y2="247.3" class="grid"/><text x="106" y="251.3" text-anchor="end" class="axis">+0%</text>
<line x1="120" y1="165.5" x2="1430" y2="165.5" class="grid"/><text x="106" y="169.5" text-anchor="end" class="axis">+20%</text>
<rect x="166.8" y="247.3" width="23" height="11.3" fill="#2563a6" fill-opacity="0.88"/>
<rect x="194.8" y="247.3" width="23" height="15.4" fill="#b42318" fill-opacity="0.88"/>
<rect x="312.3" y="218.7" width="23" height="28.5" fill="#2563a6" fill-opacity="0.88"/>
<rect x="340.3" y="223.9" width="23" height="23.4" fill="#b42318" fill-opacity="0.88"/>
<rect x="457.9" y="158.5" width="23" height="88.8" fill="#2563a6" fill-opacity="0.88"/>
<rect x="485.9" y="164.1" width="23" height="83.2" fill="#b42318" fill-opacity="0.88"/>
<rect x="603.4" y="247.3" width="23" height="46.6" fill="#2563a6" fill-opacity="0.88"/>
<rect x="631.4" y="247.3" width="23" height="51.0" fill="#b42318" fill-opacity="0.88"/>
<rect x="749.0" y="245.4" width="23" height="2.0" fill="#2563a6" fill-opacity="0.88"/>
<rect x="777.0" y="247.3" width="23" height="2.4" fill="#b42318" fill-opacity="0.88"/>
<rect x="894.6" y="247.3" width="23" height="107.9" fill="#2563a6" fill-opacity="0.88"/>
<rect x="922.6" y="247.3" width="23" height="111.4" fill="#b42318" fill-opacity="0.88"/>
<rect x="1040.1" y="247.3" width="23" height="30.7" fill="#2563a6" fill-opacity="0.88"/>
<rect x="1068.1" y="247.3" width="23" height="35.2" fill="#b42318" fill-opacity="0.88"/>
<rect x="1185.7" y="225.6" width="23" height="21.7" fill="#2563a6" fill-opacity="0.88"/>
<rect x="1213.7" y="230.6" width="23" height="16.7" fill="#b42318" fill-opacity="0.88"/>
<rect x="1331.2" y="247.3" width="23" height="38.2" fill="#2563a6" fill-opacity="0.88"/>
<rect x="1359.2" y="247.3" width="23" height="41.7" fill="#b42318" fill-opacity="0.88"/>
<text x="120" y="455" class="label">Mutual consistency</text><rect x="120" y="475" width="1310" height="225" fill="#ffffff" stroke="#d8e0e7"/>
<line x1="120" y1="659.1" x2="1430" y2="659.1" class="grid"/><text x="106" y="663.1" text-anchor="end" class="axis">-20%</text>
<line x1="120" y1="577.3" x2="1430" y2="577.3" class="grid"/><text x="106" y="581.3" text-anchor="end" class="axis">+0%</text>
<line x1="120" y1="495.5" x2="1430" y2="495.5" class="grid"/><text x="106" y="499.5" text-anchor="end" class="axis">+20%</text>
<rect x="166.8" y="562.5" width="23" height="14.8" fill="#2563a6" fill-opacity="0.88"/>
<rect x="194.8" y="568.6" width="23" height="8.7" fill="#b42318" fill-opacity="0.88"/>
<text x="192.8" y="727" text-anchor="middle" class="axis">2024-10</text>
<rect x="312.3" y="577.3" width="23" height="43.6" fill="#2563a6" fill-opacity="0.88"/>
<rect x="340.3" y="577.3" width="23" height="48.5" fill="#b42318" fill-opacity="0.88"/>
<text x="338.3" y="727" text-anchor="middle" class="axis">2024-11</text>
<rect x="457.9" y="480.3" width="23" height="97.0" fill="#2563a6" fill-opacity="0.88"/>
<rect x="485.9" y="487.7" width="23" height="89.6" fill="#b42318" fill-opacity="0.88"/>
<text x="483.9" y="727" text-anchor="middle" class="axis">2024-12</text>
<rect x="603.4" y="577.3" width="23" height="43.0" fill="#2563a6" fill-opacity="0.88"/>
<rect x="631.4" y="577.3" width="23" height="48.4" fill="#b42318" fill-opacity="0.88"/>
<text x="629.4" y="727" text-anchor="middle" class="axis">2025-01</text>
<rect x="749.0" y="533.9" width="23" height="43.4" fill="#2563a6" fill-opacity="0.88"/>
<rect x="777.0" y="539.7" width="23" height="37.6" fill="#b42318" fill-opacity="0.88"/>
<text x="775.0" y="727" text-anchor="middle" class="axis">2025-02</text>
<rect x="894.6" y="552.4" width="23" height="24.9" fill="#2563a6" fill-opacity="0.88"/>
<rect x="922.6" y="558.4" width="23" height="18.9" fill="#b42318" fill-opacity="0.88"/>
<text x="920.6" y="727" text-anchor="middle" class="axis">2025-03</text>
<rect x="1040.1" y="558.3" width="23" height="19.0" fill="#2563a6" fill-opacity="0.88"/>
<rect x="1068.1" y="564.1" width="23" height="13.2" fill="#b42318" fill-opacity="0.88"/>
<text x="1066.1" y="727" text-anchor="middle" class="axis">2025-04</text>
<rect x="1185.7" y="538.6" width="23" height="38.7" fill="#2563a6" fill-opacity="0.88"/>
<rect x="1213.7" y="544.5" width="23" height="32.8" fill="#b42318" fill-opacity="0.88"/>
<text x="1211.7" y="727" text-anchor="middle" class="axis">2025-05</text>
<rect x="1331.2" y="577.3" width="23" height="11.4" fill="#2563a6" fill-opacity="0.88"/>
<rect x="1359.2" y="577.3" width="23" height="16.8" fill="#b42318" fill-opacity="0.88"/>
<text x="1357.2" y="727" text-anchor="middle" class="axis">2025-06</text>
<rect x="120" y="752" width="24" height="12" fill="#2563a6"/><text x="154" y="763" class="note">base</text>
<rect x="245" y="752" width="24" height="12" fill="#b42318"/><text x="279" y="763" class="note">stress</text>
<text x="1430" y="763" text-anchor="end" class="note">Mutual was positive in 6/9 months, but November and January losses remained material.</text>
</svg>
