<svg xmlns="http://www.w3.org/2000/svg" width="1480" height="720" viewBox="0 0 1480 720" role="img" aria-labelledby="title desc">
<title id="title">Monthly refits still failed after regime change</title>
<desc id="desc">Evaluation-month mean net bps after the frozen 12 bps charge and exact funding cash flows.</desc>
<rect width="100%" height="100%" fill="#ffffff"/>
<style>text{font-family:"Segoe UI",Arial,sans-serif;letter-spacing:0}.title{font-size:27px;font-weight:700;fill:#17212b}.subtitle{font-size:14px;fill:#52606d}.label{font-size:13px;fill:#263746}.axis{font-size:12px;fill:#60717f}.value{font-size:12px;font-weight:650;fill:#263746}.note{font-size:12px;fill:#65727d}.grid{stroke:#e1e8ed;stroke-width:1}.zero{stroke:#526674;stroke-width:2;stroke-dasharray:6 5}</style>
<text x="56" y="52" class="title">Monthly refits still failed after regime change</text>
<text x="56" y="80" class="subtitle">Evaluation-month mean net bps after the frozen 12 bps charge and exact funding cash flows.</text>
<line x1="110" y1="516.2" x2="1410" y2="516.2" class="grid"/>
<text x="96" y="520.2" text-anchor="end" class="axis">-20</text>
<line x1="110" y1="408.8" x2="1410" y2="408.8" class="grid"/>
<text x="96" y="412.8" text-anchor="end" class="axis">-10</text>
<line x1="110" y1="301.2" x2="1410" y2="301.2" class="zero"/>
<text x="96" y="305.2" text-anchor="end" class="axis">+0</text>
<line x1="110" y1="193.8" x2="1410" y2="193.8" class="grid"/>
<text x="96" y="197.8" text-anchor="end" class="axis">+10</text>
<polyline points="218.3,240.7 435.0,201.5 651.7,443.4 868.3,445.9 1085.0,424.5 1301.7,445.0" fill="none" stroke="#2563eb" stroke-width="4"/>
<circle cx="218.3" cy="240.7" r="6" fill="#2563eb"/>
<circle cx="435.0" cy="201.5" r="6" fill="#2563eb"/>
<circle cx="651.7" cy="443.4" r="6" fill="#2563eb"/>
<circle cx="868.3" cy="445.9" r="6" fill="#2563eb"/>
<circle cx="1085.0" cy="424.5" r="6" fill="#2563eb"/>
<circle cx="1301.7" cy="445.0" r="6" fill="#2563eb"/>
<polyline points="218.3,321.2 435.0,214.7 651.7,456.0 868.3,440.0 1085.0,429.9 1301.7,449.6" fill="none" stroke="#0f766e" stroke-width="4"/>
<circle cx="218.3" cy="321.2" r="6" fill="#0f766e"/>
<circle cx="435.0" cy="214.7" r="6" fill="#0f766e"/>
<circle cx="651.7" cy="456.0" r="6" fill="#0f766e"/>
<circle cx="868.3" cy="440.0" r="6" fill="#0f766e"/>
<circle cx="1085.0" cy="429.9" r="6" fill="#0f766e"/>
<circle cx="1301.7" cy="449.6" r="6" fill="#0f766e"/>
<polyline points="218.3,425.3 435.0,536.9 651.7,425.6 868.3,400.5 1085.0,408.6 1301.7,414.7" fill="none" stroke="#b45309" stroke-width="4"/>
<circle cx="218.3" cy="425.3" r="6" fill="#b45309"/>
<circle cx="435.0" cy="536.9" r="6" fill="#b45309"/>
<circle cx="651.7" cy="425.6" r="6" fill="#b45309"/>
<circle cx="868.3" cy="400.5" r="6" fill="#b45309"/>
<circle cx="1085.0" cy="408.6" r="6" fill="#b45309"/>
<circle cx="1301.7" cy="414.7" r="6" fill="#b45309"/>
<polyline points="218.3,457.1 435.0,395.1 651.7,446.7 868.3,387.2 1085.0,346.5 1301.7,399.3" fill="none" stroke="#7b559c" stroke-width="4"/>
<circle cx="218.3" cy="457.1" r="6" fill="#7b559c"/>
<circle cx="435.0" cy="395.1" r="6" fill="#7b559c"/>
<circle cx="651.7" cy="446.7" r="6" fill="#7b559c"/>
<circle cx="868.3" cy="387.2" r="6" fill="#7b559c"/>
<circle cx="1085.0" cy="346.5" r="6" fill="#7b559c"/>
<circle cx="1301.7" cy="399.3" r="6" fill="#7b559c"/>
<text x="218.3" y="600" text-anchor="middle" class="axis">2025-01</text>
<text x="435.0" y="600" text-anchor="middle" class="axis">2025-02</text>
<text x="651.7" y="600" text-anchor="middle" class="axis">2025-03</text>
<text x="868.3" y="600" text-anchor="middle" class="axis">2025-04</text>
<text x="1085.0" y="600" text-anchor="middle" class="axis">2025-05</text>
<text x="1301.7" y="600" text-anchor="middle" class="axis">2025-06</text>
<line x1="120" y1="610" x2="148" y2="610" stroke="#2563eb" stroke-width="4"/><text x="158" y="615" class="note">symbol direct / equal / 30m</text>
<line x1="650" y1="610" x2="678" y2="610" stroke="#0f766e" stroke-width="4"/><text x="688" y="615" class="note">symbol direct / utility / 30m</text>
<line x1="120" y1="644" x2="148" y2="644" stroke="#b45309" stroke-width="4"/><text x="158" y="649" class="note">shared hurdle / equal / 120m</text>
<line x1="650" y1="644" x2="678" y2="644" stroke="#7b559c" stroke-width="4"/><text x="688" y="649" class="note">shared hurdle / utility / 120m</text>
</svg>
