<svg xmlns="http://www.w3.org/2000/svg" width="1200" height="700" viewBox="0 0 1200 700" role="img">
<title>Rank separation did not overcome realistic costs</title>
<desc>Held-forward calibrated score quintiles; targets include the frozen 16 bps round-trip stress charge</desc>
<rect width="1200" height="700" fill="#0b1220"/>
<text x="64" y="58" fill="#f8fafc" font-family="Segoe UI,Arial,sans-serif" font-size="28" font-weight="700">Rank separation did not overcome realistic costs</text>
<text x="64" y="88" fill="#cbd5e1" font-family="Segoe UI,Arial,sans-serif" font-size="15">Held-forward calibrated score quintiles; targets include the frozen 16 bps round-trip stress charge</text>
<line x1="100" y1="575.0" x2="1150" y2="575.0" stroke="#334155" stroke-width="1"/>
<text x="86" y="580.0" text-anchor="end" fill="#cbd5e1" font-family="Segoe UI,Arial,sans-serif" font-size="13">-20.0</text>
<line x1="100" y1="487.0" x2="1150" y2="487.0" stroke="#334155" stroke-width="1"/>
<text x="86" y="492.0" text-anchor="end" fill="#cbd5e1" font-family="Segoe UI,Arial,sans-serif" font-size="13">-15.6</text>
<line x1="100" y1="399.0" x2="1150" y2="399.0" stroke="#334155" stroke-width="1"/>
<text x="86" y="404.0" text-anchor="end" fill="#cbd5e1" font-family="Segoe UI,Arial,sans-serif" font-size="13">-11.2</text>
<line x1="100" y1="311.0" x2="1150" y2="311.0" stroke="#334155" stroke-width="1"/>
<text x="86" y="316.0" text-anchor="end" fill="#cbd5e1" font-family="Segoe UI,Arial,sans-serif" font-size="13">-6.8</text>
<line x1="100" y1="223.0" x2="1150" y2="223.0" stroke="#334155" stroke-width="1"/>
<text x="86" y="228.0" text-anchor="end" fill="#cbd5e1" font-family="Segoe UI,Arial,sans-serif" font-size="13">-2.4</text>
<line x1="100" y1="135.0" x2="1150" y2="135.0" stroke="#334155" stroke-width="1"/>
<text x="86" y="140.0" text-anchor="end" fill="#cbd5e1" font-family="Segoe UI,Arial,sans-serif" font-size="13">2.0</text>
<line x1="100" y1="175.0" x2="1150" y2="175.0" stroke="#94a3b8" stroke-width="2"/>
<rect x="215.5" y="175.0" width="119.0" height="334.8" rx="3" fill="#ef4444"/>
<text x="275.0" y="527.8" text-anchor="middle" fill="#f8fafc" font-family="Segoe UI,Arial,sans-serif" font-size="12">-16.74</text>
<rect x="390.5" y="175.0" width="119.0" height="308.2" rx="3" fill="#f59e0b"/>
<text x="450.0" y="501.2" text-anchor="middle" fill="#f8fafc" font-family="Segoe UI,Arial,sans-serif" font-size="12">-15.41</text>
<text x="362.5" y="609" text-anchor="middle" fill="#f8fafc" font-family="Segoe UI,Arial,sans-serif" font-size="14">Baseline</text>
<rect x="740.5" y="175.0" width="119.0" height="364.5" rx="3" fill="#ef4444"/>
<text x="800.0" y="557.5" text-anchor="middle" fill="#f8fafc" font-family="Segoe UI,Arial,sans-serif" font-size="12">-18.23</text>
<rect x="915.5" y="175.0" width="119.0" height="293.2" rx="3" fill="#f59e0b"/>
<text x="975.0" y="486.2" text-anchor="middle" fill="#f8fafc" font-family="Segoe UI,Arial,sans-serif" font-size="12">-14.66</text>
<text x="887.5" y="609" text-anchor="middle" fill="#f8fafc" font-family="Segoe UI,Arial,sans-serif" font-size="14">Governed AI factors</text>
<text transform="translate(24 355.0) rotate(-90)" text-anchor="middle" fill="#cbd5e1" font-family="Segoe UI,Arial,sans-serif" font-size="14">Mean realized stress payoff (bps)</text>
<rect x="100.0" y="655" width="14" height="14" rx="2" fill="#ef4444"/>
<text x="122.0" y="667" fill="#cbd5e1" font-family="Segoe UI,Arial,sans-serif" font-size="13">Bottom score quintile</text>
<rect x="625.0" y="655" width="14" height="14" rx="2" fill="#f59e0b"/>
<text x="647.0" y="667" fill="#cbd5e1" font-family="Segoe UI,Arial,sans-serif" font-size="13">Top score quintile</text>
</svg>
