<svg xmlns="http://www.w3.org/2000/svg" width="1500" height="920" viewBox="0 0 1500 920" role="img">
<title>Observed five-second AUC separated from within-day placebos</title>
<desc>Observed weighted AUC versus 200 within-day signal permutations; descriptive only, no multiplicity claim.</desc>
<rect width="100%" height="100%" fill="#ffffff"/>
<style>text{font-family:"Segoe UI",Arial,sans-serif;letter-spacing:0}.title{font-size:24px;font-weight:700;fill:#17202a}.subtitle{font-size:14px;fill:#4b5563}.label{font-size:13px;fill:#263238}.value{font-size:13px;font-weight:650;fill:#17202a}.axis{font-size:12px;fill:#64748b}.note{font-size:12px;fill:#6b7280}.grid{stroke:#d8dee7;stroke-width:1}.zero{stroke:#9f1239;stroke-width:2}.chance{stroke:#334155;stroke-width:2;stroke-dasharray:7 5}</style>
<text x="48" y="42" class="title">Observed five-second AUC separated from within-day placebos</text>
<text x="48" y="66" class="subtitle">Observed weighted AUC versus 200 within-day signal permutations; descriptive only, no multiplicity claim.</text>
<line x1="403.3" y1="112" x2="403.3" y2="850" class="grid"/>
<text x="403.3" y="876" text-anchor="middle" class="axis">0.48</text>
<line x1="550.0" y1="112" x2="550.0" y2="850" class="chance"/>
<text x="550.0" y="876" text-anchor="middle" class="axis">0.50</text>
<line x1="843.3" y1="112" x2="843.3" y2="850" class="grid"/>
<text x="843.3" y="876" text-anchor="middle" class="axis">0.54</text>
<line x1="1136.7" y1="112" x2="1136.7" y2="850" class="grid"/>
<text x="1136.7" y="876" text-anchor="middle" class="axis">0.58</text>
<line x1="1430.0" y1="112" x2="1430.0" y2="850" class="grid"/>
<text x="1430.0" y="876" text-anchor="middle" class="axis">0.62</text>
<text x="312" y="145" text-anchor="end" class="label">L1 imbalance</text>
<line x1="496.8" y1="140" x2="604.8" y2="140" stroke="#94a3b8" stroke-width="6" stroke-linecap="round"/>
<circle cx="551.3" cy="140" r="5" fill="#475569"/>
<rect x="1330.6" y="134" width="12" height="12" fill="#0f766e"/>
<text x="1348.6" y="145" class="value">0.6073</text>
<text x="312" y="199" text-anchor="end" class="label">Microprice offset</text>
<line x1="502.3" y1="194" x2="595.3" y2="194" stroke="#94a3b8" stroke-width="6" stroke-linecap="round"/>
<circle cx="550.0" cy="194" r="5" fill="#475569"/>
<rect x="1308.4" y="188" width="12" height="12" fill="#0f766e"/>
<text x="1326.4" y="199" class="value">0.6042</text>
<text x="312" y="253" text-anchor="end" class="label">Normalized OFI</text>
<line x1="500.9" y1="248" x2="611.5" y2="248" stroke="#94a3b8" stroke-width="6" stroke-linecap="round"/>
<circle cx="551.5" cy="248" r="5" fill="#475569"/>
<rect x="1038.8" y="242" width="12" height="12" fill="#0f766e"/>
<text x="1056.8" y="253" class="value">0.5675</text>
<text x="312" y="307" text-anchor="end" class="label">OFI 10s mean</text>
<line x1="491.6" y1="302" x2="598.8" y2="302" stroke="#94a3b8" stroke-width="6" stroke-linecap="round"/>
<circle cx="548.1" cy="302" r="5" fill="#475569"/>
<rect x="982.8" y="296" width="12" height="12" fill="#0f766e"/>
<text x="1000.8" y="307" class="value">0.5598</text>
<text x="312" y="361" text-anchor="end" class="label">OFI 60s mean</text>
<line x1="495.4" y1="356" x2="601.7" y2="356" stroke="#94a3b8" stroke-width="6" stroke-linecap="round"/>
<circle cx="551.4" cy="356" r="5" fill="#475569"/>
<rect x="856.2" y="350" width="12" height="12" fill="#0f766e"/>
<text x="874.2" y="361" class="value">0.5426</text>
<text x="312" y="415" text-anchor="end" class="label">OFI 300s mean</text>
<line x1="499.1" y1="410" x2="600.7" y2="410" stroke="#94a3b8" stroke-width="6" stroke-linecap="round"/>
<circle cx="551.8" cy="410" r="5" fill="#475569"/>
<rect x="803.6" y="404" width="12" height="12" fill="#0f766e"/>
<text x="821.6" y="415" class="value">0.5354</text>
<text x="312" y="469" text-anchor="end" class="label">Trade imbalance</text>
<line x1="508.4" y1="464" x2="610.6" y2="464" stroke="#94a3b8" stroke-width="6" stroke-linecap="round"/>
<circle cx="555.5" cy="464" r="5" fill="#475569"/>
<rect x="796.6" y="458" width="12" height="12" fill="#0f766e"/>
<text x="814.6" y="469" class="value">0.5344</text>
<text x="312" y="523" text-anchor="end" class="label">Trade imbalance 10s</text>
<line x1="504.5" y1="518" x2="603.1" y2="518" stroke="#94a3b8" stroke-width="6" stroke-linecap="round"/>
<circle cx="551.9" cy="518" r="5" fill="#475569"/>
<rect x="804.4" y="512" width="12" height="12" fill="#0f766e"/>
<text x="822.4" y="523" class="value">0.5355</text>
<text x="312" y="577" text-anchor="end" class="label">Trade imbalance 60s</text>
<line x1="493.3" y1="572" x2="610.6" y2="572" stroke="#94a3b8" stroke-width="6" stroke-linecap="round"/>
<circle cx="555.6" cy="572" r="5" fill="#475569"/>
<rect x="663.3" y="566" width="12" height="12" fill="#0f766e"/>
<text x="681.3" y="577" class="value">0.5163</text>
<text x="312" y="631" text-anchor="end" class="label">Trade imbalance 300s</text>
<line x1="503.3" y1="626" x2="610.6" y2="626" stroke="#94a3b8" stroke-width="6" stroke-linecap="round"/>
<circle cx="557.5" cy="626" r="5" fill="#475569"/>
<rect x="616.5" y="620" width="12" height="12" fill="#0f766e"/>
<text x="634.5" y="631" class="value">0.5099</text>
<text x="312" y="685" text-anchor="end" class="label">Depth-normalized flow 10s</text>
<line x1="497.8" y1="680" x2="603.7" y2="680" stroke="#94a3b8" stroke-width="6" stroke-linecap="round"/>
<circle cx="550.9" cy="680" r="5" fill="#475569"/>
<rect x="871.5" y="674" width="12" height="12" fill="#0f766e"/>
<text x="889.5" y="685" class="value">0.5447</text>
<text x="312" y="739" text-anchor="end" class="label">Depth-normalized flow 60s</text>
<line x1="489.7" y1="734" x2="603.2" y2="734" stroke="#94a3b8" stroke-width="6" stroke-linecap="round"/>
<circle cx="547.5" cy="734" r="5" fill="#475569"/>
<rect x="758.3" y="728" width="12" height="12" fill="#0f766e"/>
<text x="776.3" y="739" class="value">0.5292</text>
<text x="312" y="793" text-anchor="end" class="label">Depth-normalized flow 300s</text>
<line x1="500.2" y1="788" x2="594.7" y2="788" stroke="#94a3b8" stroke-width="6" stroke-linecap="round"/>
<circle cx="546.6" cy="788" r="5" fill="#475569"/>
<rect x="618.5" y="782" width="12" height="12" fill="#0f766e"/>
<text x="636.5" y="793" class="value">0.5102</text>
<text x="330" y="896" class="note">Gray interval: placebo 95% range; gray dot: placebo mean; green square: observed AUC.</text>
</svg>
