<svg xmlns="http://www.w3.org/2000/svg" width="1200" height="700" viewBox="0 0 1200 700" role="img">
<title>Mean P&amp;L decomposition of capacity-admitted episodes</title>
<desc>USDT per 20,000 USDT committed-capital episode; positive funding did not reliably overcome basis movement and costs</desc>
<rect width="1200" height="700" fill="#0b1220"/>
<text x="64" y="58" fill="#f8fafc" font-family="Segoe UI,Arial,sans-serif" font-size="28" font-weight="700">Mean P&amp;L decomposition of capacity-admitted episodes</text>
<text x="64" y="88" fill="#cbd5e1" font-family="Segoe UI,Arial,sans-serif" font-size="15">USDT per 20,000 USDT committed-capital episode; positive funding did not reliably overcome basis movement and costs</text>
<line x1="100" y1="575.0" x2="1150" y2="575.0" stroke="#334155" stroke-width="1"/>
<text x="86" y="580.0" text-anchor="end" fill="#cbd5e1" font-family="Segoe UI,Arial,sans-serif" font-size="13">-80</text>
<line x1="100" y1="487.0" x2="1150" y2="487.0" stroke="#334155" stroke-width="1"/>
<text x="86" y="492.0" text-anchor="end" fill="#cbd5e1" font-family="Segoe UI,Arial,sans-serif" font-size="13">-40</text>
<line x1="100" y1="399.0" x2="1150" y2="399.0" stroke="#334155" stroke-width="1"/>
<text x="86" y="404.0" text-anchor="end" fill="#cbd5e1" font-family="Segoe UI,Arial,sans-serif" font-size="13">0</text>
<line x1="100" y1="311.0" x2="1150" y2="311.0" stroke="#334155" stroke-width="1"/>
<text x="86" y="316.0" text-anchor="end" fill="#cbd5e1" font-family="Segoe UI,Arial,sans-serif" font-size="13">40</text>
<line x1="100" y1="223.0" x2="1150" y2="223.0" stroke="#334155" stroke-width="1"/>
<text x="86" y="228.0" text-anchor="end" fill="#cbd5e1" font-family="Segoe UI,Arial,sans-serif" font-size="13">80</text>
<line x1="100" y1="135.0" x2="1150" y2="135.0" stroke="#334155" stroke-width="1"/>
<text x="86" y="140.0" text-anchor="end" fill="#cbd5e1" font-family="Segoe UI,Arial,sans-serif" font-size="13">120</text>
<line x1="100" y1="399.0" x2="1150" y2="399.0" stroke="#94a3b8" stroke-width="2"/>
<rect x="157.8" y="399.0" width="59.5" height="114.7" rx="3" fill="#60a5fa"/>
<text x="187.5" y="531.7" text-anchor="middle" fill="#f8fafc" font-family="Segoe UI,Arial,sans-serif" font-size="12">-52.15</text>
<rect x="245.2" y="205.2" width="59.5" height="193.8" rx="3" fill="#14b8a6"/>
<text x="275.0" y="197.2" text-anchor="middle" fill="#f8fafc" font-family="Segoe UI,Arial,sans-serif" font-size="12">88.10</text>
<rect x="332.8" y="399.0" width="59.5" height="61.7" rx="3" fill="#f59e0b"/>
<text x="362.5" y="478.7" text-anchor="middle" fill="#f8fafc" font-family="Segoe UI,Arial,sans-serif" font-size="12">-28.05</text>
<rect x="420.2" y="399.0" width="59.5" height="8.8" rx="3" fill="#ef4444"/>
<text x="450.0" y="425.8" text-anchor="middle" fill="#f8fafc" font-family="Segoe UI,Arial,sans-serif" font-size="12">-4.01</text>
<rect x="507.8" y="390.4" width="59.5" height="8.6" rx="3" fill="#22d3ee"/>
<text x="537.5" y="382.4" text-anchor="middle" fill="#f8fafc" font-family="Segoe UI,Arial,sans-serif" font-size="12">3.89</text>
<text x="362.5" y="609" text-anchor="middle" fill="#f8fafc" font-family="Segoe UI,Arial,sans-serif" font-size="14">BTC</text>
<rect x="682.8" y="399.0" width="59.5" height="153.9" rx="3" fill="#60a5fa"/>
<text x="712.5" y="570.9" text-anchor="middle" fill="#f8fafc" font-family="Segoe UI,Arial,sans-serif" font-size="12">-69.93</text>
<rect x="770.2" y="166.7" width="59.5" height="232.3" rx="3" fill="#14b8a6"/>
<text x="800.0" y="158.7" text-anchor="middle" fill="#f8fafc" font-family="Segoe UI,Arial,sans-serif" font-size="12">105.59</text>
<rect x="857.8" y="399.0" width="59.5" height="62.7" rx="3" fill="#f59e0b"/>
<text x="887.5" y="479.7" text-anchor="middle" fill="#f8fafc" font-family="Segoe UI,Arial,sans-serif" font-size="12">-28.50</text>
<rect x="945.2" y="399.0" width="59.5" height="9.0" rx="3" fill="#ef4444"/>
<text x="975.0" y="426.0" text-anchor="middle" fill="#f8fafc" font-family="Segoe UI,Arial,sans-serif" font-size="12">-4.07</text>
<rect x="1032.8" y="392.2" width="59.5" height="6.8" rx="3" fill="#22d3ee"/>
<text x="1062.5" y="384.2" text-anchor="middle" fill="#f8fafc" font-family="Segoe UI,Arial,sans-serif" font-size="12">3.08</text>
<text x="887.5" y="609" text-anchor="middle" fill="#f8fafc" font-family="Segoe UI,Arial,sans-serif" font-size="14">ETH</text>
<text transform="translate(24 355.0) rotate(-90)" text-anchor="middle" fill="#cbd5e1" font-family="Segoe UI,Arial,sans-serif" font-size="14">Mean USDT per episode</text>
<rect x="100.0" y="655" width="14" height="14" rx="2" fill="#60a5fa"/>
<text x="122.0" y="667" fill="#cbd5e1" font-family="Segoe UI,Arial,sans-serif" font-size="13">Basis P&amp;L</text>
<rect x="310.0" y="655" width="14" height="14" rx="2" fill="#14b8a6"/>
<text x="332.0" y="667" fill="#cbd5e1" font-family="Segoe UI,Arial,sans-serif" font-size="13">Funding P&amp;L</text>
<rect x="520.0" y="655" width="14" height="14" rx="2" fill="#f59e0b"/>
<text x="542.0" y="667" fill="#cbd5e1" font-family="Segoe UI,Arial,sans-serif" font-size="13">Exchange fees</text>
<rect x="730.0" y="655" width="14" height="14" rx="2" fill="#ef4444"/>
<text x="752.0" y="667" fill="#cbd5e1" font-family="Segoe UI,Arial,sans-serif" font-size="13">Operational slippage</text>
<rect x="940.0" y="655" width="14" height="14" rx="2" fill="#22d3ee"/>
<text x="962.0" y="667" fill="#cbd5e1" font-family="Segoe UI,Arial,sans-serif" font-size="13">Stress net</text>
</svg>
