<svg xmlns="http://www.w3.org/2000/svg" width="1500" height="650" viewBox="0 0 1500 650" role="img" aria-labelledby="title desc">
<title id="title">The frozen lower-quartile policy produced one losing trade</title>
<desc id="desc">Compounded net return over 2024-10-01 through 2025-06-30 UTC; stress reprices the identical action ledger at 8 bps versus 6 bps one-way.</desc>
<rect width="100%" height="100%" fill="#ffffff"/>
<style>text{font-family:"Segoe UI",Arial,sans-serif;letter-spacing:0}.title{font-size:27px;font-weight:700;fill:#17212b}.subtitle{font-size:14px;fill:#52606d}.label{font-size:13px;fill:#263746}.axis{font-size:12px;fill:#60717f}.value{font-size:12px;font-weight:650;fill:#263746}.note{font-size:12px;fill:#65727d}.grid{stroke:#e1e8ed;stroke-width:1}.zero{stroke:#526674;stroke-width:2;stroke-dasharray:6 5}</style>
<text x="56" y="52" class="title">The frozen lower-quartile policy produced one losing trade</text>
<text x="56" y="80" class="subtitle">Compounded net return over 2024-10-01 through 2025-06-30 UTC; stress reprices the identical action ledger at 8 bps versus 6 bps one-way.</text>
<rect x="150" y="150" width="700" height="300" fill="#ffffff" stroke="#d8e0e7"/>
<line x1="150" y1="450.0" x2="850" y2="450.0" class="grid"/><text x="135" y="454.0" text-anchor="end" class="axis">-0.4%</text>
<line x1="150" y1="383.3" x2="850" y2="383.3" class="grid"/><text x="135" y="387.3" text-anchor="end" class="axis">-0.3%</text>
<line x1="150" y1="316.7" x2="850" y2="316.7" class="grid"/><text x="135" y="320.7" text-anchor="end" class="axis">-0.2%</text>
<line x1="150" y1="250.0" x2="850" y2="250.0" class="grid"/><text x="135" y="254.0" text-anchor="end" class="axis">-0.1%</text>
<line x1="150" y1="183.3" x2="850" y2="183.3" class="zero"/><text x="135" y="187.3" text-anchor="end" class="axis">+0.0%</text>
<rect x="325" y="183.3" width="130" height="214.3" fill="#2563a6" fill-opacity="0.86"/>
<text x="390" y="421.6" text-anchor="middle" class="value">-0.321%</text><text x="390" y="480" text-anchor="middle" class="axis">base 6 bps</text>
<rect x="615" y="183.3" width="130" height="223.2" fill="#b42318" fill-opacity="0.86"/>
<text x="680" y="430.5" text-anchor="middle" class="value">-0.335%</text><text x="680" y="480" text-anchor="middle" class="axis">stress 8 bps</text>
<text x="980" y="165" class="label">Policy diagnostics</text>
<text x="980" y="215" class="value">1 trade</text>
<text x="980" y="255" class="note">BTCUSDT short, 12 h</text>
<text x="980" y="300" class="value">0.950% max drawdown</text>
<text x="980" y="345" class="value">0.719 profit factor</text>
<text x="980" y="390" class="value">1 active day</text>
<text x="980" y="435" class="note">Stress bootstrap lower: -0.0184 bps/hour</text>
<text x="150" y="560" class="note">This descriptive policy has no capacity or profitability evidence. Its failure does not erase the separate forecast-quality result.</text>
</svg>
