<svg xmlns="http://www.w3.org/2000/svg" width="1500" height="760" viewBox="0 0 1500 760" role="img" aria-labelledby="title desc">
<title id="title">Both fixed policies lost after costs</title>
<desc id="desc">Exact no-overlap ledger at 12 bps base and the identical trades repriced at 16 bps stress; unlevered fixed sleeves.</desc>
<rect width="100%" height="100%" fill="#ffffff"/>
<style>text{font-family:"Segoe UI",Arial,sans-serif;letter-spacing:0}.title{font-size:27px;font-weight:700;fill:#17212b}.subtitle{font-size:14px;fill:#52606d}.label{font-size:13px;fill:#263746}.axis{font-size:12px;fill:#60717f}.value{font-size:12px;font-weight:650;fill:#263746}.note{font-size:12px;fill:#65727d}.grid{stroke:#e1e8ed;stroke-width:1}.zero{stroke:#526674;stroke-width:2;stroke-dasharray:6 5}</style>
<text x="56" y="52" class="title">Both fixed policies lost after costs</text>
<text x="56" y="80" class="subtitle">Exact no-overlap ledger at 12 bps base and the identical trades repriced at 16 bps stress; unlevered fixed sleeves.</text>
<rect x="830" y="43" width="18" height="18" fill="#0f766e"/><text x="858" y="57" class="note">12 bps base</text>
<rect x="1120" y="43" width="18" height="18" fill="#b45309"/><text x="1148" y="57" class="note">16 bps stress</text>
<text x="130" y="127" class="label">Total net return (%)</text>
<line x1="130" y1="350.0" x2="1430" y2="350.0" class="grid"/><text x="116" y="354.0" text-anchor="end" class="axis">-50.44</text>
<line x1="130" y1="247.5" x2="1430" y2="247.5" class="grid"/><text x="116" y="251.5" text-anchor="end" class="axis">-21.93</text>
<line x1="130" y1="145.0" x2="1430" y2="145.0" class="grid"/><text x="116" y="149.0" text-anchor="end" class="axis">+6.58</text>
<line x1="130" y1="168.7" x2="1430" y2="168.7" class="zero"/>
<rect x="195.0" y="168.7" width="195.0" height="15.5" fill="#2563a6"/><text x="292.5" y="203.1" text-anchor="middle" class="value">-4.30</text><text x="292.5" y="374.0" text-anchor="middle" class="axis">Direct Base</text>
<rect x="520.0" y="168.7" width="195.0" height="19.8" fill="#b45309"/><text x="617.5" y="207.4" text-anchor="middle" class="value">-5.50</text><text x="617.5" y="374.0" text-anchor="middle" class="axis">Direct Stress</text>
<rect x="845.0" y="168.7" width="195.0" height="128.4" fill="#0f766e"/><text x="942.5" y="316.1" text-anchor="middle" class="value">-35.73</text><text x="942.5" y="374.0" text-anchor="middle" class="axis">Path Base</text>
<rect x="1170.0" y="168.7" width="195.0" height="157.7" fill="#b45309"/><text x="1267.5" y="345.3" text-anchor="middle" class="value">-43.86</text><text x="1267.5" y="374.0" text-anchor="middle" class="axis">Path Stress</text>
<text x="130" y="452" class="label">Maximum drawdown (%)</text>
<line x1="130" y1="650.0" x2="1430" y2="650.0" class="grid"/><text x="116" y="654.0" text-anchor="end" class="axis">0.00</text>
<line x1="130" y1="560.0" x2="1430" y2="560.0" class="grid"/><text x="116" y="564.0" text-anchor="end" class="axis">26.45</text>
<line x1="130" y1="470.0" x2="1430" y2="470.0" class="grid"/><text x="116" y="474.0" text-anchor="end" class="axis">52.91</text>
<line x1="130" y1="650.0" x2="1430" y2="650.0" class="zero"/>
<rect x="195.0" y="624.9" width="195.0" height="25.1" fill="#2563a6"/><text x="292.5" y="615.9" text-anchor="middle" class="value">7.38</text><text x="292.5" y="674.0" text-anchor="middle" class="axis">Direct Base</text>
<rect x="520.0" y="622.1" width="195.0" height="27.9" fill="#b45309"/><text x="617.5" y="613.1" text-anchor="middle" class="value">8.21</text><text x="617.5" y="674.0" text-anchor="middle" class="axis">Direct Stress</text>
<rect x="845.0" y="522.7" width="195.0" height="127.3" fill="#0f766e"/><text x="942.5" y="513.7" text-anchor="middle" class="value">37.41</text><text x="942.5" y="674.0" text-anchor="middle" class="axis">Path Base</text>
<rect x="1170.0" y="497.5" width="195.0" height="152.5" fill="#b45309"/><text x="1267.5" y="488.5" text-anchor="middle" class="value">44.84</text><text x="1267.5" y="674.0" text-anchor="middle" class="axis">Path Stress</text>
</svg>
