<svg xmlns="http://www.w3.org/2000/svg" width="1200" height="700" viewBox="0 0 1200 700" role="img">
<title>Calibration did not authorize the later reversal</title>
<desc>Fixed 0.25% coverage; zero-height direct bars are empty ledgers, not zero-return results</desc>
<rect width="1200" height="700" fill="#0b1220"/>
<text x="64" y="58" fill="#f8fafc" font-family="Segoe UI,Arial,sans-serif" font-size="28" font-weight="700">Calibration did not authorize the later reversal</text>
<text x="64" y="88" fill="#cbd5e1" font-family="Segoe UI,Arial,sans-serif" font-size="15">Fixed 0.25% coverage; zero-height direct bars are empty ledgers, not zero-return results</text>
<line x1="100" y1="575.0" x2="1150" y2="575.0" stroke="#334155" stroke-width="1"/>
<text x="86" y="580.0" text-anchor="end" fill="#cbd5e1" font-family="Segoe UI,Arial,sans-serif" font-size="13">-11.00</text>
<line x1="100" y1="487.0" x2="1150" y2="487.0" stroke="#334155" stroke-width="1"/>
<text x="86" y="492.0" text-anchor="end" fill="#cbd5e1" font-family="Segoe UI,Arial,sans-serif" font-size="13">-7.40</text>
<line x1="100" y1="399.0" x2="1150" y2="399.0" stroke="#334155" stroke-width="1"/>
<text x="86" y="404.0" text-anchor="end" fill="#cbd5e1" font-family="Segoe UI,Arial,sans-serif" font-size="13">-3.80</text>
<line x1="100" y1="311.0" x2="1150" y2="311.0" stroke="#334155" stroke-width="1"/>
<text x="86" y="316.0" text-anchor="end" fill="#cbd5e1" font-family="Segoe UI,Arial,sans-serif" font-size="13">-0.20</text>
<line x1="100" y1="223.0" x2="1150" y2="223.0" stroke="#334155" stroke-width="1"/>
<text x="86" y="228.0" text-anchor="end" fill="#cbd5e1" font-family="Segoe UI,Arial,sans-serif" font-size="13">3.40</text>
<line x1="100" y1="135.0" x2="1150" y2="135.0" stroke="#334155" stroke-width="1"/>
<text x="86" y="140.0" text-anchor="end" fill="#cbd5e1" font-family="Segoe UI,Arial,sans-serif" font-size="13">7.00</text>
<line x1="100" y1="306.1" x2="1150" y2="306.1" stroke="#94a3b8" stroke-width="2"/>
<rect x="146.2" y="306.1" width="47.6" height="1.0" rx="3" fill="#22d3ee"/>
<text x="170.0" y="298.1" text-anchor="middle" fill="#f8fafc" font-family="Segoe UI,Arial,sans-serif" font-size="12">0.000</text>
<rect x="216.2" y="306.1" width="47.6" height="1.0" rx="3" fill="#f59e0b"/>
<text x="240.0" y="298.1" text-anchor="middle" fill="#f8fafc" font-family="Segoe UI,Arial,sans-serif" font-size="12">0.000</text>
<rect x="286.2" y="306.1" width="47.6" height="1.0" rx="3" fill="#60a5fa"/>
<text x="310.0" y="298.1" text-anchor="middle" fill="#f8fafc" font-family="Segoe UI,Arial,sans-serif" font-size="12">0.000</text>
<rect x="356.2" y="306.1" width="47.6" height="1.0" rx="3" fill="#ef4444"/>
<text x="380.0" y="298.1" text-anchor="middle" fill="#f8fafc" font-family="Segoe UI,Arial,sans-serif" font-size="12">0.000</text>
<text x="275.0" y="609" text-anchor="middle" fill="#f8fafc" font-family="Segoe UI,Arial,sans-serif" font-size="14">Direct mean</text>
<rect x="496.2" y="306.1" width="47.6" height="25.9" rx="3" fill="#22d3ee"/>
<text x="520.0" y="350.0" text-anchor="middle" fill="#f8fafc" font-family="Segoe UI,Arial,sans-serif" font-size="12">-1.058</text>
<rect x="566.2" y="306.1" width="47.6" height="58.4" rx="3" fill="#f59e0b"/>
<text x="590.0" y="382.6" text-anchor="middle" fill="#f8fafc" font-family="Segoe UI,Arial,sans-serif" font-size="12">-2.391</text>
<rect x="636.2" y="179.9" width="47.6" height="126.2" rx="3" fill="#60a5fa"/>
<text x="660.0" y="171.9" text-anchor="middle" fill="#f8fafc" font-family="Segoe UI,Arial,sans-serif" font-size="12">5.163</text>
<rect x="706.2" y="213.0" width="47.6" height="93.1" rx="3" fill="#ef4444"/>
<text x="730.0" y="205.0" text-anchor="middle" fill="#f8fafc" font-family="Segoe UI,Arial,sans-serif" font-size="12">3.808</text>
<text x="625.0" y="609" text-anchor="middle" fill="#f8fafc" font-family="Segoe UI,Arial,sans-serif" font-size="14">Executable hurdle</text>
<rect x="846.2" y="306.1" width="47.6" height="203.0" rx="3" fill="#22d3ee"/>
<text x="870.0" y="527.1" text-anchor="middle" fill="#f8fafc" font-family="Segoe UI,Arial,sans-serif" font-size="12">-8.305</text>
<rect x="916.2" y="306.1" width="47.6" height="235.6" rx="3" fill="#f59e0b"/>
<text x="940.0" y="559.7" text-anchor="middle" fill="#f8fafc" font-family="Segoe UI,Arial,sans-serif" font-size="12">-9.639</text>
<rect x="986.2" y="306.1" width="47.6" height="39.4" rx="3" fill="#60a5fa"/>
<text x="1010.0" y="363.5" text-anchor="middle" fill="#f8fafc" font-family="Segoe UI,Arial,sans-serif" font-size="12">-1.611</text>
<rect x="1056.2" y="306.1" width="47.6" height="72.0" rx="3" fill="#ef4444"/>
<text x="1080.0" y="396.1" text-anchor="middle" fill="#f8fafc" font-family="Segoe UI,Arial,sans-serif" font-size="12">-2.945</text>
<text x="975.0" y="609" text-anchor="middle" fill="#f8fafc" font-family="Segoe UI,Arial,sans-serif" font-size="14">Hurdle + FinCast</text>
<text transform="translate(24 355.0) rotate(-90)" text-anchor="middle" fill="#cbd5e1" font-family="Segoe UI,Arial,sans-serif" font-size="14">Weighted mean net return (bps/trade)</text>
<rect x="100.0" y="655" width="14" height="14" rx="2" fill="#22d3ee"/>
<text x="122.0" y="667" fill="#cbd5e1" font-family="Segoe UI,Arial,sans-serif" font-size="13">Calibration base</text>
<rect x="362.5" y="655" width="14" height="14" rx="2" fill="#f59e0b"/>
<text x="384.5" y="667" fill="#cbd5e1" font-family="Segoe UI,Arial,sans-serif" font-size="13">Calibration stress</text>
<rect x="625.0" y="655" width="14" height="14" rx="2" fill="#60a5fa"/>
<text x="647.0" y="667" fill="#cbd5e1" font-family="Segoe UI,Arial,sans-serif" font-size="13">Consumed eval base</text>
<rect x="887.5" y="655" width="14" height="14" rx="2" fill="#ef4444"/>
<text x="909.5" y="667" fill="#cbd5e1" font-family="Segoe UI,Arial,sans-serif" font-size="13">Consumed eval stress</text>
</svg>
