<svg xmlns="http://www.w3.org/2000/svg" width="1500" height="720" viewBox="0 0 1500 720" role="img" aria-labelledby="title desc">
<title id="title">SAM&#x27;s positive point estimate failed every robustness test</title>
<desc id="desc">Compounded net return on the fixed 2024-10-01 through 2025-06-30 UTC action ledgers; base is 6 bps and stress is 8 bps one-way.</desc>
<rect width="100%" height="100%" fill="#ffffff"/>
<style>text{font-family:"Segoe UI",Arial,sans-serif;letter-spacing:0}.title{font-size:27px;font-weight:700;fill:#17212b}.subtitle{font-size:14px;fill:#52606d}.label{font-size:13px;fill:#263746}.axis{font-size:12px;fill:#60717f}.value{font-size:12px;font-weight:650;fill:#263746}.note{font-size:12px;fill:#65727d}.grid{stroke:#e1e8ed;stroke-width:1}.zero{stroke:#526674;stroke-width:2;stroke-dasharray:6 5}</style>
<text x="56" y="52" class="title">SAM&#x27;s positive point estimate failed every robustness test</text>
<text x="56" y="80" class="subtitle">Compounded net return on the fixed 2024-10-01 through 2025-06-30 UTC action ledgers; base is 6 bps and stress is 8 bps one-way.</text>
<rect x="130" y="155" width="780" height="360" fill="#ffffff" stroke="#d8e0e7"/>
<line x1="130" y1="470.0" x2="910" y2="470.0" class="grid"/><text x="115" y="474.0" text-anchor="end" class="axis">-40%</text>
<line x1="130" y1="380.0" x2="910" y2="380.0" class="grid"/><text x="115" y="384.0" text-anchor="end" class="axis">-20%</text>
<line x1="130" y1="290.0" x2="910" y2="290.0" class="zero"/><text x="115" y="294.0" text-anchor="end" class="axis">+0%</text>
<line x1="130" y1="200.0" x2="910" y2="200.0" class="grid"/><text x="115" y="204.0" text-anchor="end" class="axis">+20%</text>
<rect x="253.0" y="290.0" width="66" height="161.9" fill="#2563a6" fill-opacity="0.88"/>
<text x="286.0" y="471.9" text-anchor="middle" class="value">-36.0%</text>
<rect x="331.0" y="290.0" width="66" height="194.4" fill="#b42318" fill-opacity="0.88"/>
<text x="364.0" y="504.4" text-anchor="middle" class="value">-43.2%</text>
<text x="325.0" y="543" text-anchor="middle" class="axis">Joint AdamW</text>
<rect x="643.0" y="189.8" width="66" height="100.2" fill="#2563a6" fill-opacity="0.88"/>
<text x="676.0" y="179.8" text-anchor="middle" class="value">+22.3%</text>
<rect x="721.0" y="255.1" width="66" height="34.9" fill="#b42318" fill-opacity="0.88"/>
<text x="754.0" y="245.1" text-anchor="middle" class="value">+7.8%</text>
<text x="715.0" y="543" text-anchor="middle" class="axis">Joint SAM</text>
<text x="995" y="165" class="label">Rejected diagnostics</text>
<text x="995" y="215" class="value">SAM: 947 trades / 272 active days</text>
<text x="995" y="255" class="value">SAM max drawdown: 29.48%</text>
<text x="995" y="295" class="value">SAM profit factor: 1.029</text>
<text x="995" y="335" class="value">SAM positive months: 4/9</text>
<text x="995" y="375" class="value">SAM stress CI lower: -1.043 bps/hour</text>
<text x="995" y="430" class="note">AdamW max drawdown: 44.10%</text>
<text x="995" y="462" class="note">AdamW profit factor: 0.965</text>
<text x="995" y="494" class="note">AdamW stress CI lower: -1.951 bps/hour</text>
<rect x="130" y="613" width="24" height="12" fill="#2563a6"/><text x="164" y="624" class="note">base 6 bps</text>
<rect x="315" y="613" width="24" height="12" fill="#b42318"/><text x="349" y="624" class="note">stress 8 bps, same ledger</text>
<text x="130" y="671" class="note">The positive SAM point estimate is selection-contaminated and accompanied by excessive drawdown, weak profit factor, regime concentration, and a confidence interval crossing zero.</text>
</svg>
