<svg xmlns="http://www.w3.org/2000/svg" width="1500" height="760" viewBox="0 0 1500 760" role="img" aria-labelledby="title desc">
<title id="title">Positive mutual point estimates failed institutional risk gates</title>
<desc id="desc">Fixed 2024-10-01 through 2025-06-30 UTC ledgers; base is 6 bps and stress is 8 bps one-way with no leverage.</desc>
<rect width="100%" height="100%" fill="#ffffff"/>
<style>text{font-family:"Segoe UI",Arial,sans-serif;letter-spacing:0}.title{font-size:27px;font-weight:700;fill:#17212b}.subtitle{font-size:14px;fill:#52606d}.label{font-size:13px;fill:#263746}.axis{font-size:12px;fill:#60717f}.value{font-size:12px;font-weight:650;fill:#263746}.note{font-size:12px;fill:#65727d}.grid{stroke:#e1e8ed;stroke-width:1}.zero{stroke:#526674;stroke-width:2;stroke-dasharray:6 5}</style>
<text x="56" y="52" class="title">Positive mutual point estimates failed institutional risk gates</text>
<text x="56" y="80" class="subtitle">Fixed 2024-10-01 through 2025-06-30 UTC ledgers; base is 6 bps and stress is 8 bps one-way with no leverage.</text>
<text x="130" y="125" class="label">Compounded net return</text><rect x="130" y="145" width="1300" height="210" fill="#ffffff" stroke="#d8e0e7"/>
<line x1="130" y1="355.0" x2="1430" y2="355.0" class="grid"/><text x="116" y="359.0" text-anchor="end" class="axis">-40%</text>
<line x1="130" y1="302.5" x2="1430" y2="302.5" class="grid"/><text x="116" y="306.5" text-anchor="end" class="axis">-20%</text>
<line x1="130" y1="250.0" x2="1430" y2="250.0" class="grid"/><text x="116" y="254.0" text-anchor="end" class="axis">+0%</text>
<line x1="130" y1="197.5" x2="1430" y2="197.5" class="grid"/><text x="116" y="201.5" text-anchor="end" class="axis">+20%</text>
<line x1="130" y1="145.0" x2="1430" y2="145.0" class="grid"/><text x="116" y="149.0" text-anchor="end" class="axis">+40%</text>
<rect x="383.0" y="250.0" width="66" height="70.2" fill="#2563a6" fill-opacity="0.88"/>
<text x="416.0" y="338.2" text-anchor="middle" class="value">-26.7%</text>
<rect x="461.0" y="250.0" width="66" height="88.6" fill="#b42318" fill-opacity="0.88"/>
<text x="494.0" y="356.6" text-anchor="middle" class="value">-33.8%</text>
<rect x="1033.0" y="161.1" width="66" height="88.9" fill="#2563a6" fill-opacity="0.88"/>
<text x="1066.0" y="152.1" text-anchor="middle" class="value">33.9%</text>
<rect x="1111.0" y="202.3" width="66" height="47.7" fill="#b42318" fill-opacity="0.88"/>
<text x="1144.0" y="193.3" text-anchor="middle" class="value">18.2%</text>
<text x="130" y="440" class="label">Maximum drawdown</text><rect x="130" y="460" width="1300" height="210" fill="#ffffff" stroke="#d8e0e7"/>
<line x1="130" y1="670.0" x2="1430" y2="670.0" class="grid"/><text x="116" y="674.0" text-anchor="end" class="axis">0%</text>
<line x1="130" y1="617.5" x2="1430" y2="617.5" class="grid"/><text x="116" y="621.5" text-anchor="end" class="axis">14%</text>
<line x1="130" y1="565.0" x2="1430" y2="565.0" class="grid"/><text x="116" y="569.0" text-anchor="end" class="axis">28%</text>
<line x1="130" y1="512.5" x2="1430" y2="512.5" class="grid"/><text x="116" y="516.5" text-anchor="end" class="axis">41%</text>
<line x1="130" y1="460.0" x2="1430" y2="460.0" class="grid"/><text x="116" y="464.0" text-anchor="end" class="axis">55%</text>
<rect x="383.0" y="488.2" width="66" height="181.8" fill="#2563a6" fill-opacity="0.88"/>
<text x="416.0" y="479.2" text-anchor="middle" class="value">47.6%</text>
<rect x="461.0" y="477.2" width="66" height="192.8" fill="#b42318" fill-opacity="0.88"/>
<text x="494.0" y="468.2" text-anchor="middle" class="value">50.5%</text>
<text x="455.0" y="697" text-anchor="middle" class="axis">WaveBound EMA</text>
<rect x="1033.0" y="569.6" width="66" height="100.4" fill="#2563a6" fill-opacity="0.88"/>
<text x="1066.0" y="560.6" text-anchor="middle" class="value">26.3%</text>
<rect x="1111.0" y="565.7" width="66" height="104.3" fill="#b42318" fill-opacity="0.88"/>
<text x="1144.0" y="556.7" text-anchor="middle" class="value">27.3%</text>
<text x="1105.0" y="697" text-anchor="middle" class="axis">Mutual consistency</text>
<rect x="130" y="722" width="24" height="12" fill="#2563a6"/><text x="164" y="733" class="note">base</text>
<rect x="270" y="722" width="24" height="12" fill="#b42318"/><text x="304" y="733" class="note">stress, same ledger</text>
<text x="1430" y="733" text-anchor="end" class="note">Mutual: PF 1.036; stress lower bound -1.076 bps/hour; ETH P&amp;L share 72.4%.</text>
</svg>
