<svg xmlns="http://www.w3.org/2000/svg" width="1480" height="760" viewBox="0 0 1480 760" role="img" aria-labelledby="title desc">
<title id="title">Round 37 learned weak association but compressed trade forecasts</title>
<desc id="desc">Unseen 2025-H1 prediction metrics; association is not after-cost profitability.</desc>
<rect width="100%" height="100%" fill="#ffffff"/>
<style>text{font-family:"Segoe UI",Arial,sans-serif;letter-spacing:0}.title{font-size:27px;font-weight:700;fill:#17212b}.subtitle{font-size:14px;fill:#52606d}.label{font-size:13px;fill:#263746}.axis{font-size:12px;fill:#60717f}.value{font-size:12px;font-weight:650;fill:#263746}.note{font-size:12px;fill:#65727d}.grid{stroke:#e1e8ed;stroke-width:1}.zero{stroke:#526674;stroke-width:2;stroke-dasharray:6 5}</style>
<text x="56" y="52" class="title">Round 37 learned weak association but compressed trade forecasts</text>
<text x="56" y="80" class="subtitle">Unseen 2025-H1 prediction metrics; association is not after-cost profitability.</text>
<text x="130" y="132" class="label">Pearson information coefficient</text>
<line x1="130" y1="355.0" x2="1410" y2="355.0" class="grid"/>
<text x="116" y="359.0" text-anchor="end" class="axis">-0.015</text>
<line x1="130" y1="252.5" x2="1410" y2="252.5" class="grid"/>
<text x="116" y="256.5" text-anchor="end" class="axis">0.005</text>
<line x1="130" y1="150.0" x2="1410" y2="150.0" class="grid"/>
<text x="116" y="154.0" text-anchor="end" class="axis">0.025</text>
<polyline points="130.0,251.4 556.7,295.8 983.3,266.8 1410.0,186.9" fill="none" stroke="#0f766e" stroke-width="4"/>
<circle cx="130.0" cy="251.4" r="5" fill="#0f766e"/>
<circle cx="556.7" cy="295.8" r="5" fill="#0f766e"/>
<circle cx="983.3" cy="266.8" r="5" fill="#0f766e"/>
<circle cx="1410.0" cy="186.9" r="5" fill="#0f766e"/>
<polyline points="130.0,263.7 556.7,292.7 983.3,280.2 1410.0,194.2" fill="none" stroke="#2563eb" stroke-width="4"/>
<circle cx="130.0" cy="263.7" r="5" fill="#2563eb"/>
<circle cx="556.7" cy="292.7" r="5" fill="#2563eb"/>
<circle cx="983.3" cy="280.2" r="5" fill="#2563eb"/>
<circle cx="1410.0" cy="194.2" r="5" fill="#2563eb"/>
<text x="130" y="457" class="label">Prediction standard deviation (bps; realized volatility is 40-168 bps)</text>
<line x1="130" y1="680.0" x2="1410" y2="680.0" class="zero"/>
<text x="116" y="684.0" text-anchor="end" class="axis">0.000</text>
<line x1="130" y1="577.5" x2="1410" y2="577.5" class="grid"/>
<text x="116" y="581.5" text-anchor="end" class="axis">3.000</text>
<line x1="130" y1="475.0" x2="1410" y2="475.0" class="grid"/>
<text x="116" y="479.0" text-anchor="end" class="axis">6.000</text>
<polyline points="130.0,636.2 556.7,607.8 983.3,566.6 1410.0,545.1" fill="none" stroke="#0f766e" stroke-width="4"/>
<circle cx="130.0" cy="636.2" r="5" fill="#0f766e"/>
<circle cx="556.7" cy="607.8" r="5" fill="#0f766e"/>
<circle cx="983.3" cy="566.6" r="5" fill="#0f766e"/>
<circle cx="1410.0" cy="545.1" r="5" fill="#0f766e"/>
<polyline points="130.0,642.5 556.7,594.8 983.3,543.1 1410.0,487.7" fill="none" stroke="#2563eb" stroke-width="4"/>
<circle cx="130.0" cy="642.5" r="5" fill="#2563eb"/>
<circle cx="556.7" cy="594.8" r="5" fill="#2563eb"/>
<circle cx="983.3" cy="543.1" r="5" fill="#2563eb"/>
<circle cx="1410.0" cy="487.7" r="5" fill="#2563eb"/>
<text x="130.0" y="702" text-anchor="middle" class="axis">15m</text>
<text x="556.7" y="702" text-anchor="middle" class="axis">30m</text>
<text x="983.3" y="702" text-anchor="middle" class="axis">60m</text>
<text x="1410.0" y="702" text-anchor="middle" class="axis">120m</text>
<line x1="130" y1="736" x2="158" y2="736" stroke="#0f766e" stroke-width="4"/><text x="168" y="741" class="note">shared LightGBM</text>
<line x1="380" y1="736" x2="408" y2="736" stroke="#2563eb" stroke-width="4"/><text x="418" y="741" class="note">per-symbol LightGBM</text>
<text x="1410" y="741" text-anchor="end" class="note">Best Pearson IC: 0.0178 at 120m. No model passed economic selection.</text>
</svg>
