<svg xmlns="http://www.w3.org/2000/svg" width="1480" height="650" viewBox="0 0 1480 650" role="img" aria-labelledby="title desc">
<title id="title">Primary proposal coverage was sparse and materially unbalanced</title>
<desc id="desc">Frozen Round 41 margin proposals by UTC day; counts are opportunities before overlay veto, overlap, or daily capacity.</desc>
<rect width="100%" height="100%" fill="#ffffff"/>
<style>text{font-family:"Segoe UI",Arial,sans-serif;letter-spacing:0}.title{font-size:27px;font-weight:700;fill:#17212b}.subtitle{font-size:14px;fill:#52606d}.label{font-size:13px;fill:#263746}.axis{font-size:12px;fill:#60717f}.value{font-size:12px;font-weight:650;fill:#263746}.note{font-size:12px;fill:#65727d}.grid{stroke:#e1e8ed;stroke-width:1}.zero{stroke:#526674;stroke-width:2;stroke-dasharray:6 5}</style>
<text x="56" y="52" class="title">Primary proposal coverage was sparse and materially unbalanced</text>
<text x="56" y="80" class="subtitle">Frozen Round 41 margin proposals by UTC day; counts are opportunities before overlay veto, overlap, or daily capacity.</text>
<line x1="120" y1="470.0" x2="1400" y2="470.0" class="zero"/>
<text x="106" y="474.0" text-anchor="end" class="axis">0</text>
<line x1="120" y1="371.8" x2="1400" y2="371.8" class="grid"/>
<text x="106" y="375.8" text-anchor="end" class="axis">50</text>
<line x1="120" y1="273.6" x2="1400" y2="273.6" class="grid"/>
<text x="106" y="277.6" text-anchor="end" class="axis">100</text>
<line x1="120" y1="175.4" x2="1400" y2="175.4" class="grid"/>
<text x="106" y="179.4" text-anchor="end" class="axis">150</text>
<rect x="158.4" y="466.1" width="106.1" height="3.9" fill="#2563eb"/>
<rect x="158.4" y="438.6" width="106.1" height="27.5" fill="#0f766e"/>
<rect x="158.4" y="436.6" width="106.1" height="2.0" fill="#b45309"/>
<text x="211.4" y="424.6" text-anchor="middle" class="value">17</text>
<text x="211.4" y="499.0" text-anchor="middle" class="axis">06-01</text>
<rect x="341.3" y="407.1" width="106.1" height="62.9" fill="#2563eb"/>
<rect x="341.3" y="299.1" width="106.1" height="108.0" fill="#0f766e"/>
<rect x="341.3" y="269.6" width="106.1" height="29.5" fill="#b45309"/>
<text x="394.3" y="257.6" text-anchor="middle" class="value">102</text>
<text x="394.3" y="499.0" text-anchor="middle" class="axis">06-02</text>
<rect x="524.1" y="381.6" width="106.1" height="88.4" fill="#2563eb"/>
<rect x="524.1" y="255.9" width="106.1" height="125.7" fill="#0f766e"/>
<rect x="524.1" y="253.9" width="106.1" height="2.0" fill="#b45309"/>
<text x="577.1" y="241.9" text-anchor="middle" class="value">110</text>
<text x="577.1" y="499.0" text-anchor="middle" class="axis">06-03</text>
<rect x="707.0" y="387.5" width="106.1" height="82.5" fill="#2563eb"/>
<rect x="707.0" y="252.0" width="106.1" height="135.5" fill="#0f766e"/>
<rect x="707.0" y="250.0" width="106.1" height="2.0" fill="#b45309"/>
<text x="760.0" y="238.0" text-anchor="middle" class="value">112</text>
<text x="760.0" y="499.0" text-anchor="middle" class="axis">06-04</text>
<rect x="889.8" y="326.6" width="106.1" height="143.4" fill="#2563eb"/>
<rect x="889.8" y="238.2" width="106.1" height="88.4" fill="#0f766e"/>
<rect x="889.8" y="236.3" width="106.1" height="2.0" fill="#b45309"/>
<text x="942.9" y="224.3" text-anchor="middle" class="value">119</text>
<text x="942.9" y="499.0" text-anchor="middle" class="axis">06-05</text>
<rect x="1072.7" y="375.7" width="106.1" height="94.3" fill="#2563eb"/>
<rect x="1072.7" y="299.1" width="106.1" height="76.6" fill="#0f766e"/>
<rect x="1072.7" y="287.3" width="106.1" height="11.8" fill="#b45309"/>
<text x="1125.7" y="275.3" text-anchor="middle" class="value">93</text>
<text x="1125.7" y="499.0" text-anchor="middle" class="axis">06-06</text>
<rect x="1255.5" y="367.9" width="106.1" height="102.1" fill="#2563eb"/>
<rect x="1255.5" y="224.5" width="106.1" height="143.4" fill="#0f766e"/>
<rect x="1255.5" y="175.4" width="106.1" height="49.1" fill="#b45309"/>
<text x="1308.6" y="163.4" text-anchor="middle" class="value">150</text>
<text x="1308.6" y="499.0" text-anchor="middle" class="axis">06-07</text>
<rect x="120" y="570" width="16" height="16" fill="#2563eb"/><text x="145" y="583" class="note">BTCUSDT</text>
<rect x="300" y="570" width="16" height="16" fill="#0f766e"/><text x="325" y="583" class="note">ETHUSDT</text>
<rect x="480" y="570" width="16" height="16" fill="#b45309"/><text x="505" y="583" class="note">SOLUSDT</text>
<text x="1410" y="583" text-anchor="end" class="note">Seven-day totals: BTC 294, ETH 359, SOL 50. This is not diversified action evidence.</text>
</svg>
