<svg xmlns="http://www.w3.org/2000/svg" width="1200" height="700" viewBox="0 0 1200 700" role="img">
<title>Full-history replication increased elevated-funding support</title>
<desc>Same &gt;=2 bps trigger and seven-day non-overlapping episode rule; Round 59 thresholds were not changed</desc>
<rect width="1200" height="700" fill="#0b1220"/>
<text x="64" y="58" fill="#f8fafc" font-family="Segoe UI,Arial,sans-serif" font-size="28" font-weight="700">Full-history replication increased elevated-funding support</text>
<text x="64" y="88" fill="#cbd5e1" font-family="Segoe UI,Arial,sans-serif" font-size="15">Same &gt;=2 bps trigger and seven-day non-overlapping episode rule; Round 59 thresholds were not changed</text>
<line x1="100" y1="575.0" x2="1150" y2="575.0" stroke="#334155" stroke-width="1"/>
<text x="86" y="580.0" text-anchor="end" fill="#cbd5e1" font-family="Segoe UI,Arial,sans-serif" font-size="13">0</text>
<line x1="100" y1="487.0" x2="1150" y2="487.0" stroke="#334155" stroke-width="1"/>
<text x="86" y="492.0" text-anchor="end" fill="#cbd5e1" font-family="Segoe UI,Arial,sans-serif" font-size="13">16</text>
<line x1="100" y1="399.0" x2="1150" y2="399.0" stroke="#334155" stroke-width="1"/>
<text x="86" y="404.0" text-anchor="end" fill="#cbd5e1" font-family="Segoe UI,Arial,sans-serif" font-size="13">32</text>
<line x1="100" y1="311.0" x2="1150" y2="311.0" stroke="#334155" stroke-width="1"/>
<text x="86" y="316.0" text-anchor="end" fill="#cbd5e1" font-family="Segoe UI,Arial,sans-serif" font-size="13">48</text>
<line x1="100" y1="223.0" x2="1150" y2="223.0" stroke="#334155" stroke-width="1"/>
<text x="86" y="228.0" text-anchor="end" fill="#cbd5e1" font-family="Segoe UI,Arial,sans-serif" font-size="13">64</text>
<line x1="100" y1="135.0" x2="1150" y2="135.0" stroke="#334155" stroke-width="1"/>
<text x="86" y="140.0" text-anchor="end" fill="#cbd5e1" font-family="Segoe UI,Arial,sans-serif" font-size="13">80</text>
<rect x="177.0" y="465.0" width="79.3" height="110.0" rx="3" fill="#f59e0b"/>
<text x="216.7" y="457.0" text-anchor="middle" fill="#f8fafc" font-family="Segoe UI,Arial,sans-serif" font-size="12">20</text>
<rect x="293.7" y="179.0" width="79.3" height="396.0" rx="3" fill="#14b8a6"/>
<text x="333.3" y="171.0" text-anchor="middle" fill="#f8fafc" font-family="Segoe UI,Arial,sans-serif" font-size="12">72</text>
<text x="275.0" y="609" text-anchor="middle" fill="#f8fafc" font-family="Segoe UI,Arial,sans-serif" font-size="14">BTC</text>
<rect x="527.0" y="465.0" width="79.3" height="110.0" rx="3" fill="#f59e0b"/>
<text x="566.7" y="457.0" text-anchor="middle" fill="#f8fafc" font-family="Segoe UI,Arial,sans-serif" font-size="12">20</text>
<rect x="643.7" y="157.0" width="79.3" height="418.0" rx="3" fill="#14b8a6"/>
<text x="683.3" y="149.0" text-anchor="middle" fill="#f8fafc" font-family="Segoe UI,Arial,sans-serif" font-size="12">76</text>
<text x="625.0" y="609" text-anchor="middle" fill="#f8fafc" font-family="Segoe UI,Arial,sans-serif" font-size="14">ETH</text>
<rect x="877.0" y="437.5" width="79.3" height="137.5" rx="3" fill="#f59e0b"/>
<text x="916.7" y="429.5" text-anchor="middle" fill="#f8fafc" font-family="Segoe UI,Arial,sans-serif" font-size="12">25</text>
<rect x="993.7" y="234.0" width="79.3" height="341.0" rx="3" fill="#14b8a6"/>
<text x="1033.3" y="226.0" text-anchor="middle" fill="#f8fafc" font-family="Segoe UI,Arial,sans-serif" font-size="12">62</text>
<text x="975.0" y="609" text-anchor="middle" fill="#f8fafc" font-family="Segoe UI,Arial,sans-serif" font-size="14">SOL</text>
<text transform="translate(24 355.0) rotate(-90)" text-anchor="middle" fill="#cbd5e1" font-family="Segoe UI,Arial,sans-serif" font-size="14">Non-overlapping episodes</text>
<rect x="100.0" y="655" width="14" height="14" rx="2" fill="#f59e0b"/>
<text x="122.0" y="667" fill="#cbd5e1" font-family="Segoe UI,Arial,sans-serif" font-size="13">Round 59 episodes</text>
<rect x="625.0" y="655" width="14" height="14" rx="2" fill="#14b8a6"/>
<text x="647.0" y="667" fill="#cbd5e1" font-family="Segoe UI,Arial,sans-serif" font-size="13">Round 60 episodes</text>
</svg>
