<svg xmlns="http://www.w3.org/2000/svg" width="1200" height="760" viewBox="0 0 1200 760" role="img">
<title>Research progression: comparable statistics and gate outcomes</title>
<desc>Top: only recorded Spearman values. Bottom: recent gate status; implementation-only rounds are not backtests.</desc>
<rect width="1200" height="760" fill="#0b1220"/>
<text x="64" y="58" fill="#f8fafc" font-family="Segoe UI,Arial,sans-serif" font-size="28" font-weight="700">Research progression: comparable statistics and gate outcomes</text>
<text x="64" y="88" fill="#cbd5e1" font-family="Segoe UI,Arial,sans-serif" font-size="15">Top: only recorded Spearman values. Bottom: recent gate status; implementation-only rounds are not backtests.</text>
<line x1="105" y1="500.0" x2="1145" y2="500.0" stroke="#334155"/>
<text x="91" y="505.0" text-anchor="end" fill="#cbd5e1" font-family="Segoe UI,Arial,sans-serif" font-size="13">-4.3</text>
<line x1="105" y1="408.8" x2="1145" y2="408.8" stroke="#334155"/>
<text x="91" y="413.8" text-anchor="end" fill="#cbd5e1" font-family="Segoe UI,Arial,sans-serif" font-size="13">0.6</text>
<line x1="105" y1="317.5" x2="1145" y2="317.5" stroke="#334155"/>
<text x="91" y="322.5" text-anchor="end" fill="#cbd5e1" font-family="Segoe UI,Arial,sans-serif" font-size="13">5.5</text>
<line x1="105" y1="226.3" x2="1145" y2="226.3" stroke="#334155"/>
<text x="91" y="231.3" text-anchor="end" fill="#cbd5e1" font-family="Segoe UI,Arial,sans-serif" font-size="13">10.4</text>
<line x1="105" y1="135.0" x2="1145" y2="135.0" stroke="#334155"/>
<text x="91" y="140.0" text-anchor="end" fill="#cbd5e1" font-family="Segoe UI,Arial,sans-serif" font-size="13">15.2</text>
<path d="M 105.0 448.1 L 119.6 219.3 L 134.3 219.2 L 148.9 219.3 L 163.6 183.6 L 178.2 183.6 L 192.9 183.6 L 207.5 238.9 L 280.8 212.9 L 295.4 225.1 L 310.1 255.1 L 559.1 443.8 L 573.7 481.3 L 588.4 443.8 L 617.7 153.7 L 632.3 338.3 L 720.2 359.7 L 734.9 326.4 L 749.5 361.1 L 764.2 337.0 L 778.8 336.5 L 793.5 369.8 L 808.1 411.6 L 822.7 431.6 L 837.4 341.6 L 852.0 358.7 L 866.7 323.5 L 881.3 337.3 L 896.0 208.8 L 910.6 384.1 L 925.3 386.4" fill="none" stroke="#60a5fa" stroke-width="3" stroke-linejoin="round"/>
<circle cx="105.0" cy="448.1" r="4" fill="#60a5fa"/>
<circle cx="119.6" cy="219.3" r="4" fill="#60a5fa"/>
<circle cx="134.3" cy="219.2" r="4" fill="#60a5fa"/>
<circle cx="148.9" cy="219.3" r="4" fill="#60a5fa"/>
<circle cx="163.6" cy="183.6" r="4" fill="#60a5fa"/>
<circle cx="178.2" cy="183.6" r="4" fill="#60a5fa"/>
<circle cx="192.9" cy="183.6" r="4" fill="#60a5fa"/>
<circle cx="207.5" cy="238.9" r="4" fill="#60a5fa"/>
<circle cx="280.8" cy="212.9" r="4" fill="#60a5fa"/>
<circle cx="295.4" cy="225.1" r="4" fill="#60a5fa"/>
<circle cx="310.1" cy="255.1" r="4" fill="#60a5fa"/>
<circle cx="559.1" cy="443.8" r="4" fill="#60a5fa"/>
<circle cx="573.7" cy="481.3" r="4" fill="#60a5fa"/>
<circle cx="588.4" cy="443.8" r="4" fill="#60a5fa"/>
<circle cx="617.7" cy="153.7" r="4" fill="#60a5fa"/>
<circle cx="632.3" cy="338.3" r="4" fill="#60a5fa"/>
<circle cx="720.2" cy="359.7" r="4" fill="#60a5fa"/>
<circle cx="734.9" cy="326.4" r="4" fill="#60a5fa"/>
<circle cx="749.5" cy="361.1" r="4" fill="#60a5fa"/>
<circle cx="764.2" cy="337.0" r="4" fill="#60a5fa"/>
<circle cx="778.8" cy="336.5" r="4" fill="#60a5fa"/>
<circle cx="793.5" cy="369.8" r="4" fill="#60a5fa"/>
<circle cx="808.1" cy="411.6" r="4" fill="#60a5fa"/>
<circle cx="822.7" cy="431.6" r="4" fill="#60a5fa"/>
<circle cx="837.4" cy="341.6" r="4" fill="#60a5fa"/>
<circle cx="852.0" cy="358.7" r="4" fill="#60a5fa"/>
<circle cx="866.7" cy="323.5" r="4" fill="#60a5fa"/>
<circle cx="881.3" cy="337.3" r="4" fill="#60a5fa"/>
<circle cx="896.0" cy="208.8" r="4" fill="#60a5fa"/>
<circle cx="910.6" cy="384.1" r="4" fill="#60a5fa"/>
<circle cx="925.3" cy="386.4" r="4" fill="#60a5fa"/>
<text transform="translate(25 317.5) rotate(-90)" text-anchor="middle" fill="#cbd5e1" font-family="Segoe UI,Arial,sans-serif" font-size="14">Recorded Spearman x 100</text>
<line x1="881.3" y1="635" x2="1145.0" y2="635" stroke="#334155" stroke-width="3"/>
<text x="105" y="555" fill="#f8fafc" font-family="Segoe UI,Arial,sans-serif" font-size="16" font-weight="600">Rounds 54-72: gate status</text>
<circle cx="881.3" cy="635" r="8" fill="#ef4444"/>
<text x="881.3" y="663" text-anchor="middle" fill="#cbd5e1" font-family="Segoe UI,Arial,sans-serif" font-size="11">54</text>
<circle cx="896.0" cy="635" r="8" fill="#ef4444"/>
<text x="896.0" y="663" text-anchor="middle" fill="#cbd5e1" font-family="Segoe UI,Arial,sans-serif" font-size="11">55</text>
<circle cx="910.6" cy="635" r="8" fill="#ef4444"/>
<text x="910.6" y="663" text-anchor="middle" fill="#cbd5e1" font-family="Segoe UI,Arial,sans-serif" font-size="11">56</text>
<circle cx="925.3" cy="635" r="8" fill="#ef4444"/>
<text x="925.3" y="663" text-anchor="middle" fill="#cbd5e1" font-family="Segoe UI,Arial,sans-serif" font-size="11">57</text>
<circle cx="939.9" cy="635" r="8" fill="#ef4444"/>
<text x="939.9" y="663" text-anchor="middle" fill="#cbd5e1" font-family="Segoe UI,Arial,sans-serif" font-size="11">58</text>
<circle cx="954.6" cy="635" r="8" fill="#ef4444"/>
<text x="954.6" y="663" text-anchor="middle" fill="#cbd5e1" font-family="Segoe UI,Arial,sans-serif" font-size="11">59</text>
<circle cx="969.2" cy="635" r="8" fill="#22c55e"/>
<text x="969.2" y="663" text-anchor="middle" fill="#cbd5e1" font-family="Segoe UI,Arial,sans-serif" font-size="11">60</text>
<circle cx="983.9" cy="635" r="8" fill="#ef4444"/>
<text x="983.9" y="663" text-anchor="middle" fill="#cbd5e1" font-family="Segoe UI,Arial,sans-serif" font-size="11">61</text>
<circle cx="998.5" cy="635" r="8" fill="#22c55e"/>
<text x="998.5" y="663" text-anchor="middle" fill="#cbd5e1" font-family="Segoe UI,Arial,sans-serif" font-size="11">62</text>
<circle cx="1013.2" cy="635" r="8" fill="#94a3b8"/>
<text x="1013.2" y="663" text-anchor="middle" fill="#cbd5e1" font-family="Segoe UI,Arial,sans-serif" font-size="11">63</text>
<circle cx="1027.8" cy="635" r="8" fill="#94a3b8"/>
<text x="1027.8" y="663" text-anchor="middle" fill="#cbd5e1" font-family="Segoe UI,Arial,sans-serif" font-size="11">64</text>
<circle cx="1042.5" cy="635" r="8" fill="#94a3b8"/>
<text x="1042.5" y="663" text-anchor="middle" fill="#cbd5e1" font-family="Segoe UI,Arial,sans-serif" font-size="11">65</text>
<circle cx="1057.1" cy="635" r="8" fill="#94a3b8"/>
<text x="1057.1" y="663" text-anchor="middle" fill="#cbd5e1" font-family="Segoe UI,Arial,sans-serif" font-size="11">66</text>
<circle cx="1071.8" cy="635" r="8" fill="#94a3b8"/>
<text x="1071.8" y="663" text-anchor="middle" fill="#cbd5e1" font-family="Segoe UI,Arial,sans-serif" font-size="11">67</text>
<circle cx="1086.4" cy="635" r="8" fill="#94a3b8"/>
<text x="1086.4" y="663" text-anchor="middle" fill="#cbd5e1" font-family="Segoe UI,Arial,sans-serif" font-size="11">68</text>
<circle cx="1101.1" cy="635" r="8" fill="#94a3b8"/>
<text x="1101.1" y="663" text-anchor="middle" fill="#cbd5e1" font-family="Segoe UI,Arial,sans-serif" font-size="11">69</text>
<circle cx="1115.7" cy="635" r="8" fill="#94a3b8"/>
<text x="1115.7" y="663" text-anchor="middle" fill="#cbd5e1" font-family="Segoe UI,Arial,sans-serif" font-size="11">70</text>
<circle cx="1130.4" cy="635" r="8" fill="#94a3b8"/>
<text x="1130.4" y="663" text-anchor="middle" fill="#cbd5e1" font-family="Segoe UI,Arial,sans-serif" font-size="11">71</text>
<circle cx="1145.0" cy="635" r="8" fill="#ef4444"/>
<text x="1145.0" y="663" text-anchor="middle" fill="#cbd5e1" font-family="Segoe UI,Arial,sans-serif" font-size="11">72</text>
<circle cx="365" cy="588" r="5" fill="#22c55e"/>
<text x="376" y="592" fill="#f8fafc" font-family="Segoe UI,Arial,sans-serif" font-size="11"><tspan font-weight="700">R60</tspan><tspan fill="#cbd5e1"> structural pass</tspan></text>
<circle cx="565" cy="588" r="5" fill="#ef4444"/>
<text x="576" y="592" fill="#f8fafc" font-family="Segoe UI,Arial,sans-serif" font-size="11"><tspan font-weight="700">R61</tspan><tspan fill="#cbd5e1"> economic reject</tspan></text>
<circle cx="755" cy="588" r="5" fill="#22c55e"/>
<text x="766" y="592" fill="#f8fafc" font-family="Segoe UI,Arial,sans-serif" font-size="11"><tspan font-weight="700">R62</tspan><tspan fill="#cbd5e1"> predictive pass</tspan></text>
<circle cx="945" cy="588" r="5" fill="#ef4444"/>
<text x="956" y="592" fill="#f8fafc" font-family="Segoe UI,Arial,sans-serif" font-size="11"><tspan font-weight="700">R72</tspan><tspan fill="#cbd5e1"> predictive reject</tspan></text>
<circle cx="105" cy="725" r="6" fill="#22c55e"/><text x="119" y="730" fill="#cbd5e1" font-family="Segoe UI,Arial,sans-serif" font-size="13">Passed frozen gate</text>
<circle cx="295" cy="725" r="6" fill="#ef4444"/><text x="309" y="730" fill="#cbd5e1" font-family="Segoe UI,Arial,sans-serif" font-size="13">Rejected</text>
<circle cx="425" cy="725" r="6" fill="#94a3b8"/><text x="439" y="730" fill="#cbd5e1" font-family="Segoe UI,Arial,sans-serif" font-size="13">Implementation or research only</text>
</svg>
