<svg xmlns="http://www.w3.org/2000/svg" width="1500" height="660" viewBox="0 0 1500 660" role="img" aria-labelledby="title desc">
<title id="title">After-cost evidence by research round</title>
<desc id="desc">Heterogeneous simulations, overlap diagnostics, and rounds without a trade series use separate marks.</desc>
<rect width="100%" height="100%" fill="#ffffff"/>
<style>text{font-family:"Segoe UI",Arial,sans-serif;letter-spacing:0}.title{font-size:27px;font-weight:700;fill:#17212b}.subtitle{font-size:14px;fill:#52606d}.label{font-size:13px;fill:#263746}.axis{font-size:12px;fill:#60717f}.value{font-size:12px;font-weight:650;fill:#263746}.note{font-size:12px;fill:#65727d}.grid{stroke:#e1e8ed;stroke-width:1}.zero{stroke:#526674;stroke-width:2;stroke-dasharray:6 5}</style>
<text x="56" y="52" class="title">After-cost evidence by research round</text>
<text x="56" y="80" class="subtitle">Heterogeneous simulations, overlap diagnostics, and rounds without a trade series use separate marks.</text>
<circle cx="870" cy="52" r="7" fill="#b42318"/><text x="887" y="57" class="note">simulated-trade mean</text>
<rect x="1050" y="45" width="14" height="14" fill="#7b559c"/><text x="1074" y="57" class="note">overlap diagnostic</text>
<rect x="1250" y="45" width="14" height="14" fill="#ffffff" stroke="#60717f" stroke-width="2" transform="rotate(45 1257 52)"/><text x="1276" y="57" class="note">no trade series</text>
<rect x="120" y="150" width="1310" height="330" fill="#ffffff" stroke="#d8e0e7"/>
<line x1="120" y1="480.0" x2="1430" y2="480.0" class="grid"/>
<text x="106" y="484.0" text-anchor="end" class="axis">-14.3</text>
<line x1="120" y1="389.1" x2="1430" y2="389.1" class="zero"/>
<text x="106" y="393.1" text-anchor="end" class="axis">+0.0</text>
<line x1="120" y1="315.0" x2="1430" y2="315.0" class="grid"/>
<text x="106" y="319.0" text-anchor="end" class="axis">+11.6</text>
<line x1="120" y1="150.0" x2="1430" y2="150.0" class="grid"/>
<text x="106" y="154.0" text-anchor="end" class="axis">+37.6</text>
<text x="104" y="556" text-anchor="end" class="axis">no series</text>
<circle cx="137.2" cy="437.8" r="8" fill="#b42318" stroke="#ffffff" stroke-width="2"/>
<text x="137.2" y="422.8" text-anchor="middle" class="value">-7.64</text>
<text x="137.2" y="589" text-anchor="middle" class="axis">R7</text>
<circle cx="171.7" cy="464.5" r="8" fill="#b42318" stroke="#ffffff" stroke-width="2"/>
<text x="171.7" y="449.5" text-anchor="middle" class="value">-11.84</text>
<text x="171.7" y="589" text-anchor="middle" class="axis">R8</text>
<rect x="199.2" y="545.0" width="14" height="14" fill="#ffffff" stroke="#60717f" stroke-width="2" transform="rotate(45 206.2 552.0)"/>
<text x="206.2" y="589" text-anchor="middle" class="axis">R9</text>
<rect x="233.7" y="545.0" width="14" height="14" fill="#ffffff" stroke="#60717f" stroke-width="2" transform="rotate(45 240.7 552.0)"/>
<text x="240.7" y="589" text-anchor="middle" class="axis">R10</text>
<rect x="268.1" y="545.0" width="14" height="14" fill="#ffffff" stroke="#60717f" stroke-width="2" transform="rotate(45 275.1 552.0)"/>
<text x="275.1" y="589" text-anchor="middle" class="axis">R11</text>
<rect x="302.6" y="545.0" width="14" height="14" fill="#ffffff" stroke="#60717f" stroke-width="2" transform="rotate(45 309.6 552.0)"/>
<text x="309.6" y="589" text-anchor="middle" class="axis">R12</text>
<rect x="337.1" y="424.2" width="14" height="14" fill="#7b559c"/>
<text x="344.1" y="589" text-anchor="middle" class="axis">R13</text>
<rect x="371.6" y="423.2" width="14" height="14" fill="#7b559c"/>
<text x="378.6" y="589" text-anchor="middle" class="axis">R14</text>
<rect x="406.0" y="545.0" width="14" height="14" fill="#ffffff" stroke="#60717f" stroke-width="2" transform="rotate(45 413.0 552.0)"/>
<text x="413.0" y="589" text-anchor="middle" class="axis">R15</text>
<rect x="440.5" y="462.3" width="14" height="14" fill="#7b559c"/>
<text x="447.5" y="589" text-anchor="middle" class="axis">R16</text>
<rect x="475.0" y="448.6" width="14" height="14" fill="#7b559c"/>
<text x="482.0" y="589" text-anchor="middle" class="axis">R17</text>
<rect x="509.4" y="435.0" width="14" height="14" fill="#7b559c"/>
<text x="516.4" y="589" text-anchor="middle" class="axis">R18</text>
<rect x="543.9" y="447.7" width="14" height="14" fill="#7b559c"/>
<text x="550.9" y="589" text-anchor="middle" class="axis">R19</text>
<rect x="578.4" y="448.2" width="14" height="14" fill="#7b559c"/>
<text x="585.4" y="589" text-anchor="middle" class="axis">R20</text>
<rect x="612.9" y="460.1" width="14" height="14" fill="#7b559c"/>
<text x="619.9" y="589" text-anchor="middle" class="axis">R21</text>
<rect x="647.3" y="446.9" width="14" height="14" fill="#7b559c"/>
<text x="654.3" y="589" text-anchor="middle" class="axis">R22</text>
<rect x="681.8" y="443.3" width="14" height="14" fill="#7b559c"/>
<text x="688.8" y="589" text-anchor="middle" class="axis">R23</text>
<rect x="716.3" y="454.2" width="14" height="14" fill="#7b559c"/>
<text x="723.3" y="589" text-anchor="middle" class="axis">R24</text>
<rect x="750.8" y="445.1" width="14" height="14" fill="#7b559c"/>
<text x="757.8" y="589" text-anchor="middle" class="axis">R25</text>
<rect x="785.2" y="448.1" width="14" height="14" fill="#7b559c"/>
<text x="792.2" y="589" text-anchor="middle" class="axis">R26</text>
<rect x="819.7" y="459.4" width="14" height="14" fill="#7b559c"/>
<text x="826.7" y="589" text-anchor="middle" class="axis">R27</text>
<rect x="854.2" y="441.2" width="14" height="14" fill="#7b559c"/>
<text x="861.2" y="589" text-anchor="middle" class="axis">R28</text>
<rect x="888.7" y="437.1" width="14" height="14" fill="#7b559c"/>
<text x="895.7" y="589" text-anchor="middle" class="axis">R29</text>
<rect x="923.1" y="352.2" width="14" height="14" fill="#7b559c"/>
<text x="930.1" y="589" text-anchor="middle" class="axis">R30</text>
<rect x="957.6" y="427.2" width="14" height="14" fill="#7b559c"/>
<text x="964.6" y="589" text-anchor="middle" class="axis">R31</text>
<rect x="992.1" y="450.6" width="14" height="14" fill="#7b559c"/>
<text x="999.1" y="589" text-anchor="middle" class="axis">R32</text>
<rect x="1026.6" y="463.5" width="14" height="14" fill="#7b559c"/>
<text x="1033.6" y="589" text-anchor="middle" class="axis">R33</text>
<rect x="1061.0" y="450.6" width="14" height="14" fill="#7b559c"/>
<text x="1068.0" y="589" text-anchor="middle" class="axis">R34</text>
<rect x="1095.5" y="378.8" width="14" height="14" fill="#7b559c"/>
<text x="1102.5" y="589" text-anchor="middle" class="axis">R35</text>
<rect x="1130.0" y="445.8" width="14" height="14" fill="#7b559c"/>
<text x="1137.0" y="589" text-anchor="middle" class="axis">R36</text>
<rect x="1164.4" y="545.0" width="14" height="14" fill="#ffffff" stroke="#60717f" stroke-width="2" transform="rotate(45 1171.4 552.0)"/>
<text x="1171.4" y="589" text-anchor="middle" class="axis">R37</text>
<circle cx="1205.9" cy="414.5" r="8" fill="#b42318" stroke="#ffffff" stroke-width="2"/>
<text x="1205.9" y="399.5" text-anchor="middle" class="value">-3.99</text>
<text x="1205.9" y="589" text-anchor="middle" class="axis">R38</text>
<circle cx="1240.4" cy="452.2" r="8" fill="#b42318" stroke="#ffffff" stroke-width="2"/>
<text x="1240.4" y="437.2" text-anchor="middle" class="value">-9.91</text>
<text x="1240.4" y="589" text-anchor="middle" class="axis">R39</text>
<circle cx="1274.9" cy="159.5" r="8" fill="#b42318" stroke="#ffffff" stroke-width="2"/>
<text x="1274.9" y="144.5" text-anchor="middle" class="value">+36.06</text>
<text x="1274.9" y="589" text-anchor="middle" class="axis">R40</text>
<circle cx="1309.3" cy="393.4" r="8" fill="#b42318" stroke="#ffffff" stroke-width="2"/>
<text x="1309.3" y="378.4" text-anchor="middle" class="value">-0.68</text>
<text x="1309.3" y="589" text-anchor="middle" class="axis">R41</text>
<rect x="1336.8" y="545.0" width="14" height="14" fill="#ffffff" stroke="#60717f" stroke-width="2" transform="rotate(45 1343.8 552.0)"/>
<text x="1343.8" y="589" text-anchor="middle" class="axis">R42</text>
<circle cx="1378.3" cy="388.4" r="8" fill="#b42318" stroke="#ffffff" stroke-width="2"/>
<text x="1378.3" y="373.4" text-anchor="middle" class="value">+0.11</text>
<text x="1378.3" y="589" text-anchor="middle" class="axis">R43</text>
<circle cx="1412.8" cy="389.2" r="8" fill="#b42318" stroke="#ffffff" stroke-width="2"/>
<text x="1412.8" y="374.2" text-anchor="middle" class="value">-0.00</text>
<text x="1412.8" y="589" text-anchor="middle" class="axis">R44</text>
<text x="56" y="632" class="note">Windows and units differ by round. This is evidence lineage, not an equity curve or portfolio return series.</text>
</svg>
