<svg xmlns="http://www.w3.org/2000/svg" width="1500" height="620" viewBox="0 0 1500 620" role="img" aria-labelledby="title desc">
<title id="title">After-cost evidence by research round</title>
<desc id="desc">Simulated-trade means, overlapping-forecast diagnostics, and rounds with no simulated-trade series use distinct markers. Round fifteen produced no evaluation trades.</desc>
<rect width="100%" height="100%" fill="#ffffff"/>
<text x="56" y="54" font-family="Segoe UI, Arial, sans-serif" font-size="28" font-weight="700" fill="#17212b">After-cost evidence by research round</text>
<text x="56" y="84" font-family="Segoe UI, Arial, sans-serif" font-size="15" fill="#52606d">Distinct markers prevent diagnostics or abstention from being presented as a simulated-trade mean.</text>
<circle cx="900" cy="55" r="7" fill="#b42318"/><text x="917" y="60" font-family="Segoe UI, Arial, sans-serif" font-size="12" fill="#52606d">simulated-trade mean</text>
<rect x="1052" y="48" width="14" height="14" fill="#ffffff" stroke="#60717f" stroke-width="2" transform="rotate(45 1059 55)"/><text x="1076" y="60" font-family="Segoe UI, Arial, sans-serif" font-size="12" fill="#52606d">no simulated-trade series</text>
<rect x="1277" y="48" width="14" height="14" fill="#7b559c"/><text x="1301" y="60" font-family="Segoe UI, Arial, sans-serif" font-size="12" fill="#52606d">overlap diagnostic</text>
<rect x="120" y="158" width="1310" height="330" fill="#ffffff" stroke="#d8e0e7"/>
<line x1="120" y1="488.0" x2="1430" y2="488.0" stroke="#e5ebf0" stroke-width="1"/>
<text x="106" y="493.0" text-anchor="end" font-family="Segoe UI, Arial, sans-serif" font-size="12" fill="#60717f">-14</text>
<line x1="120" y1="405.5" x2="1430" y2="405.5" stroke="#e5ebf0" stroke-width="1"/>
<text x="106" y="410.5" text-anchor="end" font-family="Segoe UI, Arial, sans-serif" font-size="12" fill="#60717f">-10</text>
<line x1="120" y1="302.4" x2="1430" y2="302.4" stroke="#e5ebf0" stroke-width="1"/>
<text x="106" y="307.4" text-anchor="end" font-family="Segoe UI, Arial, sans-serif" font-size="12" fill="#60717f">-5</text>
<line x1="120" y1="199.2" x2="1430" y2="199.2" stroke="#526674" stroke-width="2"/>
<text x="106" y="204.2" text-anchor="end" font-family="Segoe UI, Arial, sans-serif" font-size="12" fill="#60717f">0</text>
<circle cx="141.8" cy="356.8" r="8" fill="#b42318" stroke="#ffffff" stroke-width="3"/>
<text x="141.8" y="340.8" text-anchor="middle" font-family="Segoe UI, Arial, sans-serif" font-size="12" font-weight="700" fill="#263744">-7.64</text>
<text x="141.8" y="520" text-anchor="middle" font-family="Segoe UI, Arial, sans-serif" font-size="11" fill="#334653">R7</text>
<circle cx="185.5" cy="443.4" r="8" fill="#b42318" stroke="#ffffff" stroke-width="3"/>
<text x="185.5" y="427.4" text-anchor="middle" font-family="Segoe UI, Arial, sans-serif" font-size="12" font-weight="700" fill="#263744">-11.84</text>
<text x="185.5" y="520" text-anchor="middle" font-family="Segoe UI, Arial, sans-serif" font-size="11" fill="#334653">R8</text>
<rect x="222.2" y="316.0" width="14" height="14" fill="#ffffff" stroke="#60717f" stroke-width="2" transform="rotate(45 229.2 323.0)"/>
<text x="229.2" y="520" text-anchor="middle" font-family="Segoe UI, Arial, sans-serif" font-size="11" fill="#334653">R9</text>
<rect x="265.8" y="316.0" width="14" height="14" fill="#ffffff" stroke="#60717f" stroke-width="2" transform="rotate(45 272.8 323.0)"/>
<text x="272.8" y="520" text-anchor="middle" font-family="Segoe UI, Arial, sans-serif" font-size="11" fill="#334653">R10</text>
<rect x="309.5" y="316.0" width="14" height="14" fill="#ffffff" stroke="#60717f" stroke-width="2" transform="rotate(45 316.5 323.0)"/>
<text x="316.5" y="520" text-anchor="middle" font-family="Segoe UI, Arial, sans-serif" font-size="11" fill="#334653">R11</text>
<rect x="353.2" y="316.0" width="14" height="14" fill="#ffffff" stroke="#60717f" stroke-width="2" transform="rotate(45 360.2 323.0)"/>
<text x="360.2" y="520" text-anchor="middle" font-family="Segoe UI, Arial, sans-serif" font-size="11" fill="#334653">R12</text>
<rect x="395.8" y="327.5" width="16" height="16" fill="#7b559c" stroke="#ffffff" stroke-width="2"/>
<text x="403.8" y="520" text-anchor="middle" font-family="Segoe UI, Arial, sans-serif" font-size="11" fill="#334653">R13</text>
<rect x="439.5" y="324.4" width="16" height="16" fill="#7b559c" stroke="#ffffff" stroke-width="2"/>
<text x="447.5" y="520" text-anchor="middle" font-family="Segoe UI, Arial, sans-serif" font-size="11" fill="#334653">R14</text>
<rect x="484.2" y="316.0" width="14" height="14" fill="#ffffff" stroke="#60717f" stroke-width="2" transform="rotate(45 491.2 323.0)"/>
<text x="491.2" y="520" text-anchor="middle" font-family="Segoe UI, Arial, sans-serif" font-size="11" fill="#334653">R15</text>
<rect x="526.8" y="450.9" width="16" height="16" fill="#7b559c" stroke="#ffffff" stroke-width="2"/>
<text x="534.8" y="520" text-anchor="middle" font-family="Segoe UI, Arial, sans-serif" font-size="11" fill="#334653">R16</text>
<rect x="570.5" y="406.6" width="16" height="16" fill="#7b559c" stroke="#ffffff" stroke-width="2"/>
<text x="578.5" y="520" text-anchor="middle" font-family="Segoe UI, Arial, sans-serif" font-size="11" fill="#334653">R17</text>
<rect x="614.2" y="362.6" width="16" height="16" fill="#7b559c" stroke="#ffffff" stroke-width="2"/>
<text x="622.2" y="520" text-anchor="middle" font-family="Segoe UI, Arial, sans-serif" font-size="11" fill="#334653">R18</text>
<rect x="657.8" y="403.7" width="16" height="16" fill="#7b559c" stroke="#ffffff" stroke-width="2"/>
<text x="665.8" y="520" text-anchor="middle" font-family="Segoe UI, Arial, sans-serif" font-size="11" fill="#334653">R19</text>
<rect x="701.5" y="405.3" width="16" height="16" fill="#7b559c" stroke="#ffffff" stroke-width="2"/>
<text x="709.5" y="520" text-anchor="middle" font-family="Segoe UI, Arial, sans-serif" font-size="11" fill="#334653">R20</text>
<rect x="745.2" y="443.9" width="16" height="16" fill="#7b559c" stroke="#ffffff" stroke-width="2"/>
<text x="753.2" y="520" text-anchor="middle" font-family="Segoe UI, Arial, sans-serif" font-size="11" fill="#334653">R21</text>
<rect x="788.8" y="401.0" width="16" height="16" fill="#7b559c" stroke="#ffffff" stroke-width="2"/>
<text x="796.8" y="520" text-anchor="middle" font-family="Segoe UI, Arial, sans-serif" font-size="11" fill="#334653">R22</text>
<rect x="832.5" y="389.6" width="16" height="16" fill="#7b559c" stroke="#ffffff" stroke-width="2"/>
<text x="840.5" y="520" text-anchor="middle" font-family="Segoe UI, Arial, sans-serif" font-size="11" fill="#334653">R23</text>
<rect x="876.2" y="424.7" width="16" height="16" fill="#7b559c" stroke="#ffffff" stroke-width="2"/>
<text x="884.2" y="520" text-anchor="middle" font-family="Segoe UI, Arial, sans-serif" font-size="11" fill="#334653">R24</text>
<rect x="919.8" y="395.2" width="16" height="16" fill="#7b559c" stroke="#ffffff" stroke-width="2"/>
<text x="927.8" y="520" text-anchor="middle" font-family="Segoe UI, Arial, sans-serif" font-size="11" fill="#334653">R25</text>
<rect x="963.5" y="405.1" width="16" height="16" fill="#7b559c" stroke="#ffffff" stroke-width="2"/>
<text x="971.5" y="520" text-anchor="middle" font-family="Segoe UI, Arial, sans-serif" font-size="11" fill="#334653">R26</text>
<rect x="1007.2" y="441.6" width="16" height="16" fill="#7b559c" stroke="#ffffff" stroke-width="2"/>
<text x="1015.2" y="520" text-anchor="middle" font-family="Segoe UI, Arial, sans-serif" font-size="11" fill="#334653">R27</text>
<rect x="1050.8" y="382.5" width="16" height="16" fill="#7b559c" stroke="#ffffff" stroke-width="2"/>
<text x="1058.8" y="520" text-anchor="middle" font-family="Segoe UI, Arial, sans-serif" font-size="11" fill="#334653">R28</text>
<rect x="1094.5" y="369.4" width="16" height="16" fill="#7b559c" stroke="#ffffff" stroke-width="2"/>
<text x="1102.5" y="520" text-anchor="middle" font-family="Segoe UI, Arial, sans-serif" font-size="11" fill="#334653">R29</text>
<rect x="1138.2" y="94.4" width="16" height="16" fill="#7b559c" stroke="#ffffff" stroke-width="2"/>
<text x="1146.2" y="520" text-anchor="middle" font-family="Segoe UI, Arial, sans-serif" font-size="11" fill="#334653">R30</text>
<rect x="1181.8" y="337.3" width="16" height="16" fill="#7b559c" stroke="#ffffff" stroke-width="2"/>
<text x="1189.8" y="520" text-anchor="middle" font-family="Segoe UI, Arial, sans-serif" font-size="11" fill="#334653">R31</text>
<rect x="1225.5" y="413.1" width="16" height="16" fill="#7b559c" stroke="#ffffff" stroke-width="2"/>
<text x="1233.5" y="520" text-anchor="middle" font-family="Segoe UI, Arial, sans-serif" font-size="11" fill="#334653">R32</text>
<rect x="1269.2" y="454.7" width="16" height="16" fill="#7b559c" stroke="#ffffff" stroke-width="2"/>
<text x="1277.2" y="520" text-anchor="middle" font-family="Segoe UI, Arial, sans-serif" font-size="11" fill="#334653">R33</text>
<rect x="1312.8" y="413.1" width="16" height="16" fill="#7b559c" stroke="#ffffff" stroke-width="2"/>
<text x="1320.8" y="520" text-anchor="middle" font-family="Segoe UI, Arial, sans-serif" font-size="11" fill="#334653">R34</text>
<rect x="1356.5" y="180.5" width="16" height="16" fill="#7b559c" stroke="#ffffff" stroke-width="2"/>
<text x="1364.5" y="520" text-anchor="middle" font-family="Segoe UI, Arial, sans-serif" font-size="11" fill="#334653">R35</text>
<rect x="1400.2" y="397.7" width="16" height="16" fill="#7b559c" stroke="#ffffff" stroke-width="2"/>
<text x="1408.2" y="520" text-anchor="middle" font-family="Segoe UI, Arial, sans-serif" font-size="11" fill="#334653">R36</text>
<polyline points="141.8,356.8 185.5,443.4" fill="none" stroke="#287f9e" stroke-width="4"/>
<text x="42" y="323" transform="rotate(-90 42 323)" text-anchor="middle" font-family="Segoe UI, Arial, sans-serif" font-size="13" fill="#51606d">After-cost basis points</text>
<text x="56" y="574" font-family="Segoe UI, Arial, sans-serif" font-size="13" fill="#65727d">R denotes research round. Windows and units differ by round. This is evidence lineage, not a continuous equity curve or portfolio return series.</text>
</svg>
