<svg xmlns="http://www.w3.org/2000/svg" width="1120" height="620" viewBox="0 0 1120 620">
<rect width="100%" height="100%" fill="#f7f9fb"/>
<text x="52" y="54" font-family="Segoe UI, Arial, sans-serif" font-size="26" font-weight="700" fill="#18242f">After-cost research progress</text>
<text x="52" y="82" font-family="Segoe UI, Arial, sans-serif" font-size="14" fill="#51606d">Mean net return is plotted only for rounds with executable trades; abstaining rounds are marked.</text>
<rect x="100" y="120" width="930" height="380" fill="#ffffff" stroke="#d8e0e7"/>
<line x1="100" y1="405.0" x2="1030" y2="405.0" stroke="#e5ebf0" stroke-width="1"/>
<text x="86" y="410.0" text-anchor="end" font-family="Segoe UI, Arial, sans-serif" font-size="12" fill="#60717f">-10</text>
<line x1="100" y1="286.2" x2="1030" y2="286.2" stroke="#e5ebf0" stroke-width="1"/>
<text x="86" y="291.2" text-anchor="end" font-family="Segoe UI, Arial, sans-serif" font-size="12" fill="#60717f">-5</text>
<line x1="100" y1="167.5" x2="1030" y2="167.5" stroke="#526674" stroke-width="2"/>
<text x="86" y="172.5" text-anchor="end" font-family="Segoe UI, Arial, sans-serif" font-size="12" fill="#60717f">0</text>
<line x1="681.2" y1="155" x2="681.2" y2="465" stroke="#a7b2bb" stroke-width="2" stroke-dasharray="5 6"/>
<rect x="674.2" y="303.0" width="14" height="14" fill="#ffffff" stroke="#60717f" stroke-width="2" transform="rotate(45 681.2 310.0)"/>
<text x="681.2" y="286.0" text-anchor="middle" font-family="Segoe UI, Arial, sans-serif" font-size="13" font-weight="700" fill="#263744">No executable trades</text>
<line x1="913.8" y1="155" x2="913.8" y2="465" stroke="#a7b2bb" stroke-width="2" stroke-dasharray="5 6"/>
<rect x="906.8" y="303.0" width="14" height="14" fill="#ffffff" stroke="#60717f" stroke-width="2" transform="rotate(45 913.8 310.0)"/>
<text x="913.8" y="286.0" text-anchor="middle" font-family="Segoe UI, Arial, sans-serif" font-size="13" font-weight="700" fill="#263744">No executable trades</text>
<polyline points="216.2,348.9 448.8,448.7" fill="none" stroke="#287f9e" stroke-width="4"/>
<circle cx="216.2" cy="348.9" r="8" fill="#b44b4b" stroke="#ffffff" stroke-width="3"/>
<text x="216.2" y="332.9" text-anchor="middle" font-family="Segoe UI, Arial, sans-serif" font-size="13" font-weight="700" fill="#263744">-7.64 bps</text>
<circle cx="448.8" cy="448.7" r="8" fill="#b44b4b" stroke="#ffffff" stroke-width="3"/>
<text x="448.8" y="432.7" text-anchor="middle" font-family="Segoe UI, Arial, sans-serif" font-size="13" font-weight="700" fill="#263744">-11.84 bps</text>
<text x="216.2" y="530" text-anchor="middle" font-family="Segoe UI, Arial, sans-serif" font-size="13" fill="#334653">Round 7</text>
<text x="448.8" y="530" text-anchor="middle" font-family="Segoe UI, Arial, sans-serif" font-size="13" fill="#334653">Round 8</text>
<text x="681.2" y="530" text-anchor="middle" font-family="Segoe UI, Arial, sans-serif" font-size="13" fill="#334653">Round 9</text>
<text x="913.8" y="530" text-anchor="middle" font-family="Segoe UI, Arial, sans-serif" font-size="13" fill="#334653">Round 10</text>
<text x="42" y="310" transform="rotate(-90 42 310)" text-anchor="middle" font-family="Segoe UI, Arial, sans-serif" font-size="13" fill="#51606d">Mean net basis points per trade</text>
</svg>
