<svg xmlns="http://www.w3.org/2000/svg" width="1500" height="620" viewBox="0 0 1500 620" role="img" aria-labelledby="title desc">
<title id="title">After-cost evidence by research round</title>
<desc id="desc">Executed means, overlapping-forecast diagnostics, and rounds with no executable series use distinct markers. Rounds 15 through 23 produced no evaluation trades.</desc>
<rect width="100%" height="100%" fill="#ffffff"/>
<text x="56" y="54" font-family="Segoe UI, Arial, sans-serif" font-size="28" font-weight="700" fill="#17212b">After-cost evidence by research round</text>
<text x="56" y="84" font-family="Segoe UI, Arial, sans-serif" font-size="15" fill="#52606d">Distinct markers prevent diagnostics or abstention from being presented as an executed trade mean.</text>
<circle cx="900" cy="55" r="7" fill="#b42318"/><text x="917" y="60" font-family="Segoe UI, Arial, sans-serif" font-size="12" fill="#52606d">executed mean</text>
<rect x="1052" y="48" width="14" height="14" fill="#ffffff" stroke="#60717f" stroke-width="2" transform="rotate(45 1059 55)"/><text x="1076" y="60" font-family="Segoe UI, Arial, sans-serif" font-size="12" fill="#52606d">no executable series</text>
<rect x="1277" y="48" width="14" height="14" fill="#7b559c"/><text x="1301" y="60" font-family="Segoe UI, Arial, sans-serif" font-size="12" fill="#52606d">overlap diagnostic</text>
<rect x="120" y="158" width="1310" height="330" fill="#ffffff" stroke="#d8e0e7"/>
<line x1="120" y1="488.0" x2="1430" y2="488.0" stroke="#e5ebf0" stroke-width="1"/>
<text x="106" y="493.0" text-anchor="end" font-family="Segoe UI, Arial, sans-serif" font-size="12" fill="#60717f">-14</text>
<line x1="120" y1="405.5" x2="1430" y2="405.5" stroke="#e5ebf0" stroke-width="1"/>
<text x="106" y="410.5" text-anchor="end" font-family="Segoe UI, Arial, sans-serif" font-size="12" fill="#60717f">-10</text>
<line x1="120" y1="302.4" x2="1430" y2="302.4" stroke="#e5ebf0" stroke-width="1"/>
<text x="106" y="307.4" text-anchor="end" font-family="Segoe UI, Arial, sans-serif" font-size="12" fill="#60717f">-5</text>
<line x1="120" y1="199.2" x2="1430" y2="199.2" stroke="#526674" stroke-width="2"/>
<text x="106" y="204.2" text-anchor="end" font-family="Segoe UI, Arial, sans-serif" font-size="12" fill="#60717f">0</text>
<circle cx="158.5" cy="356.8" r="8" fill="#b42318" stroke="#ffffff" stroke-width="3"/>
<text x="158.5" y="340.8" text-anchor="middle" font-family="Segoe UI, Arial, sans-serif" font-size="12" font-weight="700" fill="#263744">-7.64</text>
<text x="158.5" y="520" text-anchor="middle" font-family="Segoe UI, Arial, sans-serif" font-size="13" fill="#334653">Round 7</text>
<circle cx="235.6" cy="443.4" r="8" fill="#b42318" stroke="#ffffff" stroke-width="3"/>
<text x="235.6" y="427.4" text-anchor="middle" font-family="Segoe UI, Arial, sans-serif" font-size="12" font-weight="700" fill="#263744">-11.84</text>
<text x="235.6" y="520" text-anchor="middle" font-family="Segoe UI, Arial, sans-serif" font-size="13" fill="#334653">Round 8</text>
<rect x="305.6" y="316.0" width="14" height="14" fill="#ffffff" stroke="#60717f" stroke-width="2" transform="rotate(45 312.6 323.0)"/>
<text x="312.6" y="520" text-anchor="middle" font-family="Segoe UI, Arial, sans-serif" font-size="13" fill="#334653">Round 9</text>
<rect x="382.7" y="316.0" width="14" height="14" fill="#ffffff" stroke="#60717f" stroke-width="2" transform="rotate(45 389.7 323.0)"/>
<text x="389.7" y="520" text-anchor="middle" font-family="Segoe UI, Arial, sans-serif" font-size="13" fill="#334653">Round 10</text>
<rect x="459.8" y="316.0" width="14" height="14" fill="#ffffff" stroke="#60717f" stroke-width="2" transform="rotate(45 466.8 323.0)"/>
<text x="466.8" y="520" text-anchor="middle" font-family="Segoe UI, Arial, sans-serif" font-size="13" fill="#334653">Round 11</text>
<rect x="536.8" y="316.0" width="14" height="14" fill="#ffffff" stroke="#60717f" stroke-width="2" transform="rotate(45 543.8 323.0)"/>
<text x="543.8" y="520" text-anchor="middle" font-family="Segoe UI, Arial, sans-serif" font-size="13" fill="#334653">Round 12</text>
<rect x="612.9" y="327.5" width="16" height="16" fill="#7b559c" stroke="#ffffff" stroke-width="2"/>
<text x="620.9" y="520" text-anchor="middle" font-family="Segoe UI, Arial, sans-serif" font-size="13" fill="#334653">Round 13</text>
<rect x="689.9" y="324.4" width="16" height="16" fill="#7b559c" stroke="#ffffff" stroke-width="2"/>
<text x="697.9" y="520" text-anchor="middle" font-family="Segoe UI, Arial, sans-serif" font-size="13" fill="#334653">Round 14</text>
<rect x="768.0" y="316.0" width="14" height="14" fill="#ffffff" stroke="#60717f" stroke-width="2" transform="rotate(45 775.0 323.0)"/>
<text x="775.0" y="520" text-anchor="middle" font-family="Segoe UI, Arial, sans-serif" font-size="13" fill="#334653">Round 15</text>
<rect x="844.1" y="450.9" width="16" height="16" fill="#7b559c" stroke="#ffffff" stroke-width="2"/>
<text x="852.1" y="520" text-anchor="middle" font-family="Segoe UI, Arial, sans-serif" font-size="13" fill="#334653">Round 16</text>
<rect x="921.1" y="406.6" width="16" height="16" fill="#7b559c" stroke="#ffffff" stroke-width="2"/>
<text x="929.1" y="520" text-anchor="middle" font-family="Segoe UI, Arial, sans-serif" font-size="13" fill="#334653">Round 17</text>
<rect x="998.2" y="362.6" width="16" height="16" fill="#7b559c" stroke="#ffffff" stroke-width="2"/>
<text x="1006.2" y="520" text-anchor="middle" font-family="Segoe UI, Arial, sans-serif" font-size="13" fill="#334653">Round 18</text>
<rect x="1075.2" y="403.7" width="16" height="16" fill="#7b559c" stroke="#ffffff" stroke-width="2"/>
<text x="1083.2" y="520" text-anchor="middle" font-family="Segoe UI, Arial, sans-serif" font-size="13" fill="#334653">Round 19</text>
<rect x="1152.3" y="405.3" width="16" height="16" fill="#7b559c" stroke="#ffffff" stroke-width="2"/>
<text x="1160.3" y="520" text-anchor="middle" font-family="Segoe UI, Arial, sans-serif" font-size="13" fill="#334653">Round 20</text>
<rect x="1229.4" y="443.9" width="16" height="16" fill="#7b559c" stroke="#ffffff" stroke-width="2"/>
<text x="1237.4" y="520" text-anchor="middle" font-family="Segoe UI, Arial, sans-serif" font-size="13" fill="#334653">Round 21</text>
<rect x="1306.4" y="401.0" width="16" height="16" fill="#7b559c" stroke="#ffffff" stroke-width="2"/>
<text x="1314.4" y="520" text-anchor="middle" font-family="Segoe UI, Arial, sans-serif" font-size="13" fill="#334653">Round 22</text>
<rect x="1383.5" y="389.6" width="16" height="16" fill="#7b559c" stroke="#ffffff" stroke-width="2"/>
<text x="1391.5" y="520" text-anchor="middle" font-family="Segoe UI, Arial, sans-serif" font-size="13" fill="#334653">Round 23</text>
<polyline points="158.5,356.8 235.6,443.4" fill="none" stroke="#287f9e" stroke-width="4"/>
<text x="42" y="323" transform="rotate(-90 42 323)" text-anchor="middle" font-family="Segoe UI, Arial, sans-serif" font-size="13" fill="#51606d">After-cost basis points</text>
<text x="56" y="574" font-family="Segoe UI, Arial, sans-serif" font-size="13" fill="#65727d">Windows and units differ by round. This is evidence lineage, not a continuous equity curve or portfolio return series.</text>
</svg>
