<svg xmlns="http://www.w3.org/2000/svg" width="1500" height="660" viewBox="0 0 1500 660" role="img" aria-labelledby="title desc">
<title id="title">After-cost evidence by research round</title>
<desc id="desc">Heterogeneous simulations, overlap diagnostics, and rounds without a trade series use separate marks.</desc>
<rect width="100%" height="100%" fill="#ffffff"/>
<style>text{font-family:"Segoe UI",Arial,sans-serif;letter-spacing:0}.title{font-size:27px;font-weight:700;fill:#17212b}.subtitle{font-size:14px;fill:#52606d}.label{font-size:13px;fill:#263746}.axis{font-size:12px;fill:#60717f}.value{font-size:12px;font-weight:650;fill:#263746}.note{font-size:12px;fill:#65727d}.grid{stroke:#e1e8ed;stroke-width:1}.zero{stroke:#526674;stroke-width:2;stroke-dasharray:6 5}</style>
<text x="56" y="52" class="title">After-cost evidence by research round</text>
<text x="56" y="80" class="subtitle">Heterogeneous simulations, overlap diagnostics, and rounds without a trade series use separate marks.</text>
<circle cx="870" cy="52" r="7" fill="#b42318"/><text x="887" y="57" class="note">simulated-trade mean</text>
<rect x="1050" y="45" width="14" height="14" fill="#7b559c"/><text x="1074" y="57" class="note">overlap diagnostic</text>
<rect x="1250" y="45" width="14" height="14" fill="#ffffff" stroke="#60717f" stroke-width="2" transform="rotate(45 1257 52)"/><text x="1276" y="57" class="note">no trade series</text>
<rect x="120" y="150" width="1310" height="330" fill="#ffffff" stroke="#d8e0e7"/>
<line x1="120" y1="480.0" x2="1430" y2="480.0" class="grid"/>
<text x="106" y="484.0" text-anchor="end" class="axis">-14.3</text>
<line x1="120" y1="389.1" x2="1430" y2="389.1" class="zero"/>
<text x="106" y="393.1" text-anchor="end" class="axis">+0.0</text>
<line x1="120" y1="315.0" x2="1430" y2="315.0" class="grid"/>
<text x="106" y="319.0" text-anchor="end" class="axis">+11.6</text>
<line x1="120" y1="150.0" x2="1430" y2="150.0" class="grid"/>
<text x="106" y="154.0" text-anchor="end" class="axis">+37.6</text>
<text x="104" y="556" text-anchor="end" class="axis">no series</text>
<circle cx="138.2" cy="437.8" r="8" fill="#b42318" stroke="#ffffff" stroke-width="2"/>
<text x="138.2" y="422.8" text-anchor="middle" class="value">-7.64</text>
<text x="138.2" y="589" text-anchor="middle" class="axis">R7</text>
<circle cx="174.6" cy="464.5" r="8" fill="#b42318" stroke="#ffffff" stroke-width="2"/>
<text x="174.6" y="449.5" text-anchor="middle" class="value">-11.84</text>
<text x="174.6" y="589" text-anchor="middle" class="axis">R8</text>
<rect x="204.0" y="545.0" width="14" height="14" fill="#ffffff" stroke="#60717f" stroke-width="2" transform="rotate(45 211.0 552.0)"/>
<text x="211.0" y="589" text-anchor="middle" class="axis">R9</text>
<rect x="240.4" y="545.0" width="14" height="14" fill="#ffffff" stroke="#60717f" stroke-width="2" transform="rotate(45 247.4 552.0)"/>
<text x="247.4" y="589" text-anchor="middle" class="axis">R10</text>
<rect x="276.8" y="545.0" width="14" height="14" fill="#ffffff" stroke="#60717f" stroke-width="2" transform="rotate(45 283.8 552.0)"/>
<text x="283.8" y="589" text-anchor="middle" class="axis">R11</text>
<rect x="313.1" y="545.0" width="14" height="14" fill="#ffffff" stroke="#60717f" stroke-width="2" transform="rotate(45 320.1 552.0)"/>
<text x="320.1" y="589" text-anchor="middle" class="axis">R12</text>
<rect x="349.5" y="424.2" width="14" height="14" fill="#7b559c"/>
<text x="356.5" y="589" text-anchor="middle" class="axis">R13</text>
<rect x="385.9" y="423.2" width="14" height="14" fill="#7b559c"/>
<text x="392.9" y="589" text-anchor="middle" class="axis">R14</text>
<rect x="422.3" y="545.0" width="14" height="14" fill="#ffffff" stroke="#60717f" stroke-width="2" transform="rotate(45 429.3 552.0)"/>
<text x="429.3" y="589" text-anchor="middle" class="axis">R15</text>
<rect x="458.7" y="462.3" width="14" height="14" fill="#7b559c"/>
<text x="465.7" y="589" text-anchor="middle" class="axis">R16</text>
<rect x="495.1" y="448.6" width="14" height="14" fill="#7b559c"/>
<text x="502.1" y="589" text-anchor="middle" class="axis">R17</text>
<rect x="531.5" y="435.0" width="14" height="14" fill="#7b559c"/>
<text x="538.5" y="589" text-anchor="middle" class="axis">R18</text>
<rect x="567.9" y="447.7" width="14" height="14" fill="#7b559c"/>
<text x="574.9" y="589" text-anchor="middle" class="axis">R19</text>
<rect x="604.2" y="448.2" width="14" height="14" fill="#7b559c"/>
<text x="611.2" y="589" text-anchor="middle" class="axis">R20</text>
<rect x="640.6" y="460.1" width="14" height="14" fill="#7b559c"/>
<text x="647.6" y="589" text-anchor="middle" class="axis">R21</text>
<rect x="677.0" y="446.9" width="14" height="14" fill="#7b559c"/>
<text x="684.0" y="589" text-anchor="middle" class="axis">R22</text>
<rect x="713.4" y="443.3" width="14" height="14" fill="#7b559c"/>
<text x="720.4" y="589" text-anchor="middle" class="axis">R23</text>
<rect x="749.8" y="454.2" width="14" height="14" fill="#7b559c"/>
<text x="756.8" y="589" text-anchor="middle" class="axis">R24</text>
<rect x="786.2" y="445.1" width="14" height="14" fill="#7b559c"/>
<text x="793.2" y="589" text-anchor="middle" class="axis">R25</text>
<rect x="822.6" y="448.1" width="14" height="14" fill="#7b559c"/>
<text x="829.6" y="589" text-anchor="middle" class="axis">R26</text>
<rect x="859.0" y="459.4" width="14" height="14" fill="#7b559c"/>
<text x="866.0" y="589" text-anchor="middle" class="axis">R27</text>
<rect x="895.4" y="441.2" width="14" height="14" fill="#7b559c"/>
<text x="902.4" y="589" text-anchor="middle" class="axis">R28</text>
<rect x="931.8" y="437.1" width="14" height="14" fill="#7b559c"/>
<text x="938.8" y="589" text-anchor="middle" class="axis">R29</text>
<rect x="968.1" y="352.2" width="14" height="14" fill="#7b559c"/>
<text x="975.1" y="589" text-anchor="middle" class="axis">R30</text>
<rect x="1004.5" y="427.2" width="14" height="14" fill="#7b559c"/>
<text x="1011.5" y="589" text-anchor="middle" class="axis">R31</text>
<rect x="1040.9" y="450.6" width="14" height="14" fill="#7b559c"/>
<text x="1047.9" y="589" text-anchor="middle" class="axis">R32</text>
<rect x="1077.3" y="463.5" width="14" height="14" fill="#7b559c"/>
<text x="1084.3" y="589" text-anchor="middle" class="axis">R33</text>
<rect x="1113.7" y="450.6" width="14" height="14" fill="#7b559c"/>
<text x="1120.7" y="589" text-anchor="middle" class="axis">R34</text>
<rect x="1150.1" y="378.8" width="14" height="14" fill="#7b559c"/>
<text x="1157.1" y="589" text-anchor="middle" class="axis">R35</text>
<rect x="1186.5" y="445.8" width="14" height="14" fill="#7b559c"/>
<text x="1193.5" y="589" text-anchor="middle" class="axis">R36</text>
<rect x="1222.9" y="545.0" width="14" height="14" fill="#ffffff" stroke="#60717f" stroke-width="2" transform="rotate(45 1229.9 552.0)"/>
<text x="1229.9" y="589" text-anchor="middle" class="axis">R37</text>
<circle cx="1266.2" cy="414.5" r="8" fill="#b42318" stroke="#ffffff" stroke-width="2"/>
<text x="1266.2" y="399.5" text-anchor="middle" class="value">-3.99</text>
<text x="1266.2" y="589" text-anchor="middle" class="axis">R38</text>
<circle cx="1302.6" cy="452.2" r="8" fill="#b42318" stroke="#ffffff" stroke-width="2"/>
<text x="1302.6" y="437.2" text-anchor="middle" class="value">-9.91</text>
<text x="1302.6" y="589" text-anchor="middle" class="axis">R39</text>
<circle cx="1339.0" cy="159.5" r="8" fill="#b42318" stroke="#ffffff" stroke-width="2"/>
<text x="1339.0" y="144.5" text-anchor="middle" class="value">+36.06</text>
<text x="1339.0" y="589" text-anchor="middle" class="axis">R40</text>
<circle cx="1375.4" cy="393.4" r="8" fill="#b42318" stroke="#ffffff" stroke-width="2"/>
<text x="1375.4" y="378.4" text-anchor="middle" class="value">-0.68</text>
<text x="1375.4" y="589" text-anchor="middle" class="axis">R41</text>
<rect x="1404.8" y="545.0" width="14" height="14" fill="#ffffff" stroke="#60717f" stroke-width="2" transform="rotate(45 1411.8 552.0)"/>
<text x="1411.8" y="589" text-anchor="middle" class="axis">R42</text>
<text x="56" y="632" class="note">Windows and units differ by round. This is evidence lineage, not an equity curve or portfolio return series.</text>
</svg>
