<svg xmlns="http://www.w3.org/2000/svg" width="1200" height="700" viewBox="0 0 1200 700" role="img">
<title>Action-value research progression</title>
<desc>Recorded directional rank statistics only; Rounds 58-61 add no forecast statistic</desc>
<rect width="1200" height="700" fill="#0b1220"/>
<text x="64" y="58" fill="#f8fafc" font-family="Segoe UI,Arial,sans-serif" font-size="28" font-weight="700">Action-value research progression</text>
<text x="64" y="88" fill="#cbd5e1" font-family="Segoe UI,Arial,sans-serif" font-size="15">Recorded directional rank statistics only; Rounds 58-61 add no forecast statistic</text>
<line x1="105" y1="580.0" x2="1145" y2="580.0" stroke="#334155"/>
<text x="91" y="585.0" text-anchor="end" fill="#cbd5e1" font-family="Segoe UI,Arial,sans-serif" font-size="13">-5.4</text>
<line x1="105" y1="491.0" x2="1145" y2="491.0" stroke="#334155"/>
<text x="91" y="496.0" text-anchor="end" fill="#cbd5e1" font-family="Segoe UI,Arial,sans-serif" font-size="13">-1.0</text>
<line x1="105" y1="402.0" x2="1145" y2="402.0" stroke="#334155"/>
<text x="91" y="407.0" text-anchor="end" fill="#cbd5e1" font-family="Segoe UI,Arial,sans-serif" font-size="13">3.3</text>
<line x1="105" y1="313.0" x2="1145" y2="313.0" stroke="#334155"/>
<text x="91" y="318.0" text-anchor="end" fill="#cbd5e1" font-family="Segoe UI,Arial,sans-serif" font-size="13">7.7</text>
<line x1="105" y1="224.0" x2="1145" y2="224.0" stroke="#334155"/>
<text x="91" y="229.0" text-anchor="end" fill="#cbd5e1" font-family="Segoe UI,Arial,sans-serif" font-size="13">12.0</text>
<line x1="105" y1="135.0" x2="1145" y2="135.0" stroke="#334155"/>
<text x="91" y="140.0" text-anchor="end" fill="#cbd5e1" font-family="Segoe UI,Arial,sans-serif" font-size="13">16.3</text>
<path d="M 105.0 500.6 L 122.3 250.0 L 139.7 249.9 L 157.0 249.9 L 174.3 210.8 L 191.7 210.8 L 209.0 210.8 L 226.3 271.4 L 313.0 242.9 L 330.3 256.2 L 347.7 289.2 L 642.3 495.8 L 659.7 536.9 L 677.0 495.8 L 711.7 178.1 L 729.0 380.3 L 833.0 403.8 L 850.3 367.3 L 867.7 405.2 L 885.0 378.9 L 902.3 378.3 L 919.7 414.8 L 937.0 460.6 L 954.3 482.5 L 971.7 383.9 L 989.0 402.7 L 1006.3 364.1 L 1023.7 379.2 L 1041.0 238.4 L 1058.3 430.4 L 1075.7 433.0" fill="none" stroke="#14b8a6" stroke-width="3" stroke-linejoin="round"/>
<circle cx="105.0" cy="500.6" r="4" fill="#14b8a6"/>
<circle cx="122.3" cy="250.0" r="4" fill="#14b8a6"/>
<circle cx="139.7" cy="249.9" r="4" fill="#14b8a6"/>
<circle cx="157.0" cy="249.9" r="4" fill="#14b8a6"/>
<circle cx="174.3" cy="210.8" r="4" fill="#14b8a6"/>
<circle cx="191.7" cy="210.8" r="4" fill="#14b8a6"/>
<circle cx="209.0" cy="210.8" r="4" fill="#14b8a6"/>
<circle cx="226.3" cy="271.4" r="4" fill="#14b8a6"/>
<circle cx="313.0" cy="242.9" r="4" fill="#14b8a6"/>
<circle cx="330.3" cy="256.2" r="4" fill="#14b8a6"/>
<circle cx="347.7" cy="289.2" r="4" fill="#14b8a6"/>
<circle cx="642.3" cy="495.8" r="4" fill="#14b8a6"/>
<circle cx="659.7" cy="536.9" r="4" fill="#14b8a6"/>
<circle cx="677.0" cy="495.8" r="4" fill="#14b8a6"/>
<circle cx="711.7" cy="178.1" r="4" fill="#14b8a6"/>
<circle cx="729.0" cy="380.3" r="4" fill="#14b8a6"/>
<circle cx="833.0" cy="403.8" r="4" fill="#14b8a6"/>
<circle cx="850.3" cy="367.3" r="4" fill="#14b8a6"/>
<circle cx="867.7" cy="405.2" r="4" fill="#14b8a6"/>
<circle cx="885.0" cy="378.9" r="4" fill="#14b8a6"/>
<circle cx="902.3" cy="378.3" r="4" fill="#14b8a6"/>
<circle cx="919.7" cy="414.8" r="4" fill="#14b8a6"/>
<circle cx="937.0" cy="460.6" r="4" fill="#14b8a6"/>
<circle cx="954.3" cy="482.5" r="4" fill="#14b8a6"/>
<circle cx="971.7" cy="383.9" r="4" fill="#14b8a6"/>
<circle cx="989.0" cy="402.7" r="4" fill="#14b8a6"/>
<circle cx="1006.3" cy="364.1" r="4" fill="#14b8a6"/>
<circle cx="1023.7" cy="379.2" r="4" fill="#14b8a6"/>
<circle cx="1041.0" cy="238.4" r="4" fill="#14b8a6"/>
<circle cx="1058.3" cy="430.4" r="4" fill="#14b8a6"/>
<circle cx="1075.7" cy="433.0" r="4" fill="#14b8a6"/>
<text x="105.0" y="614" text-anchor="middle" fill="#cbd5e1" font-family="Segoe UI,Arial,sans-serif" font-size="12">1</text>
<text x="261.0" y="614" text-anchor="middle" fill="#cbd5e1" font-family="Segoe UI,Arial,sans-serif" font-size="12">10</text>
<text x="434.3" y="614" text-anchor="middle" fill="#cbd5e1" font-family="Segoe UI,Arial,sans-serif" font-size="12">20</text>
<text x="607.7" y="614" text-anchor="middle" fill="#cbd5e1" font-family="Segoe UI,Arial,sans-serif" font-size="12">30</text>
<text x="781.0" y="614" text-anchor="middle" fill="#cbd5e1" font-family="Segoe UI,Arial,sans-serif" font-size="12">40</text>
<text x="954.3" y="614" text-anchor="middle" fill="#cbd5e1" font-family="Segoe UI,Arial,sans-serif" font-size="12">50</text>
<text x="1145.0" y="614" text-anchor="middle" fill="#cbd5e1" font-family="Segoe UI,Arial,sans-serif" font-size="12">61</text>
<line x1="1145.0" y1="135" x2="1145.0" y2="580" stroke="#f59e0b" stroke-width="2" stroke-dasharray="6 6"/>
<text x="1137.0" y="155" text-anchor="end" fill="#f59e0b" font-family="Segoe UI,Arial,sans-serif" font-size="13">Latest evidence</text>
<rect x="105" y="657" width="16" height="4" fill="#14b8a6"/>
<text x="129" y="665" fill="#cbd5e1" font-family="Segoe UI,Arial,sans-serif" font-size="13">Recorded Spearman</text>
<text transform="translate(25 357.5) rotate(-90)" text-anchor="middle" fill="#cbd5e1" font-family="Segoe UI,Arial,sans-serif" font-size="14">Recorded Spearman x 100</text>
</svg>
