<svg xmlns="http://www.w3.org/2000/svg" width="1500" height="660" viewBox="0 0 1500 660" role="img" aria-labelledby="title desc">
<title id="title">After-cost evidence by research round</title>
<desc id="desc">Heterogeneous simulations, overlap diagnostics, and rounds without a trade series use separate marks.</desc>
<rect width="100%" height="100%" fill="#ffffff"/>
<style>text{font-family:"Segoe UI",Arial,sans-serif;letter-spacing:0}.title{font-size:27px;font-weight:700;fill:#17212b}.subtitle{font-size:14px;fill:#52606d}.label{font-size:13px;fill:#263746}.axis{font-size:12px;fill:#60717f}.value{font-size:12px;font-weight:650;fill:#263746}.note{font-size:12px;fill:#65727d}.grid{stroke:#e1e8ed;stroke-width:1}.zero{stroke:#526674;stroke-width:2;stroke-dasharray:6 5}</style>
<text x="56" y="52" class="title">After-cost evidence by research round</text>
<text x="56" y="80" class="subtitle">Heterogeneous simulations, overlap diagnostics, and rounds without a trade series use separate marks.</text>
<circle cx="870" cy="52" r="7" fill="#b42318"/><text x="887" y="57" class="note">simulated-trade mean</text>
<rect x="1050" y="45" width="14" height="14" fill="#7b559c"/><text x="1074" y="57" class="note">overlap diagnostic</text>
<rect x="1250" y="45" width="14" height="14" fill="#ffffff" stroke="#60717f" stroke-width="2" transform="rotate(45 1257 52)"/><text x="1276" y="57" class="note">no trade series</text>
<rect x="120" y="150" width="1310" height="330" fill="#ffffff" stroke="#d8e0e7"/>
<line x1="120" y1="480.0" x2="1430" y2="480.0" class="grid"/>
<text x="106" y="484.0" text-anchor="end" class="axis">-14.3</text>
<line x1="120" y1="389.1" x2="1430" y2="389.1" class="zero"/>
<text x="106" y="393.1" text-anchor="end" class="axis">+0.0</text>
<line x1="120" y1="315.0" x2="1430" y2="315.0" class="grid"/>
<text x="106" y="319.0" text-anchor="end" class="axis">+11.6</text>
<line x1="120" y1="150.0" x2="1430" y2="150.0" class="grid"/>
<text x="106" y="154.0" text-anchor="end" class="axis">+37.6</text>
<text x="104" y="556" text-anchor="end" class="axis">no series</text>
<circle cx="136.4" cy="437.8" r="8" fill="#b42318" stroke="#ffffff" stroke-width="2"/>
<text x="136.4" y="422.8" text-anchor="middle" class="value">-7.64</text>
<text x="136.4" y="589" text-anchor="middle" class="axis">R7</text>
<circle cx="169.1" cy="464.5" r="8" fill="#b42318" stroke="#ffffff" stroke-width="2"/>
<text x="169.1" y="432.5" text-anchor="middle" class="value">-11.84</text>
<text x="169.1" y="589" text-anchor="middle" class="axis">R8</text>
<rect x="194.9" y="545.0" width="14" height="14" fill="#ffffff" stroke="#60717f" stroke-width="2" transform="rotate(45 201.9 552.0)"/>
<text x="201.9" y="589" text-anchor="middle" class="axis">R9</text>
<rect x="227.6" y="545.0" width="14" height="14" fill="#ffffff" stroke="#60717f" stroke-width="2" transform="rotate(45 234.6 552.0)"/>
<text x="234.6" y="589" text-anchor="middle" class="axis">R10</text>
<rect x="260.4" y="545.0" width="14" height="14" fill="#ffffff" stroke="#60717f" stroke-width="2" transform="rotate(45 267.4 552.0)"/>
<text x="267.4" y="589" text-anchor="middle" class="axis">R11</text>
<rect x="293.1" y="545.0" width="14" height="14" fill="#ffffff" stroke="#60717f" stroke-width="2" transform="rotate(45 300.1 552.0)"/>
<text x="300.1" y="589" text-anchor="middle" class="axis">R12</text>
<rect x="325.9" y="424.2" width="14" height="14" fill="#7b559c"/>
<text x="332.9" y="589" text-anchor="middle" class="axis">R13</text>
<rect x="358.6" y="423.2" width="14" height="14" fill="#7b559c"/>
<text x="365.6" y="589" text-anchor="middle" class="axis">R14</text>
<rect x="391.4" y="545.0" width="14" height="14" fill="#ffffff" stroke="#60717f" stroke-width="2" transform="rotate(45 398.4 552.0)"/>
<text x="398.4" y="589" text-anchor="middle" class="axis">R15</text>
<rect x="424.1" y="462.3" width="14" height="14" fill="#7b559c"/>
<text x="431.1" y="589" text-anchor="middle" class="axis">R16</text>
<rect x="456.9" y="448.6" width="14" height="14" fill="#7b559c"/>
<text x="463.9" y="589" text-anchor="middle" class="axis">R17</text>
<rect x="489.6" y="435.0" width="14" height="14" fill="#7b559c"/>
<text x="496.6" y="589" text-anchor="middle" class="axis">R18</text>
<rect x="522.4" y="447.7" width="14" height="14" fill="#7b559c"/>
<text x="529.4" y="589" text-anchor="middle" class="axis">R19</text>
<rect x="555.1" y="448.2" width="14" height="14" fill="#7b559c"/>
<text x="562.1" y="589" text-anchor="middle" class="axis">R20</text>
<rect x="587.9" y="460.1" width="14" height="14" fill="#7b559c"/>
<text x="594.9" y="589" text-anchor="middle" class="axis">R21</text>
<rect x="620.6" y="446.9" width="14" height="14" fill="#7b559c"/>
<text x="627.6" y="589" text-anchor="middle" class="axis">R22</text>
<rect x="653.4" y="443.3" width="14" height="14" fill="#7b559c"/>
<text x="660.4" y="589" text-anchor="middle" class="axis">R23</text>
<rect x="686.1" y="454.2" width="14" height="14" fill="#7b559c"/>
<text x="693.1" y="589" text-anchor="middle" class="axis">R24</text>
<rect x="718.9" y="445.1" width="14" height="14" fill="#7b559c"/>
<text x="725.9" y="589" text-anchor="middle" class="axis">R25</text>
<rect x="751.6" y="448.1" width="14" height="14" fill="#7b559c"/>
<text x="758.6" y="589" text-anchor="middle" class="axis">R26</text>
<rect x="784.4" y="459.4" width="14" height="14" fill="#7b559c"/>
<text x="791.4" y="589" text-anchor="middle" class="axis">R27</text>
<rect x="817.1" y="441.2" width="14" height="14" fill="#7b559c"/>
<text x="824.1" y="589" text-anchor="middle" class="axis">R28</text>
<rect x="849.9" y="437.1" width="14" height="14" fill="#7b559c"/>
<text x="856.9" y="589" text-anchor="middle" class="axis">R29</text>
<rect x="882.6" y="352.2" width="14" height="14" fill="#7b559c"/>
<text x="889.6" y="589" text-anchor="middle" class="axis">R30</text>
<rect x="915.4" y="427.2" width="14" height="14" fill="#7b559c"/>
<text x="922.4" y="589" text-anchor="middle" class="axis">R31</text>
<rect x="948.1" y="450.6" width="14" height="14" fill="#7b559c"/>
<text x="955.1" y="589" text-anchor="middle" class="axis">R32</text>
<rect x="980.9" y="463.5" width="14" height="14" fill="#7b559c"/>
<text x="987.9" y="589" text-anchor="middle" class="axis">R33</text>
<rect x="1013.6" y="450.6" width="14" height="14" fill="#7b559c"/>
<text x="1020.6" y="589" text-anchor="middle" class="axis">R34</text>
<rect x="1046.4" y="378.8" width="14" height="14" fill="#7b559c"/>
<text x="1053.4" y="589" text-anchor="middle" class="axis">R35</text>
<rect x="1079.1" y="445.8" width="14" height="14" fill="#7b559c"/>
<text x="1086.1" y="589" text-anchor="middle" class="axis">R36</text>
<rect x="1111.9" y="545.0" width="14" height="14" fill="#ffffff" stroke="#60717f" stroke-width="2" transform="rotate(45 1118.9 552.0)"/>
<text x="1118.9" y="589" text-anchor="middle" class="axis">R37</text>
<circle cx="1151.6" cy="414.5" r="8" fill="#b42318" stroke="#ffffff" stroke-width="2"/>
<text x="1151.6" y="382.5" text-anchor="middle" class="value">-3.99</text>
<text x="1151.6" y="589" text-anchor="middle" class="axis">R38</text>
<circle cx="1184.4" cy="452.2" r="8" fill="#b42318" stroke="#ffffff" stroke-width="2"/>
<text x="1184.4" y="437.2" text-anchor="middle" class="value">-9.91</text>
<text x="1184.4" y="589" text-anchor="middle" class="axis">R39</text>
<circle cx="1217.1" cy="159.5" r="8" fill="#b42318" stroke="#ffffff" stroke-width="2"/>
<text x="1217.1" y="127.5" text-anchor="middle" class="value">+36.06</text>
<text x="1217.1" y="589" text-anchor="middle" class="axis">R40</text>
<circle cx="1249.9" cy="393.4" r="8" fill="#b42318" stroke="#ffffff" stroke-width="2"/>
<text x="1249.9" y="378.4" text-anchor="middle" class="value">-0.68</text>
<text x="1249.9" y="589" text-anchor="middle" class="axis">R41</text>
<rect x="1275.6" y="545.0" width="14" height="14" fill="#ffffff" stroke="#60717f" stroke-width="2" transform="rotate(45 1282.6 552.0)"/>
<text x="1282.6" y="589" text-anchor="middle" class="axis">R42</text>
<circle cx="1315.4" cy="388.4" r="8" fill="#b42318" stroke="#ffffff" stroke-width="2"/>
<text x="1315.4" y="373.4" text-anchor="middle" class="value">+0.11</text>
<text x="1315.4" y="589" text-anchor="middle" class="axis">R43</text>
<circle cx="1348.1" cy="389.2" r="8" fill="#b42318" stroke="#ffffff" stroke-width="2"/>
<text x="1348.1" y="357.2" text-anchor="middle" class="value">+0.00</text>
<text x="1348.1" y="589" text-anchor="middle" class="axis">R44</text>
<circle cx="1380.9" cy="386.4" r="8" fill="#b42318" stroke="#ffffff" stroke-width="2"/>
<text x="1380.9" y="371.4" text-anchor="middle" class="value">+0.43</text>
<text x="1380.9" y="589" text-anchor="middle" class="axis">R45</text>
<circle cx="1413.6" cy="385.4" r="8" fill="#b42318" stroke="#ffffff" stroke-width="2"/>
<text x="1413.6" y="353.4" text-anchor="middle" class="value">+0.59</text>
<text x="1413.6" y="589" text-anchor="middle" class="axis">R46</text>
<text x="56" y="632" class="note">Windows and units differ by round. This is evidence lineage, not an equity curve or portfolio return series.</text>
</svg>
