<svg xmlns="http://www.w3.org/2000/svg" width="1500" height="660" viewBox="0 0 1500 660" role="img" aria-labelledby="title desc">
<title id="title">After-cost evidence by research round</title>
<desc id="desc">Heterogeneous simulations, overlap diagnostics, and rounds without a trade series use separate marks.</desc>
<rect width="100%" height="100%" fill="#ffffff"/>
<style>text{font-family:"Segoe UI",Arial,sans-serif;letter-spacing:0}.title{font-size:27px;font-weight:700;fill:#17212b}.subtitle{font-size:14px;fill:#52606d}.label{font-size:13px;fill:#263746}.axis{font-size:12px;fill:#60717f}.value{font-size:12px;font-weight:650;fill:#263746}.note{font-size:12px;fill:#65727d}.grid{stroke:#e1e8ed;stroke-width:1}.zero{stroke:#526674;stroke-width:2;stroke-dasharray:6 5}</style>
<text x="56" y="52" class="title">After-cost evidence by research round</text>
<text x="56" y="80" class="subtitle">Heterogeneous simulations, overlap diagnostics, and rounds without a trade series use separate marks.</text>
<circle cx="870" cy="52" r="7" fill="#b42318"/><text x="887" y="57" class="note">simulated-trade mean</text>
<rect x="1050" y="45" width="14" height="14" fill="#7b559c"/><text x="1074" y="57" class="note">overlap diagnostic</text>
<rect x="1250" y="45" width="14" height="14" fill="#ffffff" stroke="#60717f" stroke-width="2" transform="rotate(45 1257 52)"/><text x="1276" y="57" class="note">no trade series</text>
<rect x="120" y="150" width="1310" height="330" fill="#ffffff" stroke="#d8e0e7"/>
<line x1="120" y1="480.0" x2="1430" y2="480.0" class="grid"/>
<text x="106" y="484.0" text-anchor="end" class="axis">-14.3</text>
<line x1="120" y1="389.1" x2="1430" y2="389.1" class="zero"/>
<text x="106" y="393.1" text-anchor="end" class="axis">+0.0</text>
<line x1="120" y1="315.0" x2="1430" y2="315.0" class="grid"/>
<text x="106" y="319.0" text-anchor="end" class="axis">+11.6</text>
<line x1="120" y1="150.0" x2="1430" y2="150.0" class="grid"/>
<text x="106" y="154.0" text-anchor="end" class="axis">+37.6</text>
<text x="104" y="556" text-anchor="end" class="axis">no series</text>
<circle cx="138.7" cy="437.8" r="8" fill="#b42318" stroke="#ffffff" stroke-width="2"/>
<text x="138.7" y="422.8" text-anchor="middle" class="value">-7.64</text>
<text x="138.7" y="589" text-anchor="middle" class="axis">R7</text>
<circle cx="176.1" cy="464.5" r="8" fill="#b42318" stroke="#ffffff" stroke-width="2"/>
<text x="176.1" y="449.5" text-anchor="middle" class="value">-11.84</text>
<text x="176.1" y="589" text-anchor="middle" class="axis">R8</text>
<rect x="206.6" y="545.0" width="14" height="14" fill="#ffffff" stroke="#60717f" stroke-width="2" transform="rotate(45 213.6 552.0)"/>
<text x="213.6" y="589" text-anchor="middle" class="axis">R9</text>
<rect x="244.0" y="545.0" width="14" height="14" fill="#ffffff" stroke="#60717f" stroke-width="2" transform="rotate(45 251.0 552.0)"/>
<text x="251.0" y="589" text-anchor="middle" class="axis">R10</text>
<rect x="281.4" y="545.0" width="14" height="14" fill="#ffffff" stroke="#60717f" stroke-width="2" transform="rotate(45 288.4 552.0)"/>
<text x="288.4" y="589" text-anchor="middle" class="axis">R11</text>
<rect x="318.9" y="545.0" width="14" height="14" fill="#ffffff" stroke="#60717f" stroke-width="2" transform="rotate(45 325.9 552.0)"/>
<text x="325.9" y="589" text-anchor="middle" class="axis">R12</text>
<rect x="356.3" y="424.2" width="14" height="14" fill="#7b559c"/>
<text x="363.3" y="589" text-anchor="middle" class="axis">R13</text>
<rect x="393.7" y="423.2" width="14" height="14" fill="#7b559c"/>
<text x="400.7" y="589" text-anchor="middle" class="axis">R14</text>
<rect x="431.1" y="545.0" width="14" height="14" fill="#ffffff" stroke="#60717f" stroke-width="2" transform="rotate(45 438.1 552.0)"/>
<text x="438.1" y="589" text-anchor="middle" class="axis">R15</text>
<rect x="468.6" y="462.3" width="14" height="14" fill="#7b559c"/>
<text x="475.6" y="589" text-anchor="middle" class="axis">R16</text>
<rect x="506.0" y="448.6" width="14" height="14" fill="#7b559c"/>
<text x="513.0" y="589" text-anchor="middle" class="axis">R17</text>
<rect x="543.4" y="435.0" width="14" height="14" fill="#7b559c"/>
<text x="550.4" y="589" text-anchor="middle" class="axis">R18</text>
<rect x="580.9" y="447.7" width="14" height="14" fill="#7b559c"/>
<text x="587.9" y="589" text-anchor="middle" class="axis">R19</text>
<rect x="618.3" y="448.2" width="14" height="14" fill="#7b559c"/>
<text x="625.3" y="589" text-anchor="middle" class="axis">R20</text>
<rect x="655.7" y="460.1" width="14" height="14" fill="#7b559c"/>
<text x="662.7" y="589" text-anchor="middle" class="axis">R21</text>
<rect x="693.1" y="446.9" width="14" height="14" fill="#7b559c"/>
<text x="700.1" y="589" text-anchor="middle" class="axis">R22</text>
<rect x="730.6" y="443.3" width="14" height="14" fill="#7b559c"/>
<text x="737.6" y="589" text-anchor="middle" class="axis">R23</text>
<rect x="768.0" y="454.2" width="14" height="14" fill="#7b559c"/>
<text x="775.0" y="589" text-anchor="middle" class="axis">R24</text>
<rect x="805.4" y="445.1" width="14" height="14" fill="#7b559c"/>
<text x="812.4" y="589" text-anchor="middle" class="axis">R25</text>
<rect x="842.9" y="448.1" width="14" height="14" fill="#7b559c"/>
<text x="849.9" y="589" text-anchor="middle" class="axis">R26</text>
<rect x="880.3" y="459.4" width="14" height="14" fill="#7b559c"/>
<text x="887.3" y="589" text-anchor="middle" class="axis">R27</text>
<rect x="917.7" y="441.2" width="14" height="14" fill="#7b559c"/>
<text x="924.7" y="589" text-anchor="middle" class="axis">R28</text>
<rect x="955.1" y="437.1" width="14" height="14" fill="#7b559c"/>
<text x="962.1" y="589" text-anchor="middle" class="axis">R29</text>
<rect x="992.6" y="352.2" width="14" height="14" fill="#7b559c"/>
<text x="999.6" y="589" text-anchor="middle" class="axis">R30</text>
<rect x="1030.0" y="427.2" width="14" height="14" fill="#7b559c"/>
<text x="1037.0" y="589" text-anchor="middle" class="axis">R31</text>
<rect x="1067.4" y="450.6" width="14" height="14" fill="#7b559c"/>
<text x="1074.4" y="589" text-anchor="middle" class="axis">R32</text>
<rect x="1104.9" y="463.5" width="14" height="14" fill="#7b559c"/>
<text x="1111.9" y="589" text-anchor="middle" class="axis">R33</text>
<rect x="1142.3" y="450.6" width="14" height="14" fill="#7b559c"/>
<text x="1149.3" y="589" text-anchor="middle" class="axis">R34</text>
<rect x="1179.7" y="378.8" width="14" height="14" fill="#7b559c"/>
<text x="1186.7" y="589" text-anchor="middle" class="axis">R35</text>
<rect x="1217.1" y="445.8" width="14" height="14" fill="#7b559c"/>
<text x="1224.1" y="589" text-anchor="middle" class="axis">R36</text>
<rect x="1254.6" y="545.0" width="14" height="14" fill="#ffffff" stroke="#60717f" stroke-width="2" transform="rotate(45 1261.6 552.0)"/>
<text x="1261.6" y="589" text-anchor="middle" class="axis">R37</text>
<circle cx="1299.0" cy="414.5" r="8" fill="#b42318" stroke="#ffffff" stroke-width="2"/>
<text x="1299.0" y="399.5" text-anchor="middle" class="value">-3.99</text>
<text x="1299.0" y="589" text-anchor="middle" class="axis">R38</text>
<circle cx="1336.4" cy="452.2" r="8" fill="#b42318" stroke="#ffffff" stroke-width="2"/>
<text x="1336.4" y="437.2" text-anchor="middle" class="value">-9.91</text>
<text x="1336.4" y="589" text-anchor="middle" class="axis">R39</text>
<circle cx="1373.9" cy="159.5" r="8" fill="#b42318" stroke="#ffffff" stroke-width="2"/>
<text x="1373.9" y="144.5" text-anchor="middle" class="value">+36.06</text>
<text x="1373.9" y="589" text-anchor="middle" class="axis">R40</text>
<circle cx="1411.3" cy="393.4" r="8" fill="#b42318" stroke="#ffffff" stroke-width="2"/>
<text x="1411.3" y="378.4" text-anchor="middle" class="value">-0.68</text>
<text x="1411.3" y="589" text-anchor="middle" class="axis">R41</text>
<text x="56" y="632" class="note">Windows and units differ by round. This is evidence lineage, not an equity curve or portfolio return series.</text>
</svg>
