<svg xmlns="http://www.w3.org/2000/svg" width="1500" height="660" viewBox="0 0 1500 660" role="img" aria-labelledby="title desc">
<title id="title">After-cost evidence by research round</title>
<desc id="desc">Heterogeneous simulations, overlap diagnostics, and rounds without a trade series use separate marks.</desc>
<rect width="100%" height="100%" fill="#ffffff"/>
<style>text{font-family:"Segoe UI",Arial,sans-serif;letter-spacing:0}.title{font-size:27px;font-weight:700;fill:#17212b}.subtitle{font-size:14px;fill:#52606d}.label{font-size:13px;fill:#263746}.axis{font-size:12px;fill:#60717f}.value{font-size:12px;font-weight:650;fill:#263746}.note{font-size:12px;fill:#65727d}.grid{stroke:#e1e8ed;stroke-width:1}.zero{stroke:#526674;stroke-width:2;stroke-dasharray:6 5}</style>
<text x="56" y="52" class="title">After-cost evidence by research round</text>
<text x="56" y="80" class="subtitle">Heterogeneous simulations, overlap diagnostics, and rounds without a trade series use separate marks.</text>
<circle cx="870" cy="52" r="7" fill="#b42318"/><text x="887" y="57" class="note">simulated-trade mean</text>
<rect x="1050" y="45" width="14" height="14" fill="#7b559c"/><text x="1074" y="57" class="note">overlap diagnostic</text>
<rect x="1250" y="45" width="14" height="14" fill="#ffffff" stroke="#60717f" stroke-width="2" transform="rotate(45 1257 52)"/><text x="1276" y="57" class="note">no trade series</text>
<rect x="120" y="150" width="1310" height="330" fill="#ffffff" stroke="#d8e0e7"/>
<line x1="120" y1="480.0" x2="1430" y2="480.0" class="grid"/>
<text x="106" y="484.0" text-anchor="end" class="axis">-14.3</text>
<line x1="120" y1="389.1" x2="1430" y2="389.1" class="zero"/>
<text x="106" y="393.1" text-anchor="end" class="axis">+0.0</text>
<line x1="120" y1="315.0" x2="1430" y2="315.0" class="grid"/>
<text x="106" y="319.0" text-anchor="end" class="axis">+11.6</text>
<line x1="120" y1="150.0" x2="1430" y2="150.0" class="grid"/>
<text x="106" y="154.0" text-anchor="end" class="axis">+37.6</text>
<text x="104" y="556" text-anchor="end" class="axis">no series</text>
<circle cx="135.6" cy="437.8" r="8" fill="#b42318" stroke="#ffffff" stroke-width="2"/>
<text x="135.6" y="422.8" text-anchor="middle" class="value">-7.64</text>
<text x="135.6" y="589" text-anchor="middle" class="axis">R7</text>
<circle cx="166.8" cy="464.5" r="8" fill="#b42318" stroke="#ffffff" stroke-width="2"/>
<text x="166.8" y="432.5" text-anchor="middle" class="value">-11.84</text>
<text x="166.8" y="589" text-anchor="middle" class="axis">R8</text>
<rect x="191.0" y="545.0" width="14" height="14" fill="#ffffff" stroke="#60717f" stroke-width="2" transform="rotate(45 198.0 552.0)"/>
<text x="198.0" y="589" text-anchor="middle" class="axis">R9</text>
<rect x="222.2" y="545.0" width="14" height="14" fill="#ffffff" stroke="#60717f" stroke-width="2" transform="rotate(45 229.2 552.0)"/>
<text x="229.2" y="589" text-anchor="middle" class="axis">R10</text>
<rect x="253.4" y="545.0" width="14" height="14" fill="#ffffff" stroke="#60717f" stroke-width="2" transform="rotate(45 260.4 552.0)"/>
<text x="260.4" y="589" text-anchor="middle" class="axis">R11</text>
<rect x="284.5" y="545.0" width="14" height="14" fill="#ffffff" stroke="#60717f" stroke-width="2" transform="rotate(45 291.5 552.0)"/>
<text x="291.5" y="589" text-anchor="middle" class="axis">R12</text>
<rect x="315.7" y="424.2" width="14" height="14" fill="#7b559c"/>
<text x="322.7" y="589" text-anchor="middle" class="axis">R13</text>
<rect x="346.9" y="423.2" width="14" height="14" fill="#7b559c"/>
<text x="353.9" y="589" text-anchor="middle" class="axis">R14</text>
<rect x="378.1" y="545.0" width="14" height="14" fill="#ffffff" stroke="#60717f" stroke-width="2" transform="rotate(45 385.1 552.0)"/>
<text x="385.1" y="589" text-anchor="middle" class="axis">R15</text>
<rect x="409.3" y="462.3" width="14" height="14" fill="#7b559c"/>
<text x="416.3" y="589" text-anchor="middle" class="axis">R16</text>
<rect x="440.5" y="448.6" width="14" height="14" fill="#7b559c"/>
<text x="447.5" y="589" text-anchor="middle" class="axis">R17</text>
<rect x="471.7" y="435.0" width="14" height="14" fill="#7b559c"/>
<text x="478.7" y="589" text-anchor="middle" class="axis">R18</text>
<rect x="502.9" y="447.7" width="14" height="14" fill="#7b559c"/>
<text x="509.9" y="589" text-anchor="middle" class="axis">R19</text>
<rect x="534.1" y="448.2" width="14" height="14" fill="#7b559c"/>
<text x="541.1" y="589" text-anchor="middle" class="axis">R20</text>
<rect x="565.3" y="460.1" width="14" height="14" fill="#7b559c"/>
<text x="572.3" y="589" text-anchor="middle" class="axis">R21</text>
<rect x="596.5" y="446.9" width="14" height="14" fill="#7b559c"/>
<text x="603.5" y="589" text-anchor="middle" class="axis">R22</text>
<rect x="627.6" y="443.3" width="14" height="14" fill="#7b559c"/>
<text x="634.6" y="589" text-anchor="middle" class="axis">R23</text>
<rect x="658.8" y="454.2" width="14" height="14" fill="#7b559c"/>
<text x="665.8" y="589" text-anchor="middle" class="axis">R24</text>
<rect x="690.0" y="445.1" width="14" height="14" fill="#7b559c"/>
<text x="697.0" y="589" text-anchor="middle" class="axis">R25</text>
<rect x="721.2" y="448.1" width="14" height="14" fill="#7b559c"/>
<text x="728.2" y="589" text-anchor="middle" class="axis">R26</text>
<rect x="752.4" y="459.4" width="14" height="14" fill="#7b559c"/>
<text x="759.4" y="589" text-anchor="middle" class="axis">R27</text>
<rect x="783.6" y="441.2" width="14" height="14" fill="#7b559c"/>
<text x="790.6" y="589" text-anchor="middle" class="axis">R28</text>
<rect x="814.8" y="437.1" width="14" height="14" fill="#7b559c"/>
<text x="821.8" y="589" text-anchor="middle" class="axis">R29</text>
<rect x="846.0" y="352.2" width="14" height="14" fill="#7b559c"/>
<text x="853.0" y="589" text-anchor="middle" class="axis">R30</text>
<rect x="877.2" y="427.2" width="14" height="14" fill="#7b559c"/>
<text x="884.2" y="589" text-anchor="middle" class="axis">R31</text>
<rect x="908.4" y="450.6" width="14" height="14" fill="#7b559c"/>
<text x="915.4" y="589" text-anchor="middle" class="axis">R32</text>
<rect x="939.5" y="463.5" width="14" height="14" fill="#7b559c"/>
<text x="946.5" y="589" text-anchor="middle" class="axis">R33</text>
<rect x="970.7" y="450.6" width="14" height="14" fill="#7b559c"/>
<text x="977.7" y="589" text-anchor="middle" class="axis">R34</text>
<rect x="1001.9" y="378.8" width="14" height="14" fill="#7b559c"/>
<text x="1008.9" y="589" text-anchor="middle" class="axis">R35</text>
<rect x="1033.1" y="445.8" width="14" height="14" fill="#7b559c"/>
<text x="1040.1" y="589" text-anchor="middle" class="axis">R36</text>
<rect x="1064.3" y="545.0" width="14" height="14" fill="#ffffff" stroke="#60717f" stroke-width="2" transform="rotate(45 1071.3 552.0)"/>
<text x="1071.3" y="589" text-anchor="middle" class="axis">R37</text>
<circle cx="1102.5" cy="414.5" r="8" fill="#b42318" stroke="#ffffff" stroke-width="2"/>
<text x="1102.5" y="382.5" text-anchor="middle" class="value">-3.99</text>
<text x="1102.5" y="589" text-anchor="middle" class="axis">R38</text>
<circle cx="1133.7" cy="452.2" r="8" fill="#b42318" stroke="#ffffff" stroke-width="2"/>
<text x="1133.7" y="437.2" text-anchor="middle" class="value">-9.91</text>
<text x="1133.7" y="589" text-anchor="middle" class="axis">R39</text>
<circle cx="1164.9" cy="159.5" r="8" fill="#b42318" stroke="#ffffff" stroke-width="2"/>
<text x="1164.9" y="127.5" text-anchor="middle" class="value">+36.06</text>
<text x="1164.9" y="589" text-anchor="middle" class="axis">R40</text>
<circle cx="1196.1" cy="393.4" r="8" fill="#b42318" stroke="#ffffff" stroke-width="2"/>
<text x="1196.1" y="378.4" text-anchor="middle" class="value">-0.68</text>
<text x="1196.1" y="589" text-anchor="middle" class="axis">R41</text>
<rect x="1220.3" y="545.0" width="14" height="14" fill="#ffffff" stroke="#60717f" stroke-width="2" transform="rotate(45 1227.3 552.0)"/>
<text x="1227.3" y="589" text-anchor="middle" class="axis">R42</text>
<circle cx="1258.5" cy="388.4" r="8" fill="#b42318" stroke="#ffffff" stroke-width="2"/>
<text x="1258.5" y="373.4" text-anchor="middle" class="value">+0.11</text>
<text x="1258.5" y="589" text-anchor="middle" class="axis">R43</text>
<circle cx="1289.6" cy="389.2" r="8" fill="#b42318" stroke="#ffffff" stroke-width="2"/>
<text x="1289.6" y="357.2" text-anchor="middle" class="value">+0.00</text>
<text x="1289.6" y="589" text-anchor="middle" class="axis">R44</text>
<circle cx="1320.8" cy="386.4" r="8" fill="#b42318" stroke="#ffffff" stroke-width="2"/>
<text x="1320.8" y="371.4" text-anchor="middle" class="value">+0.43</text>
<text x="1320.8" y="589" text-anchor="middle" class="axis">R45</text>
<circle cx="1352.0" cy="385.4" r="8" fill="#b42318" stroke="#ffffff" stroke-width="2"/>
<text x="1352.0" y="353.4" text-anchor="middle" class="value">+0.59</text>
<text x="1352.0" y="589" text-anchor="middle" class="axis">R46</text>
<circle cx="1383.2" cy="386.2" r="8" fill="#b42318" stroke="#ffffff" stroke-width="2"/>
<text x="1383.2" y="371.2" text-anchor="middle" class="value">+0.45</text>
<text x="1383.2" y="589" text-anchor="middle" class="axis">R47</text>
<circle cx="1414.4" cy="389.8" r="8" fill="#b42318" stroke="#ffffff" stroke-width="2"/>
<text x="1414.4" y="357.8" text-anchor="middle" class="value">-0.10</text>
<text x="1414.4" y="589" text-anchor="middle" class="axis">R48</text>
<text x="56" y="632" class="note">Windows and units differ by round. This is evidence lineage, not an equity curve or portfolio return series.</text>
</svg>
