<svg xmlns="http://www.w3.org/2000/svg" width="1200" height="700" viewBox="0 0 1200 700" role="img">
<title>Optimization research record through Round 60</title>
<desc>Rank statistics use differing targets; structural Rounds 58-60 add no forecast statistic and remain in progress.csv</desc>
<rect width="1200" height="700" fill="#0b1220"/>
<text x="64" y="58" fill="#f8fafc" font-family="Segoe UI,Arial,sans-serif" font-size="28" font-weight="700">Optimization research record through Round 60</text>
<text x="64" y="88" fill="#cbd5e1" font-family="Segoe UI,Arial,sans-serif" font-size="15">Rank statistics use differing targets; structural Rounds 58-60 add no forecast statistic and remain in progress.csv</text>
<line x1="105" y1="580.0" x2="1145" y2="580.0" stroke="#334155"/>
<text x="91" y="585.0" text-anchor="end" fill="#cbd5e1" font-family="Segoe UI,Arial,sans-serif" font-size="13">-5.4</text>
<line x1="105" y1="491.0" x2="1145" y2="491.0" stroke="#334155"/>
<text x="91" y="496.0" text-anchor="end" fill="#cbd5e1" font-family="Segoe UI,Arial,sans-serif" font-size="13">-1.0</text>
<line x1="105" y1="402.0" x2="1145" y2="402.0" stroke="#334155"/>
<text x="91" y="407.0" text-anchor="end" fill="#cbd5e1" font-family="Segoe UI,Arial,sans-serif" font-size="13">3.3</text>
<line x1="105" y1="313.0" x2="1145" y2="313.0" stroke="#334155"/>
<text x="91" y="318.0" text-anchor="end" fill="#cbd5e1" font-family="Segoe UI,Arial,sans-serif" font-size="13">7.7</text>
<line x1="105" y1="224.0" x2="1145" y2="224.0" stroke="#334155"/>
<text x="91" y="229.0" text-anchor="end" fill="#cbd5e1" font-family="Segoe UI,Arial,sans-serif" font-size="13">12.0</text>
<line x1="105" y1="135.0" x2="1145" y2="135.0" stroke="#334155"/>
<text x="91" y="140.0" text-anchor="end" fill="#cbd5e1" font-family="Segoe UI,Arial,sans-serif" font-size="13">16.3</text>
<text x="105.0" y="614" text-anchor="middle" fill="#cbd5e1" font-family="Segoe UI,Arial,sans-serif" font-size="12">1</text>
<text x="1145.0" y="614" text-anchor="middle" fill="#cbd5e1" font-family="Segoe UI,Arial,sans-serif" font-size="12">57</text>
<text x="272.1" y="614" text-anchor="middle" fill="#cbd5e1" font-family="Segoe UI,Arial,sans-serif" font-size="12">10</text>
<text x="457.9" y="614" text-anchor="middle" fill="#cbd5e1" font-family="Segoe UI,Arial,sans-serif" font-size="12">20</text>
<text x="643.6" y="614" text-anchor="middle" fill="#cbd5e1" font-family="Segoe UI,Arial,sans-serif" font-size="12">30</text>
<text x="829.3" y="614" text-anchor="middle" fill="#cbd5e1" font-family="Segoe UI,Arial,sans-serif" font-size="12">40</text>
<text x="1015.0" y="614" text-anchor="middle" fill="#cbd5e1" font-family="Segoe UI,Arial,sans-serif" font-size="12">50</text>
<path d="M 105.0 500.6 L 123.6 250.0 L 142.1 249.9 L 160.7 249.9 L 179.3 210.8 L 197.9 210.8 L 216.4 210.8 L 235.0 271.4 L 327.9 242.9 L 346.4 256.2 L 365.0 289.2 L 680.7 495.8 L 699.3 536.9 L 717.9 495.8 L 755.0 178.1 L 773.6 380.3 L 885.0 403.8 L 903.6 367.3 L 922.1 405.2 L 940.7 378.9 L 959.3 378.3 L 977.9 414.8 L 996.4 460.6 L 1015.0 482.5 L 1033.6 383.9 L 1052.1 402.7 L 1070.7 364.1 L 1089.3 379.2 L 1107.9 238.4 L 1126.4 430.4 L 1145.0 433.0" fill="none" stroke="#14b8a6" stroke-width="3" stroke-linejoin="round"/>
<circle cx="105.0" cy="500.6" r="4" fill="#14b8a6"/>
<circle cx="123.6" cy="250.0" r="4" fill="#14b8a6"/>
<circle cx="142.1" cy="249.9" r="4" fill="#14b8a6"/>
<circle cx="160.7" cy="249.9" r="4" fill="#14b8a6"/>
<circle cx="179.3" cy="210.8" r="4" fill="#14b8a6"/>
<circle cx="197.9" cy="210.8" r="4" fill="#14b8a6"/>
<circle cx="216.4" cy="210.8" r="4" fill="#14b8a6"/>
<circle cx="235.0" cy="271.4" r="4" fill="#14b8a6"/>
<circle cx="327.9" cy="242.9" r="4" fill="#14b8a6"/>
<circle cx="346.4" cy="256.2" r="4" fill="#14b8a6"/>
<circle cx="365.0" cy="289.2" r="4" fill="#14b8a6"/>
<circle cx="680.7" cy="495.8" r="4" fill="#14b8a6"/>
<circle cx="699.3" cy="536.9" r="4" fill="#14b8a6"/>
<circle cx="717.9" cy="495.8" r="4" fill="#14b8a6"/>
<circle cx="755.0" cy="178.1" r="4" fill="#14b8a6"/>
<circle cx="773.6" cy="380.3" r="4" fill="#14b8a6"/>
<circle cx="885.0" cy="403.8" r="4" fill="#14b8a6"/>
<circle cx="903.6" cy="367.3" r="4" fill="#14b8a6"/>
<circle cx="922.1" cy="405.2" r="4" fill="#14b8a6"/>
<circle cx="940.7" cy="378.9" r="4" fill="#14b8a6"/>
<circle cx="959.3" cy="378.3" r="4" fill="#14b8a6"/>
<circle cx="977.9" cy="414.8" r="4" fill="#14b8a6"/>
<circle cx="996.4" cy="460.6" r="4" fill="#14b8a6"/>
<circle cx="1015.0" cy="482.5" r="4" fill="#14b8a6"/>
<circle cx="1033.6" cy="383.9" r="4" fill="#14b8a6"/>
<circle cx="1052.1" cy="402.7" r="4" fill="#14b8a6"/>
<circle cx="1070.7" cy="364.1" r="4" fill="#14b8a6"/>
<circle cx="1089.3" cy="379.2" r="4" fill="#14b8a6"/>
<circle cx="1107.9" cy="238.4" r="4" fill="#14b8a6"/>
<circle cx="1126.4" cy="430.4" r="4" fill="#14b8a6"/>
<circle cx="1145.0" cy="433.0" r="4" fill="#14b8a6"/>
<rect x="105" y="657" width="16" height="4" fill="#14b8a6"/>
<text x="129" y="665" fill="#cbd5e1" font-family="Segoe UI,Arial,sans-serif" font-size="13">Recorded Spearman</text>
<text transform="translate(25 357.5) rotate(-90)" text-anchor="middle" fill="#cbd5e1" font-family="Segoe UI,Arial,sans-serif" font-size="14">Recorded Spearman x 100</text>
</svg>
