<svg xmlns="http://www.w3.org/2000/svg" width="1500" height="620" viewBox="0 0 1500 620" role="img" aria-labelledby="title desc">
<title id="title">After-cost evidence by research round</title>
<desc id="desc">Executed means, overlapping-forecast diagnostics, and rounds with no executable series use distinct markers. Rounds 15 through 28 produced no evaluation trades.</desc>
<rect width="100%" height="100%" fill="#ffffff"/>
<text x="56" y="54" font-family="Segoe UI, Arial, sans-serif" font-size="28" font-weight="700" fill="#17212b">After-cost evidence by research round</text>
<text x="56" y="84" font-family="Segoe UI, Arial, sans-serif" font-size="15" fill="#52606d">Distinct markers prevent diagnostics or abstention from being presented as an executed trade mean.</text>
<circle cx="900" cy="55" r="7" fill="#b42318"/><text x="917" y="60" font-family="Segoe UI, Arial, sans-serif" font-size="12" fill="#52606d">executed mean</text>
<rect x="1052" y="48" width="14" height="14" fill="#ffffff" stroke="#60717f" stroke-width="2" transform="rotate(45 1059 55)"/><text x="1076" y="60" font-family="Segoe UI, Arial, sans-serif" font-size="12" fill="#52606d">no executable series</text>
<rect x="1277" y="48" width="14" height="14" fill="#7b559c"/><text x="1301" y="60" font-family="Segoe UI, Arial, sans-serif" font-size="12" fill="#52606d">overlap diagnostic</text>
<rect x="120" y="158" width="1310" height="330" fill="#ffffff" stroke="#d8e0e7"/>
<line x1="120" y1="488.0" x2="1430" y2="488.0" stroke="#e5ebf0" stroke-width="1"/>
<text x="106" y="493.0" text-anchor="end" font-family="Segoe UI, Arial, sans-serif" font-size="12" fill="#60717f">-14</text>
<line x1="120" y1="405.5" x2="1430" y2="405.5" stroke="#e5ebf0" stroke-width="1"/>
<text x="106" y="410.5" text-anchor="end" font-family="Segoe UI, Arial, sans-serif" font-size="12" fill="#60717f">-10</text>
<line x1="120" y1="302.4" x2="1430" y2="302.4" stroke="#e5ebf0" stroke-width="1"/>
<text x="106" y="307.4" text-anchor="end" font-family="Segoe UI, Arial, sans-serif" font-size="12" fill="#60717f">-5</text>
<line x1="120" y1="199.2" x2="1430" y2="199.2" stroke="#526674" stroke-width="2"/>
<text x="106" y="204.2" text-anchor="end" font-family="Segoe UI, Arial, sans-serif" font-size="12" fill="#60717f">0</text>
<circle cx="149.8" cy="356.8" r="8" fill="#b42318" stroke="#ffffff" stroke-width="3"/>
<text x="149.8" y="340.8" text-anchor="middle" font-family="Segoe UI, Arial, sans-serif" font-size="12" font-weight="700" fill="#263744">-7.64</text>
<text x="149.8" y="520" text-anchor="middle" font-family="Segoe UI, Arial, sans-serif" font-size="13" fill="#334653">Round 7</text>
<circle cx="209.3" cy="443.4" r="8" fill="#b42318" stroke="#ffffff" stroke-width="3"/>
<text x="209.3" y="427.4" text-anchor="middle" font-family="Segoe UI, Arial, sans-serif" font-size="12" font-weight="700" fill="#263744">-11.84</text>
<text x="209.3" y="520" text-anchor="middle" font-family="Segoe UI, Arial, sans-serif" font-size="13" fill="#334653">Round 8</text>
<rect x="261.9" y="316.0" width="14" height="14" fill="#ffffff" stroke="#60717f" stroke-width="2" transform="rotate(45 268.9 323.0)"/>
<text x="268.9" y="520" text-anchor="middle" font-family="Segoe UI, Arial, sans-serif" font-size="13" fill="#334653">Round 9</text>
<rect x="321.4" y="316.0" width="14" height="14" fill="#ffffff" stroke="#60717f" stroke-width="2" transform="rotate(45 328.4 323.0)"/>
<text x="328.4" y="520" text-anchor="middle" font-family="Segoe UI, Arial, sans-serif" font-size="13" fill="#334653">Round 10</text>
<rect x="381.0" y="316.0" width="14" height="14" fill="#ffffff" stroke="#60717f" stroke-width="2" transform="rotate(45 388.0 323.0)"/>
<text x="388.0" y="520" text-anchor="middle" font-family="Segoe UI, Arial, sans-serif" font-size="13" fill="#334653">Round 11</text>
<rect x="440.5" y="316.0" width="14" height="14" fill="#ffffff" stroke="#60717f" stroke-width="2" transform="rotate(45 447.5 323.0)"/>
<text x="447.5" y="520" text-anchor="middle" font-family="Segoe UI, Arial, sans-serif" font-size="13" fill="#334653">Round 12</text>
<rect x="499.0" y="327.5" width="16" height="16" fill="#7b559c" stroke="#ffffff" stroke-width="2"/>
<text x="507.0" y="520" text-anchor="middle" font-family="Segoe UI, Arial, sans-serif" font-size="13" fill="#334653">Round 13</text>
<rect x="558.6" y="324.4" width="16" height="16" fill="#7b559c" stroke="#ffffff" stroke-width="2"/>
<text x="566.6" y="520" text-anchor="middle" font-family="Segoe UI, Arial, sans-serif" font-size="13" fill="#334653">Round 14</text>
<rect x="619.1" y="316.0" width="14" height="14" fill="#ffffff" stroke="#60717f" stroke-width="2" transform="rotate(45 626.1 323.0)"/>
<text x="626.1" y="520" text-anchor="middle" font-family="Segoe UI, Arial, sans-serif" font-size="13" fill="#334653">Round 15</text>
<rect x="677.7" y="450.9" width="16" height="16" fill="#7b559c" stroke="#ffffff" stroke-width="2"/>
<text x="685.7" y="520" text-anchor="middle" font-family="Segoe UI, Arial, sans-serif" font-size="13" fill="#334653">Round 16</text>
<rect x="737.2" y="406.6" width="16" height="16" fill="#7b559c" stroke="#ffffff" stroke-width="2"/>
<text x="745.2" y="520" text-anchor="middle" font-family="Segoe UI, Arial, sans-serif" font-size="13" fill="#334653">Round 17</text>
<rect x="796.8" y="362.6" width="16" height="16" fill="#7b559c" stroke="#ffffff" stroke-width="2"/>
<text x="804.8" y="520" text-anchor="middle" font-family="Segoe UI, Arial, sans-serif" font-size="13" fill="#334653">Round 18</text>
<rect x="856.3" y="403.7" width="16" height="16" fill="#7b559c" stroke="#ffffff" stroke-width="2"/>
<text x="864.3" y="520" text-anchor="middle" font-family="Segoe UI, Arial, sans-serif" font-size="13" fill="#334653">Round 19</text>
<rect x="915.9" y="405.3" width="16" height="16" fill="#7b559c" stroke="#ffffff" stroke-width="2"/>
<text x="923.9" y="520" text-anchor="middle" font-family="Segoe UI, Arial, sans-serif" font-size="13" fill="#334653">Round 20</text>
<rect x="975.4" y="443.9" width="16" height="16" fill="#7b559c" stroke="#ffffff" stroke-width="2"/>
<text x="983.4" y="520" text-anchor="middle" font-family="Segoe UI, Arial, sans-serif" font-size="13" fill="#334653">Round 21</text>
<rect x="1035.0" y="401.0" width="16" height="16" fill="#7b559c" stroke="#ffffff" stroke-width="2"/>
<text x="1043.0" y="520" text-anchor="middle" font-family="Segoe UI, Arial, sans-serif" font-size="13" fill="#334653">Round 22</text>
<rect x="1094.5" y="389.6" width="16" height="16" fill="#7b559c" stroke="#ffffff" stroke-width="2"/>
<text x="1102.5" y="520" text-anchor="middle" font-family="Segoe UI, Arial, sans-serif" font-size="13" fill="#334653">Round 23</text>
<rect x="1154.0" y="424.7" width="16" height="16" fill="#7b559c" stroke="#ffffff" stroke-width="2"/>
<text x="1162.0" y="520" text-anchor="middle" font-family="Segoe UI, Arial, sans-serif" font-size="13" fill="#334653">Round 24</text>
<rect x="1213.6" y="395.2" width="16" height="16" fill="#7b559c" stroke="#ffffff" stroke-width="2"/>
<text x="1221.6" y="520" text-anchor="middle" font-family="Segoe UI, Arial, sans-serif" font-size="13" fill="#334653">Round 25</text>
<rect x="1273.1" y="405.1" width="16" height="16" fill="#7b559c" stroke="#ffffff" stroke-width="2"/>
<text x="1281.1" y="520" text-anchor="middle" font-family="Segoe UI, Arial, sans-serif" font-size="13" fill="#334653">Round 26</text>
<rect x="1332.7" y="441.6" width="16" height="16" fill="#7b559c" stroke="#ffffff" stroke-width="2"/>
<text x="1340.7" y="520" text-anchor="middle" font-family="Segoe UI, Arial, sans-serif" font-size="13" fill="#334653">Round 27</text>
<rect x="1392.2" y="382.5" width="16" height="16" fill="#7b559c" stroke="#ffffff" stroke-width="2"/>
<text x="1400.2" y="520" text-anchor="middle" font-family="Segoe UI, Arial, sans-serif" font-size="13" fill="#334653">Round 28</text>
<polyline points="149.8,356.8 209.3,443.4" fill="none" stroke="#287f9e" stroke-width="4"/>
<text x="42" y="323" transform="rotate(-90 42 323)" text-anchor="middle" font-family="Segoe UI, Arial, sans-serif" font-size="13" fill="#51606d">After-cost basis points</text>
<text x="56" y="574" font-family="Segoe UI, Arial, sans-serif" font-size="13" fill="#65727d">Windows and units differ by round. This is evidence lineage, not a continuous equity curve or portfolio return series.</text>
</svg>
