<svg xmlns="http://www.w3.org/2000/svg" width="1200" height="700" viewBox="0 0 1200 700" role="img">
<title>Optimization research progression</title>
<desc>Recorded rank statistic by round; targets, horizons, and datasets differ, so the line is diagnostic rather than a performance claim</desc>
<rect width="1200" height="700" fill="#0b1220"/>
<text x="64" y="58" fill="#f8fafc" font-family="Segoe UI,Arial,sans-serif" font-size="28" font-weight="700">Optimization research progression</text>
<text x="64" y="88" fill="#cbd5e1" font-family="Segoe UI,Arial,sans-serif" font-size="15">Recorded rank statistic by round; targets, horizons, and datasets differ, so the line is diagnostic rather than a performance claim</text>
<line x1="105" y1="580.0" x2="1145" y2="580.0" stroke="#334155"/>
<text x="91" y="585.0" text-anchor="end" fill="#cbd5e1" font-family="Segoe UI,Arial,sans-serif" font-size="13">-5.4</text>
<line x1="105" y1="491.0" x2="1145" y2="491.0" stroke="#334155"/>
<text x="91" y="496.0" text-anchor="end" fill="#cbd5e1" font-family="Segoe UI,Arial,sans-serif" font-size="13">-1.0</text>
<line x1="105" y1="402.0" x2="1145" y2="402.0" stroke="#334155"/>
<text x="91" y="407.0" text-anchor="end" fill="#cbd5e1" font-family="Segoe UI,Arial,sans-serif" font-size="13">3.3</text>
<line x1="105" y1="313.0" x2="1145" y2="313.0" stroke="#334155"/>
<text x="91" y="318.0" text-anchor="end" fill="#cbd5e1" font-family="Segoe UI,Arial,sans-serif" font-size="13">7.7</text>
<line x1="105" y1="224.0" x2="1145" y2="224.0" stroke="#334155"/>
<text x="91" y="229.0" text-anchor="end" fill="#cbd5e1" font-family="Segoe UI,Arial,sans-serif" font-size="13">12.0</text>
<line x1="105" y1="135.0" x2="1145" y2="135.0" stroke="#334155"/>
<text x="91" y="140.0" text-anchor="end" fill="#cbd5e1" font-family="Segoe UI,Arial,sans-serif" font-size="13">16.3</text>
<text x="105.0" y="614" text-anchor="middle" fill="#cbd5e1" font-family="Segoe UI,Arial,sans-serif" font-size="12">1</text>
<text x="1145.0" y="614" text-anchor="middle" fill="#cbd5e1" font-family="Segoe UI,Arial,sans-serif" font-size="12">56</text>
<text x="275.2" y="614" text-anchor="middle" fill="#cbd5e1" font-family="Segoe UI,Arial,sans-serif" font-size="12">10</text>
<text x="464.3" y="614" text-anchor="middle" fill="#cbd5e1" font-family="Segoe UI,Arial,sans-serif" font-size="12">20</text>
<text x="653.4" y="614" text-anchor="middle" fill="#cbd5e1" font-family="Segoe UI,Arial,sans-serif" font-size="12">30</text>
<text x="842.5" y="614" text-anchor="middle" fill="#cbd5e1" font-family="Segoe UI,Arial,sans-serif" font-size="12">40</text>
<text x="1031.5" y="614" text-anchor="middle" fill="#cbd5e1" font-family="Segoe UI,Arial,sans-serif" font-size="12">50</text>
<path d="M 105.0 500.6 L 123.9 250.0 L 142.8 249.9 L 161.7 249.9 L 180.6 210.8 L 199.5 210.8 L 218.5 210.8 L 237.4 271.4 L 331.9 242.9 L 350.8 256.2 L 369.7 289.2 L 691.2 495.8 L 710.1 536.9 L 729.0 495.8 L 766.8 178.1 L 785.7 380.3 L 899.2 403.8 L 918.1 367.3 L 937.0 405.2 L 955.9 378.9 L 974.8 378.3 L 993.7 414.8 L 1012.6 460.6 L 1031.5 482.5 L 1050.5 383.9 L 1069.4 402.7 L 1088.3 364.1 L 1107.2 379.2 L 1126.1 238.4 L 1145.0 430.4" fill="none" stroke="#14b8a6" stroke-width="3" stroke-linejoin="round"/>
<circle cx="105.0" cy="500.6" r="4" fill="#14b8a6"/>
<circle cx="123.9" cy="250.0" r="4" fill="#14b8a6"/>
<circle cx="142.8" cy="249.9" r="4" fill="#14b8a6"/>
<circle cx="161.7" cy="249.9" r="4" fill="#14b8a6"/>
<circle cx="180.6" cy="210.8" r="4" fill="#14b8a6"/>
<circle cx="199.5" cy="210.8" r="4" fill="#14b8a6"/>
<circle cx="218.5" cy="210.8" r="4" fill="#14b8a6"/>
<circle cx="237.4" cy="271.4" r="4" fill="#14b8a6"/>
<circle cx="331.9" cy="242.9" r="4" fill="#14b8a6"/>
<circle cx="350.8" cy="256.2" r="4" fill="#14b8a6"/>
<circle cx="369.7" cy="289.2" r="4" fill="#14b8a6"/>
<circle cx="691.2" cy="495.8" r="4" fill="#14b8a6"/>
<circle cx="710.1" cy="536.9" r="4" fill="#14b8a6"/>
<circle cx="729.0" cy="495.8" r="4" fill="#14b8a6"/>
<circle cx="766.8" cy="178.1" r="4" fill="#14b8a6"/>
<circle cx="785.7" cy="380.3" r="4" fill="#14b8a6"/>
<circle cx="899.2" cy="403.8" r="4" fill="#14b8a6"/>
<circle cx="918.1" cy="367.3" r="4" fill="#14b8a6"/>
<circle cx="937.0" cy="405.2" r="4" fill="#14b8a6"/>
<circle cx="955.9" cy="378.9" r="4" fill="#14b8a6"/>
<circle cx="974.8" cy="378.3" r="4" fill="#14b8a6"/>
<circle cx="993.7" cy="414.8" r="4" fill="#14b8a6"/>
<circle cx="1012.6" cy="460.6" r="4" fill="#14b8a6"/>
<circle cx="1031.5" cy="482.5" r="4" fill="#14b8a6"/>
<circle cx="1050.5" cy="383.9" r="4" fill="#14b8a6"/>
<circle cx="1069.4" cy="402.7" r="4" fill="#14b8a6"/>
<circle cx="1088.3" cy="364.1" r="4" fill="#14b8a6"/>
<circle cx="1107.2" cy="379.2" r="4" fill="#14b8a6"/>
<circle cx="1126.1" cy="238.4" r="4" fill="#14b8a6"/>
<circle cx="1145.0" cy="430.4" r="4" fill="#14b8a6"/>
<rect x="105" y="657" width="16" height="4" fill="#14b8a6"/>
<text x="129" y="665" fill="#cbd5e1" font-family="Segoe UI,Arial,sans-serif" font-size="13">Recorded Spearman</text>
<text transform="translate(25 357.5) rotate(-90)" text-anchor="middle" fill="#cbd5e1" font-family="Segoe UI,Arial,sans-serif" font-size="14">Recorded Spearman x 100</text>
</svg>
