<svg xmlns="http://www.w3.org/2000/svg" width="1500" height="620" viewBox="0 0 1500 620" role="img" aria-labelledby="title desc">
<title id="title">After-cost evidence by research round</title>
<desc id="desc">Simulated-trade means, overlapping-forecast diagnostics, and rounds with no simulated-trade series use distinct markers. Round fifteen produced no evaluation trades.</desc>
<rect width="100%" height="100%" fill="#ffffff"/>
<text x="56" y="54" font-family="Segoe UI, Arial, sans-serif" font-size="28" font-weight="700" fill="#17212b">After-cost evidence by research round</text>
<text x="56" y="84" font-family="Segoe UI, Arial, sans-serif" font-size="15" fill="#52606d">Distinct markers prevent diagnostics or abstention from being presented as a simulated-trade mean.</text>
<circle cx="900" cy="55" r="7" fill="#b42318"/><text x="917" y="60" font-family="Segoe UI, Arial, sans-serif" font-size="12" fill="#52606d">simulated-trade mean</text>
<rect x="1052" y="48" width="14" height="14" fill="#ffffff" stroke="#60717f" stroke-width="2" transform="rotate(45 1059 55)"/><text x="1076" y="60" font-family="Segoe UI, Arial, sans-serif" font-size="12" fill="#52606d">no simulated-trade series</text>
<rect x="1277" y="48" width="14" height="14" fill="#7b559c"/><text x="1301" y="60" font-family="Segoe UI, Arial, sans-serif" font-size="12" fill="#52606d">overlap diagnostic</text>
<rect x="120" y="158" width="1310" height="330" fill="#ffffff" stroke="#d8e0e7"/>
<line x1="120" y1="488.0" x2="1430" y2="488.0" stroke="#e5ebf0" stroke-width="1"/>
<text x="106" y="493.0" text-anchor="end" font-family="Segoe UI, Arial, sans-serif" font-size="12" fill="#60717f">-14</text>
<line x1="120" y1="405.5" x2="1430" y2="405.5" stroke="#e5ebf0" stroke-width="1"/>
<text x="106" y="410.5" text-anchor="end" font-family="Segoe UI, Arial, sans-serif" font-size="12" fill="#60717f">-10</text>
<line x1="120" y1="302.4" x2="1430" y2="302.4" stroke="#e5ebf0" stroke-width="1"/>
<text x="106" y="307.4" text-anchor="end" font-family="Segoe UI, Arial, sans-serif" font-size="12" fill="#60717f">-5</text>
<line x1="120" y1="199.2" x2="1430" y2="199.2" stroke="#526674" stroke-width="2"/>
<text x="106" y="204.2" text-anchor="end" font-family="Segoe UI, Arial, sans-serif" font-size="12" fill="#60717f">0</text>
<circle cx="145.2" cy="356.8" r="8" fill="#b42318" stroke="#ffffff" stroke-width="3"/>
<text x="145.2" y="340.8" text-anchor="middle" font-family="Segoe UI, Arial, sans-serif" font-size="12" font-weight="700" fill="#263744">-7.64</text>
<text x="145.2" y="520" text-anchor="middle" font-family="Segoe UI, Arial, sans-serif" font-size="11" fill="#334653">R7</text>
<circle cx="195.6" cy="443.4" r="8" fill="#b42318" stroke="#ffffff" stroke-width="3"/>
<text x="195.6" y="427.4" text-anchor="middle" font-family="Segoe UI, Arial, sans-serif" font-size="12" font-weight="700" fill="#263744">-11.84</text>
<text x="195.6" y="520" text-anchor="middle" font-family="Segoe UI, Arial, sans-serif" font-size="11" fill="#334653">R8</text>
<rect x="239.0" y="316.0" width="14" height="14" fill="#ffffff" stroke="#60717f" stroke-width="2" transform="rotate(45 246.0 323.0)"/>
<text x="246.0" y="520" text-anchor="middle" font-family="Segoe UI, Arial, sans-serif" font-size="11" fill="#334653">R9</text>
<rect x="289.3" y="316.0" width="14" height="14" fill="#ffffff" stroke="#60717f" stroke-width="2" transform="rotate(45 296.3 323.0)"/>
<text x="296.3" y="520" text-anchor="middle" font-family="Segoe UI, Arial, sans-serif" font-size="11" fill="#334653">R10</text>
<rect x="339.7" y="316.0" width="14" height="14" fill="#ffffff" stroke="#60717f" stroke-width="2" transform="rotate(45 346.7 323.0)"/>
<text x="346.7" y="520" text-anchor="middle" font-family="Segoe UI, Arial, sans-serif" font-size="11" fill="#334653">R11</text>
<rect x="390.1" y="316.0" width="14" height="14" fill="#ffffff" stroke="#60717f" stroke-width="2" transform="rotate(45 397.1 323.0)"/>
<text x="397.1" y="520" text-anchor="middle" font-family="Segoe UI, Arial, sans-serif" font-size="11" fill="#334653">R12</text>
<rect x="439.5" y="327.5" width="16" height="16" fill="#7b559c" stroke="#ffffff" stroke-width="2"/>
<text x="447.5" y="520" text-anchor="middle" font-family="Segoe UI, Arial, sans-serif" font-size="11" fill="#334653">R13</text>
<rect x="489.9" y="324.4" width="16" height="16" fill="#7b559c" stroke="#ffffff" stroke-width="2"/>
<text x="497.9" y="520" text-anchor="middle" font-family="Segoe UI, Arial, sans-serif" font-size="11" fill="#334653">R14</text>
<rect x="541.3" y="316.0" width="14" height="14" fill="#ffffff" stroke="#60717f" stroke-width="2" transform="rotate(45 548.3 323.0)"/>
<text x="548.3" y="520" text-anchor="middle" font-family="Segoe UI, Arial, sans-serif" font-size="11" fill="#334653">R15</text>
<rect x="590.7" y="450.9" width="16" height="16" fill="#7b559c" stroke="#ffffff" stroke-width="2"/>
<text x="598.7" y="520" text-anchor="middle" font-family="Segoe UI, Arial, sans-serif" font-size="11" fill="#334653">R16</text>
<rect x="641.0" y="406.6" width="16" height="16" fill="#7b559c" stroke="#ffffff" stroke-width="2"/>
<text x="649.0" y="520" text-anchor="middle" font-family="Segoe UI, Arial, sans-serif" font-size="11" fill="#334653">R17</text>
<rect x="691.4" y="362.6" width="16" height="16" fill="#7b559c" stroke="#ffffff" stroke-width="2"/>
<text x="699.4" y="520" text-anchor="middle" font-family="Segoe UI, Arial, sans-serif" font-size="11" fill="#334653">R18</text>
<rect x="741.8" y="403.7" width="16" height="16" fill="#7b559c" stroke="#ffffff" stroke-width="2"/>
<text x="749.8" y="520" text-anchor="middle" font-family="Segoe UI, Arial, sans-serif" font-size="11" fill="#334653">R19</text>
<rect x="792.2" y="405.3" width="16" height="16" fill="#7b559c" stroke="#ffffff" stroke-width="2"/>
<text x="800.2" y="520" text-anchor="middle" font-family="Segoe UI, Arial, sans-serif" font-size="11" fill="#334653">R20</text>
<rect x="842.6" y="443.9" width="16" height="16" fill="#7b559c" stroke="#ffffff" stroke-width="2"/>
<text x="850.6" y="520" text-anchor="middle" font-family="Segoe UI, Arial, sans-serif" font-size="11" fill="#334653">R21</text>
<rect x="893.0" y="401.0" width="16" height="16" fill="#7b559c" stroke="#ffffff" stroke-width="2"/>
<text x="901.0" y="520" text-anchor="middle" font-family="Segoe UI, Arial, sans-serif" font-size="11" fill="#334653">R22</text>
<rect x="943.3" y="389.6" width="16" height="16" fill="#7b559c" stroke="#ffffff" stroke-width="2"/>
<text x="951.3" y="520" text-anchor="middle" font-family="Segoe UI, Arial, sans-serif" font-size="11" fill="#334653">R23</text>
<rect x="993.7" y="424.7" width="16" height="16" fill="#7b559c" stroke="#ffffff" stroke-width="2"/>
<text x="1001.7" y="520" text-anchor="middle" font-family="Segoe UI, Arial, sans-serif" font-size="11" fill="#334653">R24</text>
<rect x="1044.1" y="395.2" width="16" height="16" fill="#7b559c" stroke="#ffffff" stroke-width="2"/>
<text x="1052.1" y="520" text-anchor="middle" font-family="Segoe UI, Arial, sans-serif" font-size="11" fill="#334653">R25</text>
<rect x="1094.5" y="405.1" width="16" height="16" fill="#7b559c" stroke="#ffffff" stroke-width="2"/>
<text x="1102.5" y="520" text-anchor="middle" font-family="Segoe UI, Arial, sans-serif" font-size="11" fill="#334653">R26</text>
<rect x="1144.9" y="441.6" width="16" height="16" fill="#7b559c" stroke="#ffffff" stroke-width="2"/>
<text x="1152.9" y="520" text-anchor="middle" font-family="Segoe UI, Arial, sans-serif" font-size="11" fill="#334653">R27</text>
<rect x="1195.3" y="382.5" width="16" height="16" fill="#7b559c" stroke="#ffffff" stroke-width="2"/>
<text x="1203.3" y="520" text-anchor="middle" font-family="Segoe UI, Arial, sans-serif" font-size="11" fill="#334653">R28</text>
<rect x="1245.7" y="369.4" width="16" height="16" fill="#7b559c" stroke="#ffffff" stroke-width="2"/>
<text x="1253.7" y="520" text-anchor="middle" font-family="Segoe UI, Arial, sans-serif" font-size="11" fill="#334653">R29</text>
<rect x="1296.0" y="94.4" width="16" height="16" fill="#7b559c" stroke="#ffffff" stroke-width="2"/>
<text x="1304.0" y="520" text-anchor="middle" font-family="Segoe UI, Arial, sans-serif" font-size="11" fill="#334653">R30</text>
<rect x="1346.4" y="337.3" width="16" height="16" fill="#7b559c" stroke="#ffffff" stroke-width="2"/>
<text x="1354.4" y="520" text-anchor="middle" font-family="Segoe UI, Arial, sans-serif" font-size="11" fill="#334653">R31</text>
<rect x="1396.8" y="413.1" width="16" height="16" fill="#7b559c" stroke="#ffffff" stroke-width="2"/>
<text x="1404.8" y="520" text-anchor="middle" font-family="Segoe UI, Arial, sans-serif" font-size="11" fill="#334653">R32</text>
<polyline points="145.2,356.8 195.6,443.4" fill="none" stroke="#287f9e" stroke-width="4"/>
<text x="42" y="323" transform="rotate(-90 42 323)" text-anchor="middle" font-family="Segoe UI, Arial, sans-serif" font-size="13" fill="#51606d">After-cost basis points</text>
<text x="56" y="574" font-family="Segoe UI, Arial, sans-serif" font-size="13" fill="#65727d">R denotes research round. Windows and units differ by round. This is evidence lineage, not a continuous equity curve or portfolio return series.</text>
</svg>
