<svg xmlns="http://www.w3.org/2000/svg" width="1500" height="660" viewBox="0 0 1500 660" role="img" aria-labelledby="title desc">
<title id="title">After-cost evidence by research round</title>
<desc id="desc">Heterogeneous simulations, overlap diagnostics, and rounds without a trade series use separate marks.</desc>
<rect width="100%" height="100%" fill="#ffffff"/>
<style>text{font-family:"Segoe UI",Arial,sans-serif;letter-spacing:0}.title{font-size:27px;font-weight:700;fill:#17212b}.subtitle{font-size:14px;fill:#52606d}.label{font-size:13px;fill:#263746}.axis{font-size:12px;fill:#60717f}.value{font-size:12px;font-weight:650;fill:#263746}.note{font-size:12px;fill:#65727d}.grid{stroke:#e1e8ed;stroke-width:1}.zero{stroke:#526674;stroke-width:2;stroke-dasharray:6 5}</style>
<text x="56" y="52" class="title">After-cost evidence by research round</text>
<text x="56" y="80" class="subtitle">Heterogeneous simulations, overlap diagnostics, and rounds without a trade series use separate marks.</text>
<circle cx="870" cy="52" r="7" fill="#b42318"/><text x="887" y="57" class="note">simulated-trade mean</text>
<rect x="1050" y="45" width="14" height="14" fill="#7b559c"/><text x="1074" y="57" class="note">overlap diagnostic</text>
<rect x="1250" y="45" width="14" height="14" fill="#ffffff" stroke="#60717f" stroke-width="2" transform="rotate(45 1257 52)"/><text x="1276" y="57" class="note">no trade series</text>
<rect x="120" y="150" width="1310" height="330" fill="#ffffff" stroke="#d8e0e7"/>
<line x1="120" y1="480.0" x2="1430" y2="480.0" class="grid"/>
<text x="106" y="484.0" text-anchor="end" class="axis">-14.3</text>
<line x1="120" y1="315.0" x2="1430" y2="315.0" class="grid"/>
<text x="106" y="319.0" text-anchor="end" class="axis">-4.0</text>
<line x1="120" y1="249.9" x2="1430" y2="249.9" class="zero"/>
<text x="106" y="253.9" text-anchor="end" class="axis">+0.0</text>
<line x1="120" y1="150.0" x2="1430" y2="150.0" class="grid"/>
<text x="106" y="154.0" text-anchor="end" class="axis">+6.2</text>
<text x="104" y="556" text-anchor="end" class="axis">no series</text>
<circle cx="141.1" cy="373.0" r="8" fill="#b42318" stroke="#ffffff" stroke-width="2"/>
<text x="141.1" y="358.0" text-anchor="middle" class="value">-7.64</text>
<text x="141.1" y="589" text-anchor="middle" class="axis">R7</text>
<circle cx="183.4" cy="440.8" r="8" fill="#b42318" stroke="#ffffff" stroke-width="2"/>
<text x="183.4" y="425.8" text-anchor="middle" class="value">-11.84</text>
<text x="183.4" y="589" text-anchor="middle" class="axis">R8</text>
<rect x="218.6" y="545.0" width="14" height="14" fill="#ffffff" stroke="#60717f" stroke-width="2" transform="rotate(45 225.6 552.0)"/>
<text x="225.6" y="589" text-anchor="middle" class="axis">R9</text>
<rect x="260.9" y="545.0" width="14" height="14" fill="#ffffff" stroke="#60717f" stroke-width="2" transform="rotate(45 267.9 552.0)"/>
<text x="267.9" y="589" text-anchor="middle" class="axis">R10</text>
<rect x="303.2" y="545.0" width="14" height="14" fill="#ffffff" stroke="#60717f" stroke-width="2" transform="rotate(45 310.2 552.0)"/>
<text x="310.2" y="589" text-anchor="middle" class="axis">R11</text>
<rect x="345.4" y="545.0" width="14" height="14" fill="#ffffff" stroke="#60717f" stroke-width="2" transform="rotate(45 352.4 552.0)"/>
<text x="352.4" y="589" text-anchor="middle" class="axis">R12</text>
<rect x="387.7" y="349.4" width="14" height="14" fill="#7b559c"/>
<text x="394.7" y="589" text-anchor="middle" class="axis">R13</text>
<rect x="429.9" y="347.0" width="14" height="14" fill="#7b559c"/>
<text x="436.9" y="589" text-anchor="middle" class="axis">R14</text>
<rect x="472.2" y="545.0" width="14" height="14" fill="#ffffff" stroke="#60717f" stroke-width="2" transform="rotate(45 479.2 552.0)"/>
<text x="479.2" y="589" text-anchor="middle" class="axis">R15</text>
<rect x="514.5" y="445.8" width="14" height="14" fill="#7b559c"/>
<text x="521.5" y="589" text-anchor="middle" class="axis">R16</text>
<rect x="556.7" y="411.2" width="14" height="14" fill="#7b559c"/>
<text x="563.7" y="589" text-anchor="middle" class="axis">R17</text>
<rect x="599.0" y="376.9" width="14" height="14" fill="#7b559c"/>
<text x="606.0" y="589" text-anchor="middle" class="axis">R18</text>
<rect x="641.2" y="409.0" width="14" height="14" fill="#7b559c"/>
<text x="648.2" y="589" text-anchor="middle" class="axis">R19</text>
<rect x="683.5" y="410.2" width="14" height="14" fill="#7b559c"/>
<text x="690.5" y="589" text-anchor="middle" class="axis">R20</text>
<rect x="725.7" y="440.4" width="14" height="14" fill="#7b559c"/>
<text x="732.7" y="589" text-anchor="middle" class="axis">R21</text>
<rect x="768.0" y="406.9" width="14" height="14" fill="#7b559c"/>
<text x="775.0" y="589" text-anchor="middle" class="axis">R22</text>
<rect x="810.3" y="397.9" width="14" height="14" fill="#7b559c"/>
<text x="817.3" y="589" text-anchor="middle" class="axis">R23</text>
<rect x="852.5" y="425.4" width="14" height="14" fill="#7b559c"/>
<text x="859.5" y="589" text-anchor="middle" class="axis">R24</text>
<rect x="894.8" y="402.3" width="14" height="14" fill="#7b559c"/>
<text x="901.8" y="589" text-anchor="middle" class="axis">R25</text>
<rect x="937.0" y="410.1" width="14" height="14" fill="#7b559c"/>
<text x="944.0" y="589" text-anchor="middle" class="axis">R26</text>
<rect x="979.3" y="438.6" width="14" height="14" fill="#7b559c"/>
<text x="986.3" y="589" text-anchor="middle" class="axis">R27</text>
<rect x="1021.5" y="392.4" width="14" height="14" fill="#7b559c"/>
<text x="1028.5" y="589" text-anchor="middle" class="axis">R28</text>
<rect x="1063.8" y="382.2" width="14" height="14" fill="#7b559c"/>
<text x="1070.8" y="589" text-anchor="middle" class="axis">R29</text>
<rect x="1106.1" y="167.2" width="14" height="14" fill="#7b559c"/>
<text x="1113.1" y="589" text-anchor="middle" class="axis">R30</text>
<rect x="1148.3" y="357.0" width="14" height="14" fill="#7b559c"/>
<text x="1155.3" y="589" text-anchor="middle" class="axis">R31</text>
<rect x="1190.6" y="416.3" width="14" height="14" fill="#7b559c"/>
<text x="1197.6" y="589" text-anchor="middle" class="axis">R32</text>
<rect x="1232.8" y="448.8" width="14" height="14" fill="#7b559c"/>
<text x="1239.8" y="589" text-anchor="middle" class="axis">R33</text>
<rect x="1275.1" y="416.3" width="14" height="14" fill="#7b559c"/>
<text x="1282.1" y="589" text-anchor="middle" class="axis">R34</text>
<rect x="1317.4" y="234.5" width="14" height="14" fill="#7b559c"/>
<text x="1324.4" y="589" text-anchor="middle" class="axis">R35</text>
<rect x="1359.6" y="404.2" width="14" height="14" fill="#7b559c"/>
<text x="1366.6" y="589" text-anchor="middle" class="axis">R36</text>
<rect x="1401.9" y="545.0" width="14" height="14" fill="#ffffff" stroke="#60717f" stroke-width="2" transform="rotate(45 1408.9 552.0)"/>
<text x="1408.9" y="589" text-anchor="middle" class="axis">R37</text>
<text x="56" y="632" class="note">Windows and units differ by round. This is evidence lineage, not an equity curve or portfolio return series.</text>
</svg>
