<svg xmlns="http://www.w3.org/2000/svg" width="1500" height="620" viewBox="0 0 1500 620" role="img" aria-labelledby="title desc">
<title id="title">After-cost evidence by research round</title>
<desc id="desc">Executed means, overlapping-forecast diagnostics, and rounds with no executable series use distinct markers. Rounds 15 through 19 produced no evaluation trades.</desc>
<rect width="100%" height="100%" fill="#ffffff"/>
<text x="56" y="54" font-family="Segoe UI, Arial, sans-serif" font-size="28" font-weight="700" fill="#17212b">After-cost evidence by research round</text>
<text x="56" y="84" font-family="Segoe UI, Arial, sans-serif" font-size="15" fill="#52606d">Distinct markers prevent diagnostics or abstention from being presented as an executed trade mean.</text>
<circle cx="900" cy="55" r="7" fill="#b42318"/><text x="917" y="60" font-family="Segoe UI, Arial, sans-serif" font-size="12" fill="#52606d">executed mean</text>
<rect x="1052" y="48" width="14" height="14" fill="#ffffff" stroke="#60717f" stroke-width="2" transform="rotate(45 1059 55)"/><text x="1076" y="60" font-family="Segoe UI, Arial, sans-serif" font-size="12" fill="#52606d">no executable series</text>
<rect x="1277" y="48" width="14" height="14" fill="#7b559c"/><text x="1301" y="60" font-family="Segoe UI, Arial, sans-serif" font-size="12" fill="#52606d">overlap diagnostic</text>
<rect x="120" y="158" width="1310" height="330" fill="#ffffff" stroke="#d8e0e7"/>
<line x1="120" y1="488.0" x2="1430" y2="488.0" stroke="#e5ebf0" stroke-width="1"/>
<text x="106" y="493.0" text-anchor="end" font-family="Segoe UI, Arial, sans-serif" font-size="12" fill="#60717f">-14</text>
<line x1="120" y1="405.5" x2="1430" y2="405.5" stroke="#e5ebf0" stroke-width="1"/>
<text x="106" y="410.5" text-anchor="end" font-family="Segoe UI, Arial, sans-serif" font-size="12" fill="#60717f">-10</text>
<line x1="120" y1="302.4" x2="1430" y2="302.4" stroke="#e5ebf0" stroke-width="1"/>
<text x="106" y="307.4" text-anchor="end" font-family="Segoe UI, Arial, sans-serif" font-size="12" fill="#60717f">-5</text>
<line x1="120" y1="199.2" x2="1430" y2="199.2" stroke="#526674" stroke-width="2"/>
<text x="106" y="204.2" text-anchor="end" font-family="Segoe UI, Arial, sans-serif" font-size="12" fill="#60717f">0</text>
<circle cx="170.4" cy="356.8" r="8" fill="#b42318" stroke="#ffffff" stroke-width="3"/>
<text x="170.4" y="340.8" text-anchor="middle" font-family="Segoe UI, Arial, sans-serif" font-size="12" font-weight="700" fill="#263744">-7.64</text>
<text x="170.4" y="520" text-anchor="middle" font-family="Segoe UI, Arial, sans-serif" font-size="13" fill="#334653">Round 7</text>
<circle cx="271.2" cy="443.4" r="8" fill="#b42318" stroke="#ffffff" stroke-width="3"/>
<text x="271.2" y="427.4" text-anchor="middle" font-family="Segoe UI, Arial, sans-serif" font-size="12" font-weight="700" fill="#263744">-11.84</text>
<text x="271.2" y="520" text-anchor="middle" font-family="Segoe UI, Arial, sans-serif" font-size="13" fill="#334653">Round 8</text>
<rect x="364.9" y="316.0" width="14" height="14" fill="#ffffff" stroke="#60717f" stroke-width="2" transform="rotate(45 371.9 323.0)"/>
<text x="371.9" y="520" text-anchor="middle" font-family="Segoe UI, Arial, sans-serif" font-size="13" fill="#334653">Round 9</text>
<rect x="465.7" y="316.0" width="14" height="14" fill="#ffffff" stroke="#60717f" stroke-width="2" transform="rotate(45 472.7 323.0)"/>
<text x="472.7" y="520" text-anchor="middle" font-family="Segoe UI, Arial, sans-serif" font-size="13" fill="#334653">Round 10</text>
<rect x="566.5" y="316.0" width="14" height="14" fill="#ffffff" stroke="#60717f" stroke-width="2" transform="rotate(45 573.5 323.0)"/>
<text x="573.5" y="520" text-anchor="middle" font-family="Segoe UI, Arial, sans-serif" font-size="13" fill="#334653">Round 11</text>
<rect x="667.2" y="316.0" width="14" height="14" fill="#ffffff" stroke="#60717f" stroke-width="2" transform="rotate(45 674.2 323.0)"/>
<text x="674.2" y="520" text-anchor="middle" font-family="Segoe UI, Arial, sans-serif" font-size="13" fill="#334653">Round 12</text>
<rect x="767.0" y="327.5" width="16" height="16" fill="#7b559c" stroke="#ffffff" stroke-width="2"/>
<text x="775.0" y="520" text-anchor="middle" font-family="Segoe UI, Arial, sans-serif" font-size="13" fill="#334653">Round 13</text>
<rect x="867.8" y="324.4" width="16" height="16" fill="#7b559c" stroke="#ffffff" stroke-width="2"/>
<text x="875.8" y="520" text-anchor="middle" font-family="Segoe UI, Arial, sans-serif" font-size="13" fill="#334653">Round 14</text>
<rect x="969.5" y="316.0" width="14" height="14" fill="#ffffff" stroke="#60717f" stroke-width="2" transform="rotate(45 976.5 323.0)"/>
<text x="976.5" y="520" text-anchor="middle" font-family="Segoe UI, Arial, sans-serif" font-size="13" fill="#334653">Round 15</text>
<rect x="1069.3" y="450.9" width="16" height="16" fill="#7b559c" stroke="#ffffff" stroke-width="2"/>
<text x="1077.3" y="520" text-anchor="middle" font-family="Segoe UI, Arial, sans-serif" font-size="13" fill="#334653">Round 16</text>
<rect x="1170.1" y="406.6" width="16" height="16" fill="#7b559c" stroke="#ffffff" stroke-width="2"/>
<text x="1178.1" y="520" text-anchor="middle" font-family="Segoe UI, Arial, sans-serif" font-size="13" fill="#334653">Round 17</text>
<rect x="1270.8" y="362.6" width="16" height="16" fill="#7b559c" stroke="#ffffff" stroke-width="2"/>
<text x="1278.8" y="520" text-anchor="middle" font-family="Segoe UI, Arial, sans-serif" font-size="13" fill="#334653">Round 18</text>
<rect x="1371.6" y="403.7" width="16" height="16" fill="#7b559c" stroke="#ffffff" stroke-width="2"/>
<text x="1379.6" y="520" text-anchor="middle" font-family="Segoe UI, Arial, sans-serif" font-size="13" fill="#334653">Round 19</text>
<polyline points="170.4,356.8 271.2,443.4" fill="none" stroke="#287f9e" stroke-width="4"/>
<text x="42" y="323" transform="rotate(-90 42 323)" text-anchor="middle" font-family="Segoe UI, Arial, sans-serif" font-size="13" fill="#51606d">After-cost basis points</text>
<text x="56" y="574" font-family="Segoe UI, Arial, sans-serif" font-size="13" fill="#65727d">Windows and units differ by round. This is evidence lineage, not a continuous equity curve or portfolio return series.</text>
</svg>
