<svg xmlns="http://www.w3.org/2000/svg" width="1200" height="700" viewBox="0 0 1200 700" role="img">
<title>Optimization research progression</title>
<desc>Best descriptive net bps/trade by round; datasets and policies differ, all shown values remain non-promotable</desc>
<rect width="1200" height="700" fill="#0b1220"/>
<text x="64" y="58" fill="#f8fafc" font-family="Segoe UI,Arial,sans-serif" font-size="28" font-weight="700">Optimization research progression</text>
<text x="64" y="88" fill="#cbd5e1" font-family="Segoe UI,Arial,sans-serif" font-size="15">Best descriptive net bps/trade by round; datasets and policies differ, all shown values remain non-promotable</text>
<line x1="105" y1="580.0" x2="1145" y2="580.0" stroke="#334155"/>
<text x="91" y="585.0" text-anchor="end" fill="#cbd5e1" font-family="Segoe UI,Arial,sans-serif" font-size="13">-20.1</text>
<line x1="105" y1="491.0" x2="1145" y2="491.0" stroke="#334155"/>
<text x="91" y="496.0" text-anchor="end" fill="#cbd5e1" font-family="Segoe UI,Arial,sans-serif" font-size="13">-14.8</text>
<line x1="105" y1="402.0" x2="1145" y2="402.0" stroke="#334155"/>
<text x="91" y="407.0" text-anchor="end" fill="#cbd5e1" font-family="Segoe UI,Arial,sans-serif" font-size="13">-9.5</text>
<line x1="105" y1="313.0" x2="1145" y2="313.0" stroke="#334155"/>
<text x="91" y="318.0" text-anchor="end" fill="#cbd5e1" font-family="Segoe UI,Arial,sans-serif" font-size="13">-4.2</text>
<line x1="105" y1="224.0" x2="1145" y2="224.0" stroke="#334155"/>
<text x="91" y="229.0" text-anchor="end" fill="#cbd5e1" font-family="Segoe UI,Arial,sans-serif" font-size="13">1.1</text>
<line x1="105" y1="135.0" x2="1145" y2="135.0" stroke="#334155"/>
<text x="91" y="140.0" text-anchor="end" fill="#cbd5e1" font-family="Segoe UI,Arial,sans-serif" font-size="13">6.4</text>
<text x="105.0" y="614" text-anchor="middle" fill="#cbd5e1" font-family="Segoe UI,Arial,sans-serif" font-size="12">12</text>
<text x="1145.0" y="614" text-anchor="middle" fill="#cbd5e1" font-family="Segoe UI,Arial,sans-serif" font-size="12">52</text>
<text x="313.0" y="614" text-anchor="middle" fill="#cbd5e1" font-family="Segoe UI,Arial,sans-serif" font-size="12">20</text>
<text x="573.0" y="614" text-anchor="middle" fill="#cbd5e1" font-family="Segoe UI,Arial,sans-serif" font-size="12">30</text>
<text x="833.0" y="614" text-anchor="middle" fill="#cbd5e1" font-family="Segoe UI,Arial,sans-serif" font-size="12">40</text>
<text x="1093.0" y="614" text-anchor="middle" fill="#cbd5e1" font-family="Segoe UI,Arial,sans-serif" font-size="12">50</text>
<path d="M 105.0 269.4 L 911.0 240.1 L 937.0 242.1 L 963.0 234.7 L 989.0 232.1 L 1015.0 234.4 L 1041.0 243.7 L 1067.0 241.9 L 1093.0 536.9 L 1145.0 178.1" fill="none" stroke="#14b8a6" stroke-width="3" stroke-linejoin="round"/>
<circle cx="105.0" cy="269.4" r="4" fill="#14b8a6"/>
<circle cx="911.0" cy="240.1" r="4" fill="#14b8a6"/>
<circle cx="937.0" cy="242.1" r="4" fill="#14b8a6"/>
<circle cx="963.0" cy="234.7" r="4" fill="#14b8a6"/>
<circle cx="989.0" cy="232.1" r="4" fill="#14b8a6"/>
<circle cx="1015.0" cy="234.4" r="4" fill="#14b8a6"/>
<circle cx="1041.0" cy="243.7" r="4" fill="#14b8a6"/>
<circle cx="1067.0" cy="241.9" r="4" fill="#14b8a6"/>
<circle cx="1093.0" cy="536.9" r="4" fill="#14b8a6"/>
<circle cx="1145.0" cy="178.1" r="4" fill="#14b8a6"/>
<rect x="105" y="657" width="16" height="4" fill="#14b8a6"/>
<text x="129" y="665" fill="#cbd5e1" font-family="Segoe UI,Arial,sans-serif" font-size="13">Descriptive best policy</text>
<text transform="translate(25 357.5) rotate(-90)" text-anchor="middle" fill="#cbd5e1" font-family="Segoe UI,Arial,sans-serif" font-size="14">Net bps per trade</text>
</svg>
