<svg xmlns="http://www.w3.org/2000/svg" width="1500" height="660" viewBox="0 0 1500 660" role="img" aria-labelledby="title desc">
<title id="title">After-cost evidence by research round</title>
<desc id="desc">Heterogeneous simulations, overlap diagnostics, and rounds without a trade series use separate marks.</desc>
<rect width="100%" height="100%" fill="#ffffff"/>
<style>text{font-family:"Segoe UI",Arial,sans-serif;letter-spacing:0}.title{font-size:27px;font-weight:700;fill:#17212b}.subtitle{font-size:14px;fill:#52606d}.label{font-size:13px;fill:#263746}.axis{font-size:12px;fill:#60717f}.value{font-size:12px;font-weight:650;fill:#263746}.note{font-size:12px;fill:#65727d}.grid{stroke:#e1e8ed;stroke-width:1}.zero{stroke:#526674;stroke-width:2;stroke-dasharray:6 5}</style>
<text x="56" y="52" class="title">After-cost evidence by research round</text>
<text x="56" y="80" class="subtitle">Heterogeneous simulations, overlap diagnostics, and rounds without a trade series use separate marks.</text>
<circle cx="870" cy="52" r="7" fill="#b42318"/><text x="887" y="57" class="note">simulated-trade mean</text>
<rect x="1050" y="45" width="14" height="14" fill="#7b559c"/><text x="1074" y="57" class="note">overlap diagnostic</text>
<rect x="1250" y="45" width="14" height="14" fill="#ffffff" stroke="#60717f" stroke-width="2" transform="rotate(45 1257 52)"/><text x="1276" y="57" class="note">no trade series</text>
<rect x="120" y="150" width="1310" height="330" fill="#ffffff" stroke="#d8e0e7"/>
<line x1="120" y1="480.0" x2="1430" y2="480.0" class="grid"/>
<text x="106" y="484.0" text-anchor="end" class="axis">-14.3</text>
<line x1="120" y1="315.0" x2="1430" y2="315.0" class="grid"/>
<text x="106" y="319.0" text-anchor="end" class="axis">-4.0</text>
<line x1="120" y1="249.9" x2="1430" y2="249.9" class="zero"/>
<text x="106" y="253.9" text-anchor="end" class="axis">+0.0</text>
<line x1="120" y1="150.0" x2="1430" y2="150.0" class="grid"/>
<text x="106" y="154.0" text-anchor="end" class="axis">+6.2</text>
<text x="104" y="556" text-anchor="end" class="axis">no series</text>
<circle cx="140.5" cy="373.0" r="8" fill="#b42318" stroke="#ffffff" stroke-width="2"/>
<text x="140.5" y="358.0" text-anchor="middle" class="value">-7.64</text>
<text x="140.5" y="589" text-anchor="middle" class="axis">R7</text>
<circle cx="181.4" cy="440.8" r="8" fill="#b42318" stroke="#ffffff" stroke-width="2"/>
<text x="181.4" y="425.8" text-anchor="middle" class="value">-11.84</text>
<text x="181.4" y="589" text-anchor="middle" class="axis">R8</text>
<rect x="215.3" y="545.0" width="14" height="14" fill="#ffffff" stroke="#60717f" stroke-width="2" transform="rotate(45 222.3 552.0)"/>
<text x="222.3" y="589" text-anchor="middle" class="axis">R9</text>
<rect x="256.3" y="545.0" width="14" height="14" fill="#ffffff" stroke="#60717f" stroke-width="2" transform="rotate(45 263.3 552.0)"/>
<text x="263.3" y="589" text-anchor="middle" class="axis">R10</text>
<rect x="297.2" y="545.0" width="14" height="14" fill="#ffffff" stroke="#60717f" stroke-width="2" transform="rotate(45 304.2 552.0)"/>
<text x="304.2" y="589" text-anchor="middle" class="axis">R11</text>
<rect x="338.2" y="545.0" width="14" height="14" fill="#ffffff" stroke="#60717f" stroke-width="2" transform="rotate(45 345.2 552.0)"/>
<text x="345.2" y="589" text-anchor="middle" class="axis">R12</text>
<rect x="379.1" y="349.4" width="14" height="14" fill="#7b559c"/>
<text x="386.1" y="589" text-anchor="middle" class="axis">R13</text>
<rect x="420.0" y="347.0" width="14" height="14" fill="#7b559c"/>
<text x="427.0" y="589" text-anchor="middle" class="axis">R14</text>
<rect x="461.0" y="545.0" width="14" height="14" fill="#ffffff" stroke="#60717f" stroke-width="2" transform="rotate(45 468.0 552.0)"/>
<text x="468.0" y="589" text-anchor="middle" class="axis">R15</text>
<rect x="501.9" y="445.8" width="14" height="14" fill="#7b559c"/>
<text x="508.9" y="589" text-anchor="middle" class="axis">R16</text>
<rect x="542.8" y="411.2" width="14" height="14" fill="#7b559c"/>
<text x="549.8" y="589" text-anchor="middle" class="axis">R17</text>
<rect x="583.8" y="376.9" width="14" height="14" fill="#7b559c"/>
<text x="590.8" y="589" text-anchor="middle" class="axis">R18</text>
<rect x="624.7" y="409.0" width="14" height="14" fill="#7b559c"/>
<text x="631.7" y="589" text-anchor="middle" class="axis">R19</text>
<rect x="665.7" y="410.2" width="14" height="14" fill="#7b559c"/>
<text x="672.7" y="589" text-anchor="middle" class="axis">R20</text>
<rect x="706.6" y="440.4" width="14" height="14" fill="#7b559c"/>
<text x="713.6" y="589" text-anchor="middle" class="axis">R21</text>
<rect x="747.5" y="406.9" width="14" height="14" fill="#7b559c"/>
<text x="754.5" y="589" text-anchor="middle" class="axis">R22</text>
<rect x="788.5" y="397.9" width="14" height="14" fill="#7b559c"/>
<text x="795.5" y="589" text-anchor="middle" class="axis">R23</text>
<rect x="829.4" y="425.4" width="14" height="14" fill="#7b559c"/>
<text x="836.4" y="589" text-anchor="middle" class="axis">R24</text>
<rect x="870.3" y="402.3" width="14" height="14" fill="#7b559c"/>
<text x="877.3" y="589" text-anchor="middle" class="axis">R25</text>
<rect x="911.3" y="410.1" width="14" height="14" fill="#7b559c"/>
<text x="918.3" y="589" text-anchor="middle" class="axis">R26</text>
<rect x="952.2" y="438.6" width="14" height="14" fill="#7b559c"/>
<text x="959.2" y="589" text-anchor="middle" class="axis">R27</text>
<rect x="993.2" y="392.4" width="14" height="14" fill="#7b559c"/>
<text x="1000.2" y="589" text-anchor="middle" class="axis">R28</text>
<rect x="1034.1" y="382.2" width="14" height="14" fill="#7b559c"/>
<text x="1041.1" y="589" text-anchor="middle" class="axis">R29</text>
<rect x="1075.0" y="167.2" width="14" height="14" fill="#7b559c"/>
<text x="1082.0" y="589" text-anchor="middle" class="axis">R30</text>
<rect x="1116.0" y="357.0" width="14" height="14" fill="#7b559c"/>
<text x="1123.0" y="589" text-anchor="middle" class="axis">R31</text>
<rect x="1156.9" y="416.3" width="14" height="14" fill="#7b559c"/>
<text x="1163.9" y="589" text-anchor="middle" class="axis">R32</text>
<rect x="1197.8" y="448.8" width="14" height="14" fill="#7b559c"/>
<text x="1204.8" y="589" text-anchor="middle" class="axis">R33</text>
<rect x="1238.8" y="416.3" width="14" height="14" fill="#7b559c"/>
<text x="1245.8" y="589" text-anchor="middle" class="axis">R34</text>
<rect x="1279.7" y="234.5" width="14" height="14" fill="#7b559c"/>
<text x="1286.7" y="589" text-anchor="middle" class="axis">R35</text>
<rect x="1320.7" y="404.2" width="14" height="14" fill="#7b559c"/>
<text x="1327.7" y="589" text-anchor="middle" class="axis">R36</text>
<rect x="1361.6" y="545.0" width="14" height="14" fill="#ffffff" stroke="#60717f" stroke-width="2" transform="rotate(45 1368.6 552.0)"/>
<text x="1368.6" y="589" text-anchor="middle" class="axis">R37</text>
<circle cx="1409.5" cy="314.2" r="8" fill="#b42318" stroke="#ffffff" stroke-width="2"/>
<text x="1409.5" y="299.2" text-anchor="middle" class="value">-3.99</text>
<text x="1409.5" y="589" text-anchor="middle" class="axis">R38</text>
<text x="56" y="632" class="note">Windows and units differ by round. This is evidence lineage, not an equity curve or portfolio return series.</text>
</svg>
