<svg xmlns="http://www.w3.org/2000/svg" width="1500" height="620" viewBox="0 0 1500 620" role="img" aria-labelledby="title desc">
<title id="title">After-cost evidence by research round</title>
<desc id="desc">Rounds seven and eight show means from executable trade traces. Rounds nine through twelve produced no executable series. Round thirteen shows a top-500 overlapping-forecast diagnostic and is not a trade result.</desc>
<rect width="100%" height="100%" fill="#ffffff"/>
<text x="56" y="54" font-family="Segoe UI, Arial, sans-serif" font-size="28" font-weight="700" fill="#17212b">After-cost evidence by research round</text>
<text x="56" y="84" font-family="Segoe UI, Arial, sans-serif" font-size="15" fill="#52606d">Distinct markers prevent an overlapping-forecast diagnostic from being presented as an executed trade mean.</text>
<circle cx="920" cy="55" r="7" fill="#b42318"/><text x="937" y="60" font-family="Segoe UI, Arial, sans-serif" font-size="12" fill="#52606d">executed mean</text>
<rect x="1077" y="48" width="14" height="14" fill="#ffffff" stroke="#60717f" stroke-width="2" transform="rotate(45 1084 55)"/><text x="1101" y="60" font-family="Segoe UI, Arial, sans-serif" font-size="12" fill="#52606d">no executable series</text>
<rect x="1290" y="48" width="14" height="14" fill="#7b559c"/><text x="1314" y="60" font-family="Segoe UI, Arial, sans-serif" font-size="12" fill="#52606d">overlap diagnostic</text>
<rect x="120" y="158" width="1310" height="330" fill="#ffffff" stroke="#d8e0e7"/>
<line x1="120" y1="488.0" x2="1430" y2="488.0" stroke="#e5ebf0" stroke-width="1"/>
<text x="106" y="493.0" text-anchor="end" font-family="Segoe UI, Arial, sans-serif" font-size="12" fill="#60717f">-14</text>
<line x1="120" y1="405.5" x2="1430" y2="405.5" stroke="#e5ebf0" stroke-width="1"/>
<text x="106" y="410.5" text-anchor="end" font-family="Segoe UI, Arial, sans-serif" font-size="12" fill="#60717f">-10</text>
<line x1="120" y1="302.4" x2="1430" y2="302.4" stroke="#e5ebf0" stroke-width="1"/>
<text x="106" y="307.4" text-anchor="end" font-family="Segoe UI, Arial, sans-serif" font-size="12" fill="#60717f">-5</text>
<line x1="120" y1="199.2" x2="1430" y2="199.2" stroke="#526674" stroke-width="2"/>
<text x="106" y="204.2" text-anchor="end" font-family="Segoe UI, Arial, sans-serif" font-size="12" fill="#60717f">0</text>
<circle cx="201.9" cy="356.8" r="8" fill="#b42318" stroke="#ffffff" stroke-width="3"/>
<text x="201.9" y="340.8" text-anchor="middle" font-family="Segoe UI, Arial, sans-serif" font-size="13" font-weight="700" fill="#263744">-7.64 bps</text>
<text x="201.9" y="520" text-anchor="middle" font-family="Segoe UI, Arial, sans-serif" font-size="13" fill="#334653">Round 7</text>
<circle cx="365.6" cy="443.4" r="8" fill="#b42318" stroke="#ffffff" stroke-width="3"/>
<text x="365.6" y="427.4" text-anchor="middle" font-family="Segoe UI, Arial, sans-serif" font-size="13" font-weight="700" fill="#263744">-11.84 bps</text>
<text x="365.6" y="520" text-anchor="middle" font-family="Segoe UI, Arial, sans-serif" font-size="13" fill="#334653">Round 8</text>
<line x1="529.4" y1="190" x2="529.4" y2="456" stroke="#a7b2bb" stroke-width="2" stroke-dasharray="5 6"/>
<rect x="522.4" y="316.0" width="14" height="14" fill="#ffffff" stroke="#60717f" stroke-width="2" transform="rotate(45 529.4 323.0)"/>
<text x="529.4" y="520" text-anchor="middle" font-family="Segoe UI, Arial, sans-serif" font-size="13" fill="#334653">Round 9</text>
<line x1="693.1" y1="190" x2="693.1" y2="456" stroke="#a7b2bb" stroke-width="2" stroke-dasharray="5 6"/>
<rect x="686.1" y="316.0" width="14" height="14" fill="#ffffff" stroke="#60717f" stroke-width="2" transform="rotate(45 693.1 323.0)"/>
<text x="693.1" y="520" text-anchor="middle" font-family="Segoe UI, Arial, sans-serif" font-size="13" fill="#334653">Round 10</text>
<line x1="856.9" y1="190" x2="856.9" y2="456" stroke="#a7b2bb" stroke-width="2" stroke-dasharray="5 6"/>
<rect x="849.9" y="316.0" width="14" height="14" fill="#ffffff" stroke="#60717f" stroke-width="2" transform="rotate(45 856.9 323.0)"/>
<text x="856.9" y="520" text-anchor="middle" font-family="Segoe UI, Arial, sans-serif" font-size="13" fill="#334653">Round 11</text>
<line x1="1020.6" y1="190" x2="1020.6" y2="456" stroke="#a7b2bb" stroke-width="2" stroke-dasharray="5 6"/>
<rect x="1013.6" y="316.0" width="14" height="14" fill="#ffffff" stroke="#60717f" stroke-width="2" transform="rotate(45 1020.6 323.0)"/>
<text x="1020.6" y="520" text-anchor="middle" font-family="Segoe UI, Arial, sans-serif" font-size="13" fill="#334653">Round 12</text>
<line x1="1184.4" y1="158" x2="1184.4" y2="488" stroke="#bca8cc" stroke-width="2" stroke-dasharray="5 6"/>
<rect x="1176.4" y="327.5" width="16" height="16" fill="#7b559c" stroke="#ffffff" stroke-width="2"/>
<text x="1184.4" y="318.5" text-anchor="middle" font-family="Segoe UI, Arial, sans-serif" font-size="13" font-weight="700" fill="#5f3e78">-6.61 bps diagnostic</text>
<text x="1184.4" y="520" text-anchor="middle" font-family="Segoe UI, Arial, sans-serif" font-size="13" fill="#334653">Round 13</text>
<line x1="1348.1" y1="158" x2="1348.1" y2="488" stroke="#bca8cc" stroke-width="2" stroke-dasharray="5 6"/>
<rect x="1340.1" y="324.4" width="16" height="16" fill="#7b559c" stroke="#ffffff" stroke-width="2"/>
<text x="1348.1" y="315.4" text-anchor="middle" font-family="Segoe UI, Arial, sans-serif" font-size="13" font-weight="700" fill="#5f3e78">-6.46 bps diagnostic</text>
<text x="1348.1" y="520" text-anchor="middle" font-family="Segoe UI, Arial, sans-serif" font-size="13" fill="#334653">Round 14</text>
<polyline points="201.9,356.8 365.6,443.4" fill="none" stroke="#287f9e" stroke-width="4"/>
<circle cx="201.9" cy="356.8" r="8" fill="#b42318" stroke="#ffffff" stroke-width="3"/>
<circle cx="365.6" cy="443.4" r="8" fill="#b42318" stroke="#ffffff" stroke-width="3"/>
<text x="42" y="323" transform="rotate(-90 42 323)" text-anchor="middle" font-family="Segoe UI, Arial, sans-serif" font-size="13" fill="#51606d">After-cost basis points</text>
<text x="56" y="574" font-family="Segoe UI, Arial, sans-serif" font-size="13" fill="#65727d">Windows and units differ by round. Values are source-bound evidence, not a continuous equity curve or directly comparable portfolio returns.</text>
</svg>
