<svg xmlns="http://www.w3.org/2000/svg" width="1480" height="520" viewBox="0 0 1480 520" role="img" aria-labelledby="title desc">
<title id="title">Rolling refits did not recover after-cost expectancy</title>
<desc id="desc">Aggregate 2025-H1 day-block intervals; all four activity-complete candidates failed economics.</desc>
<rect width="100%" height="100%" fill="#ffffff"/>
<style>text{font-family:"Segoe UI",Arial,sans-serif;letter-spacing:0}.title{font-size:27px;font-weight:700;fill:#17212b}.subtitle{font-size:14px;fill:#52606d}.label{font-size:13px;fill:#263746}.axis{font-size:12px;fill:#60717f}.value{font-size:12px;font-weight:650;fill:#263746}.note{font-size:12px;fill:#65727d}.grid{stroke:#e1e8ed;stroke-width:1}.zero{stroke:#526674;stroke-width:2;stroke-dasharray:6 5}</style>
<text x="56" y="52" class="title">Rolling refits did not recover after-cost expectancy</text>
<text x="56" y="80" class="subtitle">Aggregate 2025-H1 day-block intervals; all four activity-complete candidates failed economics.</text>
<line x1="505.1" y1="116" x2="505.1" y2="396" class="grid"/>
<text x="505.1" y="421" text-anchor="middle" class="axis">-15</text>
<line x1="721.3" y1="116" x2="721.3" y2="396" class="grid"/>
<text x="721.3" y="421" text-anchor="middle" class="axis">-10</text>
<line x1="937.4" y1="116" x2="937.4" y2="396" class="grid"/>
<text x="937.4" y="421" text-anchor="middle" class="axis">-5</text>
<line x1="1153.5" y1="116" x2="1153.5" y2="396" class="grid"/>
<text x="1153.5" y="421" text-anchor="middle" class="axis">+0</text>
<line x1="1153.5" y1="116" x2="1153.5" y2="396" class="zero"/>
<text x="342" y="145" text-anchor="end" class="label">shared hurdle / utility / 120m</text>
<line x1="488.5" y1="140" x2="950.9" y2="140" stroke="#94a3b8" stroke-width="8" stroke-linecap="round"/>
<circle cx="725.2" cy="140" r="8" fill="#b42318"/>
<text x="1410" y="145" text-anchor="end" class="value">-9.91 bps; n=2,796</text>
<text x="342" y="209" text-anchor="end" class="label">shared hurdle / equal / 120m</text>
<line x1="446.5" y1="204" x2="863.2" y2="204" stroke="#94a3b8" stroke-width="8" stroke-linecap="round"/>
<circle cx="666.6" cy="204" r="8" fill="#b42318"/>
<text x="1410" y="209" text-anchor="end" class="value">-11.27 bps; n=3,729</text>
<text x="342" y="273" text-anchor="end" class="label">symbol direct / equal / 30m</text>
<line x1="545.3" y1="268" x2="755.6" y2="268" stroke="#94a3b8" stroke-width="8" stroke-linecap="round"/>
<circle cx="644.2" cy="268" r="8" fill="#b42318"/>
<text x="1410" y="273" text-anchor="end" class="value">-11.78 bps; n=6,529</text>
<text x="342" y="337" text-anchor="end" class="label">symbol direct / utility / 30m</text>
<line x1="514.2" y1="332" x2="753.0" y2="332" stroke="#94a3b8" stroke-width="8" stroke-linecap="round"/>
<circle cx="624.7" cy="332" r="8" fill="#b42318"/>
<text x="1410" y="337" text-anchor="end" class="value">-12.23 bps; n=5,623</text>
<text x="800.0" y="486" text-anchor="middle" class="label">Mean net basis points per trade</text>
</svg>
