<svg xmlns="http://www.w3.org/2000/svg" width="1500" height="520" viewBox="0 0 1500 520" role="img" aria-labelledby="title desc">
<title id="title">Seed agreement passed while payoff quality failed</title>
<desc id="desc">Minimum pairwise expected-payoff Spearman across three independently trained seeds; frozen minimum 0.50.</desc>
<rect width="100%" height="100%" fill="#ffffff"/>
<style>text{font-family:"Segoe UI",Arial,sans-serif;letter-spacing:0}.title{font-size:27px;font-weight:700;fill:#17212b}.subtitle{font-size:14px;fill:#52606d}.label{font-size:13px;fill:#263746}.axis{font-size:12px;fill:#60717f}.value{font-size:12px;font-weight:650;fill:#263746}.note{font-size:12px;fill:#65727d}.grid{stroke:#e1e8ed;stroke-width:1}.zero{stroke:#526674;stroke-width:2;stroke-dasharray:6 5}</style>
<text x="56" y="52" class="title">Seed agreement passed while payoff quality failed</text>
<text x="56" y="80" class="subtitle">Minimum pairwise expected-payoff Spearman across three independently trained seeds; frozen minimum 0.50.</text>
<rect x="830" y="43" width="18" height="18" fill="#2563a6"/><text x="858" y="57" class="note">Direct mean control</text>
<rect x="1120" y="43" width="18" height="18" fill="#0f766e"/><text x="1148" y="57" class="note">Competing-risk model</text>
<text x="130" y="132" class="label">Minimum pairwise seed Spearman</text>
<line x1="130" y1="395.0" x2="1430" y2="395.0" class="grid"/><text x="116" y="399.0" text-anchor="end" class="axis">0.000</text>
<line x1="130" y1="272.5" x2="1430" y2="272.5" class="grid"/><text x="116" y="276.5" text-anchor="end" class="axis">0.500</text>
<line x1="130" y1="150.0" x2="1430" y2="150.0" class="grid"/><text x="116" y="154.0" text-anchor="end" class="axis">1.000</text>
<line x1="130" y1="272.5" x2="1430" y2="272.5" class="zero"/>
<rect x="260.0" y="230.4" width="390.0" height="42.1" fill="#2563a6"/><text x="455.0" y="221.4" text-anchor="middle" class="value">0.672</text><text x="455.0" y="419.0" text-anchor="middle" class="axis">Direct</text>
<rect x="910.0" y="216.2" width="390.0" height="56.3" fill="#0f766e"/><text x="1105.0" y="207.2" text-anchor="middle" class="value">0.730</text><text x="1105.0" y="419.0" text-anchor="middle" class="axis">Path</text>
</svg>
