<svg xmlns="http://www.w3.org/2000/svg" width="1500" height="690" viewBox="0 0 1500 690" role="img" aria-labelledby="title desc">
<title id="title">Longer-horizon seed stability did not meet the frozen floor</title>
<desc id="desc">Pairwise Spearman correlation of seed median predictions on 2024-10-01 through 2025-06-30 UTC; required minimum 0.500.</desc>
<rect width="100%" height="100%" fill="#ffffff"/>
<style>text{font-family:"Segoe UI",Arial,sans-serif;letter-spacing:0}.title{font-size:27px;font-weight:700;fill:#17212b}.subtitle{font-size:14px;fill:#52606d}.label{font-size:13px;fill:#263746}.axis{font-size:12px;fill:#60717f}.value{font-size:12px;font-weight:650;fill:#263746}.note{font-size:12px;fill:#65727d}.grid{stroke:#e1e8ed;stroke-width:1}.zero{stroke:#526674;stroke-width:2;stroke-dasharray:6 5}</style>
<text x="56" y="52" class="title">Longer-horizon seed stability did not meet the frozen floor</text>
<text x="56" y="80" class="subtitle">Pairwise Spearman correlation of seed median predictions on 2024-10-01 through 2025-06-30 UTC; required minimum 0.500.</text>
<rect x="120" y="145" width="1310" height="360" fill="#ffffff" stroke="#d8e0e7"/>
<line x1="120" y1="505.0" x2="1430" y2="505.0" class="grid"/><text x="106" y="509.0" text-anchor="end" class="axis">0.40</text>
<line x1="120" y1="433.0" x2="1430" y2="433.0" class="grid"/><text x="106" y="437.0" text-anchor="end" class="axis">0.45</text>
<line x1="120" y1="361.0" x2="1430" y2="361.0" stroke="#b42318" stroke-width="2" stroke-dasharray="8 6"/><text x="106" y="365.0" text-anchor="end" class="axis">0.50</text>
<line x1="120" y1="289.0" x2="1430" y2="289.0" class="grid"/><text x="106" y="293.0" text-anchor="end" class="axis">0.55</text>
<line x1="120" y1="217.0" x2="1430" y2="217.0" class="grid"/><text x="106" y="221.0" text-anchor="end" class="axis">0.60</text>
<line x1="120" y1="145.0" x2="1430" y2="145.0" class="grid"/><text x="106" y="149.0" text-anchor="end" class="axis">0.65</text>
<polyline points="120.0,203.7 556.7,332.5 993.3,376.2 1430.0,430.2" fill="none" stroke="#2563a6" stroke-width="3"/>
<circle cx="120.0" cy="203.7" r="6" fill="#2563a6"/>
<circle cx="556.7" cy="332.5" r="6" fill="#2563a6"/>
<circle cx="993.3" cy="376.2" r="6" fill="#2563a6"/>
<circle cx="1430.0" cy="430.2" r="6" fill="#2563a6"/>
<polyline points="120.0,249.8 556.7,277.7 993.3,292.5 1430.0,325.1" fill="none" stroke="#0f766e" stroke-width="3"/>
<circle cx="120.0" cy="249.8" r="6" fill="#0f766e"/>
<circle cx="556.7" cy="277.7" r="6" fill="#0f766e"/>
<circle cx="993.3" cy="292.5" r="6" fill="#0f766e"/>
<circle cx="1430.0" cy="325.1" r="6" fill="#0f766e"/>
<polyline points="120.0,285.9 556.7,406.8 993.3,244.6 1430.0,415.1" fill="none" stroke="#b7791f" stroke-width="3"/>
<circle cx="120.0" cy="285.9" r="6" fill="#b7791f"/>
<circle cx="556.7" cy="406.8" r="6" fill="#b7791f"/>
<circle cx="993.3" cy="244.6" r="6" fill="#b7791f"/>
<circle cx="1430.0" cy="415.1" r="6" fill="#b7791f"/>
<text x="120.0" y="533" text-anchor="middle" class="axis">1 h</text>
<text x="556.7" y="533" text-anchor="middle" class="axis">4 h</text>
<text x="993.3" y="533" text-anchor="middle" class="axis">12 h</text>
<text x="1430.0" y="533" text-anchor="middle" class="axis">24 h</text>
<line x1="120" y1="608" x2="150" y2="608" stroke="#2563a6" stroke-width="4"/><text x="160" y="613" class="note">seed 4401 / 4402</text>
<line x1="420" y1="608" x2="450" y2="608" stroke="#0f766e" stroke-width="4"/><text x="460" y="613" class="note">seed 4401 / 4403</text>
<line x1="720" y1="608" x2="750" y2="608" stroke="#b7791f" stroke-width="4"/><text x="760" y="613" class="note">seed 4402 / 4403</text>
<text x="120" y="662" class="note">Observed minimum 0.452; four of twelve pair-horizon comparisons were below 0.500. No post-outcome exemption was applied.</text>
</svg>
