<svg xmlns="http://www.w3.org/2000/svg" width="1500" height="760" viewBox="0 0 1500 760" role="img" aria-labelledby="title desc">
<title id="title">Independent-seed forecast stability</title>
<desc id="desc">Minimum pairwise rank agreement across the three independently trained peers.</desc>
<rect width="100%" height="100%" fill="#ffffff"/>
<style>text{font-family:"Segoe UI",Arial,sans-serif;letter-spacing:0}.title{font-size:27px;font-weight:700;fill:#17212b}.subtitle{font-size:14px;fill:#52606d}.label{font-size:13px;fill:#263746}.axis{font-size:12px;fill:#60717f}.value{font-size:12px;font-weight:650;fill:#263746}.note{font-size:12px;fill:#65727d}.grid{stroke:#e1e8ed;stroke-width:1}.zero{stroke:#526674;stroke-width:2;stroke-dasharray:6 5}</style>
<text x="56" y="52" class="title">Independent-seed forecast stability</text>
<text x="56" y="80" class="subtitle">Minimum pairwise rank agreement across the three independently trained peers.</text>
<line x1="900" y1="53" x2="934" y2="53" stroke="#2563a6" stroke-width="4"/><text x="944" y="58" class="note">Single logistic control</text>
<line x1="1170" y1="53" x2="1204" y2="53" stroke="#0f766e" stroke-width="4"/><text x="1214" y="58" class="note">State-conditioned mixture</text>
<text x="135" y="135" class="label">Distribution-mean Spearman</text>
<line x1="135" y1="360.0" x2="1430" y2="360.0" class="grid"/><text x="121" y="364.0" text-anchor="end" class="axis">+0.453</text>
<line x1="135" y1="340.2" x2="1430" y2="340.2" class="zero"/><text x="121" y="344.2" text-anchor="end" class="axis">+0.500</text>
<line x1="135" y1="155.0" x2="1430" y2="155.0" class="grid"/><text x="121" y="159.0" text-anchor="end" class="axis">+0.936</text>
<polyline points="135.0,174.8 566.7,191.1 998.3,198.5 1430.0,206.5" fill="none" stroke="#2563a6" stroke-width="4"/>
<circle cx="135.0" cy="174.8" r="5" fill="#2563a6"/>
<circle cx="566.7" cy="191.1" r="5" fill="#2563a6"/>
<circle cx="998.3" cy="198.5" r="5" fill="#2563a6"/>
<circle cx="1430.0" cy="206.5" r="5" fill="#2563a6"/>
<polyline points="135.0,266.7 566.7,260.2 998.3,317.1 1430.0,290.4" fill="none" stroke="#0f766e" stroke-width="4"/>
<circle cx="135.0" cy="266.7" r="5" fill="#0f766e"/>
<circle cx="566.7" cy="260.2" r="5" fill="#0f766e"/>
<circle cx="998.3" cy="317.1" r="5" fill="#0f766e"/>
<circle cx="1430.0" cy="290.4" r="5" fill="#0f766e"/>
<text x="135.0" y="388" text-anchor="middle" class="axis">15m</text>
<text x="566.7" y="388" text-anchor="middle" class="axis">30m</text>
<text x="998.3" y="388" text-anchor="middle" class="axis">60m</text>
<text x="1430.0" y="388" text-anchor="middle" class="axis">120m</text>
<text x="135" y="445" class="label">Minimum long/short probability Spearman</text>
<line x1="135" y1="670.0" x2="1430" y2="670.0" class="grid"/><text x="121" y="674.0" text-anchor="end" class="axis">+0.444</text>
<line x1="135" y1="650.2" x2="1430" y2="650.2" class="zero"/><text x="121" y="654.2" text-anchor="end" class="axis">+0.500</text>
<line x1="135" y1="465.0" x2="1430" y2="465.0" class="grid"/><text x="121" y="469.0" text-anchor="end" class="axis">+1.019</text>
<polyline points="135.0,485.5 566.7,496.3 998.3,515.8 1430.0,534.6" fill="none" stroke="#2563a6" stroke-width="4"/>
<circle cx="135.0" cy="485.5" r="5" fill="#2563a6"/>
<circle cx="566.7" cy="496.3" r="5" fill="#2563a6"/>
<circle cx="998.3" cy="515.8" r="5" fill="#2563a6"/>
<circle cx="1430.0" cy="534.6" r="5" fill="#2563a6"/>
<polyline points="135.0,484.8 566.7,494.9 998.3,504.9 1430.0,520.4" fill="none" stroke="#0f766e" stroke-width="4"/>
<circle cx="135.0" cy="484.8" r="5" fill="#0f766e"/>
<circle cx="566.7" cy="494.9" r="5" fill="#0f766e"/>
<circle cx="998.3" cy="504.9" r="5" fill="#0f766e"/>
<circle cx="1430.0" cy="520.4" r="5" fill="#0f766e"/>
<text x="135.0" y="698" text-anchor="middle" class="axis">15m</text>
<text x="566.7" y="698" text-anchor="middle" class="axis">30m</text>
<text x="998.3" y="698" text-anchor="middle" class="axis">60m</text>
<text x="1430.0" y="698" text-anchor="middle" class="axis">120m</text>
<text x="56" y="730" class="note">All values are regenerated from the hash-bound 2025-H1 consumed evaluation report.</text>
</svg>
