<svg xmlns="http://www.w3.org/2000/svg" width="1500" height="650" viewBox="0 0 1500 650" role="img" aria-labelledby="title desc">
<title id="title">Joint training sharply degraded cross-seed stability</title>
<desc id="desc">Minimum pairwise Spearman correlation of seed median predictions by horizon; the frozen floor was 0.500.</desc>
<rect width="100%" height="100%" fill="#ffffff"/>
<style>text{font-family:"Segoe UI",Arial,sans-serif;letter-spacing:0}.title{font-size:27px;font-weight:700;fill:#17212b}.subtitle{font-size:14px;fill:#52606d}.label{font-size:13px;fill:#263746}.axis{font-size:12px;fill:#60717f}.value{font-size:12px;font-weight:650;fill:#263746}.note{font-size:12px;fill:#65727d}.grid{stroke:#e1e8ed;stroke-width:1}.zero{stroke:#526674;stroke-width:2;stroke-dasharray:6 5}</style>
<text x="56" y="52" class="title">Joint training sharply degraded cross-seed stability</text>
<text x="56" y="80" class="subtitle">Minimum pairwise Spearman correlation of seed median predictions by horizon; the frozen floor was 0.500.</text>
<rect x="120" y="145" width="1310" height="330" fill="#ffffff" stroke="#d8e0e7"/>
<line x1="120" y1="475.0" x2="1430" y2="475.0" class="grid"/><text x="106" y="479.0" text-anchor="end" class="axis">0.0</text>
<line x1="120" y1="415.0" x2="1430" y2="415.0" class="grid"/><text x="106" y="419.0" text-anchor="end" class="axis">0.1</text>
<line x1="120" y1="355.0" x2="1430" y2="355.0" class="grid"/><text x="106" y="359.0" text-anchor="end" class="axis">0.2</text>
<line x1="120" y1="295.0" x2="1430" y2="295.0" class="grid"/><text x="106" y="299.0" text-anchor="end" class="axis">0.3</text>
<line x1="120" y1="235.0" x2="1430" y2="235.0" class="grid"/><text x="106" y="239.0" text-anchor="end" class="axis">0.4</text>
<line x1="120" y1="175.0" x2="1430" y2="175.0" stroke="#b42318" stroke-width="2" stroke-dasharray="8 6"/><text x="106" y="179.0" text-anchor="end" class="axis">0.5</text>
<circle cx="120.0" cy="272.6" r="6" fill="#2563a6"/><text x="120.0" y="260.6" text-anchor="middle" class="value">0.337</text>
<circle cx="556.7" cy="262.0" r="6" fill="#2563a6"/><text x="556.7" y="250.0" text-anchor="middle" class="value">0.355</text>
<circle cx="993.3" cy="361.6" r="6" fill="#2563a6"/><text x="993.3" y="349.6" text-anchor="middle" class="value">0.189</text>
<circle cx="1430.0" cy="252.1" r="6" fill="#2563a6"/><text x="1430.0" y="240.1" text-anchor="middle" class="value">0.372</text>
<polyline points="120.0,272.6 556.7,262.0 993.3,361.6 1430.0,252.1" fill="none" stroke="#2563a6" stroke-width="3"/>
<circle cx="120.0" cy="291.2" r="6" fill="#0f766e"/><text x="120.0" y="313.2" text-anchor="middle" class="value">0.306</text>
<circle cx="556.7" cy="264.7" r="6" fill="#0f766e"/><text x="556.7" y="286.7" text-anchor="middle" class="value">0.350</text>
<circle cx="993.3" cy="305.5" r="6" fill="#0f766e"/><text x="993.3" y="327.5" text-anchor="middle" class="value">0.282</text>
<circle cx="1430.0" cy="366.4" r="6" fill="#0f766e"/><text x="1430.0" y="388.4" text-anchor="middle" class="value">0.181</text>
<polyline points="120.0,291.2 556.7,264.7 993.3,305.5 1430.0,366.4" fill="none" stroke="#0f766e" stroke-width="3"/>
<text x="120.0" y="503" text-anchor="middle" class="axis">1 h</text>
<text x="556.7" y="503" text-anchor="middle" class="axis">4 h</text>
<text x="993.3" y="503" text-anchor="middle" class="axis">12 h</text>
<text x="1430.0" y="503" text-anchor="middle" class="axis">24 h</text>
<line x1="120" y1="582" x2="150" y2="582" stroke="#2563a6" stroke-width="4"/><text x="160" y="587" class="note">Joint AdamW</text>
<line x1="360" y1="582" x2="390" y2="582" stroke="#0f766e" stroke-width="4"/><text x="400" y="587" class="note">Joint SAM</text>
<text x="120" y="625" class="note">Overall minima: AdamW 0.189; SAM 0.181. SAM changed the minimum by -0.008, so the optimizer-ablation gate failed.</text>
</svg>
