<svg xmlns="http://www.w3.org/2000/svg" width="1500" height="660" viewBox="0 0 1500 660" role="img" aria-labelledby="title desc">
<title id="title">Peer consistency raised cross-seed agreement above the frozen floor</title>
<desc id="desc">Minimum pairwise Spearman correlation of seed median predictions by horizon; results remain selection-contaminated development evidence.</desc>
<rect width="100%" height="100%" fill="#ffffff"/>
<style>text{font-family:"Segoe UI",Arial,sans-serif;letter-spacing:0}.title{font-size:27px;font-weight:700;fill:#17212b}.subtitle{font-size:14px;fill:#52606d}.label{font-size:13px;fill:#263746}.axis{font-size:12px;fill:#60717f}.value{font-size:12px;font-weight:650;fill:#263746}.note{font-size:12px;fill:#65727d}.grid{stroke:#e1e8ed;stroke-width:1}.zero{stroke:#526674;stroke-width:2;stroke-dasharray:6 5}</style>
<text x="56" y="52" class="title">Peer consistency raised cross-seed agreement above the frozen floor</text>
<text x="56" y="80" class="subtitle">Minimum pairwise Spearman correlation of seed median predictions by horizon; results remain selection-contaminated development evidence.</text>
<rect x="120" y="145" width="1310" height="350" fill="#ffffff" stroke="#d8e0e7"/>
<line x1="120" y1="495.0" x2="1430" y2="495.0" class="grid"/><text x="106" y="499.0" text-anchor="end" class="axis">0.0</text>
<line x1="120" y1="425.0" x2="1430" y2="425.0" class="grid"/><text x="106" y="429.0" text-anchor="end" class="axis">0.2</text>
<line x1="120" y1="355.0" x2="1430" y2="355.0" class="grid"/><text x="106" y="359.0" text-anchor="end" class="axis">0.4</text>
<line x1="120" y1="320.0" x2="1430" y2="320.0" stroke="#b42318" stroke-width="2" stroke-dasharray="8 6"/><text x="106" y="324.0" text-anchor="end" class="axis">0.5</text>
<line x1="120" y1="285.0" x2="1430" y2="285.0" class="grid"/><text x="106" y="289.0" text-anchor="end" class="axis">0.6</text>
<line x1="120" y1="215.0" x2="1430" y2="215.0" class="grid"/><text x="106" y="219.0" text-anchor="end" class="axis">0.8</text>
<line x1="120" y1="145.0" x2="1430" y2="145.0" class="grid"/><text x="106" y="149.0" text-anchor="end" class="axis">1.0</text>
<circle cx="120.0" cy="382.8" r="6" fill="#a33a32"/><text x="120.0" y="404.8" text-anchor="middle" class="value">0.320</text>
<circle cx="556.7" cy="403.0" r="6" fill="#a33a32"/><text x="556.7" y="425.0" text-anchor="middle" class="value">0.263</text>
<circle cx="993.3" cy="401.4" r="6" fill="#a33a32"/><text x="993.3" y="423.4" text-anchor="middle" class="value">0.267</text>
<circle cx="1430.0" cy="421.0" r="6" fill="#a33a32"/><text x="1430.0" y="443.0" text-anchor="middle" class="value">0.211</text>
<polyline points="120.0,382.8 556.7,403.0 993.3,401.4 1430.0,421.0" fill="none" stroke="#a33a32" stroke-width="3"/>
<circle cx="120.0" cy="184.8" r="6" fill="#0f766e"/><text x="120.0" y="172.8" text-anchor="middle" class="value">0.886</text>
<circle cx="556.7" cy="191.4" r="6" fill="#0f766e"/><text x="556.7" y="179.4" text-anchor="middle" class="value">0.867</text>
<circle cx="993.3" cy="186.5" r="6" fill="#0f766e"/><text x="993.3" y="174.5" text-anchor="middle" class="value">0.881</text>
<circle cx="1430.0" cy="174.9" r="6" fill="#0f766e"/><text x="1430.0" y="162.9" text-anchor="middle" class="value">0.914</text>
<polyline points="120.0,184.8 556.7,191.4 993.3,186.5 1430.0,174.9" fill="none" stroke="#0f766e" stroke-width="3"/>
<text x="120.0" y="523" text-anchor="middle" class="axis">1 h</text>
<text x="556.7" y="523" text-anchor="middle" class="axis">4 h</text>
<text x="993.3" y="523" text-anchor="middle" class="axis">12 h</text>
<text x="1430.0" y="523" text-anchor="middle" class="axis">24 h</text>
<line x1="120" y1="590" x2="150" y2="590" stroke="#a33a32" stroke-width="4"/><text x="160" y="595" class="note">WaveBound EMA</text>
<line x1="390" y1="590" x2="420" y2="590" stroke="#0f766e" stroke-width="4"/><text x="430" y="595" class="note">Mutual consistency</text>
<text x="120" y="633" class="note">Overall minima: WaveBound 0.211; mutual consistency 0.867; frozen floor 0.500.</text>
</svg>
