<svg xmlns="http://www.w3.org/2000/svg" width="1200" height="700" viewBox="0 0 1200 700" role="img">
<title>September fixed-capital stress equity</title>
<desc>Hourly one-minute-path realization; fixed initial capital, no leverage</desc>
<rect width="1200" height="700" fill="#0b1220"/>
<text x="64" y="58" fill="#f8fafc" font-family="Segoe UI,Arial,sans-serif" font-size="28" font-weight="700">September fixed-capital stress equity</text>
<text x="64" y="88" fill="#cbd5e1" font-family="Segoe UI,Arial,sans-serif" font-size="15">Hourly one-minute-path realization; fixed initial capital, no leverage</text>
<line x1="105" y1="580.0" x2="1145" y2="580.0" stroke="#334155"/>
<text x="91" y="585.0" text-anchor="end" fill="#cbd5e1" font-family="Segoe UI,Arial,sans-serif" font-size="13">-14.4</text>
<line x1="105" y1="491.0" x2="1145" y2="491.0" stroke="#334155"/>
<text x="91" y="496.0" text-anchor="end" fill="#cbd5e1" font-family="Segoe UI,Arial,sans-serif" font-size="13">-9.2</text>
<line x1="105" y1="402.0" x2="1145" y2="402.0" stroke="#334155"/>
<text x="91" y="407.0" text-anchor="end" fill="#cbd5e1" font-family="Segoe UI,Arial,sans-serif" font-size="13">-4.0</text>
<line x1="105" y1="313.0" x2="1145" y2="313.0" stroke="#334155"/>
<text x="91" y="318.0" text-anchor="end" fill="#cbd5e1" font-family="Segoe UI,Arial,sans-serif" font-size="13">1.1</text>
<line x1="105" y1="224.0" x2="1145" y2="224.0" stroke="#334155"/>
<text x="91" y="229.0" text-anchor="end" fill="#cbd5e1" font-family="Segoe UI,Arial,sans-serif" font-size="13">6.3</text>
<line x1="105" y1="135.0" x2="1145" y2="135.0" stroke="#334155"/>
<text x="91" y="140.0" text-anchor="end" fill="#cbd5e1" font-family="Segoe UI,Arial,sans-serif" font-size="13">11.5</text>
<text x="105.0" y="614" text-anchor="middle" fill="#cbd5e1" font-family="Segoe UI,Arial,sans-serif" font-size="12">09-01</text>
<text x="625.0" y="614" text-anchor="middle" fill="#cbd5e1" font-family="Segoe UI,Arial,sans-serif" font-size="12">09-15</text>
<text x="1145.0" y="614" text-anchor="middle" fill="#cbd5e1" font-family="Segoe UI,Arial,sans-serif" font-size="12">09-30</text>
<path d="M 105.0 332.7 L 106.4 332.7 L 107.9 332.7 L 109.3 332.7 L 110.8 332.7 L 112.2 332.7 L 113.7 332.7 L 115.1 332.7 L 116.6 332.7 L 118.0 332.7 L 119.5 332.7 L 120.9 332.7 L 122.4 332.7 L 123.8 332.7 L 125.3 332.7 L 126.7 332.7 L 128.2 332.7 L 129.6 332.7 L 131.1 332.7 L 132.5 332.7 L 134.0 332.7 L 135.4 332.7 L 136.9 332.7 L 138.3 254.4 L 139.8 254.4 L 141.2 254.4 L 142.7 254.4 L 144.1 254.4 L 145.6 254.4 L 147.0 254.4 L 148.5 254.4 L 149.9 254.4 L 151.4 254.4 L 152.8 254.4 L 154.2 254.4 L 155.7 254.4 L 157.1 254.4 L 158.6 254.4 L 160.0 254.4 L 161.5 254.4 L 162.9 254.4 L 164.4 254.4 L 165.8 254.4 L 167.3 254.4 L 168.7 254.4 L 170.2 254.4 L 171.6 254.4 L 173.1 254.4 L 174.5 254.4 L 176.0 254.4 L 177.4 254.4 L 178.9 254.4 L 180.3 254.4 L 181.8 254.4 L 183.2 254.4 L 184.7 254.4 L 186.1 254.4 L 187.6 254.4 L 189.0 254.4 L 190.5 254.4 L 191.9 254.4 L 193.4 254.4 L 194.8 254.4 L 196.3 254.4 L 197.7 254.4 L 199.2 254.4 L 200.6 254.4 L 202.0 254.4 L 203.5 254.4 L 204.9 254.4 L 206.4 254.4 L 207.8 254.4 L 209.3 254.4 L 210.7 536.9 L 212.2 536.9 L 213.6 536.9 L 215.1 536.9 L 216.5 536.9 L 218.0 536.9 L 219.4 536.9 L 220.9 536.9 L 222.3 536.9 L 223.8 536.9 L 225.2 536.9 L 226.7 536.9 L 228.1 536.9 L 229.6 536.9 L 231.0 536.9 L 232.5 536.9 L 233.9 536.9 L 235.4 536.9 L 236.8 536.9 L 238.3 536.9 L 239.7 536.9 L 241.2 536.9 L 242.6 536.9 L 244.1 536.9 L 245.5 536.9 L 246.9 536.9 L 248.4 536.9 L 249.8 536.9 L 251.3 536.9 L 252.7 536.9 L 254.2 536.9 L 255.6 536.9 L 257.1 536.9 L 258.5 536.9 L 260.0 536.9 L 261.4 536.9 L 262.9 536.9 L 264.3 536.9 L 265.8 536.9 L 267.2 536.9 L 268.7 536.9 L 270.1 536.9 L 271.6 536.9 L 273.0 536.9 L 274.5 536.9 L 275.9 536.9 L 277.4 536.9 L 278.8 536.9 L 280.3 536.9 L 281.7 536.9 L 283.2 536.9 L 284.6 536.9 L 286.1 536.9 L 287.5 536.9 L 289.0 536.9 L 290.4 536.9 L 291.9 536.9 L 293.3 536.9 L 294.7 536.9 L 296.2 536.9 L 297.6 536.9 L 299.1 536.9 L 300.5 536.9 L 302.0 536.9 L 303.4 536.9 L 304.9 536.9 L 306.3 536.9 L 307.8 536.9 L 309.2 536.9 L 310.7 536.9 L 312.1 536.9 L 313.6 536.9 L 315.0 536.9 L 316.5 536.9 L 317.9 536.9 L 319.4 536.9 L 320.8 536.9 L 322.3 536.9 L 323.7 536.9 L 325.2 536.9 L 326.6 536.9 L 328.1 536.9 L 329.5 536.9 L 331.0 536.9 L 332.4 536.9 L 333.9 536.9 L 335.3 536.9 L 336.8 536.9 L 338.2 536.9 L 339.7 536.9 L 341.1 536.9 L 342.5 536.9 L 344.0 536.9 L 345.4 536.9 L 346.9 536.9 L 348.3 536.9 L 349.8 536.9 L 351.2 536.9 L 352.7 536.9 L 354.1 536.9 L 355.6 536.9 L 357.0 536.9 L 358.5 536.9 L 359.9 536.9 L 361.4 536.9 L 362.8 536.9 L 364.3 536.9 L 365.7 536.9 L 367.2 536.9 L 368.6 536.9 L 370.1 536.9 L 371.5 528.6 L 373.0 528.6 L 374.4 528.6 L 375.9 528.6 L 377.3 528.6 L 378.8 528.6 L 380.2 528.6 L 381.7 528.6 L 383.1 528.6 L 384.6 528.6 L 386.0 528.6 L 387.5 528.6 L 388.9 528.6 L 390.3 528.6 L 391.8 528.6 L 393.2 528.6 L 394.7 528.6 L 396.1 528.6 L 397.6 528.6 L 399.0 528.6 L 400.5 528.6 L 401.9 528.6 L 403.4 528.6 L 404.8 528.6 L 406.3 528.6 L 407.7 528.6 L 409.2 528.6 L 410.6 528.6 L 412.1 528.6 L 413.5 528.6 L 415.0 478.3 L 416.4 478.3 L 417.9 478.3 L 419.3 478.3 L 420.8 478.3 L 422.2 478.3 L 423.7 478.3 L 425.1 478.3 L 426.6 478.3 L 428.0 478.3 L 429.5 478.3 L 430.9 478.3 L 432.4 478.3 L 433.8 478.3 L 435.3 478.3 L 436.7 478.3 L 438.1 478.3 L 439.6 478.3 L 441.0 478.3 L 442.5 478.3 L 443.9 478.3 L 445.4 478.3 L 446.8 478.3 L 448.3 478.3 L 449.7 478.3 L 451.2 478.3 L 452.6 478.3 L 454.1 478.3 L 455.5 478.3 L 457.0 478.3 L 458.4 478.3 L 459.9 478.3 L 461.3 478.3 L 462.8 478.3 L 464.2 478.3 L 465.7 478.3 L 467.1 478.3 L 468.6 478.3 L 470.0 478.3 L 471.5 478.3 L 472.9 478.3 L 474.4 478.3 L 475.8 478.3 L 477.3 478.3 L 478.7 478.3 L 480.2 478.3 L 481.6 478.3 L 483.1 478.3 L 484.5 478.3 L 485.9 478.3 L 487.4 478.3 L 488.8 478.3 L 490.3 478.3 L 491.7 478.3 L 493.2 478.3 L 494.6 478.3 L 496.1 478.3 L 497.5 478.3 L 499.0 478.3 L 500.4 478.3 L 501.9 478.3 L 503.3 478.3 L 504.8 478.3 L 506.2 478.3 L 507.7 478.3 L 509.1 478.3 L 510.6 478.3 L 512.0 478.3 L 513.5 478.3 L 514.9 478.3 L 516.4 478.3 L 517.8 478.3 L 519.3 478.3 L 520.7 478.3 L 522.2 478.3 L 523.6 478.3 L 525.1 478.3 L 526.5 478.3 L 528.0 478.3 L 529.4 478.3 L 530.8 478.3 L 532.3 478.3 L 533.7 478.3 L 535.2 478.3 L 536.6 478.3 L 538.1 478.3 L 539.5 478.3 L 541.0 478.3 L 542.4 478.3 L 543.9 478.3 L 545.3 478.3 L 546.8 478.3 L 548.2 478.3 L 549.7 478.3 L 551.1 478.3 L 552.6 478.3 L 554.0 478.3 L 555.5 478.3 L 556.9 478.3 L 558.4 478.3 L 559.8 478.3 L 561.3 478.3 L 562.7 478.3 L 564.2 478.3 L 565.6 478.3 L 567.1 478.3 L 568.5 478.3 L 570.0 478.3 L 571.4 478.3 L 572.9 478.3 L 574.3 478.3 L 575.8 478.3 L 577.2 478.3 L 578.6 478.3 L 580.1 478.3 L 581.5 478.3 L 583.0 478.3 L 584.4 478.3 L 585.9 478.3 L 587.3 478.3 L 588.8 478.3 L 590.2 478.3 L 591.7 478.3 L 593.1 478.3 L 594.6 478.3 L 596.0 478.3 L 597.5 478.3 L 598.9 478.3 L 600.4 478.3 L 601.8 478.3 L 603.3 478.3 L 604.7 478.3 L 606.2 478.3 L 607.6 478.3 L 609.1 478.3 L 610.5 478.3 L 612.0 478.3 L 613.4 478.3 L 614.9 478.3 L 616.3 478.3 L 617.8 478.3 L 619.2 478.3 L 620.7 478.3 L 622.1 478.3 L 623.6 478.3 L 625.0 478.3 L 626.4 478.3 L 627.9 478.3 L 629.3 478.3 L 630.8 478.3 L 632.2 478.3 L 633.7 478.3 L 635.1 478.3 L 636.6 478.3 L 638.0 478.3 L 639.5 478.3 L 640.9 478.3 L 642.4 478.3 L 643.8 478.3 L 645.3 478.3 L 646.7 478.3 L 648.2 478.3 L 649.6 478.3 L 651.1 478.3 L 652.5 478.3 L 654.0 478.3 L 655.4 478.3 L 656.9 478.3 L 658.3 478.3 L 659.8 478.3 L 661.2 478.3 L 662.7 478.3 L 664.1 478.3 L 665.6 478.3 L 667.0 478.3 L 668.5 478.3 L 669.9 478.3 L 671.4 478.3 L 672.8 478.3 L 674.2 478.3 L 675.7 478.3 L 677.1 478.3 L 678.6 478.3 L 680.0 478.3 L 681.5 478.3 L 682.9 478.3 L 684.4 478.3 L 685.8 478.3 L 687.3 478.3 L 688.7 478.3 L 690.2 478.3 L 691.6 478.3 L 693.1 478.3 L 694.5 478.3 L 696.0 478.3 L 697.4 478.3 L 698.9 478.3 L 700.3 478.3 L 701.8 478.3 L 703.2 478.3 L 704.7 478.3 L 706.1 478.3 L 707.6 478.3 L 709.0 478.3 L 710.5 478.3 L 711.9 478.3 L 713.4 478.3 L 714.8 478.3 L 716.3 478.3 L 717.7 478.3 L 719.2 478.3 L 720.6 478.3 L 722.0 478.3 L 723.5 478.3 L 724.9 478.3 L 726.4 478.3 L 727.8 478.3 L 729.3 478.3 L 730.7 478.3 L 732.2 478.3 L 733.6 478.3 L 735.1 478.3 L 736.5 478.3 L 738.0 478.3 L 739.4 478.3 L 740.9 478.3 L 742.3 478.3 L 743.8 478.3 L 745.2 478.3 L 746.7 478.3 L 748.1 478.3 L 749.6 478.3 L 751.0 478.3 L 752.5 478.3 L 753.9 478.3 L 755.4 478.3 L 756.8 478.3 L 758.3 478.3 L 759.7 478.3 L 761.2 478.3 L 762.6 478.3 L 764.1 478.3 L 765.5 478.3 L 766.9 478.3 L 768.4 478.3 L 769.8 478.3 L 771.3 478.3 L 772.7 478.3 L 774.2 478.3 L 775.6 478.3 L 777.1 478.3 L 778.5 478.3 L 780.0 478.3 L 781.4 478.3 L 782.9 478.3 L 784.3 478.3 L 785.8 478.3 L 787.2 478.3 L 788.7 478.3 L 790.1 478.3 L 791.6 478.3 L 793.0 478.3 L 794.5 478.3 L 795.9 478.3 L 797.4 478.3 L 798.8 478.3 L 800.3 478.3 L 801.7 478.3 L 803.2 478.3 L 804.6 478.3 L 806.1 478.3 L 807.5 478.3 L 809.0 478.3 L 810.4 478.3 L 811.9 478.3 L 813.3 478.3 L 814.7 478.3 L 816.2 478.3 L 817.6 478.3 L 819.1 478.3 L 820.5 478.3 L 822.0 478.3 L 823.4 478.3 L 824.9 478.3 L 826.3 478.3 L 827.8 478.3 L 829.2 478.3 L 830.7 478.3 L 832.1 478.3 L 833.6 478.3 L 835.0 478.3 L 836.5 478.3 L 837.9 478.3 L 839.4 478.3 L 840.8 478.3 L 842.3 478.3 L 843.7 478.3 L 845.2 478.3 L 846.6 478.3 L 848.1 478.3 L 849.5 478.3 L 851.0 478.3 L 852.4 478.3 L 853.9 478.3 L 855.3 478.3 L 856.8 478.3 L 858.2 478.3 L 859.7 478.3 L 861.1 478.3 L 862.5 478.3 L 864.0 478.3 L 865.4 478.3 L 866.9 178.1 L 868.3 178.1 L 869.8 178.1 L 871.2 178.1 L 872.7 178.1 L 874.1 178.1 L 875.6 178.1 L 877.0 178.1 L 878.5 178.1 L 879.9 178.1 L 881.4 178.1 L 882.8 178.1 L 884.3 178.1 L 885.7 178.1 L 887.2 178.1 L 888.6 178.1 L 890.1 178.1 L 891.5 178.1 L 893.0 178.1 L 894.4 178.1 L 895.9 178.1 L 897.3 178.1 L 898.8 178.1 L 900.2 178.1 L 901.7 178.1 L 903.1 178.1 L 904.6 178.1 L 906.0 178.1 L 907.5 178.1 L 908.9 178.1 L 910.3 178.1 L 911.8 178.1 L 913.2 178.1 L 914.7 178.1 L 916.1 178.1 L 917.6 178.1 L 919.0 178.1 L 920.5 178.1 L 921.9 178.1 L 923.4 178.1 L 924.8 178.1 L 926.3 178.1 L 927.7 178.1 L 929.2 178.1 L 930.6 178.1 L 932.1 178.1 L 933.5 178.1 L 935.0 178.1 L 936.4 178.1 L 937.9 178.1 L 939.3 178.1 L 940.8 178.1 L 942.2 178.1 L 943.7 178.1 L 945.1 178.1 L 946.6 178.1 L 948.0 178.1 L 949.5 178.1 L 950.9 178.1 L 952.4 178.1 L 953.8 178.1 L 955.3 178.1 L 956.7 178.1 L 958.1 178.1 L 959.6 178.1 L 961.0 178.1 L 962.5 178.1 L 963.9 178.1 L 965.4 178.1 L 966.8 178.1 L 968.3 178.1 L 969.7 178.1 L 971.2 178.1 L 972.6 178.1 L 974.1 178.1 L 975.5 178.1 L 977.0 178.1 L 978.4 178.1 L 979.9 178.1 L 981.3 178.1 L 982.8 178.1 L 984.2 178.1 L 985.7 178.1 L 987.1 178.1 L 988.6 178.1 L 990.0 178.1 L 991.5 178.1 L 992.9 178.1 L 994.4 178.1 L 995.8 178.1 L 997.3 178.1 L 998.7 178.1 L 1000.2 178.1 L 1001.6 178.1 L 1003.1 178.1 L 1004.5 178.1 L 1005.9 178.1 L 1007.4 178.1 L 1008.8 178.1 L 1010.3 178.1 L 1011.7 178.1 L 1013.2 178.1 L 1014.6 178.1 L 1016.1 178.1 L 1017.5 178.1 L 1019.0 178.1 L 1020.4 178.1 L 1021.9 178.1 L 1023.3 178.1 L 1024.8 178.1 L 1026.2 178.1 L 1027.7 178.1 L 1029.1 178.1 L 1030.6 178.1 L 1032.0 178.1 L 1033.5 178.1 L 1034.9 178.1 L 1036.4 178.1 L 1037.8 178.1 L 1039.3 178.1 L 1040.7 178.1 L 1042.2 178.1 L 1043.6 178.1 L 1045.1 178.1 L 1046.5 178.1 L 1048.0 178.1 L 1049.4 178.1 L 1050.8 178.1 L 1052.3 178.1 L 1053.7 178.1 L 1055.2 178.1 L 1056.6 178.1 L 1058.1 178.1 L 1059.5 178.1 L 1061.0 178.1 L 1062.4 178.1 L 1063.9 178.1 L 1065.3 178.1 L 1066.8 178.1 L 1068.2 178.1 L 1069.7 178.1 L 1071.1 178.1 L 1072.6 178.1 L 1074.0 178.1 L 1075.5 178.1 L 1076.9 178.1 L 1078.4 178.1 L 1079.8 178.1 L 1081.3 178.1 L 1082.7 178.1 L 1084.2 178.1 L 1085.6 178.1 L 1087.1 178.1 L 1088.5 178.1 L 1090.0 178.1 L 1091.4 178.1 L 1092.9 178.1 L 1094.3 178.1 L 1095.8 178.1 L 1097.2 178.1 L 1098.6 178.1 L 1100.1 178.1 L 1101.5 178.1 L 1103.0 178.1 L 1104.4 178.1 L 1105.9 178.1 L 1107.3 178.1 L 1108.8 178.1 L 1110.2 178.1 L 1111.7 178.1 L 1113.1 178.1 L 1114.6 178.1 L 1116.0 178.1 L 1117.5 178.1 L 1118.9 178.1 L 1120.4 178.1 L 1121.8 178.1 L 1123.3 178.1 L 1124.7 178.1 L 1126.2 178.1 L 1127.6 178.1 L 1129.1 178.1 L 1130.5 178.1 L 1132.0 178.1 L 1133.4 178.1 L 1134.9 178.1 L 1136.3 178.1 L 1137.8 178.1 L 1139.2 178.1 L 1140.7 178.1 L 1142.1 178.1 L 1143.6 178.1 L 1145.0 178.1" fill="none" stroke="#60a5fa" stroke-width="3" stroke-linejoin="round"/>
<circle cx="105.0" cy="332.7" r="4" fill="#60a5fa"/>
<circle cx="106.4" cy="332.7" r="4" fill="#60a5fa"/>
<circle cx="107.9" cy="332.7" r="4" fill="#60a5fa"/>
<circle cx="109.3" cy="332.7" r="4" fill="#60a5fa"/>
<circle cx="110.8" cy="332.7" r="4" fill="#60a5fa"/>
<circle cx="112.2" cy="332.7" r="4" fill="#60a5fa"/>
<circle cx="113.7" cy="332.7" r="4" fill="#60a5fa"/>
<circle cx="115.1" cy="332.7" r="4" fill="#60a5fa"/>
<circle cx="116.6" cy="332.7" r="4" fill="#60a5fa"/>
<circle cx="118.0" cy="332.7" r="4" fill="#60a5fa"/>
<circle cx="119.5" cy="332.7" r="4" fill="#60a5fa"/>
<circle cx="120.9" cy="332.7" r="4" fill="#60a5fa"/>
<circle cx="122.4" cy="332.7" r="4" fill="#60a5fa"/>
<circle cx="123.8" cy="332.7" r="4" fill="#60a5fa"/>
<circle cx="125.3" cy="332.7" r="4" fill="#60a5fa"/>
<circle cx="126.7" cy="332.7" r="4" fill="#60a5fa"/>
<circle cx="128.2" cy="332.7" r="4" fill="#60a5fa"/>
<circle cx="129.6" cy="332.7" r="4" fill="#60a5fa"/>
<circle cx="131.1" cy="332.7" r="4" fill="#60a5fa"/>
<circle cx="132.5" cy="332.7" r="4" fill="#60a5fa"/>
<circle cx="134.0" cy="332.7" r="4" fill="#60a5fa"/>
<circle cx="135.4" cy="332.7" r="4" fill="#60a5fa"/>
<circle cx="136.9" cy="332.7" r="4" fill="#60a5fa"/>
<circle cx="138.3" cy="254.4" r="4" fill="#60a5fa"/>
<circle cx="139.8" cy="254.4" r="4" fill="#60a5fa"/>
<circle cx="141.2" cy="254.4" r="4" fill="#60a5fa"/>
<circle cx="142.7" cy="254.4" r="4" fill="#60a5fa"/>
<circle cx="144.1" cy="254.4" r="4" fill="#60a5fa"/>
<circle cx="145.6" cy="254.4" r="4" fill="#60a5fa"/>
<circle cx="147.0" cy="254.4" r="4" fill="#60a5fa"/>
<circle cx="148.5" cy="254.4" r="4" fill="#60a5fa"/>
<circle cx="149.9" cy="254.4" r="4" fill="#60a5fa"/>
<circle cx="151.4" cy="254.4" r="4" fill="#60a5fa"/>
<circle cx="152.8" cy="254.4" r="4" fill="#60a5fa"/>
<circle cx="154.2" cy="254.4" r="4" fill="#60a5fa"/>
<circle cx="155.7" cy="254.4" r="4" fill="#60a5fa"/>
<circle cx="157.1" cy="254.4" r="4" fill="#60a5fa"/>
<circle cx="158.6" cy="254.4" r="4" fill="#60a5fa"/>
<circle cx="160.0" cy="254.4" r="4" fill="#60a5fa"/>
<circle cx="161.5" cy="254.4" r="4" fill="#60a5fa"/>
<circle cx="162.9" cy="254.4" r="4" fill="#60a5fa"/>
<circle cx="164.4" cy="254.4" r="4" fill="#60a5fa"/>
<circle cx="165.8" cy="254.4" r="4" fill="#60a5fa"/>
<circle cx="167.3" cy="254.4" r="4" fill="#60a5fa"/>
<circle cx="168.7" cy="254.4" r="4" fill="#60a5fa"/>
<circle cx="170.2" cy="254.4" r="4" fill="#60a5fa"/>
<circle cx="171.6" cy="254.4" r="4" fill="#60a5fa"/>
<circle cx="173.1" cy="254.4" r="4" fill="#60a5fa"/>
<circle cx="174.5" cy="254.4" r="4" fill="#60a5fa"/>
<circle cx="176.0" cy="254.4" r="4" fill="#60a5fa"/>
<circle cx="177.4" cy="254.4" r="4" fill="#60a5fa"/>
<circle cx="178.9" cy="254.4" r="4" fill="#60a5fa"/>
<circle cx="180.3" cy="254.4" r="4" fill="#60a5fa"/>
<circle cx="181.8" cy="254.4" r="4" fill="#60a5fa"/>
<circle cx="183.2" cy="254.4" r="4" fill="#60a5fa"/>
<circle cx="184.7" cy="254.4" r="4" fill="#60a5fa"/>
<circle cx="186.1" cy="254.4" r="4" fill="#60a5fa"/>
<circle cx="187.6" cy="254.4" r="4" fill="#60a5fa"/>
<circle cx="189.0" cy="254.4" r="4" fill="#60a5fa"/>
<circle cx="190.5" cy="254.4" r="4" fill="#60a5fa"/>
<circle cx="191.9" cy="254.4" r="4" fill="#60a5fa"/>
<circle cx="193.4" cy="254.4" r="4" fill="#60a5fa"/>
<circle cx="194.8" cy="254.4" r="4" fill="#60a5fa"/>
<circle cx="196.3" cy="254.4" r="4" fill="#60a5fa"/>
<circle cx="197.7" cy="254.4" r="4" fill="#60a5fa"/>
<circle cx="199.2" cy="254.4" r="4" fill="#60a5fa"/>
<circle cx="200.6" cy="254.4" r="4" fill="#60a5fa"/>
<circle cx="202.0" cy="254.4" r="4" fill="#60a5fa"/>
<circle cx="203.5" cy="254.4" r="4" fill="#60a5fa"/>
<circle cx="204.9" cy="254.4" r="4" fill="#60a5fa"/>
<circle cx="206.4" cy="254.4" r="4" fill="#60a5fa"/>
<circle cx="207.8" cy="254.4" r="4" fill="#60a5fa"/>
<circle cx="209.3" cy="254.4" r="4" fill="#60a5fa"/>
<circle cx="210.7" cy="536.9" r="4" fill="#60a5fa"/>
<circle cx="212.2" cy="536.9" r="4" fill="#60a5fa"/>
<circle cx="213.6" cy="536.9" r="4" fill="#60a5fa"/>
<circle cx="215.1" cy="536.9" r="4" fill="#60a5fa"/>
<circle cx="216.5" cy="536.9" r="4" fill="#60a5fa"/>
<circle cx="218.0" cy="536.9" r="4" fill="#60a5fa"/>
<circle cx="219.4" cy="536.9" r="4" fill="#60a5fa"/>
<circle cx="220.9" cy="536.9" r="4" fill="#60a5fa"/>
<circle cx="222.3" cy="536.9" r="4" fill="#60a5fa"/>
<circle cx="223.8" cy="536.9" r="4" fill="#60a5fa"/>
<circle cx="225.2" cy="536.9" r="4" fill="#60a5fa"/>
<circle cx="226.7" cy="536.9" r="4" fill="#60a5fa"/>
<circle cx="228.1" cy="536.9" r="4" fill="#60a5fa"/>
<circle cx="229.6" cy="536.9" r="4" fill="#60a5fa"/>
<circle cx="231.0" cy="536.9" r="4" fill="#60a5fa"/>
<circle cx="232.5" cy="536.9" r="4" fill="#60a5fa"/>
<circle cx="233.9" cy="536.9" r="4" fill="#60a5fa"/>
<circle cx="235.4" cy="536.9" r="4" fill="#60a5fa"/>
<circle cx="236.8" cy="536.9" r="4" fill="#60a5fa"/>
<circle cx="238.3" cy="536.9" r="4" fill="#60a5fa"/>
<circle cx="239.7" cy="536.9" r="4" fill="#60a5fa"/>
<circle cx="241.2" cy="536.9" r="4" fill="#60a5fa"/>
<circle cx="242.6" cy="536.9" r="4" fill="#60a5fa"/>
<circle cx="244.1" cy="536.9" r="4" fill="#60a5fa"/>
<circle cx="245.5" cy="536.9" r="4" fill="#60a5fa"/>
<circle cx="246.9" cy="536.9" r="4" fill="#60a5fa"/>
<circle cx="248.4" cy="536.9" r="4" fill="#60a5fa"/>
<circle cx="249.8" cy="536.9" r="4" fill="#60a5fa"/>
<circle cx="251.3" cy="536.9" r="4" fill="#60a5fa"/>
<circle cx="252.7" cy="536.9" r="4" fill="#60a5fa"/>
<circle cx="254.2" cy="536.9" r="4" fill="#60a5fa"/>
<circle cx="255.6" cy="536.9" r="4" fill="#60a5fa"/>
<circle cx="257.1" cy="536.9" r="4" fill="#60a5fa"/>
<circle cx="258.5" cy="536.9" r="4" fill="#60a5fa"/>
<circle cx="260.0" cy="536.9" r="4" fill="#60a5fa"/>
<circle cx="261.4" cy="536.9" r="4" fill="#60a5fa"/>
<circle cx="262.9" cy="536.9" r="4" fill="#60a5fa"/>
<circle cx="264.3" cy="536.9" r="4" fill="#60a5fa"/>
<circle cx="265.8" cy="536.9" r="4" fill="#60a5fa"/>
<circle cx="267.2" cy="536.9" r="4" fill="#60a5fa"/>
<circle cx="268.7" cy="536.9" r="4" fill="#60a5fa"/>
<circle cx="270.1" cy="536.9" r="4" fill="#60a5fa"/>
<circle cx="271.6" cy="536.9" r="4" fill="#60a5fa"/>
<circle cx="273.0" cy="536.9" r="4" fill="#60a5fa"/>
<circle cx="274.5" cy="536.9" r="4" fill="#60a5fa"/>
<circle cx="275.9" cy="536.9" r="4" fill="#60a5fa"/>
<circle cx="277.4" cy="536.9" r="4" fill="#60a5fa"/>
<circle cx="278.8" cy="536.9" r="4" fill="#60a5fa"/>
<circle cx="280.3" cy="536.9" r="4" fill="#60a5fa"/>
<circle cx="281.7" cy="536.9" r="4" fill="#60a5fa"/>
<circle cx="283.2" cy="536.9" r="4" fill="#60a5fa"/>
<circle cx="284.6" cy="536.9" r="4" fill="#60a5fa"/>
<circle cx="286.1" cy="536.9" r="4" fill="#60a5fa"/>
<circle cx="287.5" cy="536.9" r="4" fill="#60a5fa"/>
<circle cx="289.0" cy="536.9" r="4" fill="#60a5fa"/>
<circle cx="290.4" cy="536.9" r="4" fill="#60a5fa"/>
<circle cx="291.9" cy="536.9" r="4" fill="#60a5fa"/>
<circle cx="293.3" cy="536.9" r="4" fill="#60a5fa"/>
<circle cx="294.7" cy="536.9" r="4" fill="#60a5fa"/>
<circle cx="296.2" cy="536.9" r="4" fill="#60a5fa"/>
<circle cx="297.6" cy="536.9" r="4" fill="#60a5fa"/>
<circle cx="299.1" cy="536.9" r="4" fill="#60a5fa"/>
<circle cx="300.5" cy="536.9" r="4" fill="#60a5fa"/>
<circle cx="302.0" cy="536.9" r="4" fill="#60a5fa"/>
<circle cx="303.4" cy="536.9" r="4" fill="#60a5fa"/>
<circle cx="304.9" cy="536.9" r="4" fill="#60a5fa"/>
<circle cx="306.3" cy="536.9" r="4" fill="#60a5fa"/>
<circle cx="307.8" cy="536.9" r="4" fill="#60a5fa"/>
<circle cx="309.2" cy="536.9" r="4" fill="#60a5fa"/>
<circle cx="310.7" cy="536.9" r="4" fill="#60a5fa"/>
<circle cx="312.1" cy="536.9" r="4" fill="#60a5fa"/>
<circle cx="313.6" cy="536.9" r="4" fill="#60a5fa"/>
<circle cx="315.0" cy="536.9" r="4" fill="#60a5fa"/>
<circle cx="316.5" cy="536.9" r="4" fill="#60a5fa"/>
<circle cx="317.9" cy="536.9" r="4" fill="#60a5fa"/>
<circle cx="319.4" cy="536.9" r="4" fill="#60a5fa"/>
<circle cx="320.8" cy="536.9" r="4" fill="#60a5fa"/>
<circle cx="322.3" cy="536.9" r="4" fill="#60a5fa"/>
<circle cx="323.7" cy="536.9" r="4" fill="#60a5fa"/>
<circle cx="325.2" cy="536.9" r="4" fill="#60a5fa"/>
<circle cx="326.6" cy="536.9" r="4" fill="#60a5fa"/>
<circle cx="328.1" cy="536.9" r="4" fill="#60a5fa"/>
<circle cx="329.5" cy="536.9" r="4" fill="#60a5fa"/>
<circle cx="331.0" cy="536.9" r="4" fill="#60a5fa"/>
<circle cx="332.4" cy="536.9" r="4" fill="#60a5fa"/>
<circle cx="333.9" cy="536.9" r="4" fill="#60a5fa"/>
<circle cx="335.3" cy="536.9" r="4" fill="#60a5fa"/>
<circle cx="336.8" cy="536.9" r="4" fill="#60a5fa"/>
<circle cx="338.2" cy="536.9" r="4" fill="#60a5fa"/>
<circle cx="339.7" cy="536.9" r="4" fill="#60a5fa"/>
<circle cx="341.1" cy="536.9" r="4" fill="#60a5fa"/>
<circle cx="342.5" cy="536.9" r="4" fill="#60a5fa"/>
<circle cx="344.0" cy="536.9" r="4" fill="#60a5fa"/>
<circle cx="345.4" cy="536.9" r="4" fill="#60a5fa"/>
<circle cx="346.9" cy="536.9" r="4" fill="#60a5fa"/>
<circle cx="348.3" cy="536.9" r="4" fill="#60a5fa"/>
<circle cx="349.8" cy="536.9" r="4" fill="#60a5fa"/>
<circle cx="351.2" cy="536.9" r="4" fill="#60a5fa"/>
<circle cx="352.7" cy="536.9" r="4" fill="#60a5fa"/>
<circle cx="354.1" cy="536.9" r="4" fill="#60a5fa"/>
<circle cx="355.6" cy="536.9" r="4" fill="#60a5fa"/>
<circle cx="357.0" cy="536.9" r="4" fill="#60a5fa"/>
<circle cx="358.5" cy="536.9" r="4" fill="#60a5fa"/>
<circle cx="359.9" cy="536.9" r="4" fill="#60a5fa"/>
<circle cx="361.4" cy="536.9" r="4" fill="#60a5fa"/>
<circle cx="362.8" cy="536.9" r="4" fill="#60a5fa"/>
<circle cx="364.3" cy="536.9" r="4" fill="#60a5fa"/>
<circle cx="365.7" cy="536.9" r="4" fill="#60a5fa"/>
<circle cx="367.2" cy="536.9" r="4" fill="#60a5fa"/>
<circle cx="368.6" cy="536.9" r="4" fill="#60a5fa"/>
<circle cx="370.1" cy="536.9" r="4" fill="#60a5fa"/>
<circle cx="371.5" cy="528.6" r="4" fill="#60a5fa"/>
<circle cx="373.0" cy="528.6" r="4" fill="#60a5fa"/>
<circle cx="374.4" cy="528.6" r="4" fill="#60a5fa"/>
<circle cx="375.9" cy="528.6" r="4" fill="#60a5fa"/>
<circle cx="377.3" cy="528.6" r="4" fill="#60a5fa"/>
<circle cx="378.8" cy="528.6" r="4" fill="#60a5fa"/>
<circle cx="380.2" cy="528.6" r="4" fill="#60a5fa"/>
<circle cx="381.7" cy="528.6" r="4" fill="#60a5fa"/>
<circle cx="383.1" cy="528.6" r="4" fill="#60a5fa"/>
<circle cx="384.6" cy="528.6" r="4" fill="#60a5fa"/>
<circle cx="386.0" cy="528.6" r="4" fill="#60a5fa"/>
<circle cx="387.5" cy="528.6" r="4" fill="#60a5fa"/>
<circle cx="388.9" cy="528.6" r="4" fill="#60a5fa"/>
<circle cx="390.3" cy="528.6" r="4" fill="#60a5fa"/>
<circle cx="391.8" cy="528.6" r="4" fill="#60a5fa"/>
<circle cx="393.2" cy="528.6" r="4" fill="#60a5fa"/>
<circle cx="394.7" cy="528.6" r="4" fill="#60a5fa"/>
<circle cx="396.1" cy="528.6" r="4" fill="#60a5fa"/>
<circle cx="397.6" cy="528.6" r="4" fill="#60a5fa"/>
<circle cx="399.0" cy="528.6" r="4" fill="#60a5fa"/>
<circle cx="400.5" cy="528.6" r="4" fill="#60a5fa"/>
<circle cx="401.9" cy="528.6" r="4" fill="#60a5fa"/>
<circle cx="403.4" cy="528.6" r="4" fill="#60a5fa"/>
<circle cx="404.8" cy="528.6" r="4" fill="#60a5fa"/>
<circle cx="406.3" cy="528.6" r="4" fill="#60a5fa"/>
<circle cx="407.7" cy="528.6" r="4" fill="#60a5fa"/>
<circle cx="409.2" cy="528.6" r="4" fill="#60a5fa"/>
<circle cx="410.6" cy="528.6" r="4" fill="#60a5fa"/>
<circle cx="412.1" cy="528.6" r="4" fill="#60a5fa"/>
<circle cx="413.5" cy="528.6" r="4" fill="#60a5fa"/>
<circle cx="415.0" cy="478.3" r="4" fill="#60a5fa"/>
<circle cx="416.4" cy="478.3" r="4" fill="#60a5fa"/>
<circle cx="417.9" cy="478.3" r="4" fill="#60a5fa"/>
<circle cx="419.3" cy="478.3" r="4" fill="#60a5fa"/>
<circle cx="420.8" cy="478.3" r="4" fill="#60a5fa"/>
<circle cx="422.2" cy="478.3" r="4" fill="#60a5fa"/>
<circle cx="423.7" cy="478.3" r="4" fill="#60a5fa"/>
<circle cx="425.1" cy="478.3" r="4" fill="#60a5fa"/>
<circle cx="426.6" cy="478.3" r="4" fill="#60a5fa"/>
<circle cx="428.0" cy="478.3" r="4" fill="#60a5fa"/>
<circle cx="429.5" cy="478.3" r="4" fill="#60a5fa"/>
<circle cx="430.9" cy="478.3" r="4" fill="#60a5fa"/>
<circle cx="432.4" cy="478.3" r="4" fill="#60a5fa"/>
<circle cx="433.8" cy="478.3" r="4" fill="#60a5fa"/>
<circle cx="435.3" cy="478.3" r="4" fill="#60a5fa"/>
<circle cx="436.7" cy="478.3" r="4" fill="#60a5fa"/>
<circle cx="438.1" cy="478.3" r="4" fill="#60a5fa"/>
<circle cx="439.6" cy="478.3" r="4" fill="#60a5fa"/>
<circle cx="441.0" cy="478.3" r="4" fill="#60a5fa"/>
<circle cx="442.5" cy="478.3" r="4" fill="#60a5fa"/>
<circle cx="443.9" cy="478.3" r="4" fill="#60a5fa"/>
<circle cx="445.4" cy="478.3" r="4" fill="#60a5fa"/>
<circle cx="446.8" cy="478.3" r="4" fill="#60a5fa"/>
<circle cx="448.3" cy="478.3" r="4" fill="#60a5fa"/>
<circle cx="449.7" cy="478.3" r="4" fill="#60a5fa"/>
<circle cx="451.2" cy="478.3" r="4" fill="#60a5fa"/>
<circle cx="452.6" cy="478.3" r="4" fill="#60a5fa"/>
<circle cx="454.1" cy="478.3" r="4" fill="#60a5fa"/>
<circle cx="455.5" cy="478.3" r="4" fill="#60a5fa"/>
<circle cx="457.0" cy="478.3" r="4" fill="#60a5fa"/>
<circle cx="458.4" cy="478.3" r="4" fill="#60a5fa"/>
<circle cx="459.9" cy="478.3" r="4" fill="#60a5fa"/>
<circle cx="461.3" cy="478.3" r="4" fill="#60a5fa"/>
<circle cx="462.8" cy="478.3" r="4" fill="#60a5fa"/>
<circle cx="464.2" cy="478.3" r="4" fill="#60a5fa"/>
<circle cx="465.7" cy="478.3" r="4" fill="#60a5fa"/>
<circle cx="467.1" cy="478.3" r="4" fill="#60a5fa"/>
<circle cx="468.6" cy="478.3" r="4" fill="#60a5fa"/>
<circle cx="470.0" cy="478.3" r="4" fill="#60a5fa"/>
<circle cx="471.5" cy="478.3" r="4" fill="#60a5fa"/>
<circle cx="472.9" cy="478.3" r="4" fill="#60a5fa"/>
<circle cx="474.4" cy="478.3" r="4" fill="#60a5fa"/>
<circle cx="475.8" cy="478.3" r="4" fill="#60a5fa"/>
<circle cx="477.3" cy="478.3" r="4" fill="#60a5fa"/>
<circle cx="478.7" cy="478.3" r="4" fill="#60a5fa"/>
<circle cx="480.2" cy="478.3" r="4" fill="#60a5fa"/>
<circle cx="481.6" cy="478.3" r="4" fill="#60a5fa"/>
<circle cx="483.1" cy="478.3" r="4" fill="#60a5fa"/>
<circle cx="484.5" cy="478.3" r="4" fill="#60a5fa"/>
<circle cx="485.9" cy="478.3" r="4" fill="#60a5fa"/>
<circle cx="487.4" cy="478.3" r="4" fill="#60a5fa"/>
<circle cx="488.8" cy="478.3" r="4" fill="#60a5fa"/>
<circle cx="490.3" cy="478.3" r="4" fill="#60a5fa"/>
<circle cx="491.7" cy="478.3" r="4" fill="#60a5fa"/>
<circle cx="493.2" cy="478.3" r="4" fill="#60a5fa"/>
<circle cx="494.6" cy="478.3" r="4" fill="#60a5fa"/>
<circle cx="496.1" cy="478.3" r="4" fill="#60a5fa"/>
<circle cx="497.5" cy="478.3" r="4" fill="#60a5fa"/>
<circle cx="499.0" cy="478.3" r="4" fill="#60a5fa"/>
<circle cx="500.4" cy="478.3" r="4" fill="#60a5fa"/>
<circle cx="501.9" cy="478.3" r="4" fill="#60a5fa"/>
<circle cx="503.3" cy="478.3" r="4" fill="#60a5fa"/>
<circle cx="504.8" cy="478.3" r="4" fill="#60a5fa"/>
<circle cx="506.2" cy="478.3" r="4" fill="#60a5fa"/>
<circle cx="507.7" cy="478.3" r="4" fill="#60a5fa"/>
<circle cx="509.1" cy="478.3" r="4" fill="#60a5fa"/>
<circle cx="510.6" cy="478.3" r="4" fill="#60a5fa"/>
<circle cx="512.0" cy="478.3" r="4" fill="#60a5fa"/>
<circle cx="513.5" cy="478.3" r="4" fill="#60a5fa"/>
<circle cx="514.9" cy="478.3" r="4" fill="#60a5fa"/>
<circle cx="516.4" cy="478.3" r="4" fill="#60a5fa"/>
<circle cx="517.8" cy="478.3" r="4" fill="#60a5fa"/>
<circle cx="519.3" cy="478.3" r="4" fill="#60a5fa"/>
<circle cx="520.7" cy="478.3" r="4" fill="#60a5fa"/>
<circle cx="522.2" cy="478.3" r="4" fill="#60a5fa"/>
<circle cx="523.6" cy="478.3" r="4" fill="#60a5fa"/>
<circle cx="525.1" cy="478.3" r="4" fill="#60a5fa"/>
<circle cx="526.5" cy="478.3" r="4" fill="#60a5fa"/>
<circle cx="528.0" cy="478.3" r="4" fill="#60a5fa"/>
<circle cx="529.4" cy="478.3" r="4" fill="#60a5fa"/>
<circle cx="530.8" cy="478.3" r="4" fill="#60a5fa"/>
<circle cx="532.3" cy="478.3" r="4" fill="#60a5fa"/>
<circle cx="533.7" cy="478.3" r="4" fill="#60a5fa"/>
<circle cx="535.2" cy="478.3" r="4" fill="#60a5fa"/>
<circle cx="536.6" cy="478.3" r="4" fill="#60a5fa"/>
<circle cx="538.1" cy="478.3" r="4" fill="#60a5fa"/>
<circle cx="539.5" cy="478.3" r="4" fill="#60a5fa"/>
<circle cx="541.0" cy="478.3" r="4" fill="#60a5fa"/>
<circle cx="542.4" cy="478.3" r="4" fill="#60a5fa"/>
<circle cx="543.9" cy="478.3" r="4" fill="#60a5fa"/>
<circle cx="545.3" cy="478.3" r="4" fill="#60a5fa"/>
<circle cx="546.8" cy="478.3" r="4" fill="#60a5fa"/>
<circle cx="548.2" cy="478.3" r="4" fill="#60a5fa"/>
<circle cx="549.7" cy="478.3" r="4" fill="#60a5fa"/>
<circle cx="551.1" cy="478.3" r="4" fill="#60a5fa"/>
<circle cx="552.6" cy="478.3" r="4" fill="#60a5fa"/>
<circle cx="554.0" cy="478.3" r="4" fill="#60a5fa"/>
<circle cx="555.5" cy="478.3" r="4" fill="#60a5fa"/>
<circle cx="556.9" cy="478.3" r="4" fill="#60a5fa"/>
<circle cx="558.4" cy="478.3" r="4" fill="#60a5fa"/>
<circle cx="559.8" cy="478.3" r="4" fill="#60a5fa"/>
<circle cx="561.3" cy="478.3" r="4" fill="#60a5fa"/>
<circle cx="562.7" cy="478.3" r="4" fill="#60a5fa"/>
<circle cx="564.2" cy="478.3" r="4" fill="#60a5fa"/>
<circle cx="565.6" cy="478.3" r="4" fill="#60a5fa"/>
<circle cx="567.1" cy="478.3" r="4" fill="#60a5fa"/>
<circle cx="568.5" cy="478.3" r="4" fill="#60a5fa"/>
<circle cx="570.0" cy="478.3" r="4" fill="#60a5fa"/>
<circle cx="571.4" cy="478.3" r="4" fill="#60a5fa"/>
<circle cx="572.9" cy="478.3" r="4" fill="#60a5fa"/>
<circle cx="574.3" cy="478.3" r="4" fill="#60a5fa"/>
<circle cx="575.8" cy="478.3" r="4" fill="#60a5fa"/>
<circle cx="577.2" cy="478.3" r="4" fill="#60a5fa"/>
<circle cx="578.6" cy="478.3" r="4" fill="#60a5fa"/>
<circle cx="580.1" cy="478.3" r="4" fill="#60a5fa"/>
<circle cx="581.5" cy="478.3" r="4" fill="#60a5fa"/>
<circle cx="583.0" cy="478.3" r="4" fill="#60a5fa"/>
<circle cx="584.4" cy="478.3" r="4" fill="#60a5fa"/>
<circle cx="585.9" cy="478.3" r="4" fill="#60a5fa"/>
<circle cx="587.3" cy="478.3" r="4" fill="#60a5fa"/>
<circle cx="588.8" cy="478.3" r="4" fill="#60a5fa"/>
<circle cx="590.2" cy="478.3" r="4" fill="#60a5fa"/>
<circle cx="591.7" cy="478.3" r="4" fill="#60a5fa"/>
<circle cx="593.1" cy="478.3" r="4" fill="#60a5fa"/>
<circle cx="594.6" cy="478.3" r="4" fill="#60a5fa"/>
<circle cx="596.0" cy="478.3" r="4" fill="#60a5fa"/>
<circle cx="597.5" cy="478.3" r="4" fill="#60a5fa"/>
<circle cx="598.9" cy="478.3" r="4" fill="#60a5fa"/>
<circle cx="600.4" cy="478.3" r="4" fill="#60a5fa"/>
<circle cx="601.8" cy="478.3" r="4" fill="#60a5fa"/>
<circle cx="603.3" cy="478.3" r="4" fill="#60a5fa"/>
<circle cx="604.7" cy="478.3" r="4" fill="#60a5fa"/>
<circle cx="606.2" cy="478.3" r="4" fill="#60a5fa"/>
<circle cx="607.6" cy="478.3" r="4" fill="#60a5fa"/>
<circle cx="609.1" cy="478.3" r="4" fill="#60a5fa"/>
<circle cx="610.5" cy="478.3" r="4" fill="#60a5fa"/>
<circle cx="612.0" cy="478.3" r="4" fill="#60a5fa"/>
<circle cx="613.4" cy="478.3" r="4" fill="#60a5fa"/>
<circle cx="614.9" cy="478.3" r="4" fill="#60a5fa"/>
<circle cx="616.3" cy="478.3" r="4" fill="#60a5fa"/>
<circle cx="617.8" cy="478.3" r="4" fill="#60a5fa"/>
<circle cx="619.2" cy="478.3" r="4" fill="#60a5fa"/>
<circle cx="620.7" cy="478.3" r="4" fill="#60a5fa"/>
<circle cx="622.1" cy="478.3" r="4" fill="#60a5fa"/>
<circle cx="623.6" cy="478.3" r="4" fill="#60a5fa"/>
<circle cx="625.0" cy="478.3" r="4" fill="#60a5fa"/>
<circle cx="626.4" cy="478.3" r="4" fill="#60a5fa"/>
<circle cx="627.9" cy="478.3" r="4" fill="#60a5fa"/>
<circle cx="629.3" cy="478.3" r="4" fill="#60a5fa"/>
<circle cx="630.8" cy="478.3" r="4" fill="#60a5fa"/>
<circle cx="632.2" cy="478.3" r="4" fill="#60a5fa"/>
<circle cx="633.7" cy="478.3" r="4" fill="#60a5fa"/>
<circle cx="635.1" cy="478.3" r="4" fill="#60a5fa"/>
<circle cx="636.6" cy="478.3" r="4" fill="#60a5fa"/>
<circle cx="638.0" cy="478.3" r="4" fill="#60a5fa"/>
<circle cx="639.5" cy="478.3" r="4" fill="#60a5fa"/>
<circle cx="640.9" cy="478.3" r="4" fill="#60a5fa"/>
<circle cx="642.4" cy="478.3" r="4" fill="#60a5fa"/>
<circle cx="643.8" cy="478.3" r="4" fill="#60a5fa"/>
<circle cx="645.3" cy="478.3" r="4" fill="#60a5fa"/>
<circle cx="646.7" cy="478.3" r="4" fill="#60a5fa"/>
<circle cx="648.2" cy="478.3" r="4" fill="#60a5fa"/>
<circle cx="649.6" cy="478.3" r="4" fill="#60a5fa"/>
<circle cx="651.1" cy="478.3" r="4" fill="#60a5fa"/>
<circle cx="652.5" cy="478.3" r="4" fill="#60a5fa"/>
<circle cx="654.0" cy="478.3" r="4" fill="#60a5fa"/>
<circle cx="655.4" cy="478.3" r="4" fill="#60a5fa"/>
<circle cx="656.9" cy="478.3" r="4" fill="#60a5fa"/>
<circle cx="658.3" cy="478.3" r="4" fill="#60a5fa"/>
<circle cx="659.8" cy="478.3" r="4" fill="#60a5fa"/>
<circle cx="661.2" cy="478.3" r="4" fill="#60a5fa"/>
<circle cx="662.7" cy="478.3" r="4" fill="#60a5fa"/>
<circle cx="664.1" cy="478.3" r="4" fill="#60a5fa"/>
<circle cx="665.6" cy="478.3" r="4" fill="#60a5fa"/>
<circle cx="667.0" cy="478.3" r="4" fill="#60a5fa"/>
<circle cx="668.5" cy="478.3" r="4" fill="#60a5fa"/>
<circle cx="669.9" cy="478.3" r="4" fill="#60a5fa"/>
<circle cx="671.4" cy="478.3" r="4" fill="#60a5fa"/>
<circle cx="672.8" cy="478.3" r="4" fill="#60a5fa"/>
<circle cx="674.2" cy="478.3" r="4" fill="#60a5fa"/>
<circle cx="675.7" cy="478.3" r="4" fill="#60a5fa"/>
<circle cx="677.1" cy="478.3" r="4" fill="#60a5fa"/>
<circle cx="678.6" cy="478.3" r="4" fill="#60a5fa"/>
<circle cx="680.0" cy="478.3" r="4" fill="#60a5fa"/>
<circle cx="681.5" cy="478.3" r="4" fill="#60a5fa"/>
<circle cx="682.9" cy="478.3" r="4" fill="#60a5fa"/>
<circle cx="684.4" cy="478.3" r="4" fill="#60a5fa"/>
<circle cx="685.8" cy="478.3" r="4" fill="#60a5fa"/>
<circle cx="687.3" cy="478.3" r="4" fill="#60a5fa"/>
<circle cx="688.7" cy="478.3" r="4" fill="#60a5fa"/>
<circle cx="690.2" cy="478.3" r="4" fill="#60a5fa"/>
<circle cx="691.6" cy="478.3" r="4" fill="#60a5fa"/>
<circle cx="693.1" cy="478.3" r="4" fill="#60a5fa"/>
<circle cx="694.5" cy="478.3" r="4" fill="#60a5fa"/>
<circle cx="696.0" cy="478.3" r="4" fill="#60a5fa"/>
<circle cx="697.4" cy="478.3" r="4" fill="#60a5fa"/>
<circle cx="698.9" cy="478.3" r="4" fill="#60a5fa"/>
<circle cx="700.3" cy="478.3" r="4" fill="#60a5fa"/>
<circle cx="701.8" cy="478.3" r="4" fill="#60a5fa"/>
<circle cx="703.2" cy="478.3" r="4" fill="#60a5fa"/>
<circle cx="704.7" cy="478.3" r="4" fill="#60a5fa"/>
<circle cx="706.1" cy="478.3" r="4" fill="#60a5fa"/>
<circle cx="707.6" cy="478.3" r="4" fill="#60a5fa"/>
<circle cx="709.0" cy="478.3" r="4" fill="#60a5fa"/>
<circle cx="710.5" cy="478.3" r="4" fill="#60a5fa"/>
<circle cx="711.9" cy="478.3" r="4" fill="#60a5fa"/>
<circle cx="713.4" cy="478.3" r="4" fill="#60a5fa"/>
<circle cx="714.8" cy="478.3" r="4" fill="#60a5fa"/>
<circle cx="716.3" cy="478.3" r="4" fill="#60a5fa"/>
<circle cx="717.7" cy="478.3" r="4" fill="#60a5fa"/>
<circle cx="719.2" cy="478.3" r="4" fill="#60a5fa"/>
<circle cx="720.6" cy="478.3" r="4" fill="#60a5fa"/>
<circle cx="722.0" cy="478.3" r="4" fill="#60a5fa"/>
<circle cx="723.5" cy="478.3" r="4" fill="#60a5fa"/>
<circle cx="724.9" cy="478.3" r="4" fill="#60a5fa"/>
<circle cx="726.4" cy="478.3" r="4" fill="#60a5fa"/>
<circle cx="727.8" cy="478.3" r="4" fill="#60a5fa"/>
<circle cx="729.3" cy="478.3" r="4" fill="#60a5fa"/>
<circle cx="730.7" cy="478.3" r="4" fill="#60a5fa"/>
<circle cx="732.2" cy="478.3" r="4" fill="#60a5fa"/>
<circle cx="733.6" cy="478.3" r="4" fill="#60a5fa"/>
<circle cx="735.1" cy="478.3" r="4" fill="#60a5fa"/>
<circle cx="736.5" cy="478.3" r="4" fill="#60a5fa"/>
<circle cx="738.0" cy="478.3" r="4" fill="#60a5fa"/>
<circle cx="739.4" cy="478.3" r="4" fill="#60a5fa"/>
<circle cx="740.9" cy="478.3" r="4" fill="#60a5fa"/>
<circle cx="742.3" cy="478.3" r="4" fill="#60a5fa"/>
<circle cx="743.8" cy="478.3" r="4" fill="#60a5fa"/>
<circle cx="745.2" cy="478.3" r="4" fill="#60a5fa"/>
<circle cx="746.7" cy="478.3" r="4" fill="#60a5fa"/>
<circle cx="748.1" cy="478.3" r="4" fill="#60a5fa"/>
<circle cx="749.6" cy="478.3" r="4" fill="#60a5fa"/>
<circle cx="751.0" cy="478.3" r="4" fill="#60a5fa"/>
<circle cx="752.5" cy="478.3" r="4" fill="#60a5fa"/>
<circle cx="753.9" cy="478.3" r="4" fill="#60a5fa"/>
<circle cx="755.4" cy="478.3" r="4" fill="#60a5fa"/>
<circle cx="756.8" cy="478.3" r="4" fill="#60a5fa"/>
<circle cx="758.3" cy="478.3" r="4" fill="#60a5fa"/>
<circle cx="759.7" cy="478.3" r="4" fill="#60a5fa"/>
<circle cx="761.2" cy="478.3" r="4" fill="#60a5fa"/>
<circle cx="762.6" cy="478.3" r="4" fill="#60a5fa"/>
<circle cx="764.1" cy="478.3" r="4" fill="#60a5fa"/>
<circle cx="765.5" cy="478.3" r="4" fill="#60a5fa"/>
<circle cx="766.9" cy="478.3" r="4" fill="#60a5fa"/>
<circle cx="768.4" cy="478.3" r="4" fill="#60a5fa"/>
<circle cx="769.8" cy="478.3" r="4" fill="#60a5fa"/>
<circle cx="771.3" cy="478.3" r="4" fill="#60a5fa"/>
<circle cx="772.7" cy="478.3" r="4" fill="#60a5fa"/>
<circle cx="774.2" cy="478.3" r="4" fill="#60a5fa"/>
<circle cx="775.6" cy="478.3" r="4" fill="#60a5fa"/>
<circle cx="777.1" cy="478.3" r="4" fill="#60a5fa"/>
<circle cx="778.5" cy="478.3" r="4" fill="#60a5fa"/>
<circle cx="780.0" cy="478.3" r="4" fill="#60a5fa"/>
<circle cx="781.4" cy="478.3" r="4" fill="#60a5fa"/>
<circle cx="782.9" cy="478.3" r="4" fill="#60a5fa"/>
<circle cx="784.3" cy="478.3" r="4" fill="#60a5fa"/>
<circle cx="785.8" cy="478.3" r="4" fill="#60a5fa"/>
<circle cx="787.2" cy="478.3" r="4" fill="#60a5fa"/>
<circle cx="788.7" cy="478.3" r="4" fill="#60a5fa"/>
<circle cx="790.1" cy="478.3" r="4" fill="#60a5fa"/>
<circle cx="791.6" cy="478.3" r="4" fill="#60a5fa"/>
<circle cx="793.0" cy="478.3" r="4" fill="#60a5fa"/>
<circle cx="794.5" cy="478.3" r="4" fill="#60a5fa"/>
<circle cx="795.9" cy="478.3" r="4" fill="#60a5fa"/>
<circle cx="797.4" cy="478.3" r="4" fill="#60a5fa"/>
<circle cx="798.8" cy="478.3" r="4" fill="#60a5fa"/>
<circle cx="800.3" cy="478.3" r="4" fill="#60a5fa"/>
<circle cx="801.7" cy="478.3" r="4" fill="#60a5fa"/>
<circle cx="803.2" cy="478.3" r="4" fill="#60a5fa"/>
<circle cx="804.6" cy="478.3" r="4" fill="#60a5fa"/>
<circle cx="806.1" cy="478.3" r="4" fill="#60a5fa"/>
<circle cx="807.5" cy="478.3" r="4" fill="#60a5fa"/>
<circle cx="809.0" cy="478.3" r="4" fill="#60a5fa"/>
<circle cx="810.4" cy="478.3" r="4" fill="#60a5fa"/>
<circle cx="811.9" cy="478.3" r="4" fill="#60a5fa"/>
<circle cx="813.3" cy="478.3" r="4" fill="#60a5fa"/>
<circle cx="814.7" cy="478.3" r="4" fill="#60a5fa"/>
<circle cx="816.2" cy="478.3" r="4" fill="#60a5fa"/>
<circle cx="817.6" cy="478.3" r="4" fill="#60a5fa"/>
<circle cx="819.1" cy="478.3" r="4" fill="#60a5fa"/>
<circle cx="820.5" cy="478.3" r="4" fill="#60a5fa"/>
<circle cx="822.0" cy="478.3" r="4" fill="#60a5fa"/>
<circle cx="823.4" cy="478.3" r="4" fill="#60a5fa"/>
<circle cx="824.9" cy="478.3" r="4" fill="#60a5fa"/>
<circle cx="826.3" cy="478.3" r="4" fill="#60a5fa"/>
<circle cx="827.8" cy="478.3" r="4" fill="#60a5fa"/>
<circle cx="829.2" cy="478.3" r="4" fill="#60a5fa"/>
<circle cx="830.7" cy="478.3" r="4" fill="#60a5fa"/>
<circle cx="832.1" cy="478.3" r="4" fill="#60a5fa"/>
<circle cx="833.6" cy="478.3" r="4" fill="#60a5fa"/>
<circle cx="835.0" cy="478.3" r="4" fill="#60a5fa"/>
<circle cx="836.5" cy="478.3" r="4" fill="#60a5fa"/>
<circle cx="837.9" cy="478.3" r="4" fill="#60a5fa"/>
<circle cx="839.4" cy="478.3" r="4" fill="#60a5fa"/>
<circle cx="840.8" cy="478.3" r="4" fill="#60a5fa"/>
<circle cx="842.3" cy="478.3" r="4" fill="#60a5fa"/>
<circle cx="843.7" cy="478.3" r="4" fill="#60a5fa"/>
<circle cx="845.2" cy="478.3" r="4" fill="#60a5fa"/>
<circle cx="846.6" cy="478.3" r="4" fill="#60a5fa"/>
<circle cx="848.1" cy="478.3" r="4" fill="#60a5fa"/>
<circle cx="849.5" cy="478.3" r="4" fill="#60a5fa"/>
<circle cx="851.0" cy="478.3" r="4" fill="#60a5fa"/>
<circle cx="852.4" cy="478.3" r="4" fill="#60a5fa"/>
<circle cx="853.9" cy="478.3" r="4" fill="#60a5fa"/>
<circle cx="855.3" cy="478.3" r="4" fill="#60a5fa"/>
<circle cx="856.8" cy="478.3" r="4" fill="#60a5fa"/>
<circle cx="858.2" cy="478.3" r="4" fill="#60a5fa"/>
<circle cx="859.7" cy="478.3" r="4" fill="#60a5fa"/>
<circle cx="861.1" cy="478.3" r="4" fill="#60a5fa"/>
<circle cx="862.5" cy="478.3" r="4" fill="#60a5fa"/>
<circle cx="864.0" cy="478.3" r="4" fill="#60a5fa"/>
<circle cx="865.4" cy="478.3" r="4" fill="#60a5fa"/>
<circle cx="866.9" cy="178.1" r="4" fill="#60a5fa"/>
<circle cx="868.3" cy="178.1" r="4" fill="#60a5fa"/>
<circle cx="869.8" cy="178.1" r="4" fill="#60a5fa"/>
<circle cx="871.2" cy="178.1" r="4" fill="#60a5fa"/>
<circle cx="872.7" cy="178.1" r="4" fill="#60a5fa"/>
<circle cx="874.1" cy="178.1" r="4" fill="#60a5fa"/>
<circle cx="875.6" cy="178.1" r="4" fill="#60a5fa"/>
<circle cx="877.0" cy="178.1" r="4" fill="#60a5fa"/>
<circle cx="878.5" cy="178.1" r="4" fill="#60a5fa"/>
<circle cx="879.9" cy="178.1" r="4" fill="#60a5fa"/>
<circle cx="881.4" cy="178.1" r="4" fill="#60a5fa"/>
<circle cx="882.8" cy="178.1" r="4" fill="#60a5fa"/>
<circle cx="884.3" cy="178.1" r="4" fill="#60a5fa"/>
<circle cx="885.7" cy="178.1" r="4" fill="#60a5fa"/>
<circle cx="887.2" cy="178.1" r="4" fill="#60a5fa"/>
<circle cx="888.6" cy="178.1" r="4" fill="#60a5fa"/>
<circle cx="890.1" cy="178.1" r="4" fill="#60a5fa"/>
<circle cx="891.5" cy="178.1" r="4" fill="#60a5fa"/>
<circle cx="893.0" cy="178.1" r="4" fill="#60a5fa"/>
<circle cx="894.4" cy="178.1" r="4" fill="#60a5fa"/>
<circle cx="895.9" cy="178.1" r="4" fill="#60a5fa"/>
<circle cx="897.3" cy="178.1" r="4" fill="#60a5fa"/>
<circle cx="898.8" cy="178.1" r="4" fill="#60a5fa"/>
<circle cx="900.2" cy="178.1" r="4" fill="#60a5fa"/>
<circle cx="901.7" cy="178.1" r="4" fill="#60a5fa"/>
<circle cx="903.1" cy="178.1" r="4" fill="#60a5fa"/>
<circle cx="904.6" cy="178.1" r="4" fill="#60a5fa"/>
<circle cx="906.0" cy="178.1" r="4" fill="#60a5fa"/>
<circle cx="907.5" cy="178.1" r="4" fill="#60a5fa"/>
<circle cx="908.9" cy="178.1" r="4" fill="#60a5fa"/>
<circle cx="910.3" cy="178.1" r="4" fill="#60a5fa"/>
<circle cx="911.8" cy="178.1" r="4" fill="#60a5fa"/>
<circle cx="913.2" cy="178.1" r="4" fill="#60a5fa"/>
<circle cx="914.7" cy="178.1" r="4" fill="#60a5fa"/>
<circle cx="916.1" cy="178.1" r="4" fill="#60a5fa"/>
<circle cx="917.6" cy="178.1" r="4" fill="#60a5fa"/>
<circle cx="919.0" cy="178.1" r="4" fill="#60a5fa"/>
<circle cx="920.5" cy="178.1" r="4" fill="#60a5fa"/>
<circle cx="921.9" cy="178.1" r="4" fill="#60a5fa"/>
<circle cx="923.4" cy="178.1" r="4" fill="#60a5fa"/>
<circle cx="924.8" cy="178.1" r="4" fill="#60a5fa"/>
<circle cx="926.3" cy="178.1" r="4" fill="#60a5fa"/>
<circle cx="927.7" cy="178.1" r="4" fill="#60a5fa"/>
<circle cx="929.2" cy="178.1" r="4" fill="#60a5fa"/>
<circle cx="930.6" cy="178.1" r="4" fill="#60a5fa"/>
<circle cx="932.1" cy="178.1" r="4" fill="#60a5fa"/>
<circle cx="933.5" cy="178.1" r="4" fill="#60a5fa"/>
<circle cx="935.0" cy="178.1" r="4" fill="#60a5fa"/>
<circle cx="936.4" cy="178.1" r="4" fill="#60a5fa"/>
<circle cx="937.9" cy="178.1" r="4" fill="#60a5fa"/>
<circle cx="939.3" cy="178.1" r="4" fill="#60a5fa"/>
<circle cx="940.8" cy="178.1" r="4" fill="#60a5fa"/>
<circle cx="942.2" cy="178.1" r="4" fill="#60a5fa"/>
<circle cx="943.7" cy="178.1" r="4" fill="#60a5fa"/>
<circle cx="945.1" cy="178.1" r="4" fill="#60a5fa"/>
<circle cx="946.6" cy="178.1" r="4" fill="#60a5fa"/>
<circle cx="948.0" cy="178.1" r="4" fill="#60a5fa"/>
<circle cx="949.5" cy="178.1" r="4" fill="#60a5fa"/>
<circle cx="950.9" cy="178.1" r="4" fill="#60a5fa"/>
<circle cx="952.4" cy="178.1" r="4" fill="#60a5fa"/>
<circle cx="953.8" cy="178.1" r="4" fill="#60a5fa"/>
<circle cx="955.3" cy="178.1" r="4" fill="#60a5fa"/>
<circle cx="956.7" cy="178.1" r="4" fill="#60a5fa"/>
<circle cx="958.1" cy="178.1" r="4" fill="#60a5fa"/>
<circle cx="959.6" cy="178.1" r="4" fill="#60a5fa"/>
<circle cx="961.0" cy="178.1" r="4" fill="#60a5fa"/>
<circle cx="962.5" cy="178.1" r="4" fill="#60a5fa"/>
<circle cx="963.9" cy="178.1" r="4" fill="#60a5fa"/>
<circle cx="965.4" cy="178.1" r="4" fill="#60a5fa"/>
<circle cx="966.8" cy="178.1" r="4" fill="#60a5fa"/>
<circle cx="968.3" cy="178.1" r="4" fill="#60a5fa"/>
<circle cx="969.7" cy="178.1" r="4" fill="#60a5fa"/>
<circle cx="971.2" cy="178.1" r="4" fill="#60a5fa"/>
<circle cx="972.6" cy="178.1" r="4" fill="#60a5fa"/>
<circle cx="974.1" cy="178.1" r="4" fill="#60a5fa"/>
<circle cx="975.5" cy="178.1" r="4" fill="#60a5fa"/>
<circle cx="977.0" cy="178.1" r="4" fill="#60a5fa"/>
<circle cx="978.4" cy="178.1" r="4" fill="#60a5fa"/>
<circle cx="979.9" cy="178.1" r="4" fill="#60a5fa"/>
<circle cx="981.3" cy="178.1" r="4" fill="#60a5fa"/>
<circle cx="982.8" cy="178.1" r="4" fill="#60a5fa"/>
<circle cx="984.2" cy="178.1" r="4" fill="#60a5fa"/>
<circle cx="985.7" cy="178.1" r="4" fill="#60a5fa"/>
<circle cx="987.1" cy="178.1" r="4" fill="#60a5fa"/>
<circle cx="988.6" cy="178.1" r="4" fill="#60a5fa"/>
<circle cx="990.0" cy="178.1" r="4" fill="#60a5fa"/>
<circle cx="991.5" cy="178.1" r="4" fill="#60a5fa"/>
<circle cx="992.9" cy="178.1" r="4" fill="#60a5fa"/>
<circle cx="994.4" cy="178.1" r="4" fill="#60a5fa"/>
<circle cx="995.8" cy="178.1" r="4" fill="#60a5fa"/>
<circle cx="997.3" cy="178.1" r="4" fill="#60a5fa"/>
<circle cx="998.7" cy="178.1" r="4" fill="#60a5fa"/>
<circle cx="1000.2" cy="178.1" r="4" fill="#60a5fa"/>
<circle cx="1001.6" cy="178.1" r="4" fill="#60a5fa"/>
<circle cx="1003.1" cy="178.1" r="4" fill="#60a5fa"/>
<circle cx="1004.5" cy="178.1" r="4" fill="#60a5fa"/>
<circle cx="1005.9" cy="178.1" r="4" fill="#60a5fa"/>
<circle cx="1007.4" cy="178.1" r="4" fill="#60a5fa"/>
<circle cx="1008.8" cy="178.1" r="4" fill="#60a5fa"/>
<circle cx="1010.3" cy="178.1" r="4" fill="#60a5fa"/>
<circle cx="1011.7" cy="178.1" r="4" fill="#60a5fa"/>
<circle cx="1013.2" cy="178.1" r="4" fill="#60a5fa"/>
<circle cx="1014.6" cy="178.1" r="4" fill="#60a5fa"/>
<circle cx="1016.1" cy="178.1" r="4" fill="#60a5fa"/>
<circle cx="1017.5" cy="178.1" r="4" fill="#60a5fa"/>
<circle cx="1019.0" cy="178.1" r="4" fill="#60a5fa"/>
<circle cx="1020.4" cy="178.1" r="4" fill="#60a5fa"/>
<circle cx="1021.9" cy="178.1" r="4" fill="#60a5fa"/>
<circle cx="1023.3" cy="178.1" r="4" fill="#60a5fa"/>
<circle cx="1024.8" cy="178.1" r="4" fill="#60a5fa"/>
<circle cx="1026.2" cy="178.1" r="4" fill="#60a5fa"/>
<circle cx="1027.7" cy="178.1" r="4" fill="#60a5fa"/>
<circle cx="1029.1" cy="178.1" r="4" fill="#60a5fa"/>
<circle cx="1030.6" cy="178.1" r="4" fill="#60a5fa"/>
<circle cx="1032.0" cy="178.1" r="4" fill="#60a5fa"/>
<circle cx="1033.5" cy="178.1" r="4" fill="#60a5fa"/>
<circle cx="1034.9" cy="178.1" r="4" fill="#60a5fa"/>
<circle cx="1036.4" cy="178.1" r="4" fill="#60a5fa"/>
<circle cx="1037.8" cy="178.1" r="4" fill="#60a5fa"/>
<circle cx="1039.3" cy="178.1" r="4" fill="#60a5fa"/>
<circle cx="1040.7" cy="178.1" r="4" fill="#60a5fa"/>
<circle cx="1042.2" cy="178.1" r="4" fill="#60a5fa"/>
<circle cx="1043.6" cy="178.1" r="4" fill="#60a5fa"/>
<circle cx="1045.1" cy="178.1" r="4" fill="#60a5fa"/>
<circle cx="1046.5" cy="178.1" r="4" fill="#60a5fa"/>
<circle cx="1048.0" cy="178.1" r="4" fill="#60a5fa"/>
<circle cx="1049.4" cy="178.1" r="4" fill="#60a5fa"/>
<circle cx="1050.8" cy="178.1" r="4" fill="#60a5fa"/>
<circle cx="1052.3" cy="178.1" r="4" fill="#60a5fa"/>
<circle cx="1053.7" cy="178.1" r="4" fill="#60a5fa"/>
<circle cx="1055.2" cy="178.1" r="4" fill="#60a5fa"/>
<circle cx="1056.6" cy="178.1" r="4" fill="#60a5fa"/>
<circle cx="1058.1" cy="178.1" r="4" fill="#60a5fa"/>
<circle cx="1059.5" cy="178.1" r="4" fill="#60a5fa"/>
<circle cx="1061.0" cy="178.1" r="4" fill="#60a5fa"/>
<circle cx="1062.4" cy="178.1" r="4" fill="#60a5fa"/>
<circle cx="1063.9" cy="178.1" r="4" fill="#60a5fa"/>
<circle cx="1065.3" cy="178.1" r="4" fill="#60a5fa"/>
<circle cx="1066.8" cy="178.1" r="4" fill="#60a5fa"/>
<circle cx="1068.2" cy="178.1" r="4" fill="#60a5fa"/>
<circle cx="1069.7" cy="178.1" r="4" fill="#60a5fa"/>
<circle cx="1071.1" cy="178.1" r="4" fill="#60a5fa"/>
<circle cx="1072.6" cy="178.1" r="4" fill="#60a5fa"/>
<circle cx="1074.0" cy="178.1" r="4" fill="#60a5fa"/>
<circle cx="1075.5" cy="178.1" r="4" fill="#60a5fa"/>
<circle cx="1076.9" cy="178.1" r="4" fill="#60a5fa"/>
<circle cx="1078.4" cy="178.1" r="4" fill="#60a5fa"/>
<circle cx="1079.8" cy="178.1" r="4" fill="#60a5fa"/>
<circle cx="1081.3" cy="178.1" r="4" fill="#60a5fa"/>
<circle cx="1082.7" cy="178.1" r="4" fill="#60a5fa"/>
<circle cx="1084.2" cy="178.1" r="4" fill="#60a5fa"/>
<circle cx="1085.6" cy="178.1" r="4" fill="#60a5fa"/>
<circle cx="1087.1" cy="178.1" r="4" fill="#60a5fa"/>
<circle cx="1088.5" cy="178.1" r="4" fill="#60a5fa"/>
<circle cx="1090.0" cy="178.1" r="4" fill="#60a5fa"/>
<circle cx="1091.4" cy="178.1" r="4" fill="#60a5fa"/>
<circle cx="1092.9" cy="178.1" r="4" fill="#60a5fa"/>
<circle cx="1094.3" cy="178.1" r="4" fill="#60a5fa"/>
<circle cx="1095.8" cy="178.1" r="4" fill="#60a5fa"/>
<circle cx="1097.2" cy="178.1" r="4" fill="#60a5fa"/>
<circle cx="1098.6" cy="178.1" r="4" fill="#60a5fa"/>
<circle cx="1100.1" cy="178.1" r="4" fill="#60a5fa"/>
<circle cx="1101.5" cy="178.1" r="4" fill="#60a5fa"/>
<circle cx="1103.0" cy="178.1" r="4" fill="#60a5fa"/>
<circle cx="1104.4" cy="178.1" r="4" fill="#60a5fa"/>
<circle cx="1105.9" cy="178.1" r="4" fill="#60a5fa"/>
<circle cx="1107.3" cy="178.1" r="4" fill="#60a5fa"/>
<circle cx="1108.8" cy="178.1" r="4" fill="#60a5fa"/>
<circle cx="1110.2" cy="178.1" r="4" fill="#60a5fa"/>
<circle cx="1111.7" cy="178.1" r="4" fill="#60a5fa"/>
<circle cx="1113.1" cy="178.1" r="4" fill="#60a5fa"/>
<circle cx="1114.6" cy="178.1" r="4" fill="#60a5fa"/>
<circle cx="1116.0" cy="178.1" r="4" fill="#60a5fa"/>
<circle cx="1117.5" cy="178.1" r="4" fill="#60a5fa"/>
<circle cx="1118.9" cy="178.1" r="4" fill="#60a5fa"/>
<circle cx="1120.4" cy="178.1" r="4" fill="#60a5fa"/>
<circle cx="1121.8" cy="178.1" r="4" fill="#60a5fa"/>
<circle cx="1123.3" cy="178.1" r="4" fill="#60a5fa"/>
<circle cx="1124.7" cy="178.1" r="4" fill="#60a5fa"/>
<circle cx="1126.2" cy="178.1" r="4" fill="#60a5fa"/>
<circle cx="1127.6" cy="178.1" r="4" fill="#60a5fa"/>
<circle cx="1129.1" cy="178.1" r="4" fill="#60a5fa"/>
<circle cx="1130.5" cy="178.1" r="4" fill="#60a5fa"/>
<circle cx="1132.0" cy="178.1" r="4" fill="#60a5fa"/>
<circle cx="1133.4" cy="178.1" r="4" fill="#60a5fa"/>
<circle cx="1134.9" cy="178.1" r="4" fill="#60a5fa"/>
<circle cx="1136.3" cy="178.1" r="4" fill="#60a5fa"/>
<circle cx="1137.8" cy="178.1" r="4" fill="#60a5fa"/>
<circle cx="1139.2" cy="178.1" r="4" fill="#60a5fa"/>
<circle cx="1140.7" cy="178.1" r="4" fill="#60a5fa"/>
<circle cx="1142.1" cy="178.1" r="4" fill="#60a5fa"/>
<circle cx="1143.6" cy="178.1" r="4" fill="#60a5fa"/>
<circle cx="1145.0" cy="178.1" r="4" fill="#60a5fa"/>
<rect x="105" y="657" width="16" height="4" fill="#60a5fa"/>
<text x="129" y="665" fill="#cbd5e1" font-family="Segoe UI,Arial,sans-serif" font-size="13">Baseline</text>
<path d="M 105.0 332.7 L 106.4 332.7 L 107.9 332.7 L 109.3 332.7 L 110.8 332.7 L 112.2 332.7 L 113.7 332.7 L 115.1 332.7 L 116.6 332.7 L 118.0 332.7 L 119.5 332.7 L 120.9 332.7 L 122.4 332.7 L 123.8 332.7 L 125.3 332.7 L 126.7 332.7 L 128.2 332.7 L 129.6 332.7 L 131.1 332.7 L 132.5 332.7 L 134.0 332.7 L 135.4 332.7 L 136.9 332.7 L 138.3 254.4 L 139.8 254.4 L 141.2 254.4 L 142.7 254.4 L 144.1 254.4 L 145.6 254.4 L 147.0 254.4 L 148.5 254.4 L 149.9 254.4 L 151.4 254.4 L 152.8 254.4 L 154.2 254.4 L 155.7 254.4 L 157.1 254.4 L 158.6 254.4 L 160.0 254.4 L 161.5 254.4 L 162.9 254.4 L 164.4 254.4 L 165.8 254.4 L 167.3 254.4 L 168.7 254.4 L 170.2 254.4 L 171.6 254.4 L 173.1 254.4 L 174.5 254.4 L 176.0 254.4 L 177.4 254.4 L 178.9 254.4 L 180.3 254.4 L 181.8 254.4 L 183.2 254.4 L 184.7 254.4 L 186.1 254.4 L 187.6 254.4 L 189.0 254.4 L 190.5 254.4 L 191.9 254.4 L 193.4 254.4 L 194.8 254.4 L 196.3 254.4 L 197.7 254.4 L 199.2 254.4 L 200.6 254.4 L 202.0 254.4 L 203.5 254.4 L 204.9 254.4 L 206.4 254.4 L 207.8 254.4 L 209.3 254.4 L 210.7 536.9 L 212.2 536.9 L 213.6 536.9 L 215.1 536.9 L 216.5 536.9 L 218.0 536.9 L 219.4 536.9 L 220.9 536.9 L 222.3 536.9 L 223.8 536.9 L 225.2 536.9 L 226.7 536.9 L 228.1 536.9 L 229.6 536.9 L 231.0 536.9 L 232.5 536.9 L 233.9 536.9 L 235.4 536.9 L 236.8 536.9 L 238.3 536.9 L 239.7 536.9 L 241.2 536.9 L 242.6 536.9 L 244.1 536.9 L 245.5 536.9 L 246.9 536.9 L 248.4 536.9 L 249.8 536.9 L 251.3 536.9 L 252.7 536.9 L 254.2 536.9 L 255.6 536.9 L 257.1 536.9 L 258.5 536.9 L 260.0 536.9 L 261.4 536.9 L 262.9 536.9 L 264.3 536.9 L 265.8 536.9 L 267.2 536.9 L 268.7 536.9 L 270.1 536.9 L 271.6 536.9 L 273.0 536.9 L 274.5 536.9 L 275.9 536.9 L 277.4 536.9 L 278.8 536.9 L 280.3 536.9 L 281.7 536.9 L 283.2 536.9 L 284.6 536.9 L 286.1 536.9 L 287.5 536.9 L 289.0 536.9 L 290.4 536.9 L 291.9 536.9 L 293.3 536.9 L 294.7 536.9 L 296.2 536.9 L 297.6 536.9 L 299.1 536.9 L 300.5 536.9 L 302.0 536.9 L 303.4 536.9 L 304.9 536.9 L 306.3 536.9 L 307.8 536.9 L 309.2 536.9 L 310.7 536.9 L 312.1 536.9 L 313.6 536.9 L 315.0 536.9 L 316.5 536.9 L 317.9 536.9 L 319.4 536.9 L 320.8 536.9 L 322.3 536.9 L 323.7 536.9 L 325.2 536.9 L 326.6 536.9 L 328.1 536.9 L 329.5 536.9 L 331.0 536.9 L 332.4 536.9 L 333.9 536.9 L 335.3 536.9 L 336.8 536.9 L 338.2 536.9 L 339.7 536.9 L 341.1 536.9 L 342.5 536.9 L 344.0 536.9 L 345.4 536.9 L 346.9 536.9 L 348.3 536.9 L 349.8 536.9 L 351.2 536.9 L 352.7 536.9 L 354.1 536.9 L 355.6 536.9 L 357.0 536.9 L 358.5 536.9 L 359.9 536.9 L 361.4 536.9 L 362.8 536.9 L 364.3 536.9 L 365.7 536.9 L 367.2 536.9 L 368.6 536.9 L 370.1 536.9 L 371.5 536.9 L 373.0 536.9 L 374.4 536.9 L 375.9 536.9 L 377.3 536.9 L 378.8 536.9 L 380.2 536.9 L 381.7 536.9 L 383.1 536.9 L 384.6 536.9 L 386.0 536.9 L 387.5 536.9 L 388.9 536.9 L 390.3 536.9 L 391.8 536.9 L 393.2 536.9 L 394.7 536.9 L 396.1 536.9 L 397.6 536.9 L 399.0 536.9 L 400.5 536.9 L 401.9 536.9 L 403.4 536.9 L 404.8 536.9 L 406.3 536.9 L 407.7 536.9 L 409.2 536.9 L 410.6 536.9 L 412.1 536.9 L 413.5 536.9 L 415.0 536.9 L 416.4 536.9 L 417.9 536.9 L 419.3 536.9 L 420.8 536.9 L 422.2 536.9 L 423.7 536.9 L 425.1 536.9 L 426.6 536.9 L 428.0 536.9 L 429.5 536.9 L 430.9 536.9 L 432.4 536.9 L 433.8 536.9 L 435.3 536.9 L 436.7 536.9 L 438.1 536.9 L 439.6 536.9 L 441.0 536.9 L 442.5 536.9 L 443.9 536.9 L 445.4 536.9 L 446.8 536.9 L 448.3 536.9 L 449.7 536.9 L 451.2 536.9 L 452.6 536.9 L 454.1 536.9 L 455.5 536.9 L 457.0 536.9 L 458.4 536.9 L 459.9 536.9 L 461.3 536.9 L 462.8 536.9 L 464.2 536.9 L 465.7 536.9 L 467.1 536.9 L 468.6 536.9 L 470.0 536.9 L 471.5 536.9 L 472.9 536.9 L 474.4 536.9 L 475.8 536.9 L 477.3 536.9 L 478.7 536.9 L 480.2 536.9 L 481.6 536.9 L 483.1 536.9 L 484.5 536.9 L 485.9 536.9 L 487.4 536.9 L 488.8 536.9 L 490.3 536.9 L 491.7 536.9 L 493.2 536.9 L 494.6 536.9 L 496.1 536.9 L 497.5 536.9 L 499.0 536.9 L 500.4 536.9 L 501.9 536.9 L 503.3 536.9 L 504.8 536.9 L 506.2 536.9 L 507.7 536.9 L 509.1 536.9 L 510.6 536.9 L 512.0 536.9 L 513.5 536.9 L 514.9 536.9 L 516.4 536.9 L 517.8 536.9 L 519.3 536.9 L 520.7 536.9 L 522.2 536.9 L 523.6 536.9 L 525.1 536.9 L 526.5 536.9 L 528.0 536.9 L 529.4 536.9 L 530.8 536.9 L 532.3 536.9 L 533.7 536.9 L 535.2 536.9 L 536.6 536.9 L 538.1 536.9 L 539.5 536.9 L 541.0 536.9 L 542.4 536.9 L 543.9 536.9 L 545.3 536.9 L 546.8 536.9 L 548.2 536.9 L 549.7 536.9 L 551.1 536.9 L 552.6 536.9 L 554.0 536.9 L 555.5 536.9 L 556.9 536.9 L 558.4 536.9 L 559.8 536.9 L 561.3 536.9 L 562.7 536.9 L 564.2 536.9 L 565.6 536.9 L 567.1 536.9 L 568.5 536.9 L 570.0 536.9 L 571.4 536.9 L 572.9 536.9 L 574.3 536.9 L 575.8 536.9 L 577.2 536.9 L 578.6 536.9 L 580.1 536.9 L 581.5 536.9 L 583.0 536.9 L 584.4 536.9 L 585.9 536.9 L 587.3 536.9 L 588.8 536.9 L 590.2 536.9 L 591.7 536.9 L 593.1 536.9 L 594.6 536.9 L 596.0 536.9 L 597.5 536.9 L 598.9 536.9 L 600.4 536.9 L 601.8 536.9 L 603.3 536.9 L 604.7 536.9 L 606.2 536.9 L 607.6 536.9 L 609.1 536.9 L 610.5 536.9 L 612.0 536.9 L 613.4 536.9 L 614.9 536.9 L 616.3 536.9 L 617.8 536.9 L 619.2 536.9 L 620.7 536.9 L 622.1 536.9 L 623.6 536.9 L 625.0 536.9 L 626.4 536.9 L 627.9 536.9 L 629.3 536.9 L 630.8 536.9 L 632.2 536.9 L 633.7 536.9 L 635.1 536.9 L 636.6 536.9 L 638.0 536.9 L 639.5 536.9 L 640.9 536.9 L 642.4 536.9 L 643.8 536.9 L 645.3 536.9 L 646.7 536.9 L 648.2 536.9 L 649.6 536.9 L 651.1 536.9 L 652.5 536.9 L 654.0 536.9 L 655.4 536.9 L 656.9 536.9 L 658.3 536.9 L 659.8 536.9 L 661.2 536.9 L 662.7 536.9 L 664.1 536.9 L 665.6 536.9 L 667.0 536.9 L 668.5 536.9 L 669.9 536.9 L 671.4 536.9 L 672.8 536.9 L 674.2 536.9 L 675.7 536.9 L 677.1 536.9 L 678.6 536.9 L 680.0 536.9 L 681.5 536.9 L 682.9 536.9 L 684.4 536.9 L 685.8 536.9 L 687.3 536.9 L 688.7 536.9 L 690.2 536.9 L 691.6 536.9 L 693.1 536.9 L 694.5 536.9 L 696.0 536.9 L 697.4 536.9 L 698.9 536.9 L 700.3 536.9 L 701.8 536.9 L 703.2 536.9 L 704.7 536.9 L 706.1 536.9 L 707.6 536.9 L 709.0 536.9 L 710.5 536.9 L 711.9 536.9 L 713.4 536.9 L 714.8 536.9 L 716.3 536.9 L 717.7 536.9 L 719.2 536.9 L 720.6 536.9 L 722.0 536.9 L 723.5 536.9 L 724.9 536.9 L 726.4 536.9 L 727.8 536.9 L 729.3 536.9 L 730.7 536.9 L 732.2 536.9 L 733.6 536.9 L 735.1 536.9 L 736.5 536.9 L 738.0 536.9 L 739.4 536.9 L 740.9 536.9 L 742.3 536.9 L 743.8 536.9 L 745.2 536.9 L 746.7 536.9 L 748.1 536.9 L 749.6 536.9 L 751.0 536.9 L 752.5 536.9 L 753.9 536.9 L 755.4 536.9 L 756.8 536.9 L 758.3 536.9 L 759.7 536.9 L 761.2 536.9 L 762.6 536.9 L 764.1 536.9 L 765.5 536.9 L 766.9 536.9 L 768.4 536.9 L 769.8 536.9 L 771.3 536.9 L 772.7 536.9 L 774.2 536.9 L 775.6 536.9 L 777.1 536.9 L 778.5 536.9 L 780.0 536.9 L 781.4 536.9 L 782.9 536.9 L 784.3 536.9 L 785.8 536.9 L 787.2 536.9 L 788.7 536.9 L 790.1 536.9 L 791.6 536.9 L 793.0 536.9 L 794.5 536.9 L 795.9 536.9 L 797.4 536.9 L 798.8 536.9 L 800.3 536.9 L 801.7 536.9 L 803.2 536.9 L 804.6 536.9 L 806.1 536.9 L 807.5 536.9 L 809.0 536.9 L 810.4 536.9 L 811.9 536.9 L 813.3 536.9 L 814.7 536.9 L 816.2 536.9 L 817.6 536.9 L 819.1 536.9 L 820.5 536.9 L 822.0 536.9 L 823.4 536.9 L 824.9 536.9 L 826.3 536.9 L 827.8 536.9 L 829.2 536.9 L 830.7 536.9 L 832.1 536.9 L 833.6 536.9 L 835.0 536.9 L 836.5 536.9 L 837.9 536.9 L 839.4 536.9 L 840.8 536.9 L 842.3 536.9 L 843.7 536.9 L 845.2 536.9 L 846.6 536.9 L 848.1 536.9 L 849.5 536.9 L 851.0 536.9 L 852.4 536.9 L 853.9 536.9 L 855.3 536.9 L 856.8 536.9 L 858.2 536.9 L 859.7 536.9 L 861.1 536.9 L 862.5 536.9 L 864.0 536.9 L 865.4 536.9 L 866.9 236.7 L 868.3 236.7 L 869.8 236.7 L 871.2 236.7 L 872.7 236.7 L 874.1 236.7 L 875.6 236.7 L 877.0 236.7 L 878.5 236.7 L 879.9 236.7 L 881.4 236.7 L 882.8 236.7 L 884.3 236.7 L 885.7 236.7 L 887.2 236.7 L 888.6 236.7 L 890.1 236.7 L 891.5 236.7 L 893.0 236.7 L 894.4 236.7 L 895.9 236.7 L 897.3 236.7 L 898.8 236.7 L 900.2 236.7 L 901.7 236.7 L 903.1 236.7 L 904.6 236.7 L 906.0 236.7 L 907.5 236.7 L 908.9 236.7 L 910.3 236.7 L 911.8 236.7 L 913.2 236.7 L 914.7 236.7 L 916.1 236.7 L 917.6 236.7 L 919.0 236.7 L 920.5 236.7 L 921.9 236.7 L 923.4 236.7 L 924.8 236.7 L 926.3 236.7 L 927.7 236.7 L 929.2 236.7 L 930.6 236.7 L 932.1 236.7 L 933.5 236.7 L 935.0 236.7 L 936.4 236.7 L 937.9 236.7 L 939.3 236.7 L 940.8 236.7 L 942.2 236.7 L 943.7 236.7 L 945.1 236.7 L 946.6 236.7 L 948.0 236.7 L 949.5 236.7 L 950.9 236.7 L 952.4 236.7 L 953.8 236.7 L 955.3 236.7 L 956.7 236.7 L 958.1 236.7 L 959.6 236.7 L 961.0 236.7 L 962.5 236.7 L 963.9 236.7 L 965.4 236.7 L 966.8 236.7 L 968.3 236.7 L 969.7 236.7 L 971.2 236.7 L 972.6 236.7 L 974.1 236.7 L 975.5 236.7 L 977.0 236.7 L 978.4 236.7 L 979.9 236.7 L 981.3 236.7 L 982.8 236.7 L 984.2 236.7 L 985.7 236.7 L 987.1 236.7 L 988.6 236.7 L 990.0 236.7 L 991.5 236.7 L 992.9 236.7 L 994.4 236.7 L 995.8 236.7 L 997.3 236.7 L 998.7 236.7 L 1000.2 236.7 L 1001.6 236.7 L 1003.1 236.7 L 1004.5 236.7 L 1005.9 236.7 L 1007.4 236.7 L 1008.8 236.7 L 1010.3 236.7 L 1011.7 236.7 L 1013.2 236.7 L 1014.6 236.7 L 1016.1 236.7 L 1017.5 236.7 L 1019.0 236.7 L 1020.4 236.7 L 1021.9 236.7 L 1023.3 236.7 L 1024.8 236.7 L 1026.2 236.7 L 1027.7 236.7 L 1029.1 236.7 L 1030.6 236.7 L 1032.0 236.7 L 1033.5 236.7 L 1034.9 236.7 L 1036.4 236.7 L 1037.8 236.7 L 1039.3 236.7 L 1040.7 236.7 L 1042.2 236.7 L 1043.6 236.7 L 1045.1 236.7 L 1046.5 236.7 L 1048.0 236.7 L 1049.4 236.7 L 1050.8 236.7 L 1052.3 236.7 L 1053.7 236.7 L 1055.2 236.7 L 1056.6 236.7 L 1058.1 236.7 L 1059.5 236.7 L 1061.0 236.7 L 1062.4 236.7 L 1063.9 236.7 L 1065.3 236.7 L 1066.8 236.7 L 1068.2 236.7 L 1069.7 236.7 L 1071.1 236.7 L 1072.6 236.7 L 1074.0 236.7 L 1075.5 236.7 L 1076.9 236.7 L 1078.4 236.7 L 1079.8 236.7 L 1081.3 236.7 L 1082.7 236.7 L 1084.2 236.7 L 1085.6 236.7 L 1087.1 236.7 L 1088.5 236.7 L 1090.0 236.7 L 1091.4 236.7 L 1092.9 236.7 L 1094.3 236.7 L 1095.8 236.7 L 1097.2 236.7 L 1098.6 236.7 L 1100.1 236.7 L 1101.5 236.7 L 1103.0 236.7 L 1104.4 236.7 L 1105.9 236.7 L 1107.3 236.7 L 1108.8 236.7 L 1110.2 236.7 L 1111.7 236.7 L 1113.1 236.7 L 1114.6 236.7 L 1116.0 236.7 L 1117.5 236.7 L 1118.9 236.7 L 1120.4 236.7 L 1121.8 236.7 L 1123.3 236.7 L 1124.7 236.7 L 1126.2 236.7 L 1127.6 236.7 L 1129.1 236.7 L 1130.5 236.7 L 1132.0 236.7 L 1133.4 236.7 L 1134.9 236.7 L 1136.3 236.7 L 1137.8 236.7 L 1139.2 236.7 L 1140.7 236.7 L 1142.1 236.7 L 1143.6 236.7 L 1145.0 236.7" fill="none" stroke="#14b8a6" stroke-width="3" stroke-linejoin="round"/>
<circle cx="105.0" cy="332.7" r="4" fill="#14b8a6"/>
<circle cx="106.4" cy="332.7" r="4" fill="#14b8a6"/>
<circle cx="107.9" cy="332.7" r="4" fill="#14b8a6"/>
<circle cx="109.3" cy="332.7" r="4" fill="#14b8a6"/>
<circle cx="110.8" cy="332.7" r="4" fill="#14b8a6"/>
<circle cx="112.2" cy="332.7" r="4" fill="#14b8a6"/>
<circle cx="113.7" cy="332.7" r="4" fill="#14b8a6"/>
<circle cx="115.1" cy="332.7" r="4" fill="#14b8a6"/>
<circle cx="116.6" cy="332.7" r="4" fill="#14b8a6"/>
<circle cx="118.0" cy="332.7" r="4" fill="#14b8a6"/>
<circle cx="119.5" cy="332.7" r="4" fill="#14b8a6"/>
<circle cx="120.9" cy="332.7" r="4" fill="#14b8a6"/>
<circle cx="122.4" cy="332.7" r="4" fill="#14b8a6"/>
<circle cx="123.8" cy="332.7" r="4" fill="#14b8a6"/>
<circle cx="125.3" cy="332.7" r="4" fill="#14b8a6"/>
<circle cx="126.7" cy="332.7" r="4" fill="#14b8a6"/>
<circle cx="128.2" cy="332.7" r="4" fill="#14b8a6"/>
<circle cx="129.6" cy="332.7" r="4" fill="#14b8a6"/>
<circle cx="131.1" cy="332.7" r="4" fill="#14b8a6"/>
<circle cx="132.5" cy="332.7" r="4" fill="#14b8a6"/>
<circle cx="134.0" cy="332.7" r="4" fill="#14b8a6"/>
<circle cx="135.4" cy="332.7" r="4" fill="#14b8a6"/>
<circle cx="136.9" cy="332.7" r="4" fill="#14b8a6"/>
<circle cx="138.3" cy="254.4" r="4" fill="#14b8a6"/>
<circle cx="139.8" cy="254.4" r="4" fill="#14b8a6"/>
<circle cx="141.2" cy="254.4" r="4" fill="#14b8a6"/>
<circle cx="142.7" cy="254.4" r="4" fill="#14b8a6"/>
<circle cx="144.1" cy="254.4" r="4" fill="#14b8a6"/>
<circle cx="145.6" cy="254.4" r="4" fill="#14b8a6"/>
<circle cx="147.0" cy="254.4" r="4" fill="#14b8a6"/>
<circle cx="148.5" cy="254.4" r="4" fill="#14b8a6"/>
<circle cx="149.9" cy="254.4" r="4" fill="#14b8a6"/>
<circle cx="151.4" cy="254.4" r="4" fill="#14b8a6"/>
<circle cx="152.8" cy="254.4" r="4" fill="#14b8a6"/>
<circle cx="154.2" cy="254.4" r="4" fill="#14b8a6"/>
<circle cx="155.7" cy="254.4" r="4" fill="#14b8a6"/>
<circle cx="157.1" cy="254.4" r="4" fill="#14b8a6"/>
<circle cx="158.6" cy="254.4" r="4" fill="#14b8a6"/>
<circle cx="160.0" cy="254.4" r="4" fill="#14b8a6"/>
<circle cx="161.5" cy="254.4" r="4" fill="#14b8a6"/>
<circle cx="162.9" cy="254.4" r="4" fill="#14b8a6"/>
<circle cx="164.4" cy="254.4" r="4" fill="#14b8a6"/>
<circle cx="165.8" cy="254.4" r="4" fill="#14b8a6"/>
<circle cx="167.3" cy="254.4" r="4" fill="#14b8a6"/>
<circle cx="168.7" cy="254.4" r="4" fill="#14b8a6"/>
<circle cx="170.2" cy="254.4" r="4" fill="#14b8a6"/>
<circle cx="171.6" cy="254.4" r="4" fill="#14b8a6"/>
<circle cx="173.1" cy="254.4" r="4" fill="#14b8a6"/>
<circle cx="174.5" cy="254.4" r="4" fill="#14b8a6"/>
<circle cx="176.0" cy="254.4" r="4" fill="#14b8a6"/>
<circle cx="177.4" cy="254.4" r="4" fill="#14b8a6"/>
<circle cx="178.9" cy="254.4" r="4" fill="#14b8a6"/>
<circle cx="180.3" cy="254.4" r="4" fill="#14b8a6"/>
<circle cx="181.8" cy="254.4" r="4" fill="#14b8a6"/>
<circle cx="183.2" cy="254.4" r="4" fill="#14b8a6"/>
<circle cx="184.7" cy="254.4" r="4" fill="#14b8a6"/>
<circle cx="186.1" cy="254.4" r="4" fill="#14b8a6"/>
<circle cx="187.6" cy="254.4" r="4" fill="#14b8a6"/>
<circle cx="189.0" cy="254.4" r="4" fill="#14b8a6"/>
<circle cx="190.5" cy="254.4" r="4" fill="#14b8a6"/>
<circle cx="191.9" cy="254.4" r="4" fill="#14b8a6"/>
<circle cx="193.4" cy="254.4" r="4" fill="#14b8a6"/>
<circle cx="194.8" cy="254.4" r="4" fill="#14b8a6"/>
<circle cx="196.3" cy="254.4" r="4" fill="#14b8a6"/>
<circle cx="197.7" cy="254.4" r="4" fill="#14b8a6"/>
<circle cx="199.2" cy="254.4" r="4" fill="#14b8a6"/>
<circle cx="200.6" cy="254.4" r="4" fill="#14b8a6"/>
<circle cx="202.0" cy="254.4" r="4" fill="#14b8a6"/>
<circle cx="203.5" cy="254.4" r="4" fill="#14b8a6"/>
<circle cx="204.9" cy="254.4" r="4" fill="#14b8a6"/>
<circle cx="206.4" cy="254.4" r="4" fill="#14b8a6"/>
<circle cx="207.8" cy="254.4" r="4" fill="#14b8a6"/>
<circle cx="209.3" cy="254.4" r="4" fill="#14b8a6"/>
<circle cx="210.7" cy="536.9" r="4" fill="#14b8a6"/>
<circle cx="212.2" cy="536.9" r="4" fill="#14b8a6"/>
<circle cx="213.6" cy="536.9" r="4" fill="#14b8a6"/>
<circle cx="215.1" cy="536.9" r="4" fill="#14b8a6"/>
<circle cx="216.5" cy="536.9" r="4" fill="#14b8a6"/>
<circle cx="218.0" cy="536.9" r="4" fill="#14b8a6"/>
<circle cx="219.4" cy="536.9" r="4" fill="#14b8a6"/>
<circle cx="220.9" cy="536.9" r="4" fill="#14b8a6"/>
<circle cx="222.3" cy="536.9" r="4" fill="#14b8a6"/>
<circle cx="223.8" cy="536.9" r="4" fill="#14b8a6"/>
<circle cx="225.2" cy="536.9" r="4" fill="#14b8a6"/>
<circle cx="226.7" cy="536.9" r="4" fill="#14b8a6"/>
<circle cx="228.1" cy="536.9" r="4" fill="#14b8a6"/>
<circle cx="229.6" cy="536.9" r="4" fill="#14b8a6"/>
<circle cx="231.0" cy="536.9" r="4" fill="#14b8a6"/>
<circle cx="232.5" cy="536.9" r="4" fill="#14b8a6"/>
<circle cx="233.9" cy="536.9" r="4" fill="#14b8a6"/>
<circle cx="235.4" cy="536.9" r="4" fill="#14b8a6"/>
<circle cx="236.8" cy="536.9" r="4" fill="#14b8a6"/>
<circle cx="238.3" cy="536.9" r="4" fill="#14b8a6"/>
<circle cx="239.7" cy="536.9" r="4" fill="#14b8a6"/>
<circle cx="241.2" cy="536.9" r="4" fill="#14b8a6"/>
<circle cx="242.6" cy="536.9" r="4" fill="#14b8a6"/>
<circle cx="244.1" cy="536.9" r="4" fill="#14b8a6"/>
<circle cx="245.5" cy="536.9" r="4" fill="#14b8a6"/>
<circle cx="246.9" cy="536.9" r="4" fill="#14b8a6"/>
<circle cx="248.4" cy="536.9" r="4" fill="#14b8a6"/>
<circle cx="249.8" cy="536.9" r="4" fill="#14b8a6"/>
<circle cx="251.3" cy="536.9" r="4" fill="#14b8a6"/>
<circle cx="252.7" cy="536.9" r="4" fill="#14b8a6"/>
<circle cx="254.2" cy="536.9" r="4" fill="#14b8a6"/>
<circle cx="255.6" cy="536.9" r="4" fill="#14b8a6"/>
<circle cx="257.1" cy="536.9" r="4" fill="#14b8a6"/>
<circle cx="258.5" cy="536.9" r="4" fill="#14b8a6"/>
<circle cx="260.0" cy="536.9" r="4" fill="#14b8a6"/>
<circle cx="261.4" cy="536.9" r="4" fill="#14b8a6"/>
<circle cx="262.9" cy="536.9" r="4" fill="#14b8a6"/>
<circle cx="264.3" cy="536.9" r="4" fill="#14b8a6"/>
<circle cx="265.8" cy="536.9" r="4" fill="#14b8a6"/>
<circle cx="267.2" cy="536.9" r="4" fill="#14b8a6"/>
<circle cx="268.7" cy="536.9" r="4" fill="#14b8a6"/>
<circle cx="270.1" cy="536.9" r="4" fill="#14b8a6"/>
<circle cx="271.6" cy="536.9" r="4" fill="#14b8a6"/>
<circle cx="273.0" cy="536.9" r="4" fill="#14b8a6"/>
<circle cx="274.5" cy="536.9" r="4" fill="#14b8a6"/>
<circle cx="275.9" cy="536.9" r="4" fill="#14b8a6"/>
<circle cx="277.4" cy="536.9" r="4" fill="#14b8a6"/>
<circle cx="278.8" cy="536.9" r="4" fill="#14b8a6"/>
<circle cx="280.3" cy="536.9" r="4" fill="#14b8a6"/>
<circle cx="281.7" cy="536.9" r="4" fill="#14b8a6"/>
<circle cx="283.2" cy="536.9" r="4" fill="#14b8a6"/>
<circle cx="284.6" cy="536.9" r="4" fill="#14b8a6"/>
<circle cx="286.1" cy="536.9" r="4" fill="#14b8a6"/>
<circle cx="287.5" cy="536.9" r="4" fill="#14b8a6"/>
<circle cx="289.0" cy="536.9" r="4" fill="#14b8a6"/>
<circle cx="290.4" cy="536.9" r="4" fill="#14b8a6"/>
<circle cx="291.9" cy="536.9" r="4" fill="#14b8a6"/>
<circle cx="293.3" cy="536.9" r="4" fill="#14b8a6"/>
<circle cx="294.7" cy="536.9" r="4" fill="#14b8a6"/>
<circle cx="296.2" cy="536.9" r="4" fill="#14b8a6"/>
<circle cx="297.6" cy="536.9" r="4" fill="#14b8a6"/>
<circle cx="299.1" cy="536.9" r="4" fill="#14b8a6"/>
<circle cx="300.5" cy="536.9" r="4" fill="#14b8a6"/>
<circle cx="302.0" cy="536.9" r="4" fill="#14b8a6"/>
<circle cx="303.4" cy="536.9" r="4" fill="#14b8a6"/>
<circle cx="304.9" cy="536.9" r="4" fill="#14b8a6"/>
<circle cx="306.3" cy="536.9" r="4" fill="#14b8a6"/>
<circle cx="307.8" cy="536.9" r="4" fill="#14b8a6"/>
<circle cx="309.2" cy="536.9" r="4" fill="#14b8a6"/>
<circle cx="310.7" cy="536.9" r="4" fill="#14b8a6"/>
<circle cx="312.1" cy="536.9" r="4" fill="#14b8a6"/>
<circle cx="313.6" cy="536.9" r="4" fill="#14b8a6"/>
<circle cx="315.0" cy="536.9" r="4" fill="#14b8a6"/>
<circle cx="316.5" cy="536.9" r="4" fill="#14b8a6"/>
<circle cx="317.9" cy="536.9" r="4" fill="#14b8a6"/>
<circle cx="319.4" cy="536.9" r="4" fill="#14b8a6"/>
<circle cx="320.8" cy="536.9" r="4" fill="#14b8a6"/>
<circle cx="322.3" cy="536.9" r="4" fill="#14b8a6"/>
<circle cx="323.7" cy="536.9" r="4" fill="#14b8a6"/>
<circle cx="325.2" cy="536.9" r="4" fill="#14b8a6"/>
<circle cx="326.6" cy="536.9" r="4" fill="#14b8a6"/>
<circle cx="328.1" cy="536.9" r="4" fill="#14b8a6"/>
<circle cx="329.5" cy="536.9" r="4" fill="#14b8a6"/>
<circle cx="331.0" cy="536.9" r="4" fill="#14b8a6"/>
<circle cx="332.4" cy="536.9" r="4" fill="#14b8a6"/>
<circle cx="333.9" cy="536.9" r="4" fill="#14b8a6"/>
<circle cx="335.3" cy="536.9" r="4" fill="#14b8a6"/>
<circle cx="336.8" cy="536.9" r="4" fill="#14b8a6"/>
<circle cx="338.2" cy="536.9" r="4" fill="#14b8a6"/>
<circle cx="339.7" cy="536.9" r="4" fill="#14b8a6"/>
<circle cx="341.1" cy="536.9" r="4" fill="#14b8a6"/>
<circle cx="342.5" cy="536.9" r="4" fill="#14b8a6"/>
<circle cx="344.0" cy="536.9" r="4" fill="#14b8a6"/>
<circle cx="345.4" cy="536.9" r="4" fill="#14b8a6"/>
<circle cx="346.9" cy="536.9" r="4" fill="#14b8a6"/>
<circle cx="348.3" cy="536.9" r="4" fill="#14b8a6"/>
<circle cx="349.8" cy="536.9" r="4" fill="#14b8a6"/>
<circle cx="351.2" cy="536.9" r="4" fill="#14b8a6"/>
<circle cx="352.7" cy="536.9" r="4" fill="#14b8a6"/>
<circle cx="354.1" cy="536.9" r="4" fill="#14b8a6"/>
<circle cx="355.6" cy="536.9" r="4" fill="#14b8a6"/>
<circle cx="357.0" cy="536.9" r="4" fill="#14b8a6"/>
<circle cx="358.5" cy="536.9" r="4" fill="#14b8a6"/>
<circle cx="359.9" cy="536.9" r="4" fill="#14b8a6"/>
<circle cx="361.4" cy="536.9" r="4" fill="#14b8a6"/>
<circle cx="362.8" cy="536.9" r="4" fill="#14b8a6"/>
<circle cx="364.3" cy="536.9" r="4" fill="#14b8a6"/>
<circle cx="365.7" cy="536.9" r="4" fill="#14b8a6"/>
<circle cx="367.2" cy="536.9" r="4" fill="#14b8a6"/>
<circle cx="368.6" cy="536.9" r="4" fill="#14b8a6"/>
<circle cx="370.1" cy="536.9" r="4" fill="#14b8a6"/>
<circle cx="371.5" cy="536.9" r="4" fill="#14b8a6"/>
<circle cx="373.0" cy="536.9" r="4" fill="#14b8a6"/>
<circle cx="374.4" cy="536.9" r="4" fill="#14b8a6"/>
<circle cx="375.9" cy="536.9" r="4" fill="#14b8a6"/>
<circle cx="377.3" cy="536.9" r="4" fill="#14b8a6"/>
<circle cx="378.8" cy="536.9" r="4" fill="#14b8a6"/>
<circle cx="380.2" cy="536.9" r="4" fill="#14b8a6"/>
<circle cx="381.7" cy="536.9" r="4" fill="#14b8a6"/>
<circle cx="383.1" cy="536.9" r="4" fill="#14b8a6"/>
<circle cx="384.6" cy="536.9" r="4" fill="#14b8a6"/>
<circle cx="386.0" cy="536.9" r="4" fill="#14b8a6"/>
<circle cx="387.5" cy="536.9" r="4" fill="#14b8a6"/>
<circle cx="388.9" cy="536.9" r="4" fill="#14b8a6"/>
<circle cx="390.3" cy="536.9" r="4" fill="#14b8a6"/>
<circle cx="391.8" cy="536.9" r="4" fill="#14b8a6"/>
<circle cx="393.2" cy="536.9" r="4" fill="#14b8a6"/>
<circle cx="394.7" cy="536.9" r="4" fill="#14b8a6"/>
<circle cx="396.1" cy="536.9" r="4" fill="#14b8a6"/>
<circle cx="397.6" cy="536.9" r="4" fill="#14b8a6"/>
<circle cx="399.0" cy="536.9" r="4" fill="#14b8a6"/>
<circle cx="400.5" cy="536.9" r="4" fill="#14b8a6"/>
<circle cx="401.9" cy="536.9" r="4" fill="#14b8a6"/>
<circle cx="403.4" cy="536.9" r="4" fill="#14b8a6"/>
<circle cx="404.8" cy="536.9" r="4" fill="#14b8a6"/>
<circle cx="406.3" cy="536.9" r="4" fill="#14b8a6"/>
<circle cx="407.7" cy="536.9" r="4" fill="#14b8a6"/>
<circle cx="409.2" cy="536.9" r="4" fill="#14b8a6"/>
<circle cx="410.6" cy="536.9" r="4" fill="#14b8a6"/>
<circle cx="412.1" cy="536.9" r="4" fill="#14b8a6"/>
<circle cx="413.5" cy="536.9" r="4" fill="#14b8a6"/>
<circle cx="415.0" cy="536.9" r="4" fill="#14b8a6"/>
<circle cx="416.4" cy="536.9" r="4" fill="#14b8a6"/>
<circle cx="417.9" cy="536.9" r="4" fill="#14b8a6"/>
<circle cx="419.3" cy="536.9" r="4" fill="#14b8a6"/>
<circle cx="420.8" cy="536.9" r="4" fill="#14b8a6"/>
<circle cx="422.2" cy="536.9" r="4" fill="#14b8a6"/>
<circle cx="423.7" cy="536.9" r="4" fill="#14b8a6"/>
<circle cx="425.1" cy="536.9" r="4" fill="#14b8a6"/>
<circle cx="426.6" cy="536.9" r="4" fill="#14b8a6"/>
<circle cx="428.0" cy="536.9" r="4" fill="#14b8a6"/>
<circle cx="429.5" cy="536.9" r="4" fill="#14b8a6"/>
<circle cx="430.9" cy="536.9" r="4" fill="#14b8a6"/>
<circle cx="432.4" cy="536.9" r="4" fill="#14b8a6"/>
<circle cx="433.8" cy="536.9" r="4" fill="#14b8a6"/>
<circle cx="435.3" cy="536.9" r="4" fill="#14b8a6"/>
<circle cx="436.7" cy="536.9" r="4" fill="#14b8a6"/>
<circle cx="438.1" cy="536.9" r="4" fill="#14b8a6"/>
<circle cx="439.6" cy="536.9" r="4" fill="#14b8a6"/>
<circle cx="441.0" cy="536.9" r="4" fill="#14b8a6"/>
<circle cx="442.5" cy="536.9" r="4" fill="#14b8a6"/>
<circle cx="443.9" cy="536.9" r="4" fill="#14b8a6"/>
<circle cx="445.4" cy="536.9" r="4" fill="#14b8a6"/>
<circle cx="446.8" cy="536.9" r="4" fill="#14b8a6"/>
<circle cx="448.3" cy="536.9" r="4" fill="#14b8a6"/>
<circle cx="449.7" cy="536.9" r="4" fill="#14b8a6"/>
<circle cx="451.2" cy="536.9" r="4" fill="#14b8a6"/>
<circle cx="452.6" cy="536.9" r="4" fill="#14b8a6"/>
<circle cx="454.1" cy="536.9" r="4" fill="#14b8a6"/>
<circle cx="455.5" cy="536.9" r="4" fill="#14b8a6"/>
<circle cx="457.0" cy="536.9" r="4" fill="#14b8a6"/>
<circle cx="458.4" cy="536.9" r="4" fill="#14b8a6"/>
<circle cx="459.9" cy="536.9" r="4" fill="#14b8a6"/>
<circle cx="461.3" cy="536.9" r="4" fill="#14b8a6"/>
<circle cx="462.8" cy="536.9" r="4" fill="#14b8a6"/>
<circle cx="464.2" cy="536.9" r="4" fill="#14b8a6"/>
<circle cx="465.7" cy="536.9" r="4" fill="#14b8a6"/>
<circle cx="467.1" cy="536.9" r="4" fill="#14b8a6"/>
<circle cx="468.6" cy="536.9" r="4" fill="#14b8a6"/>
<circle cx="470.0" cy="536.9" r="4" fill="#14b8a6"/>
<circle cx="471.5" cy="536.9" r="4" fill="#14b8a6"/>
<circle cx="472.9" cy="536.9" r="4" fill="#14b8a6"/>
<circle cx="474.4" cy="536.9" r="4" fill="#14b8a6"/>
<circle cx="475.8" cy="536.9" r="4" fill="#14b8a6"/>
<circle cx="477.3" cy="536.9" r="4" fill="#14b8a6"/>
<circle cx="478.7" cy="536.9" r="4" fill="#14b8a6"/>
<circle cx="480.2" cy="536.9" r="4" fill="#14b8a6"/>
<circle cx="481.6" cy="536.9" r="4" fill="#14b8a6"/>
<circle cx="483.1" cy="536.9" r="4" fill="#14b8a6"/>
<circle cx="484.5" cy="536.9" r="4" fill="#14b8a6"/>
<circle cx="485.9" cy="536.9" r="4" fill="#14b8a6"/>
<circle cx="487.4" cy="536.9" r="4" fill="#14b8a6"/>
<circle cx="488.8" cy="536.9" r="4" fill="#14b8a6"/>
<circle cx="490.3" cy="536.9" r="4" fill="#14b8a6"/>
<circle cx="491.7" cy="536.9" r="4" fill="#14b8a6"/>
<circle cx="493.2" cy="536.9" r="4" fill="#14b8a6"/>
<circle cx="494.6" cy="536.9" r="4" fill="#14b8a6"/>
<circle cx="496.1" cy="536.9" r="4" fill="#14b8a6"/>
<circle cx="497.5" cy="536.9" r="4" fill="#14b8a6"/>
<circle cx="499.0" cy="536.9" r="4" fill="#14b8a6"/>
<circle cx="500.4" cy="536.9" r="4" fill="#14b8a6"/>
<circle cx="501.9" cy="536.9" r="4" fill="#14b8a6"/>
<circle cx="503.3" cy="536.9" r="4" fill="#14b8a6"/>
<circle cx="504.8" cy="536.9" r="4" fill="#14b8a6"/>
<circle cx="506.2" cy="536.9" r="4" fill="#14b8a6"/>
<circle cx="507.7" cy="536.9" r="4" fill="#14b8a6"/>
<circle cx="509.1" cy="536.9" r="4" fill="#14b8a6"/>
<circle cx="510.6" cy="536.9" r="4" fill="#14b8a6"/>
<circle cx="512.0" cy="536.9" r="4" fill="#14b8a6"/>
<circle cx="513.5" cy="536.9" r="4" fill="#14b8a6"/>
<circle cx="514.9" cy="536.9" r="4" fill="#14b8a6"/>
<circle cx="516.4" cy="536.9" r="4" fill="#14b8a6"/>
<circle cx="517.8" cy="536.9" r="4" fill="#14b8a6"/>
<circle cx="519.3" cy="536.9" r="4" fill="#14b8a6"/>
<circle cx="520.7" cy="536.9" r="4" fill="#14b8a6"/>
<circle cx="522.2" cy="536.9" r="4" fill="#14b8a6"/>
<circle cx="523.6" cy="536.9" r="4" fill="#14b8a6"/>
<circle cx="525.1" cy="536.9" r="4" fill="#14b8a6"/>
<circle cx="526.5" cy="536.9" r="4" fill="#14b8a6"/>
<circle cx="528.0" cy="536.9" r="4" fill="#14b8a6"/>
<circle cx="529.4" cy="536.9" r="4" fill="#14b8a6"/>
<circle cx="530.8" cy="536.9" r="4" fill="#14b8a6"/>
<circle cx="532.3" cy="536.9" r="4" fill="#14b8a6"/>
<circle cx="533.7" cy="536.9" r="4" fill="#14b8a6"/>
<circle cx="535.2" cy="536.9" r="4" fill="#14b8a6"/>
<circle cx="536.6" cy="536.9" r="4" fill="#14b8a6"/>
<circle cx="538.1" cy="536.9" r="4" fill="#14b8a6"/>
<circle cx="539.5" cy="536.9" r="4" fill="#14b8a6"/>
<circle cx="541.0" cy="536.9" r="4" fill="#14b8a6"/>
<circle cx="542.4" cy="536.9" r="4" fill="#14b8a6"/>
<circle cx="543.9" cy="536.9" r="4" fill="#14b8a6"/>
<circle cx="545.3" cy="536.9" r="4" fill="#14b8a6"/>
<circle cx="546.8" cy="536.9" r="4" fill="#14b8a6"/>
<circle cx="548.2" cy="536.9" r="4" fill="#14b8a6"/>
<circle cx="549.7" cy="536.9" r="4" fill="#14b8a6"/>
<circle cx="551.1" cy="536.9" r="4" fill="#14b8a6"/>
<circle cx="552.6" cy="536.9" r="4" fill="#14b8a6"/>
<circle cx="554.0" cy="536.9" r="4" fill="#14b8a6"/>
<circle cx="555.5" cy="536.9" r="4" fill="#14b8a6"/>
<circle cx="556.9" cy="536.9" r="4" fill="#14b8a6"/>
<circle cx="558.4" cy="536.9" r="4" fill="#14b8a6"/>
<circle cx="559.8" cy="536.9" r="4" fill="#14b8a6"/>
<circle cx="561.3" cy="536.9" r="4" fill="#14b8a6"/>
<circle cx="562.7" cy="536.9" r="4" fill="#14b8a6"/>
<circle cx="564.2" cy="536.9" r="4" fill="#14b8a6"/>
<circle cx="565.6" cy="536.9" r="4" fill="#14b8a6"/>
<circle cx="567.1" cy="536.9" r="4" fill="#14b8a6"/>
<circle cx="568.5" cy="536.9" r="4" fill="#14b8a6"/>
<circle cx="570.0" cy="536.9" r="4" fill="#14b8a6"/>
<circle cx="571.4" cy="536.9" r="4" fill="#14b8a6"/>
<circle cx="572.9" cy="536.9" r="4" fill="#14b8a6"/>
<circle cx="574.3" cy="536.9" r="4" fill="#14b8a6"/>
<circle cx="575.8" cy="536.9" r="4" fill="#14b8a6"/>
<circle cx="577.2" cy="536.9" r="4" fill="#14b8a6"/>
<circle cx="578.6" cy="536.9" r="4" fill="#14b8a6"/>
<circle cx="580.1" cy="536.9" r="4" fill="#14b8a6"/>
<circle cx="581.5" cy="536.9" r="4" fill="#14b8a6"/>
<circle cx="583.0" cy="536.9" r="4" fill="#14b8a6"/>
<circle cx="584.4" cy="536.9" r="4" fill="#14b8a6"/>
<circle cx="585.9" cy="536.9" r="4" fill="#14b8a6"/>
<circle cx="587.3" cy="536.9" r="4" fill="#14b8a6"/>
<circle cx="588.8" cy="536.9" r="4" fill="#14b8a6"/>
<circle cx="590.2" cy="536.9" r="4" fill="#14b8a6"/>
<circle cx="591.7" cy="536.9" r="4" fill="#14b8a6"/>
<circle cx="593.1" cy="536.9" r="4" fill="#14b8a6"/>
<circle cx="594.6" cy="536.9" r="4" fill="#14b8a6"/>
<circle cx="596.0" cy="536.9" r="4" fill="#14b8a6"/>
<circle cx="597.5" cy="536.9" r="4" fill="#14b8a6"/>
<circle cx="598.9" cy="536.9" r="4" fill="#14b8a6"/>
<circle cx="600.4" cy="536.9" r="4" fill="#14b8a6"/>
<circle cx="601.8" cy="536.9" r="4" fill="#14b8a6"/>
<circle cx="603.3" cy="536.9" r="4" fill="#14b8a6"/>
<circle cx="604.7" cy="536.9" r="4" fill="#14b8a6"/>
<circle cx="606.2" cy="536.9" r="4" fill="#14b8a6"/>
<circle cx="607.6" cy="536.9" r="4" fill="#14b8a6"/>
<circle cx="609.1" cy="536.9" r="4" fill="#14b8a6"/>
<circle cx="610.5" cy="536.9" r="4" fill="#14b8a6"/>
<circle cx="612.0" cy="536.9" r="4" fill="#14b8a6"/>
<circle cx="613.4" cy="536.9" r="4" fill="#14b8a6"/>
<circle cx="614.9" cy="536.9" r="4" fill="#14b8a6"/>
<circle cx="616.3" cy="536.9" r="4" fill="#14b8a6"/>
<circle cx="617.8" cy="536.9" r="4" fill="#14b8a6"/>
<circle cx="619.2" cy="536.9" r="4" fill="#14b8a6"/>
<circle cx="620.7" cy="536.9" r="4" fill="#14b8a6"/>
<circle cx="622.1" cy="536.9" r="4" fill="#14b8a6"/>
<circle cx="623.6" cy="536.9" r="4" fill="#14b8a6"/>
<circle cx="625.0" cy="536.9" r="4" fill="#14b8a6"/>
<circle cx="626.4" cy="536.9" r="4" fill="#14b8a6"/>
<circle cx="627.9" cy="536.9" r="4" fill="#14b8a6"/>
<circle cx="629.3" cy="536.9" r="4" fill="#14b8a6"/>
<circle cx="630.8" cy="536.9" r="4" fill="#14b8a6"/>
<circle cx="632.2" cy="536.9" r="4" fill="#14b8a6"/>
<circle cx="633.7" cy="536.9" r="4" fill="#14b8a6"/>
<circle cx="635.1" cy="536.9" r="4" fill="#14b8a6"/>
<circle cx="636.6" cy="536.9" r="4" fill="#14b8a6"/>
<circle cx="638.0" cy="536.9" r="4" fill="#14b8a6"/>
<circle cx="639.5" cy="536.9" r="4" fill="#14b8a6"/>
<circle cx="640.9" cy="536.9" r="4" fill="#14b8a6"/>
<circle cx="642.4" cy="536.9" r="4" fill="#14b8a6"/>
<circle cx="643.8" cy="536.9" r="4" fill="#14b8a6"/>
<circle cx="645.3" cy="536.9" r="4" fill="#14b8a6"/>
<circle cx="646.7" cy="536.9" r="4" fill="#14b8a6"/>
<circle cx="648.2" cy="536.9" r="4" fill="#14b8a6"/>
<circle cx="649.6" cy="536.9" r="4" fill="#14b8a6"/>
<circle cx="651.1" cy="536.9" r="4" fill="#14b8a6"/>
<circle cx="652.5" cy="536.9" r="4" fill="#14b8a6"/>
<circle cx="654.0" cy="536.9" r="4" fill="#14b8a6"/>
<circle cx="655.4" cy="536.9" r="4" fill="#14b8a6"/>
<circle cx="656.9" cy="536.9" r="4" fill="#14b8a6"/>
<circle cx="658.3" cy="536.9" r="4" fill="#14b8a6"/>
<circle cx="659.8" cy="536.9" r="4" fill="#14b8a6"/>
<circle cx="661.2" cy="536.9" r="4" fill="#14b8a6"/>
<circle cx="662.7" cy="536.9" r="4" fill="#14b8a6"/>
<circle cx="664.1" cy="536.9" r="4" fill="#14b8a6"/>
<circle cx="665.6" cy="536.9" r="4" fill="#14b8a6"/>
<circle cx="667.0" cy="536.9" r="4" fill="#14b8a6"/>
<circle cx="668.5" cy="536.9" r="4" fill="#14b8a6"/>
<circle cx="669.9" cy="536.9" r="4" fill="#14b8a6"/>
<circle cx="671.4" cy="536.9" r="4" fill="#14b8a6"/>
<circle cx="672.8" cy="536.9" r="4" fill="#14b8a6"/>
<circle cx="674.2" cy="536.9" r="4" fill="#14b8a6"/>
<circle cx="675.7" cy="536.9" r="4" fill="#14b8a6"/>
<circle cx="677.1" cy="536.9" r="4" fill="#14b8a6"/>
<circle cx="678.6" cy="536.9" r="4" fill="#14b8a6"/>
<circle cx="680.0" cy="536.9" r="4" fill="#14b8a6"/>
<circle cx="681.5" cy="536.9" r="4" fill="#14b8a6"/>
<circle cx="682.9" cy="536.9" r="4" fill="#14b8a6"/>
<circle cx="684.4" cy="536.9" r="4" fill="#14b8a6"/>
<circle cx="685.8" cy="536.9" r="4" fill="#14b8a6"/>
<circle cx="687.3" cy="536.9" r="4" fill="#14b8a6"/>
<circle cx="688.7" cy="536.9" r="4" fill="#14b8a6"/>
<circle cx="690.2" cy="536.9" r="4" fill="#14b8a6"/>
<circle cx="691.6" cy="536.9" r="4" fill="#14b8a6"/>
<circle cx="693.1" cy="536.9" r="4" fill="#14b8a6"/>
<circle cx="694.5" cy="536.9" r="4" fill="#14b8a6"/>
<circle cx="696.0" cy="536.9" r="4" fill="#14b8a6"/>
<circle cx="697.4" cy="536.9" r="4" fill="#14b8a6"/>
<circle cx="698.9" cy="536.9" r="4" fill="#14b8a6"/>
<circle cx="700.3" cy="536.9" r="4" fill="#14b8a6"/>
<circle cx="701.8" cy="536.9" r="4" fill="#14b8a6"/>
<circle cx="703.2" cy="536.9" r="4" fill="#14b8a6"/>
<circle cx="704.7" cy="536.9" r="4" fill="#14b8a6"/>
<circle cx="706.1" cy="536.9" r="4" fill="#14b8a6"/>
<circle cx="707.6" cy="536.9" r="4" fill="#14b8a6"/>
<circle cx="709.0" cy="536.9" r="4" fill="#14b8a6"/>
<circle cx="710.5" cy="536.9" r="4" fill="#14b8a6"/>
<circle cx="711.9" cy="536.9" r="4" fill="#14b8a6"/>
<circle cx="713.4" cy="536.9" r="4" fill="#14b8a6"/>
<circle cx="714.8" cy="536.9" r="4" fill="#14b8a6"/>
<circle cx="716.3" cy="536.9" r="4" fill="#14b8a6"/>
<circle cx="717.7" cy="536.9" r="4" fill="#14b8a6"/>
<circle cx="719.2" cy="536.9" r="4" fill="#14b8a6"/>
<circle cx="720.6" cy="536.9" r="4" fill="#14b8a6"/>
<circle cx="722.0" cy="536.9" r="4" fill="#14b8a6"/>
<circle cx="723.5" cy="536.9" r="4" fill="#14b8a6"/>
<circle cx="724.9" cy="536.9" r="4" fill="#14b8a6"/>
<circle cx="726.4" cy="536.9" r="4" fill="#14b8a6"/>
<circle cx="727.8" cy="536.9" r="4" fill="#14b8a6"/>
<circle cx="729.3" cy="536.9" r="4" fill="#14b8a6"/>
<circle cx="730.7" cy="536.9" r="4" fill="#14b8a6"/>
<circle cx="732.2" cy="536.9" r="4" fill="#14b8a6"/>
<circle cx="733.6" cy="536.9" r="4" fill="#14b8a6"/>
<circle cx="735.1" cy="536.9" r="4" fill="#14b8a6"/>
<circle cx="736.5" cy="536.9" r="4" fill="#14b8a6"/>
<circle cx="738.0" cy="536.9" r="4" fill="#14b8a6"/>
<circle cx="739.4" cy="536.9" r="4" fill="#14b8a6"/>
<circle cx="740.9" cy="536.9" r="4" fill="#14b8a6"/>
<circle cx="742.3" cy="536.9" r="4" fill="#14b8a6"/>
<circle cx="743.8" cy="536.9" r="4" fill="#14b8a6"/>
<circle cx="745.2" cy="536.9" r="4" fill="#14b8a6"/>
<circle cx="746.7" cy="536.9" r="4" fill="#14b8a6"/>
<circle cx="748.1" cy="536.9" r="4" fill="#14b8a6"/>
<circle cx="749.6" cy="536.9" r="4" fill="#14b8a6"/>
<circle cx="751.0" cy="536.9" r="4" fill="#14b8a6"/>
<circle cx="752.5" cy="536.9" r="4" fill="#14b8a6"/>
<circle cx="753.9" cy="536.9" r="4" fill="#14b8a6"/>
<circle cx="755.4" cy="536.9" r="4" fill="#14b8a6"/>
<circle cx="756.8" cy="536.9" r="4" fill="#14b8a6"/>
<circle cx="758.3" cy="536.9" r="4" fill="#14b8a6"/>
<circle cx="759.7" cy="536.9" r="4" fill="#14b8a6"/>
<circle cx="761.2" cy="536.9" r="4" fill="#14b8a6"/>
<circle cx="762.6" cy="536.9" r="4" fill="#14b8a6"/>
<circle cx="764.1" cy="536.9" r="4" fill="#14b8a6"/>
<circle cx="765.5" cy="536.9" r="4" fill="#14b8a6"/>
<circle cx="766.9" cy="536.9" r="4" fill="#14b8a6"/>
<circle cx="768.4" cy="536.9" r="4" fill="#14b8a6"/>
<circle cx="769.8" cy="536.9" r="4" fill="#14b8a6"/>
<circle cx="771.3" cy="536.9" r="4" fill="#14b8a6"/>
<circle cx="772.7" cy="536.9" r="4" fill="#14b8a6"/>
<circle cx="774.2" cy="536.9" r="4" fill="#14b8a6"/>
<circle cx="775.6" cy="536.9" r="4" fill="#14b8a6"/>
<circle cx="777.1" cy="536.9" r="4" fill="#14b8a6"/>
<circle cx="778.5" cy="536.9" r="4" fill="#14b8a6"/>
<circle cx="780.0" cy="536.9" r="4" fill="#14b8a6"/>
<circle cx="781.4" cy="536.9" r="4" fill="#14b8a6"/>
<circle cx="782.9" cy="536.9" r="4" fill="#14b8a6"/>
<circle cx="784.3" cy="536.9" r="4" fill="#14b8a6"/>
<circle cx="785.8" cy="536.9" r="4" fill="#14b8a6"/>
<circle cx="787.2" cy="536.9" r="4" fill="#14b8a6"/>
<circle cx="788.7" cy="536.9" r="4" fill="#14b8a6"/>
<circle cx="790.1" cy="536.9" r="4" fill="#14b8a6"/>
<circle cx="791.6" cy="536.9" r="4" fill="#14b8a6"/>
<circle cx="793.0" cy="536.9" r="4" fill="#14b8a6"/>
<circle cx="794.5" cy="536.9" r="4" fill="#14b8a6"/>
<circle cx="795.9" cy="536.9" r="4" fill="#14b8a6"/>
<circle cx="797.4" cy="536.9" r="4" fill="#14b8a6"/>
<circle cx="798.8" cy="536.9" r="4" fill="#14b8a6"/>
<circle cx="800.3" cy="536.9" r="4" fill="#14b8a6"/>
<circle cx="801.7" cy="536.9" r="4" fill="#14b8a6"/>
<circle cx="803.2" cy="536.9" r="4" fill="#14b8a6"/>
<circle cx="804.6" cy="536.9" r="4" fill="#14b8a6"/>
<circle cx="806.1" cy="536.9" r="4" fill="#14b8a6"/>
<circle cx="807.5" cy="536.9" r="4" fill="#14b8a6"/>
<circle cx="809.0" cy="536.9" r="4" fill="#14b8a6"/>
<circle cx="810.4" cy="536.9" r="4" fill="#14b8a6"/>
<circle cx="811.9" cy="536.9" r="4" fill="#14b8a6"/>
<circle cx="813.3" cy="536.9" r="4" fill="#14b8a6"/>
<circle cx="814.7" cy="536.9" r="4" fill="#14b8a6"/>
<circle cx="816.2" cy="536.9" r="4" fill="#14b8a6"/>
<circle cx="817.6" cy="536.9" r="4" fill="#14b8a6"/>
<circle cx="819.1" cy="536.9" r="4" fill="#14b8a6"/>
<circle cx="820.5" cy="536.9" r="4" fill="#14b8a6"/>
<circle cx="822.0" cy="536.9" r="4" fill="#14b8a6"/>
<circle cx="823.4" cy="536.9" r="4" fill="#14b8a6"/>
<circle cx="824.9" cy="536.9" r="4" fill="#14b8a6"/>
<circle cx="826.3" cy="536.9" r="4" fill="#14b8a6"/>
<circle cx="827.8" cy="536.9" r="4" fill="#14b8a6"/>
<circle cx="829.2" cy="536.9" r="4" fill="#14b8a6"/>
<circle cx="830.7" cy="536.9" r="4" fill="#14b8a6"/>
<circle cx="832.1" cy="536.9" r="4" fill="#14b8a6"/>
<circle cx="833.6" cy="536.9" r="4" fill="#14b8a6"/>
<circle cx="835.0" cy="536.9" r="4" fill="#14b8a6"/>
<circle cx="836.5" cy="536.9" r="4" fill="#14b8a6"/>
<circle cx="837.9" cy="536.9" r="4" fill="#14b8a6"/>
<circle cx="839.4" cy="536.9" r="4" fill="#14b8a6"/>
<circle cx="840.8" cy="536.9" r="4" fill="#14b8a6"/>
<circle cx="842.3" cy="536.9" r="4" fill="#14b8a6"/>
<circle cx="843.7" cy="536.9" r="4" fill="#14b8a6"/>
<circle cx="845.2" cy="536.9" r="4" fill="#14b8a6"/>
<circle cx="846.6" cy="536.9" r="4" fill="#14b8a6"/>
<circle cx="848.1" cy="536.9" r="4" fill="#14b8a6"/>
<circle cx="849.5" cy="536.9" r="4" fill="#14b8a6"/>
<circle cx="851.0" cy="536.9" r="4" fill="#14b8a6"/>
<circle cx="852.4" cy="536.9" r="4" fill="#14b8a6"/>
<circle cx="853.9" cy="536.9" r="4" fill="#14b8a6"/>
<circle cx="855.3" cy="536.9" r="4" fill="#14b8a6"/>
<circle cx="856.8" cy="536.9" r="4" fill="#14b8a6"/>
<circle cx="858.2" cy="536.9" r="4" fill="#14b8a6"/>
<circle cx="859.7" cy="536.9" r="4" fill="#14b8a6"/>
<circle cx="861.1" cy="536.9" r="4" fill="#14b8a6"/>
<circle cx="862.5" cy="536.9" r="4" fill="#14b8a6"/>
<circle cx="864.0" cy="536.9" r="4" fill="#14b8a6"/>
<circle cx="865.4" cy="536.9" r="4" fill="#14b8a6"/>
<circle cx="866.9" cy="236.7" r="4" fill="#14b8a6"/>
<circle cx="868.3" cy="236.7" r="4" fill="#14b8a6"/>
<circle cx="869.8" cy="236.7" r="4" fill="#14b8a6"/>
<circle cx="871.2" cy="236.7" r="4" fill="#14b8a6"/>
<circle cx="872.7" cy="236.7" r="4" fill="#14b8a6"/>
<circle cx="874.1" cy="236.7" r="4" fill="#14b8a6"/>
<circle cx="875.6" cy="236.7" r="4" fill="#14b8a6"/>
<circle cx="877.0" cy="236.7" r="4" fill="#14b8a6"/>
<circle cx="878.5" cy="236.7" r="4" fill="#14b8a6"/>
<circle cx="879.9" cy="236.7" r="4" fill="#14b8a6"/>
<circle cx="881.4" cy="236.7" r="4" fill="#14b8a6"/>
<circle cx="882.8" cy="236.7" r="4" fill="#14b8a6"/>
<circle cx="884.3" cy="236.7" r="4" fill="#14b8a6"/>
<circle cx="885.7" cy="236.7" r="4" fill="#14b8a6"/>
<circle cx="887.2" cy="236.7" r="4" fill="#14b8a6"/>
<circle cx="888.6" cy="236.7" r="4" fill="#14b8a6"/>
<circle cx="890.1" cy="236.7" r="4" fill="#14b8a6"/>
<circle cx="891.5" cy="236.7" r="4" fill="#14b8a6"/>
<circle cx="893.0" cy="236.7" r="4" fill="#14b8a6"/>
<circle cx="894.4" cy="236.7" r="4" fill="#14b8a6"/>
<circle cx="895.9" cy="236.7" r="4" fill="#14b8a6"/>
<circle cx="897.3" cy="236.7" r="4" fill="#14b8a6"/>
<circle cx="898.8" cy="236.7" r="4" fill="#14b8a6"/>
<circle cx="900.2" cy="236.7" r="4" fill="#14b8a6"/>
<circle cx="901.7" cy="236.7" r="4" fill="#14b8a6"/>
<circle cx="903.1" cy="236.7" r="4" fill="#14b8a6"/>
<circle cx="904.6" cy="236.7" r="4" fill="#14b8a6"/>
<circle cx="906.0" cy="236.7" r="4" fill="#14b8a6"/>
<circle cx="907.5" cy="236.7" r="4" fill="#14b8a6"/>
<circle cx="908.9" cy="236.7" r="4" fill="#14b8a6"/>
<circle cx="910.3" cy="236.7" r="4" fill="#14b8a6"/>
<circle cx="911.8" cy="236.7" r="4" fill="#14b8a6"/>
<circle cx="913.2" cy="236.7" r="4" fill="#14b8a6"/>
<circle cx="914.7" cy="236.7" r="4" fill="#14b8a6"/>
<circle cx="916.1" cy="236.7" r="4" fill="#14b8a6"/>
<circle cx="917.6" cy="236.7" r="4" fill="#14b8a6"/>
<circle cx="919.0" cy="236.7" r="4" fill="#14b8a6"/>
<circle cx="920.5" cy="236.7" r="4" fill="#14b8a6"/>
<circle cx="921.9" cy="236.7" r="4" fill="#14b8a6"/>
<circle cx="923.4" cy="236.7" r="4" fill="#14b8a6"/>
<circle cx="924.8" cy="236.7" r="4" fill="#14b8a6"/>
<circle cx="926.3" cy="236.7" r="4" fill="#14b8a6"/>
<circle cx="927.7" cy="236.7" r="4" fill="#14b8a6"/>
<circle cx="929.2" cy="236.7" r="4" fill="#14b8a6"/>
<circle cx="930.6" cy="236.7" r="4" fill="#14b8a6"/>
<circle cx="932.1" cy="236.7" r="4" fill="#14b8a6"/>
<circle cx="933.5" cy="236.7" r="4" fill="#14b8a6"/>
<circle cx="935.0" cy="236.7" r="4" fill="#14b8a6"/>
<circle cx="936.4" cy="236.7" r="4" fill="#14b8a6"/>
<circle cx="937.9" cy="236.7" r="4" fill="#14b8a6"/>
<circle cx="939.3" cy="236.7" r="4" fill="#14b8a6"/>
<circle cx="940.8" cy="236.7" r="4" fill="#14b8a6"/>
<circle cx="942.2" cy="236.7" r="4" fill="#14b8a6"/>
<circle cx="943.7" cy="236.7" r="4" fill="#14b8a6"/>
<circle cx="945.1" cy="236.7" r="4" fill="#14b8a6"/>
<circle cx="946.6" cy="236.7" r="4" fill="#14b8a6"/>
<circle cx="948.0" cy="236.7" r="4" fill="#14b8a6"/>
<circle cx="949.5" cy="236.7" r="4" fill="#14b8a6"/>
<circle cx="950.9" cy="236.7" r="4" fill="#14b8a6"/>
<circle cx="952.4" cy="236.7" r="4" fill="#14b8a6"/>
<circle cx="953.8" cy="236.7" r="4" fill="#14b8a6"/>
<circle cx="955.3" cy="236.7" r="4" fill="#14b8a6"/>
<circle cx="956.7" cy="236.7" r="4" fill="#14b8a6"/>
<circle cx="958.1" cy="236.7" r="4" fill="#14b8a6"/>
<circle cx="959.6" cy="236.7" r="4" fill="#14b8a6"/>
<circle cx="961.0" cy="236.7" r="4" fill="#14b8a6"/>
<circle cx="962.5" cy="236.7" r="4" fill="#14b8a6"/>
<circle cx="963.9" cy="236.7" r="4" fill="#14b8a6"/>
<circle cx="965.4" cy="236.7" r="4" fill="#14b8a6"/>
<circle cx="966.8" cy="236.7" r="4" fill="#14b8a6"/>
<circle cx="968.3" cy="236.7" r="4" fill="#14b8a6"/>
<circle cx="969.7" cy="236.7" r="4" fill="#14b8a6"/>
<circle cx="971.2" cy="236.7" r="4" fill="#14b8a6"/>
<circle cx="972.6" cy="236.7" r="4" fill="#14b8a6"/>
<circle cx="974.1" cy="236.7" r="4" fill="#14b8a6"/>
<circle cx="975.5" cy="236.7" r="4" fill="#14b8a6"/>
<circle cx="977.0" cy="236.7" r="4" fill="#14b8a6"/>
<circle cx="978.4" cy="236.7" r="4" fill="#14b8a6"/>
<circle cx="979.9" cy="236.7" r="4" fill="#14b8a6"/>
<circle cx="981.3" cy="236.7" r="4" fill="#14b8a6"/>
<circle cx="982.8" cy="236.7" r="4" fill="#14b8a6"/>
<circle cx="984.2" cy="236.7" r="4" fill="#14b8a6"/>
<circle cx="985.7" cy="236.7" r="4" fill="#14b8a6"/>
<circle cx="987.1" cy="236.7" r="4" fill="#14b8a6"/>
<circle cx="988.6" cy="236.7" r="4" fill="#14b8a6"/>
<circle cx="990.0" cy="236.7" r="4" fill="#14b8a6"/>
<circle cx="991.5" cy="236.7" r="4" fill="#14b8a6"/>
<circle cx="992.9" cy="236.7" r="4" fill="#14b8a6"/>
<circle cx="994.4" cy="236.7" r="4" fill="#14b8a6"/>
<circle cx="995.8" cy="236.7" r="4" fill="#14b8a6"/>
<circle cx="997.3" cy="236.7" r="4" fill="#14b8a6"/>
<circle cx="998.7" cy="236.7" r="4" fill="#14b8a6"/>
<circle cx="1000.2" cy="236.7" r="4" fill="#14b8a6"/>
<circle cx="1001.6" cy="236.7" r="4" fill="#14b8a6"/>
<circle cx="1003.1" cy="236.7" r="4" fill="#14b8a6"/>
<circle cx="1004.5" cy="236.7" r="4" fill="#14b8a6"/>
<circle cx="1005.9" cy="236.7" r="4" fill="#14b8a6"/>
<circle cx="1007.4" cy="236.7" r="4" fill="#14b8a6"/>
<circle cx="1008.8" cy="236.7" r="4" fill="#14b8a6"/>
<circle cx="1010.3" cy="236.7" r="4" fill="#14b8a6"/>
<circle cx="1011.7" cy="236.7" r="4" fill="#14b8a6"/>
<circle cx="1013.2" cy="236.7" r="4" fill="#14b8a6"/>
<circle cx="1014.6" cy="236.7" r="4" fill="#14b8a6"/>
<circle cx="1016.1" cy="236.7" r="4" fill="#14b8a6"/>
<circle cx="1017.5" cy="236.7" r="4" fill="#14b8a6"/>
<circle cx="1019.0" cy="236.7" r="4" fill="#14b8a6"/>
<circle cx="1020.4" cy="236.7" r="4" fill="#14b8a6"/>
<circle cx="1021.9" cy="236.7" r="4" fill="#14b8a6"/>
<circle cx="1023.3" cy="236.7" r="4" fill="#14b8a6"/>
<circle cx="1024.8" cy="236.7" r="4" fill="#14b8a6"/>
<circle cx="1026.2" cy="236.7" r="4" fill="#14b8a6"/>
<circle cx="1027.7" cy="236.7" r="4" fill="#14b8a6"/>
<circle cx="1029.1" cy="236.7" r="4" fill="#14b8a6"/>
<circle cx="1030.6" cy="236.7" r="4" fill="#14b8a6"/>
<circle cx="1032.0" cy="236.7" r="4" fill="#14b8a6"/>
<circle cx="1033.5" cy="236.7" r="4" fill="#14b8a6"/>
<circle cx="1034.9" cy="236.7" r="4" fill="#14b8a6"/>
<circle cx="1036.4" cy="236.7" r="4" fill="#14b8a6"/>
<circle cx="1037.8" cy="236.7" r="4" fill="#14b8a6"/>
<circle cx="1039.3" cy="236.7" r="4" fill="#14b8a6"/>
<circle cx="1040.7" cy="236.7" r="4" fill="#14b8a6"/>
<circle cx="1042.2" cy="236.7" r="4" fill="#14b8a6"/>
<circle cx="1043.6" cy="236.7" r="4" fill="#14b8a6"/>
<circle cx="1045.1" cy="236.7" r="4" fill="#14b8a6"/>
<circle cx="1046.5" cy="236.7" r="4" fill="#14b8a6"/>
<circle cx="1048.0" cy="236.7" r="4" fill="#14b8a6"/>
<circle cx="1049.4" cy="236.7" r="4" fill="#14b8a6"/>
<circle cx="1050.8" cy="236.7" r="4" fill="#14b8a6"/>
<circle cx="1052.3" cy="236.7" r="4" fill="#14b8a6"/>
<circle cx="1053.7" cy="236.7" r="4" fill="#14b8a6"/>
<circle cx="1055.2" cy="236.7" r="4" fill="#14b8a6"/>
<circle cx="1056.6" cy="236.7" r="4" fill="#14b8a6"/>
<circle cx="1058.1" cy="236.7" r="4" fill="#14b8a6"/>
<circle cx="1059.5" cy="236.7" r="4" fill="#14b8a6"/>
<circle cx="1061.0" cy="236.7" r="4" fill="#14b8a6"/>
<circle cx="1062.4" cy="236.7" r="4" fill="#14b8a6"/>
<circle cx="1063.9" cy="236.7" r="4" fill="#14b8a6"/>
<circle cx="1065.3" cy="236.7" r="4" fill="#14b8a6"/>
<circle cx="1066.8" cy="236.7" r="4" fill="#14b8a6"/>
<circle cx="1068.2" cy="236.7" r="4" fill="#14b8a6"/>
<circle cx="1069.7" cy="236.7" r="4" fill="#14b8a6"/>
<circle cx="1071.1" cy="236.7" r="4" fill="#14b8a6"/>
<circle cx="1072.6" cy="236.7" r="4" fill="#14b8a6"/>
<circle cx="1074.0" cy="236.7" r="4" fill="#14b8a6"/>
<circle cx="1075.5" cy="236.7" r="4" fill="#14b8a6"/>
<circle cx="1076.9" cy="236.7" r="4" fill="#14b8a6"/>
<circle cx="1078.4" cy="236.7" r="4" fill="#14b8a6"/>
<circle cx="1079.8" cy="236.7" r="4" fill="#14b8a6"/>
<circle cx="1081.3" cy="236.7" r="4" fill="#14b8a6"/>
<circle cx="1082.7" cy="236.7" r="4" fill="#14b8a6"/>
<circle cx="1084.2" cy="236.7" r="4" fill="#14b8a6"/>
<circle cx="1085.6" cy="236.7" r="4" fill="#14b8a6"/>
<circle cx="1087.1" cy="236.7" r="4" fill="#14b8a6"/>
<circle cx="1088.5" cy="236.7" r="4" fill="#14b8a6"/>
<circle cx="1090.0" cy="236.7" r="4" fill="#14b8a6"/>
<circle cx="1091.4" cy="236.7" r="4" fill="#14b8a6"/>
<circle cx="1092.9" cy="236.7" r="4" fill="#14b8a6"/>
<circle cx="1094.3" cy="236.7" r="4" fill="#14b8a6"/>
<circle cx="1095.8" cy="236.7" r="4" fill="#14b8a6"/>
<circle cx="1097.2" cy="236.7" r="4" fill="#14b8a6"/>
<circle cx="1098.6" cy="236.7" r="4" fill="#14b8a6"/>
<circle cx="1100.1" cy="236.7" r="4" fill="#14b8a6"/>
<circle cx="1101.5" cy="236.7" r="4" fill="#14b8a6"/>
<circle cx="1103.0" cy="236.7" r="4" fill="#14b8a6"/>
<circle cx="1104.4" cy="236.7" r="4" fill="#14b8a6"/>
<circle cx="1105.9" cy="236.7" r="4" fill="#14b8a6"/>
<circle cx="1107.3" cy="236.7" r="4" fill="#14b8a6"/>
<circle cx="1108.8" cy="236.7" r="4" fill="#14b8a6"/>
<circle cx="1110.2" cy="236.7" r="4" fill="#14b8a6"/>
<circle cx="1111.7" cy="236.7" r="4" fill="#14b8a6"/>
<circle cx="1113.1" cy="236.7" r="4" fill="#14b8a6"/>
<circle cx="1114.6" cy="236.7" r="4" fill="#14b8a6"/>
<circle cx="1116.0" cy="236.7" r="4" fill="#14b8a6"/>
<circle cx="1117.5" cy="236.7" r="4" fill="#14b8a6"/>
<circle cx="1118.9" cy="236.7" r="4" fill="#14b8a6"/>
<circle cx="1120.4" cy="236.7" r="4" fill="#14b8a6"/>
<circle cx="1121.8" cy="236.7" r="4" fill="#14b8a6"/>
<circle cx="1123.3" cy="236.7" r="4" fill="#14b8a6"/>
<circle cx="1124.7" cy="236.7" r="4" fill="#14b8a6"/>
<circle cx="1126.2" cy="236.7" r="4" fill="#14b8a6"/>
<circle cx="1127.6" cy="236.7" r="4" fill="#14b8a6"/>
<circle cx="1129.1" cy="236.7" r="4" fill="#14b8a6"/>
<circle cx="1130.5" cy="236.7" r="4" fill="#14b8a6"/>
<circle cx="1132.0" cy="236.7" r="4" fill="#14b8a6"/>
<circle cx="1133.4" cy="236.7" r="4" fill="#14b8a6"/>
<circle cx="1134.9" cy="236.7" r="4" fill="#14b8a6"/>
<circle cx="1136.3" cy="236.7" r="4" fill="#14b8a6"/>
<circle cx="1137.8" cy="236.7" r="4" fill="#14b8a6"/>
<circle cx="1139.2" cy="236.7" r="4" fill="#14b8a6"/>
<circle cx="1140.7" cy="236.7" r="4" fill="#14b8a6"/>
<circle cx="1142.1" cy="236.7" r="4" fill="#14b8a6"/>
<circle cx="1143.6" cy="236.7" r="4" fill="#14b8a6"/>
<circle cx="1145.0" cy="236.7" r="4" fill="#14b8a6"/>
<rect x="355" y="657" width="16" height="4" fill="#14b8a6"/>
<text x="379" y="665" fill="#cbd5e1" font-family="Segoe UI,Arial,sans-serif" font-size="13">8B AI factors</text>
<text transform="translate(25 357.5) rotate(-90)" text-anchor="middle" fill="#cbd5e1" font-family="Segoe UI,Arial,sans-serif" font-size="14">Cumulative initial-capital bps</text>
</svg>
