<svg xmlns="http://www.w3.org/2000/svg" width="1200" height="700" viewBox="0 0 1200 700" role="img">
<title>Full-history seven-day funding-persistence screen</title>
<desc>BTC/ETH Jan 2020-Jun 2026; SOL Sep 2020-Jun 2026; gross funding references are not realized P&amp;L</desc>
<rect width="1200" height="700" fill="#0b1220"/>
<text x="64" y="58" fill="#f8fafc" font-family="Segoe UI,Arial,sans-serif" font-size="28" font-weight="700">Full-history seven-day funding-persistence screen</text>
<text x="64" y="88" fill="#cbd5e1" font-family="Segoe UI,Arial,sans-serif" font-size="15">BTC/ETH Jan 2020-Jun 2026; SOL Sep 2020-Jun 2026; gross funding references are not realized P&amp;L</text>
<line x1="100" y1="575.0" x2="1150" y2="575.0" stroke="#334155" stroke-width="1"/>
<text x="86" y="580.0" text-anchor="end" fill="#cbd5e1" font-family="Segoe UI,Arial,sans-serif" font-size="13">-10</text>
<line x1="100" y1="487.0" x2="1150" y2="487.0" stroke="#334155" stroke-width="1"/>
<text x="86" y="492.0" text-anchor="end" fill="#cbd5e1" font-family="Segoe UI,Arial,sans-serif" font-size="13">12</text>
<line x1="100" y1="399.0" x2="1150" y2="399.0" stroke="#334155" stroke-width="1"/>
<text x="86" y="404.0" text-anchor="end" fill="#cbd5e1" font-family="Segoe UI,Arial,sans-serif" font-size="13">34</text>
<line x1="100" y1="311.0" x2="1150" y2="311.0" stroke="#334155" stroke-width="1"/>
<text x="86" y="316.0" text-anchor="end" fill="#cbd5e1" font-family="Segoe UI,Arial,sans-serif" font-size="13">56</text>
<line x1="100" y1="223.0" x2="1150" y2="223.0" stroke="#334155" stroke-width="1"/>
<text x="86" y="228.0" text-anchor="end" fill="#cbd5e1" font-family="Segoe UI,Arial,sans-serif" font-size="13">78</text>
<line x1="100" y1="135.0" x2="1150" y2="135.0" stroke="#334155" stroke-width="1"/>
<text x="86" y="140.0" text-anchor="end" fill="#cbd5e1" font-family="Segoe UI,Arial,sans-serif" font-size="13">100</text>
<line x1="100" y1="535.0" x2="1150" y2="535.0" stroke="#94a3b8" stroke-width="2"/>
<rect x="138.5" y="440.5" width="39.7" height="94.5" rx="3" fill="#14b8a6"/>
<text x="158.3" y="432.5" text-anchor="middle" fill="#f8fafc" font-family="Segoe UI,Arial,sans-serif" font-size="12">23.63</text>
<rect x="196.8" y="414.7" width="39.7" height="120.3" rx="3" fill="#60a5fa"/>
<text x="216.7" y="406.7" text-anchor="middle" fill="#f8fafc" font-family="Segoe UI,Arial,sans-serif" font-size="12">30.08</text>
<rect x="255.2" y="262.9" width="39.7" height="272.1" rx="3" fill="#22d3ee"/>
<text x="275.0" y="254.9" text-anchor="middle" fill="#f8fafc" font-family="Segoe UI,Arial,sans-serif" font-size="12">68.02</text>
<rect x="313.5" y="423.0" width="39.7" height="112.0" rx="3" fill="#f59e0b"/>
<text x="333.3" y="415.0" text-anchor="middle" fill="#f8fafc" font-family="Segoe UI,Arial,sans-serif" font-size="12">28.00</text>
<rect x="371.8" y="407.0" width="39.7" height="128.0" rx="3" fill="#ef4444"/>
<text x="391.7" y="399.0" text-anchor="middle" fill="#f8fafc" font-family="Segoe UI,Arial,sans-serif" font-size="12">32.00</text>
<text x="275.0" y="609" text-anchor="middle" fill="#f8fafc" font-family="Segoe UI,Arial,sans-serif" font-size="14">BTC</text>
<rect x="488.5" y="424.6" width="39.7" height="110.4" rx="3" fill="#14b8a6"/>
<text x="508.3" y="416.6" text-anchor="middle" fill="#f8fafc" font-family="Segoe UI,Arial,sans-serif" font-size="12">27.59</text>
<rect x="546.8" y="398.3" width="39.7" height="136.7" rx="3" fill="#60a5fa"/>
<text x="566.7" y="390.3" text-anchor="middle" fill="#f8fafc" font-family="Segoe UI,Arial,sans-serif" font-size="12">34.17</text>
<rect x="605.2" y="199.7" width="39.7" height="335.3" rx="3" fill="#22d3ee"/>
<text x="625.0" y="191.7" text-anchor="middle" fill="#f8fafc" font-family="Segoe UI,Arial,sans-serif" font-size="12">83.82</text>
<rect x="663.5" y="423.0" width="39.7" height="112.0" rx="3" fill="#f59e0b"/>
<text x="683.3" y="415.0" text-anchor="middle" fill="#f8fafc" font-family="Segoe UI,Arial,sans-serif" font-size="12">28.00</text>
<rect x="721.8" y="407.0" width="39.7" height="128.0" rx="3" fill="#ef4444"/>
<text x="741.7" y="399.0" text-anchor="middle" fill="#f8fafc" font-family="Segoe UI,Arial,sans-serif" font-size="12">32.00</text>
<text x="625.0" y="609" text-anchor="middle" fill="#f8fafc" font-family="Segoe UI,Arial,sans-serif" font-size="14">ETH</text>
<rect x="838.5" y="516.2" width="39.7" height="18.8" rx="3" fill="#14b8a6"/>
<text x="858.3" y="508.2" text-anchor="middle" fill="#f8fafc" font-family="Segoe UI,Arial,sans-serif" font-size="12">4.71</text>
<rect x="896.8" y="499.0" width="39.7" height="36.0" rx="3" fill="#60a5fa"/>
<text x="916.7" y="491.0" text-anchor="middle" fill="#f8fafc" font-family="Segoe UI,Arial,sans-serif" font-size="12">8.99</text>
<rect x="955.2" y="277.1" width="39.7" height="257.9" rx="3" fill="#22d3ee"/>
<text x="975.0" y="269.1" text-anchor="middle" fill="#f8fafc" font-family="Segoe UI,Arial,sans-serif" font-size="12">64.48</text>
<rect x="1013.5" y="423.0" width="39.7" height="112.0" rx="3" fill="#f59e0b"/>
<text x="1033.3" y="415.0" text-anchor="middle" fill="#f8fafc" font-family="Segoe UI,Arial,sans-serif" font-size="12">28.00</text>
<rect x="1071.8" y="407.0" width="39.7" height="128.0" rx="3" fill="#ef4444"/>
<text x="1091.7" y="399.0" text-anchor="middle" fill="#f8fafc" font-family="Segoe UI,Arial,sans-serif" font-size="12">32.00</text>
<text x="975.0" y="609" text-anchor="middle" fill="#f8fafc" font-family="Segoe UI,Arial,sans-serif" font-size="14">SOL</text>
<text transform="translate(24 355.0) rotate(-90)" text-anchor="middle" fill="#cbd5e1" font-family="Segoe UI,Arial,sans-serif" font-size="14">Basis points</text>
<rect x="100.0" y="655" width="14" height="14" rx="2" fill="#14b8a6"/>
<text x="122.0" y="667" fill="#cbd5e1" font-family="Segoe UI,Arial,sans-serif" font-size="13">Positive trigger</text>
<rect x="310.0" y="655" width="14" height="14" rx="2" fill="#60a5fa"/>
<text x="332.0" y="667" fill="#cbd5e1" font-family="Segoe UI,Arial,sans-serif" font-size="13">&gt;=1 bps trigger</text>
<rect x="520.0" y="655" width="14" height="14" rx="2" fill="#22d3ee"/>
<text x="542.0" y="667" fill="#cbd5e1" font-family="Segoe UI,Arial,sans-serif" font-size="13">&gt;=2 bps trigger</text>
<rect x="730.0" y="655" width="14" height="14" rx="2" fill="#f59e0b"/>
<text x="752.0" y="667" fill="#cbd5e1" font-family="Segoe UI,Arial,sans-serif" font-size="13">Four-leg taker ref.</text>
<rect x="940.0" y="655" width="14" height="14" rx="2" fill="#ef4444"/>
<text x="962.0" y="667" fill="#cbd5e1" font-family="Segoe UI,Arial,sans-serif" font-size="13">Stress ref.</text>
</svg>
