<svg xmlns="http://www.w3.org/2000/svg" width="1200" height="700" viewBox="0 0 1200 700" role="img">
<title>Seven-day funding carry required rare elevated settlements</title>
<desc>December 2021-June 2025; non-overlapping outcomes after a causally observed settlement; cost bars are references, not realized P&amp;L</desc>
<rect width="1200" height="700" fill="#0b1220"/>
<text x="64" y="58" fill="#f8fafc" font-family="Segoe UI,Arial,sans-serif" font-size="28" font-weight="700">Seven-day funding carry required rare elevated settlements</text>
<text x="64" y="88" fill="#cbd5e1" font-family="Segoe UI,Arial,sans-serif" font-size="15">December 2021-June 2025; non-overlapping outcomes after a causally observed settlement; cost bars are references, not realized P&amp;L</text>
<line x1="100" y1="575.0" x2="1150" y2="575.0" stroke="#334155" stroke-width="1"/>
<text x="86" y="580.0" text-anchor="end" fill="#cbd5e1" font-family="Segoe UI,Arial,sans-serif" font-size="13">-10</text>
<line x1="100" y1="487.0" x2="1150" y2="487.0" stroke="#334155" stroke-width="1"/>
<text x="86" y="492.0" text-anchor="end" fill="#cbd5e1" font-family="Segoe UI,Arial,sans-serif" font-size="13">3</text>
<line x1="100" y1="399.0" x2="1150" y2="399.0" stroke="#334155" stroke-width="1"/>
<text x="86" y="404.0" text-anchor="end" fill="#cbd5e1" font-family="Segoe UI,Arial,sans-serif" font-size="13">16</text>
<line x1="100" y1="311.0" x2="1150" y2="311.0" stroke="#334155" stroke-width="1"/>
<text x="86" y="316.0" text-anchor="end" fill="#cbd5e1" font-family="Segoe UI,Arial,sans-serif" font-size="13">29</text>
<line x1="100" y1="223.0" x2="1150" y2="223.0" stroke="#334155" stroke-width="1"/>
<text x="86" y="228.0" text-anchor="end" fill="#cbd5e1" font-family="Segoe UI,Arial,sans-serif" font-size="13">42</text>
<line x1="100" y1="135.0" x2="1150" y2="135.0" stroke="#334155" stroke-width="1"/>
<text x="86" y="140.0" text-anchor="end" fill="#cbd5e1" font-family="Segoe UI,Arial,sans-serif" font-size="13">55</text>
<line x1="100" y1="507.3" x2="1150" y2="507.3" stroke="#94a3b8" stroke-width="2"/>
<rect x="138.5" y="406.8" width="39.7" height="100.5" rx="3" fill="#14b8a6"/>
<text x="158.3" y="398.8" text-anchor="middle" fill="#f8fafc" font-family="Segoe UI,Arial,sans-serif" font-size="12">14.84</text>
<rect x="196.8" y="385.6" width="39.7" height="121.8" rx="3" fill="#60a5fa"/>
<text x="216.7" y="377.6" text-anchor="middle" fill="#f8fafc" font-family="Segoe UI,Arial,sans-serif" font-size="12">17.99</text>
<rect x="255.2" y="213.3" width="39.7" height="294.0" rx="3" fill="#22d3ee"/>
<text x="275.0" y="205.3" text-anchor="middle" fill="#f8fafc" font-family="Segoe UI,Arial,sans-serif" font-size="12">43.44</text>
<rect x="313.5" y="317.8" width="39.7" height="189.5" rx="3" fill="#f59e0b"/>
<text x="333.3" y="309.8" text-anchor="middle" fill="#f8fafc" font-family="Segoe UI,Arial,sans-serif" font-size="12">28.00</text>
<rect x="371.8" y="290.7" width="39.7" height="216.6" rx="3" fill="#ef4444"/>
<text x="391.7" y="282.7" text-anchor="middle" fill="#f8fafc" font-family="Segoe UI,Arial,sans-serif" font-size="12">32.00</text>
<text x="275.0" y="609" text-anchor="middle" fill="#f8fafc" font-family="Segoe UI,Arial,sans-serif" font-size="14">BTC</text>
<rect x="488.5" y="411.3" width="39.7" height="96.0" rx="3" fill="#14b8a6"/>
<text x="508.3" y="403.3" text-anchor="middle" fill="#f8fafc" font-family="Segoe UI,Arial,sans-serif" font-size="12">14.18</text>
<rect x="546.8" y="388.6" width="39.7" height="118.7" rx="3" fill="#60a5fa"/>
<text x="566.7" y="380.6" text-anchor="middle" fill="#f8fafc" font-family="Segoe UI,Arial,sans-serif" font-size="12">17.53</text>
<rect x="605.2" y="190.4" width="39.7" height="316.9" rx="3" fill="#22d3ee"/>
<text x="625.0" y="182.4" text-anchor="middle" fill="#f8fafc" font-family="Segoe UI,Arial,sans-serif" font-size="12">46.82</text>
<rect x="663.5" y="317.8" width="39.7" height="189.5" rx="3" fill="#f59e0b"/>
<text x="683.3" y="309.8" text-anchor="middle" fill="#f8fafc" font-family="Segoe UI,Arial,sans-serif" font-size="12">28.00</text>
<rect x="721.8" y="290.7" width="39.7" height="216.6" rx="3" fill="#ef4444"/>
<text x="741.7" y="282.7" text-anchor="middle" fill="#f8fafc" font-family="Segoe UI,Arial,sans-serif" font-size="12">32.00</text>
<text x="625.0" y="609" text-anchor="middle" fill="#f8fafc" font-family="Segoe UI,Arial,sans-serif" font-size="14">ETH</text>
<rect x="838.5" y="507.3" width="39.7" height="40.4" rx="3" fill="#14b8a6"/>
<text x="858.3" y="565.7" text-anchor="middle" fill="#f8fafc" font-family="Segoe UI,Arial,sans-serif" font-size="12">-5.97</text>
<rect x="896.8" y="507.3" width="39.7" height="22.4" rx="3" fill="#60a5fa"/>
<text x="916.7" y="547.7" text-anchor="middle" fill="#f8fafc" font-family="Segoe UI,Arial,sans-serif" font-size="12">-3.31</text>
<rect x="955.2" y="179.1" width="39.7" height="328.2" rx="3" fill="#22d3ee"/>
<text x="975.0" y="171.1" text-anchor="middle" fill="#f8fafc" font-family="Segoe UI,Arial,sans-serif" font-size="12">48.48</text>
<rect x="1013.5" y="317.8" width="39.7" height="189.5" rx="3" fill="#f59e0b"/>
<text x="1033.3" y="309.8" text-anchor="middle" fill="#f8fafc" font-family="Segoe UI,Arial,sans-serif" font-size="12">28.00</text>
<rect x="1071.8" y="290.7" width="39.7" height="216.6" rx="3" fill="#ef4444"/>
<text x="1091.7" y="282.7" text-anchor="middle" fill="#f8fafc" font-family="Segoe UI,Arial,sans-serif" font-size="12">32.00</text>
<text x="975.0" y="609" text-anchor="middle" fill="#f8fafc" font-family="Segoe UI,Arial,sans-serif" font-size="14">SOL</text>
<text transform="translate(24 355.0) rotate(-90)" text-anchor="middle" fill="#cbd5e1" font-family="Segoe UI,Arial,sans-serif" font-size="14">Basis points</text>
<rect x="100.0" y="655" width="14" height="14" rx="2" fill="#14b8a6"/>
<text x="122.0" y="667" fill="#cbd5e1" font-family="Segoe UI,Arial,sans-serif" font-size="13">Positive trigger</text>
<rect x="310.0" y="655" width="14" height="14" rx="2" fill="#60a5fa"/>
<text x="332.0" y="667" fill="#cbd5e1" font-family="Segoe UI,Arial,sans-serif" font-size="13">&gt;=1 bps trigger</text>
<rect x="520.0" y="655" width="14" height="14" rx="2" fill="#22d3ee"/>
<text x="542.0" y="667" fill="#cbd5e1" font-family="Segoe UI,Arial,sans-serif" font-size="13">&gt;=2 bps trigger</text>
<rect x="730.0" y="655" width="14" height="14" rx="2" fill="#f59e0b"/>
<text x="752.0" y="667" fill="#cbd5e1" font-family="Segoe UI,Arial,sans-serif" font-size="13">Four-leg taker ref.</text>
<rect x="940.0" y="655" width="14" height="14" rx="2" fill="#ef4444"/>
<text x="962.0" y="667" fill="#cbd5e1" font-family="Segoe UI,Arial,sans-serif" font-size="13">Stress ref.</text>
</svg>
