<svg xmlns="http://www.w3.org/2000/svg" width="1200" height="700" viewBox="0 0 1200 700" role="img">
<title>Spot and basis features added no reliable incremental skill</title>
<desc>Spot+perpetual loss improvement versus perpetual-only; required &gt;= 0.100% and BH q &lt;= 0.05, observed q 0.9695-0.9814</desc>
<rect width="1200" height="700" fill="#0b1220"/>
<text x="64" y="58" fill="#f8fafc" font-family="Segoe UI,Arial,sans-serif" font-size="28" font-weight="700">Spot and basis features added no reliable incremental skill</text>
<text x="64" y="88" fill="#cbd5e1" font-family="Segoe UI,Arial,sans-serif" font-size="15">Spot+perpetual loss improvement versus perpetual-only; required &gt;= 0.100% and BH q &lt;= 0.05, observed q 0.9695-0.9814</text>
<line x1="100" y1="575.0" x2="1150" y2="575.0" stroke="#334155" stroke-width="1"/>
<text x="86" y="580.0" text-anchor="end" fill="#cbd5e1" font-family="Segoe UI,Arial,sans-serif" font-size="13">-0.08</text>
<line x1="100" y1="487.0" x2="1150" y2="487.0" stroke="#334155" stroke-width="1"/>
<text x="86" y="492.0" text-anchor="end" fill="#cbd5e1" font-family="Segoe UI,Arial,sans-serif" font-size="13">-0.04</text>
<line x1="100" y1="399.0" x2="1150" y2="399.0" stroke="#334155" stroke-width="1"/>
<text x="86" y="404.0" text-anchor="end" fill="#cbd5e1" font-family="Segoe UI,Arial,sans-serif" font-size="13">0.00</text>
<line x1="100" y1="311.0" x2="1150" y2="311.0" stroke="#334155" stroke-width="1"/>
<text x="86" y="316.0" text-anchor="end" fill="#cbd5e1" font-family="Segoe UI,Arial,sans-serif" font-size="13">0.04</text>
<line x1="100" y1="223.0" x2="1150" y2="223.0" stroke="#334155" stroke-width="1"/>
<text x="86" y="228.0" text-anchor="end" fill="#cbd5e1" font-family="Segoe UI,Arial,sans-serif" font-size="13">0.08</text>
<line x1="100" y1="135.0" x2="1150" y2="135.0" stroke="#334155" stroke-width="1"/>
<text x="86" y="140.0" text-anchor="end" fill="#cbd5e1" font-family="Segoe UI,Arial,sans-serif" font-size="13">0.12</text>
<line x1="100" y1="399.0" x2="1150" y2="399.0" stroke="#94a3b8" stroke-width="2"/>
<rect x="119.2" y="399.0" width="19.8" height="91.8" rx="3" fill="#14b8a6"/>
<text x="129.2" y="508.8" text-anchor="middle" fill="#f8fafc" font-family="Segoe UI,Arial,sans-serif" font-size="12">-0.042</text>
<rect x="148.4" y="399.0" width="19.8" height="32.7" rx="3" fill="#ef4444"/>
<text x="158.3" y="449.7" text-anchor="middle" fill="#f8fafc" font-family="Segoe UI,Arial,sans-serif" font-size="12">-0.015</text>
<rect x="177.6" y="179.0" width="19.8" height="220.0" rx="3" fill="#f59e0b"/>
<text x="187.5" y="171.0" text-anchor="middle" fill="#f8fafc" font-family="Segoe UI,Arial,sans-serif" font-size="12">0.100</text>
<text x="158.3" y="609" text-anchor="middle" fill="#f8fafc" font-family="Segoe UI,Arial,sans-serif" font-size="14">BTC 30s</text>
<rect x="235.9" y="398.5" width="19.8" height="1.0" rx="3" fill="#14b8a6"/>
<text x="245.8" y="390.5" text-anchor="middle" fill="#f8fafc" font-family="Segoe UI,Arial,sans-serif" font-size="12">0.000</text>
<rect x="265.1" y="377.4" width="19.8" height="21.6" rx="3" fill="#ef4444"/>
<text x="275.0" y="369.4" text-anchor="middle" fill="#f8fafc" font-family="Segoe UI,Arial,sans-serif" font-size="12">0.010</text>
<rect x="294.2" y="179.0" width="19.8" height="220.0" rx="3" fill="#f59e0b"/>
<text x="304.2" y="171.0" text-anchor="middle" fill="#f8fafc" font-family="Segoe UI,Arial,sans-serif" font-size="12">0.100</text>
<text x="275.0" y="609" text-anchor="middle" fill="#f8fafc" font-family="Segoe UI,Arial,sans-serif" font-size="14">BTC 60s</text>
<rect x="352.6" y="350.0" width="19.8" height="49.0" rx="3" fill="#14b8a6"/>
<text x="362.5" y="342.0" text-anchor="middle" fill="#f8fafc" font-family="Segoe UI,Arial,sans-serif" font-size="12">0.022</text>
<rect x="381.8" y="398.8" width="19.8" height="1.0" rx="3" fill="#ef4444"/>
<text x="391.7" y="390.8" text-anchor="middle" fill="#f8fafc" font-family="Segoe UI,Arial,sans-serif" font-size="12">0.000</text>
<rect x="410.9" y="179.0" width="19.8" height="220.0" rx="3" fill="#f59e0b"/>
<text x="420.8" y="171.0" text-anchor="middle" fill="#f8fafc" font-family="Segoe UI,Arial,sans-serif" font-size="12">0.100</text>
<text x="391.7" y="609" text-anchor="middle" fill="#f8fafc" font-family="Segoe UI,Arial,sans-serif" font-size="14">BTC 300s</text>
<rect x="469.2" y="371.4" width="19.8" height="27.6" rx="3" fill="#14b8a6"/>
<text x="479.2" y="363.4" text-anchor="middle" fill="#f8fafc" font-family="Segoe UI,Arial,sans-serif" font-size="12">0.013</text>
<rect x="498.4" y="385.1" width="19.8" height="13.9" rx="3" fill="#ef4444"/>
<text x="508.3" y="349.1" text-anchor="middle" fill="#f8fafc" font-family="Segoe UI,Arial,sans-serif" font-size="12">0.006</text>
<rect x="527.6" y="179.0" width="19.8" height="220.0" rx="3" fill="#f59e0b"/>
<text x="537.5" y="171.0" text-anchor="middle" fill="#f8fafc" font-family="Segoe UI,Arial,sans-serif" font-size="12">0.100</text>
<text x="508.3" y="609" text-anchor="middle" fill="#f8fafc" font-family="Segoe UI,Arial,sans-serif" font-size="14">ETH 30s</text>
<rect x="585.9" y="399.0" width="19.8" height="15.6" rx="3" fill="#14b8a6"/>
<text x="595.8" y="432.6" text-anchor="middle" fill="#f8fafc" font-family="Segoe UI,Arial,sans-serif" font-size="12">-0.007</text>
<rect x="615.1" y="399.0" width="19.8" height="15.6" rx="3" fill="#ef4444"/>
<text x="625.0" y="446.6" text-anchor="middle" fill="#f8fafc" font-family="Segoe UI,Arial,sans-serif" font-size="12">-0.007</text>
<rect x="644.3" y="179.0" width="19.8" height="220.0" rx="3" fill="#f59e0b"/>
<text x="654.2" y="171.0" text-anchor="middle" fill="#f8fafc" font-family="Segoe UI,Arial,sans-serif" font-size="12">0.100</text>
<text x="625.0" y="609" text-anchor="middle" fill="#f8fafc" font-family="Segoe UI,Arial,sans-serif" font-size="14">ETH 60s</text>
<rect x="702.6" y="399.0" width="19.8" height="24.1" rx="3" fill="#14b8a6"/>
<text x="712.5" y="441.1" text-anchor="middle" fill="#f8fafc" font-family="Segoe UI,Arial,sans-serif" font-size="12">-0.011</text>
<rect x="731.8" y="399.0" width="19.8" height="9.6" rx="3" fill="#ef4444"/>
<text x="741.7" y="426.6" text-anchor="middle" fill="#f8fafc" font-family="Segoe UI,Arial,sans-serif" font-size="12">-0.004</text>
<rect x="760.9" y="179.0" width="19.8" height="220.0" rx="3" fill="#f59e0b"/>
<text x="770.8" y="171.0" text-anchor="middle" fill="#f8fafc" font-family="Segoe UI,Arial,sans-serif" font-size="12">0.100</text>
<text x="741.7" y="609" text-anchor="middle" fill="#f8fafc" font-family="Segoe UI,Arial,sans-serif" font-size="14">ETH 300s</text>
<rect x="819.2" y="399.0" width="19.8" height="10.9" rx="3" fill="#14b8a6"/>
<text x="829.2" y="427.9" text-anchor="middle" fill="#f8fafc" font-family="Segoe UI,Arial,sans-serif" font-size="12">-0.005</text>
<rect x="848.4" y="399.0" width="19.8" height="4.2" rx="3" fill="#ef4444"/>
<text x="858.3" y="449.2" text-anchor="middle" fill="#f8fafc" font-family="Segoe UI,Arial,sans-serif" font-size="12">-0.002</text>
<rect x="877.6" y="179.0" width="19.8" height="220.0" rx="3" fill="#f59e0b"/>
<text x="887.5" y="171.0" text-anchor="middle" fill="#f8fafc" font-family="Segoe UI,Arial,sans-serif" font-size="12">0.100</text>
<text x="858.3" y="609" text-anchor="middle" fill="#f8fafc" font-family="Segoe UI,Arial,sans-serif" font-size="14">SOL 30s</text>
<rect x="935.9" y="351.8" width="19.8" height="47.2" rx="3" fill="#14b8a6"/>
<text x="945.8" y="343.8" text-anchor="middle" fill="#f8fafc" font-family="Segoe UI,Arial,sans-serif" font-size="12">0.021</text>
<rect x="965.1" y="399.0" width="19.8" height="5.4" rx="3" fill="#ef4444"/>
<text x="975.0" y="422.4" text-anchor="middle" fill="#f8fafc" font-family="Segoe UI,Arial,sans-serif" font-size="12">-0.002</text>
<rect x="994.3" y="179.0" width="19.8" height="220.0" rx="3" fill="#f59e0b"/>
<text x="1004.2" y="171.0" text-anchor="middle" fill="#f8fafc" font-family="Segoe UI,Arial,sans-serif" font-size="12">0.100</text>
<text x="975.0" y="609" text-anchor="middle" fill="#f8fafc" font-family="Segoe UI,Arial,sans-serif" font-size="14">SOL 60s</text>
<rect x="1052.6" y="399.0" width="19.8" height="21.8" rx="3" fill="#14b8a6"/>
<text x="1062.5" y="438.8" text-anchor="middle" fill="#f8fafc" font-family="Segoe UI,Arial,sans-serif" font-size="12">-0.010</text>
<rect x="1081.8" y="399.0" width="19.8" height="9.0" rx="3" fill="#ef4444"/>
<text x="1091.7" y="454.0" text-anchor="middle" fill="#f8fafc" font-family="Segoe UI,Arial,sans-serif" font-size="12">-0.004</text>
<rect x="1110.9" y="179.0" width="19.8" height="220.0" rx="3" fill="#f59e0b"/>
<text x="1120.8" y="171.0" text-anchor="middle" fill="#f8fafc" font-family="Segoe UI,Arial,sans-serif" font-size="12">0.100</text>
<text x="1091.7" y="609" text-anchor="middle" fill="#f8fafc" font-family="Segoe UI,Arial,sans-serif" font-size="14">SOL 300s</text>
<text transform="translate(24 355.0) rotate(-90)" text-anchor="middle" fill="#cbd5e1" font-family="Segoe UI,Arial,sans-serif" font-size="14">Incremental loss improvement (%)</text>
<rect x="100.0" y="655" width="14" height="14" rx="2" fill="#14b8a6"/>
<text x="122.0" y="667" fill="#cbd5e1" font-family="Segoe UI,Arial,sans-serif" font-size="13">Binary log loss</text>
<rect x="450.0" y="655" width="14" height="14" rx="2" fill="#ef4444"/>
<text x="472.0" y="667" fill="#cbd5e1" font-family="Segoe UI,Arial,sans-serif" font-size="13">Return MSE</text>
<rect x="800.0" y="655" width="14" height="14" rx="2" fill="#f59e0b"/>
<text x="822.0" y="667" fill="#cbd5e1" font-family="Segoe UI,Arial,sans-serif" font-size="13">Required</text>
</svg>
