<svg xmlns="http://www.w3.org/2000/svg" width="1200" height="700" viewBox="0 0 1200 700" role="img">
<title>Observed two-fill spreads did not clear the frozen cost reference</title>
<desc>Value-blind placement spread only; 4 bps is the prior 2 bps/side fee reference and 6 bps adds the prior 1 bps/side slippage reference</desc>
<rect width="1200" height="700" fill="#0b1220"/>
<text x="64" y="58" fill="#f8fafc" font-family="Segoe UI,Arial,sans-serif" font-size="28" font-weight="700">Observed two-fill spreads did not clear the frozen cost reference</text>
<text x="64" y="88" fill="#cbd5e1" font-family="Segoe UI,Arial,sans-serif" font-size="15">Value-blind placement spread only; 4 bps is the prior 2 bps/side fee reference and 6 bps adds the prior 1 bps/side slippage reference</text>
<line x1="100" y1="575.0" x2="1150" y2="575.0" stroke="#334155" stroke-width="1"/>
<text x="86" y="580.0" text-anchor="end" fill="#cbd5e1" font-family="Segoe UI,Arial,sans-serif" font-size="13">0.0</text>
<line x1="100" y1="487.0" x2="1150" y2="487.0" stroke="#334155" stroke-width="1"/>
<text x="86" y="492.0" text-anchor="end" fill="#cbd5e1" font-family="Segoe UI,Arial,sans-serif" font-size="13">1.6</text>
<line x1="100" y1="399.0" x2="1150" y2="399.0" stroke="#334155" stroke-width="1"/>
<text x="86" y="404.0" text-anchor="end" fill="#cbd5e1" font-family="Segoe UI,Arial,sans-serif" font-size="13">3.2</text>
<line x1="100" y1="311.0" x2="1150" y2="311.0" stroke="#334155" stroke-width="1"/>
<text x="86" y="316.0" text-anchor="end" fill="#cbd5e1" font-family="Segoe UI,Arial,sans-serif" font-size="13">4.8</text>
<line x1="100" y1="223.0" x2="1150" y2="223.0" stroke="#334155" stroke-width="1"/>
<text x="86" y="228.0" text-anchor="end" fill="#cbd5e1" font-family="Segoe UI,Arial,sans-serif" font-size="13">6.4</text>
<line x1="100" y1="135.0" x2="1150" y2="135.0" stroke="#334155" stroke-width="1"/>
<text x="86" y="140.0" text-anchor="end" fill="#cbd5e1" font-family="Segoe UI,Arial,sans-serif" font-size="13">8.0</text>
<rect x="138.5" y="573.0" width="39.7" height="2.0" rx="3" fill="#14b8a6"/>
<text x="158.3" y="565.0" text-anchor="middle" fill="#f8fafc" font-family="Segoe UI,Arial,sans-serif" font-size="12">0.04</text>
<rect x="196.8" y="572.9" width="39.7" height="2.1" rx="3" fill="#60a5fa"/>
<text x="216.7" y="564.9" text-anchor="middle" fill="#f8fafc" font-family="Segoe UI,Arial,sans-serif" font-size="12">0.04</text>
<rect x="255.2" y="488.6" width="39.7" height="86.4" rx="3" fill="#22d3ee"/>
<text x="275.0" y="480.6" text-anchor="middle" fill="#f8fafc" font-family="Segoe UI,Arial,sans-serif" font-size="12">1.57</text>
<rect x="313.5" y="355.0" width="39.7" height="220.0" rx="3" fill="#f59e0b"/>
<text x="333.3" y="347.0" text-anchor="middle" fill="#f8fafc" font-family="Segoe UI,Arial,sans-serif" font-size="12">4.00</text>
<rect x="371.8" y="245.0" width="39.7" height="330.0" rx="3" fill="#ef4444"/>
<text x="391.7" y="237.0" text-anchor="middle" fill="#f8fafc" font-family="Segoe UI,Arial,sans-serif" font-size="12">6.00</text>
<text x="275.0" y="609" text-anchor="middle" fill="#f8fafc" font-family="Segoe UI,Arial,sans-serif" font-size="14">BTC</text>
<rect x="488.5" y="572.0" width="39.7" height="3.0" rx="3" fill="#14b8a6"/>
<text x="508.3" y="564.0" text-anchor="middle" fill="#f8fafc" font-family="Segoe UI,Arial,sans-serif" font-size="12">0.05</text>
<rect x="546.8" y="566.3" width="39.7" height="8.7" rx="3" fill="#60a5fa"/>
<text x="566.7" y="558.3" text-anchor="middle" fill="#f8fafc" font-family="Segoe UI,Arial,sans-serif" font-size="12">0.16</text>
<rect x="605.2" y="536.2" width="39.7" height="38.8" rx="3" fill="#22d3ee"/>
<text x="625.0" y="528.2" text-anchor="middle" fill="#f8fafc" font-family="Segoe UI,Arial,sans-serif" font-size="12">0.71</text>
<rect x="663.5" y="355.0" width="39.7" height="220.0" rx="3" fill="#f59e0b"/>
<text x="683.3" y="347.0" text-anchor="middle" fill="#f8fafc" font-family="Segoe UI,Arial,sans-serif" font-size="12">4.00</text>
<rect x="721.8" y="245.0" width="39.7" height="330.0" rx="3" fill="#ef4444"/>
<text x="741.7" y="237.0" text-anchor="middle" fill="#f8fafc" font-family="Segoe UI,Arial,sans-serif" font-size="12">6.00</text>
<text x="625.0" y="609" text-anchor="middle" fill="#f8fafc" font-family="Segoe UI,Arial,sans-serif" font-size="14">ETH</text>
<rect x="838.5" y="548.4" width="39.7" height="26.6" rx="3" fill="#14b8a6"/>
<text x="858.3" y="540.4" text-anchor="middle" fill="#f8fafc" font-family="Segoe UI,Arial,sans-serif" font-size="12">0.48</text>
<rect x="896.8" y="521.6" width="39.7" height="53.4" rx="3" fill="#60a5fa"/>
<text x="916.7" y="513.6" text-anchor="middle" fill="#f8fafc" font-family="Segoe UI,Arial,sans-serif" font-size="12">0.97</text>
<rect x="955.2" y="172.4" width="39.7" height="402.6" rx="3" fill="#22d3ee"/>
<text x="975.0" y="164.4" text-anchor="middle" fill="#f8fafc" font-family="Segoe UI,Arial,sans-serif" font-size="12">7.32</text>
<rect x="1013.5" y="355.0" width="39.7" height="220.0" rx="3" fill="#f59e0b"/>
<text x="1033.3" y="347.0" text-anchor="middle" fill="#f8fafc" font-family="Segoe UI,Arial,sans-serif" font-size="12">4.00</text>
<rect x="1071.8" y="245.0" width="39.7" height="330.0" rx="3" fill="#ef4444"/>
<text x="1091.7" y="237.0" text-anchor="middle" fill="#f8fafc" font-family="Segoe UI,Arial,sans-serif" font-size="12">6.00</text>
<text x="975.0" y="609" text-anchor="middle" fill="#f8fafc" font-family="Segoe UI,Arial,sans-serif" font-size="14">SOL</text>
<text transform="translate(24 355.0) rotate(-90)" text-anchor="middle" fill="#cbd5e1" font-family="Segoe UI,Arial,sans-serif" font-size="14">Basis points</text>
<rect x="100.0" y="655" width="14" height="14" rx="2" fill="#14b8a6"/>
<text x="122.0" y="667" fill="#cbd5e1" font-family="Segoe UI,Arial,sans-serif" font-size="13">p50 spread</text>
<rect x="310.0" y="655" width="14" height="14" rx="2" fill="#60a5fa"/>
<text x="332.0" y="667" fill="#cbd5e1" font-family="Segoe UI,Arial,sans-serif" font-size="13">p99 spread</text>
<rect x="520.0" y="655" width="14" height="14" rx="2" fill="#22d3ee"/>
<text x="542.0" y="667" fill="#cbd5e1" font-family="Segoe UI,Arial,sans-serif" font-size="13">max spread</text>
<rect x="730.0" y="655" width="14" height="14" rx="2" fill="#f59e0b"/>
<text x="752.0" y="667" fill="#cbd5e1" font-family="Segoe UI,Arial,sans-serif" font-size="13">Fee ref.</text>
<rect x="940.0" y="655" width="14" height="14" rx="2" fill="#ef4444"/>
<text x="962.0" y="667" fill="#cbd5e1" font-family="Segoe UI,Arial,sans-serif" font-size="13">Base cost ref.</text>
</svg>
