<svg xmlns="http://www.w3.org/2000/svg" width="1500" height="760" viewBox="0 0 1500 760" role="img" aria-labelledby="title desc">
<title id="title">Round 43 stateful returns were not stable across cost-aware policies</title>
<desc id="desc">Compounded 2025-H1 net return; stress also raises the transition hurdle, so the ledgers are not matched cost sensitivity.</desc>
<rect width="100%" height="100%" fill="#ffffff"/>
<style>text{font-family:"Segoe UI",Arial,sans-serif;letter-spacing:0}.title{font-size:27px;font-weight:700;fill:#17212b}.subtitle{font-size:14px;fill:#52606d}.label{font-size:13px;fill:#263746}.axis{font-size:12px;fill:#60717f}.value{font-size:12px;font-weight:650;fill:#263746}.note{font-size:12px;fill:#65727d}.grid{stroke:#e1e8ed;stroke-width:1}.zero{stroke:#526674;stroke-width:2;stroke-dasharray:6 5}</style>
<text x="56" y="52" class="title">Round 43 stateful returns were not stable across cost-aware policies</text>
<text x="56" y="80" class="subtitle">Compounded 2025-H1 net return; stress also raises the transition hurdle, so the ledgers are not matched cost sensitivity.</text>
<rect x="115" y="150" width="1320" height="390" fill="#ffffff" stroke="#d8e0e7"/>
<rect x="1040" y="47" width="16" height="16" fill="#197a55"/><text x="1066" y="60" class="note">positive</text>
<rect x="1160" y="47" width="16" height="16" fill="#b42318"/><text x="1186" y="60" class="note">negative</text>
<rect x="1275" y="47" width="16" height="16" fill="none" stroke="#17212b" stroke-width="2"/><text x="1301" y="60" class="note">base</text>
<rect x="1370" y="47" width="16" height="16" fill="none" stroke="#17212b" stroke-width="2" stroke-dasharray="4 3"/><text x="1396" y="60" class="note">stress</text>
<line x1="115" y1="560.5" x2="1435" y2="560.5" class="grid"/>
<text x="102" y="564.5" text-anchor="end" class="axis">-12%</text>
<line x1="115" y1="519.5" x2="1435" y2="519.5" class="grid"/>
<text x="102" y="523.5" text-anchor="end" class="axis">-10%</text>
<line x1="115" y1="478.4" x2="1435" y2="478.4" class="grid"/>
<text x="102" y="482.4" text-anchor="end" class="axis">-8%</text>
<line x1="115" y1="437.4" x2="1435" y2="437.4" class="grid"/>
<text x="102" y="441.4" text-anchor="end" class="axis">-6%</text>
<line x1="115" y1="396.3" x2="1435" y2="396.3" class="grid"/>
<text x="102" y="400.3" text-anchor="end" class="axis">-4%</text>
<line x1="115" y1="355.3" x2="1435" y2="355.3" class="grid"/>
<text x="102" y="359.3" text-anchor="end" class="axis">-2%</text>
<line x1="115" y1="314.2" x2="1435" y2="314.2" class="zero"/>
<text x="102" y="318.2" text-anchor="end" class="axis">+0%</text>
<line x1="115" y1="273.2" x2="1435" y2="273.2" class="grid"/>
<text x="102" y="277.2" text-anchor="end" class="axis">+2%</text>
<line x1="115" y1="232.1" x2="1435" y2="232.1" class="grid"/>
<text x="102" y="236.1" text-anchor="end" class="axis">+4%</text>
<line x1="115" y1="191.1" x2="1435" y2="191.1" class="grid"/>
<text x="102" y="195.1" text-anchor="end" class="axis">+6%</text>
<line x1="115" y1="150.0" x2="1435" y2="150.0" class="grid"/>
<text x="102" y="154.0" text-anchor="end" class="axis">+8%</text>
<rect x="205.0" y="314.2" width="62" height="88.8" fill="#b42318" fill-opacity="0.82" stroke="#17212b" stroke-width="2"/>
<text x="236.0" y="423.0" text-anchor="middle" class="value">-4.33%</text>
<text x="236.0" y="565" text-anchor="middle" class="axis">base</text>
<rect x="293.0" y="249.8" width="62" height="64.4" fill="#197a55" fill-opacity="0.82" stroke="#17212b" stroke-width="2" stroke-dasharray="5 3"/>
<text x="324.0" y="239.8" text-anchor="middle" class="value">+3.14%</text>
<text x="324.0" y="565" text-anchor="middle" class="axis">stress</text>
<text x="280.0" y="598" text-anchor="middle" class="label">ML long-only</text>
<text x="280.0" y="622" text-anchor="middle" class="note">DD 9.7% / 7.4%</text>
<rect x="535.0" y="314.2" width="62" height="183.2" fill="#b42318" fill-opacity="0.82" stroke="#17212b" stroke-width="2"/>
<text x="566.0" y="517.4" text-anchor="middle" class="value">-8.92%</text>
<text x="566.0" y="565" text-anchor="middle" class="axis">base</text>
<rect x="623.0" y="179.0" width="62" height="135.2" fill="#197a55" fill-opacity="0.82" stroke="#17212b" stroke-width="2" stroke-dasharray="5 3"/>
<text x="654.0" y="169.0" text-anchor="middle" class="value">+6.59%</text>
<text x="654.0" y="565" text-anchor="middle" class="axis">stress</text>
<text x="610.0" y="598" text-anchor="middle" class="label">ML long-short</text>
<text x="610.0" y="622" text-anchor="middle" class="note">DD 16.1% / 7.4%</text>
<rect x="865.0" y="314.2" width="62" height="49.3" fill="#b42318" fill-opacity="0.82" stroke="#17212b" stroke-width="2"/>
<text x="896.0" y="383.5" text-anchor="middle" class="value">-2.40%</text>
<text x="896.0" y="565" text-anchor="middle" class="axis">base</text>
<rect x="953.0" y="233.2" width="62" height="81.0" fill="#197a55" fill-opacity="0.82" stroke="#17212b" stroke-width="2" stroke-dasharray="5 3"/>
<text x="984.0" y="223.2" text-anchor="middle" class="value">+3.95%</text>
<text x="984.0" y="565" text-anchor="middle" class="axis">stress</text>
<text x="940.0" y="598" text-anchor="middle" class="label">AI-factor long-only</text>
<text x="940.0" y="622" text-anchor="middle" class="note">DD 11.3% / 7.7%</text>
<rect x="1195.0" y="239.9" width="62" height="74.3" fill="#197a55" fill-opacity="0.82" stroke="#17212b" stroke-width="2"/>
<text x="1226.0" y="229.9" text-anchor="middle" class="value">+3.62%</text>
<text x="1226.0" y="565" text-anchor="middle" class="axis">base</text>
<rect x="1283.0" y="314.2" width="62" height="127.6" fill="#b42318" fill-opacity="0.82" stroke="#17212b" stroke-width="2" stroke-dasharray="5 3"/>
<text x="1314.0" y="461.8" text-anchor="middle" class="value">-6.21%</text>
<text x="1314.0" y="565" text-anchor="middle" class="axis">stress</text>
<text x="1270.0" y="598" text-anchor="middle" class="label">AI-factor long-short</text>
<text x="1270.0" y="622" text-anchor="middle" class="note">DD 10.4% / 7.8%</text>
<text x="115" y="714" class="note">No candidate passed: every familywise 168-hour bootstrap lower bound was negative and activity covered only 20-32 days.</text>
<text x="115" y="736" class="note">Unlevered fixed one-third sleeves; exact funding; 6 bps base and 8 bps stress one-way charges per unit transition.</text>
</svg>
