<svg xmlns="http://www.w3.org/2000/svg" width="1500" height="760" viewBox="0 0 1500 760" role="img" aria-labelledby="title desc">
<title id="title">Every symbol lost under the competing-risk policy</title>
<desc id="desc">Fixed one-third sleeves; symbol drawdown is reconstructed from the same exit-dated trade ledger.</desc>
<rect width="100%" height="100%" fill="#ffffff"/>
<style>text{font-family:"Segoe UI",Arial,sans-serif;letter-spacing:0}.title{font-size:27px;font-weight:700;fill:#17212b}.subtitle{font-size:14px;fill:#52606d}.label{font-size:13px;fill:#263746}.axis{font-size:12px;fill:#60717f}.value{font-size:12px;font-weight:650;fill:#263746}.note{font-size:12px;fill:#65727d}.grid{stroke:#e1e8ed;stroke-width:1}.zero{stroke:#526674;stroke-width:2;stroke-dasharray:6 5}</style>
<text x="56" y="52" class="title">Every symbol lost under the competing-risk policy</text>
<text x="56" y="80" class="subtitle">Fixed one-third sleeves; symbol drawdown is reconstructed from the same exit-dated trade ledger.</text>
<rect x="830" y="43" width="18" height="18" fill="#0f766e"/><text x="858" y="57" class="note">12 bps base</text>
<rect x="1120" y="43" width="18" height="18" fill="#b45309"/><text x="1148" y="57" class="note">16 bps stress</text>
<text x="130" y="127" class="label">Net portfolio return contribution (%)</text>
<line x1="130" y1="350.0" x2="1430" y2="350.0" class="grid"/><text x="116" y="354.0" text-anchor="end" class="axis">-39.12</text>
<line x1="130" y1="247.5" x2="1430" y2="247.5" class="grid"/><text x="116" y="251.5" text-anchor="end" class="axis">-17.01</text>
<line x1="130" y1="145.0" x2="1430" y2="145.0" class="grid"/><text x="116" y="149.0" text-anchor="end" class="axis">+5.10</text>
<line x1="130" y1="168.7" x2="1430" y2="168.7" class="zero"/>
<rect x="173.3" y="168.7" width="130.0" height="15.6" fill="#0f766e"/><text x="238.3" y="203.3" text-anchor="middle" class="value">-3.37</text><text x="238.3" y="374.0" text-anchor="middle" class="axis">BTCUSDT Base</text>
<rect x="390.0" y="168.7" width="130.0" height="14.2" fill="#0f766e"/><text x="455.0" y="201.8" text-anchor="middle" class="value">-3.06</text><text x="455.0" y="374.0" text-anchor="middle" class="axis">ETHUSDT Base</text>
<rect x="606.7" y="168.7" width="130.0" height="135.8" fill="#0f766e"/><text x="671.7" y="323.5" text-anchor="middle" class="value">-29.30</text><text x="671.7" y="374.0" text-anchor="middle" class="axis">SOLUSDT Base</text>
<rect x="823.3" y="168.7" width="130.0" height="19.4" fill="#b45309"/><text x="888.3" y="207.0" text-anchor="middle" class="value">-4.17</text><text x="888.3" y="374.0" text-anchor="middle" class="axis">BTCUSDT Stress</text>
<rect x="1040.0" y="168.7" width="130.0" height="26.3" fill="#b45309"/><text x="1105.0" y="213.9" text-anchor="middle" class="value">-5.67</text><text x="1105.0" y="374.0" text-anchor="middle" class="axis">ETHUSDT Stress</text>
<rect x="1256.7" y="168.7" width="130.0" height="157.7" fill="#b45309"/><text x="1321.7" y="345.3" text-anchor="middle" class="value">-34.02</text><text x="1321.7" y="374.0" text-anchor="middle" class="axis">SOLUSDT Stress</text>
<text x="130" y="452" class="label">Base symbol-sleeve maximum drawdown (%)</text>
<line x1="130" y1="650.0" x2="1430" y2="650.0" class="grid"/><text x="116" y="654.0" text-anchor="end" class="axis">0.00</text>
<line x1="130" y1="560.0" x2="1430" y2="560.0" class="grid"/><text x="116" y="564.0" text-anchor="end" class="axis">17.37</text>
<line x1="130" y1="470.0" x2="1430" y2="470.0" class="grid"/><text x="116" y="474.0" text-anchor="end" class="axis">34.74</text>
<line x1="130" y1="650.0" x2="1430" y2="650.0" class="zero"/>
<rect x="216.7" y="632.5" width="260.0" height="17.5" fill="#2563a6"/><text x="346.7" y="623.5" text-anchor="middle" class="value">3.37</text><text x="346.7" y="674.0" text-anchor="middle" class="axis">BTCUSDT</text>
<rect x="650.0" y="612.8" width="260.0" height="37.2" fill="#2563a6"/><text x="780.0" y="603.8" text-anchor="middle" class="value">7.18</text><text x="780.0" y="674.0" text-anchor="middle" class="axis">ETHUSDT</text>
<rect x="1083.3" y="497.5" width="260.0" height="152.5" fill="#2563a6"/><text x="1213.3" y="488.5" text-anchor="middle" class="value">29.44</text><text x="1213.3" y="674.0" text-anchor="middle" class="axis">SOLUSDT</text>
</svg>
