<svg xmlns="http://www.w3.org/2000/svg" width="1500" height="760" viewBox="0 0 1500 760" role="img" aria-labelledby="title desc">
<title id="title">Mutual forecast quality is broad but SOL 24-hour skill is negative</title>
<desc id="desc">Per-symbol consumed development diagnostics; positive rank association does not establish after-cost profitability.</desc>
<rect width="100%" height="100%" fill="#ffffff"/>
<style>text{font-family:"Segoe UI",Arial,sans-serif;letter-spacing:0}.title{font-size:27px;font-weight:700;fill:#17212b}.subtitle{font-size:14px;fill:#52606d}.label{font-size:13px;fill:#263746}.axis{font-size:12px;fill:#60717f}.value{font-size:12px;font-weight:650;fill:#263746}.note{font-size:12px;fill:#65727d}.grid{stroke:#e1e8ed;stroke-width:1}.zero{stroke:#526674;stroke-width:2;stroke-dasharray:6 5}</style>
<text x="56" y="52" class="title">Mutual forecast quality is broad but SOL 24-hour skill is negative</text>
<text x="56" y="80" class="subtitle">Per-symbol consumed development diagnostics; positive rank association does not establish after-cost profitability.</text>
<text x="120" y="125" class="label">Pinball skill versus symbol baseline</text><rect x="120" y="145" width="1310" height="205" fill="#ffffff" stroke="#d8e0e7"/>
<line x1="120" y1="350.0" x2="1430" y2="350.0" class="grid"/><text x="106" y="354.0" text-anchor="end" class="axis">-1.0%</text>
<line x1="120" y1="309.0" x2="1430" y2="309.0" class="grid"/><text x="106" y="313.0" text-anchor="end" class="axis">+0.1%</text>
<line x1="120" y1="268.0" x2="1430" y2="268.0" class="grid"/><text x="106" y="272.0" text-anchor="end" class="axis">+1.2%</text>
<line x1="120" y1="227.0" x2="1430" y2="227.0" class="grid"/><text x="106" y="231.0" text-anchor="end" class="axis">+2.3%</text>
<line x1="120" y1="186.0" x2="1430" y2="186.0" class="grid"/><text x="106" y="190.0" text-anchor="end" class="axis">+3.4%</text>
<line x1="120" y1="145.0" x2="1430" y2="145.0" class="grid"/><text x="106" y="149.0" text-anchor="end" class="axis">+4.5%</text>
<rect x="208.8" y="185.1" width="44" height="127.6" fill="#2563a6" fill-opacity="0.88"/>
<rect x="260.8" y="176.8" width="44" height="135.9" fill="#0f766e" fill-opacity="0.88"/>
<rect x="312.8" y="197.2" width="44" height="115.5" fill="#b7791f" fill-opacity="0.88"/>
<rect x="536.2" y="178.8" width="44" height="134.0" fill="#2563a6" fill-opacity="0.88"/>
<rect x="588.2" y="185.1" width="44" height="127.6" fill="#0f766e" fill-opacity="0.88"/>
<rect x="640.2" y="225.3" width="44" height="87.5" fill="#b7791f" fill-opacity="0.88"/>
<rect x="863.8" y="191.4" width="44" height="121.3" fill="#2563a6" fill-opacity="0.88"/>
<rect x="915.8" y="215.1" width="44" height="97.7" fill="#0f766e" fill-opacity="0.88"/>
<rect x="967.8" y="256.4" width="44" height="56.3" fill="#b7791f" fill-opacity="0.88"/>
<rect x="1191.2" y="243.5" width="44" height="69.2" fill="#2563a6" fill-opacity="0.88"/>
<rect x="1243.2" y="269.5" width="44" height="43.3" fill="#0f766e" fill-opacity="0.88"/>
<rect x="1295.2" y="312.7" width="44" height="5.6" fill="#b7791f" fill-opacity="0.88"/>
<text x="120" y="430" class="label">Median-return Spearman coefficient</text><rect x="120" y="450" width="1310" height="205" fill="#ffffff" stroke="#d8e0e7"/>
<line x1="120" y1="655.0" x2="1430" y2="655.0" class="grid"/><text x="106" y="659.0" text-anchor="end" class="axis">-0.025</text>
<line x1="120" y1="614.0" x2="1430" y2="614.0" class="grid"/><text x="106" y="618.0" text-anchor="end" class="axis">+0.000</text>
<line x1="120" y1="573.0" x2="1430" y2="573.0" class="grid"/><text x="106" y="577.0" text-anchor="end" class="axis">+0.025</text>
<line x1="120" y1="532.0" x2="1430" y2="532.0" class="grid"/><text x="106" y="536.0" text-anchor="end" class="axis">+0.050</text>
<line x1="120" y1="491.0" x2="1430" y2="491.0" class="grid"/><text x="106" y="495.0" text-anchor="end" class="axis">+0.075</text>
<line x1="120" y1="450.0" x2="1430" y2="450.0" class="grid"/><text x="106" y="454.0" text-anchor="end" class="axis">+0.100</text>
<rect x="208.8" y="540.7" width="44" height="73.3" fill="#2563a6" fill-opacity="0.88"/>
<rect x="260.8" y="537.0" width="44" height="77.0" fill="#0f766e" fill-opacity="0.88"/>
<rect x="312.8" y="540.8" width="44" height="73.2" fill="#b7791f" fill-opacity="0.88"/>
<text x="283.8" y="682" text-anchor="middle" class="axis">1 h</text>
<rect x="536.2" y="514.1" width="44" height="99.9" fill="#2563a6" fill-opacity="0.88"/>
<rect x="588.2" y="514.3" width="44" height="99.7" fill="#0f766e" fill-opacity="0.88"/>
<rect x="640.2" y="549.1" width="44" height="64.9" fill="#b7791f" fill-opacity="0.88"/>
<text x="611.2" y="682" text-anchor="middle" class="axis">4 h</text>
<rect x="863.8" y="519.6" width="44" height="94.4" fill="#2563a6" fill-opacity="0.88"/>
<rect x="915.8" y="471.6" width="44" height="142.4" fill="#0f766e" fill-opacity="0.88"/>
<rect x="967.8" y="538.7" width="44" height="75.3" fill="#b7791f" fill-opacity="0.88"/>
<text x="938.8" y="682" text-anchor="middle" class="axis">12 h</text>
<rect x="1191.2" y="528.4" width="44" height="85.6" fill="#2563a6" fill-opacity="0.88"/>
<rect x="1243.2" y="575.1" width="44" height="38.9" fill="#0f766e" fill-opacity="0.88"/>
<rect x="1295.2" y="614.0" width="44" height="25.6" fill="#b7791f" fill-opacity="0.88"/>
<text x="1266.2" y="682" text-anchor="middle" class="axis">24 h</text>
<rect x="120" y="718" width="24" height="12" fill="#2563a6"/><text x="154" y="729" class="note">BTCUSDT</text>
<rect x="330" y="718" width="24" height="12" fill="#0f766e"/><text x="364" y="729" class="note">ETHUSDT</text>
<rect x="540" y="718" width="24" height="12" fill="#b7791f"/><text x="574" y="729" class="note">SOLUSDT</text>
<text x="1430" y="729" text-anchor="end" class="note">SOLUSDT 24 h: -0.15% pinball skill and -0.0156 Spearman.</text>
</svg>
