<svg xmlns="http://www.w3.org/2000/svg" width="1500" height="760" viewBox="0 0 1500 760" role="img" aria-labelledby="title desc">
<title id="title">Validation plateaued under frozen early stopping</title>
<desc id="desc">Training ended at epoch 14 for the direct control and 15 for the competing-risk model.</desc>
<rect width="100%" height="100%" fill="#ffffff"/>
<style>text{font-family:"Segoe UI",Arial,sans-serif;letter-spacing:0}.title{font-size:27px;font-weight:700;fill:#17212b}.subtitle{font-size:14px;fill:#52606d}.label{font-size:13px;fill:#263746}.axis{font-size:12px;fill:#60717f}.value{font-size:12px;font-weight:650;fill:#263746}.note{font-size:12px;fill:#65727d}.grid{stroke:#e1e8ed;stroke-width:1}.zero{stroke:#526674;stroke-width:2;stroke-dasharray:6 5}</style>
<text x="56" y="52" class="title">Validation plateaued under frozen early stopping</text>
<text x="56" y="80" class="subtitle">Training ended at epoch 14 for the direct control and 15 for the competing-risk model.</text>
<rect x="830" y="43" width="18" height="18" fill="#2563a6"/><text x="858" y="57" class="note">Direct mean control</text>
<rect x="1120" y="43" width="18" height="18" fill="#0f766e"/><text x="1148" y="57" class="note">Competing-risk model</text>
<text x="130" y="127" class="label">Early-stop event log loss</text>
<line x1="130" y1="350.0" x2="1430" y2="350.0" class="grid"/><text x="116" y="354.0" text-anchor="end" class="axis">2.4687</text>
<line x1="130" y1="247.5" x2="1430" y2="247.5" class="grid"/><text x="116" y="251.5" text-anchor="end" class="axis">2.4915</text>
<line x1="130" y1="145.0" x2="1430" y2="145.0" class="grid"/><text x="116" y="149.0" text-anchor="end" class="axis">2.5143</text>
<polyline points="130.0,164.8 222.9,244.0 315.7,276.0 408.6,289.5 501.4,303.1 594.3,320.5 687.1,315.9 780.0,323.1 872.9,316.6 965.7,323.8 1058.6,314.1 1151.4,289.7 1244.3,274.7 1337.1,225.3" fill="none" stroke="#2563a6" stroke-width="3"/>
<polyline points="130.0,192.9 222.9,255.2 315.7,286.1 408.6,300.9 501.4,304.6 594.3,313.6 687.1,329.0 780.0,323.9 872.9,328.8 965.7,330.2 1058.6,316.8 1151.4,315.3 1244.3,303.7 1337.1,279.5 1430.0,257.8" fill="none" stroke="#0f766e" stroke-width="3"/>
<text x="130.0" y="372" text-anchor="middle" class="axis">epoch 1</text>
<text x="780.0" y="372" text-anchor="middle" class="axis">epoch 8</text>
<text x="1430.0" y="372" text-anchor="middle" class="axis">epoch 15</text>
<text x="130" y="452" class="label">Early-stop expected-payoff MSE (risk units)</text>
<line x1="130" y1="650.0" x2="1430" y2="650.0" class="grid"/><text x="116" y="654.0" text-anchor="end" class="axis">0.8956</text>
<line x1="130" y1="560.0" x2="1430" y2="560.0" class="grid"/><text x="116" y="564.0" text-anchor="end" class="axis">0.9151</text>
<line x1="130" y1="470.0" x2="1430" y2="470.0" class="grid"/><text x="116" y="474.0" text-anchor="end" class="axis">0.9347</text>
<polyline points="130.0,612.1 222.9,632.6 315.7,607.3 408.6,632.2 501.4,624.7 594.3,621.9 687.1,616.9 780.0,612.9 872.9,594.6 965.7,610.9 1058.6,609.4 1151.4,565.7 1244.3,536.6 1337.1,487.4" fill="none" stroke="#2563a6" stroke-width="3"/>
<polyline points="130.0,599.4 222.9,616.9 315.7,621.7 408.6,628.6 501.4,622.9 594.3,620.0 687.1,625.5 780.0,617.1 872.9,615.4 965.7,612.6 1058.6,603.0 1151.4,594.1 1244.3,597.4 1337.1,561.4 1430.0,537.6" fill="none" stroke="#0f766e" stroke-width="3"/>
<text x="130.0" y="672" text-anchor="middle" class="axis">epoch 1</text>
<text x="780.0" y="672" text-anchor="middle" class="axis">epoch 8</text>
<text x="1430.0" y="672" text-anchor="middle" class="axis">epoch 15</text>
</svg>
