<svg xmlns="http://www.w3.org/2000/svg" width="1500" height="610" viewBox="0 0 1500 610" role="img" aria-labelledby="title desc">
<title id="title">Early stopping rejected later overfit</title>
<desc id="desc">Mean three-seed early-stop composite by epoch; selected epochs were 2 for direct control and 4 for hurdle.</desc>
<rect width="100%" height="100%" fill="#ffffff"/>
<style>text{font-family:"Segoe UI",Arial,sans-serif;letter-spacing:0}.title{font-size:27px;font-weight:700;fill:#17212b}.subtitle{font-size:14px;fill:#52606d}.label{font-size:13px;fill:#263746}.axis{font-size:12px;fill:#60717f}.value{font-size:12px;font-weight:650;fill:#263746}.note{font-size:12px;fill:#65727d}.grid{stroke:#e1e8ed;stroke-width:1}.zero{stroke:#526674;stroke-width:2;stroke-dasharray:6 5}</style>
<text x="56" y="52" class="title">Early stopping rejected later overfit</text>
<text x="56" y="80" class="subtitle">Mean three-seed early-stop composite by epoch; selected epochs were 2 for direct control and 4 for hurdle.</text>
<rect x="930" y="42" width="18" height="18" fill="#2563a6"/><text x="958" y="56" class="note">Direct mean control</text>
<rect x="1170" y="42" width="18" height="18" fill="#0f766e"/><text x="1198" y="56" class="note">Conditional gain/loss hurdle</text>
<line x1="120" y1="475.0" x2="1430" y2="475.0" class="grid"/>
<text x="106" y="479.0" text-anchor="end" class="axis">1.345</text>
<line x1="120" y1="310.0" x2="1430" y2="310.0" class="grid"/>
<text x="106" y="314.0" text-anchor="end" class="axis">1.367</text>
<line x1="120" y1="145.0" x2="1430" y2="145.0" class="grid"/>
<text x="106" y="149.0" text-anchor="end" class="axis">1.388</text>
<polyline points="120.0,354.5 239.1,374.1 358.2,372.1 477.3,371.8 596.4,367.3 715.5,354.4 834.5,348.7 953.6,332.5 1072.7,309.4 1191.8,222.7" fill="none" stroke="#2563a6" stroke-width="4"/>
<circle cx="239.1" cy="374.1" r="8" fill="#2563a6" stroke="#ffffff" stroke-width="3"/>
<polyline points="120.0,399.5 239.1,429.7 358.2,431.2 477.3,442.5 596.4,443.1 715.5,428.3 834.5,416.6 953.6,430.9 1072.7,403.8 1191.8,360.3 1310.9,309.5 1430.0,176.9" fill="none" stroke="#0f766e" stroke-width="4"/>
<circle cx="477.3" cy="442.5" r="8" fill="#0f766e" stroke="#ffffff" stroke-width="3"/>
<text x="120.0" y="503" text-anchor="middle" class="axis">1</text>
<text x="239.1" y="503" text-anchor="middle" class="axis">2</text>
<text x="477.3" y="503" text-anchor="middle" class="axis">4</text>
<text x="715.5" y="503" text-anchor="middle" class="axis">6</text>
<text x="953.6" y="503" text-anchor="middle" class="axis">8</text>
<text x="1191.8" y="503" text-anchor="middle" class="axis">10</text>
<text x="1430.0" y="503" text-anchor="middle" class="axis">12</text>
</svg>
