<svg xmlns="http://www.w3.org/2000/svg" width="1500" height="760" viewBox="0 0 1500 760" role="img" aria-labelledby="title desc">
<title id="title">Training dynamics expose WaveBound seed dispersion</title>
<desc id="desc">Chronological early-stop pinball is normalized by training-role robust target scales; mutual peers share one selected epoch.</desc>
<rect width="100%" height="100%" fill="#ffffff"/>
<style>text{font-family:"Segoe UI",Arial,sans-serif;letter-spacing:0}.title{font-size:27px;font-weight:700;fill:#17212b}.subtitle{font-size:14px;fill:#52606d}.label{font-size:13px;fill:#263746}.axis{font-size:12px;fill:#60717f}.value{font-size:12px;font-weight:650;fill:#263746}.note{font-size:12px;fill:#65727d}.grid{stroke:#e1e8ed;stroke-width:1}.zero{stroke:#526674;stroke-width:2;stroke-dasharray:6 5}</style>
<text x="56" y="52" class="title">Training dynamics expose WaveBound seed dispersion</text>
<text x="56" y="80" class="subtitle">Chronological early-stop pinball is normalized by training-role robust target scales; mutual peers share one selected epoch.</text>
<text x="120" y="125" class="label">Early-stop pinball by epoch</text><rect x="120" y="145" width="1310" height="270" fill="#ffffff" stroke="#d8e0e7"/>
<line x1="120" y1="415.0" x2="1430" y2="415.0" class="grid"/><text x="106" y="419.0" text-anchor="end" class="axis">0.350</text>
<line x1="120" y1="361.0" x2="1430" y2="361.0" class="grid"/><text x="106" y="365.0" text-anchor="end" class="axis">0.380</text>
<line x1="120" y1="307.0" x2="1430" y2="307.0" class="grid"/><text x="106" y="311.0" text-anchor="end" class="axis">0.410</text>
<line x1="120" y1="253.0" x2="1430" y2="253.0" class="grid"/><text x="106" y="257.0" text-anchor="end" class="axis">0.440</text>
<line x1="120" y1="199.0" x2="1430" y2="199.0" class="grid"/><text x="106" y="203.0" text-anchor="end" class="axis">0.470</text>
<line x1="120" y1="145.0" x2="1430" y2="145.0" class="grid"/><text x="106" y="149.0" text-anchor="end" class="axis">0.500</text>
<polyline points="120.0,228.2 146.7,239.0 173.5,258.6 200.2,254.3 226.9,253.9 253.7,254.1 280.4,254.4 307.1,254.8 333.9,255.1 360.6,255.4 387.3,255.6 414.1,255.8 440.8,255.9" fill="none" stroke="#9b2c2c" stroke-width="2.5"/>
<polyline points="120.0,229.1 146.7,241.2 173.5,269.6 200.2,324.4 226.9,358.2 253.7,364.7 280.4,366.4 307.1,367.0 333.9,367.7 360.6,368.2 387.3,368.8 414.1,369.4 440.8,369.6 467.6,370.2 494.3,370.7 521.0,371.1 547.8,371.6 574.5,372.0 601.2,372.3 628.0,372.7 654.7,373.1 681.4,373.4 708.2,373.6 734.9,373.7 761.6,373.9 788.4,374.0 815.1,374.3 841.8,374.6 868.6,374.5 895.3,374.6 922.0,374.5 948.8,374.6 975.5,374.3 1002.2,373.8 1029.0,373.8 1055.7,374.0 1082.4,373.7 1109.2,373.3" fill="none" stroke="#c06c2b" stroke-width="2.5"/>
<polyline points="120.0,229.4 146.7,241.2 173.5,264.5 200.2,267.6 226.9,268.7 253.7,269.4 280.4,270.0 307.1,270.4 333.9,270.9 360.6,271.2 387.3,271.6 414.1,272.1 440.8,272.5 467.6,272.7 494.3,273.0 521.0,273.3 547.8,273.5 574.5,273.6 601.2,273.9 628.0,274.0 654.7,274.3 681.4,274.5 708.2,274.6 734.9,275.0 761.6,275.1 788.4,275.2 815.1,275.4 841.8,275.6 868.6,275.7 895.3,275.9 922.0,276.0 948.8,276.0 975.5,276.3 1002.2,276.3 1029.0,276.3 1055.7,276.3 1082.4,276.4 1109.2,276.4 1135.9,276.5 1162.7,276.4 1189.4,276.2 1216.1,276.3 1242.9,276.3 1269.6,276.3 1296.3,276.3 1323.1,276.0 1349.8,276.4 1376.5,276.4 1403.3,277.1 1430.0,277.2" fill="none" stroke="#7c3f96" stroke-width="2.5"/>
<polyline points="120.0,360.2 146.7,379.0 173.5,381.2 200.2,382.7 226.9,384.6 253.7,384.5 280.4,384.4 307.1,383.6 333.9,381.6 360.6,380.0 387.3,374.3 414.1,373.9 440.8,367.3 467.6,359.8 494.3,351.8" fill="none" stroke="#0f766e" stroke-width="4"/>
<text x="120.0" y="441" text-anchor="middle" class="axis">1</text>
<text x="360.6" y="441" text-anchor="middle" class="axis">10</text>
<text x="628.0" y="441" text-anchor="middle" class="axis">20</text>
<text x="895.3" y="441" text-anchor="middle" class="axis">30</text>
<text x="1162.7" y="441" text-anchor="middle" class="axis">40</text>
<text x="1430.0" y="441" text-anchor="middle" class="axis">50</text>
<text x="120" y="500" class="label">Mutual standardized-median consistency penalty</text><rect x="120" y="520" width="1310" height="125" fill="#ffffff" stroke="#d8e0e7"/>
<line x1="120" y1="645.0" x2="1430" y2="645.0" class="grid"/><text x="106" y="649.0" text-anchor="end" class="axis">0.000</text>
<line x1="120" y1="582.5" x2="1430" y2="582.5" class="grid"/><text x="106" y="586.5" text-anchor="end" class="axis">0.081</text>
<line x1="120" y1="520.0" x2="1430" y2="520.0" class="grid"/><text x="106" y="524.0" text-anchor="end" class="axis">0.163</text>
<polyline points="120.0,520.0 146.7,564.4 173.5,605.0 200.2,615.7 226.9,618.4 253.7,620.4 280.4,616.9 307.1,613.4 333.9,604.5 360.6,594.1 387.3,586.8 414.1,570.3 440.8,562.5 467.6,553.5 494.3,548.0" fill="none" stroke="#0f766e" stroke-width="3"/>
<line x1="120" y1="728" x2="150" y2="728" stroke="#9b2c2c" stroke-width="4"/><text x="160" y="733" class="note">Wave 4601</text>
<line x1="365" y1="728" x2="395" y2="728" stroke="#c06c2b" stroke-width="4"/><text x="405" y="733" class="note">Wave 4602</text>
<line x1="610" y1="728" x2="640" y2="728" stroke="#7c3f96" stroke-width="4"/><text x="650" y="733" class="note">Wave 4603</text>
<line x1="855" y1="728" x2="885" y2="728" stroke="#0f766e" stroke-width="4"/><text x="895" y="733" class="note">Mutual ensemble</text>
</svg>
