<svg xmlns="http://www.w3.org/2000/svg" width="1500" height="740" viewBox="0 0 1500 740" role="img" aria-labelledby="title desc">
<title id="title">DirectML training and early stopping</title>
<desc id="desc">Common three-seed ensemble diagnostics; lower composite loss is better.</desc>
<rect width="100%" height="100%" fill="#ffffff"/>
<style>text{font-family:"Segoe UI",Arial,sans-serif;letter-spacing:0}.title{font-size:27px;font-weight:700;fill:#17212b}.subtitle{font-size:14px;fill:#52606d}.label{font-size:13px;fill:#263746}.axis{font-size:12px;fill:#60717f}.value{font-size:12px;font-weight:650;fill:#263746}.note{font-size:12px;fill:#65727d}.grid{stroke:#e1e8ed;stroke-width:1}.zero{stroke:#526674;stroke-width:2;stroke-dasharray:6 5}</style>
<text x="56" y="52" class="title">DirectML training and early stopping</text>
<text x="56" y="80" class="subtitle">Common three-seed ensemble diagnostics; lower composite loss is better.</text>
<line x1="135" y1="575.0" x2="1430" y2="575.0" class="grid"/><text x="121" y="579.0" text-anchor="end" class="axis">1.805</text>
<line x1="135" y1="360.0" x2="1430" y2="360.0" class="grid"/><text x="121" y="364.0" text-anchor="end" class="axis">1.906</text>
<line x1="135" y1="145.0" x2="1430" y2="145.0" class="grid"/><text x="121" y="149.0" text-anchor="end" class="axis">2.008</text>
<polyline points="135.0,256.0 203.2,243.5 271.3,267.3 339.5,262.7 407.6,263.3 475.8,277.6 543.9,274.1 612.1,266.4 680.3,279.4 748.4,279.8 816.6,272.4 884.7,281.7 952.9,268.1 1021.1,242.4 1089.2,266.5 1157.4,238.6 1225.5,204.0 1293.7,226.7 1361.8,214.3 1430.0,209.6" fill="none" stroke="#2563a6" stroke-width="3"/>
<polyline points="135.0,174.7 203.2,264.2 271.3,266.4 339.5,293.9 407.6,311.3 475.8,300.5 543.9,318.1 612.1,303.8 680.3,315.4 748.4,351.3 816.6,341.0 884.7,372.8 952.9,371.8 1021.1,381.6 1089.2,383.2 1157.4,386.3 1225.5,447.5 1293.7,450.4 1361.8,475.9 1430.0,497.2" fill="none" stroke="#2563a6" stroke-width="3" stroke-dasharray="8 6"/>
<circle cx="884.7" cy="281.7" r="7" fill="#2563a6" stroke="#ffffff" stroke-width="2"/>
<polyline points="135.0,268.7 203.2,274.8 271.3,294.1 339.5,289.0 407.6,305.3 475.8,303.1 543.9,303.3 612.1,301.9 680.3,303.8 748.4,310.7 816.6,312.6 884.7,312.4 952.9,308.8 1021.1,292.8 1089.2,291.0 1157.4,283.6 1225.5,280.8 1293.7,251.7 1361.8,241.6" fill="none" stroke="#0f766e" stroke-width="3"/>
<polyline points="135.0,247.8 203.2,359.0 271.3,345.2 339.5,360.3 407.6,366.8 475.8,385.4 543.9,381.4 612.1,399.9 680.3,391.9 748.4,396.7 816.6,405.7 884.7,424.7 952.9,424.6 1021.1,449.5 1089.2,459.3 1157.4,478.0 1225.5,494.8 1293.7,544.5 1361.8,545.3" fill="none" stroke="#0f766e" stroke-width="3" stroke-dasharray="8 6"/>
<circle cx="816.6" cy="312.6" r="7" fill="#0f766e" stroke="#ffffff" stroke-width="2"/>
<text x="135.0" y="605" text-anchor="middle" class="axis">1</text>
<text x="407.6" y="605" text-anchor="middle" class="axis">5</text>
<text x="748.4" y="605" text-anchor="middle" class="axis">10</text>
<text x="1089.2" y="605" text-anchor="middle" class="axis">15</text>
<text x="1430.0" y="605" text-anchor="middle" class="axis">20</text>
<text x="56" y="660" class="note">Solid: early-stop role. Dashed: training role. Large markers: retained checkpoints.</text>
</svg>
