<svg xmlns="http://www.w3.org/2000/svg" width="1500" height="740" viewBox="0 0 1500 740" role="img" aria-labelledby="title desc">
<title id="title">Round 47 training dynamics</title>
<desc id="desc">Chronological early-stop composite and calibrated-action training loss; epochs after each minimum remain diagnostic only.</desc>
<rect width="100%" height="100%" fill="#ffffff"/>
<style>text{font-family:"Segoe UI",Arial,sans-serif;letter-spacing:0}.title{font-size:27px;font-weight:700;fill:#17212b}.subtitle{font-size:14px;fill:#52606d}.label{font-size:13px;fill:#263746}.axis{font-size:12px;fill:#60717f}.value{font-size:12px;font-weight:650;fill:#263746}.note{font-size:12px;fill:#65727d}.grid{stroke:#e1e8ed;stroke-width:1}.zero{stroke:#526674;stroke-width:2;stroke-dasharray:6 5}</style>
<text x="56" y="52" class="title">Round 47 training dynamics</text>
<text x="56" y="80" class="subtitle">Chronological early-stop composite and calibrated-action training loss; epochs after each minimum remain diagnostic only.</text>
<text x="130" y="132" class="label">Early-stop composite</text>
<line x1="130" y1="340.0" x2="1430" y2="340.0" class="grid"/><text x="116" y="344.0" text-anchor="end" class="axis">0.5593</text>
<line x1="130" y1="245.0" x2="1430" y2="245.0" class="grid"/><text x="116" y="249.0" text-anchor="end" class="axis">0.6242</text>
<line x1="130" y1="150.0" x2="1430" y2="150.0" class="grid"/><text x="116" y="154.0" text-anchor="end" class="axis">0.6892</text>
<polyline points="130.0,219.7 216.7,313.8 303.3,316.1 390.0,319.3 476.7,321.6 563.3,321.3 650.0,317.8 736.7,319.0 823.3,320.6 910.0,315.4 996.7,304.2 1083.3,298.9 1170.0,287.3 1256.7,269.4 1343.3,254.5" fill="none" stroke="#2563a6" stroke-width="4"/>
<circle cx="476.7" cy="321.6" r="7" fill="#2563a6" stroke="#ffffff" stroke-width="2"/>
<polyline points="130.0,168.4 216.7,263.0 303.3,265.5 390.0,269.3 476.7,271.5 563.3,271.6 650.0,268.4 736.7,267.8 823.3,266.3 910.0,259.0 996.7,248.0 1083.3,236.9 1170.0,227.5 1256.7,204.3 1343.3,193.3 1430.0,188.1" fill="none" stroke="#0f766e" stroke-width="4"/>
<circle cx="563.3" cy="271.6" r="7" fill="#0f766e" stroke="#ffffff" stroke-width="2"/>
<text x="130.0" y="366" text-anchor="middle" class="axis">epoch 1</text>
<text x="736.7" y="366" text-anchor="middle" class="axis">epoch 8</text>
<text x="1430.0" y="366" text-anchor="middle" class="axis">epoch 16</text>
<text x="130" y="427" class="label">Training side-profitability BCE</text>
<line x1="130" y1="635.0" x2="1430" y2="635.0" class="grid"/><text x="116" y="639.0" text-anchor="end" class="axis">0.5560</text>
<line x1="130" y1="540.0" x2="1430" y2="540.0" class="grid"/><text x="116" y="544.0" text-anchor="end" class="axis">0.6309</text>
<line x1="130" y1="445.0" x2="1430" y2="445.0" class="grid"/><text x="116" y="449.0" text-anchor="end" class="axis">0.7059</text>
<polyline points="130.0,463.4 216.7,468.2 303.3,473.2 390.0,476.0 476.7,479.7 563.3,485.0 650.0,492.0 736.7,499.4 823.3,509.3 910.0,522.7 996.7,537.8 1083.3,552.6 1170.0,568.7 1256.7,582.3 1343.3,596.3" fill="none" stroke="#2563a6" stroke-width="4"/>
<circle cx="476.7" cy="479.7" r="7" fill="#2563a6" stroke="#ffffff" stroke-width="2"/>
<polyline points="130.0,463.4 216.7,468.2 303.3,473.3 390.0,476.2 476.7,479.9 563.3,485.4 650.0,493.0 736.7,501.8 823.3,513.0 910.0,527.3 996.7,543.2 1083.3,559.4 1170.0,574.9 1256.7,590.1 1343.3,603.9 1430.0,616.6" fill="none" stroke="#0f766e" stroke-width="4"/>
<circle cx="563.3" cy="485.4" r="7" fill="#0f766e" stroke="#ffffff" stroke-width="2"/>
<text x="130.0" y="661" text-anchor="middle" class="axis">epoch 1</text>
<text x="736.7" y="661" text-anchor="middle" class="axis">epoch 8</text>
<text x="1430.0" y="661" text-anchor="middle" class="axis">epoch 16</text>
<line x1="900" y1="52" x2="934" y2="52" stroke="#2563a6" stroke-width="4"/><text x="944" y="57" class="note">Proper utility multitask</text>
<line x1="1170" y1="52" x2="1204" y2="52" stroke="#0f766e" stroke-width="4"/><text x="1214" y="57" class="note">Utility + pairwise rank</text>
</svg>
